<svg width="89" height="14" viewBox="0 0 89 14" xmlns="http://www.w3.org/2000/svg"><title>quartz</title><path d="M12.17 10.8a6.776 6.776 0 0 0 1.31-4.015C13.48 3.045 10.453 0 6.74 0 3.023 0 0 3.046 0 6.785c0 3.742 3.023 6.785 6.74 6.785a6.662 6.662 0 0 0 3.921-1.27l1.69 1.7 1.5-1.508-1.681-1.693zm-1.525-1.535l-2.49-2.507-1.498 1.51 2.477 2.494a4.58 4.58 0 0 1-2.394.673c-2.549 0-4.62-2.085-4.62-4.65 0-2.563 2.071-4.65 4.62-4.65 2.544 0 4.618 2.088 4.618 4.65 0 .878-.247 1.738-.713 2.48zM74.306.336v2.157h-4.007v10.788h-2.171V2.493H64.12V.336h10.186zM40.8.336h-2.606l-4.955 12.945h2.274l.928-2.522h6.111l.929 2.522h2.274L40.8.336zm-3.532 8.405l2.23-5.842 2.227 5.842h-4.457zM89 2.493l-7.187 8.602H89v2.186H78.981v-2.3l7.214-8.488h-6.713V.358H89v2.135zM29.036.336v8.19c0 2.775-2.24 5.033-4.997 5.033-2.758 0-5.001-2.258-5.001-5.034V.336h2.168v8.19c-.047 1.598 1.244 2.898 2.833 2.898 1.585 0 2.876-1.3 2.845-2.899V.336h2.152zm28.032 8.56a4.496 4.496 0 0 0 2.484-4.02c0-2.372-1.943-4.492-4.363-4.54h-4.761V13.28h2.17V9.382h1.967l4.476 4.564 1.508-1.5-3.481-3.55zm-2.037-1.65H52.6v-4.74h2.432c1.324 0 2.4 1.063 2.4 2.37 0 1.308-1.076 2.37-2.4 2.37z" fill="#666"/></svg>