<svg width="110" height="11" viewBox="0 0 110 11" xmlns="http://www.w3.org/2000/svg"><title>motherboard-logo-black</title><path d="M19.072 7.68c-1.146 0-1.947-.823-1.947-2.022 0-1.116.746-2.05 1.947-2.05 1.202 0 1.947.934 1.947 2.05 0 1.2-.8 2.022-1.947 2.022zm19.306-3.822h-2.32V.315H24.43v3.172C23.585 1.41 21.495.148 19.072.148c-3.163 0-5.759 2.148-5.759 5.454 0 .132.005.262.013.39L12.402.315H8.549l-1.174 4.13c-.124.446-.193.934-.263 1.394h-.096L5.579.315H1.685L0 10.833h3.66l.442-4.492c.041-.418.069-.85.096-1.27h.125c.027.447.124.866.234 1.312l1.354 4.45h2.21l1.505-4.715c.11-.335.18-.697.249-1.046h.069l.51 5.76h3.66l-.598-3.675C14.182 9.588 16.419 11 19.072 11c3.176 0 5.76-2.023 5.76-5.398a5.66 5.66 0 0 0-.31-1.873l1.993-.094v7.198H30.3V3.635l2.113.093v7.105h3.646V7.178h2.32v3.655h3.646V.315h-3.646v3.543zm8.41 3.069H49.7V4.193h-2.913V3.19h3.19V.315h-7.002v10.518h7.112V7.959h-3.3V6.927m57.123.753h-.236V3.607h.235c1.381 0 2.223.628 2.223 2.107 0 1.38-.966 1.966-2.223 1.966zM94.2 4.974h-.262V3.19h.29c.649 0 1.215.098 1.215.906 0 .782-.622.88-1.243.88zm-10.04 2.05l.69-3.208h.139c.07.447.138.907.249 1.353l.441 1.856H84.16zm-9.21.656c-1.147 0-1.948-.823-1.948-2.022 0-1.116.746-2.05 1.947-2.05 1.202 0 1.948.934 1.948 2.05 0 1.2-.801 2.022-1.948 2.022zm-10.46.642h-.428V6.578h.374c.607 0 1.574-.014 1.574.865 0 .865-.898.879-1.52.879zm-.428-5.468h.263c.552 0 1.257-.056 1.257.725 0 .726-.622.782-1.174.782h-.346V2.854zm-9.141 2.12h-.263V3.19h.29c.65 0 1.215.098 1.215.906 0 .782-.62.88-1.242.88zM103.744.315H99.89v10.308l-2.126-3.208c-.207-.307-.442-.474-.635-.627v-.084c1.408-.474 2.016-1.144 2.016-2.734 0-2.65-1.989-3.655-4.336-3.655h-4.572V9.54L86.978.315h-4.184l-2.17 6.306a6.08 6.08 0 0 0 .086-1.019c0-3.306-2.597-5.454-5.76-5.454-3.162 0-5.758 2.148-5.758 5.454 0 .472.052.917.147 1.334-.279-.713-.87-1.216-1.67-1.501V5.35c.91-.293 1.366-1.2 1.366-2.12 0-2.427-2.057-2.916-4.074-2.916h-4.405V10.54l-2.071-3.126c-.207-.307-.442-.474-.635-.627v-.084c1.408-.474 2.016-1.144 2.016-2.734 0-2.65-1.989-3.655-4.337-3.655h-4.57v10.518h3.7V7.457h.07l1.656 3.376h9.322c1.823 0 3.812-.74 3.812-2.902 0-.179-.017-.348-.045-.51C70.225 9.69 72.395 11 74.95 11c2.22 0 4.146-.987 5.108-2.732l-.882 2.565h4.005l.304-1.312h2.858l.346 1.312h7.25V7.457h.069l1.657 3.376h9.018c3.052 0 5.234-1.981 5.234-5.105 0-3.864-2.68-5.413-6.173-5.413z" fill="#0B0B0A"/></svg>