<svg width="48" height="12" viewBox="0 0 48 12" xmlns="http://www.w3.org/2000/svg"><title>forbes_logo</title><g fill="#002D4D" fill-rule="evenodd"><path d="M27.294 11.291c.312.005.827.09 1.096-.025v-.026h.052v-.026h.052v-.026h.053l.052-.052h.052l.052-.077h.052l.21-.233.13-.103v-.052l.052-.026v-.052l.078-.051.026-.104.052-.026.053-.155h.026v-.052h.026l.052-.155h.026v-.077h.026l.026-.104h.026l.026-.155h.027v-.077h.026v-.078h.026v-.078h.026l.026-.206h.026l.026-.207h.026l.026-.259h.026v-.155h.027v-.207h.026v-.233h.026v-.387h.026c.035-.125 0-.633-.026-.724v-.337h-.026v-.232l-.183-.802-.261-.594-.052-.026-.026-.104-.053-.026-.026-.077-.078-.052v-.052l-.104-.077-.13-.155c-.294-.208-.795-.405-1.28-.259h-.13v.026h-.105v.026h-.078v.026l-.156.026v.025c-.053.06-.026.257-.026.362v4.81c.066.076.026.363.026.491 0 .185-.015.426.026.569v.207c0 .147.006.302.026.413zM27.268.044l-.052 3.852c.19-.01.282-.121.417-.18h.078V3.69h.053v-.026h.078v-.026h.078v-.026h.078v-.026h.079V3.56l.209-.026V3.51l.26-.026c.483-.14 1.249-.04 1.619.103l.156.026c.505.219.975.563 1.279.983l.104.077v.052l.053.026V4.8l.052.026v.052l.052.026v.052l.052.025.026.104.052.026.027.103h.026l.052.155h.026v.078h.026l.026.103h.026l.026.155h.026v.078h.027v.078h.026v.077h.026v.078h.026v.103h.026v.104h.026v.129h.026v.155h.026v.18h.026v.285h.026c.034.119-.002.563-.026.647v.31h-.026v.207h-.026v.18h-.026v.13h-.026v.13h-.026l-.026.206h-.026l-.026.181h-.027v.078h-.026v.077H32.2v.078h-.026l-.026.13h-.026l-.026.103h-.026v.077h-.026l-.053.155h-.026l-.026.104-.052.026-.052.155-.052.026v.051h-.026l-.026.078-.053.026v.052l-.078.051v.052l-.104.078v.051l-.287.259-.21.233h-.051l-.079.103h-.052l-.026.052h-.052l-.052.077-.731.388-.627.207h-.104v.026l-.235.026v.026h-.156v.025h-.183v.026h-.235c-.206.057-1.072.058-1.279 0h-.313v-.026h-.26v-.025h-.21v-.026h-.182v-.026h-.183l-1.2-.233.025-1.706c0-.307-.047-.723.027-.983V4.361c0-.252.033-.592-.027-.8V2.5h-.026v-.44h-.026v-.13h-.026v-.129h-.026v-.103h-.026l-.104-.31-.079-.052v-.052l-.052-.052h-.052l-.052-.077-.105-.026v-.026h-.078v-.026h-.078v-.026h-.157A1.234 1.234 0 0 0 23.614 1V.69l3.654-.646zM.073.25H9.73l.052 3.207c-.195.016-.32.116-.522.13l-.104-.311h-.027v-.078h-.026v-.051h-.026v-.078h-.026l-.026-.103H9v-.078h-.026l-.052-.155h-.026V2.68h-.027v-.05h-.026v-.051h-.026v-.052l-.052-.052v-.051l-.052-.026a232.46 232.46 0 0 1-.026-.104 56.765 56.765 0 0 1-.052-.026v-.051h-.027l-.026-.078-.052-.026v-.051l-.078-.052v-.052l-.13-.103v-.052l-.157-.13a44.665 44.665 0 0 1-.026-.051h-.052l-.079-.103-.078-.026a74.464 74.464 0 0 1-.026-.052H7.85l-.026-.052-.105-.026v-.025h-.052V1.31h-.052v-.026l-.157-.052v-.026l-.235-.051V1.13l-.26-.026c-.209-.06-.506-.052-.784-.052H4.51v.104h-.026v.568h-.026v.724h-.026v.233c0 .23.026.537-.026.724v2.301h.417v-.025h.627v-.026h.495v-.026h.131v-.026l.157-.026v-.026l.104-.026V5.5h.052c.402-.253.63-.864.73-1.423h.47V7.93h-.47c-.097-.56-.31-1.162-.704-1.422h-.052v-.026l-.157-.052v-.026h-.078V6.38l-.313-.026v-.026h-.652V6.3h-.627v-.026h-.13v1.112c0 .192-.017.445.026.595v.362l.026.775h.026l.026.647h.026v.155h.026v.155h.026v.104h.026v.103h.027v.103h.026v.052h.026v.078h.026l.026.103h.026l.026.104.052.025v.052l.079.052.13.155h.052v.026l.157.052v.025h.104v.026h.13v.026l.34.026c.116.033.276.072.418.078v.413H.073v-.413c.135-.006.26-.046.366-.078l.417-.052v-.026h.105v-.025l.156-.052v-.026h.053l.13-.155.078-.052v-.052l.052-.025.027-.104h.026l.026-.103h.026v-.078h.026v-.077h.026v-.078h.026v-.103h.026l.026-.259h.026v-.18h.027v-.284h.026c.04-.143-.01-.366.026-.492v-.646c.059-.21.023-.547.026-.802v-.129h.026V4.88c0-.246.03-.575-.026-.776v-.362l-.026-.905h-.026l-.026-.646H1.69v-.155h-.026V1.88H1.64v-.104h-.026v-.103h-.026v-.104h-.026v-.051h-.026V1.44H1.51a92.994 92.994 0 0 0-.026-.103h-.026a116.3 116.3 0 0 1-.027-.104 32.457 32.457 0 0 1-.052-.026v-.051l-.104-.078-.078-.103h-.053L1.117.923h-.052V.897h-.052V.871H.935V.845H.882V.82L.073.716V.251z"/><path d="M24.136 3.509l-.861 2.197c-.115-.026-.195-.107-.287-.155l-.13-.026V5.5h-.053v-.026h-.078v-.026h-.079v-.026h-.078v-.026l-.235-.026c-.373-.11-.878-.04-1.174.078h-.079v.026h-.052V5.5c-.137.061-.24.083-.313.206-.092.092-.052.394-.052.57l-.026 1.344v.905h.026v.103c.005.24-.03.554.026.75v.44h.026v.31h.026v.258h.026v.156l.13.362.053.025v.052h.026l.052.078h.052l.027.051.104.026v.026h.078v.026h.105v.026h.235v.026l.548.026v.413h-5.116v-.413l.6-.078v-.026h.079v-.026h.052l.026-.051h.052l.079-.104.078-.052.026-.103h.026l.026-.103h.026l.026-.156h.027l.026-.336h.026v-.543h.026v-.853c.042-.15.026-.402.026-.595V7.103c0-.261.035-.612-.026-.828v-.594h-.026v-.337h-.026c-.01-.112-.018-.224-.026-.336h-.027v-.077h-.026v-.078h-.026v-.077h-.026v-.052l-.052-.026v-.052a75.71 75.71 0 0 0-.052-.026l-.105-.129-.156-.052v-.025h-.105v-.026h-.156v-.026c-.114-.033-.29.012-.366-.052h-.026v-.284c.142-.022.317-.065.444-.104h.157v-.026h.13v-.025h.13v-.026h.131v-.026h.13c.162-.05.388-.08.549-.13l.809-.129c.154-.048.367-.082.522-.129h.156c.153-.046.333-.096.522-.103-.013.595-.05 1.207-.052 1.835h.026v-.051h.052c.02-.09.067-.141.105-.207v-.052l.052-.026.026-.103.052-.026.026-.103.052-.026v-.052l.079-.052v-.051c.017-.01.035-.018.052-.026l.026-.078.13-.103v-.052L21.553 4l.052-.078h.053l.104-.129.078-.026.026-.052h.053l.026-.051.078-.026v-.026l.157-.052v-.026h.052V3.51l.156-.052V3.43h.079v-.026h.078V3.38h.078v-.026h.105v-.025h.13v-.026h.209v-.026h.287v.026h.209v.026h.104v.025h.105c.118.043.233.126.365.156zm-11.509.31v.026h-.183v.026l-.183.025v.026l-.156.052-.053.078H12l-.026.051-.156.13v.051l-.079.052v.052l-.052.026-.026.103h-.026v.052h-.026l-.052.155h-.027l-.026.155h-.026v.052h-.026l-.026.18H11.4v.104h-.026v.104h-.026v.103h-.026l-.026.284h-.026v.181h-.027v.233h-.026l-.026.388v.284c-.062.224-.026.585-.026.854 0 .7.036 1.4.209 1.939l.052.31c.19.526.377 1.005.81 1.293l.025.052h.052v.026l.105.025v.026c.079.034.542.093.678.052v-.026h.105v-.026h.078v-.026l.157-.051v-.026h.052l.026-.052h.052l.13-.155.105-.078v-.051l.052-.026.026-.078h.026l.027-.103h.026v-.052h.026l.052-.155h.026v-.078h.026v-.051h.026v-.078h.026l.026-.18h.027v-.078h.026v-.104c.054-.166.08-.396.13-.569l.026-.491h.026v-.388c.052-.187.026-.493.026-.724 0-.865-.04-1.655-.26-2.301v-.103h-.027V5.24h-.026v-.078h-.026v-.077h-.026v-.078h-.026v-.051h-.026v-.078h-.026l-.052-.155h-.027v-.052h-.026l-.052-.155h-.026l-.026-.078-.052-.025v-.052l-.105-.078v-.051l-.052-.026-.078-.104h-.052l-.053-.077h-.052l-.026-.052c-.15-.093-.436-.156-.678-.155zm.052-.517c.967-.011 1.786.176 2.375.543l.156.051.026.052h.053l.026.052h.052l.052.077h.052l.079.104h.052l.209.233.234.206v.052l.079.052v.052l.078.051v.052l.052.026v.052l.052.025.027.078h.026l.052.155.052.026.313.75v.103c.153.431.209.935.209 1.526l-.026.672h-.026v.155h-.026v.155l-.21.724h-.025v.052h-.026v.078h-.026l-.053.155h-.026v.051h-.026v.052h-.026v.052h-.026v.052h-.026v.051l-.052.052v.052l-.052.026v.051l-.053.026v.052l-.052.026v.051l-.052.026v.052l-.052.026-.026.077-.105.078v.052l-.209.18-.234.26h-.053l-.078.103-.078.026-.026.051h-.052l-.027.052-.078.026v.026h-.052l-.026.051-.105.026-.026.052-.104.026v.026h-.052v.026l-.157.051v.026h-.078v.026l-.105.026v.026l-.156.026v.025h-.078v.026h-.079v.026h-.078v.026h-.104v.026l-.21.026v.026h-.156v.025h-.156v.026h-.21v.026h-.547c-.59 0-1.07-.07-1.488-.233l-.156-.025v-.026h-.053v-.026h-.078v-.026l-.156-.052v-.026h-.053v-.025h-.052v-.026h-.052v-.026l-.157-.052-.026-.052h-.052v-.025l-.078-.026-.026-.052h-.053l-.052-.078h-.052l-.078-.103h-.052l-.105-.13-.26-.232v-.052l-.131-.103-.026-.078-.053-.026v-.051l-.052-.026-.026-.078h-.026l-.365-.724-.026-.155h-.027v-.077h-.026v-.078h-.026v-.078H8.79v-.103h-.026l-.026-.207h-.026l-.026-.284c-.076-.259-.14-1.037-.052-1.345v-.258h.026v-.155h.026V6.61l.209-.724h.026v-.051h.026v-.078h.026l.052-.155h.026V5.55h.026V5.5h.026v-.052h.026v-.052h.027v-.052l.052-.051V5.24l.052-.026v-.052l.052-.025v-.052l.052-.026v-.052l.053-.026V4.93l.052-.026.026-.078.104-.077v-.052l.235-.207.235-.258h.052l.078-.104h.053l.026-.052h.052L10.382 4l.105-.026.026-.052.078-.026v-.025l.157-.052v-.026h.052v-.026h.052v-.026l.157-.051v-.026h.078v-.026h.052v-.026h.078v-.026h.053V3.56l.26-.051v-.026h.079v-.026l.704-.13c.115-.032.29.04.366-.025zM35.75 6.637l2.61-.051c.009-.833-.05-1.635-.34-2.172v-.052h-.026l-.026-.104-.052-.025V4.18l-.052-.026v-.052l-.053-.026-.078-.103h-.052l-.026-.052h-.052v-.026h-.053V3.87h-.078v-.026h-.156v-.026c-.07-.018-.245.036-.288.052l-.156.025v.026h-.052l-.026.052h-.053l-.026.052h-.052l-.026.051-.157.13v.051l-.078.052v.052l-.052.026v.051l-.052.026-.052.155h-.027v.052h-.026l-.052.155h-.026v.078h-.026v.052h-.026l-.052.232h-.026v.104h-.027l-.052.284h-.026v.13a3.628 3.628 0 0 0-.13.93zm5.115.569H35.75c-.01.732.091 1.339.313 1.836v.077h.026l.052.156h.026v.051h.026l.026.104.053.026.026.103.052.026v.052l.078.051v.052l.13.103v.052l.157.13.026.051h.053l.104.13h.052l.026.051.079.026v.026h.052l.026.052.104.025v.026h.052v.026l.157.052v.026l.235.051v.026l.183.026c.485.16 1.317.137 1.774-.026h.105v-.026h.052v-.025h.078v-.026l.157-.052v-.026h.052v-.026h.052l.052-.051h.053l.026-.052h.052v-.026c.077-.045.154-.064.209-.13.052.016.022-.002.052.027.06.05.095.131.156.18-.015.053.004.023-.026.052-.018.067-.04.085-.078.13h-.026v.051l-.104.078-.183.207h-.052l-.105.129-.078.026-.026.052h-.052l-.053.077H39.9l-.026.052-.104.026-.026.051-.105.026-.026.052-.156.052v.026l-.157.051v.026l-.13.026v.026h-.053v.026l-.47.129v.026h-.104v.026h-.13v.026h-.13v.025h-.131v.026h-.21v.026h-.26c-.225 0-.524.025-.705-.026l-.496-.051-.756-.233v-.026l-.105-.026v-.026h-.078v-.026l-.105-.025v-.026h-.052l-.026-.052-.156-.052v-.026l-.079-.025-.026-.052h-.052v-.026l-.078-.026-.026-.052h-.053l-.026-.051-.078-.026-.104-.13h-.053l-.208-.232-.13-.104v-.051l-.131-.104v-.051l-.079-.052-.026-.078-.052-.026-.391-.698-.235-.698v-.13h-.026v-.128h-.026v-.156h-.027v-.18h-.026v-.337h-.026v-.44h.026l.026-.516h.027l.026-.31h.026l.052-.31h.026v-.078h.026v-.078h.026v-.078h.026v-.077h.026l.026-.155h.027l.026-.104h.026v-.077h.026l.052-.155h.026v-.052h.026l.026-.104.053-.025.026-.104.052-.026.026-.103H34l.026-.078.052-.026v-.051l.053-.026.026-.078.104-.077v-.052l.261-.233.235-.258h.052l.052-.078.079-.026.026-.051h.052L35.045 4h.052l.026-.052h.052l.027-.052.104-.025.026-.052.104-.026v-.026h.053v-.026l.156-.051v-.026h.079v-.026l.104-.026v-.026l.157-.026v-.026h.078V3.51h.078v-.026h.105v-.026h.104V3.43h.104v-.026l.287-.026v-.026l.548-.025v-.026h.366v.026h.313v.025h.183v.026h.13v.026h.13v.026h.079v.026l.261.052v.025l.13.026v.026l.105.026v.026h.078c1.154.61 1.796 1.816 1.8 3.568zm6.551-3.465l.052 2.12-.366.078a.564.564 0 0 0-.052-.207h-.026l-.026-.155h-.026l-.026-.13h-.026l-.026-.103h-.026v-.051h-.027v-.078h-.026l-.026-.103h-.026V5.06l-.052-.026-.052-.155-.052-.026v-.052h-.027l-.026-.077-.052-.026v-.052a79.204 79.204 0 0 1-.078-.051c-.235-.328-.541-.536-.966-.673l-.391-.026c-.487 0-.763.09-.966.362l-.104.078-.026.103-.053.026v.052h-.026l-.026.155c-.042.107-.132.408-.078.595h.026v.13h.026V5.5h.026l.026.103h.026v.052l.053.026v.051l.104.078v.052l.052.051h.052l.105.13h.052l.026.051h.052l.026.052.079.026v.026l.156.051.026.052.105.026v.026h.052v.026l.157.051v.026h.078v.026h.052v.026l.104.026v.026h.079v.026l.104.025v.026h.078v.026l.105.026v.026h.078v.026h.052v.026l.157.025v.026h.052v.026h.078v.026l.105.026v.026h.078v.025l.157.052v.026h.052v.026h.052v.026h.052v.026h.052v.026h.053l.052.051h.052l.026.052.105.026.026.051h.052l.052.078h.052l.052.078h.053l.13.155.235.207v.051l.052.026.026.078h.026v.051c.018.01.035.018.053.026v.052h.026v.052h.026v.077h.026v.052h.026v.078h.026v.077h.026v.078h.026l.026.284c.12.417-.048 1.083-.182 1.345l-.053.18c-.017.01-.034.018-.052.027l-.052.155-.052.026v.051l-.078.052v.052l-.079.051v.052l-.104.078-.183.207h-.052l-.078.103h-.052l-.053.078h-.052l-.026.051-.104.026c-.01.017-.018.035-.026.052h-.053l-.052.052h-.052v.025h-.052c-.56.296-1.193.414-2.062.414-.291 0-.606.013-.835-.052h-.235c-.199-.056-.46-.07-.653-.129h-.13v-.026h-.104v-.026h-.105v-.025h-.104v-.026h-.105v-.026h-.104c-.137-.049-.287-.123-.444-.155a9.787 9.787 0 0 1-.026-.828v-.388c-.038-.135-.026-.365-.026-.543 0-.13-.017-.596 0-.62a1.88 1.88 0 0 1 .34-.104v.026c.058.054.019.057.052.13h.026v.051h.026l.026.13h.026l.026.129h.026l.026.103h.026v.052h.027v.052h.026v.051h.026v.052h.026v.052h.026l.052.155.052.026.026.103h.027l.026.078.052.026v.051l.052.026.026.078.078.052v.051l.235.207.079.104h.052l.052.077h.052l.026.052h.052c.01.017.018.034.027.052l.104.025v.026l.157.052v.026h.078c.38.15.904.184 1.305.026h.078v-.026l.157-.052.026-.052h.052l.026-.051h.052l.105-.13.052-.025v-.052l.078-.052v-.052l.052-.025.026-.104h.026v-.077h.027v-.078h.026v-.078h.026v-.18h.026c.032-.114-.029-.369-.052-.44V9.48h-.026v-.05h-.027l-.052-.155-.052-.026v-.052l-.078-.052-.13-.155h-.053l-.052-.077h-.052a24.81 24.81 0 0 0-.026-.052l-.105-.026-.026-.052-.156-.051v-.026H44.7V8.68l-.156-.052v-.026h-.079v-.026l-.104-.025v-.026h-.078v-.026h-.052v-.026l-.13-.026v-.026l-.158-.026V8.37h-.052v-.026l-.156-.026v-.026l-.157-.026V8.24h-.052v-.026h-.078V8.19h-.053v-.026h-.078v-.026l-.104-.026v-.026h-.079V8.06l-.156-.051v-.026l-.105-.026-.026-.052-.104-.026-.026-.051-.105-.026-.052-.078a71.671 71.671 0 0 0-.078-.026v-.026h-.052l-.209-.232-.183-.155v-.052l-.078-.052-.026-.103-.052-.026-.026-.104h-.026c-.01-.034-.018-.068-.027-.103h-.026v-.078h-.026c-.092-.23-.13-.514-.13-.827v-.31h.026v-.155h.026l.026-.207h.026l.026-.155h.026l.026-.13h.027l.026-.103h.026l.026-.103c.017-.01.035-.018.052-.026l.026-.104.052-.026V4.57l.079-.052v-.052l.13-.103V4.31l.13-.103.027-.052h.052l.104-.13h.052l.053-.077h.052l.026-.052h.052l.026-.051.079-.026v-.026l.156-.052v-.026h.052V3.69l.157-.052v-.026h.078v-.026h.052V3.56h.079v-.026h.078V3.51h.078v-.026h.079v-.026l.678-.13h.34v-.025h.417v.026h.287l.418.025v.026h.208v.026l.314.026c.136.04.313.085.443.13h.105v.025l.235.052c.08.031.167.083.26.103z"/></g></svg>