<svg width="78" height="18" viewBox="0 0 78 18" xmlns="http://www.w3.org/2000/svg"><title>Fortune-logo-2016</title><path d="M13.993 0c-1.467.006-2.928.788-3.656 2.344L10 3.062v11.87l.337.718c.522 1.116 1.33 1.82 2.543 2.209.869.279 2.253.132 3.137-.33.573-.3 1.383-1.193 1.696-1.869l.287-.62V2.954l-.313-.64A4.041 4.041 0 0 0 13.993 0zm.067 2.94c.053 0 .106.006.157.017.169.038.451.237.63.442l.326.374v10.393l-.24.355c-.132.195-.38.405-.55.465-.17.06-.362.109-.426.108-.257-.004-.656-.291-.887-.638l-.243-.364V9.01c0-4.85.008-5.099.206-5.429.235-.39.655-.643 1.027-.64zm35.633 14.858c-1.236-.47-2.047-1.277-2.515-2.504-.164-.431-.18-1.16-.178-7.854l.003-7.38 1.44-.03L49.882 0l.001 7.067c.002 5.46.032 7.129.136 7.34.074.15.304.366.511.48.466.257.856.178 1.283-.26l.307-.313V0l1.44.03L55 .06v7.384c0 7.214-.006 7.397-.223 7.99-.313.858-1.113 1.72-2.002 2.156-.926.455-2.203.541-3.082.208zM0 8.5V0h7v2.92H2.925v3.974l1.28-.018 1.28-.017.03 1.42.028 1.42H2.925V17H0V8.5zm23 0V0h2.349c2.557 0 3.257.098 4.148.58.671.363 1.373 1.093 1.73 1.8.289.572.3.668.337 2.803.03 1.778.002 2.34-.144 2.866-.21.76-.595 1.407-1.125 1.897l-.376.346.99 3.131a599.977 599.977 0 0 0 1.068 3.354c.076.22.06.223-1.554.223h-1.63l-.475-1.695c-.473-1.689-1.68-5.92-1.782-6.247-.04-.124.04-.191.282-.24.448-.091 1.258-.744 1.45-1.169.112-.247.155-.867.155-2.23V3.53l-.33-.305c-.307-.283-.391-.305-1.187-.305h-.856V17H23V8.5zm13.63 8.422l-.026-7.014-.025-6.936-1.29-.029L34 2.913V0h8v2.92h-2.526V17h-1.421c-.782 0-1.422-.035-1.423-.078zM59 8.503V.006h2.991l.116.39c.063.216.557 1.729 1.097 3.363a682.23 682.23 0 0 1 1.325 4.04c.189.588.39 1.069.445 1.069.063 0 .1-1.711.096-4.405L65.063.058 66.53.029 68 0v17h-3.316l-.31-.964c-.172-.53-.472-1.45-.67-2.045-.196-.594-.636-1.942-.977-2.997-.34-1.055-.66-1.918-.71-1.918-.049 0-.09 1.783-.09 3.962V17H59V8.503zM71 8.5V0h7v2.92h-4.184l.029 1.956.028 1.955h2.665V9.7H73.82v4.38H78V17h-7V8.5z" fill="#0F0F0F"/></svg>