<svg xmlns="http://www.w3.org/2000/svg" xmlns:xlink="http://www.w3.org/1999/xlink" width="45" height="46" viewBox="0 0 45 46"><defs><circle id="a" cx="8.471" cy="9.365" r="1.171"/></defs><g fill="none" fill-rule="evenodd"><circle cx="22.5" cy="23" r="22.5" fill="#FBE1C9"/><ellipse cx="24" cy="34" fill="#F0C8A2" rx="9" ry="2.25"/><path fill="#FFCE98" d="M22.13 14.997l10.301 8.967a1 1 0 0 1 .098 1.41l-6.686 7.693a1 1 0 0 1-1.422.089l-10.249-9.18a1 1 0 0 1-.332-.74l-.038-6.385a1 1 0 0 1 .838-.992l6.67-1.094a1 1 0 0 1 .82.232z"/><path d="M22.13 14.997l10.301 8.967a1 1 0 0 1 .098 1.41l-6.686 7.693a1 1 0 0 1-1.422.089l-10.249-9.18a1 1 0 0 1-.332-.74l-.038-6.385a1 1 0 0 1 .838-.992l6.67-1.094a1 1 0 0 1 .82.232z" opacity=".599" style="mix-blend-mode:overlay"/><path fill="#FFAD6D" d="M13.246 23.624l11.294 9.828a1 1 0 0 0 1.353-.037l3.84-3.729-16.302-14.145-.185 8.083z"/><path stroke="#000" stroke-width="1.5" d="M31.373 24.037l-9.736-8.474a.25.25 0 0 0-.205-.058l-6.67 1.094a.25.25 0 0 0-.21.248l.038 6.385c0 .07.03.138.083.185l10.249 9.18.002.003a.25.25 0 0 0 .353-.025l6.686-7.692a.25.25 0 0 0-.025-.353l-.565-.492z" style="mix-blend-mode:soft-light"/><path stroke="#31323D" stroke-linecap="round" stroke-linejoin="round" d="M33.08 23.98a1.5 1.5 0 0 1-.174 1.723l-6.685 7.692a1.5 1.5 0 0 1-2.117.148l-.016-.015-10.25-9.18a1.5 1.5 0 0 1-.498-1.108l-.038-6.386a1.5 1.5 0 0 1 1.257-1.489l6.67-1.094a1.5 1.5 0 0 1 1.228.35l10.68 9.294-.057.065z"/><g stroke-linecap="round" stroke-linejoin="round" transform="rotate(11 -41.695 66.74)"><use fill="#CAB49F" xlink:href="#a"/><circle cx="8.471" cy="9.365" r="1.671" stroke="#31323D"/></g></g></svg>