<?xml version="1.0" encoding="utf-8"?>
<!-- Generator: Adobe Illustrator 16.0.0, SVG Export Plug-In . SVG Version: 6.00 Build 0)  -->
<!DOCTYPE svg PUBLIC "-//W3C//DTD SVG 1.1//EN" "http://www.w3.org/Graphics/SVG/1.1/DTD/svg11.dtd">
<svg version="1.1" xmlns="http://www.w3.org/2000/svg" xmlns:xlink="http://www.w3.org/1999/xlink" x="0px" y="0px" width="200px"
	 height="252px" viewBox="0 0 200 252" enable-background="new 0 0 200 252" xml:space="preserve">
<g id="图层_2">
	<rect x="-21" y="-17" fill="#E3F1F5" width="242" height="286"/>
</g>
<g id="图层_3">
	<ellipse opacity="0.1" cx="100" cy="217" rx="54.5" ry="8"/>
</g>
<g id="图层_7">
	<g>
		<path fill="#AA7E52" d="M173.964,122.705c-3.627,1.661-1.412,6.477-2.491,13.463c-0.404,2.622-1.273,5.55-3.092,8.733
			c-6.74,11.799-18.097,14.759-18.097,14.759l7.611,7.866c2.706-0.848,11.309-4.418,18.688-16.07
			c2.464-3.889,3.927-8.185,4.585-12.258c-0.005-0.002-0.009-0.005-0.014-0.007C182.893,129.12,179.098,120.357,173.964,122.705"/>
		<path fill="none" stroke="#000000" stroke-width="0.5151" stroke-miterlimit="10" d="M173.964,122.705
			c-3.627,1.661-1.412,6.477-2.491,13.463c-0.404,2.622-1.273,5.55-3.092,8.733c-6.74,11.799-18.097,14.759-18.097,14.759
			l7.611,7.866c2.706-0.848,11.309-4.418,18.688-16.07c2.464-3.889,3.927-8.185,4.585-12.258c-0.005-0.002-0.009-0.005-0.014-0.007
			C182.893,129.12,179.098,120.357,173.964,122.705z"/>
		<path fill="#AA7E52" d="M131.416,71.83c2.018-0.411,18.971-54.595-15.849-21.162c-1.361,1.576-2.178,3.083-2.582,4.521
			c-0.789-0.36-1.592-0.7-2.412-1.017c0.556-1.166,1.322-2.364,2.39-3.601c39.515-37.942,23.386,18.284,19.515,24.751
			c-0.45-1.197-0.971-2.367-1.559-3.504C131.135,71.841,131.312,71.851,131.416,71.83"/>
		<path fill="#F9F5ED" d="M131.416,71.83c-0.104,0.021-0.28,0.011-0.497-0.012c-1.116-2.159-2.47-4.201-4.037-6.098
			c4.898-9.616,9.209-28.661-9.855-8.418c-1.293-0.773-2.645-1.477-4.042-2.114c0.404-1.438,1.221-2.944,2.582-4.521
			C150.386,17.235,133.434,71.419,131.416,71.83"/>
		<g opacity="0.3">
			<g>
				<defs>
					<rect id="SVGID_1_" x="117.027" y="48.343" width="14.038" height="17.377"/>
				</defs>
				<clipPath id="SVGID_2_">
					<use xlink:href="#SVGID_1_"  overflow="visible"/>
				</clipPath>
				<path clip-path="url(#SVGID_2_)" d="M126.882,65.72c-2.709-3.28-6.043-6.134-9.855-8.417
					C136.091,37.059,131.78,56.104,126.882,65.72"/>
			</g>
		</g>
		<path fill="#AA7E52" d="M68.724,71.83c-2.019-0.411-18.97-54.595,15.85-21.162c1.359,1.576,2.178,3.083,2.581,4.521
			c0.79-0.36,1.593-0.7,2.412-1.017c-0.555-1.166-1.322-2.364-2.389-3.601C47.662,12.629,63.791,68.855,67.662,75.322
			c0.451-1.197,0.972-2.367,1.56-3.504C69.006,71.841,68.828,71.851,68.724,71.83"/>
		<path fill="#F9F5ED" d="M68.724,71.83c0.104,0.021,0.282,0.011,0.498-0.012c1.117-2.159,2.47-4.201,4.037-6.098
			c-4.898-9.616-9.209-28.661,9.854-8.418c1.294-0.773,2.645-1.477,4.042-2.114c-0.402-1.438-1.221-2.944-2.581-4.521
			C49.754,17.235,66.705,71.419,68.724,71.83"/>
		<g opacity="0.3">
			<g>
				<defs>
					<rect id="SVGID_3_" x="69.075" y="48.343" width="14.038" height="17.377"/>
				</defs>
				<clipPath id="SVGID_4_">
					<use xlink:href="#SVGID_3_"  overflow="visible"/>
				</clipPath>
				<path clip-path="url(#SVGID_4_)" d="M73.259,65.72c2.709-3.28,6.042-6.134,9.854-8.417C64.05,37.059,68.359,56.104,73.259,65.72
					"/>
			</g>
		</g>
		<g opacity="0.1">
			<g>
				<defs>
					<rect id="SVGID_5_" x="59.611" y="50.393" width="81.775" height="174.294"/>
				</defs>
				<clipPath id="SVGID_6_">
					<use xlink:href="#SVGID_5_"  overflow="visible"/>
				</clipPath>
				<path clip-path="url(#SVGID_6_)" fill="#A5A5A5" d="M140.829,74.684c0.014,0.186,0.043,0.376,0.085,0.566
					c0.172-0.025,0.334-0.059,0.473-0.108C141.387,75.142,141.171,74.976,140.829,74.684"/>
				<path clip-path="url(#SVGID_6_)" fill="#A5A5A5" d="M65.32,74.684c0.985-0.842,3.022-2.753,4.011-4.872
					c1.293-2.771,6.574-18.439,33.744-19.374c-0.839-0.028-1.696-0.044-2.576-0.044c-29.417,0-34.986,16.563-36.319,19.418
					c-1.332,2.854-4.569,5.33-4.569,5.33c1.618,0.571,5.711-0.477,5.711-0.477C65.322,74.673,65.32,74.678,65.32,74.684"/>
				<path clip-path="url(#SVGID_6_)" fill="#F9F5ED" d="M80.087,178.326c-2.902-15.819-9.281-32.126-10.071-45.962
					c0,0-0.875,0.652-2.494,1.889c0,0,1.522-5.33,1.618-8.376c0,0-0.667,1.428-3.141,2.762c0,0,1.523-7.235,1.332-12.09
					c-0.19-4.854-0.992-18.894,1.619-29.51c0.788-3.201-2.476-5.615-2.476-5.615s3.808-3.902,3.999-6.759
					c0,0-3.414,0.871-5.238,0.585c-0.599,2.775-3.912,6.174-3.912,6.174s3.264,2.414,2.475,5.615
					c-2.61,10.616-1.808,24.656-1.618,29.51c0.19,4.854-1.333,12.09-1.333,12.09c2.476-1.334,3.142-2.762,3.142-2.762
					c-0.095,3.046-1.619,8.376-1.619,8.376c1.619-1.236,2.494-1.889,2.494-1.889c0.791,13.836,7.169,30.143,10.071,45.962
					c3.607,19.661,4.855,45.978,10.271,46.347c1.41,0.096,2.471-0.313,3.303-1.292C84.594,217.826,83.243,195.531,80.087,178.326"/>
			</g>
		</g>
		<g opacity="0.07">
			<g>
				<defs>
					<rect id="SVGID_7_" x="155.981" y="122.328" width="25.086" height="45.198"/>
				</defs>
				<clipPath id="SVGID_8_">
					<use xlink:href="#SVGID_7_"  overflow="visible"/>
				</clipPath>
				<path clip-path="url(#SVGID_8_)" d="M175.047,122.328c2.747,2.425,4.229,8.809,3.019,15.831
					c0.004,0.002,0.009,0.005,0.014,0.009c-0.659,4.073-2.121,8.371-4.584,12.258c-6.522,10.295-13.995,14.28-17.515,15.652
					l1.401,1.448c2.706-0.848,11.308-4.418,18.688-16.07c2.464-3.889,3.927-8.185,4.584-12.258
					c-0.004-0.002-0.009-0.005-0.014-0.007C182.191,130.199,179.331,122.257,175.047,122.328"/>
			</g>
		</g>
		<path fill="#BC926F" d="M157.084,156.5c-7.211,3.092-13.164,3.542-13.164,3.542l0.812,8.675c0.582-0.331,7.201,1.176,13.897-1.399
			C159.125,163.343,158.564,159.715,157.084,156.5"/>
		<path fill="#F9F5ED" d="M136.052,207.758c0,0,8.89-9.05,14.778-20.775c9.617-19.154,13.879-43.771-21.988-35.268h-28.418H72.005
			c-35.867-8.503-31.604,16.113-21.988,35.268c5.887,11.726,14.777,20.775,14.777,20.775c-4.498-1.715-13.604-0.553-14.939,4.611
			c-1.238,4.78,7.524,4.516,7.524,4.516h43.045h43.043c0,0,8.763,0.265,7.526-4.516C149.657,207.205,140.55,206.043,136.052,207.758
			"/>
		<path fill="none" stroke="#000000" stroke-width="0.5151" stroke-miterlimit="10" d="M136.052,207.758
			c0,0,8.89-9.05,14.778-20.775c9.617-19.154,13.879-43.771-21.988-35.268h-28.418H72.005
			c-35.867-8.503-31.604,16.113-21.988,35.268c5.887,11.726,14.777,20.775,14.777,20.775c-4.498-1.715-13.604-0.553-14.939,4.611
			c-1.238,4.78,7.524,4.516,7.524,4.516h43.045h43.043c0,0,8.763,0.265,7.526-4.516C149.657,207.205,140.55,206.043,136.052,207.758
			z"/>
		<path fill="#C6C1BA" d="M92.477,162.663v-10.948H72.004c-1.848-0.438-3.585-0.783-5.225-1.051c0.731,2.926,1.532,5.908,2.35,8.947
			c1.692,6.291,3.443,12.799,4.609,19.152c1.07,5.838,1.931,12.253,2.762,18.455c1.105,8.239,2.039,14.855,3.147,19.666h12.244
			c0.57-3.493,0.995-8.134,1.528-13.985c0.091-0.997,0.185-2.032,0.285-3.104c1.403-15.211,1.66-31.743,1.708-37.132H92.477z"/>
		<path fill="#C6C1BA" d="M128.842,151.715H108.37v10.948h-2.934c0.047,5.389,0.304,21.921,1.708,37.132
			c0.099,1.07,0.193,2.102,0.284,3.098c0.533,5.855,0.956,10.498,1.527,13.992h12.244c1.109-4.811,2.043-11.428,3.148-19.666
			c0.833-6.202,1.691-12.617,2.763-18.455c1.166-6.354,2.916-12.861,4.61-19.152c0.816-3.04,1.618-6.021,2.347-8.947
			C132.427,150.932,130.69,151.277,128.842,151.715"/>
		<path fill="#F9F5ED" d="M94.28,160.853c0,0,0,20.277-1.714,38.839c-1.713,18.56-2.02,25.583-7.434,25.213
			c-5.415-0.37-6.664-26.686-10.271-46.347c-2.903-15.818-9.28-32.126-10.072-45.962c0,0-0.875,0.652-2.493,1.891
			c0,0,1.522-5.33,1.618-8.377c0,0-0.666,1.43-3.142,2.76c0,0,1.523-7.235,1.333-12.09c-0.191-4.854-0.993-18.892,1.617-29.507
			c0.788-3.203-2.474-5.617-2.474-5.617s3.807-3.901,3.997-6.756c0,0-4.092,1.047-5.711,0.474c0,0,3.237-2.474,4.569-5.329
			c1.333-2.857,6.901-19.419,36.32-19.419c29.417,0,34.986,16.562,36.318,19.419c1.333,2.855,4.57,5.329,4.57,5.329
			c-1.619,0.573-5.712-0.474-5.712-0.474c0.19,2.854,3.998,6.756,3.998,6.756s-3.263,2.414-2.475,5.617
			c2.611,10.615,1.808,24.653,1.618,29.507c-0.19,4.854,1.333,12.09,1.333,12.09c-2.474-1.33-3.141-2.76-3.141-2.76
			c0.096,3.047,1.618,8.377,1.618,8.377c-1.618-1.238-2.493-1.891-2.493-1.891c-0.791,13.836-7.169,30.144-10.071,45.962
			c-3.607,19.661-4.854,45.977-10.27,46.347c-5.415,0.37-5.722-6.653-7.435-25.213c-1.714-18.562-1.714-38.839-1.714-38.839"/>
		<g>
			<defs>
				<path id="SVGID_9_" d="M64.104,70.045c-1.332,2.854-4.569,5.328-4.569,5.328c1.619,0.573,5.711-0.474,5.711-0.474
					c-0.189,2.854-3.997,6.756-3.997,6.756s3.262,2.414,2.474,5.617c-2.609,10.615-1.808,24.653-1.618,29.509
					c0.19,4.853-1.333,12.088-1.333,12.088c2.476-1.33,3.142-2.76,3.142-2.76c-0.096,3.048-1.618,8.377-1.618,8.377
					c1.618-1.238,2.493-1.891,2.493-1.891c0.792,13.836,7.169,30.144,10.073,45.962c3.606,19.661,4.855,45.977,10.271,46.347
					c5.414,0.37,5.72-6.653,7.434-25.215s1.714-38.837,1.714-38.837h12.288c0,0,0,20.275,1.714,38.837
					c1.712,18.562,2.019,25.585,7.435,25.215c5.415-0.37,6.663-26.686,10.27-46.347c2.902-15.818,9.281-32.126,10.071-45.962
					c0,0,0.875,0.652,2.494,1.891c0,0-1.522-5.329-1.619-8.377c0,0,0.667,1.43,3.142,2.76c0,0-1.522-7.235-1.333-12.088
					c0.191-4.855,0.994-18.894-1.617-29.509c-0.788-3.203,2.475-5.617,2.475-5.617s-3.807-3.901-3.998-6.756
					c0,0,4.093,1.047,5.712,0.474c0,0-3.237-2.474-4.57-5.328c-1.332-2.858-6.9-19.42-36.318-19.42S65.437,67.187,64.104,70.045"/>
			</defs>
			<clipPath id="SVGID_10_">
				<use xlink:href="#SVGID_9_"  overflow="visible"/>
			</clipPath>
			<path clip-path="url(#SVGID_10_)" fill="#AA7E52" d="M91.151,43.181c-1.03,1.03-5.151,11.332,1.545,13.392
				c6.697,2.06,7.211-2.06,10.818-0.515c3.604,1.546,5.151,1.546,7.21-2.061c2.061-3.604,2.061-12.877-1.03-14.422
				C106.604,38.029,91.151,43.181,91.151,43.181"/>
			<g opacity="0.07" clip-path="url(#SVGID_10_)">
				<g>
					<defs>
						<rect id="SVGID_11_" x="97.151" y="50.625" width="43.721" height="174.293"/>
					</defs>
					<clipPath id="SVGID_12_">
						<use xlink:href="#SVGID_11_"  overflow="visible"/>
					</clipPath>
					<path clip-path="url(#SVGID_12_)" d="M140.872,75.373c0,0-3.237-2.474-4.569-5.329c-1.333-2.857-6.901-19.42-36.318-19.42
						c-0.972,0-1.915,0.02-2.834,0.056c26.946,1.024,32.198,16.603,33.486,19.364c1.333,2.855,4.569,5.329,4.569,5.329
						c-1.617,0.57-5.711-0.474-5.711-0.474c0.191,2.854,3.999,6.755,3.999,6.755s-3.263,2.415-2.475,5.618
						c2.61,10.615,1.808,24.653,1.618,29.509c-0.191,4.853,1.333,12.088,1.333,12.088c-2.476-1.332-3.141-2.76-3.141-2.76
						c0.095,3.047,1.617,8.377,1.617,8.377c-1.617-1.239-2.494-1.891-2.494-1.891c-0.79,13.836-7.168,30.144-10.07,45.962
						c-3.092,16.854-4.451,38.595-8.188,44.694c0.872,1.24,2.011,1.76,3.583,1.652c5.416-0.37,6.664-26.686,10.271-46.347
						c2.902-15.818,9.281-32.126,10.071-45.962c0,0,0.876,0.651,2.494,1.891c0,0-1.523-5.33-1.618-8.377c0,0,0.665,1.428,3.141,2.76
						c0,0-1.523-7.235-1.333-12.088c0.19-4.855,0.992-18.894-1.619-29.509c-0.787-3.203,2.476-5.618,2.476-5.618
						s-3.808-3.901-3.999-6.755C135.161,74.899,139.254,75.943,140.872,75.373"/>
				</g>
			</g>
		</g>
		<path fill="none" stroke="#000000" stroke-width="0.5151" stroke-miterlimit="10" d="M94.28,160.853c0,0,0,20.277-1.714,38.839
			c-1.713,18.56-2.02,25.583-7.434,25.213c-5.415-0.37-6.664-26.686-10.271-46.347c-2.903-15.818-9.28-32.126-10.072-45.962
			c0,0-0.875,0.652-2.493,1.891c0,0,1.522-5.33,1.618-8.377c0,0-0.666,1.43-3.142,2.76c0,0,1.523-7.235,1.333-12.09
			c-0.191-4.854-0.993-18.892,1.617-29.507c0.788-3.203-2.474-5.617-2.474-5.617s3.807-3.901,3.997-6.756
			c0,0-4.092,1.047-5.711,0.474c0,0,3.237-2.474,4.569-5.329c1.333-2.857,6.901-19.419,36.32-19.419
			c29.417,0,34.986,16.562,36.318,19.419c1.333,2.855,4.57,5.329,4.57,5.329c-1.619,0.573-5.712-0.474-5.712-0.474
			c0.19,2.854,3.998,6.756,3.998,6.756s-3.263,2.414-2.475,5.617c2.611,10.615,1.808,24.653,1.618,29.507
			c-0.19,4.854,1.333,12.09,1.333,12.09c-2.474-1.33-3.141-2.76-3.141-2.76c0.096,3.047,1.618,8.377,1.618,8.377
			c-1.618-1.238-2.493-1.891-2.493-1.891c-0.791,13.836-7.169,30.144-10.071,45.962c-3.607,19.661-4.854,45.977-10.27,46.347
			c-5.415,0.37-5.722-6.653-7.435-25.213c-1.714-18.562-1.714-38.839-1.714-38.839"/>
		<g opacity="0.05">
			<g>
				<defs>
					<rect id="SVGID_13_" x="60.126" y="50.393" width="81.776" height="174.294"/>
				</defs>
				<clipPath id="SVGID_14_">
					<use xlink:href="#SVGID_13_"  overflow="visible"/>
				</clipPath>
				<path clip-path="url(#SVGID_14_)" d="M141.345,74.684c0.013,0.186,0.042,0.376,0.084,0.566c0.171-0.025,0.334-0.059,0.473-0.108
					C141.902,75.142,141.687,74.976,141.345,74.684"/>
				<path clip-path="url(#SVGID_14_)" d="M65.835,74.684c0.984-0.842,3.022-2.753,4.011-4.872
					c1.293-2.771,6.573-18.439,33.744-19.374c-0.838-0.028-1.695-0.044-2.575-0.044c-29.418,0-34.987,16.563-36.32,19.418
					c-1.332,2.854-4.568,5.33-4.568,5.33c1.618,0.571,5.711-0.477,5.711-0.477C65.838,74.673,65.835,74.678,65.835,74.684"/>
				<path clip-path="url(#SVGID_14_)" d="M80.603,178.326c-2.902-15.819-9.281-32.126-10.071-45.962c0,0-0.875,0.652-2.493,1.889
					c0,0,1.522-5.33,1.618-8.376c0,0-0.666,1.428-3.141,2.762c0,0,1.523-7.235,1.333-12.09c-0.19-4.854-0.993-18.894,1.617-29.51
					c0.79-3.201-2.475-5.615-2.475-5.615s3.807-3.902,3.999-6.759c0,0-3.414,0.871-5.238,0.585
					c-0.598,2.775-3.912,6.174-3.912,6.174s3.264,2.414,2.475,5.615c-2.61,10.616-1.808,24.656-1.617,29.51
					c0.19,4.854-1.333,12.09-1.333,12.09c2.475-1.334,3.142-2.762,3.142-2.762c-0.096,3.046-1.618,8.376-1.618,8.376
					c1.618-1.236,2.493-1.889,2.493-1.889c0.79,13.836,7.169,30.143,10.071,45.962c3.606,19.661,4.855,45.978,10.27,46.347
					c1.41,0.096,2.471-0.313,3.303-1.292C85.109,217.826,83.758,195.531,80.603,178.326"/>
			</g>
		</g>
		<path fill="#AA7E52" d="M77.878,154.341c-0.324-2.657,8.957-3.36,8.618-7.293c-0.318-3.691-1.915-8.598-20.403-4.138
			c1.891,9.771,5.313,20.326,7.668,30.815c0.122-1.179,0.407-2.083,0.918-2.539c2.943-2.628,13.906-5.807,13.381-11.277
			C87.537,154.441,78.201,156.995,77.878,154.341"/>
		<path fill="#AA7E52" d="M123.168,154.341c0.324-2.657-8.958-3.36-8.619-7.293c0.318-3.691,1.917-8.599,20.404-4.138
			c-1.892,9.771-5.313,20.327-7.669,30.815c-0.123-1.179-0.408-2.083-0.918-2.539c-2.942-2.628-13.904-5.807-13.38-11.277
			C113.508,154.441,122.845,156.995,123.168,154.341"/>
		<path fill="#263135" d="M75.884,118.212c0,0,0.102,0.122,0.268,0.337c0.081,0.107,0.184,0.237,0.291,0.39
			c0.109,0.151,0.238,0.319,0.366,0.506c0.266,0.371,0.56,0.809,0.872,1.272c0.308,0.465,0.637,0.957,0.965,1.451
			c0.156,0.252,0.334,0.482,0.489,0.729c0.164,0.24,0.331,0.469,0.483,0.699c0.163,0.221,0.32,0.436,0.464,0.646
			c0.156,0.196,0.301,0.387,0.434,0.566c0.141,0.174,0.27,0.333,0.384,0.475c0.114,0.147,0.225,0.259,0.315,0.359
			c0.18,0.197,0.282,0.326,0.282,0.326s-0.15-0.042-0.411-0.141c-0.126-0.051-0.295-0.102-0.456-0.202
			c-0.167-0.094-0.364-0.197-0.563-0.33c-0.191-0.14-0.396-0.295-0.611-0.466c-0.199-0.184-0.411-0.376-0.618-0.587
			c-0.196-0.221-0.405-0.444-0.593-0.688c-0.186-0.244-0.38-0.491-0.548-0.753c-0.168-0.263-0.34-0.522-0.483-0.793
			c-0.154-0.265-0.289-0.532-0.411-0.796c-0.251-0.524-0.441-1.034-0.583-1.477c-0.135-0.446-0.227-0.824-0.274-1.097
			C75.894,118.37,75.884,118.212,75.884,118.212"/>
		<path fill="#263135" d="M82.753,121.758c0,0,0.068,0.122,0.173,0.331c0.05,0.106,0.12,0.232,0.186,0.379
			c0.067,0.145,0.153,0.308,0.231,0.486c0.161,0.351,0.348,0.757,0.55,1.193c0.049,0.109,0.099,0.22,0.149,0.331
			c0.054,0.108,0.107,0.219,0.157,0.332c0.1,0.229,0.217,0.447,0.323,0.674c0.106,0.224,0.23,0.436,0.333,0.658
			c0.126,0.203,0.231,0.422,0.349,0.619c0.126,0.189,0.229,0.395,0.35,0.568c0.123,0.171,0.228,0.349,0.338,0.501
			c0.117,0.144,0.221,0.286,0.314,0.413c0.094,0.129,0.193,0.222,0.267,0.313c0.154,0.176,0.24,0.29,0.24,0.29
			s-0.133-0.026-0.364-0.101c-0.112-0.04-0.266-0.073-0.41-0.155c-0.15-0.079-0.319-0.171-0.501-0.28
			c-0.175-0.116-0.345-0.264-0.534-0.418c-0.184-0.159-0.346-0.348-0.524-0.544c-0.169-0.2-0.322-0.42-0.478-0.646
			c-0.141-0.23-0.281-0.471-0.404-0.715c-0.111-0.251-0.236-0.497-0.32-0.751c-0.094-0.253-0.175-0.505-0.236-0.751
			c-0.134-0.493-0.202-0.964-0.237-1.367c-0.026-0.407-0.023-0.748-0.001-0.986C82.723,121.894,82.753,121.758,82.753,121.758"/>
		<path fill="#263135" d="M88.366,123.234c0,0,0.069,0.101,0.175,0.276c0.105,0.175,0.246,0.425,0.401,0.728
			c0.154,0.302,0.322,0.651,0.487,1.026c0.088,0.187,0.167,0.383,0.253,0.576c0.087,0.193,0.163,0.396,0.252,0.591
			c0.079,0.2,0.165,0.395,0.248,0.586c0.08,0.195,0.163,0.382,0.242,0.563c0.074,0.188,0.163,0.35,0.236,0.519
			c0.068,0.175,0.16,0.313,0.228,0.462c0.065,0.152,0.148,0.265,0.212,0.387c0.034,0.06,0.065,0.115,0.094,0.165
			c0.034,0.048,0.066,0.091,0.094,0.13c0.115,0.16,0.182,0.271,0.182,0.271s-0.114-0.021-0.318-0.089
			c-0.051-0.018-0.109-0.037-0.17-0.059c-0.059-0.025-0.115-0.063-0.18-0.1c-0.125-0.076-0.287-0.155-0.418-0.276
			c-0.133-0.12-0.3-0.245-0.43-0.4c-0.134-0.156-0.286-0.318-0.406-0.506c-0.127-0.183-0.257-0.374-0.359-0.58
			c-0.117-0.203-0.213-0.416-0.305-0.63c-0.092-0.214-0.168-0.432-0.238-0.651c-0.074-0.215-0.124-0.434-0.175-0.644
			c-0.093-0.424-0.146-0.824-0.164-1.172c-0.017-0.348-0.007-0.643,0.014-0.847C88.339,123.354,88.366,123.234,88.366,123.234"/>
		<path fill="#263135" d="M109.198,125.303c0,0,0.019,0.083,0.027,0.224c0.01,0.138,0.01,0.335-0.019,0.558
			c-0.026,0.225-0.085,0.479-0.175,0.738c-0.091,0.26-0.219,0.525-0.372,0.779c-0.085,0.122-0.163,0.249-0.261,0.36
			c-0.094,0.117-0.187,0.228-0.298,0.326c-0.107,0.099-0.21,0.191-0.329,0.268c-0.113,0.078-0.224,0.146-0.343,0.192
			c-0.112,0.052-0.217,0.091-0.325,0.11c-0.103,0.019-0.185,0.035-0.265,0.025c-0.153-0.012-0.226-0.037-0.226-0.037
			s0.058-0.073,0.134-0.171c0.041-0.039,0.076-0.121,0.12-0.188c0.044-0.063,0.086-0.148,0.131-0.238
			c0.048-0.082,0.094-0.18,0.146-0.278c0.052-0.1,0.107-0.202,0.163-0.309c0.061-0.102,0.115-0.223,0.184-0.329
			c0.063-0.11,0.131-0.226,0.201-0.336c0.28-0.448,0.612-0.887,0.921-1.196c0.153-0.155,0.296-0.28,0.405-0.365
			C109.124,125.35,109.198,125.303,109.198,125.303"/>
		<path fill="#263135" d="M114.071,122.643c0,0,0.014,0.116,0.007,0.313c-0.003,0.198-0.03,0.476-0.091,0.8
			c-0.064,0.322-0.162,0.693-0.311,1.075c-0.071,0.192-0.155,0.388-0.25,0.581c-0.089,0.195-0.205,0.383-0.314,0.573
			c-0.114,0.188-0.241,0.37-0.37,0.545c-0.132,0.173-0.274,0.337-0.414,0.491c-0.149,0.148-0.295,0.29-0.442,0.415
			c-0.155,0.12-0.304,0.228-0.441,0.321c-0.149,0.087-0.287,0.159-0.412,0.221c-0.118,0.066-0.245,0.094-0.337,0.126
			c-0.19,0.061-0.302,0.081-0.302,0.081s0.06-0.106,0.168-0.263c0.052-0.082,0.122-0.167,0.188-0.28
			c0.068-0.111,0.146-0.231,0.231-0.357c0.079-0.136,0.167-0.277,0.261-0.421c0.091-0.147,0.181-0.308,0.285-0.462
			c0.095-0.164,0.194-0.332,0.301-0.496c0.097-0.175,0.211-0.338,0.311-0.516c0.107-0.171,0.214-0.343,0.319-0.515
			c0.106-0.17,0.214-0.334,0.318-0.5c0.212-0.322,0.416-0.626,0.607-0.881C113.757,122.979,114.071,122.643,114.071,122.643"/>
		<path fill="#263135" d="M116.806,122.643c0,0,0.036,0.094,0.07,0.254c0.037,0.164,0.073,0.394,0.084,0.666
			c0.03,0.546-0.056,1.263-0.297,1.948c-0.12,0.34-0.274,0.673-0.464,0.967c-0.087,0.15-0.196,0.284-0.298,0.409
			c-0.098,0.127-0.22,0.233-0.323,0.33c-0.102,0.099-0.222,0.174-0.32,0.237c-0.051,0.03-0.096,0.059-0.142,0.083
			c-0.049,0.02-0.094,0.037-0.134,0.053c-0.162,0.061-0.255,0.077-0.255,0.077s0.036-0.101,0.1-0.242
			c0.035-0.068,0.064-0.158,0.097-0.26c0.034-0.101,0.079-0.2,0.112-0.324c0.034-0.121,0.083-0.238,0.119-0.379
			c0.042-0.134,0.086-0.274,0.132-0.419c0.047-0.146,0.095-0.296,0.146-0.448c0.051-0.152,0.103-0.307,0.156-0.462
			c0.061-0.153,0.11-0.313,0.173-0.466c0.059-0.152,0.116-0.304,0.181-0.448c0.121-0.295,0.252-0.565,0.376-0.798
			c0.124-0.233,0.244-0.427,0.335-0.563C116.744,122.721,116.806,122.643,116.806,122.643"/>
		<path fill="#263135" d="M125.227,115.035c0,0,0.015,0.154,0.008,0.419c-0.003,0.269-0.032,0.644-0.095,1.092
			c-0.035,0.223-0.077,0.464-0.133,0.715c-0.06,0.25-0.119,0.517-0.204,0.786c-0.08,0.271-0.168,0.547-0.277,0.821
			c-0.1,0.279-0.225,0.555-0.349,0.831c-0.125,0.274-0.276,0.54-0.419,0.801c-0.146,0.261-0.319,0.503-0.476,0.741
			c-0.17,0.231-0.348,0.445-0.515,0.648c-0.183,0.192-0.363,0.367-0.529,0.526c-0.174,0.152-0.351,0.274-0.5,0.386
			c-0.144,0.119-0.3,0.188-0.418,0.25c-0.239,0.127-0.379,0.183-0.379,0.183s0.082-0.138,0.229-0.351
			c0.073-0.108,0.166-0.229,0.255-0.386c0.09-0.15,0.193-0.32,0.305-0.504c0.101-0.19,0.216-0.393,0.335-0.601
			c0.109-0.222,0.23-0.445,0.353-0.681c0.113-0.241,0.242-0.483,0.362-0.734c0.113-0.257,0.253-0.503,0.365-0.767
			c0.243-0.519,0.486-1.035,0.715-1.523c0.232-0.488,0.451-0.947,0.651-1.339c0.096-0.199,0.197-0.378,0.279-0.537
			c0.081-0.162,0.163-0.301,0.225-0.417C125.145,115.167,125.227,115.035,125.227,115.035"/>
		<path fill="#263135" d="M135.343,111.341c-0.134,0.573-0.291,1.143-0.478,1.703c-0.185,0.561-0.386,1.117-0.613,1.662
			c-0.227,0.549-0.463,1.093-0.73,1.625c-0.268,0.528-0.553,1.052-0.857,1.564c-0.157,0.254-0.31,0.512-0.479,0.757
			c-0.163,0.253-0.341,0.492-0.517,0.736c-0.181,0.241-0.36,0.481-0.554,0.712c-0.187,0.237-0.392,0.459-0.592,0.686
			c-0.208,0.22-0.412,0.445-0.637,0.649c-0.216,0.212-0.453,0.406-0.682,0.606c-0.242,0.189-0.478,0.383-0.732,0.555
			c-0.246,0.186-0.512,0.341-0.771,0.507l-0.434-0.961c0.235-0.083,0.452-0.148,0.68-0.213c0.226-0.064,0.454-0.122,0.688-0.169
			c0.47-0.092,0.944-0.172,1.487-0.143c0.271,0.023,0.573,0.056,0.914,0.271c0.168,0.104,0.334,0.286,0.422,0.496
			c0.021,0.052,0.041,0.105,0.053,0.155l0.011,0.038l0.011,0.055l0.007,0.042c0.006,0.035,0.013,0.114,0.014,0.17
			c0,0.046-0.001,0.094-0.005,0.138c-0.034,0.356-0.15,0.609-0.264,0.845c-0.117,0.234-0.248,0.444-0.381,0.646
			c-0.273,0.396-0.565,0.757-0.864,1.11c-0.297,0.353-0.604,0.69-0.913,1.025c-0.622,0.666-1.25,1.319-1.901,1.948l-0.637-0.841
			c0.278-0.146,0.549-0.281,0.827-0.418c0.277-0.134,0.556-0.263,0.839-0.387c0.57-0.243,1.14-0.484,1.776-0.643
			c0.161-0.037,0.325-0.072,0.504-0.093c0.18-0.017,0.37-0.034,0.62,0.026c0.123,0.033,0.281,0.1,0.409,0.243
			c0.132,0.143,0.184,0.33,0.191,0.469c0.009,0.284-0.07,0.458-0.137,0.63c-0.153,0.338-0.312,0.567-0.467,0.835
			c-0.161,0.266-0.328,0.521-0.494,0.774c-0.166,0.253-0.33,0.504-0.485,0.754c-0.153,0.252-0.295,0.491-0.387,0.743
			c-0.042,0.12-0.072,0.243-0.069,0.33c0.004,0.092,0.018,0.133,0.079,0.184c0.066,0.052,0.182,0.089,0.313,0.11
			c0.156,0.025,0.283,0.041,0.426,0.048c0.569,0.033,1.15-0.072,1.685-0.314c0.532-0.242,1.028-0.597,1.426-1.053
			c-0.158,0.258-0.36,0.491-0.581,0.704c-0.22,0.212-0.465,0.404-0.734,0.563c-0.532,0.322-1.158,0.517-1.798,0.536
			c-0.158,0.008-0.332,0.003-0.476-0.007c-0.166-0.013-0.354-0.038-0.545-0.149c-0.095-0.058-0.185-0.143-0.25-0.246
			c-0.06-0.105-0.095-0.22-0.105-0.326c-0.025-0.212,0.016-0.39,0.059-0.558c0.091-0.323,0.24-0.619,0.379-0.893
			c0.145-0.275,0.293-0.54,0.438-0.804l0.429-0.785c0.135-0.26,0.299-0.543,0.38-0.764c0.042-0.107,0.064-0.229,0.053-0.248
			c-0.003-0.011-0.001,0.027,0.027,0.059c0.027,0.031,0.042,0.03,0.019,0.028c-0.044-0.01-0.162-0.008-0.281,0.016
			c-0.119,0.021-0.25,0.054-0.382,0.094c-0.526,0.165-1.071,0.398-1.601,0.651c-0.53,0.254-1.062,0.534-1.566,0.821l-3.119,1.777
			l2.481-2.619c0.616-0.648,1.241-1.287,1.837-1.948c0.594-0.656,1.179-1.332,1.655-2.026c0.119-0.173,0.228-0.346,0.313-0.513
			c0.086-0.165,0.148-0.337,0.156-0.43l0.001-0.031c-0.003,0,0.004,0.022,0.002,0.001l-0.007-0.041l-0.001-0.011l-0.001-0.005
			c-0.002-0.007,0.011,0.055,0.006,0.028h-0.001l0-0.001c0-0.005-0.001-0.004,0-0.005c-0.001,0.003,0.011,0.008-0.011-0.008
			c-0.04-0.033-0.197-0.081-0.372-0.091c-0.358-0.026-0.782,0.028-1.195,0.107c-0.208,0.043-0.417,0.089-0.626,0.14
			c-0.207,0.052-0.421,0.111-0.614,0.171l-4.27,1.332l3.838-2.294c0.238-0.143,0.486-0.274,0.715-0.434
			c0.237-0.149,0.46-0.321,0.687-0.486c0.219-0.18,0.443-0.351,0.651-0.544c0.213-0.185,0.419-0.381,0.625-0.577
			c0.198-0.203,0.404-0.402,0.593-0.617c0.195-0.21,0.379-0.43,0.564-0.647c0.18-0.226,0.363-0.446,0.532-0.678
			c0.176-0.229,0.345-0.464,0.513-0.696c0.332-0.475,0.647-0.959,0.946-1.457c0.148-0.25,0.298-0.5,0.442-0.753
			c0.144-0.252,0.284-0.509,0.419-0.767c0.271-0.515,0.535-1.038,0.781-1.567C134.888,112.425,135.134,111.892,135.343,111.341"/>
		<path fill="#263135" d="M64.319,111.341c0.134,0.573,0.292,1.143,0.478,1.703c0.186,0.561,0.387,1.117,0.614,1.662
			c0.227,0.549,0.463,1.093,0.73,1.625c0.267,0.528,0.552,1.052,0.856,1.564c0.157,0.254,0.31,0.512,0.478,0.757
			c0.164,0.253,0.341,0.492,0.516,0.736c0.181,0.241,0.362,0.481,0.556,0.712c0.186,0.237,0.39,0.459,0.59,0.686
			c0.208,0.22,0.413,0.445,0.637,0.649c0.216,0.212,0.453,0.406,0.682,0.606c0.241,0.189,0.478,0.383,0.732,0.555
			c0.246,0.186,0.513,0.341,0.771,0.507l0.432-0.961c-0.234-0.083-0.451-0.148-0.68-0.213c-0.225-0.064-0.453-0.122-0.687-0.169
			c-0.469-0.092-0.944-0.172-1.487-0.143c-0.271,0.023-0.573,0.056-0.914,0.271c-0.168,0.104-0.334,0.286-0.422,0.496
			c-0.021,0.052-0.042,0.105-0.054,0.155l-0.011,0.038l-0.011,0.055l-0.007,0.042c-0.005,0.035-0.012,0.114-0.015,0.17
			c0.001,0.046,0.002,0.094,0.005,0.138c0.035,0.356,0.151,0.609,0.264,0.845c0.117,0.234,0.248,0.444,0.381,0.646
			c0.272,0.396,0.565,0.757,0.863,1.11c0.298,0.353,0.605,0.69,0.915,1.025c0.621,0.666,1.25,1.319,1.9,1.948l0.637-0.841
			c-0.278-0.146-0.55-0.281-0.827-0.418c-0.277-0.134-0.556-0.263-0.839-0.387c-0.569-0.243-1.139-0.484-1.777-0.643
			c-0.16-0.037-0.325-0.072-0.503-0.093c-0.179-0.017-0.368-0.034-0.619,0.026c-0.123,0.033-0.281,0.1-0.41,0.243
			c-0.131,0.143-0.184,0.33-0.19,0.469c-0.009,0.284,0.07,0.458,0.137,0.63c0.154,0.338,0.312,0.567,0.468,0.835
			c0.16,0.266,0.328,0.521,0.493,0.774c0.166,0.253,0.33,0.504,0.485,0.754c0.153,0.252,0.294,0.491,0.387,0.743
			c0.043,0.12,0.072,0.243,0.069,0.33c-0.004,0.092-0.018,0.133-0.079,0.184c-0.065,0.052-0.183,0.089-0.313,0.11
			c-0.156,0.025-0.284,0.041-0.427,0.048c-0.568,0.033-1.149-0.072-1.684-0.314c-0.532-0.242-1.028-0.597-1.426-1.053
			c0.158,0.258,0.361,0.491,0.58,0.704c0.221,0.212,0.466,0.404,0.735,0.563c0.533,0.322,1.159,0.517,1.798,0.536
			c0.158,0.008,0.332,0.003,0.476-0.007c0.167-0.013,0.354-0.038,0.545-0.149c0.096-0.058,0.185-0.143,0.25-0.246
			c0.06-0.105,0.096-0.22,0.107-0.326c0.024-0.212-0.017-0.39-0.06-0.558c-0.091-0.323-0.24-0.619-0.379-0.893
			c-0.145-0.275-0.293-0.54-0.439-0.804l-0.428-0.785c-0.135-0.26-0.298-0.543-0.379-0.764c-0.042-0.107-0.064-0.229-0.054-0.248
			c0.004-0.011,0.001,0.027-0.026,0.059c-0.027,0.031-0.041,0.03-0.019,0.028c0.044-0.01,0.163-0.008,0.28,0.016
			c0.12,0.021,0.251,0.054,0.382,0.094c0.527,0.165,1.072,0.398,1.602,0.651c0.529,0.254,1.061,0.534,1.566,0.821l3.119,1.777
			l-2.48-2.619c-0.616-0.648-1.242-1.287-1.837-1.948c-0.593-0.656-1.178-1.332-1.656-2.026c-0.118-0.173-0.227-0.346-0.313-0.513
			c-0.086-0.165-0.147-0.337-0.154-0.43l-0.001-0.031c0.002,0-0.005,0.022-0.003,0.001l0.007-0.041l0.001-0.011l0.001-0.005
			c0.002-0.007-0.011,0.055-0.005,0.028l0-0.001c0-0.005,0.001-0.004,0-0.005c0.001,0.003-0.012,0.008,0.011-0.008
			c0.04-0.033,0.197-0.081,0.371-0.091c0.358-0.026,0.783,0.028,1.195,0.107c0.208,0.043,0.418,0.089,0.626,0.14
			c0.206,0.052,0.421,0.111,0.614,0.171l4.271,1.332l-3.837-2.294c-0.239-0.143-0.486-0.274-0.716-0.434
			c-0.237-0.149-0.46-0.321-0.687-0.486c-0.218-0.18-0.442-0.351-0.651-0.544c-0.213-0.185-0.419-0.381-0.625-0.577
			c-0.198-0.203-0.403-0.402-0.592-0.617c-0.194-0.21-0.379-0.43-0.564-0.647c-0.179-0.226-0.363-0.446-0.532-0.678
			c-0.177-0.229-0.346-0.464-0.514-0.696c-0.332-0.475-0.647-0.959-0.946-1.457c-0.148-0.25-0.298-0.5-0.442-0.753
			c-0.144-0.252-0.285-0.509-0.42-0.767c-0.27-0.515-0.534-1.038-0.78-1.567C64.773,112.425,64.528,111.892,64.319,111.341"/>
		<g>
			<g>
				<defs>
					<rect id="SVGID_15_" x="92.182" y="146.714" width="17.911" height="74.688"/>
				</defs>
				<clipPath id="SVGID_16_">
					<use xlink:href="#SVGID_15_"  overflow="visible"/>
				</clipPath>
				<path clip-path="url(#SVGID_16_)" fill="#E0D5BD" d="M95.272,160.305c-1.545-2.173-5.666-13.591,5.151-13.591
					c8.756,0,7.726,9.242,5.151,13.591c-6.303,10.643,0,0,0,0s0.514,43.491,3.605,57.082c2.054,9.035,0,0,0,0H92.182
					C92.182,217.387,96.303,177.701,95.272,160.305"/>
			</g>
		</g>
		<g opacity="0.07">
			<g>
				<defs>
					<rect id="SVGID_17_" x="124.721" y="150.392" width="32.856" height="66.739"/>
				</defs>
				<clipPath id="SVGID_18_">
					<use xlink:href="#SVGID_17_"  overflow="visible"/>
				</clipPath>
				<path clip-path="url(#SVGID_18_)" d="M124.721,153.668c35.868-8.502,31.605,16.115,21.988,35.266
					c-5.887,11.729-14.778,20.776-14.778,20.776c4.498-1.715,13.605-0.551,14.942,4.611c0.322,1.251-0.042,2.153-0.75,2.81
					c2.466-0.336,5.648-1.346,4.871-4.354c-1.337-5.163-10.443-6.326-14.941-4.613c0,0,8.891-9.047,14.778-20.774
					c9.617-19.152,13.879-43.77-21.988-35.267"/>
			</g>
		</g>
		<g opacity="0.05">
			<g>
				<defs>
					<rect id="SVGID_19_" x="43.27" y="149.986" width="33.371" height="66.746"/>
				</defs>
				<clipPath id="SVGID_20_">
					<use xlink:href="#SVGID_19_"  overflow="visible"/>
				</clipPath>
				<path clip-path="url(#SVGID_20_)" d="M72.004,151.715c-35.866-8.503-31.604,16.113-21.987,35.268
					c5.887,11.726,14.777,20.775,14.777,20.775c-4.497-1.715-13.604-0.553-14.939,4.611c-0.788,3.042,2.471,4.039,4.948,4.363
					c-0.403-0.595-0.56-1.347-0.313-2.303c1.336-5.164,10.442-6.327,14.94-4.61c0,0-8.89-9.05-14.777-20.775
					c-9.617-19.155-13.878-43.772,21.988-35.269"/>
			</g>
		</g>
		<path fill="#E0605C" d="M100.432,116.474c-6.607,0-7.662-9.489-7.59-16.127c3.083-0.173,5.475-2.76,7.59-6.314
			c1.88,3.078,3.965,5.858,7.591,6.407C108.084,107.07,107.009,116.474,100.432,116.474"/>
		<path fill="#323435" d="M109.193,100.811c-0.575,0-1.167-0.035-1.778-0.103c-6.685-0.737-7.681-8.696-7.691-8.776
			c-0.045-0.391,0.235-0.746,0.626-0.789c0.392-0.045,0.745,0.234,0.79,0.625c0.036,0.295,0.887,6.912,6.432,7.524
			c5.811,0.642,9.657-2.055,10.839-7.59c0.082-0.388,0.464-0.631,0.845-0.549c0.387,0.082,0.631,0.462,0.549,0.846
			C118.593,97.671,114.768,100.811,109.193,100.811"/>
		<path fill="#323435" d="M91.672,100.811c-5.576,0-9.4-3.14-10.612-8.812c-0.083-0.384,0.163-0.764,0.547-0.846
			c0.383-0.083,0.764,0.161,0.847,0.549c1.183,5.535,5.029,8.229,10.84,7.59c5.549-0.612,6.397-7.243,6.43-7.525
			c0.046-0.39,0.399-0.671,0.791-0.624c0.392,0.045,0.67,0.398,0.625,0.789c-0.008,0.08-1.005,8.039-7.69,8.776
			C92.839,100.775,92.247,100.811,91.672,100.811"/>
		<path fill="#323435" d="M108.768,85.175c0,2.802-3.572,8.441-8.335,8.441s-8.335-5.64-8.335-8.441s3.572-4.203,8.335-4.203
			S108.768,82.373,108.768,85.175"/>
		<path fill="#FFFFFF" d="M82.72,60.693c-6.551,0-11.863,5.311-11.863,11.862c0,6.553,5.312,11.864,11.863,11.864
			c6.552,0,11.862-5.312,11.862-11.864C94.583,66.004,89.272,60.693,82.72,60.693"/>
		
			<circle fill="none" stroke="#000000" stroke-width="0.8108" stroke-linecap="round" stroke-linejoin="round" cx="82.72" cy="72.557" r="11.863"/>
		<path fill="#9B6730" d="M88.991,72.759c0,3.354-2.72,6.073-6.074,6.073c-3.355,0-6.073-2.719-6.073-6.073s2.718-6.075,6.073-6.075
			C86.271,66.684,88.991,69.404,88.991,72.759"/>
		<path fill="#31323C" d="M87.364,72.759c0,2.456-1.991,4.446-4.448,4.446c-2.456,0-4.447-1.99-4.447-4.446
			c0-2.458,1.991-4.447,4.447-4.447C85.373,68.312,87.364,70.301,87.364,72.759"/>
		<path fill="#FFFFFF" d="M87.072,68.76c0,0.896-0.726,1.62-1.621,1.62s-1.621-0.725-1.621-1.62c0-0.896,0.726-1.622,1.621-1.622
			S87.072,67.863,87.072,68.76"/>
		<path fill="#FFFFFF" d="M120.395,60.773c-6.509-0.755-12.395,3.911-13.148,10.419c-0.753,6.509,3.913,12.395,10.421,13.148
			c6.509,0.752,12.394-3.914,13.147-10.421C131.568,67.411,126.902,61.524,120.395,60.773"/>
		
			<circle fill="none" stroke="#000000" stroke-width="0.8108" stroke-linecap="round" stroke-linejoin="round" cx="119.031" cy="72.557" r="11.862"/>
		<path fill="#9B6730" d="M125.236,73.478c-0.386,3.331-3.398,5.721-6.73,5.336c-3.333-0.386-5.722-3.399-5.336-6.732
			c0.385-3.33,3.399-5.72,6.732-5.335C123.234,67.131,125.622,70.145,125.236,73.478"/>
		<path fill="#31323C" d="M123.621,73.289c-0.282,2.44-2.49,4.19-4.929,3.907c-2.44-0.282-4.188-2.488-3.906-4.929
			c0.282-2.44,2.489-4.189,4.928-3.907C122.155,68.645,123.904,70.85,123.621,73.289"/>
		<path fill="#FFFFFF" d="M123.791,69.284c-0.103,0.89-0.907,1.527-1.796,1.424s-1.527-0.906-1.424-1.795
			c0.104-0.89,0.907-1.529,1.796-1.427C123.256,67.591,123.894,68.395,123.791,69.284"/>
	</g>
</g>
</svg>
