<?xml version="1.0" encoding="utf-8"?>
<!-- Generator: Adobe Illustrator 16.0.0, SVG Export Plug-In . SVG Version: 6.00 Build 0)  -->
<!DOCTYPE svg PUBLIC "-//W3C//DTD SVG 1.1//EN" "http://www.w3.org/Graphics/SVG/1.1/DTD/svg11.dtd">
<svg version="1.1" xmlns="http://www.w3.org/2000/svg" xmlns:xlink="http://www.w3.org/1999/xlink" x="0px" y="0px" width="286px"
	 height="286px" viewBox="0 0 286 286" enable-background="new 0 0 286 286" xml:space="preserve">
<g id="图层_2">
	<rect fill="#E5EEC4" width="286" height="286"/>
</g>
<g id="图层_4">
	<g>
		<g>
			<defs>
				<rect id="SVGID_1_" x="-18.473" y="-46.5" width="319.239" height="444.827"/>
			</defs>
			<clipPath id="SVGID_2_">
				<use xlink:href="#SVGID_1_"  overflow="visible"/>
			</clipPath>
			<rect x="300.766" y="-46.5" clip-path="url(#SVGID_2_)" fill="#CCCCCC" width="319.239" height="444.827"/>
		</g>
		<path fill="#616D72" d="M93.525,75.657c0,0,3.52-53.373,11.851-54.045c8.332-0.674,19.544,45.521,19.544,45.521L93.525,75.657z"/>
		<g opacity="0.3">
			<g>
				<defs>
					<rect id="SVGID_3_" x="99.987" y="32.598" width="18.205" height="39.754"/>
				</defs>
				<clipPath id="SVGID_4_">
					<use xlink:href="#SVGID_3_"  overflow="visible"/>
				</clipPath>
				<path clip-path="url(#SVGID_4_)" d="M99.987,72.352c0,0,4.716-39.529,6.544-39.752c1.828-0.226,11.663,33.188,11.663,33.188
					L99.987,72.352z"/>
			</g>
		</g>
		<path fill="#616D72" d="M190.417,75.657c0,0-3.521-53.373-11.852-54.045c-8.331-0.674-19.544,45.521-19.544,45.521L190.417,75.657
			z"/>
		<g opacity="0.3">
			<g>
				<defs>
					<rect id="SVGID_5_" x="165.749" y="32.598" width="18.206" height="39.754"/>
				</defs>
				<clipPath id="SVGID_6_">
					<use xlink:href="#SVGID_5_"  overflow="visible"/>
				</clipPath>
				<path clip-path="url(#SVGID_6_)" d="M183.955,72.352c0,0-4.717-39.529-6.545-39.752c-1.827-0.226-11.66,33.188-11.66,33.188
					L183.955,72.352z"/>
			</g>
		</g>
		<path fill="#616D72" d="M203.357,231.919c0,0,30.401-0.724,36.915-27.264c6.515-26.541-6.033-54.528-6.033-54.528
			s39.328,15.44,37.399,48.254c0,0,9.65,1.449-2.897,14.235c0,0,8.446,2.173-2.17,8.686c0,0,12.458,12.706-26.059,23.406
			c-21.714,6.032-39.14,0.51-39.14,0.51L203.357,231.919z"/>
		<path fill="none" stroke="#020202" stroke-width="0.8102" stroke-miterlimit="10" d="M203.357,232.729
			c0,0,30.401-0.724,36.915-27.264c6.515-26.541-6.033-54.529-6.033-54.529s39.328,15.44,37.399,48.255c0,0,9.65,1.447-2.897,14.237
			c0,0,8.446,2.17-2.17,8.686c0,0,12.458,12.704-26.059,23.403c-21.714,6.031-39.14,0.511-39.14,0.511L203.357,232.729z"/>
		<path fill="#616D72" d="M128.183,319.733c1.62,0,6.482-58.34,5.671-85.077c-0.712-23.5,0,0,0,0"/>
		<path fill="#263135" d="M230.108,222.911c-0.167-0.271-0.352-0.53-0.53-0.791c-11.19,9.441-26.223,9.799-26.223,9.799
			l-1.983,13.299c0,0,13.301,4.213,31.143,1.256C234.195,237.901,234.095,229.371,230.108,222.911"/>
		<path fill="#616D72" d="M197.929,305.182c0,0,13.963-14.211,23.211-32.631c15.104-30.082,21.797-68.741-34.535-55.389h-44.634
			H97.336c-56.333-13.353-49.64,25.307-34.535,55.389c9.248,18.42,23.21,32.631,23.21,32.631
			c-7.063-2.691-21.366-0.864-23.465,7.244c-1.943,7.507,11.819,7.092,11.819,7.092h67.604h67.604c0,0,13.762,0.415,11.819-7.092
			C219.296,304.317,204.994,302.49,197.929,305.182"/>
		<path fill="#263135" d="M129.49,234.354v-17.191H97.336c-2.902-0.689-5.629-1.231-8.207-1.65c1.148,4.595,2.406,9.28,3.69,14.051
			c2.658,9.884,5.407,20.103,7.237,30.083c1.683,9.171,3.034,19.243,4.34,28.984c1.735,12.938,3.202,23.332,4.943,30.888h19.232
			c0.894-5.487,1.56-12.774,2.398-21.965c0.142-1.564,0.291-3.189,0.446-4.876c2.205-23.89,2.609-49.854,2.683-58.323H129.49z"/>
		<path fill="#263135" d="M186.604,217.162h-32.153v17.191h-4.608c0.074,8.469,0.476,34.434,2.682,58.323
			c0.156,1.682,0.303,3.303,0.446,4.865c0.838,9.195,1.505,16.486,2.399,21.976h19.232c1.74-7.556,3.207-17.949,4.943-30.889
			c1.306-9.74,2.656-19.813,4.339-28.983c1.831-9.98,4.58-20.2,7.238-30.083c1.285-4.771,2.542-9.456,3.69-14.051
			C192.235,215.931,189.508,216.473,186.604,217.162"/>
		<path fill="#616D72" d="M204.246,181.281c0,0-2.392-11.361-2.093-18.988c0.299-7.623,1.558-29.672-2.541-46.346
			c-1.238-5.03,3.887-8.821,3.887-8.821s-5.98-6.129-6.279-10.614c0,0,6.428,1.646,8.97,0.748c0,0-5.083-3.886-7.177-8.372
			c-2.093-4.484-10.837-30.499-57.042-30.499c-46.204,0-54.949,26.015-57.042,30.499c-2.093,4.486-7.177,8.372-7.177,8.372
			c2.542,0.898,8.97-0.748,8.97-0.748c-0.298,4.485-6.278,10.614-6.278,10.614s5.125,3.791,3.886,8.821
			c-4.1,16.674-2.84,38.723-2.541,46.346c0.299,7.627-2.093,18.988-2.093,18.988c3.886-2.094,4.933-4.336,4.933-4.336
			c-0.15,4.783-2.542,13.156-2.542,13.156c2.542-1.944,3.916-2.969,3.916-2.969c1.242,21.731,11.26,47.344,15.818,72.188
			c5.666,30.88,7.625,72.21,16.131,72.793c8.505,0.581,8.985-10.45,11.677-39.603c2.691-29.154,2.691-60.998,2.691-60.998h9.65h9.65
			c0,0,0,31.844,2.69,60.998c2.691,29.152,3.173,40.184,11.678,39.603c8.506-0.583,10.466-41.913,16.13-72.793
			c4.559-24.845,14.576-50.457,15.817-72.188c0,0,1.375,1.024,3.918,2.969c0,0-2.392-8.373-2.542-13.156
			C199.312,176.945,200.359,179.188,204.246,181.281"/>
		<g opacity="0.07">
			<g>
				<defs>
					<rect id="SVGID_7_" x="136.81" y="57.578" width="68.773" height="274.169"/>
				</defs>
				<clipPath id="SVGID_8_">
					<use xlink:href="#SVGID_7_"  overflow="visible"/>
				</clipPath>
				<path clip-path="url(#SVGID_8_)" d="M205.583,96.509c0,0-5.09-3.893-7.187-8.385c-2.096-4.492-10.854-30.546-57.13-30.546
					c-1.527,0-3.01,0.03-4.456,0.083c42.386,1.615,50.646,26.12,52.673,30.463c2.097,4.492,7.188,8.385,7.188,8.385
					c-2.546,0.897-8.984-0.748-8.984-0.748c0.3,4.491,6.289,10.631,6.289,10.631s-5.131,3.796-3.893,8.835
					c4.106,16.697,2.845,38.78,2.545,46.418c-0.3,7.636,2.096,19.015,2.096,19.015c-3.893-2.097-4.94-4.343-4.94-4.343
					c0.148,4.793,2.544,13.178,2.544,13.178c-2.544-1.947-3.922-2.976-3.922-2.976c-1.243,21.767-11.277,47.418-15.842,72.302
					c-4.864,26.511-7,60.71-12.878,70.306c1.37,1.95,3.163,2.77,5.636,2.6c8.52-0.584,10.482-41.977,16.156-72.905
					c4.565-24.884,14.599-50.535,15.841-72.302c0,0,1.378,1.028,3.922,2.976c0,0-2.395-8.385-2.544-13.178
					c0,0,1.047,2.246,4.94,4.343c0,0-2.396-11.379-2.096-19.015c0.299-7.638,1.561-29.721-2.545-46.418
					c-1.24-5.039,3.892-8.835,3.892-8.835s-5.99-6.14-6.289-10.631C196.6,95.761,203.039,97.406,205.583,96.509"/>
			</g>
		</g>
		<g opacity="0.05">
			<g>
				<defs>
					<rect id="SVGID_9_" x="77.758" y="58.023" width="128.636" height="274.169"/>
				</defs>
				<clipPath id="SVGID_10_">
					<use xlink:href="#SVGID_9_"  overflow="visible"/>
				</clipPath>
				<path clip-path="url(#SVGID_10_)" d="M205.517,96.232c0.021,0.292,0.066,0.591,0.133,0.895c0.27-0.043,0.525-0.096,0.745-0.173
					C206.395,96.954,206.054,96.692,205.517,96.232"/>
				<path clip-path="url(#SVGID_10_)" d="M86.74,96.232c1.548-1.326,4.753-4.327,6.309-7.662
					c2.034-4.358,10.339-29.006,53.079-30.477c-1.318-0.045-2.667-0.07-4.051-0.07c-46.275,0-55.035,26.053-57.131,30.547
					c-2.096,4.49-7.187,8.384-7.187,8.384c2.545,0.899,8.984-0.749,8.984-0.749C86.743,96.214,86.74,96.224,86.74,96.232"/>
				<path clip-path="url(#SVGID_10_)" d="M109.969,259.267c-4.565-24.886-14.599-50.535-15.843-72.302c0,0-1.376,1.028-3.923,2.974
					c0,0,2.397-8.385,2.547-13.176c0,0-1.049,2.246-4.942,4.341c0,0,2.395-11.379,2.097-19.015
					c-0.3-7.638-1.561-29.721,2.544-46.419c1.241-5.036-3.894-8.835-3.894-8.835s5.99-6.137,6.29-10.63c0,0-5.369,1.371-8.238,0.922
					c-0.94,4.363-6.153,9.708-6.153,9.708s5.133,3.799,3.894,8.835c-4.106,16.698-2.845,38.781-2.546,46.419
					c0.299,7.636-2.097,19.015-2.097,19.015c3.894-2.095,4.942-4.341,4.942-4.341c-0.149,4.791-2.546,13.176-2.546,13.176
					c2.546-1.945,3.922-2.974,3.922-2.974c1.245,21.767,11.279,47.416,15.844,72.302c5.673,30.928,7.636,72.321,16.154,72.903
					c2.217,0.152,3.887-0.493,5.195-2.029C117.057,321.402,114.932,286.327,109.969,259.267"/>
			</g>
		</g>
		<path fill="#263135" d="M104.976,163.894c0,0,0.161,0.192,0.422,0.531c0.126,0.17,0.291,0.374,0.459,0.612
			c0.171,0.239,0.375,0.502,0.576,0.797c0.417,0.583,0.879,1.27,1.37,2.002c0.485,0.729,1.002,1.506,1.519,2.282
			c0.244,0.396,0.526,0.761,0.77,1.147c0.258,0.375,0.52,0.734,0.76,1.099c0.255,0.347,0.502,0.684,0.73,1.014
			c0.245,0.309,0.473,0.607,0.681,0.895c0.223,0.27,0.426,0.521,0.606,0.742c0.178,0.232,0.355,0.407,0.496,0.564
			c0.284,0.314,0.443,0.516,0.443,0.516s-0.237-0.066-0.644-0.219c-0.202-0.083-0.466-0.163-0.721-0.323
			c-0.263-0.147-0.571-0.311-0.885-0.517c-0.3-0.22-0.624-0.463-0.961-0.731c-0.314-0.288-0.645-0.596-0.973-0.926
			c-0.307-0.347-0.636-0.697-0.934-1.08c-0.292-0.386-0.596-0.775-0.861-1.188c-0.265-0.413-0.534-0.82-0.76-1.245
			c-0.241-0.417-0.455-0.838-0.647-1.253c-0.394-0.826-0.694-1.625-0.917-2.32c-0.213-0.703-0.356-1.299-0.431-1.726
			C104.993,164.145,104.976,163.894,104.976,163.894"/>
		<path fill="#263135" d="M115.781,169.472c0,0,0.106,0.192,0.272,0.522c0.079,0.167,0.188,0.367,0.291,0.595
			c0.106,0.23,0.243,0.484,0.364,0.764c0.254,0.552,0.548,1.193,0.866,1.882c0.076,0.17,0.154,0.342,0.233,0.518
			c0.085,0.172,0.169,0.346,0.248,0.524c0.156,0.355,0.342,0.7,0.507,1.056c0.167,0.354,0.362,0.688,0.525,1.037
			c0.197,0.321,0.363,0.664,0.548,0.975c0.198,0.299,0.361,0.622,0.55,0.894c0.193,0.269,0.36,0.548,0.534,0.786
			c0.184,0.228,0.347,0.452,0.494,0.654c0.148,0.201,0.306,0.348,0.421,0.489c0.241,0.275,0.376,0.458,0.376,0.458
			s-0.208-0.041-0.572-0.158c-0.176-0.066-0.418-0.116-0.646-0.245c-0.234-0.124-0.502-0.269-0.788-0.441
			c-0.274-0.184-0.543-0.415-0.839-0.658c-0.29-0.248-0.544-0.549-0.826-0.854c-0.266-0.314-0.505-0.661-0.752-1.016
			c-0.22-0.365-0.44-0.743-0.635-1.128c-0.174-0.395-0.372-0.78-0.503-1.183c-0.149-0.395-0.276-0.79-0.372-1.179
			c-0.21-0.773-0.315-1.516-0.372-2.151c-0.042-0.64-0.036-1.175-0.002-1.551C115.732,169.687,115.781,169.472,115.781,169.472"/>
		<path fill="#263135" d="M124.612,171.795c0,0,0.11,0.157,0.274,0.434c0.166,0.277,0.386,0.673,0.632,1.144
			c0.24,0.476,0.506,1.026,0.765,1.615c0.138,0.292,0.262,0.603,0.397,0.907c0.139,0.305,0.256,0.624,0.397,0.93
			c0.125,0.315,0.26,0.62,0.389,0.924c0.125,0.307,0.257,0.599,0.382,0.885c0.116,0.293,0.256,0.553,0.371,0.818
			c0.108,0.272,0.251,0.489,0.357,0.724c0.103,0.238,0.234,0.417,0.334,0.607c0.052,0.094,0.103,0.181,0.147,0.262
			c0.054,0.072,0.104,0.142,0.147,0.203c0.181,0.252,0.287,0.424,0.287,0.424s-0.18-0.031-0.5-0.138
			c-0.082-0.029-0.172-0.06-0.269-0.093c-0.094-0.041-0.181-0.101-0.283-0.158c-0.196-0.12-0.452-0.241-0.657-0.435
			c-0.21-0.187-0.472-0.383-0.676-0.628c-0.211-0.247-0.451-0.502-0.639-0.796c-0.2-0.287-0.404-0.588-0.566-0.913
			c-0.183-0.318-0.334-0.653-0.477-0.99c-0.145-0.337-0.266-0.681-0.375-1.024c-0.117-0.34-0.194-0.684-0.275-1.013
			c-0.146-0.667-0.229-1.296-0.258-1.844c-0.027-0.547-0.011-1.009,0.022-1.333C124.57,171.98,124.612,171.795,124.612,171.795"/>
		<path fill="#263135" d="M157.38,175.048c0,0,0.029,0.131,0.042,0.352c0.016,0.218,0.018,0.526-0.029,0.878
			c-0.043,0.354-0.134,0.752-0.276,1.161c-0.143,0.409-0.343,0.828-0.586,1.227c-0.133,0.192-0.256,0.39-0.408,0.568
			c-0.15,0.183-0.295,0.356-0.47,0.511c-0.169,0.157-0.332,0.302-0.518,0.421c-0.177,0.124-0.352,0.229-0.538,0.307
			c-0.175,0.079-0.342,0.142-0.511,0.17c-0.162,0.03-0.292,0.056-0.418,0.041c-0.241-0.017-0.356-0.058-0.356-0.058
			s0.091-0.118,0.211-0.27c0.064-0.064,0.12-0.192,0.188-0.298c0.069-0.103,0.136-0.233,0.207-0.373
			c0.075-0.13,0.148-0.283,0.229-0.44c0.081-0.153,0.167-0.317,0.256-0.485c0.096-0.158,0.181-0.348,0.29-0.515
			c0.1-0.177,0.207-0.355,0.316-0.53c0.441-0.705,0.963-1.395,1.449-1.882c0.242-0.244,0.466-0.443,0.639-0.576
			C157.265,175.121,157.38,175.048,157.38,175.048"/>
		<path fill="#263135" d="M165.048,170.864c0,0,0.02,0.183,0.01,0.491c-0.005,0.313-0.047,0.747-0.142,1.259
			c-0.102,0.508-0.255,1.092-0.489,1.692c-0.112,0.302-0.244,0.607-0.396,0.911c-0.14,0.309-0.322,0.604-0.492,0.903
			c-0.18,0.295-0.381,0.58-0.583,0.856c-0.208,0.273-0.431,0.529-0.652,0.772c-0.234,0.235-0.463,0.455-0.695,0.652
			c-0.243,0.188-0.477,0.357-0.694,0.508c-0.235,0.136-0.452,0.252-0.646,0.346c-0.187,0.104-0.386,0.147-0.531,0.2
			c-0.3,0.093-0.475,0.124-0.475,0.124s0.094-0.166,0.264-0.412c0.083-0.128,0.192-0.262,0.296-0.442
			c0.107-0.175,0.229-0.363,0.365-0.559c0.124-0.213,0.261-0.436,0.411-0.66c0.143-0.234,0.286-0.487,0.448-0.729
			c0.15-0.259,0.306-0.521,0.474-0.781c0.151-0.274,0.331-0.534,0.489-0.811c0.168-0.271,0.336-0.543,0.502-0.809
			c0.166-0.268,0.336-0.528,0.499-0.786c0.335-0.506,0.655-0.985,0.955-1.388C164.551,171.394,165.048,170.864,165.048,170.864"/>
		<path fill="#263135" d="M169.346,170.864c0,0,0.058,0.146,0.111,0.401c0.058,0.255,0.116,0.616,0.134,1.046
			c0.047,0.858-0.088,1.987-0.467,3.063c-0.188,0.536-0.433,1.062-0.73,1.522c-0.137,0.234-0.309,0.446-0.47,0.644
			c-0.153,0.199-0.345,0.368-0.509,0.521c-0.159,0.154-0.348,0.271-0.502,0.371c-0.081,0.048-0.151,0.094-0.224,0.131
			c-0.077,0.03-0.147,0.058-0.211,0.083c-0.255,0.095-0.4,0.12-0.4,0.12s0.057-0.155,0.156-0.381
			c0.055-0.104,0.102-0.245,0.152-0.406c0.055-0.158,0.125-0.314,0.176-0.51c0.055-0.191,0.132-0.375,0.188-0.596
			c0.066-0.21,0.136-0.432,0.208-0.661c0.073-0.229,0.15-0.465,0.228-0.704c0.08-0.24,0.164-0.483,0.246-0.729
			c0.096-0.24,0.172-0.49,0.27-0.728c0.094-0.239,0.185-0.479,0.287-0.707c0.192-0.462,0.398-0.889,0.593-1.257
			c0.194-0.365,0.383-0.672,0.528-0.886C169.249,170.988,169.346,170.864,169.346,170.864"/>
		<path fill="#263135" d="M182.593,158.898c0,0,0.023,0.24,0.013,0.66c-0.005,0.419-0.051,1.012-0.149,1.716
			c-0.054,0.35-0.121,0.729-0.208,1.125c-0.094,0.393-0.186,0.813-0.32,1.234c-0.125,0.426-0.266,0.86-0.437,1.295
			c-0.157,0.438-0.354,0.871-0.549,1.303c-0.195,0.434-0.432,0.851-0.659,1.26c-0.229,0.412-0.5,0.794-0.748,1.167
			c-0.267,0.363-0.548,0.701-0.811,1.021c-0.288,0.304-0.57,0.579-0.831,0.828c-0.275,0.241-0.553,0.433-0.788,0.608
			c-0.226,0.186-0.472,0.293-0.657,0.395c-0.375,0.198-0.596,0.285-0.596,0.285s0.128-0.216,0.36-0.552
			c0.116-0.17,0.261-0.36,0.4-0.607c0.143-0.237,0.304-0.501,0.48-0.792c0.159-0.301,0.339-0.616,0.528-0.945
			c0.171-0.348,0.362-0.7,0.556-1.07c0.177-0.381,0.379-0.76,0.57-1.154c0.177-0.404,0.396-0.792,0.572-1.206
			c0.383-0.815,0.766-1.631,1.125-2.396c0.365-0.768,0.71-1.49,1.025-2.108c0.151-0.312,0.309-0.593,0.439-0.845
			c0.127-0.254,0.256-0.471,0.353-0.653C182.465,159.104,182.593,158.898,182.593,158.898"/>
		<path fill="#263135" d="M198.508,153.087c-0.21,0.9-0.458,1.798-0.752,2.679c-0.291,0.883-0.608,1.757-0.965,2.615
			c-0.357,0.86-0.729,1.717-1.149,2.553c-0.421,0.834-0.869,1.657-1.348,2.465c-0.246,0.397-0.487,0.801-0.752,1.19
			c-0.257,0.396-0.537,0.773-0.812,1.159c-0.285,0.376-0.569,0.755-0.873,1.118c-0.292,0.371-0.615,0.722-0.929,1.079
			c-0.328,0.345-0.649,0.698-1.004,1.02c-0.34,0.336-0.711,0.641-1.072,0.956c-0.379,0.297-0.751,0.603-1.151,0.873
			c-0.388,0.288-0.807,0.533-1.214,0.794l-0.682-1.511c0.37-0.129,0.71-0.233,1.07-0.335c0.354-0.1,0.715-0.191,1.082-0.265
			c0.739-0.146,1.485-0.27,2.338-0.223c0.426,0.035,0.902,0.087,1.438,0.422c0.264,0.166,0.525,0.453,0.664,0.782
			c0.034,0.081,0.064,0.165,0.084,0.246l0.017,0.061l0.016,0.085l0.012,0.065c0.009,0.054,0.02,0.179,0.023,0.266
			c-0.001,0.072-0.002,0.147-0.008,0.218c-0.055,0.561-0.238,0.957-0.417,1.33c-0.184,0.367-0.388,0.699-0.599,1.014
			c-0.428,0.624-0.891,1.192-1.358,1.746c-0.469,0.554-0.951,1.089-1.438,1.615c-0.977,1.049-1.967,2.075-2.989,3.065l-1.003-1.322
			c0.44-0.232,0.864-0.445,1.302-0.658c0.436-0.211,0.875-0.414,1.32-0.609c0.895-0.384,1.792-0.765,2.795-1.01
			c0.252-0.062,0.51-0.114,0.792-0.147c0.282-0.026,0.58-0.054,0.973,0.043c0.194,0.051,0.442,0.155,0.645,0.381
			c0.206,0.224,0.289,0.522,0.298,0.74c0.014,0.447-0.109,0.722-0.214,0.987c-0.242,0.532-0.491,0.893-0.736,1.315
			c-0.251,0.419-0.517,0.818-0.776,1.217c-0.26,0.398-0.521,0.792-0.763,1.186c-0.24,0.397-0.464,0.772-0.609,1.168
			c-0.066,0.189-0.113,0.383-0.109,0.522c0.007,0.146,0.029,0.207,0.125,0.289c0.103,0.08,0.287,0.14,0.492,0.172
			c0.245,0.04,0.446,0.066,0.671,0.077c0.894,0.051,1.809-0.115,2.648-0.495c0.838-0.385,1.618-0.941,2.245-1.657
			c-0.25,0.406-0.567,0.772-0.913,1.108c-0.347,0.334-0.733,0.635-1.156,0.885c-0.837,0.508-1.822,0.813-2.829,0.845
			c-0.249,0.012-0.521,0.003-0.749-0.013c-0.261-0.021-0.556-0.06-0.857-0.234c-0.149-0.091-0.291-0.226-0.392-0.388
			c-0.094-0.166-0.149-0.346-0.168-0.512c-0.039-0.336,0.026-0.615,0.094-0.879c0.143-0.51,0.378-0.974,0.598-1.404
			c0.225-0.432,0.458-0.85,0.689-1.264l0.674-1.234c0.213-0.408,0.469-0.856,0.597-1.2c0.066-0.17,0.1-0.36,0.083-0.391
			c-0.006-0.017-0.001,0.043,0.042,0.093c0.043,0.048,0.066,0.047,0.03,0.042c-0.068-0.014-0.255-0.01-0.44,0.026
			c-0.188,0.031-0.394,0.085-0.601,0.146c-0.828,0.26-1.686,0.626-2.519,1.025s-1.669,0.84-2.464,1.292l-4.905,2.796l3.901-4.117
			c0.969-1.023,1.953-2.029,2.891-3.067c0.932-1.034,1.853-2.097,2.603-3.188c0.186-0.271,0.357-0.544,0.492-0.808
			c0.136-0.258,0.233-0.528,0.245-0.677l0.002-0.047c-0.004-0.002,0.005,0.034,0.002,0.002l-0.012-0.065l-0.001-0.017l-0.001-0.008
			c-0.003-0.012,0.017,0.085,0.01,0.045h-0.001l-0.001-0.003c0-0.005-0.003-0.005,0-0.006c-0.003,0.003,0.017,0.012-0.018-0.013
			c-0.063-0.053-0.31-0.129-0.584-0.144c-0.563-0.042-1.231,0.046-1.881,0.17c-0.327,0.066-0.655,0.138-0.984,0.22
			c-0.325,0.08-0.664,0.173-0.967,0.267l-6.717,2.096l6.037-3.605c0.375-0.226,0.764-0.433,1.125-0.685
			c0.372-0.233,0.722-0.506,1.08-0.767c0.343-0.28,0.696-0.55,1.023-0.852c0.337-0.293,0.66-0.602,0.984-0.91
			c0.312-0.32,0.635-0.631,0.932-0.971c0.306-0.329,0.595-0.674,0.888-1.019c0.282-0.354,0.57-0.701,0.836-1.065
			c0.276-0.359,0.542-0.728,0.807-1.098c0.521-0.745,1.017-1.508,1.489-2.29c0.232-0.394,0.467-0.787,0.694-1.185
			c0.225-0.396,0.447-0.798,0.661-1.204c0.425-0.812,0.839-1.634,1.228-2.469C197.791,154.791,198.18,153.951,198.508,153.087"/>
		<path fill="#263135" d="M86.784,153.087c0.21,0.9,0.458,1.798,0.752,2.679c0.292,0.883,0.608,1.757,0.965,2.615
			c0.356,0.86,0.73,1.717,1.15,2.553c0.42,0.834,0.868,1.657,1.348,2.465c0.246,0.397,0.487,0.801,0.751,1.19
			c0.257,0.396,0.538,0.773,0.813,1.159c0.284,0.376,0.569,0.755,0.873,1.118c0.293,0.371,0.614,0.722,0.929,1.079
			c0.328,0.345,0.65,0.698,1.003,1.02c0.341,0.336,0.711,0.641,1.073,0.956c0.378,0.297,0.75,0.603,1.15,0.873
			c0.387,0.288,0.807,0.533,1.214,0.794l0.68-1.511c-0.369-0.129-0.709-0.233-1.069-0.335c-0.354-0.1-0.714-0.191-1.082-0.265
			c-0.738-0.146-1.484-0.27-2.337-0.223c-0.425,0.035-0.903,0.087-1.439,0.422c-0.263,0.166-0.524,0.453-0.664,0.782
			c-0.033,0.081-0.064,0.165-0.084,0.246l-0.016,0.061l-0.017,0.085l-0.01,0.065c-0.009,0.054-0.02,0.179-0.023,0.266
			c0.001,0.072,0.002,0.147,0.007,0.218c0.054,0.561,0.238,0.957,0.417,1.33c0.185,0.367,0.389,0.699,0.6,1.014
			c0.428,0.624,0.889,1.192,1.357,1.746c0.47,0.554,0.951,1.089,1.438,1.615c0.976,1.049,1.966,2.075,2.989,3.065l1.003-1.322
			c-0.439-0.232-0.864-0.445-1.303-0.658c-0.434-0.211-0.874-0.414-1.319-0.609c-0.895-0.384-1.792-0.765-2.794-1.01
			c-0.252-0.062-0.511-0.114-0.792-0.147c-0.283-0.026-0.58-0.054-0.975,0.043c-0.193,0.051-0.44,0.155-0.645,0.381
			c-0.205,0.224-0.289,0.522-0.299,0.74c-0.014,0.447,0.11,0.722,0.215,0.987c0.243,0.532,0.491,0.893,0.736,1.315
			c0.252,0.419,0.516,0.818,0.776,1.217s0.521,0.792,0.765,1.186c0.239,0.397,0.463,0.772,0.609,1.168
			c0.066,0.189,0.112,0.383,0.107,0.522c-0.005,0.146-0.027,0.207-0.124,0.289c-0.103,0.08-0.288,0.14-0.492,0.172
			c-0.245,0.04-0.446,0.066-0.672,0.077c-0.894,0.051-1.808-0.115-2.648-0.495c-0.837-0.385-1.618-0.941-2.244-1.657
			c0.25,0.406,0.568,0.772,0.913,1.108c0.348,0.334,0.734,0.635,1.156,0.885c0.837,0.508,1.822,0.813,2.827,0.845
			c0.249,0.012,0.522,0.003,0.749-0.013c0.263-0.021,0.559-0.06,0.859-0.234c0.148-0.091,0.29-0.226,0.392-0.388
			c0.094-0.166,0.15-0.346,0.168-0.512c0.039-0.336-0.026-0.615-0.094-0.879c-0.143-0.51-0.378-0.974-0.597-1.404
			c-0.225-0.432-0.46-0.85-0.689-1.264l-0.674-1.234c-0.212-0.408-0.47-0.856-0.596-1.2c-0.067-0.17-0.101-0.36-0.083-0.391
			c0.006-0.017,0.001,0.043-0.042,0.093c-0.043,0.048-0.066,0.047-0.031,0.042c0.069-0.014,0.256-0.01,0.441,0.026
			c0.189,0.031,0.394,0.085,0.601,0.146c0.829,0.26,1.686,0.626,2.519,1.025c0.833,0.399,1.668,0.84,2.464,1.292l4.905,2.796
			l-3.901-4.117c-0.97-1.023-1.954-2.029-2.89-3.067c-0.933-1.034-1.854-2.097-2.604-3.188c-0.186-0.271-0.357-0.544-0.492-0.808
			c-0.135-0.258-0.231-0.528-0.243-0.677l-0.002-0.047c0.004-0.002-0.007,0.034-0.003,0.002l0.011-0.065l0.002-0.017l0.001-0.008
			c0.003-0.012-0.017,0.085-0.008,0.045l0.001-0.003c0-0.005,0.001-0.005,0-0.006c0.001,0.003-0.017,0.012,0.018-0.013
			c0.062-0.053,0.31-0.129,0.583-0.144c0.563-0.042,1.23,0.046,1.881,0.17c0.326,0.066,0.656,0.138,0.984,0.22
			c0.325,0.08,0.665,0.173,0.967,0.267l6.717,2.096l-6.036-3.605c-0.377-0.226-0.764-0.433-1.126-0.685
			c-0.373-0.233-0.723-0.506-1.081-0.767c-0.343-0.28-0.696-0.55-1.022-0.852c-0.336-0.293-0.661-0.602-0.984-0.91
			c-0.312-0.32-0.634-0.631-0.931-0.971c-0.308-0.329-0.597-0.674-0.889-1.019c-0.282-0.354-0.57-0.701-0.836-1.065
			c-0.277-0.359-0.542-0.728-0.808-1.098c-0.521-0.745-1.017-1.508-1.488-2.29c-0.233-0.394-0.469-0.787-0.695-1.185
			c-0.226-0.396-0.447-0.798-0.66-1.204c-0.425-0.812-0.84-1.634-1.228-2.469C87.5,154.791,87.112,153.951,86.784,153.087"/>
		<g opacity="0.05">
			<g>
				<defs>
					<rect id="SVGID_11_" x="77.758" y="57.213" width="128.636" height="274.169"/>
				</defs>
				<clipPath id="SVGID_12_">
					<use xlink:href="#SVGID_11_"  overflow="visible"/>
				</clipPath>
				<path clip-path="url(#SVGID_12_)" d="M205.517,95.423c0.021,0.291,0.066,0.591,0.133,0.893c0.27-0.04,0.525-0.096,0.745-0.173
					C206.395,96.143,206.054,95.883,205.517,95.423"/>
				<path clip-path="url(#SVGID_12_)" d="M86.74,95.423c1.548-1.326,4.753-4.328,6.309-7.663
					c2.034-4.358,10.339-29.005,53.079-30.479c-1.318-0.044-2.667-0.067-4.051-0.067c-46.275,0-55.035,26.052-57.131,30.546
					c-2.096,4.491-7.187,8.383-7.187,8.383c2.545,0.899,8.984-0.748,8.984-0.748C86.743,95.404,86.74,95.414,86.74,95.423"/>
				<path clip-path="url(#SVGID_12_)" d="M109.969,258.456c-4.565-24.885-14.599-50.536-15.843-72.302c0,0-1.376,1.029-3.923,2.974
					c0,0,2.397-8.386,2.547-13.177c0,0-1.049,2.247-4.942,4.344c0,0,2.395-11.382,2.097-19.017
					c-0.3-7.636-1.561-29.719,2.544-46.418c1.241-5.037-3.894-8.833-3.894-8.833s5.99-6.141,6.29-10.633
					c0,0-5.369,1.372-8.238,0.921c-0.94,4.365-6.153,9.712-6.153,9.712s5.133,3.796,3.894,8.833
					c-4.106,16.699-2.845,38.782-2.546,46.418c0.299,7.635-2.097,19.017-2.097,19.017c3.894-2.097,4.942-4.344,4.942-4.344
					c-0.149,4.791-2.546,13.177-2.546,13.177c2.546-1.944,3.922-2.974,3.922-2.974c1.245,21.766,11.279,47.417,15.844,72.302
					c5.673,30.928,7.636,72.321,16.154,72.905c2.217,0.149,3.887-0.494,5.195-2.032
					C117.057,320.593,114.932,285.517,109.969,258.456"/>
			</g>
		</g>
		<g>
			<g>
				<defs>
					<rect id="SVGID_13_" x="128.994" y="214.4" width="28.174" height="111.316"/>
				</defs>
				<clipPath id="SVGID_14_">
					<use xlink:href="#SVGID_13_"  overflow="visible"/>
				</clipPath>
				<path clip-path="url(#SVGID_14_)" fill="#616D72" d="M133.854,234.656c-2.43-3.241-8.913-20.256,8.103-20.256
					c13.774,0,12.153,13.774,8.102,20.256c-9.915,15.862,0,0,0,0s0.811,64.82,5.672,85.077c3.231,13.463,0,0,0,0h-26.738
					C128.994,319.733,135.475,260.584,133.854,234.656"/>
			</g>
		</g>
		<path fill="#E0605C" d="M141.971,161.159c-10.394,0-12.051-14.928-11.939-25.366c4.849-0.271,8.61-4.346,11.939-9.933
			c2.958,4.84,6.237,9.215,11.941,10.076C154.008,146.369,152.317,161.159,141.971,161.159"/>
		<path fill="#323435" d="M155.752,136.52c-0.904,0-1.836-0.053-2.797-0.158c-10.516-1.158-12.083-13.679-12.098-13.806
			c-0.071-0.615,0.37-1.173,0.985-1.242c0.616-0.07,1.171,0.369,1.243,0.984c0.055,0.466,1.393,10.873,10.116,11.835
			c9.139,1.009,15.19-3.233,17.051-11.941c0.129-0.605,0.73-0.989,1.33-0.859c0.606,0.129,0.992,0.724,0.863,1.33
			C170.54,131.582,164.521,136.52,155.752,136.52"/>
		<path fill="#323435" d="M128.19,136.52c-8.771,0-14.787-4.938-16.693-13.857c-0.129-0.606,0.256-1.201,0.861-1.33
			c0.601-0.13,1.201,0.254,1.332,0.859c1.861,8.708,7.911,12.947,17.051,11.941c8.73-0.963,10.063-11.393,10.115-11.837
			c0.073-0.613,0.629-1.056,1.244-0.982c0.614,0.072,1.054,0.627,0.984,1.242c-0.015,0.127-1.582,12.647-12.098,13.806
			C130.027,136.467,129.093,136.52,128.19,136.52"/>
		<path fill="#323435" d="M155.082,111.926c0,4.407-5.618,13.28-13.111,13.28s-13.111-8.873-13.111-13.28s5.618-6.612,13.111-6.612
			S155.082,107.519,155.082,111.926"/>
		<path fill="#FFFFFF" d="M113.7,73.417c-10.236,0-18.535,8.354-18.535,18.66s8.299,18.66,18.535,18.66
			c10.236,0,18.535-8.354,18.535-18.66S123.936,73.417,113.7,73.417"/>
		
			<ellipse fill="none" stroke="#000000" stroke-width="1.2753" stroke-linecap="round" stroke-linejoin="round" cx="113.7" cy="92.077" rx="18.535" ry="18.66"/>
		<path fill="#9B6730" d="M129.235,98.065c0,5.275-4.277,9.555-9.554,9.555c-5.276,0-9.554-4.279-9.554-9.555
			c0-5.276,4.277-9.554,9.554-9.554C124.958,88.512,129.235,92.789,129.235,98.065"/>
		<path fill="#31323C" d="M126.676,98.065c0,3.863-3.132,6.995-6.995,6.995c-3.863,0-6.996-3.132-6.996-6.995
			s3.133-6.995,6.996-6.995C123.544,91.07,126.676,94.202,126.676,98.065"/>
		<path fill="#FFFFFF" d="M126.218,91.776c0,1.407-1.142,2.549-2.55,2.549c-1.409,0-2.55-1.142-2.55-2.549
			c0-1.409,1.141-2.55,2.55-2.55C125.076,89.227,126.218,90.367,126.218,91.776"/>
		<path fill="#FFFFFF" d="M167.986,73.417c-10.236,0-18.534,8.354-18.534,18.66s8.298,18.66,18.534,18.66s18.535-8.354,18.535-18.66
			S178.222,73.417,167.986,73.417"/>
		
			<ellipse fill="none" stroke="#000000" stroke-width="1.2753" stroke-linecap="round" stroke-linejoin="round" cx="167.986" cy="92.077" rx="18.534" ry="18.66"/>
		<path fill="#9B6730" d="M171.369,86.723c0,5.275-4.278,9.555-9.555,9.555c-5.276,0-9.554-4.279-9.554-9.555
			c0-5.278,4.278-9.555,9.554-9.555C167.091,77.168,171.369,81.444,171.369,86.723"/>
		<path fill="#31323C" d="M168.81,86.723c0,3.863-3.132,6.995-6.996,6.995c-3.863,0-6.996-3.132-6.996-6.995
			c0-3.864,3.132-6.996,6.996-6.996C165.678,79.727,168.81,82.858,168.81,86.723"/>
		<path fill="#FFFFFF" d="M168.352,80.434c0,1.407-1.143,2.548-2.55,2.548c-1.409,0-2.55-1.141-2.55-2.548
			c0-1.411,1.142-2.55,2.55-2.55C167.209,77.884,168.352,79.022,168.352,80.434"/>
		<rect x="-18.473" y="-46.5" fill="none" width="319.239" height="444.827"/>
		<rect x="-18.473" y="-46.5" fill="none" width="319.239" height="444.827"/>
	</g>
</g>
</svg>
