<?xml version="1.0" encoding="utf-8"?>
<!-- Generator: Adobe Illustrator 16.0.0, SVG Export Plug-In . SVG Version: 6.00 Build 0)  -->
<!DOCTYPE svg PUBLIC "-//W3C//DTD SVG 1.1//EN" "http://www.w3.org/Graphics/SVG/1.1/DTD/svg11.dtd">
<svg version="1.1" xmlns="http://www.w3.org/2000/svg" xmlns:xlink="http://www.w3.org/1999/xlink" x="0px" y="0px"
	 width="213.23px" height="252px" viewBox="0 0 213.23 252" enable-background="new 0 0 213.23 252" xml:space="preserve">
<g id="图层_2">
	<rect x="-14.385" y="-17" fill="#E7E7E7" width="242" height="286"/>
</g>
<g id="图层_3">
	<ellipse opacity="0.1" cx="108.615" cy="211" rx="54.5" ry="8"/>
</g>
<g id="图层_5">
	<g>
		<defs>
			<rect id="SVGID_1_" x="-14.409" y="4" width="247.257" height="247.257"/>
		</defs>
		<clipPath id="SVGID_2_">
			<use xlink:href="#SVGID_1_"  overflow="visible"/>
		</clipPath>
		<g clip-path="url(#SVGID_2_)">
			<defs>
				<rect id="SVGID_3_" x="-14.409" y="4" width="247.257" height="247.257"/>
			</defs>
			<clipPath id="SVGID_4_">
				<use xlink:href="#SVGID_3_"  overflow="visible"/>
			</clipPath>
			<path clip-path="url(#SVGID_4_)" fill="#E5C6DF" d="M115.759,135.165c0,0,9.582-4.912,22.111-4.668
				c12.528,0.247,17.088,14.242,33.41,4.668c13.939-8.177,3.686-25.06,3.686-25.06s7.118,4.455,10.563,13.023
				c4.22,10.49,3.803,26.438-13.512,33.655c-22.089,9.205-32.175-2.702-48.396-2.702c-7.96,0-14.495,1.72-14.495,1.72
				L115.759,135.165z"/>
		</g>
		<g clip-path="url(#SVGID_2_)">
			<defs>
				<path id="SVGID_5_" d="M171.28,135.165c-16.321,9.575-20.881-4.421-33.411-4.668c-12.528-0.244-22.109,4.668-22.109,4.668
					l-6.634,20.637c0,0,6.534-1.72,14.495-1.72c16.221,0,26.307,11.907,48.396,2.702c17.315-7.217,17.73-23.165,13.512-33.655
					c-3.446-8.568-10.564-13.023-10.564-13.023S185.219,126.988,171.28,135.165"/>
			</defs>
			<clipPath id="SVGID_6_">
				<use xlink:href="#SVGID_5_"  overflow="visible"/>
			</clipPath>
			<path clip-path="url(#SVGID_6_)" fill="#B75CA8" d="M163.766,111.892c0.558,0.172,0.903,0.75,1.535,1.744
				c1.208,1.898,2.183,3.93,3.298,5.88c1.308,2.285,3.038,5.095,5.474,6.298c0.427-0.683,0.999-1.55,1.971-1.388
				c5.146,0.854,1.348,8.875,0.413,11.501c-0.654,1.837,0.028,2.282,1.528,1.276c1.941-1.302,2.368-3.824,3.995-5.345
				c0.504,0.589,0.317,1.387,0.182,2.192c-0.143,0.856-0.285,1.751-0.03,2.581c0.471,1.54,1.861,0.813,3.09,0.117
				c0.897-0.509,2.583-3.182,3.547-3.548c0.345-0.131,1.335-2.506,1.591-2.24c0.253,0.263,16.241,1.383,16.143,1.734
				c-1.75,6.211-11.861,18.367-15.2,23.813c-3.371,5.499-2.076,5.912-7.878,9.175c-3.902,2.194,6.928-15.127,3.318-12.721
				c-10.641,7.094-11.147-6.588-16.721-5.067c-13.298,3.626,12.667,31.919-5.067,30.906c-17.733-1.014-78.027-33.44-63.333-47.628
				c14.693-14.186,20.773-17.733,31.92-14.691c7.876,2.147,17.015-0.461,24.527-2.924c1.347-0.441,2.679-0.918,4.008-1.411
				C162.866,111.855,163.369,111.77,163.766,111.892"/>
		</g>
		<g clip-path="url(#SVGID_2_)">
			<defs>
				<rect id="SVGID_7_" x="-14.409" y="4" width="247.257" height="247.257"/>
			</defs>
			<clipPath id="SVGID_8_">
				<use xlink:href="#SVGID_7_"  overflow="visible"/>
			</clipPath>
			<path clip-path="url(#SVGID_8_)" fill="none" stroke="#000000" stroke-width="0.5067" stroke-miterlimit="10" d="
				M115.759,135.165c0,0,9.582-4.912,22.111-4.668c12.528,0.247,17.088,14.242,33.41,4.668c13.939-8.177,3.686-25.06,3.686-25.06
				s7.118,4.455,10.563,13.023c4.22,10.49,3.803,26.438-13.512,33.655c-22.089,9.205-32.175-2.702-48.396-2.702
				c-7.96,0-14.495,1.72-14.495,1.72L115.759,135.165z"/>
		</g>
		<g clip-path="url(#SVGID_2_)">
			<defs>
				<rect id="SVGID_9_" x="-14.409" y="4" width="247.257" height="247.257"/>
			</defs>
			<clipPath id="SVGID_10_">
				<use xlink:href="#SVGID_9_"  overflow="visible"/>
			</clipPath>
			<path clip-path="url(#SVGID_10_)" fill="#E5C6DF" d="M119.151,51.517c0.7,0.25,1.399,0.503,2.098,0.761
				c0.779,0.165,1.52,0.434,2.18,0.824c4.09,1.588,8.071,3.434,11.566,6.124c1.726,1.006,3.313,2.205,4.634,3.596
				c0.489,0.049,0.92,0.219,1.24,0.602c-0.155-0.185-1.063-1.209-0.938-1.466c6.669-13.792,4.118-29.524,4.118-29.524
				c-8.878,1.351-15.987,9.119-15.987,9.119l-0.152-3.585l-4.331,7.69c-0.104-1.024-1.425-4.146-1.425-4.146
				s-0.657,4.189-0.877,5.766c-0.114,0.815-0.626,2.559-1.094,4.052c-0.538-0.111-1.088-0.214-1.646-0.311
				C118.729,51.052,118.938,51.243,119.151,51.517"/>
			<g opacity="0.15" clip-path="url(#SVGID_10_)">
				<g>
					<defs>
						<rect id="SVGID_11_" x="128.982" y="38.13" width="11.178" height="16.403"/>
					</defs>
					<clipPath id="SVGID_12_">
						<use xlink:href="#SVGID_11_"  overflow="visible"/>
					</clipPath>
					<path clip-path="url(#SVGID_12_)" d="M128.982,47.559c0,0,6.846-8.365,11.178-9.428c0,0-0.416,10.48-2.826,16.402
						C137.334,54.533,132.805,52.326,128.982,47.559"/>
				</g>
			</g>
			<path clip-path="url(#SVGID_10_)" fill="#E5C6DF" d="M97.806,51.517c-0.699,0.25-1.4,0.503-2.097,0.761
				c-0.779,0.164-1.521,0.434-2.181,0.823c-4.091,1.589-8.07,3.435-11.567,6.125c-1.726,1.006-3.313,2.205-4.633,3.596
				c-0.489,0.049-0.92,0.219-1.241,0.602c0.155-0.185,1.063-1.209,0.939-1.466c-6.669-13.792-4.119-29.524-4.119-29.524
				c8.878,1.351,15.988,9.119,15.988,9.119l0.152-3.585l4.331,7.69c0.104-1.024,1.425-4.146,1.425-4.146s0.657,4.189,0.877,5.766
				c0.115,0.815,0.626,2.559,1.094,4.052c0.538-0.111,1.088-0.214,1.646-0.311C98.229,51.052,98.019,51.243,97.806,51.517"/>
			<g opacity="0.15" clip-path="url(#SVGID_10_)">
				<g>
					<defs>
						<rect id="SVGID_13_" x="76.798" y="38.13" width="11.177" height="16.403"/>
					</defs>
					<clipPath id="SVGID_14_">
						<use xlink:href="#SVGID_13_"  overflow="visible"/>
					</clipPath>
					<path clip-path="url(#SVGID_14_)" d="M87.975,47.559c0,0-6.846-8.365-11.177-9.428c0,0,0.415,10.48,2.827,16.402
						C79.625,54.533,84.153,52.326,87.975,47.559"/>
				</g>
			</g>
		</g>
		<polygon clip-path="url(#SVGID_2_)" fill="#E5C6DF" points="108.788,211.482 108.788,211.482 99.259,211.482 118.316,211.482 		
			"/>
		<g clip-path="url(#SVGID_2_)">
			<defs>
				<rect id="SVGID_15_" x="-14.409" y="4" width="247.257" height="247.257"/>
			</defs>
			<clipPath id="SVGID_16_">
				<use xlink:href="#SVGID_15_"  overflow="visible"/>
			</clipPath>
			<path clip-path="url(#SVGID_16_)" fill="#E5C6DF" d="M143.724,202.504c0,0,8.745-8.9,14.537-20.435
				c9.093-18.109,13.312-41.175-17.701-35.516c1.579-6.273,2.966-12.176,3.289-17.82c0.507-6.08,0.96-7.661,1.014-10.577
				c2.025,0.177,3.98-0.317,5.799-1.227c-2.8-0.818-5.209-2.89-6.438-5.534c2.325,1.25,5.237,1.355,7.645,0.27
				c-3.189-2.458-4.835-2.724-6.926-6.165c4.333,2.732,9.876,3.459,14.768,1.938c-6.498-5.624-10.867-13.652-12.062-22.164
				c-1.45-10.329-1.24-19.399-9.201-27.359c-6.564-6.563-16.627-9.099-25.906-9.71c-2.297-2.292-4.64-7.675-1.819-10.433
				c-1.906,0.714-5.597,3.563-4.588,5.971c-0.438-0.569-0.876-1.135-1.315-1.704c-0.915,1.814-0.839,4.076-0.123,5.975
				c-9.273,0.613-19.118,3.341-25.678,9.901c-7.96,7.96-7.75,17.03-9.201,27.359c-1.195,8.512-5.564,16.54-12.062,22.164
				c4.891,1.521,10.435,0.795,14.769-1.938c-2.091,3.441-3.737,3.707-6.927,6.165c2.409,1.086,5.32,0.98,7.646-0.27
				c-1.229,2.645-3.638,4.716-6.438,5.534c1.819,0.909,3.773,1.403,5.799,1.227c0.054,2.916,0.506,4.497,1.014,10.577
				c0.323,5.645,1.71,11.547,3.288,17.82c-31.013-5.659-26.793,17.406-17.701,35.516c5.792,11.534,14.537,20.435,14.537,20.435
				c-4.425-1.685-13.382-0.542-14.696,4.537c-1.217,4.702,7.401,4.441,7.401,4.441H89.5h0.081c1.081,4.354,2.372,7.128,4.09,7.246
				c3.041,0.209,4.443-1.958,5.401-7.246h19.284c0.958,5.288,2.36,7.455,5.4,7.246c1.718-0.118,3.01-2.893,4.091-7.246h0.121h23.051
				c0,0,8.62,0.261,7.403-4.441C157.107,201.962,148.149,200.819,143.724,202.504"/>
		</g>
		<g clip-path="url(#SVGID_2_)">
			<defs>
				<rect id="SVGID_17_" x="-14.409" y="4" width="247.257" height="247.257"/>
			</defs>
			<clipPath id="SVGID_18_">
				<use xlink:href="#SVGID_17_"  overflow="visible"/>
			</clipPath>
			<path clip-path="url(#SVGID_18_)" fill="#F4E6DC" d="M115.807,189.442c-0.004-0.033-0.014-0.066-0.019-0.1
				c-0.015-3.205-0.295-6.403-0.465-9.604c-0.104-1.988-0.18-3.979-0.346-5.964c-0.086-1.028-0.151-2.047-0.184-3.079
				c-0.156-5-0.12-11.546-0.232-13.999c1.396-1.418,2.259-3.361,2.259-5.508c0-4.339-3.516-7.854-7.854-7.854
				s-7.853,3.516-7.853,7.854c0,1.959,0.722,3.748,1.911,5.124c0.077,0.737,0.124,1.426,0.116,1.716
				c-0.28,8.897-0.476,19.993-1.014,28.88c-0.085,1.416-2.026,23.813-2.533,24.319c0.001,0,18.253,0.128,18.24,0
				C117.194,204.832,116.681,196.186,115.807,189.442"/>
		</g>
		<g clip-path="url(#SVGID_2_)">
			<defs>
				<path id="SVGID_19_" d="M106.134,43.742l-1.314-1.703c-0.915,1.814-0.839,4.075-0.122,5.974
					c-9.274,0.613-19.119,3.341-25.679,9.901c-7.96,7.96-7.75,17.03-9.201,27.359c-1.195,8.512-5.564,16.539-12.062,22.164
					c4.891,1.521,10.434,0.795,14.768-1.938c-2.091,3.441-3.737,3.707-6.927,6.165c2.408,1.086,5.32,0.98,7.645-0.27
					c-1.229,2.645-3.638,4.716-6.438,5.534c1.819,0.91,3.774,1.403,5.799,1.227c0.054,2.916,0.506,4.497,1.014,10.577
					c0.323,5.645,1.71,11.547,3.287,17.82c-31.012-5.659-26.794,17.406-17.701,35.516c5.792,11.534,14.537,20.435,14.537,20.435
					c-4.424-1.685-13.381-0.542-14.695,4.537c-1.217,4.702,7.401,4.441,7.401,4.441h23.052h38.468h23.051
					c0,0,8.619,0.261,7.403-4.441c-1.315-5.079-10.272-6.222-14.697-4.537c0,0,8.745-8.9,14.537-20.435
					c9.093-18.11,13.312-41.175-17.701-35.516c1.578-6.273,2.966-12.176,3.289-17.82c0.507-6.08,0.96-7.661,1.014-10.577
					c2.025,0.177,3.98-0.316,5.799-1.227c-2.8-0.818-5.209-2.89-6.438-5.534c2.325,1.25,5.236,1.355,7.645,0.27
					c-3.188-2.458-4.835-2.724-6.926-6.165c4.333,2.732,9.876,3.459,14.769,1.938c-6.498-5.625-10.868-13.652-12.063-22.164
					c-1.45-10.329-1.239-19.399-9.201-27.359c-6.564-6.563-16.627-9.099-25.906-9.71c-2.297-2.292-4.639-7.675-1.819-10.433
					C108.815,38.485,105.126,41.336,106.134,43.742"/>
			</defs>
			<clipPath id="SVGID_20_">
				<use xlink:href="#SVGID_19_"  overflow="visible"/>
			</clipPath>
			<path clip-path="url(#SVGID_20_)" fill="#B75CA8" d="M243.995,115.468c-20.268-47.627-43.067-76.507-61.308-83.095
				c-11.801-4.261-21.478,14.592-26.431,28.436c-4.842-6.196-11.262-12.243-14.61-14.756c-6.08-4.558-21.787-26.853-32.933-22.291
				C97.567,28.32,101.113-9.166,95.54,4.506c-0.61,1.511,1.527,6.525,1.904,8.162c1.174,5.089,1.54,9.801,1.684,15.029
				c0.025,0.918,0.082,1.878,0.153,2.855C83.505,16.396,27.6-2.323,3.326,61.76c-25.334,66.881-81.575,120.083-14.694,174.804
				c66.881,54.722,250.803,61.813,272.59,14.187C283.009,203.122,264.261,163.096,243.995,115.468 M91.486,238.59
				c-26.854-11.653-80.054-26.347-62.827-35.975c8.345-4.663,9.008-21.971,17.226-26.852c5.551-3.3,13.68,8.611,25.059,3.99
				c5.491-2.232-1.015-12.042,2.479-15.454c1.057-1.031,3.63-3.762,1.342-5.764c-1.857-1.625-4.655-1.558-7.119-1.343
				c-10.35,0.554,14.212-15.377-9.602-11.832c-23.45,3.492-8.206,5.654-3.583-4.333c0.125-0.035,0.25-0.069,0.375-0.104
				c10.703-2.97,23.424,2.825,33.359-1.712c0.376-0.172,0.762-0.369,1.011-0.701c0.355-0.473,0.364-1.114,0.302-1.701
				c-0.274-2.628-1.701-5.115-3.831-6.68c-4.382-3.215-11-1.484-15.979-0.98c-3.328,0.335-1.077,4.591-4.4,4.591
				c-2.613,0-6.764,1.396-9.013-0.334c-0.687-0.527-1.137-1.298-1.572-2.046c-2.502-4.321-5.042-8.604-7.632-12.872
				c-0.532-0.877-7.961-13.8-8.291-13.66c2.159-0.918-0.246-5.194,1.519-6.08c6.575-3.302,21.325,7.438,24.321,0
				c1.689-4.193,16.855-1.879,16.563-6.169c-0.528-7.781,5.218-7.234,10.967-8.367c6.925-1.361,9.772-7.137,11.259-13.442
				c1.063-4.51,0.103-9.766,2.434-13.965c3.188-5.743,4.47,0.011,4.837,3.35c0.456,4.149,0.43,8.39,1.718,12.404
				c1.565,4.873,6.336,8.45,10.49,10.989c12.088,7.387,25.41,5.45,32.781-0.273c2.724,10.324,6.569,27.083,8.528,35.74
				c-0.43,0.128-0.855,0.268-1.278,0.424c-0.974,0.361-1.975,0.612-3.001,0.773c-2.459,0.394-4.865,1.021-7.265,1.657
				c-2.164,0.572-4.335,1.101-6.551,1.421c-2.094,0.304-4.174,0.65-6.204,1.259c-0.594,0.179-1.201,0.316-1.802,0.467
				c-1.125,0.283-2.242,0.59-3.309,1.052c-0.872,0.379-1.746,0.755-2.617,1.135c-1.464,0.638-2.71,1.574-3.783,2.745
				c-0.224,0.241-0.443,0.485-0.551,0.812c-0.178,0.525,0.138,1.027,0.692,1.056c0.455,0.024,0.917-0.024,1.364,0.044
				c1.115,0.161,2.22,0.193,3.344,0.082c1.028-0.103,2.067-0.115,3.103-0.12c1.495-0.008,2.98-0.113,4.463-0.279
				c1.525-0.169,3.038-0.402,4.547-0.678c1.918-0.345,3.868-0.456,5.814-0.553c2.495-0.124,4.944-0.514,7.357-1.134
				c1.89-0.485,3.771-1.012,5.585-1.723l-2.592,5.529c-2.274,0.646-4.589,1.131-6.896,1.649c-1.591,0.356-3.198,0.565-4.828,0.664
				c-3.37,0.211-6.734,0.48-10.103,0.693c-2.26,0.142-4.244,0.998-6.093,2.231c-1.224,0.817-2.137,1.914-2.792,3.227
				c-0.389,0.778-0.123,1.517,0.656,1.859c0.171,0.077,0.354,0.123,0.767,0.26c0.126,0.02,0.5,0.135,0.86,0.104
				c1.307-0.116,2.627-0.197,3.911-0.45c2.403-0.474,4.823-0.717,7.261-0.824c1.375-0.061,2.752-0.068,4.122-0.196
				c3.085-0.286,6.006-1.114,8.717-2.677c0.638-0.366,1.266-0.747,1.886-1.14c0,0-1.122,2.391-1.134,2.421
				c-2.782,5.934-11.344-0.274-15.508,3.841c-3,2.964-1.433,7.639-0.887,11.188c0.426,2.769-2.742,5.938,0.668,7.931
				c1.447,0.843,3.213,0.832,4.882,0.967c7.071,0.57,13.38-2.142,14.606,10.565c0.493,5.104,4.06,9.41,6.179,14.08
				c-0.994-0.87-2.46-0.863-3.778-0.767c-9.768,0.711-25.392,3.099-28.186,14.518c-2.056,8.401,6.881,17.309,13.974,20.192
				C132.306,235.707,107.374,245.485,91.486,238.59 M159.877,135.459c0.01-0.052,0.019-0.148,0.031-0.148
				c0.092-0.002,0.185,0.016,0.278,0.025c-0.013,0.051-0.026,0.099-0.039,0.152C160.058,135.479,159.967,135.468,159.877,135.459"/>
		</g>
		<g clip-path="url(#SVGID_2_)">
			<defs>
				<rect id="SVGID_21_" x="-14.409" y="4" width="247.257" height="247.257"/>
			</defs>
			<clipPath id="SVGID_22_">
				<use xlink:href="#SVGID_21_"  overflow="visible"/>
			</clipPath>
			<path clip-path="url(#SVGID_22_)" fill="none" stroke="#000000" stroke-width="0.5067" stroke-miterlimit="10" d="
				M140.717,60.224c3.463-8.597,4.477-18.222,3.332-27.791c-6.056,0.927-11.836,4.695-15.987,9.119
				c-0.051-1.196-0.102-2.39-0.152-3.585c-1.443,2.563-2.888,5.126-4.332,7.689c-0.218-1.425-0.87-2.823-1.425-4.146
				c-0.42,2.686-0.681,5.43-1.435,8.045"/>
			<path clip-path="url(#SVGID_22_)" fill="none" stroke="#000000" stroke-width="0.5067" stroke-miterlimit="10" d="M76.54,60.494
				c-4.009-8.596-4.813-18.492-3.631-28.062c6.057,0.927,11.837,4.695,15.988,9.119c0.05-1.196,0.101-2.39,0.152-3.585
				c1.444,2.563,2.887,5.126,4.331,7.689c0.219-1.425,0.871-2.823,1.425-4.146c0.407,2.602,0.645,5.277,1.369,7.813"/>
			<polyline clip-path="url(#SVGID_22_)" fill="none" stroke="#000000" stroke-width="0.5067" stroke-miterlimit="10" points="
				99.259,211.482 108.788,211.482 118.317,211.482 			"/>
			<path clip-path="url(#SVGID_22_)" fill="none" stroke="#000000" stroke-width="0.5067" stroke-miterlimit="10" d="
				M140.887,146.628c-2.227,8.854-5.359,17.404-7.03,26.512c-3.547,19.34-4.774,45.224-10.102,45.589
				c-5.327,0.365-5.628-6.544-7.313-24.803c-1.686-18.259-1.686-38.203-1.686-38.203"/>
			<path clip-path="url(#SVGID_22_)" fill="none" stroke="#000000" stroke-width="0.5067" stroke-miterlimit="10" d="
				M102.669,155.723c0,0,0,19.944-1.686,38.203c-1.685,18.259-1.986,25.168-7.313,24.803c-5.326-0.365-6.554-26.249-10.102-45.589
				c-1.644-8.961-4.421-18.083-6.632-26.807"/>
			<path clip-path="url(#SVGID_22_)" d="M72.627,117.903c0.714,0.109,1.467,0.035,2.206-0.109c0.741-0.146,1.475-0.361,2.212-0.553
				c-0.712,0.271-1.415,0.567-2.15,0.797c-0.732,0.23-1.507,0.4-2.314,0.37c-0.141-0.004-0.25-0.123-0.245-0.263
				c0.005-0.141,0.123-0.25,0.262-0.244C72.608,117.901,72.619,117.902,72.627,117.903"/>
			<path clip-path="url(#SVGID_22_)" d="M144.885,118.408c-0.808,0.03-1.582-0.14-2.315-0.37c-0.735-0.23-1.438-0.525-2.15-0.797
				c0.737,0.191,1.472,0.407,2.213,0.553c0.738,0.145,1.491,0.219,2.205,0.109c0.139-0.021,0.268,0.075,0.29,0.213
				c0.021,0.139-0.074,0.269-0.213,0.29C144.905,118.407,144.895,118.408,144.885,118.408"/>
			
				<path clip-path="url(#SVGID_22_)" fill="none" stroke="#000000" stroke-width="0.5067" stroke-linecap="round" stroke-linejoin="round" stroke-miterlimit="10" d="
				M127.967,211.482h23.051c0,0,8.619,0.261,7.403-4.441c-1.315-5.079-10.272-6.222-14.697-4.537c0,0,8.746-8.9,14.537-20.435
				c9.093-18.11,13.312-41.175-17.701-35.516c1.578-6.273,2.966-12.176,3.289-17.82c0.507-6.08,0.96-7.661,1.014-10.577
				c2.025,0.177,3.98-0.316,5.799-1.227c-2.8-0.818-5.209-2.89-6.438-5.534c2.325,1.252,5.237,1.355,7.645,0.27
				c-3.189-2.458-4.835-2.724-6.926-6.165c4.333,2.732,9.876,3.459,14.768,1.938c-6.498-5.625-10.867-13.652-12.062-22.164
				c-1.45-10.329-1.24-19.399-9.201-27.359c-6.564-6.563-16.627-9.099-25.906-9.71c-2.297-2.292-4.64-7.675-1.819-10.433
				c-1.907,0.714-5.597,3.564-4.589,5.971l-1.315-1.704c-0.914,1.814-0.839,4.076-0.122,5.975
				c-9.274,0.613-19.119,3.341-25.679,9.901c-7.96,7.96-7.75,17.03-9.201,27.359c-1.195,8.512-5.564,16.539-12.062,22.164
				c4.891,1.521,10.434,0.795,14.768-1.938c-2.091,3.441-3.737,3.707-6.927,6.165c2.408,1.086,5.32,0.982,7.645-0.27
				c-1.229,2.645-3.638,4.716-6.438,5.534c1.819,0.91,3.773,1.403,5.799,1.227c0.054,2.916,0.506,4.497,1.014,10.577
				c0.323,5.645,1.71,11.547,3.288,17.82c-31.012-5.659-26.794,17.406-17.701,35.516c5.792,11.534,14.537,20.435,14.537,20.435
				c-4.424-1.685-13.381-0.542-14.695,4.537c-1.217,4.702,7.401,4.441,7.401,4.441h23.052"/>
			<g opacity="0.63" clip-path="url(#SVGID_22_)">
				<g>
					<defs>
						<rect id="SVGID_23_" x="83.533" y="115.68" width="13.396" height="6.744"/>
					</defs>
					<clipPath id="SVGID_24_">
						<use xlink:href="#SVGID_23_"  overflow="visible"/>
					</clipPath>
					<path clip-path="url(#SVGID_24_)" d="M83.837,115.68c-0.692,2.211,0.532,4.752,2.533,5.598l0.001,0.001l-0.301,0.393
						c-0.612-0.724-0.791-1.762-0.455-2.649l0.215-0.57l0.252,0.555c0.957,2.111,3.559,3.354,5.801,2.768l-0.024,0.482
						c-1.017-0.386-1.685-1.452-1.59-2.536l0-0.008l0.057-0.766l0.403,0.646c0.611,0.976,1.806,1.53,3,1.562
						c0.6,0.018,1.208-0.084,1.769-0.322c0.559-0.234,1.065-0.615,1.429-1.117c-0.328,0.524-0.815,0.95-1.375,1.232
						c-0.561,0.284-1.187,0.438-1.821,0.461c-0.634,0.022-1.28-0.084-1.877-0.334c-0.597-0.249-1.145-0.654-1.54-1.194l0.46-0.119
						l0,0.006c-0.083,0.837,0.473,1.726,1.263,2.015l0.759,0.279l-0.784,0.203c-1.248,0.324-2.585,0.143-3.729-0.404
						c-1.144-0.545-2.128-1.47-2.662-2.643l0.468-0.016c-0.27,0.703-0.122,1.569,0.368,2.143l0.899,1.053l-1.2-0.659l-0.003-0.002
						c-1.089-0.56-1.884-1.55-2.294-2.647C83.447,117.991,83.409,116.75,83.837,115.68"/>
				</g>
			</g>
			<g opacity="0.63" clip-path="url(#SVGID_22_)">
				<g>
					<defs>
						<rect id="SVGID_25_" x="120.578" y="115.68" width="13.396" height="6.744"/>
					</defs>
					<clipPath id="SVGID_26_">
						<use xlink:href="#SVGID_25_"  overflow="visible"/>
					</clipPath>
					<path clip-path="url(#SVGID_26_)" d="M133.67,115.68c0.428,1.07,0.389,2.312-0.023,3.408c-0.41,1.098-1.204,2.088-2.294,2.647
						l-0.002,0.002l-1.201,0.659l0.9-1.053c0.49-0.573,0.638-1.439,0.367-2.143l0.467,0.016c-0.533,1.173-1.517,2.098-2.662,2.643
						c-1.143,0.547-2.48,0.729-3.728,0.404l-0.785-0.203l0.759-0.279c0.789-0.289,1.345-1.178,1.262-2.015v-0.006l0.46,0.119
						c-0.395,0.54-0.943,0.945-1.54,1.194c-0.598,0.25-1.242,0.356-1.876,0.334c-0.634-0.023-1.261-0.177-1.821-0.461
						c-0.56-0.282-1.048-0.708-1.376-1.232c0.364,0.502,0.871,0.883,1.43,1.117c0.56,0.238,1.169,0.34,1.769,0.322
						c1.193-0.031,2.389-0.586,2.999-1.562l0.404-0.646l0.056,0.766l0,0.008c0.096,1.084-0.572,2.15-1.589,2.536l-0.025-0.482
						c2.243,0.586,4.844-0.656,5.801-2.768l0.252-0.555l0.215,0.57c0.335,0.888,0.157,1.926-0.455,2.649l-0.3-0.393l0.001-0.001
						C133.138,120.432,134.361,117.891,133.67,115.68"/>
				</g>
			</g>
		</g>
		<g clip-path="url(#SVGID_2_)">
			<defs>
				<path id="SVGID_27_" d="M79.019,58.169c-7.96,7.959-7.75,17.028-9.201,27.356c-1.195,8.513-5.564,16.542-12.062,22.165
					c4.891,1.523,10.434,0.794,14.768-1.937c-2.091,3.441-3.737,3.706-6.927,6.165c2.408,1.085,5.32,0.982,7.645-0.271
					c-1.229,2.646-3.638,4.717-6.438,5.536c1.819,0.91,3.774,1.403,5.799,1.226c0.054,2.916,0.506,4.496,1.014,10.577
					c0.323,5.646,1.71,11.547,3.287,17.821c-31.012-5.661-26.793,17.406-17.701,35.516c5.792,11.535,14.537,20.436,14.537,20.436
					c-4.424-1.687-13.381-0.543-14.695,4.537c-1.217,4.7,7.401,4.44,7.401,4.44h23.052h0.081c1.081,4.352,2.372,7.128,4.09,7.246
					c3.04,0.208,4.443-1.959,5.4-7.246h19.285c0.958,5.287,2.361,7.454,5.4,7.246c1.718-0.118,3.009-2.895,4.091-7.246h0.121h23.051
					c0,0,8.619,0.26,7.403-4.44c-1.315-5.08-10.272-6.224-14.697-4.537c0,0,8.745-8.9,14.537-20.436
					c9.093-18.109,13.312-41.177-17.701-35.516c1.578-6.274,2.966-12.176,3.289-17.821c0.507-6.081,0.96-7.661,1.014-10.577
					c2.025,0.178,3.98-0.315,5.799-1.226c-2.8-0.819-5.209-2.89-6.438-5.536c2.325,1.254,5.236,1.356,7.645,0.271
					c-3.188-2.459-4.835-2.724-6.926-6.165c4.333,2.73,9.876,3.46,14.769,1.937c-6.498-5.623-10.868-13.652-12.063-22.165
					c-1.45-10.328-1.239-19.397-9.201-27.356c-7.487-7.488-19.465-9.902-29.714-9.984C98.483,48.267,86.505,50.681,79.019,58.169"/>
			</defs>
			<clipPath id="SVGID_28_">
				<use xlink:href="#SVGID_27_"  overflow="visible"/>
			</clipPath>
			<g opacity="0.05" clip-path="url(#SVGID_28_)">
				<g>
					<defs>
						<rect id="SVGID_29_" x="37.525" y="37.156" width="142.375" height="201.559"/>
					</defs>
					<clipPath id="SVGID_30_">
						<use xlink:href="#SVGID_29_"  overflow="visible"/>
					</clipPath>
					<path clip-path="url(#SVGID_30_)" d="M98.58,42.507c0,0-36.988,19.761-18.24,106.907c0,0-49.401-10.892-2.533,54.216
						c0,0-24.647,2.458-12.667,11.146c33.188,24.067,91.455-1.267,91.455-1.267s7.093-9.626-16.214-9.626
						c0,0,46.108-61.814-3.04-53.708c0,0,20.267-86.642-15.201-104.882c-8.271-4.254,33.44-3.04,33.44-3.04l24.32,146.429
						l-6.586,36.988c0,0-121.602,19.759-123.628,10.64c-2.027-9.121-12.161-48.642-12.161-48.642s11.147-89.175,10.641-93.734
						c-0.507-4.56,9.626-56.24,10.64-56.748C59.819,36.681,98.58,42.507,98.58,42.507"/>
				</g>
			</g>
		</g>
		<g clip-path="url(#SVGID_2_)">
			<defs>
				<rect id="SVGID_31_" x="-14.409" y="4" width="247.257" height="247.257"/>
			</defs>
			<clipPath id="SVGID_32_">
				<use xlink:href="#SVGID_31_"  overflow="visible"/>
			</clipPath>
			<path clip-path="url(#SVGID_32_)" fill="#E0605C" d="M108.436,100.268c-2.995,0-3.351-4.154-3.267-6.853l0.841-0.585
				c1.268,1.181,1.949,0.135,2.426-1.678c0.482,1.713,1.197,2.646,2.466,1.722l0.801,0.557
				C111.784,96.131,111.423,100.268,108.436,100.268"/>
			<path clip-path="url(#SVGID_32_)" fill="#393C3D" d="M113.681,94.355c-0.142,0-0.279-0.018-0.411-0.054
				c-0.334-0.092-0.56-0.28-0.702-0.447c-0.449,0.141-0.8,0.065-1.031-0.035c-0.292-0.13-0.51-0.343-0.668-0.563
				c-0.267,0.297-0.672,0.504-1.226,0.421c-1.27-0.194-1.533-3.557-1.587-4.993c-0.009-0.208,0.154-0.384,0.363-0.393
				c0.207-0.004,0.384,0.155,0.392,0.363c0.08,2.137,0.541,4.216,0.946,4.275c0.568,0.087,0.715-0.418,0.747-0.573l0.004-0.019
				c0.078-0.382,0.618-0.404,0.725-0.028l0.004,0.015c0.051,0.171,0.259,0.652,0.606,0.804c0.195,0.086,0.424,0.062,0.699-0.075
				l0.003-0.003c0.193-0.097,0.428-0.011,0.512,0.188l0.001,0.005c0.002,0.004,0.121,0.256,0.421,0.333
				c0.372,0.097,0.895-0.094,1.514-0.546c0.158-0.115,0.384-0.104,0.515,0.04c0.153,0.168,0.124,0.427-0.054,0.558
				C114.799,94.112,114.205,94.355,113.681,94.355"/>
			<path clip-path="url(#SVGID_32_)" fill="#393C3D" d="M103.188,94.355c-0.519,0-1.109-0.239-1.761-0.716
				c-0.158-0.116-0.215-0.339-0.115-0.507c0.117-0.195,0.371-0.244,0.549-0.111c0.625,0.46,1.153,0.652,1.527,0.555
				c0.3-0.077,0.419-0.329,0.424-0.34l0.001-0.003c0.089-0.192,0.318-0.275,0.509-0.183l0.004,0.002
				c0.276,0.137,0.505,0.161,0.701,0.075c0.35-0.154,0.558-0.645,0.604-0.804l0.004-0.016c0.108-0.379,0.653-0.353,0.726,0.033
				l0.003,0.017c0.031,0.154,0.181,0.66,0.747,0.571c0.406-0.06,0.866-2.139,0.946-4.275c0.008-0.208,0.186-0.368,0.391-0.363
				c0.208,0.009,0.371,0.185,0.363,0.393c-0.054,1.437-0.316,4.799-1.587,4.993c-0.554,0.083-0.959-0.124-1.226-0.42
				c-0.159,0.22-0.376,0.433-0.667,0.563c-0.23,0.101-0.582,0.176-1.031,0.035c-0.143,0.167-0.367,0.355-0.702,0.447
				C103.467,94.338,103.33,94.355,103.188,94.355"/>
		</g>
		<g clip-path="url(#SVGID_2_)">
			<defs>
				<rect id="SVGID_33_" x="-14.409" y="4" width="247.257" height="247.257"/>
			</defs>
			<clipPath id="SVGID_34_">
				<use xlink:href="#SVGID_33_"  overflow="visible"/>
			</clipPath>
			<g opacity="0.1" clip-path="url(#SVGID_34_)">
				<g>
					<defs>
						<rect id="SVGID_35_" x="147.952" y="71.468" width="0.549" height="0.559"/>
					</defs>
					<clipPath id="SVGID_36_">
						<use xlink:href="#SVGID_35_"  overflow="visible"/>
					</clipPath>
					<path clip-path="url(#SVGID_36_)" fill="#A5A5A5" d="M147.952,71.468c0.013,0.184,0.042,0.37,0.083,0.559
						c0.168-0.025,0.329-0.059,0.466-0.107C148.501,71.919,148.288,71.756,147.952,71.468"/>
				</g>
			</g>
		</g>
		<polygon clip-path="url(#SVGID_2_)" fill="#E5C6DF" points="108.788,211.482 108.788,211.482 99.259,211.482 118.316,211.482 		
			"/>
		<g clip-path="url(#SVGID_2_)">
			<defs>
				<rect id="SVGID_37_" x="-14.409" y="4" width="247.257" height="247.257"/>
			</defs>
			<clipPath id="SVGID_38_">
				<use xlink:href="#SVGID_37_"  overflow="visible"/>
			</clipPath>
			<path clip-path="url(#SVGID_38_)" fill="#393C3D" d="M116.492,81.333c0,2.76-3.519,8.316-8.211,8.316s-8.211-5.557-8.211-8.316
				c0-2.761,3.518-4.142,8.211-4.142S116.492,78.572,116.492,81.333"/>
		</g>
		<g clip-path="url(#SVGID_2_)">
			<defs>
				<path id="SVGID_39_" d="M100.069,81.333c0,2.76,3.519,8.316,8.212,8.316c4.693,0,8.211-5.557,8.211-8.316
					c0-2.761-3.518-4.142-8.211-4.142C103.588,77.191,100.069,78.572,100.069,81.333"/>
			</defs>
			<clipPath id="SVGID_40_">
				<use xlink:href="#SVGID_39_"  overflow="visible"/>
			</clipPath>
			<g opacity="0.55" clip-path="url(#SVGID_40_)">
				<g>
					<defs>
						<rect id="SVGID_41_" x="97.755" y="77.589" width="20.492" height="15.492"/>
					</defs>
					<clipPath id="SVGID_42_">
						<use xlink:href="#SVGID_41_"  overflow="visible"/>
					</clipPath>
					<path clip-path="url(#SVGID_42_)" fill="#1B1D1E" d="M99.512,79.824c0,2.644,1.952,5.058,3.885,6.664
						c2.964,2.465,6.429,2.457,9.682,0.491c2.86-1.73,3.997-4.801,3.997-8.033c0-6.148,2.634,10.537,0,11.415
						c-2.635,0.879-13.173,4.392-14.929,1.757s-4.392-7.025-4.392-7.025L99.512,79.824z"/>
				</g>
			</g>
		</g>
		<g clip-path="url(#SVGID_2_)">
			<defs>
				<rect id="SVGID_43_" x="-14.409" y="4" width="247.257" height="247.257"/>
			</defs>
			<clipPath id="SVGID_44_">
				<use xlink:href="#SVGID_43_"  overflow="visible"/>
			</clipPath>
			<path clip-path="url(#SVGID_44_)" fill="#FFFFFF" d="M88.259,59.735c-6.445,0-11.668,5.223-11.668,11.667
				c0,6.445,5.224,11.67,11.668,11.67s11.669-5.225,11.669-11.67C99.928,64.958,94.704,59.735,88.259,59.735"/>
			
				<circle clip-path="url(#SVGID_44_)" fill="none" stroke="#000000" stroke-width="0.5067" stroke-linecap="round" stroke-linejoin="round" cx="88.259" cy="71.404" r="11.668"/>
			<path clip-path="url(#SVGID_44_)" fill="#C74383" d="M94.427,71.095c0,3.299-2.674,5.974-5.975,5.974
				c-3.3,0-5.974-2.675-5.974-5.974c0-3.301,2.674-5.975,5.974-5.975C91.752,65.12,94.427,67.794,94.427,71.095"/>
			<path clip-path="url(#SVGID_44_)" fill="#31323C" d="M92.827,71.095c0,2.416-1.958,4.374-4.375,4.374s-4.375-1.958-4.375-4.374
				s1.958-4.375,4.375-4.375S92.827,68.679,92.827,71.095"/>
			<path clip-path="url(#SVGID_44_)" fill="#FFFFFF" d="M92.54,67.161c0,0.88-0.713,1.595-1.594,1.595
				c-0.882,0-1.595-0.715-1.595-1.595c0-0.881,0.713-1.595,1.595-1.595C91.827,65.566,92.54,66.28,92.54,67.161"/>
			<path clip-path="url(#SVGID_44_)" fill="#FFFFFF" d="M87.98,73.439c0,0.433-0.349,0.781-0.78,0.781
				c-0.431,0-0.78-0.349-0.78-0.781c0-0.431,0.349-0.78,0.78-0.78C87.631,72.659,87.98,73.009,87.98,73.439"/>
			<path clip-path="url(#SVGID_44_)" fill="#FFFFFF" d="M128.793,59.735c-6.444,0-11.669,5.223-11.669,11.667
				c0,6.445,5.225,11.67,11.669,11.67s11.668-5.225,11.668-11.67C140.461,64.958,135.237,59.735,128.793,59.735"/>
			
				<circle clip-path="url(#SVGID_44_)" fill="none" stroke="#000000" stroke-width="0.5067" stroke-linecap="round" stroke-linejoin="round" cx="128.793" cy="71.404" r="11.668"/>
			<path clip-path="url(#SVGID_44_)" fill="#C74383" d="M134.961,71.602c0,3.298-2.675,5.974-5.976,5.974
				c-3.299,0-5.974-2.676-5.974-5.974c0-3.301,2.675-5.975,5.974-5.975C132.286,65.627,134.961,68.301,134.961,71.602"/>
			<path clip-path="url(#SVGID_44_)" fill="#31323C" d="M133.361,71.602c0,2.416-1.959,4.374-4.376,4.374
				c-2.415,0-4.374-1.958-4.374-4.374s1.959-4.375,4.374-4.375C131.402,67.227,133.361,69.186,133.361,71.602"/>
			<path clip-path="url(#SVGID_44_)" fill="#FFFFFF" d="M133.074,67.669c0,0.879-0.714,1.594-1.594,1.594
				c-0.881,0-1.596-0.715-1.596-1.594c0-0.882,0.714-1.596,1.596-1.596C132.36,66.073,133.074,66.787,133.074,67.669"/>
			<path clip-path="url(#SVGID_44_)" fill="#FFFFFF" d="M128.514,73.946c0,0.432-0.349,0.78-0.78,0.78
				c-0.431,0-0.78-0.349-0.78-0.78c0-0.431,0.349-0.78,0.78-0.78C128.165,73.166,128.514,73.516,128.514,73.946"/>
			<path clip-path="url(#SVGID_44_)" fill-rule="evenodd" clip-rule="evenodd" fill="#E8C5AE" d="M-4.214,96.179
				c-0.004,0.034,0.001,0.089-0.018,0.099c-0.034,0.02-0.089,0.03-0.124,0.015c-0.13-0.057-0.123-0.114,0.02-0.146
				C-4.299,96.141-4.255,96.166-4.214,96.179"/>
			<path clip-path="url(#SVGID_44_)" d="M144.885,118.408c-0.808,0.03-1.582-0.14-2.315-0.37c-0.735-0.23-1.438-0.525-2.15-0.797
				c0.737,0.191,1.472,0.407,2.213,0.553c0.738,0.145,1.491,0.219,2.205,0.109c0.139-0.021,0.268,0.075,0.29,0.213
				c0.021,0.139-0.074,0.269-0.213,0.29C144.905,118.407,144.895,118.408,144.885,118.408"/>
		</g>
	</g>
</g>
</svg>
