<?xml version="1.0" encoding="utf-8"?>
<!-- Generator: Adobe Illustrator 16.0.0, SVG Export Plug-In . SVG Version: 6.00 Build 0)  -->
<!DOCTYPE svg PUBLIC "-//W3C//DTD SVG 1.1//EN" "http://www.w3.org/Graphics/SVG/1.1/DTD/svg11.dtd">
<svg version="1.1" xmlns="http://www.w3.org/2000/svg" xmlns:xlink="http://www.w3.org/1999/xlink" x="0px" y="0px" width="242px"
	 height="286px" viewBox="0 0 242 286" enable-background="new 0 0 242 286" xml:space="preserve">
<g id="图层_2">
	<rect fill="#FFF2C2" width="242" height="286"/>
</g>
<g id="图层_3">
	<ellipse opacity="0.1" cx="121" cy="234" rx="54.5" ry="8"/>
</g>
<g id="图层_7">
	<g>
		<rect x="15.384" y="4.778" fill="none" width="215.624" height="278.222"/>
		<g>
			<defs>
				<rect id="SVGID_1_" x="15.384" y="4.778" width="215.624" height="278.222"/>
			</defs>
			<clipPath id="SVGID_2_">
				<use xlink:href="#SVGID_1_"  overflow="visible"/>
			</clipPath>
			<path clip-path="url(#SVGID_2_)" fill="#FFFFFF" d="M172.368,179.22c0,0,13.192,1.19,14.474-5.953
				c1.284-7.146-8.336-12.827-6.687-25.928c1.649-13.101,12.141-20.488,15.116-16.949c3.39,4.031-6.316,8.888-6.596,17.407
				c-0.367,11.177,6.504,17.406,5.954,24.278c-0.563,7.045-6.229,15.665-23.453,14.106L172.368,179.22z"/>
		</g>
		<g>
			<defs>
				<rect id="SVGID_3_" x="15.384" y="4.778" width="215.624" height="278.222"/>
			</defs>
			<clipPath id="SVGID_4_">
				<use xlink:href="#SVGID_3_"  overflow="visible"/>
			</clipPath>
			<path clip-path="url(#SVGID_4_)" fill="none" stroke="#000000" stroke-width="0.5077" stroke-miterlimit="10" d="M172.368,179.22
				c0,0,13.192,1.19,14.474-5.953c1.284-7.146-8.336-12.827-6.687-25.928c1.649-13.101,12.141-20.488,15.116-16.949
				c3.39,4.031-6.316,8.888-6.596,17.407c-0.367,11.177,6.504,17.406,5.954,24.278c-0.563,7.045-6.229,15.665-23.453,14.106
				L172.368,179.22z"/>
		</g>
		<g>
			<defs>
				<rect id="SVGID_5_" x="15.384" y="4.778" width="215.624" height="278.222"/>
			</defs>
			<clipPath id="SVGID_6_">
				<use xlink:href="#SVGID_5_"  overflow="visible"/>
			</clipPath>
			<path clip-path="url(#SVGID_6_)" fill="#E6E6E6" d="M77.178,76.056c0,0,14.315,0.668,18.194,4.281
				c3.881,3.611,6.021-8.028,6.021-8.028S93.366,60.002,77.178,76.056"/>
			<path clip-path="url(#SVGID_6_)" fill="#FF8F9B" d="M78.951,74.814c0,0,14.314,0.668,18.195,4.28
				c3.879,3.614,6.019-8.026,6.019-8.026S95.138,58.76,78.951,74.814"/>
			<path clip-path="url(#SVGID_6_)" fill="#E6E6E6" d="M164.687,76.056c0,0-14.314,0.668-18.194,4.281
				c-3.878,3.611-6.02-8.028-6.02-8.028S148.501,60.002,164.687,76.056"/>
			<path clip-path="url(#SVGID_6_)" fill="#FF8F9B" d="M162.914,74.814c0,0-14.313,0.668-18.194,4.28
				c-3.879,3.614-6.02-8.026-6.02-8.026S146.729,58.76,162.914,74.814"/>
			<path clip-path="url(#SVGID_6_)" fill="#FFFFFF" d="M135.072,69.33c0,0,7.108-11.64,16.337-10.035
				c9.23,1.605,24.082,16.188,19.399,18.731c-4.683,2.54-25.552-9.441-25.552-9.441l-5.352,5.828"/>
			<path clip-path="url(#SVGID_6_)" fill="#FFFFFF" d="M106.795,69.33c0,0-7.108-11.64-16.338-10.035
				C81.226,60.9,66.376,75.482,71.059,78.026c4.682,2.54,25.552-9.441,25.552-9.441l5.352,5.828"/>
			<path clip-path="url(#SVGID_6_)" fill="none" stroke="#000000" stroke-width="0.5077" stroke-miterlimit="10" d="M151.409,59.296
				c-9.23-1.605-16.338,10.034-16.338,10.034l4.301,4.521c0.715,2.506,1.995,5.804,3.778,5.927c0.903,1.246,2.022,1.789,3.343,0.557
				c2.643-2.459,10.123-3.552,14.627-4c4.178,1.627,7.993,2.609,9.688,1.691C175.49,75.482,160.64,60.903,151.409,59.296z"/>
			<path clip-path="url(#SVGID_6_)" fill="none" stroke="#000000" stroke-width="0.5077" stroke-miterlimit="10" d="M90.457,59.296
				c-9.231,1.607-24.081,16.187-19.398,18.73c1.694,0.918,5.509-0.064,9.688-1.691c4.504,0.448,11.985,1.541,14.627,4
				c1.321,1.232,2.442,0.689,3.343-0.557c1.783-0.123,3.062-3.421,3.779-5.927l4.3-4.521C106.795,69.33,99.687,57.69,90.457,59.296z
				"/>
		</g>
		<g>
			<defs>
				<rect id="SVGID_7_" x="15.384" y="4.778" width="215.624" height="278.222"/>
			</defs>
			<clipPath id="SVGID_8_">
				<use xlink:href="#SVGID_7_"  overflow="visible"/>
			</clipPath>
			<path clip-path="url(#SVGID_8_)" fill="#C6C1BA" d="M113.736,179.408v-10.789H93.558c-1.821-0.434-3.534-0.772-5.15-1.035
				c0.721,2.883,1.51,5.825,2.315,8.816c1.669,6.204,3.394,12.617,4.543,18.879c1.055,5.756,1.903,12.078,2.723,18.191
				c1.089,8.12,2.009,14.642,3.101,19.383h12.07c0.562-3.442,0.98-8.016,1.505-13.783c0.089-0.983,0.183-2.003,0.28-3.061
				c1.383-14.992,1.637-31.287,1.683-36.602H113.736z"/>
			<path clip-path="url(#SVGID_8_)" fill="#C6C1BA" d="M149.58,168.619h-20.179v10.789h-2.891
				c0.045,5.314,0.299,21.609,1.683,36.602c0.098,1.056,0.191,2.073,0.281,3.054c0.525,5.771,0.943,10.345,1.505,13.79h12.068
				c1.093-4.741,2.014-11.263,3.103-19.386c0.819-6.11,1.667-12.433,2.723-18.188c1.148-6.262,2.874-12.675,4.542-18.879
				c0.806-2.992,1.597-5.934,2.315-8.816C153.113,167.847,151.402,168.187,149.58,168.619"/>
			<path clip-path="url(#SVGID_8_)" fill="#FFFFFF" d="M157.195,223.741c0,0,8.762-8.918,14.565-20.479
				c9.111-18.145,13.338-41.258-17.737-35.586c1.581-6.287,5.634-28.822,5.822-33.607c0.034-0.858,0.086-2.018,0.136-3.387
				c5.497-4.147,8.729-9.222,8.729-14.702c0-4.256-1.951-7.364-5.393-9.632c0.206-1.544,0.315-3.114,0.315-4.711
				c0-21.373-18.935-38.699-42.293-38.699c-23.357,0-42.292,17.326-42.292,38.699c0,1.672,0.116,3.316,0.341,4.932
				c-3.241,2.247-5.066,5.292-5.066,9.411c0,5.853,3.688,11.241,9.88,15.535c0.04,1.008,0.08,1.874,0.105,2.554
				c0.188,4.785,4.241,27.32,5.821,33.607c-31.076-5.672-26.848,17.441-17.737,35.586c5.804,11.561,14.566,20.479,14.566,20.479
				c-4.433-1.69-13.409-0.544-14.726,4.545c-1.219,4.713,7.417,4.452,7.417,4.452h23.1c1.113,4.729,2.449,7.78,4.253,7.904
				c3.168,0.217,4.562-2.133,5.525-7.904h9.549h9.547c0.963,5.771,2.357,8.121,5.525,7.904c1.806-0.124,3.14-3.176,4.254-7.904h23.1
				c0,0,8.636,0.261,7.417-4.452C170.604,223.197,161.628,222.051,157.195,223.741"/>
			<path clip-path="url(#SVGID_8_)" fill="none" stroke="#000000" stroke-width="0.5077" stroke-miterlimit="10" d="
				M154.241,168.004c-2.23,8.873-5.368,17.439-7.043,26.566c-3.555,19.379-4.785,45.317-10.122,45.682
				c-5.338,0.365-5.639-6.559-7.328-24.853c-1.69-18.297-1.69-38.28-1.69-38.28"/>
			<path clip-path="url(#SVGID_8_)" fill="none" stroke="#000000" stroke-width="0.5077" stroke-miterlimit="10" d="
				M115.946,177.119c0,0,0,19.982-1.69,38.28c-1.688,18.294-1.99,25.218-7.328,24.853c-5.338-0.364-6.568-26.303-10.123-45.682
				c-1.648-8.979-4.431-18.119-6.646-26.861"/>
			<polyline clip-path="url(#SVGID_8_)" fill="none" stroke="#000000" stroke-width="0.5077" stroke-miterlimit="10" points="
				112.528,232.992 122.077,232.992 131.625,232.992 			"/>
			<path clip-path="url(#SVGID_8_)" fill="#F2F2F2" d="M168.71,115.98c0,14.012-21.13,25.37-47.195,25.37
				c-26.064,0-47.194-11.358-47.194-25.37c0-14.013,21.13-15.608,47.194-15.608C147.581,100.372,168.71,101.968,168.71,115.98"/>
			
				<path clip-path="url(#SVGID_8_)" fill="none" stroke="#1A1A1A" stroke-width="0.592" stroke-linecap="round" stroke-miterlimit="10" d="
				M121.749,109.111v8.42c0,0-0.689,4.449-8.653,2.484"/>
			
				<path clip-path="url(#SVGID_8_)" fill="none" stroke="#1A1A1A" stroke-width="0.592" stroke-linecap="round" stroke-miterlimit="10" d="
				M121.749,109.111v8.42c0,0,0.688,4.449,8.651,2.484"/>
			<path clip-path="url(#SVGID_8_)" fill="#1A1A1A" d="M127.991,107.823c0,1.901-2.795,6.019-6.243,6.019s-6.244-4.117-6.244-6.019
				s2.796-3.442,6.244-3.442S127.991,105.922,127.991,107.823"/>
			<path clip-path="url(#SVGID_8_)" fill="none" stroke="#000000" stroke-width="0.5077" stroke-miterlimit="10" d="
				M141.404,232.992h23.099c0,0,8.637,0.259,7.417-4.452c-1.316-5.088-10.292-6.233-14.726-4.544c0,0,8.762-8.919,14.565-20.479
				c9.111-18.146,13.338-41.259-17.737-35.587c1.581-6.287,5.634-28.823,5.822-33.608c0.034-0.857,0.086-2.016,0.136-3.385
				c5.497-4.147,8.729-9.224,8.729-14.704c0-4.254-1.951-7.362-5.393-9.631c0.206-1.543,0.315-3.116,0.315-4.712
				c0-21.372-18.935-38.698-42.293-38.698c-23.357,0-42.292,17.326-42.292,38.698c0,1.672,0.116,3.317,0.341,4.933
				c-3.241,2.247-5.066,5.291-5.066,9.41c0,5.854,3.688,11.242,9.88,15.534c0.04,1.009,0.079,1.875,0.105,2.555
				c0.188,4.785,4.241,27.321,5.821,33.608c-31.076-5.672-26.847,17.441-17.737,35.587c5.804,11.56,14.566,20.479,14.566,20.479
				c-4.433-1.689-13.409-0.544-14.726,4.544c-1.219,4.711,7.417,4.452,7.417,4.452h23.099"/>
		</g>
		<g>
			<defs>
				<rect id="SVGID_9_" x="15.384" y="4.778" width="215.624" height="278.222"/>
			</defs>
			<clipPath id="SVGID_10_">
				<use xlink:href="#SVGID_9_"  overflow="visible"/>
			</clipPath>
			<path clip-path="url(#SVGID_10_)" fill="#1A1A1A" d="M107.734,92.761c0,1.627-1.319,2.948-2.947,2.948
				c-1.628,0-2.948-1.321-2.948-2.948c0-1.629,1.319-2.948,2.948-2.948C106.415,89.813,107.734,91.132,107.734,92.761"/>
			<path clip-path="url(#SVGID_10_)" fill="#F2F2F2" d="M106.57,91.748c0,0.327-0.267,0.594-0.595,0.594
				c-0.327,0-0.594-0.267-0.594-0.594c0-0.328,0.267-0.596,0.594-0.596C106.304,91.152,106.57,91.42,106.57,91.748"/>
			<path clip-path="url(#SVGID_10_)" fill="#1A1A1A" d="M141.657,92.761c0,1.627-1.321,2.948-2.949,2.948
				c-1.627,0-2.946-1.321-2.946-2.948c0-1.629,1.319-2.948,2.946-2.948C140.336,89.813,141.657,91.132,141.657,92.761"/>
			<path clip-path="url(#SVGID_10_)" fill="#F2F2F2" d="M140.583,91.748c0,0.327-0.267,0.594-0.595,0.594s-0.594-0.267-0.594-0.594
				c0-0.328,0.266-0.596,0.594-0.596S140.583,91.42,140.583,91.748"/>
		</g>
		<rect x="15.384" y="4.778" fill="none" width="215.624" height="278.222"/>
	</g>
</g>
</svg>
