<?xml version="1.0" encoding="utf-8"?>
<!-- Generator: Adobe Illustrator 16.0.0, SVG Export Plug-In . SVG Version: 6.00 Build 0)  -->
<!DOCTYPE svg PUBLIC "-//W3C//DTD SVG 1.1//EN" "http://www.w3.org/Graphics/SVG/1.1/DTD/svg11.dtd">
<svg version="1.1" xmlns="http://www.w3.org/2000/svg" xmlns:xlink="http://www.w3.org/1999/xlink" x="0px" y="0px" width="200px"
	 height="200px" viewBox="0 0 200 200" enable-background="new 0 0 200 200" xml:space="preserve">
<g id="图层_2">
	<rect x="-43" y="-43" fill="#E3F1F5" width="286" height="286"/>
</g>
<g id="图层_3">
	<path fill-rule="evenodd" clip-rule="evenodd" fill="#E8C5AE" d="M-97.042,99.618c-0.008,0.061,0.002,0.155-0.03,0.174
		c-0.059,0.033-0.156,0.051-0.215,0.026c-0.227-0.1-0.213-0.201,0.035-0.253C-97.189,99.554-97.113,99.6-97.042,99.618"/>
	<g>
		<g>
			<defs>
				<rect id="SVGID_1_" x="-63.25" y="-21.17" width="326.5" height="326.5"/>
			</defs>
			<clipPath id="SVGID_2_">
				<use xlink:href="#SVGID_1_"  overflow="visible"/>
			</clipPath>
			<path clip-path="url(#SVGID_2_)" fill="#77A7CA" d="M125.857,159.875c0,0,2.623-6.252,10.516-8.109
				c7.893-1.858,25.542-2.267,38.153-13.67c12.611-11.402,18.429-33.526,19.368-48.868c0,0,23.488,44.626-7.953,72.536
				c-20.843,18.502-43.31,14.059-43.31,14.059l-16.413-2.067L125.857,159.875z"/>
			<path clip-path="url(#SVGID_2_)" fill="#7D00B9" d="M193.895,89.228c-0.84,13.716-5.583,32.847-15.59,44.897
				c1.456,0.909,3.655,0.621,6.977-2.28c0,0-2.793,7.574,3.172,1.761c0,0-1.586,8.081,4.618,0.354c0,0,1.037,9.646,8.38,0.247
				C205.544,111.363,193.895,89.228,193.895,89.228"/>
			<path clip-path="url(#SVGID_2_)" fill="#77A7CA" d="M153.435,28.655c1.513,3.729-3.034,25.663-6.681,26.823
				c-3.333,1.06-14.016-2.427-19.34-10.437c-5.323-8.009-9.176-18.902-4.37-21.986S151.921,24.928,153.435,28.655"/>
			<path clip-path="url(#SVGID_2_)" fill="#77A7CA" d="M45.55,28.655c-1.514,3.729,3.034,25.663,6.68,26.823
				c3.333,1.06,14.016-2.427,19.34-10.437c5.324-8.009,9.176-18.902,4.37-21.986C71.133,19.972,47.063,24.928,45.55,28.655"/>
		</g>
		<g>
			<defs>
				<rect id="SVGID_3_" x="-63.25" y="-21.17" width="326.5" height="326.5"/>
			</defs>
			<clipPath id="SVGID_4_">
				<use xlink:href="#SVGID_3_"  overflow="visible"/>
			</clipPath>
			<path clip-path="url(#SVGID_4_)" fill="none" stroke="#000000" stroke-width="0.7602" stroke-miterlimit="10" d="
				M125.857,159.875c0,0,2.623-6.252,10.516-8.109c7.893-1.858,25.542-2.267,38.153-13.67
				c12.611-11.402,18.429-33.526,19.368-48.868c0,0,23.488,44.626-7.953,72.536c-20.843,18.502-43.31,14.059-43.31,14.059
				l-16.413-2.067L125.857,159.875z"/>
		</g>
		<g>
			<defs>
				<rect id="SVGID_5_" x="-63.25" y="-21.17" width="326.5" height="326.5"/>
			</defs>
			<clipPath id="SVGID_6_">
				<use xlink:href="#SVGID_5_"  overflow="visible"/>
			</clipPath>
			<g opacity="0.15" clip-path="url(#SVGID_6_)">
				<g>
					<defs>
						<rect id="SVGID_7_" x="127.388" y="28.442" width="20.149" height="20.576"/>
					</defs>
					<clipPath id="SVGID_8_">
						<use xlink:href="#SVGID_7_"  overflow="visible"/>
					</clipPath>
					<path clip-path="url(#SVGID_8_)" d="M147.354,32.467c0.928,2.286-1.858,15.728-4.093,16.438
						c-2.043,0.65-8.591-1.486-11.853-6.396c-3.262-4.908-5.623-11.584-2.678-13.474C131.675,27.145,146.427,30.182,147.354,32.467"
						/>
				</g>
			</g>
			<g opacity="0.15" clip-path="url(#SVGID_6_)">
				<g>
					<defs>
						<rect id="SVGID_9_" x="51.784" y="28.442" width="20.149" height="20.576"/>
					</defs>
					<clipPath id="SVGID_10_">
						<use xlink:href="#SVGID_9_"  overflow="visible"/>
					</clipPath>
					<path clip-path="url(#SVGID_10_)" d="M51.967,32.467c-0.927,2.286,1.859,15.728,4.094,16.438
						c2.042,0.65,8.59-1.486,11.852-6.396c3.262-4.908,5.624-11.584,2.678-13.474C67.647,27.145,52.895,30.182,51.967,32.467"/>
				</g>
			</g>
		</g>
		<polygon fill="#E5C6DF" points="99.43,252.809 99.429,252.809 86.847,252.809 112.012,252.809 		"/>
		<g>
			<defs>
				<rect id="SVGID_11_" x="-63.25" y="-21.17" width="326.5" height="326.5"/>
			</defs>
			<clipPath id="SVGID_12_">
				<use xlink:href="#SVGID_11_"  overflow="visible"/>
			</clipPath>
			<path clip-path="url(#SVGID_12_)" fill="#77A7CA" d="M145.563,240.953c0,0,11.547-11.752,19.195-26.985
				c12.007-23.911,17.578-54.371-23.374-46.896c2.084-8.284,3.916-16.078,4.342-23.532c0.669-8.029,1.268-10.116,1.338-13.967
				c2.675,0.233,5.256-0.418,7.659-1.618c-4.209,0.411-6.216-0.928-7.555-2.936c6.691,2.008,14.05,0,18.734-7.358
				c-10.036,2.676-17.396-1.339-18.732-4.8c3.343,1.454,8.027,3.461,15.386-0.554c-12.813-2.441-10.235-14.917-11.813-26.157
				c-1.916-13.639-1.638-25.614-12.149-36.126c-8.542-8.543-21.839-11.655-33.94-12.525c-1.841-2.738-1.576-6.673,1.062-8.725
				c-5.23-0.619-10.562,3.457-12.744,8.25c-11.932,0.945-24.438,4.584-32.854,13c-7.311,7.312-9.403,15.33-10.643,24.125
				c-1.359,9.639-1.072,20.087-3.172,29.619c-2.02,4.508-4.742,7.479-9.677,7.253c3.105,2.492,7.727,2.904,11.225,1.002
				c-3.374,5.164-9.507,8.4-15.674,8.273c4.596,6.061,9.28,8.737,19.008,9.342h0.464c0.076,3.809,0.672,5.918,1.337,13.901
				c0.426,7.454,2.258,15.248,4.342,23.532c-40.952-7.475-35.38,22.985-23.374,46.896c7.647,15.233,19.195,26.985,19.195,26.985
				c-5.842-2.227-17.671-0.717-19.407,5.992c-1.606,6.208,9.774,5.863,9.774,5.863h30.441h0.106
				c1.427,5.748,3.132,9.413,5.401,9.569c4.015,0.274,5.867-2.587,7.131-9.569h25.464c1.265,6.982,3.117,9.844,7.131,9.569
				c2.269-0.156,3.975-3.821,5.402-9.569h0.159h30.44c0,0,11.382,0.345,9.775-5.863
				C163.234,240.236,151.406,238.727,145.563,240.953"/>
		</g>
		<g>
			<defs>
				<rect id="SVGID_13_" x="-63.25" y="-21.17" width="326.5" height="326.5"/>
			</defs>
			<clipPath id="SVGID_14_">
				<use xlink:href="#SVGID_13_"  overflow="visible"/>
			</clipPath>
			<g clip-path="url(#SVGID_14_)">
				<defs>
					<path id="SVGID_15_" d="M-219.141,252.809h30.44c0,0,11.381,0.345,9.774-5.863c-1.736-6.709-13.564-8.219-19.406-5.992
						c0,0,11.547-11.753,19.196-26.985c12.005-23.912,17.577-54.371-23.375-46.896c2.083-8.284,3.916-16.078,4.343-23.532
						c0.669-8.029,1.267-10.116,1.338-13.967c2.675,0.233,5.256-0.418,7.658-1.618c-3.698-1.082-6.878-3.817-8.502-7.311
						c3.071,1.654,6.916,1.79,10.095,0.357c-4.211-3.246-6.385-3.598-9.146-8.141c5.723,3.607,13.042,4.567,19.501,2.558
						c-8.581-7.428-14.35-18.028-15.928-29.269c-1.915-13.639-1.637-25.614-12.148-36.126c-8.669-8.67-21.957-12.015-34.208-12.823
						c-3.034-3.023-6.126-10.133-2.402-13.774c-2.518,0.942-7.39,4.704-6.06,7.883l-1.736-2.25
						c-1.207,2.397-1.108,5.383-0.162,7.888c-12.246,0.811-25.245,4.413-33.908,13.077c-10.512,10.512-10.234,22.487-12.15,36.126
						c-1.577,11.24-7.347,21.841-15.927,29.269c6.459,2.01,13.779,1.05,19.501-2.558c-2.761,4.543-4.934,4.895-9.146,8.141
						c3.181,1.433,7.024,1.297,10.096-0.357c-1.625,3.493-4.804,6.229-8.501,7.311c2.401,1.2,4.982,1.852,7.658,1.618
						c0.071,3.851,0.669,5.938,1.338,13.967c0.426,7.454,2.258,15.248,4.342,23.532c-40.951-7.475-35.381,22.985-23.374,46.896
						c7.647,15.233,19.195,26.985,19.195,26.985c-5.842-2.227-17.67-0.717-19.405,5.992c-1.608,6.208,9.773,5.863,9.773,5.863h30.44
						"/>
				</defs>
				<clipPath id="SVGID_16_">
					<use xlink:href="#SVGID_15_"  overflow="visible"/>
				</clipPath>
				<path clip-path="url(#SVGID_16_)" fill="#B75CA8" d="M-65.926,126.022c-26.762-62.892-56.87-101.027-80.956-109.725
					c-15.583-5.628-28.363,19.267-34.902,37.548c-6.393-8.182-14.87-16.167-19.291-19.484c-8.029-6.021-28.77-35.46-43.489-29.438
					c-14.719,6.021-10.037-43.48-17.395-25.426c-0.806,1.994,2.017,8.616,2.515,10.778c1.549,6.719,2.033,12.939,2.222,19.846
					c0.033,1.213,0.108,2.479,0.203,3.771c-20.833-18.694-94.654-43.413-126.708,41.21
					c-33.452,88.315-107.718,158.566-19.402,230.825c88.315,72.258,331.183,81.625,359.953,18.733
					C-14.408,241.77-39.164,188.915-65.926,126.022 M-267.312,288.603c-35.46-15.388-105.711-34.79-82.962-47.502
					c11.019-6.159,11.895-29.013,22.747-35.46c7.33-4.355,18.064,11.373,33.09,5.269c7.25-2.945-1.34-15.898,3.275-20.406
					c1.395-1.361,4.792-4.967,1.771-7.61c-2.453-2.145-6.148-2.055-9.399-1.772c-13.668,0.732,18.766-20.307-12.68-15.623
					c-30.966,4.612-10.836,7.466-4.731-5.724c0.165-0.046,0.33-0.09,0.495-0.137c14.134-3.921,30.931,3.731,44.05-2.261
					c0.498-0.228,1.006-0.488,1.334-0.927c0.469-0.623,0.48-1.471,0.399-2.245c-0.362-3.471-2.246-6.755-5.059-8.819
					c-5.787-4.247-14.525-1.96-21.101-1.297c-4.395,0.442-1.422,6.062-5.811,6.062c-3.449,0-8.931,1.846-11.9-0.439
					c-0.906-0.697-1.502-1.713-2.076-2.703c-3.304-5.704-6.658-11.361-10.077-16.995c-0.703-1.158-10.514-18.224-10.949-18.039
					c2.851-1.212-0.322-6.858,2.007-8.029c8.681-4.36,28.159,9.822,32.115,0c2.229-5.536,22.257-2.479,21.871-8.145
					c-0.699-10.275,6.891-9.554,14.482-11.049c9.145-1.799,12.903-9.424,14.867-17.751c1.404-5.955,0.135-12.897,3.213-18.442
					c4.209-7.582,5.904,0.017,6.388,4.426c0.602,5.478,0.567,11.077,2.268,16.378c2.066,6.436,8.367,11.159,13.853,14.512
					c15.962,9.755,33.554,7.198,43.288-0.361c3.595,13.635,8.673,35.764,11.26,47.196c-0.567,0.17-1.13,0.352-1.688,0.559
					c-1.285,0.477-2.608,0.808-3.963,1.022c-3.247,0.516-6.424,1.346-9.592,2.186c-2.858,0.758-5.725,1.454-8.652,1.878
					c-2.765,0.401-5.512,0.857-8.191,1.662c-0.786,0.235-1.586,0.417-2.381,0.615c-1.485,0.376-2.961,0.779-4.369,1.391
					c-1.152,0.499-2.305,0.997-3.456,1.498c-1.933,0.844-3.578,2.079-4.996,3.623c-0.293,0.319-0.584,0.643-0.727,1.071
					c-0.234,0.695,0.183,1.358,0.913,1.396c0.601,0.032,1.211-0.032,1.802,0.056c1.472,0.214,2.932,0.257,4.416,0.11
					c1.358-0.136,2.73-0.151,4.099-0.16c1.974-0.01,3.935-0.149,5.894-0.367c2.014-0.225,4.01-0.531,6.004-0.894
					c2.534-0.457,5.107-0.604,7.677-0.73c3.295-0.164,6.528-0.681,9.715-1.498c2.496-0.641,4.979-1.335,7.375-2.275l-3.423,7.301
					c-3.002,0.854-6.061,1.494-9.107,2.179c-2.1,0.47-4.224,0.745-6.375,0.877c-4.449,0.276-8.893,0.635-13.341,0.916
					c-2.984,0.187-5.604,1.318-8.046,2.946c-1.616,1.078-2.822,2.526-3.686,4.262c-0.514,1.028-0.164,2.001,0.866,2.454
					c0.226,0.103,0.469,0.162,1.012,0.343c0.167,0.024,0.661,0.179,1.136,0.138c1.726-0.154,3.469-0.261,5.163-0.595
					c3.174-0.625,6.369-0.946,9.589-1.088c1.815-0.081,3.635-0.091,5.443-0.259c4.073-0.379,7.932-1.473,11.511-3.535
					c0.842-0.485,1.671-0.987,2.49-1.506c0,0-1.481,3.158-1.498,3.196c-3.674,7.835-14.979-0.361-20.478,5.072
					c-3.961,3.914-1.894,10.087-1.172,14.773c0.563,3.656-3.621,7.842,0.882,10.471c1.91,1.116,4.242,1.1,6.446,1.277
					c9.337,0.753,17.668-2.827,19.288,13.952c0.651,6.74,5.361,12.426,8.159,18.593c-1.313-1.149-3.248-1.14-4.988-1.014
					c-12.898,0.942-33.529,4.094-37.219,19.171c-2.715,11.095,9.086,22.856,18.453,26.664
					C-213.41,284.797-246.333,297.707-267.312,288.603 M-177.003,152.422c0.013-0.069,0.025-0.196,0.041-0.196
					c0.122-0.003,0.245,0.019,0.368,0.031c-0.018,0.068-0.034,0.133-0.052,0.2C-176.764,152.445-176.883,152.434-177.003,152.422"/>
			</g>
			<path clip-path="url(#SVGID_14_)" fill="#B6D3D2" d="M108.698,223.705c-0.006-0.045-0.018-0.088-0.025-0.132
				c-0.02-4.232-0.39-8.456-0.614-12.683c-0.139-2.624-0.238-5.254-0.457-7.875c-0.114-1.356-0.199-2.701-0.243-4.065
				c-0.207-6.603-0.158-15.246-0.307-18.485c-0.362,0.42,14.357-16.306,7.667-30.356c-3.739-7.853-9.326-10.704-15.054-10.704
				c-5.728,0-12.258,5.052-14.385,10.37c-6.021,15.054,6.021,27.766,6.538,30.185c0.102,0.972,0.165,1.883,0.153,2.265
				c-0.37,11.75-0.628,26.401-1.338,38.137c-0.113,1.868-2.676,31.445-3.345,32.114c0.001,0,24.103,0.169,24.086,0
				C110.529,244.026,109.852,232.607,108.698,223.705"/>
			<path clip-path="url(#SVGID_14_)" fill-rule="evenodd" clip-rule="evenodd" fill="#7D00B9" d="M119.402,58.937
				c0.524,0,1.05-0.008,1.575,0.002c0.788,0.013,1.405,0.35,1.803,1.029c0.848,1.451,1.194,3.067,1.422,4.701
				c0.116,0.827-0.52,1.557-1.403,1.575c-1.163,0.025-2.196,0.366-3.198,0.903c-0.288,0.153-0.603,0.266-0.916,0.365
				c-1.026,0.328-1.659,0.113-2.19-0.764c-0.377-0.623-0.673-1.286-0.758-2.023c-0.121-1.047-0.27-2.094-0.354-3.143
				c-0.124-1.56,0.881-2.659,2.441-2.716c0.526-0.018,1.053-0.003,1.58-0.003V58.937z"/>
			<path clip-path="url(#SVGID_14_)" fill-rule="evenodd" clip-rule="evenodd" fill="#7D00B9" d="M54.356,186.891
				c1.986,0.997,2.634,2.17,2.575,3.738c-0.075,1.972-0.619,3.845-1.271,5.685c-0.348,0.981-1.136,1.62-2.114,1.873
				c-3.185,0.821-6.199,2.117-9.291,3.197c-1.527,0.533-2.607-0.3-2.629-1.972c-0.057-4.08,0.172-8.146,0.768-12.185
				c0.075-0.513,0.285-1.024,0.517-1.496c0.961-1.959,1.637-2.206,3.83-1.648C49.587,184.807,52.262,185.966,54.356,186.891"/>
			<path clip-path="url(#SVGID_14_)" fill-rule="evenodd" clip-rule="evenodd" fill="#7D00B9" d="M29.749,196.67
				c0-0.196,0-0.261-0.001-0.324c-0.007-2.311-0.032-2.567,2.43-3.484c2.251-0.838,4.616-0.022,5.823,2.019
				c0.517,0.875,0.9,1.843,1.229,2.807c0.352,1.032,0.027,1.715-0.995,2.178c-1.404,0.634-2.742,1.382-4.087,2.125
				c-1.358,0.751-2.376,0.438-3.283-0.87c-0.561-0.807-0.917-1.686-1.003-2.664C29.806,197.816,29.78,197.178,29.749,196.67"/>
			<path clip-path="url(#SVGID_14_)" fill-rule="evenodd" clip-rule="evenodd" fill="#7D00B9" d="M144.14,119.038
				c0.094,1.779-0.194,3.467-0.52,5.15c-0.343,1.771-1.257,2.892-3.15,3.205c-1.325,0.221-2.617,0.672-3.908,1.068
				c-1.047,0.321-2.109,0.485-3.197,0.444c-1.268-0.05-2.131-0.906-1.894-2.095c1.024-5.148,3.089-9.616,8.219-11.959
				c0.656-0.298,1.279-0.675,1.951-0.919c0.813-0.299,1.663,0.092,2.012,0.907c0.209,0.49,0.314,1.025,0.431,1.548
				c0.06,0.261,0.051,0.538,0.055,0.808C144.146,117.828,144.14,118.46,144.14,119.038"/>
			<path clip-path="url(#SVGID_14_)" fill-rule="evenodd" clip-rule="evenodd" fill="#7D00B9" d="M158.909,204.457
				c-1.491-1.764-1.683-3.605-1.271-5.567c0.223-1.066,0.45-2.136,0.7-3.195c0.235-1,0.805-1.827,1.446-2.602
				c0.368-0.443,0.884-0.701,1.453-0.584c2.135,0.444,4.331,0.615,6.402,1.343c0.597,0.209,1.179,0.497,1.712,0.839
				c0.856,0.547,1.232,1.693,0.868,2.646c-0.392,1.022-0.852,2.031-1.664,2.794c-1.794,1.688-3.719,3.202-5.955,4.287
				C161.381,205.006,160.181,205.177,158.909,204.457"/>
			<path clip-path="url(#SVGID_14_)" fill-rule="evenodd" clip-rule="evenodd" fill="#7D00B9" d="M152.187,172.856
				c3.09-3.092,9.192-4.325,13.026-3.372c0.625,0.154,0.995,0.729,1.021,1.413c0.025,0.641-0.135,1.233-0.389,1.815
				c-0.642,1.472-1.301,2.939-1.891,4.432c-0.681,1.728-1.906,2.763-3.707,3.143c-0.875,0.184-1.742,0.397-2.623,0.545
				c-1.654,0.278-2.858-0.525-3.004-2.218C154.421,176.314,151.775,175.084,152.187,172.856"/>
			<path clip-path="url(#SVGID_14_)" fill-rule="evenodd" clip-rule="evenodd" fill="#7D00B9" d="M146.713,203.089
				c-0.115-0.734-0.263-1.695-0.418-2.655c-0.074-0.463,0.047-0.865,0.332-1.227c0.327-0.416,0.728-0.637,1.272-0.506
				c0.236,0.057,0.475,0.104,0.711,0.157c0.855,0.197,1.71,0.379,2.599,0.279c0.596-0.066,1.036,0.191,1.288,0.745
				c0.021,0.044,0.042,0.088,0.067,0.13c0.857,1.502,0.827,1.545-0.589,2.499c-0.641,0.434-1.206,0.98-1.812,1.47
				c-0.416,0.335-0.815,0.702-1.269,0.976c-0.829,0.499-1.526,0.235-1.854-0.66C146.923,203.979,146.86,203.641,146.713,203.089"/>
			<path clip-path="url(#SVGID_14_)" fill-rule="evenodd" clip-rule="evenodd" fill="#7D00B9" d="M156.663,185.371
				c1.113-0.141,2.167,0.176,3.19,0.663c0.515,0.246,0.939,0.6,1.303,1.026c0.503,0.587,0.546,1.258,0.025,1.81
				c-1.529,1.618-3.315,2.8-5.592,3.063c-0.754,0.086-1.231-0.155-1.517-0.768c-0.814-1.743-0.586-3.474,0.116-5.18
				c0.157-0.382,0.515-0.591,0.934-0.609C155.623,185.355,156.125,185.371,156.663,185.371"/>
			<path clip-path="url(#SVGID_14_)" fill-rule="evenodd" clip-rule="evenodd" fill="#7D00B9" d="M156.869,195.654
				c0.006,0.285-0.218,0.682-0.61,0.995c-0.062,0.049-0.122,0.104-0.191,0.139c-0.779,0.382-1.482,0.89-2.215,1.349
				c-0.816,0.512-1.224,0.392-1.792-0.388c-0.531-0.729-0.662-1.59-0.818-2.439c-0.063-0.34,0.128-0.608,0.399-0.804
				c0.328-0.234,0.701-0.372,1.1-0.389c0.521-0.023,1.003-0.141,1.48-0.352c0.28-0.123,0.606-0.176,0.916-0.193
				c1.066-0.063,1.702,0.545,1.731,1.62C156.871,195.271,156.869,195.35,156.869,195.654"/>
			<path clip-path="url(#SVGID_14_)" fill-rule="evenodd" clip-rule="evenodd" fill="#7D00B9" d="M68.552,159.187
				c0.02,1.16-0.088,2.105-0.539,2.973c-1.268,2.442-2.577,4.866-3.817,7.322c-1.303,2.581-4.843,2.189-5.774-0.257
				c-0.941-2.473-1.533-5.056-1.827-7.692c-0.115-1.041,0.401-1.799,1.263-2.394c2.017-1.394,4.204-2.474,6.454-3.399
				c2.237-0.922,3.685-0.027,4.117,2.378C68.504,158.532,68.526,158.959,68.552,159.187"/>
			<path clip-path="url(#SVGID_14_)" fill-rule="evenodd" clip-rule="evenodd" fill="#7D00B9" d="M84.535,60.057
				c-2.363,0.209-4.086-1.223-5.118-3.65c-0.323-0.758-0.573-1.563-0.743-2.37c-0.302-1.466,0.206-2.411,1.622-2.943
				c1.967-0.745,4.037-1.087,6.114-0.78c4.456,0.656,4.073,0.297,5.803,4.419c0.944,2.246,0.283,3.063-1.562,3.921
				C88.675,59.568,86.692,60.069,84.535,60.057"/>
			<path clip-path="url(#SVGID_14_)" fill-rule="evenodd" clip-rule="evenodd" fill="#7D00B9" d="M167.18,176.347
				c0.327-0.204,0.568-0.4,0.836-0.511c1.706-0.704,2.021-0.502,2.375,1.646c0.337,2.031,0.778,4.027,1.361,5.964
				c0.559,1.854,0.141,3.334-0.943,4.642c-0.628,0.756-1.387,1.021-2.193,0.68c-1.238-0.521-2.339-1.388-3.339-2.438
				c-0.349-0.367-0.48-0.885-0.51-1.442c-0.05-0.925,0.139-1.78,0.467-2.601C166.006,180.362,166.84,178.471,167.18,176.347"/>
			<path clip-path="url(#SVGID_14_)" fill-rule="evenodd" clip-rule="evenodd" fill="#7D00B9" d="M108.77,49.514
				c0.037-1.281,0.551-2.027,1.464-2.402c1.171-0.48,2.386-0.859,3.587-1.261c0.894-0.295,1.667,0.007,2.363,0.564
				c0.617,0.496,0.729,1.281,0.229,1.873c-0.363,0.429-0.775,0.82-1.203,1.188c-1.078,0.928-2.051,1.94-2.766,3.181
				c-0.105,0.182-0.235,0.353-0.353,0.528c-0.333,0.495-0.744,0.872-1.394,0.759c-0.551-0.096-0.842-0.51-0.985-1
				C109.359,51.726,109.039,50.501,108.77,49.514"/>
		</g>
		<g>
			<defs>
				<path id="SVGID_17_" d="M92.973,37.023c-11.933,0.945-24.439,4.584-32.854,13c-7.312,7.312-9.403,15.33-10.644,24.125
					c-1.359,9.639-1.072,20.087-3.172,29.62c-2.02,4.507-4.742,7.478-9.676,7.252c3.105,2.492,7.727,2.904,11.224,1.002
					c-3.374,5.164-9.506,8.4-15.674,8.274c4.597,6.06,9.28,8.736,19.008,9.341h0.464c0.077,3.809,0.673,5.918,1.337,13.901
					c0.426,7.454,2.259,15.248,4.342,23.532c-40.952-7.475-35.38,22.985-23.374,46.897c7.648,15.232,19.195,26.984,19.195,26.984
					c-5.842-2.227-17.67-0.717-19.406,5.992c-1.607,6.208,9.774,5.863,9.774,5.863h30.44h0.107c1.427,5.748,3.133,9.413,5.402,9.568
					c4.014,0.275,5.866-2.586,7.13-9.568h25.465c1.265,6.982,3.117,9.844,7.132,9.568c2.269-0.155,3.974-3.82,5.4-9.568h0.16h30.44
					c0,0,11.381,0.345,9.774-5.863c-1.736-6.709-13.564-8.219-19.407-5.992c0,0,11.548-11.752,19.196-26.984
					c12.007-23.912,17.578-54.372-23.374-46.897c2.083-8.284,3.916-16.078,4.342-23.532c0.669-8.029,1.269-10.116,1.338-13.967
					c2.675,0.233,5.257-0.418,7.659-1.618c-4.209,0.411-6.216-0.928-7.555-2.936c6.691,2.008,14.05,0,18.734-7.358
					c-10.036,2.676-17.396-1.339-18.732-4.8c3.343,1.454,8.027,3.461,15.386-0.554c-12.813-2.441-10.235-14.917-11.813-26.157
					c-1.915-13.639-1.637-25.614-12.15-36.126c-8.542-8.543-21.838-11.654-33.939-12.525c-1.841-2.737-1.576-6.673,1.061-8.725
					c-0.354-0.043-0.709-0.063-1.063-0.063C99.778,28.711,95.007,32.556,92.973,37.023"/>
			</defs>
			<clipPath id="SVGID_18_">
				<use xlink:href="#SVGID_17_"  overflow="visible"/>
			</clipPath>
			<path clip-path="url(#SVGID_18_)" fill-rule="evenodd" clip-rule="evenodd" fill="#7D00B9" d="M203.035,79.188l-40.144-59.546
				L130.777,6.262L67.885,4.254l10.667,8.087l2.045-0.727l-0.966,1.544l17.965,13.619c-3.45,1.098-6.891,2.241-10.59,2.302
				c-0.524,0.005-1.043,0.294-1.563,0.464c-1.645,0.533-2.859,1.588-3.539,3.169c-0.501,1.154-1.107,2.305-0.904,4.057
				c2.2,3.096,4.545,6.538,7.049,9.868c1.724,2.291,4.071,3.566,7.058,3.391c0.723-0.043,1.455-0.04,2.178,0.003
				c3.769,0.208,6.791-1.234,8.887-4.312c2.268-3.317,4.882-6.314,7.702-9.152c0.045-0.045,0.083-0.097,0.126-0.143l4.297,0.672
				c-0.037,5.906,0.965,11.683,2.495,17.374c0.429,1.605,2.493,2.375,4.045,1.75c0.5-0.201,1.003-0.447,1.425-0.778
				c2.326-1.8,4.649-3.604,6.967-5.413c-0.803,1.414-1.534,2.886-2.241,4.378c-0.553,1.168-0.825,2.392-0.814,3.684
				c0.015,1.923,0.79,3.03,2.588,3.704c2.267,0.846,4.628,0.83,6.991,0.771c1.271,0,2.58,0.205,3.801-0.038
				c4.004-0.802,8.05-0.952,12.101-1.083l4.042,42.419c-0.559-0.021-1.139,0.089-1.737,0.36c-3.463,1.573-6.919,3.159-10.317,4.873
				c-2.966,1.494-3.796,4.134-2.62,7.587c0.605,1.779,1.651,3.216,2.944,4.464c1.957,1.879,4.134,2.485,7.458,1.249
				c0.151-0.082,1.206-0.575,2.162-1.221c1.932-1.302,3.815-2.688,5.713-4.051c0.542-0.387,1.098-0.762,1.581-1.227
				c1.414-1.355,1.696-3.07,0.822-4.955l7.891,2.367l-7.167,14.333c-1.622-1.014-1.156,5.906-2.87,5.069
				c-4.062-1.983-10.035-3.345-14.719-3.345c-6.805,0-9.64,4.861-14.06,9.946c-1.291,1.483-2.146,3.368-3.065,5.137
				c-0.591,1.136-0.809,2.444-0.515,3.72c0.158,0.673,0.456,1.482,0.963,1.877c1.769,1.365,3.746,2.296,6.07,1.577
				c1.214-0.375,2.483-0.721,3.565-1.348c2.801-1.629,5.793-1.999,8.945-1.823c1.816,0.098,3.635,0.016,5.457,0.016v0.247
				c2.909,0,5.817,0.02,8.728-0.006c2.083-0.017,3.956-0.433,5.657-1.169l8.364,13.94l4.871,53.888
				c-2.947-1.153-5.904-2.284-8.875-3.376c-6.213-2.295-12.686-3.546-18.44-4.372c-8.19-0.05-13.479,4.109-14.479,11.59
				c-0.67,5.051,1.048,10.466-0.477,15.356c-4.75,15.23-10.771,18.575-14.786,21.921c-0.84,0.699,13.461-1.119,13.453-0.029
				c-0.039,2.981,1.959,5.767,4.798,6.683c2.539,0.817,4.989,0.94,7.396,0.285l-2.898,4.435c0,0-58.208,38.137-59.546,37.468
				c-1.338-0.669-89.654-44.157-89.654-44.157l40.191-37.792c0.939,0.496,1.87,1.007,2.771,1.566
				c1.761,1.092,3.485,0.97,5.183-0.083c1.578-0.976,2.962-2.219,4.004-3.732c1.358-1.976,1.849-4.222,0.672-6.427
				c-1.064-1.988-3.029-2.637-5.199-2.696c-0.107-0.004-0.215,0-0.323,0c-3.732-0.022-6.93,1.386-9.824,3.637
				c-1.717,1.334-1.984,3.407-0.569,5.064c0.196,0.231,0.399,0.455,0.606,0.671l-13.426,4.332L4.325,207.647l11.605-21.608
				c4.879,1.383,9.781,1.897,14.725,1.95c4.834,0.054,8.456-2.733,10.724-6.951c2.261-4.196,3.848-8.626,3.725-13.535
				c-0.087-3.463-0.05-6.721,0.215-10.187c0.199-2.599-0.194-5.543-2.236-7.162c-1.716-1.36-4.346-1.565-5.513-3.42
				c3.771,0.311,7.316,1.841,10.931,2.959c7.158,2.214,14.898,2.888,22.25,3.823c4.089,0.521,10.23,0.966,6.743-4.942
				c-2.963-5.021-13.141-13.52-19.521-11.695c-1.358,0.389-2.84,0.496-4.269,0.715c-2.397,0.363-16.429,3.79-19.397,5.885
				L18.375,128.03l5.353-20.74l12.476-7.018c0.623,0.036,1.299-0.082,2.014-0.371c4.435-1.8,9.13-2.15,13.81-2.571
				c3.179-0.287,6.379-0.415,9.564-0.674c2.254-0.186,4.481-0.541,6.519-1.627c4.803-2.562,6.34-7.676,3.719-12.471
				c-0.453-0.824-1.034-1.575-1.488-2.396c-0.987-1.788-2.569-2.954-4.491-3.048c-4.854-0.232-9.735-1.062-14.576,0.134
				c-1.086,0.27-2.22,0.533-3.206,1.052c-1.687,0.888-3.329,1.842-4.903,2.861l-2.712-19.368l16.289-14.659
				c0.71,2.575,1.723,5.063,3.069,7.43c1.144,2.015,2.77,2.631,5.102,2.146c2.328-0.486,4.438-1.554,6.477-2.746
				c3.642-2.135,6.258-5.471,9.438-8.152c1.232-1.042,1.008-3.219-0.237-4.418c-2.002-1.927-4.408-3.144-7.113-3.778
				c-2.468-0.576-4.924-1.195-7.395-1.74c-0.193-0.042-0.387-0.076-0.581-0.108l14.129-22.607l-1.079-0.817L-9.726,43.729
				L-63.25,219.022L-3.035,348.15l169.272-56.201c0,0,40.813-22.079,42.15-28.101c1.338-6.022,16.727-76.942,16.727-76.942
				L203.035,79.188z"/>
		</g>
		<polyline fill="none" stroke="#000000" stroke-width="0.7602" stroke-miterlimit="10" points="86.847,252.809 99.43,252.809 
			112.012,252.809 		"/>
		<g>
			<defs>
				<rect id="SVGID_19_" x="-63.25" y="-21.17" width="326.5" height="326.5"/>
			</defs>
			<clipPath id="SVGID_20_">
				<use xlink:href="#SVGID_19_"  overflow="visible"/>
			</clipPath>
			<path clip-path="url(#SVGID_20_)" fill="none" stroke="#000000" stroke-width="0.7602" stroke-miterlimit="10" d="
				M141.816,167.169c-2.94,11.691-7.076,22.981-9.282,35.008c-4.685,25.539-6.305,59.719-13.339,60.2
				c-7.035,0.482-7.432-8.642-9.657-32.752c-2.227-24.109-2.227-50.445-2.227-50.445"/>
			<path clip-path="url(#SVGID_20_)" fill="none" stroke="#000000" stroke-width="0.7602" stroke-miterlimit="10" d="M91.35,179.18
				c0,0,0,26.335-2.226,50.445c-2.225,24.11-2.623,33.233-9.657,32.752c-7.034-0.481-8.655-34.661-13.34-60.2
				c-2.17-11.834-5.839-23.877-8.757-35.397"/>
			<path clip-path="url(#SVGID_20_)" d="M147.096,129.905c-1.066,0.041-2.088-0.186-3.057-0.487
				c-0.971-0.307-1.899-0.695-2.84-1.053c0.975,0.252,1.944,0.536,2.922,0.729c0.976,0.19,1.97,0.288,2.912,0.145
				c0.184-0.028,0.354,0.099,0.383,0.281c0.028,0.183-0.099,0.354-0.282,0.382C147.122,129.903,147.108,129.903,147.096,129.905"/>
			<path clip-path="url(#SVGID_20_)" d="M51.577,129.238c0.942,0.144,1.937,0.046,2.913-0.145c0.978-0.192,1.947-0.478,2.922-0.729
				c-0.941,0.357-1.87,0.748-2.84,1.053c-0.968,0.302-1.99,0.528-3.057,0.487c-0.185-0.007-0.329-0.162-0.323-0.347
				c0.007-0.185,0.163-0.33,0.347-0.324C51.55,129.235,51.564,129.237,51.577,129.238"/>
			
				<path clip-path="url(#SVGID_20_)" fill="none" stroke="#000000" stroke-width="0.7602" stroke-linecap="round" stroke-linejoin="round" stroke-miterlimit="10" d="
				M124.755,252.809h30.44c0,0,11.381,0.345,9.774-5.863c-1.736-6.709-13.564-8.219-19.406-5.992c0,0,11.548-11.753,19.195-26.985
				c12.007-23.912,17.578-54.371-23.374-46.896c2.083-8.284,3.916-16.078,4.342-23.532c0.669-8.029,1.268-10.116,1.338-13.967
				c2.675,0.233,5.257-0.418,7.659-1.618c-4.209,0.411-6.216-0.928-7.555-2.936c6.691,2.008,14.05,0,18.734-7.358
				c-10.036,2.676-17.396-1.339-18.732-4.8c3.343,1.454,8.027,3.461,15.386-0.554c-12.813-2.441-10.235-14.917-11.813-26.157
				c-1.916-13.639-1.638-25.614-12.149-36.126c-8.542-8.543-21.839-11.657-33.94-12.525c-1.841-2.737-1.577-6.673,1.061-8.725
				c-5.229-0.619-10.561,3.457-12.743,8.25c-11.932,0.945-24.439,4.584-32.854,13c-7.312,7.312-9.403,15.329-10.644,24.125
				c-1.359,9.639-1.072,20.087-3.172,29.619c-2.021,4.51-4.742,7.479-9.677,7.253c3.105,2.492,7.727,2.904,11.224,1.002
				c-3.374,5.164-9.507,8.4-15.674,8.272c4.597,6.062,9.28,8.738,19.008,9.343h0.464c0.077,3.809,0.672,5.918,1.337,13.901
				c0.426,7.454,2.259,15.248,4.342,23.532c-40.952-7.475-35.381,22.985-23.374,46.896c7.648,15.233,19.195,26.985,19.195,26.985
				c-5.842-2.227-17.67-0.717-19.406,5.992c-1.607,6.208,9.774,5.863,9.774,5.863h30.44"/>
			<path clip-path="url(#SVGID_20_)" fill="none" stroke="#000000" stroke-width="0.7602" stroke-miterlimit="10" d="
				M125.552,42.015c-4.269-7.513-6.73-16.25-2.508-18.959c4.806-3.084,28.877,1.872,30.391,5.6
				c1.513,3.729-3.034,25.665-6.68,26.823c-0.764,0.242-2.219,0.192-3.601-0.042"/>
			<path clip-path="url(#SVGID_20_)" fill="none" stroke="#000000" stroke-width="0.7602" stroke-miterlimit="10" d="M74.014,40.964
				c3.902-7.26,5.953-15.325,1.926-17.908c-4.806-3.084-28.877,1.872-30.39,5.6c-1.514,3.729,3.033,25.664,6.68,26.822
				c0.763,0.244,2.219,0.193,3.6-0.041"/>
		</g>
		<g>
			<defs>
				<path id="SVGID_21_" d="M92.973,37.023c-11.933,0.945-24.439,4.584-32.854,13c-7.312,7.312-9.403,15.33-10.644,24.125
					c-1.359,9.639-1.072,20.087-3.172,29.62c-2.02,4.507-4.742,7.478-9.676,7.252c3.105,2.492,7.727,2.904,11.224,1.002
					c-3.374,5.164-9.506,8.4-15.674,8.274c4.597,6.06,9.28,8.736,19.008,9.341h0.464c0.077,3.809,0.673,5.918,1.337,13.901
					c0.426,7.454,2.259,15.248,4.342,23.532c-40.952-7.475-35.38,22.985-23.374,46.897c7.648,15.232,19.195,26.984,19.195,26.984
					c-5.842-2.227-17.67-0.717-19.406,5.992c-1.607,6.208,9.774,5.863,9.774,5.863h30.44h0.107c1.427,5.748,3.133,9.413,5.402,9.568
					c4.014,0.275,5.866-2.586,7.13-9.568h25.465c1.265,6.982,3.117,9.844,7.132,9.568c2.269-0.155,3.974-3.82,5.4-9.568h0.16h30.44
					c0,0,11.381,0.345,9.774-5.863c-1.736-6.709-13.564-8.219-19.407-5.992c0,0,11.548-11.752,19.196-26.984
					c12.007-23.912,17.578-54.372-23.374-46.897c2.083-8.284,3.916-16.078,4.342-23.532c0.669-8.029,1.269-10.116,1.338-13.967
					c2.675,0.233,5.257-0.418,7.659-1.618c-4.209,0.411-6.216-0.928-7.555-2.936c6.691,2.008,14.05,0,18.734-7.358
					c-10.036,2.676-17.396-1.339-18.732-4.8c3.343,1.454,8.027,3.461,15.386-0.554c-12.813-2.441-10.235-14.917-11.813-26.157
					c-1.915-13.639-1.637-25.614-12.15-36.126c-8.542-8.543-21.838-11.654-33.939-12.525c-1.841-2.737-1.576-6.673,1.061-8.725
					c-0.354-0.043-0.709-0.063-1.063-0.063C99.778,28.711,95.007,32.556,92.973,37.023"/>
			</defs>
			<clipPath id="SVGID_22_">
				<use xlink:href="#SVGID_21_"  overflow="visible"/>
			</clipPath>
			<g opacity="0.05" clip-path="url(#SVGID_22_)">
				<g>
					<defs>
						<rect id="SVGID_23_" x="5.328" y="22.612" width="188.005" height="266.155"/>
					</defs>
					<clipPath id="SVGID_24_">
						<use xlink:href="#SVGID_23_"  overflow="visible"/>
					</clipPath>
					<path clip-path="url(#SVGID_24_)" d="M85.95,29.679c0,0-48.841,26.094-24.086,141.171c0,0-65.233-14.386-3.345,71.589
						c0,0-32.546,3.247-16.726,14.72c43.823,31.779,120.764-1.673,120.764-1.673s9.367-12.712-21.41-12.712
						c0,0,60.884-81.625-4.014-70.92c0,0,26.762-114.409-20.072-138.496c-10.922-5.616,44.158-4.014,44.158-4.014l32.115,193.357
						l-8.697,48.842c0,0-160.574,26.093-163.25,14.05c-2.677-12.043-16.058-64.229-16.058-64.229S20.047,103.609,19.379,97.589
						c-0.669-6.022,12.712-74.267,14.05-74.936C34.767,21.984,85.95,29.679,85.95,29.679"/>
				</g>
			</g>
		</g>
		<g>
			<defs>
				<rect id="SVGID_25_" x="-63.25" y="-21.17" width="326.5" height="326.5"/>
			</defs>
			<clipPath id="SVGID_26_">
				<use xlink:href="#SVGID_25_"  overflow="visible"/>
			</clipPath>
			<path clip-path="url(#SVGID_26_)" fill="#393C3D" d="M90.605,105.271c0.274,0,0.532-0.17,0.631-0.441
				c0.084-0.23,2.153-5.658,7.266-5.658c5.131,0,7.245,5.602,7.266,5.658c0.129,0.347,0.515,0.527,0.863,0.399
				c0.349-0.128,0.528-0.515,0.4-0.863c-0.098-0.267-2.469-6.539-8.529-6.539c-6.061,0-8.431,6.272-8.529,6.539
				c-0.128,0.349,0.051,0.735,0.4,0.863C90.449,105.257,90.527,105.271,90.605,105.271"/>
			<path clip-path="url(#SVGID_26_)" fill="none" stroke="#393C3D" stroke-width="1.5204" stroke-miterlimit="10" d="M98.566,91.675
				c-0.042,2.231-0.085,4.465-0.127,6.696"/>
		</g>
		<g>
			<defs>
				<rect id="SVGID_27_" x="-63.25" y="-21.17" width="326.5" height="326.5"/>
			</defs>
			<clipPath id="SVGID_28_">
				<use xlink:href="#SVGID_27_"  overflow="visible"/>
			</clipPath>
			<g opacity="0.1" clip-path="url(#SVGID_28_)">
				<g>
					<defs>
						<rect id="SVGID_29_" x="151.146" y="67.922" width="0.725" height="0.737"/>
					</defs>
					<clipPath id="SVGID_30_">
						<use xlink:href="#SVGID_29_"  overflow="visible"/>
					</clipPath>
					<path clip-path="url(#SVGID_30_)" fill="#A5A5A5" d="M151.146,67.922c0.017,0.24,0.056,0.487,0.11,0.737
						c0.223-0.034,0.434-0.079,0.615-0.143C151.87,68.517,151.589,68.301,151.146,67.922"/>
				</g>
			</g>
		</g>
		<polygon fill="#E5C6DF" points="99.43,252.809 99.429,252.809 86.847,252.809 112.012,252.809 		"/>
		<g>
			<defs>
				<rect id="SVGID_31_" x="-63.25" y="-21.17" width="326.5" height="326.5"/>
			</defs>
			<clipPath id="SVGID_32_">
				<use xlink:href="#SVGID_31_"  overflow="visible"/>
			</clipPath>
			<path clip-path="url(#SVGID_32_)" fill="#393C3D" d="M109.604,80.946c0,3.646-4.646,10.983-10.843,10.983
				s-10.843-7.337-10.843-10.983c0-3.645,4.646-5.469,10.843-5.469S109.604,77.302,109.604,80.946"/>
		</g>
		<g>
			<defs>
				<path id="SVGID_33_" d="M87.917,80.946c0,3.646,4.646,10.983,10.844,10.983s10.843-7.337,10.843-10.983
					c0-3.645-4.646-5.469-10.843-5.469S87.917,77.302,87.917,80.946"/>
			</defs>
			<clipPath id="SVGID_34_">
				<use xlink:href="#SVGID_33_"  overflow="visible"/>
			</clipPath>
			<g opacity="0.55" clip-path="url(#SVGID_34_)">
				<g>
					<defs>
						<rect id="SVGID_35_" x="84.861" y="76.004" width="27.058" height="20.458"/>
					</defs>
					<clipPath id="SVGID_36_">
						<use xlink:href="#SVGID_35_"  overflow="visible"/>
					</clipPath>
					<path clip-path="url(#SVGID_36_)" fill="#1B1D1E" d="M87.18,78.955c0,3.49,2.579,6.679,5.129,8.8
						c3.915,3.255,8.49,3.246,12.786,0.648c3.777-2.284,5.278-6.339,5.278-10.608c0-8.117,3.478,13.915,0,15.075
						c-3.479,1.16-17.396,5.798-19.714,2.319c-2.32-3.479-5.798-9.277-5.798-9.277L87.18,78.955z"/>
				</g>
			</g>
		</g>
		<path d="M147.096,129.905c-1.066,0.041-2.088-0.186-3.057-0.487c-0.971-0.307-1.899-0.695-2.84-1.053
			c0.975,0.252,1.944,0.536,2.922,0.729c0.976,0.19,1.97,0.288,2.912,0.145c0.184-0.028,0.354,0.099,0.383,0.281
			c0.028,0.183-0.099,0.354-0.282,0.382C147.122,129.903,147.108,129.903,147.096,129.905"/>
		<path fill="#FFFFFF" d="M67.136,53.313c-8.01,2.872-12.174,11.693-9.301,19.705c2.873,8.01,11.695,12.175,19.705,9.302
			c8.011-2.873,12.175-11.695,9.302-19.706C83.969,54.604,75.147,50.439,67.136,53.313"/>
		
			<circle fill="none" stroke="#000000" stroke-width="0.7602" stroke-linecap="round" stroke-linejoin="round" cx="72.338" cy="67.817" r="15.408"/>
		<path fill="#4863AB" d="M78.242,75.969c-3.088,2.575-7.679,2.16-10.253-0.929c-2.575-3.087-2.159-7.678,0.928-10.253
			c3.087-2.574,7.679-2.159,10.253,0.929C81.745,68.803,81.33,73.394,78.242,75.969"/>
		<path fill="#31323C" d="M76.994,74.471c-2.261,1.886-5.622,1.582-7.508-0.679s-1.581-5.622,0.68-7.508s5.622-1.581,7.508,0.68
			C79.558,69.225,79.254,72.587,76.994,74.471"/>
		<path fill="#FFFFFF" d="M80.451,71.134c-0.825,0.687-2.049,0.576-2.737-0.248c-0.688-0.824-0.577-2.049,0.248-2.736
			c0.824-0.688,2.049-0.576,2.737,0.247C81.385,69.221,81.274,70.446,80.451,71.134"/>
		<path fill="#FFFFFF" d="M71.016,71.768c-0.403,0.335-1.002,0.281-1.338-0.123c-0.337-0.402-0.282-1.003,0.121-1.34
			c0.403-0.335,1.002-0.28,1.338,0.123C71.474,70.831,71.419,71.431,71.016,71.768"/>
		<path fill="#FFFFFF" d="M130.805,53.313c8.01,2.872,12.174,11.693,9.301,19.705c-2.873,8.01-11.694,12.175-19.705,9.302
			c-8.01-2.873-12.175-11.695-9.301-19.706C113.972,54.604,122.794,50.439,130.805,53.313"/>
		
			<circle fill="none" stroke="#000000" stroke-width="0.7602" stroke-linecap="round" stroke-linejoin="round" cx="125.603" cy="67.817" r="15.408"/>
		<path fill="#4863AB" d="M119.699,75.969c3.088,2.575,7.678,2.16,10.253-0.929c2.575-3.087,2.159-7.678-0.928-10.253
			c-3.088-2.574-7.679-2.159-10.254,0.929C116.196,68.803,116.611,73.394,119.699,75.969"/>
		<path fill="#31323C" d="M120.948,74.471c2.26,1.886,5.622,1.582,7.507-0.679c1.886-2.261,1.581-5.622-0.679-7.508
			c-2.261-1.886-5.623-1.581-7.508,0.68S118.687,72.587,120.948,74.471"/>
		<path fill="#FFFFFF" d="M117.491,71.134c0.825,0.687,2.05,0.576,2.737-0.248s0.576-2.049-0.249-2.736
			c-0.823-0.688-2.049-0.576-2.736,0.247C116.556,69.221,116.667,70.446,117.491,71.134"/>
		<path fill="#FFFFFF" d="M126.926,71.768c0.403,0.335,1.003,0.281,1.339-0.123c0.336-0.402,0.282-1.003-0.122-1.34
			c-0.403-0.335-1.003-0.28-1.339,0.123C126.468,70.831,126.522,71.431,126.926,71.768"/>
		<rect x="-63.25" y="-21.17" fill="none" width="326.5" height="326.5"/>
		<rect x="-63.25" y="-21.17" fill="none" width="326.5" height="326.5"/>
	</g>
</g>
</svg>
