<?xml version="1.0" encoding="utf-8"?>
<!-- Generator: Adobe Illustrator 16.0.0, SVG Export Plug-In . SVG Version: 6.00 Build 0)  -->
<!DOCTYPE svg PUBLIC "-//W3C//DTD SVG 1.1//EN" "http://www.w3.org/Graphics/SVG/1.1/DTD/svg11.dtd">
<svg version="1.1" xmlns="http://www.w3.org/2000/svg" xmlns:xlink="http://www.w3.org/1999/xlink" x="0px" y="0px" width="242px"
	 height="286px" viewBox="0 0 242 286" enable-background="new 0 0 242 286" xml:space="preserve">
<g id="图层_2">
	<rect fill="#FFF2C2" width="242" height="286"/>
</g>
<g id="图层_3">
	<ellipse opacity="0.1" cx="121" cy="234" rx="54.5" ry="8"/>
</g>
<g id="图层_6">
	<g>
		<defs>
			<rect id="SVGID_1_" x="-1.498" y="25.666" width="246.995" height="246.994"/>
		</defs>
		<clipPath id="SVGID_2_">
			<use xlink:href="#SVGID_1_"  overflow="visible"/>
		</clipPath>
		<g clip-path="url(#SVGID_2_)">
			<defs>
				<rect id="SVGID_3_" x="-1.498" y="25.666" width="246.995" height="246.994"/>
			</defs>
			<clipPath id="SVGID_4_">
				<use xlink:href="#SVGID_3_"  overflow="visible"/>
			</clipPath>
			<path clip-path="url(#SVGID_4_)" fill="#D7685F" d="M213.036,168.048c-8.126,32.328-49.233,16.585-49.233,16.585l0.799-8.524
				c0.571,0.325,6.999,1.79,13.536,0.909c6.26-0.845,12.618-3.84,14.026-12.047c1.294-7.54-0.063-11.811-2.514-14.134
				c-5.242-4.974-15.491-1.02-15.491-1.02c2.185-11.585,13.498-15.204,23.524-12.087
				C208.133,140.979,217.183,151.547,213.036,168.048"/>
		</g>
		<g clip-path="url(#SVGID_2_)">
			<defs>
				<path id="SVGID_5_" d="M174.169,149.817c0,0,10.259-3.953,15.507,1.02c2.452,2.324,3.811,6.594,2.516,14.135
					c-1.41,8.206-7.774,11.202-14.04,12.046c-6.544,0.883-12.979-0.584-13.551-0.909l-0.8,8.524c0,0,41.15,15.742,49.285-16.585
					c4.15-16.501-4.909-27.068-15.37-30.318c-2.274-0.705-4.615-1.064-6.901-1.064C183.018,136.665,175.861,140.859,174.169,149.817
					"/>
			</defs>
			<clipPath id="SVGID_6_">
				<use xlink:href="#SVGID_5_"  overflow="visible"/>
			</clipPath>
			<path clip-path="url(#SVGID_6_)" fill="#EC8980" d="M192.382,126.388c0,0,1.013,16.703,8.107,19.738
				c7.093,3.036,8.613-11.135,8.613-11.64l7.092,16.195c0,0-24.319,6.58-9.626,16.197c14.692,9.615,14.692,5.061,15.706,2.023
				c1.014-3.036,15.2,10.63,3.04,13.16c-12.16,2.531-27.36,15.184-43.572,12.653c-16.213-2.53-33.439-2.53-28.373-13.16
				c5.067-10.627,10.641-15.689,22.799-14.172c12.16,1.519,1.52,9.11,7.094,4.556c5.573-4.556,16.213-24.801,4.56-23.788
				c-11.654,1.011-13.68,15.688-16.213,9.616c-2.533-6.074-22.293-23.789-2.027-25.812
				C189.849,129.93,192.382,126.388,192.382,126.388"/>
		</g>
		<g clip-path="url(#SVGID_2_)">
			<defs>
				<rect id="SVGID_7_" x="-1.498" y="25.666" width="246.995" height="246.994"/>
			</defs>
			<clipPath id="SVGID_8_">
				<use xlink:href="#SVGID_7_"  overflow="visible"/>
			</clipPath>
			<path clip-path="url(#SVGID_8_)" fill="none" stroke="#020100" stroke-width="0.5061" stroke-miterlimit="10" d="
				M213.036,168.048c-8.126,32.328-49.233,16.585-49.233,16.585l0.799-8.524c0.571,0.325,6.999,1.79,13.536,0.909
				c6.26-0.845,12.618-3.84,14.026-12.047c1.294-7.54-0.063-11.811-2.514-14.134c-5.242-4.974-15.491-1.02-15.491-1.02
				c2.185-11.585,13.498-15.204,23.524-12.087C208.133,140.979,217.183,151.547,213.036,168.048z"/>
		</g>
		<g clip-path="url(#SVGID_2_)">
			<defs>
				<rect id="SVGID_9_" x="-1.498" y="25.666" width="246.995" height="246.994"/>
			</defs>
			<clipPath id="SVGID_10_">
				<use xlink:href="#SVGID_9_"  overflow="visible"/>
			</clipPath>
			<path clip-path="url(#SVGID_10_)" fill="#EC8980" d="M108.081,70.966c-2.205-5.779-5.99-15.155-9.914-14.927
				c-5.212,0.3-7.415,24.187-7.415,24.187l0.184-0.035"/>
			<path clip-path="url(#SVGID_10_)" fill="#EC8980" d="M150.794,79.511c-0.417-3.971-2.669-23.203-7.344-23.472
				c-3.893-0.227-7.832,8.597-10.062,14.421"/>
			<path clip-path="url(#SVGID_10_)" fill="#EC8980" d="M156.578,223.707c0,0,8.735-8.89,14.521-20.414
				c9.083-18.089,13.297-41.131-17.683-35.478c1.577-6.267,2.845-12.323,3.166-17.963c0,0,0.861,0.642,2.451,1.857
				c0,0-1.497-5.238-1.59-8.233c0,0,0.655,1.406,3.086,2.714c0,0-1.497-7.109-1.309-11.877c0.187-4.771,0.975-18.565-1.59-28.998
				c-0.775-3.146,2.432-5.518,2.432-5.518s-3.741-3.834-3.929-6.64c0,0,4.022,1.028,5.612,0.466c0,0-3.181-2.431-4.49-5.236
				c-1.31-2.808-6.781-19.083-35.688-19.083S87.19,85.58,85.88,88.388c-1.309,2.806-4.489,5.236-4.489,5.236
				c1.59,0.563,5.612-0.466,5.612-0.466c-0.187,2.806-3.928,6.64-3.928,6.64s3.206,2.371,2.432,5.518
				c-2.565,10.433-1.777,24.227-1.59,28.998c0.188,4.768-1.309,11.877-1.309,11.877c2.432-1.308,3.086-2.714,3.086-2.714
				c-0.094,2.995-1.589,8.233-1.589,8.233c1.589-1.216,2.449-1.857,2.449-1.857c0.323,5.64,1.592,11.696,3.167,17.963
				c-30.979-5.653-26.766,17.389-17.682,35.478c5.785,11.524,14.521,20.414,14.521,20.414c-4.419-1.685-13.368-0.542-14.681,4.533
				c-1.216,4.695,7.395,4.436,7.395,4.436H102.3c1.111,4.717,2.442,7.758,4.241,7.88c3.158,0.219,4.547-2.126,5.508-7.88h9.518h9.52
				c0.959,5.754,2.35,8.099,5.507,7.88c1.8-0.122,3.131-3.163,4.241-7.88h23.028c0,0,8.61,0.26,7.394-4.436
				C169.945,223.165,160.997,222.022,156.578,223.707"/>
			<path clip-path="url(#SVGID_10_)" fill="#D7685F" d="M113.902,173.964c1.684,2.947,1.519,5.062,1.519,12.146
				c0,4.908-0.101,11.455-0.412,16.353c-0.583,9.211-2.991,29.365-3.132,30.213h19.234c-0.804,0-3.543-46.542-3.543-50.613
				c0-7.087,2.059-4.409,3.037-9.11c0.301-1.448,0.445-2.733,0.455-3.873c0.009-1.194-1.713-1.814-1.973-2.708
				c-0.282-0.964,0.876-2.179,0.341-2.831c-0.745-0.915-2.806,0.721-3.885,0.3c-0.655-0.253-0.254-2.699-0.979-2.808
				c-0.854-0.13-2.184,2.274-3.07,2.304c-0.875,0.027-1.305-2.322-2.147-2.187c-0.301,0.048-0.598,2.633-0.89,2.69
				c-0.856,0.174-1.604-2.029-2.249-1.582c-0.851,0.587,0.228,2.195-0.282,3.102c-0.378,0.671-2.417,0.588-2.62,1.346
				C112.612,169.291,112.886,172.186,113.902,173.964"/>
		</g>
		<g clip-path="url(#SVGID_2_)">
			<defs>
				<path id="SVGID_11_" d="M116.815,67.196c-1.135-1.491-2.913-2.558-2.913-2.558c0.496,1.24-0.013,4.974-0.478,7.181l0.124-1.8
					C91.605,72.693,87.059,86.116,85.88,88.64c-1.309,2.808-4.489,5.238-4.489,5.238c1.59,0.562,5.611-0.467,5.611-0.467
					c-0.187,2.805-3.928,6.64-3.928,6.64s3.205,2.37,2.432,5.518c-2.565,10.433-1.777,24.228-1.591,28.997
					c0.188,4.77-1.308,11.878-1.308,11.878c2.431-1.309,3.086-2.713,3.086-2.713c-0.094,2.993-1.59,8.232-1.59,8.232
					c1.59-1.216,2.449-1.858,2.449-1.858c0.324,5.641,1.592,11.697,3.167,17.965c-30.979-5.654-26.765,17.388-17.681,35.479
					c5.784,11.521,14.521,20.413,14.521,20.413c-4.419-1.685-13.368-0.542-14.681,4.531c-1.216,4.697,7.394,4.437,7.394,4.437H102.3
					l0.018-0.255c1.092,4.495,2.4,7.375,4.15,7.493c5.321,0.364,5.622-6.537,7.305-24.776c1.683-18.24,1.683-38.161,1.683-38.161
					h12.075c0,0,0,19.921,1.683,38.161c1.684,18.239,1.984,25.141,7.307,24.776c1.807-0.123,3.141-3.19,4.255-7.94l0.06,0.702
					h23.028c0,0,8.61,0.261,7.394-4.437c-1.313-5.073-10.261-6.216-14.68-4.531c0,0,8.735-8.892,14.521-20.413
					c9.083-18.091,13.298-41.133-17.681-35.479c1.574-6.268,2.843-12.324,3.166-17.965c0,0,0.86,0.643,2.449,1.858
					c0,0-1.496-5.239-1.589-8.232c0,0,0.654,1.404,3.086,2.713c0,0-1.497-7.108-1.309-11.878c0.187-4.77,0.974-18.564-1.59-28.997
					c-0.774-3.147,2.432-5.518,2.432-5.518s-3.742-3.835-3.928-6.64c0,0,4.021,1.028,5.612,0.467c0,0-3.181-2.431-4.491-5.238
					c-1.22-2.612-6.056-16.911-30.075-18.856c-0.231-2.193-0.119-4.133-0.119-4.133c-1.519,1.013-3.037,2.531-3.037,2.531
					c0-0.507,1.013-6.58,1.013-6.58c-1.518,2.53-3.037,4.556-3.037,4.556c-1.012-3.544-3.542-6.58-3.542-6.58
					C117.951,63.121,116.815,67.196,116.815,67.196"/>
			</defs>
			<clipPath id="SVGID_12_">
				<use xlink:href="#SVGID_11_"  overflow="visible"/>
			</clipPath>
			<path clip-path="url(#SVGID_12_)" fill="#D7685F" d="M144.806,72.903c-1.341-0.759-2.743-1.445-4.189-2.07
				c-0.818-0.354-1.652-0.685-2.5-0.993c-5.034-1.824,3.892-10.273-1.945-10.263c-0.102,0,0.611-15.036-6.073-3.038
				c8.708-10.471-10.521,0-10.629,0c-5.835,0.012-5.096-0.32-10.123,1.52c-0.847,0.311-8.293,3.692-9.11,4.049
				c-1.444,0.63-2.711,3.793-4.05,4.556c-3.943,2.25-9.346,4.363-12.146,7.592c-1.619,1.866-6.44,0.915-7.592,3.037
				c-0.607,1.12-10.671,5.907-11.135,7.086c-1.343,3.414-0.006,15.442,0,19.233c0.007,3.384,16.077,6.414,18.69,11.942
				c0.043,0.025,0.082,0.048,0.125,0.072l0.009-0.04c0.431-0.188,0.849-0.397,1.255-0.625c0.135-0.077,0.26-0.165,0.393-0.244
				c0.266-0.161,0.534-0.32,0.791-0.498c0.149-0.103,0.289-0.22,0.434-0.326c0.231-0.172,0.463-0.341,0.685-0.523
				c0.146-0.118,0.282-0.247,0.423-0.372c0.214-0.187,0.43-0.372,0.638-0.57c0.136-0.13,0.267-0.267,0.4-0.402
				c0.204-0.206,0.409-0.409,0.607-0.622c0.127-0.139,0.25-0.283,0.375-0.423c0.198-0.224,0.396-0.443,0.588-0.674
				c0.114-0.138,0.225-0.279,0.338-0.419c0.199-0.246,0.397-0.493,0.591-0.744c0.095-0.123,0.188-0.251,0.281-0.375
				c0.209-0.278,0.418-0.559,0.621-0.842c0.071-0.099,0.139-0.198,0.21-0.298c0.23-0.326,0.46-0.652,0.686-0.984
				c0.022-0.031,0.045-0.065,0.067-0.097c1.547-2.275,2.997-4.629,4.527-6.729c0.027-0.04,0.055-0.076,0.081-0.114
				c0.236-0.322,0.476-0.637,0.716-0.945c0.048-0.06,0.095-0.119,0.142-0.178c0.229-0.289,0.46-0.568,0.694-0.841
				c0.061-0.07,0.122-0.142,0.183-0.211c0.226-0.258,0.456-0.507,0.688-0.749c0.071-0.074,0.142-0.147,0.214-0.217
				c0.229-0.23,0.46-0.451,0.695-0.663c0.081-0.072,0.162-0.142,0.243-0.212c0.233-0.203,0.472-0.396,0.713-0.577
				c0.086-0.066,0.174-0.13,0.262-0.192c0.243-0.172,0.489-0.339,0.74-0.492c0.094-0.057,0.189-0.108,0.286-0.162
				c0.252-0.144,0.509-0.278,0.772-0.398c0.102-0.047,0.206-0.087,0.308-0.131c0.266-0.111,0.534-0.214,0.811-0.301
				c0.108-0.032,0.22-0.06,0.329-0.09c0.28-0.077,0.564-0.145,0.858-0.194c0.114-0.019,0.233-0.031,0.349-0.046
				c0.298-0.039,0.601-0.071,0.912-0.082c0.121-0.005,0.245,0.002,0.366,0.003c0.319,0,0.642,0.008,0.976,0.04
				c0.124,0.01,0.254,0.035,0.378,0.052c0.343,0.044,0.69,0.094,1.049,0.171c0.126,0.029,0.261,0.069,0.389,0.102
				c0.369,0.092,0.744,0.189,1.13,0.319c0.127,0.041,0.261,0.097,0.389,0.145c0.403,0.143,0.81,0.296,1.232,0.481
				c0.121,0.053,0.249,0.119,0.371,0.177c0.442,0.203,0.889,0.417,1.354,0.667c0.108,0.059,0.225,0.131,0.334,0.191
				c0.49,0.272,0.987,0.559,1.504,0.885c0.076,0.049,0.158,0.107,0.234,0.156c0.561,0.36,1.13,0.738,1.722,1.164h0
				c-0.985-10.319-1.298-20.404,1.92-20.449v0.007c3.238-0.005,2.961,10.103,2.011,20.445h0c0.59-0.427,1.159-0.808,1.718-1.169
				c0.077-0.051,0.158-0.108,0.234-0.158c0.515-0.328,1.011-0.614,1.501-0.888c0.109-0.063,0.224-0.136,0.333-0.194
				c0.463-0.253,0.909-0.468,1.351-0.673c0.122-0.057,0.249-0.125,0.37-0.179c0.421-0.186,0.828-0.339,1.23-0.485
				c0.128-0.047,0.262-0.104,0.389-0.146c0.387-0.13,0.759-0.229,1.13-0.322c0.128-0.033,0.262-0.074,0.389-0.102
				c0.358-0.08,0.704-0.131,1.047-0.178c0.125-0.017,0.255-0.039,0.379-0.053c0.333-0.031,0.655-0.041,0.976-0.043
				c0.121,0,0.245-0.008,0.365-0.003c0.312,0.009,0.614,0.04,0.912,0.078c0.117,0.014,0.235,0.023,0.349,0.044
				c0.294,0.05,0.578,0.116,0.859,0.193c0.11,0.027,0.221,0.055,0.329,0.089c0.277,0.084,0.546,0.187,0.812,0.296
				c0.104,0.043,0.208,0.084,0.31,0.129c0.263,0.12,0.521,0.254,0.774,0.396c0.095,0.054,0.191,0.105,0.286,0.161
				c0.252,0.152,0.499,0.317,0.742,0.49c0.088,0.063,0.177,0.124,0.264,0.189c0.242,0.183,0.481,0.374,0.715,0.576
				c0.081,0.069,0.162,0.138,0.242,0.212c0.236,0.21,0.469,0.429,0.697,0.66c0.072,0.07,0.144,0.141,0.215,0.216
				c0.233,0.241,0.464,0.49,0.691,0.747c0.062,0.068,0.122,0.139,0.183,0.209c0.234,0.272,0.467,0.551,0.697,0.836
				c0.047,0.062,0.094,0.12,0.142,0.181c0.242,0.309,0.482,0.621,0.719,0.943c0.028,0.037,0.056,0.073,0.084,0.111
				c1.537,2.096,2.996,4.444,4.55,6.713c0.023,0.033,0.044,0.066,0.068,0.099c0.227,0.33,0.457,0.656,0.688,0.98
				c0.072,0.1,0.141,0.199,0.212,0.297c0.204,0.284,0.414,0.562,0.623,0.839c0.094,0.124,0.188,0.251,0.283,0.376
				c0.195,0.251,0.395,0.496,0.594,0.742c0.114,0.138,0.226,0.28,0.339,0.416c0.194,0.229,0.393,0.451,0.591,0.674
				c0.125,0.139,0.249,0.283,0.376,0.42c0.198,0.213,0.406,0.416,0.61,0.62c0.134,0.134,0.265,0.271,0.401,0.402
				c0.209,0.197,0.425,0.381,0.64,0.567c0.142,0.121,0.281,0.253,0.425,0.37c0.223,0.183,0.456,0.351,0.687,0.521
				c0.146,0.107,0.287,0.222,0.436,0.323c0.257,0.178,0.526,0.337,0.793,0.497c0.132,0.079,0.259,0.167,0.393,0.241
				c0.408,0.227,0.827,0.436,1.259,0.62l0.008,0.042c0.043-0.024,8.192,3.823,8.236,3.799c2.594-5.537,3.566-13.972,5.568-16.702
				C181.771,90.107,148.757,75.138,144.806,72.903"/>
		</g>
		<g clip-path="url(#SVGID_2_)">
			<defs>
				<rect id="SVGID_13_" x="-1.498" y="25.666" width="246.995" height="246.994"/>
			</defs>
			<clipPath id="SVGID_14_">
				<use xlink:href="#SVGID_13_"  overflow="visible"/>
			</clipPath>
			<path clip-path="url(#SVGID_14_)" fill="#D7685F" d="M147.813,189.148c0.019-2.2,0.207-3.915-0.584-4.59
				c-2.863-2.436-10.872-5.654-13.003-10.436c-2.008-4.503-1.582-8.868,1.198-12.286c2.233-2.748,7.948-6.412,20.488-4.575
				c-2.025,8.604-2.025,11.641-5.062,21.764C149.874,182.277,148.908,186.185,147.813,189.148"/>
			<path clip-path="url(#SVGID_14_)" fill="#D7685F" d="M95.174,189.148c-0.045-2.2-0.973-3.855-0.19-4.538
				c2.833-2.472,10.801-5.788,12.874-10.596c1.952-4.526,1.472-8.889-1.348-12.271c-2.269-2.721-6.411-6.472-18.928-4.482
				c1.013,8.098,3.037,16.197,5.061,21.764C93.828,182.283,94.043,186.197,95.174,189.148"/>
			
				<path clip-path="url(#SVGID_14_)" fill="none" stroke="#000000" stroke-width="0.5061" stroke-linecap="round" stroke-miterlimit="10" d="
				M108.081,70.966c-2.205-5.779-5.99-15.155-9.914-14.927c-5.212,0.3-7.415,24.187-7.415,24.187l0.184-0.035"/>
			
				<path clip-path="url(#SVGID_14_)" fill="none" stroke="#000000" stroke-width="0.5061" stroke-linecap="round" stroke-miterlimit="10" d="
				M150.597,78.557c-0.416-3.969-2.472-22.249-7.146-22.518c-3.893-0.227-7.832,8.597-10.062,14.421"/>
			<path clip-path="url(#SVGID_14_)" d="M127.763,73.008c-0.415-1.173-0.639-2.404-0.781-3.639
				c-0.135-1.239-0.198-2.477-0.174-3.733l0,0l0.393,0.225c-1.069,0.726-2.066,1.595-2.998,2.501l-0.484,0.469l0.052-0.648
				c0.049-0.615,0.142-1.126,0.222-1.688l0.258-1.646l0.536-3.288l0.467,0.173c-0.949,1.571-1.962,3.096-3.052,4.576l-0.298,0.404
				l-0.148-0.487c-0.179-0.587-0.377-1.17-0.627-1.735c-0.245-0.566-0.515-1.124-0.816-1.664c-0.596-1.082-1.285-2.13-2.052-3.087
				l0.445-0.127c-0.383,2.591-0.971,5.13-1.647,7.651l-0.132,0.491l-0.313-0.405c-0.382-0.496-0.829-0.949-1.311-1.362
				c-0.48-0.413-0.999-0.798-1.53-1.131l-0.002-0.001l0.365-0.312c0.231,0.769,0.185,1.479,0.155,2.195
				c-0.044,0.711-0.129,1.416-0.233,2.115c-0.218,1.399-0.485,2.788-0.887,4.144c-0.004,0.017-0.021,0.023-0.037,0.02
				c-0.016-0.004-0.024-0.021-0.02-0.037c0.328-1.365,0.52-2.765,0.664-4.16c0.066-0.698,0.113-1.398,0.12-2.095
				c0-0.687-0.02-1.415-0.23-1.992l-0.25-0.685l0.615,0.372l0.003,0.002c0.571,0.355,1.094,0.749,1.599,1.182
				c0.502,0.431,0.972,0.905,1.383,1.438l-0.445,0.084c0.669-2.496,1.256-5.031,1.633-7.586l0.086-0.576l0.359,0.451
				c0.8,0.999,1.491,2.054,2.105,3.165c0.309,0.554,0.585,1.126,0.837,1.71c0.257,0.581,0.463,1.186,0.649,1.797l-0.446-0.084
				c1.074-1.459,2.084-2.979,3.022-4.533l0.678-1.123l-0.211,1.296l-0.535,3.283l-0.256,1.644c-0.08,0.536-0.175,1.119-0.218,1.611
				l-0.431-0.179c0.96-0.932,1.959-1.807,3.075-2.562l0.427-0.291l-0.034,0.515v0.002c-0.087,1.214-0.09,2.449-0.02,3.675
				c0.078,1.225,0.235,2.45,0.583,3.629c0.01,0.032-0.008,0.065-0.039,0.077C127.808,73.057,127.774,73.039,127.763,73.008"/>
			
				<path clip-path="url(#SVGID_14_)" fill="none" stroke="#000000" stroke-width="0.5061" stroke-linecap="round" stroke-miterlimit="10" d="
				M113.548,70.02C91.605,72.693,87.059,86.116,85.88,88.64c-1.309,2.808-4.49,5.238-4.49,5.238c1.59,0.562,5.612-0.467,5.612-0.467
				c-0.187,2.805-3.928,6.64-3.928,6.64s3.206,2.37,2.432,5.518c-2.565,10.433-1.777,24.228-1.59,28.997
				c0.188,4.77-1.309,11.878-1.309,11.878c2.431-1.309,3.086-2.713,3.086-2.713c-0.094,2.993-1.59,8.232-1.59,8.232
				c1.59-1.216,2.449-1.858,2.449-1.858c0.323,5.641,1.592,11.697,3.167,17.965c-30.979-5.654-26.765,17.388-17.682,35.478
				c5.785,11.522,14.52,20.414,14.52,20.414c-4.419-1.685-13.367-0.542-14.68,4.531c-1.215,4.697,7.394,4.437,7.394,4.437H102.3"/>
			
				<path clip-path="url(#SVGID_14_)" fill="none" stroke="#000000" stroke-width="0.5061" stroke-linecap="round" stroke-miterlimit="10" d="
				M140.836,232.929h23.028c0,0,8.61,0.261,7.394-4.437c-1.313-5.073-10.261-6.216-14.68-4.531c0,0,8.735-8.892,14.521-20.414
				c9.083-18.09,13.298-41.132-17.682-35.478c1.577-6.268,2.845-12.324,3.166-17.965c0,0,0.861,0.643,2.451,1.858
				c0,0-1.497-5.239-1.589-8.232c0,0,0.654,1.404,3.086,2.713c0,0-1.497-7.108-1.309-11.878c0.187-4.77,0.974-18.564-1.59-28.997
				c-0.775-3.147,2.432-5.518,2.432-5.518s-3.741-3.834-3.929-6.64c0,0,4.022,1.028,5.612,0.467c0,0-3.181-2.431-4.49-5.238
				c-1.224-2.622-6.085-17.017-30.33-18.882"/>
			
				<path clip-path="url(#SVGID_14_)" fill="none" stroke="#000000" stroke-width="0.5061" stroke-linecap="round" stroke-miterlimit="10" d="
				M153.633,168.144c-2.224,8.845-5.352,17.384-7.021,26.483c-3.544,19.318-4.77,45.176-10.09,45.54
				c-5.323,0.365-5.623-6.536-7.307-24.775c-1.684-18.24-1.684-38.162-1.684-38.162"/>
			
				<path clip-path="url(#SVGID_14_)" fill="none" stroke="#000000" stroke-width="0.5061" stroke-linecap="round" stroke-miterlimit="10" d="
				M115.456,177.229c0,0,0,19.922-1.684,38.162c-1.684,18.239-1.985,25.14-7.306,24.775s-6.547-26.222-10.091-45.54
				c-1.643-8.952-4.417-18.063-6.625-26.777"/>
			<polyline clip-path="url(#SVGID_14_)" fill="none" stroke="#000000" stroke-width="0.5061" stroke-miterlimit="10" points="
				112.05,232.929 121.568,232.929 131.087,232.929 			"/>
		</g>
		<g clip-path="url(#SVGID_2_)">
			<defs>
				<rect id="SVGID_15_" x="-1.498" y="25.666" width="246.995" height="246.994"/>
			</defs>
			<clipPath id="SVGID_16_">
				<use xlink:href="#SVGID_15_"  overflow="visible"/>
			</clipPath>
			<g opacity="0.05" clip-path="url(#SVGID_16_)">
				<g>
					<defs>
						<rect id="SVGID_17_" x="93.789" y="62.336" width="11.002" height="15.359"/>
					</defs>
					<clipPath id="SVGID_18_">
						<use xlink:href="#SVGID_17_"  overflow="visible"/>
					</clipPath>
					<path clip-path="url(#SVGID_18_)" d="M104.792,71.815c-1.401-3.669-3.803-9.622-6.294-9.477
						c-3.31,0.19-4.708,15.356-4.708,15.356l0.117-0.023"/>
				</g>
			</g>
			<g opacity="0.05" clip-path="url(#SVGID_16_)">
				<g>
					<defs>
						<rect id="SVGID_19_" x="136.171" y="62.166" width="11.642" height="14.113"/>
					</defs>
					<clipPath id="SVGID_20_">
						<use xlink:href="#SVGID_19_"  overflow="visible"/>
					</clipPath>
					<path clip-path="url(#SVGID_20_)" d="M147.813,76.279c-0.262-2.505-2.343-13.939-5.292-14.11
						c-2.456-0.141-4.941,5.426-6.35,9.1"/>
				</g>
			</g>
		</g>
		<g clip-path="url(#SVGID_2_)">
			<defs>
				<path id="SVGID_21_" d="M85.88,88.387c-1.309,2.807-4.489,5.237-4.489,5.237c1.59,0.563,5.611-0.466,5.611-0.466
					c-0.187,2.806-3.928,6.64-3.928,6.64s3.205,2.371,2.432,5.518c-2.565,10.433-1.777,24.227-1.591,28.998
					c0.188,4.768-1.308,11.877-1.308,11.877c2.431-1.309,3.086-2.714,3.086-2.714c-0.094,2.995-1.59,8.233-1.59,8.233
					c1.59-1.216,2.449-1.857,2.449-1.857c0.324,5.64,1.592,11.696,3.167,17.963c-30.979-5.653-26.765,17.389-17.681,35.478
					c5.784,11.524,14.521,20.415,14.521,20.415c-4.419-1.686-13.368-0.543-14.681,4.532c-1.216,4.695,7.394,4.436,7.394,4.436H102.3
					c1.111,4.717,2.442,7.758,4.241,7.881c3.159,0.218,4.548-2.127,5.508-7.881h9.518h0h9.52c0.959,5.754,2.349,8.099,5.507,7.881
					c1.799-0.123,3.131-3.164,4.241-7.881h23.028c0,0,8.61,0.26,7.394-4.436c-1.313-5.075-10.261-6.218-14.68-4.532
					c0,0,8.735-8.891,14.521-20.415c9.083-18.089,13.298-41.131-17.681-35.478c1.574-6.267,2.843-12.323,3.166-17.963
					c0,0,0.86,0.642,2.449,1.857c0,0-1.496-5.238-1.589-8.233c0,0,0.654,1.405,3.086,2.714c0,0-1.497-7.109-1.309-11.877
					c0.187-4.771,0.974-18.565-1.59-28.998c-0.774-3.146,2.432-5.518,2.432-5.518s-3.742-3.834-3.928-6.64
					c0,0,4.021,1.028,5.612,0.466c0,0-3.181-2.431-4.491-5.237c-1.309-2.807-6.781-19.081-35.688-19.081
					C92.662,69.306,87.19,85.58,85.88,88.387"/>
			</defs>
			<clipPath id="SVGID_22_">
				<use xlink:href="#SVGID_21_"  overflow="visible"/>
			</clipPath>
			<g opacity="0.05" clip-path="url(#SVGID_22_)">
				<g>
					<defs>
						<rect id="SVGID_23_" x="49.875" y="58.786" width="133.114" height="201.347"/>
					</defs>
					<clipPath id="SVGID_24_">
						<use xlink:href="#SVGID_23_"  overflow="visible"/>
					</clipPath>
					<path clip-path="url(#SVGID_24_)" d="M110.865,64.132c0,0-36.949,19.739-18.222,106.797c0,0-49.348-10.884-2.53,54.154
						c0,0-24.621,2.457-12.654,11.136c33.152,24.041,91.358-1.266,91.358-1.266s7.086-9.616-16.196-9.616
						c0,0,46.059-61.749-3.037-53.65c0,0,20.245-86.55-15.185-104.771c-8.263-4.249,24.295-3.038,24.295-3.038l24.294,146.274
						l-6.579,36.948c0,0-112.363,19.74-114.388,10.629c-2.024-9.11-12.147-48.589-12.147-48.589s11.135-89.081,10.629-93.636
						c-0.506-4.555,9.616-56.181,10.629-56.688C72.146,58.313,110.865,64.132,110.865,64.132"/>
				</g>
			</g>
		</g>
		<g clip-path="url(#SVGID_2_)">
			<defs>
				<rect id="SVGID_25_" x="-1.498" y="25.666" width="246.995" height="246.994"/>
			</defs>
			<clipPath id="SVGID_26_">
				<use xlink:href="#SVGID_25_"  overflow="visible"/>
			</clipPath>
			<path clip-path="url(#SVGID_26_)" fill="#FFFFFF" d="M100.555,83.365c-6.437,0-11.657,5.218-11.657,11.657
				c0,6.437,5.22,11.655,11.657,11.655c6.438,0,11.656-5.219,11.656-11.655C112.211,88.583,106.992,83.365,100.555,83.365"/>
			
				<circle clip-path="url(#SVGID_26_)" fill="none" stroke="#000000" stroke-width="0.7967" stroke-linecap="round" stroke-linejoin="round" cx="100.555" cy="95.021" r="11.656"/>
			<path clip-path="url(#SVGID_26_)" fill="#F7DF5A" d="M111.371,94.511c0,4.582-3.714,8.296-8.295,8.296
				c-4.582,0-8.295-3.714-8.295-8.296s3.714-8.296,8.295-8.296C107.657,86.215,111.371,89.929,111.371,94.511"/>
			<path clip-path="url(#SVGID_26_)" fill="#31323C" d="M109.565,94.262c0,3.502-2.839,6.34-6.341,6.34
				c-3.501,0-6.341-2.838-6.341-6.34c0-3.503,2.839-6.341,6.341-6.341C106.727,87.921,109.565,90.759,109.565,94.262"/>
			<path clip-path="url(#SVGID_26_)" fill="#FFFFFF" d="M107.868,88.706c0,1.688-1.369,3.057-3.057,3.057
				c-1.688,0-3.057-1.369-3.057-3.057c0-1.688,1.37-3.058,3.057-3.058C106.5,85.648,107.868,87.018,107.868,88.706"/>
			<path clip-path="url(#SVGID_26_)" fill="#FFFFFF" d="M141.802,83.365c-6.438,0-11.657,5.218-11.657,11.657
				c0,6.437,5.22,11.655,11.657,11.655c6.437,0,11.656-5.219,11.656-11.655C153.458,88.583,148.239,83.365,141.802,83.365"/>
			
				<circle clip-path="url(#SVGID_26_)" fill="none" stroke="#000000" stroke-width="0.7967" stroke-linecap="round" stroke-linejoin="round" cx="141.802" cy="95.021" r="11.656"/>
			<path clip-path="url(#SVGID_26_)" fill="#F7DF5A" d="M152.875,95.017c0,4.581-3.714,8.295-8.296,8.295s-8.295-3.714-8.295-8.295
				c0-4.582,3.713-8.296,8.295-8.296S152.875,90.435,152.875,95.017"/>
			<path clip-path="url(#SVGID_26_)" fill="#31323C" d="M151.069,94.768c0,3.502-2.839,6.341-6.341,6.341
				c-3.501,0-6.34-2.839-6.34-6.341s2.839-6.341,6.34-6.341C148.23,88.427,151.069,91.266,151.069,94.768"/>
			<path clip-path="url(#SVGID_26_)" fill="#FFFFFF" d="M150.383,89.213c0,1.688-1.368,3.057-3.056,3.057
				c-1.688,0-3.058-1.368-3.058-3.057c0-1.689,1.369-3.059,3.058-3.059C149.015,86.154,150.383,87.523,150.383,89.213"/>
			
				<line clip-path="url(#SVGID_26_)" fill="none" stroke="#393C3D" stroke-width="1.0123" stroke-miterlimit="10" x1="121.494" y1="107.154" x2="121.494" y2="129.93"/>
			<path clip-path="url(#SVGID_26_)" fill="#393C3D" d="M124.024,112.216h-4.555c-3.062,0-5.567-2.506-5.567-5.568
				c0-3.061,2.505-5.567,5.567-5.567h4.555c3.063,0,5.568,2.507,5.568,5.567C129.592,109.71,127.086,112.216,124.024,112.216"/>
			
				<line clip-path="url(#SVGID_26_)" fill="none" stroke="#393C3D" stroke-width="1.0123" stroke-linecap="round" stroke-miterlimit="10" x1="118.457" y1="129.93" x2="124.531" y2="129.93"/>
		</g>
	</g>
</g>
</svg>
