<?xml version="1.0" encoding="utf-8"?>
<!-- Generator: Adobe Illustrator 16.0.0, SVG Export Plug-In . SVG Version: 6.00 Build 0)  -->
<!DOCTYPE svg PUBLIC "-//W3C//DTD SVG 1.1//EN" "http://www.w3.org/Graphics/SVG/1.1/DTD/svg11.dtd">
<svg version="1.1" id="图层_1" xmlns="http://www.w3.org/2000/svg" xmlns:xlink="http://www.w3.org/1999/xlink" x="0px" y="0px"
	 width="73px" height="73px" viewBox="63.5 63.5 73 73" enable-background="new 63.5 63.5 73 73" xml:space="preserve">
<path fill-rule="evenodd" clip-rule="evenodd" fill="#C25955" d="M77.103,77.629h45.637c4.01,0,7.261,3.235,7.261,7.226
	c0,3.991-3.251,7.226-7.261,7.226H77.103c-4.01,0-7.261-3.234-7.261-7.226C69.842,80.864,73.093,77.629,77.103,77.629z"/>
<path fill-rule="evenodd" clip-rule="evenodd" fill="#C25955" d="M77.103,110.049h45.637c4.01,0,7.261,3.235,7.261,7.226
	c0,3.991-3.251,7.226-7.261,7.226H77.103c-4.01,0-7.261-3.234-7.261-7.226C69.842,113.284,73.093,110.049,77.103,110.049z"/>
</svg>
