<?xml version="1.0" encoding="utf-8"?>
<!-- Generator: Adobe Illustrator 16.0.0, SVG Export Plug-In . SVG Version: 6.00 Build 0)  -->
<!DOCTYPE svg PUBLIC "-//W3C//DTD SVG 1.1//EN" "http://www.w3.org/Graphics/SVG/1.1/DTD/svg11.dtd">
<svg version="1.1" id="图层_1" xmlns="http://www.w3.org/2000/svg" xmlns:xlink="http://www.w3.org/1999/xlink" x="0px" y="0px"
	 width="350px" height="350px" viewBox="0 0 350 350" enable-background="new 0 0 350 350" xml:space="preserve">
<title>kitty-love-3</title>
<circle fill="#E5EEC4" cx="174.5" cy="178" r="130"/>
<ellipse opacity="0.1" cx="176.5" cy="223.77" rx="36.82" ry="8.23"/>
<path fill="#FFFFFF" d="M213.29,187.689c0,24-16.47,37.261-36.79,37.261c-20.32,0-36.79-13.25-36.79-37.261
	C139.71,163.68,160,138,176.5,138S213.29,163.68,213.29,187.689L213.29,187.689z"/>
<path fill="none" d="M213.29,187.689c0,24-16.47,37.261-36.79,37.261c-20.32,0-36.79-13.25-36.79-37.261
	C139.71,163.68,160,138,176.5,138S213.29,163.68,213.29,187.689L213.29,187.689z"/>
<g>
	<defs>
		<path id="SVGID_1_" d="M213.29,187.689c0,24-16.47,37.261-36.79,37.261c-20.32,0-36.79-13.25-36.79-37.261
			C139.71,163.68,160,138,176.5,138S213.29,163.68,213.29,187.689L213.29,187.689z"/>
	</defs>
	<clipPath id="SVGID_2_">
		<use xlink:href="#SVGID_1_"  overflow="visible"/>
	</clipPath>
	<g clip-path="url(#SVGID_2_)">
		<linearGradient id="SVGID_3_" gradientUnits="userSpaceOnUse" x1="184.1797" y1="180.04" x2="201.8799" y2="180.04">
			<stop  offset="0" style="stop-color:#FFE9B8"/>
			<stop  offset="1" style="stop-color:#E0C78D"/>
		</linearGradient>
		<ellipse fill="url(#SVGID_3_)" cx="193.029" cy="180.04" rx="8.851" ry="10.03"/>
		<linearGradient id="SVGID_4_" gradientUnits="userSpaceOnUse" x1="163.46" y1="197" x2="172.7798" y2="197">
			<stop  offset="0" style="stop-color:#FFE9B8"/>
			<stop  offset="1" style="stop-color:#E0C78D"/>
		</linearGradient>
		<ellipse fill="url(#SVGID_4_)" cx="168.12" cy="197" rx="4.66" ry="4.779"/>
		<linearGradient id="SVGID_5_" gradientUnits="userSpaceOnUse" x1="166.2598" y1="167.8604" x2="174.6401" y2="167.8604">
			<stop  offset="0" style="stop-color:#FFE9B8"/>
			<stop  offset="1" style="stop-color:#E0C78D"/>
		</linearGradient>
		<ellipse fill="url(#SVGID_5_)" cx="170.45" cy="167.86" rx="4.19" ry="4.3"/>
		<linearGradient id="SVGID_6_" gradientUnits="userSpaceOnUse" x1="156.0098" y1="146.1201" x2="169.5098" y2="146.1201">
			<stop  offset="0" style="stop-color:#FFE9B8"/>
			<stop  offset="1" style="stop-color:#E0C78D"/>
		</linearGradient>
		<ellipse fill="url(#SVGID_6_)" cx="162.76" cy="146.12" rx="6.75" ry="7.41"/>
		<linearGradient id="SVGID_7_" gradientUnits="userSpaceOnUse" x1="178.1846" y1="148.2881" x2="201.2305" y2="148.2881">
			<stop  offset="0" style="stop-color:#FFE9B8"/>
			<stop  offset="1" style="stop-color:#E0C78D"/>
		</linearGradient>
		<path fill="url(#SVGID_7_)" d="M184,137.76c-4.189,8.6-7.721,18.54-4.66,20.54c5.131,3.35,16.77-10.51,21.891-15.28"/>
		<linearGradient id="SVGID_8_" gradientUnits="userSpaceOnUse" x1="134.5898" y1="171.4941" x2="159.9751" y2="171.4941">
			<stop  offset="0" style="stop-color:#FFE9B8"/>
			<stop  offset="1" style="stop-color:#E0C78D"/>
		</linearGradient>
		<path fill="url(#SVGID_8_)" d="M144.37,154.48c7.92,7.17,23.57,28.049,10.71,33.44c-10.24,4.301-19.09-16.24-20.49-20.06"/>
		<linearGradient id="SVGID_9_" gradientUnits="userSpaceOnUse" x1="146" y1="218.2891" x2="209.79" y2="218.2891">
			<stop  offset="0" style="stop-color:#FFE9B8"/>
			<stop  offset="1" style="stop-color:#E0C78D"/>
		</linearGradient>
		<path fill="url(#SVGID_9_)" d="M146,213.25c14.9-5.74,18.9-2,26.54,1.91c5.59,2.859,11.64-6.689,17.7-8.6
			c6.06-1.91,11.64-1,19.55,4.77l-17.69,19.59h-27L146,213.25z"/>
		<linearGradient id="SVGID_10_" gradientUnits="userSpaceOnUse" x1="137.0898" y1="187.1797" x2="205.6406" y2="187.1797">
			<stop  offset="0" style="stop-color:#FFE9B8"/>
			<stop  offset="1" style="stop-color:#E0C78D"/>
		</linearGradient>
		<path opacity="0.12" fill="url(#SVGID_10_)" enable-background="new    " d="M162.88,143.73c-14.81,20.07-20.54,46.34-6.68,62.11
			c12.6,14.34,39.649,11.311,49.44,6.131v18.709H137.09v-87L162.88,143.73z"/>
	</g>
</g>
<path fill="none" stroke="#000000" stroke-width="2.358" stroke-miterlimit="10" d="M213.29,187.689c0,24-16.47,37.261-36.79,37.261
	c-20.32,0-36.79-13.25-36.79-37.261C139.71,163.68,160,138,176.5,138S213.29,163.68,213.29,187.689L213.29,187.689z"/>
</svg>
