<?xml version="1.0" encoding="utf-8"?>
<!-- Generator: Adobe Illustrator 16.0.0, SVG Export Plug-In . SVG Version: 6.00 Build 0)  -->
<!DOCTYPE svg PUBLIC "-//W3C//DTD SVG 1.1//EN" "http://www.w3.org/Graphics/SVG/1.1/DTD/svg11.dtd">
<svg version="1.1" xmlns="http://www.w3.org/2000/svg" xmlns:xlink="http://www.w3.org/1999/xlink" x="0px" y="0px" width="350px"
	 height="350px" viewBox="0 0 350 350" enable-background="new 0 0 350 350" xml:space="preserve">
<g id="图层_1">
	<circle fill="#FBEEC0" cx="174.5" cy="178" r="130"/>
</g>
<g id="图层_3">
	<g>
		<g>
			<defs>
				<circle id="SVGID_1_" cx="174.5" cy="178.096" r="130.096"/>
			</defs>
			<clipPath id="SVGID_2_">
				<use xlink:href="#SVGID_1_"  overflow="visible"/>
			</clipPath>
			<g clip-path="url(#SVGID_2_)">
				<g>
					<g>
						<defs>
							<rect id="SVGID_3_" x="1.303" y="3.233" width="348.436" height="485.512"/>
						</defs>
						<clipPath id="SVGID_4_">
							<use xlink:href="#SVGID_3_"  overflow="visible"/>
						</clipPath>
						<rect x="349.743" y="3.233" clip-path="url(#SVGID_4_)" fill="#CCCCCC" width="348.439" height="485.512"/>
					</g>
					<path fill="#616C71" d="M123.544,136.564c0,0,3.842-58.256,12.937-58.992c9.091-0.735,21.331,49.686,21.331,49.686
						L123.544,136.564z"/>
					<g>
						<g opacity="0.3">
							<g>
								<defs>
									<rect id="SVGID_5_" x="130.6" y="89.565" width="19.869" height="43.388"/>
								</defs>
								<clipPath id="SVGID_6_">
									<use xlink:href="#SVGID_5_"  overflow="visible"/>
								</clipPath>
								<path clip-path="url(#SVGID_6_)" fill="#040000" d="M130.6,132.954c0,0,5.148-43.145,7.141-43.388
									c1.996-0.245,12.728,36.226,12.728,36.226L130.6,132.954z"/>
							</g>
						</g>
						<path fill="#616C71" d="M229.3,136.564c0,0-3.844-58.256-12.937-58.992c-9.091-0.735-21.333,49.686-21.333,49.686
							L229.3,136.564z"/>
						<g>
							<g opacity="0.3">
								<g>
									<defs>
										<rect id="SVGID_7_" x="202.376" y="89.565" width="19.869" height="43.388"/>
									</defs>
									<clipPath id="SVGID_8_">
										<use xlink:href="#SVGID_7_"  overflow="visible"/>
									</clipPath>
									<path clip-path="url(#SVGID_8_)" fill="#040000" d="M222.245,132.954c0,0-5.146-43.145-7.14-43.388
										c-1.999-0.245-12.728,36.226-12.728,36.226L222.245,132.954z"/>
								</g>
							</g>
							<path fill="#616C71" d="M243.426,307.118c0,0,33.181-0.791,40.289-29.759c7.11-28.97-6.583-59.518-6.583-59.518
								s42.923,16.851,40.815,52.67c0,0,10.535,1.58-3.157,15.536c0,0,9.218,2.372-2.37,9.481c0,0,13.599,13.868-28.444,25.548
								c-23.699,6.581-42.719,0.56-42.719,0.56L243.426,307.118z"/>
							<path fill="none" stroke="#050101" stroke-width="0.8844" stroke-miterlimit="10" d="M243.426,308.001
								c0,0,33.181-0.79,40.289-29.76c7.11-28.969-6.583-59.515-6.583-59.515s42.923,16.852,40.815,52.669
								c0,0,10.535,1.583-3.157,15.54c0,0,9.218,2.366-2.37,9.48c0,0,13.599,13.864-28.444,25.546
								c-23.699,6.58-42.719,0.559-42.719,0.559L243.426,308.001z"/>
							<path fill="#616C71" d="M161.374,402.963c1.768,0,7.076-63.678,6.189-92.86c-0.775-25.648,0,0,0,0"/>
							<path fill="#263135" d="M272.621,297.284c-0.18-0.295-0.384-0.576-0.577-0.863c-12.212,10.306-28.622,10.699-28.622,10.699
								l-2.165,14.517c0,0,14.521,4.595,33.995,1.367C277.084,313.647,276.976,304.336,272.621,297.284"/>
							<path fill="#616C71" d="M237.499,387.084c0,0,15.239-15.514,25.336-35.617c16.481-32.837,23.786-75.03-37.696-60.46h-48.717
								h-48.716c-61.485-14.57-54.182,27.623-37.695,60.46c10.096,20.104,25.336,35.617,25.336,35.617
								c-7.711-2.938-23.321-0.947-25.612,7.904c-2.12,8.192,12.901,7.739,12.901,7.739h73.787h73.792
								c0,0,15.014,0.453,12.896-7.739C260.818,386.137,245.208,384.14,237.499,387.084"/>
							<path fill="#263135" d="M162.8,309.773v-18.761h-35.094c-3.167-0.753-6.144-1.348-8.958-1.802
								c1.251,5.019,2.625,10.129,4.025,15.336c2.901,10.789,5.903,21.941,7.9,32.835c1.836,10.01,3.313,21.004,4.74,31.633
								c1.892,14.121,3.493,25.47,5.393,33.713h20.99c0.976-5.987,1.702-13.94,2.618-23.975c0.155-1.706,0.318-3.479,0.486-5.322
								c2.407-26.074,2.847-54.413,2.929-63.657H162.8z"/>
							<path fill="#263135" d="M225.141,291.013h-35.098v18.761h-5.026c0.08,9.244,0.519,37.583,2.928,63.657
								c0.17,1.838,0.331,3.607,0.485,5.312c0.915,10.034,1.643,17.996,2.615,23.985h20.994c1.895-8.245,3.5-19.592,5.395-33.713
								c1.426-10.629,2.9-21.623,4.735-31.633c1.999-10.892,4.998-22.051,7.899-32.835c1.401-5.205,2.775-10.317,4.029-15.336
								C231.287,289.665,228.311,290.258,225.141,291.013"/>
							<path fill="#616C71" d="M244.396,251.845c0,0-2.611-12.401-2.286-20.727c0.325-8.318,1.696-32.383-2.775-50.579
								c-1.351-5.49,4.241-9.629,4.241-9.629s-6.523-6.691-6.856-11.583c0,0,7.021,1.795,9.797,0.814c0,0-5.549-4.241-7.836-9.138
								c-2.284-4.895-11.827-33.287-62.259-33.287c-50.431,0-59.976,28.392-62.259,33.287c-2.284,4.897-7.832,9.138-7.832,9.138
								c2.773,0.98,9.791-0.814,9.791-0.814c-0.326,4.892-6.851,11.583-6.851,11.583s5.593,4.139,4.241,9.629
								c-4.475,18.198-3.1,42.266-2.772,50.579c0.325,8.325-2.283,20.727-2.283,20.727c4.24-2.282,5.382-4.73,5.382-4.73
								c-0.162,5.218-2.774,14.361-2.774,14.361c2.774-2.123,4.274-3.241,4.274-3.241c1.355,23.719,12.291,51.671,17.266,78.793
								c6.183,33.704,8.321,78.812,17.607,79.45c9.283,0.635,9.807-11.41,12.745-43.228c2.938-31.824,2.938-66.579,2.938-66.579
								h10.532h10.533c0,0,0,34.755,2.936,66.579c2.938,31.817,3.466,43.86,12.747,43.228c9.284-0.641,11.419-45.749,17.607-79.45
								c4.973-27.122,15.907-55.074,17.267-78.793c0,0,1.5,1.118,4.274,3.241c0,0-2.614-9.141-2.774-14.361
								C239.01,247.114,240.153,249.563,244.396,251.845"/>
							<g>
								<g opacity="0.07">
									<g>
										<defs>
											<rect id="SVGID_9_" x="170.789" y="116.829" width="75.062" height="299.245"/>
										</defs>
										<clipPath id="SVGID_10_">
											<use xlink:href="#SVGID_9_"  overflow="visible"/>
										</clipPath>
										<path clip-path="url(#SVGID_10_)" fill="#040000" d="M245.854,159.322c0,0-5.555-4.25-7.843-9.152
											c-2.289-4.905-11.847-33.341-62.359-33.341c-1.664,0-3.284,0.031-4.861,0.091c46.262,1.762,55.276,28.508,57.491,33.25
											c2.288,4.901,7.846,9.152,7.846,9.152c-2.778,0.98-9.808-0.818-9.808-0.818c0.328,4.9,6.864,11.601,6.864,11.601
											s-5.601,4.145-4.25,9.646c4.481,18.228,3.105,42.327,2.779,50.664c-0.324,8.332,2.291,20.754,2.291,20.754
											c-4.25-2.287-5.396-4.742-5.396-4.742c0.161,5.231,2.781,14.384,2.781,14.384c-2.781-2.129-4.283-3.249-4.283-3.249
											c-1.358,23.758-12.312,51.757-17.292,78.913c-5.308,28.939-7.642,66.266-14.054,76.736
											c1.493,2.131,3.449,3.023,6.149,2.837c9.299-0.631,11.443-45.812,17.634-79.573c4.983-27.156,15.936-55.155,17.29-78.913
											c0,0,1.507,1.122,4.28,3.249c0,0-2.61-9.152-2.773-14.384c0,0,1.139,2.455,5.389,4.742c0,0-2.615-12.419-2.286-20.754
											c0.323-8.337,1.704-32.437-2.781-50.664c-1.351-5.5,4.248-9.646,4.248-9.646s-6.531-6.701-6.862-11.601
											C236.047,158.506,243.076,160.302,245.854,159.322"/>
									</g>
								</g>
								<g id="图层_3_1_">
									<g opacity="0.05">
										<g>
											<defs>
												<rect id="SVGID_11_" x="106.336" y="117.316" width="140.402" height="299.247"/>
											</defs>
											<defs>
												<rect id="SVGID_12_" x="106.336" y="117.316" width="140.402" height="299.247"/>
											</defs>
											<defs>
												<rect id="SVGID_13_" x="106.336" y="117.316" width="140.402" height="299.247"/>
											</defs>
											<clipPath id="SVGID_14_">
												<use xlink:href="#SVGID_11_"  overflow="visible"/>
											</clipPath>
											<clipPath id="SVGID_15_" clip-path="url(#SVGID_14_)">
												<use xlink:href="#SVGID_12_"  overflow="visible"/>
											</clipPath>
											<clipPath id="SVGID_16_" clip-path="url(#SVGID_15_)">
												<use xlink:href="#SVGID_13_"  overflow="visible"/>
											</clipPath>
											<path clip-path="url(#SVGID_16_)" fill="#040000" d="M245.78,159.022c0.021,0.316,0.073,0.644,0.143,0.973
												c0.298-0.047,0.577-0.104,0.815-0.188C246.738,159.807,246.368,159.523,245.78,159.022"/>
											<path clip-path="url(#SVGID_16_)" fill="#040000" d="M116.139,159.022c1.691-1.446,5.19-4.725,6.885-8.367
												c2.22-4.756,11.285-31.657,57.935-33.264c-1.439-0.048-2.909-0.077-4.422-0.077c-50.506,0-60.068,28.437-62.356,33.339
												c-2.286,4.899-7.842,9.151-7.842,9.151c2.777,0.982,9.804-0.82,9.804-0.82
												C116.141,158.998,116.139,159.01,116.139,159.022"/>
											<path clip-path="url(#SVGID_16_)" fill="#040000" d="M141.494,336.968c-4.984-27.161-15.936-55.158-17.292-78.915
												c0,0-1.502,1.119-4.283,3.243c0,0,2.616-9.147,2.78-14.382c0,0-1.146,2.453-5.395,4.739c0,0,2.614-12.422,2.288-20.756
												c-0.327-8.336-1.703-32.437,2.776-50.662c1.355-5.496-4.251-9.645-4.251-9.645s6.539-6.699,6.864-11.601
												c0,0-5.858,1.497-8.991,1.004c-1.024,4.763-6.716,10.597-6.716,10.597s5.601,4.149,4.25,9.645
												c-4.482,18.226-3.106,42.326-2.778,50.662c0.327,8.334-2.29,20.756-2.29,20.756c4.25-2.286,5.395-4.739,5.395-4.739
												c-0.163,5.231-2.778,14.382-2.778,14.382c2.778-2.124,4.281-3.243,4.281-3.243c1.36,23.757,12.312,51.754,17.295,78.915
												c6.191,33.755,8.335,78.936,17.632,79.57c2.418,0.167,4.24-0.54,5.669-2.217
												C149.23,404.785,146.912,366.5,141.494,336.968"/>
										</g>
									</g>
									<path fill="#263135" d="M136.042,232.869c0,0,0.176,0.212,0.462,0.579c0.137,0.188,0.316,0.408,0.501,0.672
										c0.188,0.26,0.409,0.543,0.628,0.868c0.457,0.636,0.96,1.381,1.495,2.181c0.531,0.798,1.096,1.647,1.661,2.493
										c0.264,0.433,0.572,0.829,0.839,1.252c0.282,0.407,0.568,0.804,0.829,1.198c0.278,0.381,0.551,0.747,0.796,1.106
										c0.268,0.334,0.518,0.663,0.744,0.977c0.243,0.297,0.465,0.567,0.661,0.813c0.195,0.252,0.388,0.443,0.539,0.614
										c0.309,0.34,0.485,0.564,0.485,0.564s-0.26-0.074-0.703-0.241c-0.221-0.087-0.511-0.179-0.788-0.351
										c-0.287-0.163-0.623-0.337-0.964-0.565c-0.329-0.238-0.681-0.505-1.05-0.796c-0.342-0.316-0.703-0.655-1.062-1.011
										c-0.333-0.38-0.695-0.763-1.018-1.183c-0.319-0.418-0.651-0.841-0.939-1.295c-0.29-0.45-0.583-0.894-0.832-1.354
										c-0.263-0.457-0.498-0.917-0.706-1.368c-0.429-0.903-0.757-1.774-0.999-2.532c-0.235-0.767-0.391-1.42-0.474-1.883
										C136.064,233.139,136.042,232.869,136.042,232.869"/>
									<path fill="#263135" d="M147.837,238.957c0,0,0.118,0.208,0.296,0.567c0.088,0.188,0.208,0.402,0.319,0.652
										c0.116,0.25,0.264,0.529,0.396,0.832c0.277,0.603,0.599,1.304,0.947,2.056c0.081,0.185,0.167,0.371,0.254,0.566
										c0.093,0.185,0.184,0.378,0.268,0.568c0.171,0.391,0.373,0.767,0.554,1.153c0.184,0.386,0.395,0.75,0.574,1.134
										c0.216,0.348,0.396,0.723,0.601,1.063c0.215,0.325,0.394,0.677,0.599,0.972c0.213,0.297,0.394,0.602,0.584,0.859
										c0.199,0.25,0.379,0.494,0.538,0.715c0.163,0.219,0.334,0.38,0.459,0.536c0.264,0.298,0.409,0.5,0.409,0.5
										s-0.227-0.045-0.623-0.173c-0.19-0.072-0.455-0.129-0.704-0.271c-0.258-0.133-0.551-0.293-0.861-0.48
										c-0.298-0.199-0.595-0.454-0.916-0.717c-0.317-0.27-0.594-0.602-0.902-0.931c-0.29-0.346-0.552-0.725-0.821-1.112
										c-0.238-0.396-0.479-0.81-0.695-1.23c-0.187-0.43-0.402-0.849-0.546-1.287c-0.163-0.431-0.302-0.865-0.405-1.287
										c-0.231-0.843-0.343-1.651-0.406-2.351c-0.046-0.694-0.04-1.278-0.003-1.689
										C147.784,239.193,147.837,238.957,147.837,238.957"/>
									<path fill="#263135" d="M157.477,241.495c0,0,0.12,0.169,0.298,0.474c0.182,0.302,0.422,0.733,0.689,1.247
										c0.264,0.522,0.554,1.12,0.836,1.767c0.152,0.313,0.286,0.657,0.434,0.989c0.153,0.33,0.279,0.678,0.433,1.015
										c0.137,0.344,0.284,0.674,0.427,1.006c0.135,0.336,0.277,0.65,0.414,0.968c0.128,0.315,0.282,0.603,0.406,0.895
										c0.118,0.292,0.273,0.534,0.389,0.788c0.113,0.26,0.255,0.454,0.366,0.66c0.057,0.103,0.112,0.197,0.159,0.288
										c0.058,0.078,0.113,0.154,0.161,0.219c0.195,0.276,0.313,0.461,0.313,0.461s-0.195-0.031-0.545-0.145
										c-0.087-0.032-0.187-0.067-0.295-0.105c-0.101-0.043-0.196-0.107-0.307-0.172c-0.217-0.132-0.494-0.262-0.718-0.476
										c-0.229-0.203-0.517-0.419-0.738-0.681c-0.23-0.276-0.492-0.554-0.698-0.873c-0.218-0.309-0.44-0.641-0.619-0.995
										c-0.201-0.349-0.366-0.713-0.52-1.082c-0.159-0.369-0.291-0.741-0.411-1.119c-0.128-0.369-0.214-0.742-0.299-1.104
										c-0.159-0.728-0.25-1.415-0.283-2.01c-0.031-0.6-0.011-1.104,0.025-1.457C157.431,241.697,157.477,241.495,157.477,241.495
										"/>
									<path fill="#263135" d="M193.241,245.042c0,0,0.033,0.143,0.046,0.388c0.017,0.232,0.021,0.57-0.029,0.955
										c-0.05,0.386-0.148,0.824-0.308,1.267c-0.155,0.451-0.372,0.909-0.64,1.342c-0.145,0.212-0.277,0.424-0.441,0.622
										c-0.166,0.201-0.328,0.39-0.514,0.557c-0.188,0.173-0.363,0.331-0.569,0.46c-0.191,0.135-0.383,0.25-0.585,0.335
										c-0.189,0.087-0.372,0.155-0.557,0.185c-0.181,0.035-0.316,0.062-0.46,0.045c-0.263-0.018-0.39-0.061-0.39-0.061
										s0.103-0.132,0.229-0.297c0.071-0.07,0.131-0.212,0.209-0.321c0.074-0.116,0.147-0.255,0.225-0.41
										c0.08-0.141,0.162-0.307,0.251-0.48c0.087-0.169,0.18-0.348,0.278-0.53c0.107-0.175,0.197-0.38,0.312-0.563
										c0.11-0.192,0.226-0.39,0.344-0.578c0.486-0.769,1.054-1.521,1.586-2.054c0.263-0.267,0.509-0.485,0.697-0.63
										C193.115,245.123,193.241,245.042,193.241,245.042"/>
									<path fill="#263135" d="M201.609,240.477c0,0,0.025,0.198,0.011,0.536c-0.004,0.34-0.052,0.817-0.152,1.373
										c-0.112,0.554-0.28,1.191-0.534,1.849c-0.127,0.327-0.266,0.661-0.434,0.995c-0.152,0.336-0.349,0.656-0.538,0.986
										c-0.195,0.322-0.418,0.633-0.639,0.932c-0.226,0.301-0.468,0.578-0.707,0.845c-0.255,0.258-0.507,0.496-0.758,0.713
										c-0.266,0.203-0.523,0.39-0.761,0.556c-0.254,0.145-0.487,0.272-0.7,0.377c-0.209,0.112-0.423,0.162-0.582,0.22
										c-0.326,0.1-0.521,0.135-0.521,0.135s0.106-0.185,0.289-0.455c0.092-0.137,0.21-0.282,0.323-0.479
										c0.119-0.193,0.248-0.398,0.396-0.61c0.139-0.232,0.287-0.476,0.451-0.722c0.156-0.255,0.31-0.528,0.489-0.795
										c0.163-0.286,0.335-0.568,0.516-0.853c0.163-0.301,0.364-0.584,0.534-0.886c0.184-0.297,0.367-0.594,0.547-0.881
										c0.188-0.294,0.369-0.575,0.55-0.86c0.367-0.551,0.712-1.074,1.035-1.514C201.067,241.056,201.609,240.477,201.609,240.477
										"/>
									<path fill="#263135" d="M206.303,240.477c0,0,0.062,0.159,0.121,0.438c0.063,0.28,0.125,0.673,0.147,1.139
										c0.052,0.939-0.096,2.174-0.514,3.348c-0.206,0.584-0.472,1.155-0.794,1.66c-0.151,0.258-0.34,0.489-0.512,0.704
										c-0.17,0.219-0.38,0.399-0.56,0.568c-0.168,0.168-0.382,0.298-0.55,0.402c-0.085,0.052-0.164,0.105-0.241,0.146
										c-0.086,0.031-0.164,0.063-0.232,0.09c-0.273,0.104-0.435,0.132-0.435,0.132s0.061-0.17,0.169-0.419
										c0.06-0.113,0.113-0.266,0.166-0.441c0.061-0.172,0.136-0.345,0.194-0.558c0.057-0.209,0.142-0.405,0.207-0.651
										c0.068-0.228,0.147-0.471,0.224-0.722c0.08-0.249,0.163-0.503,0.25-0.77c0.084-0.263,0.176-0.524,0.268-0.791
										c0.105-0.268,0.188-0.539,0.299-0.796c0.099-0.263,0.197-0.523,0.31-0.774c0.21-0.499,0.434-0.967,0.646-1.369
										c0.21-0.399,0.416-0.733,0.575-0.967C206.191,240.613,206.303,240.477,206.303,240.477"/>
									<path fill="#263135" d="M220.76,227.417c0,0,0.026,0.265,0.015,0.723c-0.005,0.455-0.054,1.104-0.164,1.874
										c-0.058,0.378-0.131,0.794-0.225,1.227c-0.104,0.429-0.202,0.889-0.35,1.352c-0.136,0.462-0.287,0.934-0.476,1.412
										c-0.173,0.479-0.392,0.952-0.599,1.418c-0.215,0.477-0.473,0.931-0.721,1.378c-0.25,0.45-0.551,0.866-0.82,1.273
										c-0.291,0.395-0.599,0.764-0.882,1.112c-0.314,0.331-0.626,0.633-0.909,0.902c-0.299,0.266-0.603,0.474-0.856,0.667
										c-0.246,0.2-0.514,0.315-0.721,0.426c-0.41,0.22-0.649,0.314-0.649,0.314s0.132-0.237,0.396-0.605
										c0.125-0.184,0.284-0.393,0.436-0.66c0.154-0.261,0.328-0.549,0.523-0.864c0.172-0.328,0.368-0.672,0.576-1.032
										c0.188-0.383,0.396-0.765,0.604-1.168c0.194-0.413,0.413-0.83,0.622-1.261c0.197-0.441,0.434-0.863,0.626-1.316
										c0.417-0.891,0.838-1.779,1.231-2.614c0.396-0.839,0.77-1.626,1.114-2.303c0.166-0.341,0.336-0.649,0.479-0.92
										c0.139-0.281,0.281-0.513,0.388-0.717C220.621,227.64,220.76,227.417,220.76,227.417"/>
									<path fill="#263135" d="M238.132,221.075c-0.229,0.98-0.502,1.96-0.821,2.923c-0.318,0.964-0.664,1.917-1.054,2.854
										c-0.392,0.938-0.802,1.874-1.256,2.783c-0.466,0.912-0.95,1.81-1.471,2.693c-0.268,0.432-0.533,0.872-0.822,1.296
										c-0.282,0.436-0.581,0.845-0.891,1.265c-0.306,0.415-0.617,0.828-0.949,1.227c-0.32,0.4-0.67,0.783-1.014,1.176
										c-0.357,0.377-0.706,0.76-1.094,1.113c-0.372,0.363-0.777,0.7-1.172,1.042c-0.418,0.323-0.821,0.657-1.258,0.951
										c-0.424,0.316-0.879,0.586-1.323,0.863l-0.746-1.646c0.404-0.138,0.772-0.253,1.169-0.36
										c0.389-0.113,0.781-0.214,1.18-0.294c0.812-0.157,1.628-0.294,2.55-0.244c0.471,0.044,0.991,0.1,1.574,0.465
										c0.289,0.181,0.571,0.49,0.724,0.852c0.039,0.09,0.074,0.185,0.09,0.271l0.025,0.066l0.016,0.093l0.013,0.067
										c0.013,0.061,0.024,0.2,0.029,0.293c-0.005,0.074-0.005,0.161-0.013,0.236c-0.059,0.612-0.263,1.045-0.457,1.452
										c-0.199,0.398-0.424,0.759-0.648,1.103c-0.475,0.682-0.978,1.304-1.484,1.906c-0.514,0.606-1.04,1.19-1.573,1.763
										c-1.063,1.147-2.145,2.266-3.264,3.349l-1.092-1.442c0.479-0.254,0.94-0.484,1.419-0.718
										c0.477-0.229,0.954-0.455,1.442-0.664c0.978-0.418,1.958-0.834,3.051-1.103c0.274-0.066,0.557-0.123,0.864-0.161
										c0.309-0.03,0.637-0.056,1.062,0.046c0.213,0.055,0.48,0.173,0.705,0.415c0.221,0.245,0.315,0.57,0.323,0.811
										c0.017,0.484-0.119,0.787-0.232,1.074c-0.267,0.582-0.533,0.978-0.804,1.438c-0.275,0.46-0.563,0.894-0.847,1.329
										c-0.285,0.437-0.57,0.863-0.832,1.291c-0.26,0.438-0.506,0.845-0.666,1.273c-0.068,0.211-0.12,0.418-0.114,0.57
										c0.009,0.161,0.027,0.227,0.134,0.319c0.109,0.086,0.31,0.15,0.538,0.184c0.267,0.045,0.483,0.074,0.733,0.086
										c0.976,0.055,1.971-0.127,2.886-0.543c0.916-0.418,1.771-1.024,2.45-1.808c-0.271,0.445-0.615,0.848-0.996,1.211
										c-0.377,0.365-0.801,0.693-1.263,0.966c-0.914,0.556-1.986,0.888-3.085,0.92c-0.273,0.013-0.568,0.004-0.82-0.013
										c-0.283-0.024-0.606-0.065-0.936-0.253c-0.162-0.104-0.314-0.251-0.424-0.426c-0.105-0.182-0.166-0.378-0.188-0.561
										c-0.042-0.367,0.03-0.67,0.104-0.958c0.156-0.557,0.413-1.065,0.654-1.53c0.243-0.474,0.501-0.928,0.747-1.381l0.743-1.351
										c0.229-0.441,0.51-0.93,0.65-1.306c0.072-0.186,0.107-0.396,0.091-0.428c-0.008-0.021,0,0.045,0.043,0.102
										c0.047,0.051,0.071,0.051,0.03,0.047c-0.068-0.016-0.277-0.013-0.478,0.029c-0.207,0.034-0.428,0.089-0.657,0.159
										c-0.902,0.278-1.841,0.68-2.748,1.116c-0.912,0.435-1.821,0.918-2.688,1.413l-5.356,3.049l4.256-4.492
										c1.062-1.118,2.135-2.219,3.155-3.353c1.017-1.127,2.021-2.287,2.843-3.478c0.202-0.292,0.391-0.594,0.538-0.884
										c0.146-0.278,0.251-0.573,0.263-0.739l0.005-0.052c-0.005,0,0.009,0.044,0.004,0.005l-0.015-0.065v-0.017v-0.008
										c-0.004-0.017,0.02,0.09,0.011,0.045l0,0v-0.004c0-0.005-0.007-0.005,0-0.007c-0.007,0.002,0.017,0.013-0.023-0.012
										c-0.067-0.055-0.338-0.142-0.637-0.158c-0.615-0.045-1.348,0.05-2.054,0.186c-0.354,0.073-0.713,0.148-1.075,0.238
										c-0.354,0.091-0.724,0.191-1.052,0.293l-7.331,2.291l6.59-3.938c0.407-0.249,0.831-0.474,1.226-0.745
										c0.407-0.256,0.791-0.553,1.182-0.837c0.375-0.305,0.756-0.598,1.117-0.928c0.368-0.319,0.719-0.657,1.073-0.994
										c0.341-0.353,0.693-0.688,1.013-1.057c0.336-0.363,0.653-0.741,0.971-1.115c0.309-0.386,0.624-0.764,0.916-1.163
										c0.302-0.393,0.59-0.796,0.885-1.197c0.564-0.816,1.103-1.646,1.621-2.5c0.254-0.428,0.508-0.859,0.76-1.293
										c0.244-0.432,0.484-0.869,0.721-1.314c0.461-0.884,0.913-1.782,1.337-2.691C237.35,222.935,237.77,222.017,238.132,221.075
										"/>
									<path fill="#263135" d="M116.188,221.075c0.229,0.98,0.502,1.96,0.82,2.923c0.319,0.964,0.663,1.917,1.05,2.854
										c0.392,0.938,0.798,1.874,1.258,2.783c0.458,0.912,0.949,1.81,1.47,2.693c0.27,0.432,0.531,0.872,0.821,1.296
										c0.28,0.436,0.589,0.845,0.886,1.265c0.309,0.415,0.621,0.828,0.955,1.227c0.319,0.4,0.668,0.783,1.014,1.176
										c0.357,0.377,0.71,0.76,1.092,1.113c0.373,0.363,0.779,0.7,1.172,1.042c0.413,0.323,0.819,0.657,1.256,0.951
										c0.422,0.316,0.879,0.586,1.326,0.863l0.742-1.646c-0.401-0.138-0.773-0.253-1.166-0.36
										c-0.387-0.113-0.779-0.214-1.182-0.294c-0.805-0.157-1.621-0.294-2.553-0.244c-0.462,0.044-0.983,0.1-1.57,0.465
										c-0.285,0.181-0.57,0.49-0.722,0.852c-0.037,0.09-0.072,0.185-0.092,0.271l-0.019,0.066l-0.018,0.093l-0.009,0.067
										c-0.012,0.061-0.023,0.2-0.028,0.293c0.002,0.074,0.002,0.161,0.008,0.236c0.059,0.612,0.262,1.045,0.453,1.452
										c0.203,0.398,0.425,0.759,0.655,1.103c0.468,0.682,0.973,1.304,1.484,1.906c0.512,0.606,1.038,1.19,1.569,1.763
										c1.064,1.147,2.146,2.266,3.263,3.349l1.095-1.442c-0.479-0.254-0.943-0.484-1.422-0.718
										c-0.474-0.229-0.954-0.455-1.44-0.664c-0.977-0.418-1.956-0.834-3.049-1.103c-0.276-0.066-0.559-0.123-0.866-0.161
										c-0.309-0.03-0.634-0.056-1.063,0.046c-0.212,0.055-0.48,0.173-0.703,0.415c-0.223,0.245-0.315,0.57-0.326,0.811
										c-0.013,0.484,0.121,0.787,0.234,1.074c0.267,0.582,0.537,0.978,0.804,1.438c0.274,0.46,0.564,0.894,0.845,1.329
										c0.286,0.437,0.569,0.863,0.834,1.291c0.264,0.438,0.507,0.845,0.667,1.273c0.071,0.211,0.122,0.418,0.117,0.57
										c-0.005,0.161-0.032,0.227-0.134,0.319c-0.113,0.086-0.313,0.15-0.536,0.184c-0.267,0.045-0.487,0.074-0.735,0.086
										c-0.976,0.055-1.972-0.127-2.89-0.543c-0.914-0.418-1.766-1.024-2.447-1.808c0.271,0.445,0.618,0.848,0.999,1.211
										c0.378,0.365,0.798,0.693,1.26,0.966c0.916,0.556,1.99,0.888,3.084,0.92c0.273,0.013,0.57,0.004,0.819-0.013
										c0.287-0.024,0.611-0.065,0.937-0.253c0.164-0.104,0.315-0.251,0.429-0.426c0.103-0.182,0.167-0.378,0.183-0.561
										c0.043-0.367-0.027-0.67-0.103-0.958c-0.158-0.557-0.414-1.065-0.652-1.53c-0.247-0.474-0.505-0.928-0.753-1.381
										l-0.737-1.351c-0.23-0.441-0.515-0.93-0.653-1.306c-0.072-0.186-0.112-0.396-0.09-0.428c0.006-0.021,0,0.045-0.044,0.102
										c-0.045,0.051-0.074,0.051-0.033,0.047c0.077-0.016,0.281-0.013,0.482,0.029c0.206,0.034,0.431,0.089,0.656,0.159
										c0.906,0.278,1.841,0.68,2.75,1.116c0.91,0.435,1.821,0.918,2.69,1.413l5.354,3.049l-4.258-4.492
										c-1.06-1.118-2.133-2.219-3.155-3.353c-1.018-1.127-2.023-2.287-2.843-3.478c-0.201-0.292-0.389-0.594-0.535-0.884
										c-0.149-0.278-0.255-0.573-0.268-0.739l-0.002-0.052c0.004,0-0.008,0.044-0.004,0.005l0.013-0.07v-0.016l0.001-0.009
										c0.002-0.017-0.018,0.09-0.008,0.046v-0.005c0-0.003,0.002-0.003,0-0.006c0.002,0.003-0.016,0.012,0.019-0.013
										c0.069-0.057,0.339-0.141,0.639-0.157c0.614-0.046,1.343,0.05,2.051,0.185c0.357,0.073,0.717,0.149,1.078,0.239
										c0.351,0.091,0.723,0.19,1.055,0.293l7.331,2.291l-6.586-3.938c-0.413-0.249-0.836-0.473-1.23-0.746
										c-0.408-0.255-0.79-0.553-1.182-0.836c-0.373-0.306-0.76-0.599-1.116-0.93c-0.367-0.317-0.722-0.656-1.073-0.993
										c-0.341-0.352-0.691-0.688-1.017-1.059c-0.339-0.36-0.653-0.737-0.97-1.112c-0.305-0.386-0.621-0.765-0.913-1.164
										c-0.303-0.394-0.591-0.795-0.88-1.197c-0.569-0.815-1.109-1.647-1.623-2.499c-0.255-0.428-0.511-0.859-0.759-1.294
										c-0.246-0.432-0.485-0.867-0.72-1.313c-0.463-0.884-0.917-1.782-1.339-2.692
										C116.97,222.935,116.546,222.017,116.188,221.075"/>
									<g>
										<g opacity="0.05">
											<g>
												<defs>
													<rect id="SVGID_17_" x="106.336" y="116.43" width="140.402" height="299.248"/>
												</defs>
												<defs>
													<rect id="SVGID_18_" x="106.336" y="116.43" width="140.402" height="299.248"/>
												</defs>
												<defs>
													<rect id="SVGID_19_" x="106.336" y="116.43" width="140.402" height="299.248"/>
												</defs>
												<clipPath id="SVGID_20_">
													<use xlink:href="#SVGID_17_"  overflow="visible"/>
												</clipPath>
												<clipPath id="SVGID_21_" clip-path="url(#SVGID_20_)">
													<use xlink:href="#SVGID_18_"  overflow="visible"/>
												</clipPath>
												<clipPath id="SVGID_22_" clip-path="url(#SVGID_21_)">
													<use xlink:href="#SVGID_19_"  overflow="visible"/>
												</clipPath>
												<path clip-path="url(#SVGID_22_)" fill="#040000" d="M245.78,158.133c0.021,0.319,0.073,0.647,0.143,0.975
													c0.298-0.045,0.577-0.106,0.815-0.188C246.738,158.92,246.368,158.642,245.78,158.133"/>
												<path clip-path="url(#SVGID_22_)" fill="#040000" d="M116.139,158.133c1.691-1.447,5.19-4.722,6.885-8.362
													c2.22-4.757,11.285-31.658,57.935-33.267c-1.439-0.048-2.909-0.074-4.422-0.074c-50.506,0-60.068,28.435-62.356,33.341
													c-2.286,4.903-7.842,9.149-7.842,9.149c2.777,0.981,9.804-0.82,9.804-0.82
													C116.141,158.117,116.139,158.125,116.139,158.133"/>
												<path clip-path="url(#SVGID_22_)" fill="#040000" d="M141.494,336.083c-4.984-27.161-15.936-55.162-17.292-78.915
													c0,0-1.502,1.12-4.283,3.246c0,0,2.616-9.153,2.78-14.383c0,0-1.146,2.455-5.395,4.74c0,0,2.614-12.421,2.288-20.755
													c-0.327-8.336-1.703-32.438,2.776-50.662c1.355-5.5-4.251-9.644-4.251-9.644s6.539-6.7,6.864-11.606
													c0,0-5.858,1.496-8.991,1.003c-1.024,4.767-6.716,10.601-6.716,10.601s5.601,4.145,4.25,9.646
													c-4.482,18.223-3.106,42.326-2.778,50.66c0.327,8.335-2.29,20.754-2.29,20.754c4.25-2.284,5.395-4.739,5.395-4.739
													c-0.163,5.229-2.778,14.381-2.778,14.381c2.778-2.124,4.281-3.246,4.281-3.246c1.36,23.755,12.312,51.752,17.295,78.917
													c6.191,33.755,8.335,78.935,17.632,79.572c2.418,0.161,4.24-0.539,5.669-2.22
													C149.23,403.899,146.912,365.617,141.494,336.083"/>
											</g>
										</g>
										<g>
											<g>
												<g>
													<defs>
														<rect id="SVGID_23_" x="162.259" y="287.995" width="30.749" height="121.497"/>
													</defs>
													<clipPath id="SVGID_24_">
														<use xlink:href="#SVGID_23_"  overflow="visible"/>
													</clipPath>
													<path clip-path="url(#SVGID_24_)" fill="#616C71" d="M167.563,310.103c-2.651-3.538-9.728-22.107,8.844-22.107
														c15.03,0,13.265,15.034,8.845,22.107c-10.824,17.313,0,0,0,0s0.886,70.751,6.186,92.86c3.531,14.695,0,0,0,0h-29.179
														C162.259,402.963,169.333,338.403,167.563,310.103"/>
												</g>
											</g>
											<path fill="#D55F5A" d="M176.422,229.886c-11.346,0-13.154-16.295-13.032-27.684c5.292-0.3,9.397-4.746,13.032-10.844
												c3.229,5.281,6.81,10.059,13.034,11C189.56,213.738,187.715,229.886,176.422,229.886"/>
											<path fill="#323435" d="M191.464,202.991c-0.988,0-2.006-0.058-3.055-0.17c-11.475-1.266-13.188-14.935-13.204-15.07
												c-0.074-0.671,0.406-1.281,1.077-1.358c0.67-0.075,1.277,0.404,1.357,1.076c0.057,0.509,1.521,11.868,11.04,12.915
												c9.975,1.102,16.581-3.525,18.611-13.029c0.139-0.66,0.795-1.082,1.445-0.939c0.665,0.14,1.089,0.788,0.943,1.454
												C207.606,197.604,201.038,202.991,191.464,202.991"/>
											<path fill="#323435" d="M161.381,202.991c-9.574,0-16.138-5.388-18.22-15.122c-0.14-0.666,0.279-1.314,0.94-1.454
												c0.655-0.143,1.313,0.279,1.453,0.939c2.032,9.504,8.634,14.126,18.612,13.029c9.528-1.049,10.982-12.436,11.039-12.917
												c0.082-0.67,0.689-1.153,1.357-1.074c0.671,0.082,1.152,0.688,1.077,1.358c-0.016,0.134-1.729,13.805-13.208,15.07
												C163.388,202.934,162.365,202.991,161.381,202.991"/>
											<path fill="#323435" d="M190.729,176.149c0,4.81-6.132,14.492-14.308,14.492c-8.178,0-14.31-9.683-14.31-14.492
												c0-4.812,6.131-7.218,14.31-7.218C184.598,168.932,190.729,171.338,190.729,176.149"/>
											<path fill="#FFFFFF" d="M145.564,134.117c-11.172,0-20.229,9.117-20.229,20.37c0,11.245,9.055,20.367,20.229,20.367
												s20.23-9.118,20.23-20.367C165.796,143.234,156.738,134.117,145.564,134.117"/>
											
												<ellipse fill="none" stroke="#040000" stroke-width="1.392" stroke-linecap="round" stroke-linejoin="round" cx="145.564" cy="154.483" rx="20.23" ry="20.367"/>
											<path fill="#976630" d="M162.522,161.019c0,5.757-4.668,10.432-10.426,10.432c-5.757,0-10.43-4.674-10.43-10.432
												c0-5.756,4.67-10.426,10.43-10.426C157.856,150.593,162.522,155.263,162.522,161.019"/>
											<path fill="#31323C" d="M159.728,161.019c0,4.219-3.417,7.639-7.633,7.639c-4.217,0-7.639-3.42-7.639-7.639
												c0-4.217,3.42-7.632,7.639-7.632C156.31,153.387,159.728,156.802,159.728,161.019"/>
											<path fill="#FFFFFF" d="M159.23,154.155c0,1.537-1.246,2.782-2.785,2.782c-1.537,0-2.781-1.245-2.781-2.782
												c0-1.538,1.244-2.78,2.781-2.78C157.984,151.375,159.23,152.617,159.23,154.155"/>
											<path fill="#FFFFFF" d="M204.815,134.117c-11.167,0-20.23,9.117-20.23,20.37c0,11.245,9.062,20.367,20.23,20.367
												c11.176,0,20.231-9.118,20.231-20.367C225.047,143.234,215.991,134.117,204.815,134.117"/>
											
												<ellipse fill="none" stroke="#040000" stroke-width="1.392" stroke-linecap="round" stroke-linejoin="round" cx="204.815" cy="154.483" rx="20.227" ry="20.367"/>
											<path fill="#976630" d="M208.509,148.638c0,5.762-4.669,10.43-10.432,10.43c-5.756,0-10.426-4.669-10.426-10.43
												c0-5.761,4.67-10.427,10.426-10.427C203.84,138.213,208.509,142.877,208.509,148.638"/>
											<path fill="#31323C" d="M205.715,148.638c0,4.217-3.418,7.639-7.638,7.639c-4.213,0-7.635-3.422-7.635-7.639
												c0-4.218,3.422-7.633,7.635-7.633C202.297,141.004,205.715,144.422,205.715,148.638"/>
											<path fill="#FFFFFF" d="M205.217,141.777c0,1.533-1.25,2.779-2.783,2.779c-1.538,0-2.778-1.244-2.778-2.779
												c0-1.541,1.24-2.785,2.778-2.785C203.967,138.992,205.217,140.236,205.217,141.777"/>
											<rect x="1.303" y="3.233" fill="none" width="348.436" height="485.512"/>
											<rect x="1.303" y="3.233" fill="none" width="348.436" height="485.512"/>
										</g>
									</g>
								</g>
							</g>
						</g>
					</g>
				</g>
			</g>
		</g>
	</g>
</g>
</svg>
