<?xml version="1.0" encoding="utf-8"?>
<!-- Generator: Adobe Illustrator 16.0.0, SVG Export Plug-In . SVG Version: 6.00 Build 0)  -->
<!DOCTYPE svg PUBLIC "-//W3C//DTD SVG 1.1//EN" "http://www.w3.org/Graphics/SVG/1.1/DTD/svg11.dtd">
<svg version="1.1" xmlns="http://www.w3.org/2000/svg" xmlns:xlink="http://www.w3.org/1999/xlink" x="0px" y="0px" width="340px"
	 height="340px" viewBox="-40 -40 340 340" enable-background="new -40 -40 340 340" xml:space="preserve">
<g id="图层_1">
	<g id="图层_2">
		<circle fill="#FFD334" cx="130" cy="130" r="170"/>
	</g>
</g>
<g id="图层_2_1_">
</g>
<g id="图层_3">
	<g>
		<defs>
			<circle id="SVGID_1_" cx="130" cy="130" r="170"/>
		</defs>
		<clipPath id="SVGID_2_">
			<use xlink:href="#SVGID_1_"  overflow="visible"/>
		</clipPath>
		<g clip-path="url(#SVGID_2_)">
			<path fill="#F9F5ED" d="M69.116,82.44c0,0,4.352-65.974,14.649-66.805c10.298-0.832,24.158,56.272,24.158,56.272L69.116,82.44z"
				/>
			<path fill="#99918A" d="M77.104,78.355c0,0,5.829-48.861,8.089-49.139c2.26-0.277,14.415,41.028,14.415,41.028L77.104,78.355z"/>
			<path fill="#F9F5ED" d="M188.884,82.44c0,0-4.352-65.974-14.65-66.805c-10.298-0.832-24.158,56.272-24.158,56.272L188.884,82.44z
				"/>
			<path fill="#99918A" d="M180.896,78.355c0,0-5.83-48.861-8.09-49.139c-2.259-0.277-14.414,41.028-14.414,41.028L180.896,78.355z"
				/>
			<path fill="none" stroke="#000000" stroke-width="2" stroke-miterlimit="10" d="M69.116,82.44c0,0,4.352-65.974,14.649-66.805
				c10.298-0.832,24.158,56.272,24.158,56.272L69.116,82.44z"/>
			<path fill="none" stroke="#000000" stroke-width="2" stroke-miterlimit="10" d="M188.884,82.44c0,0-4.352-65.974-14.65-66.805
				c-10.298-0.832-24.158,56.272-24.158,56.272L188.884,82.44z"/>
			<path fill="#C6C1BA" d="M113.573,278.605v-21.252H73.828c-3.589-0.852-6.96-1.521-10.145-2.04
				c1.419,5.681,2.974,11.473,4.56,17.37c3.287,12.216,6.684,24.848,8.948,37.184c2.079,11.336,3.749,23.786,5.364,35.827
				c2.145,15.996,3.957,28.841,6.108,38.181h23.773c1.105-6.782,1.928-15.791,2.964-27.15c0.176-1.936,0.359-3.944,0.552-6.028
				c2.726-29.529,3.224-61.625,3.315-72.091H113.573z"/>
			<path fill="#C6C1BA" d="M184.171,257.354h-39.744v21.252h-5.695c0.09,10.466,0.589,42.562,3.314,72.091
				c0.192,2.079,0.375,4.083,0.551,6.015c1.037,11.366,1.859,20.379,2.967,27.164h23.771c2.151-9.34,3.965-22.186,6.109-38.182
				c1.615-12.04,3.285-24.491,5.364-35.826c2.263-12.336,5.661-24.968,8.946-37.184c1.588-5.898,3.144-11.689,4.562-17.37
				C191.132,255.833,187.761,256.503,184.171,257.354"/>
			<g opacity="0.07">
				<g>
					<defs>
						<rect id="SVGID_3_" x="124.503" y="62.097" width="84.88" height="338.376"/>
					</defs>
					<clipPath id="SVGID_4_">
						<use xlink:href="#SVGID_3_"  overflow="visible"/>
					</clipPath>
					<path clip-path="url(#SVGID_4_)" d="M209.38,110.145c0,0-6.283-4.805-8.87-10.35c-2.588-5.543-13.397-37.699-70.51-37.699
						c-1.885,0-3.715,0.038-5.5,0.106c52.313,1.99,62.508,32.233,65.01,37.593c2.587,5.545,8.87,10.35,8.87,10.35
						c-3.143,1.108-11.088-0.924-11.088-0.924c0.37,5.543,7.762,13.12,7.762,13.12s-6.334,4.685-4.805,10.904
						c5.067,20.608,3.511,47.862,3.142,57.288c-0.37,9.424,2.587,23.469,2.587,23.469c-4.805-2.588-6.098-5.359-6.098-5.359
						c0.184,5.914,3.141,16.262,3.141,16.262c-3.141-2.402-4.841-3.67-4.841-3.67c-1.534,26.863-13.918,58.521-19.552,89.232
						c-6.003,32.72-8.641,74.927-15.895,86.77c1.69,2.407,3.903,3.418,6.955,3.209c10.515-0.72,12.937-51.808,19.939-89.979
						c5.634-30.711,18.018-62.369,19.552-89.232c0,0,1.7,1.268,4.841,3.67c0,0-2.957-10.348-3.141-16.262
						c0,0,1.293,2.771,6.098,5.359c0,0-2.957-14.045-2.587-23.469c0.369-9.426,1.926-36.68-3.142-57.288
						c-1.529-6.22,4.805-10.904,4.805-10.904s-7.392-7.577-7.762-13.12C198.292,109.221,206.237,111.252,209.38,110.145"/>
				</g>
			</g>
			<g opacity="0.1">
				<g>
					<defs>
						<rect id="SVGID_5_" x="49.622" y="60.646" width="158.761" height="338.376"/>
					</defs>
					<clipPath id="SVGID_6_">
						<use xlink:href="#SVGID_5_"  overflow="visible"/>
					</clipPath>
					<path clip-path="url(#SVGID_6_)" fill="#A5A5A5" d="M207.297,107.804c0.024,0.36,0.083,0.729,0.164,1.103
						c0.333-0.052,0.649-0.118,0.919-0.213C208.38,108.694,207.96,108.371,207.297,107.804"/>
					<path clip-path="url(#SVGID_6_)" fill="#A5A5A5" d="M60.703,107.804c1.911-1.637,5.866-5.342,7.787-9.458
						C71,92.967,81.251,62.548,134,60.733c-1.627-0.056-3.292-0.086-5-0.086c-57.112,0-67.923,32.154-70.51,37.699
						c-2.587,5.543-8.87,10.348-8.87,10.348c3.141,1.109,11.087-0.924,11.087-0.924C60.707,107.782,60.703,107.793,60.703,107.804"
						/>
					<path clip-path="url(#SVGID_6_)" fill="#F9F5ED" d="M89.372,309.018c-5.634-30.712-18.018-62.37-19.553-89.232
						c0,0-1.699,1.268-4.841,3.67c0,0,2.957-10.35,3.142-16.263c0,0-1.294,2.772-6.099,5.359c0,0,2.957-14.046,2.588-23.47
						c-0.37-9.424-1.927-36.679,3.142-57.288c1.529-6.219-4.806-10.903-4.806-10.903s7.393-7.576,7.763-13.121
						c0,0-6.628,1.691-10.168,1.137c-1.161,5.385-7.595,11.984-7.595,11.984s6.335,4.685,4.806,10.903
						c-5.068,20.609-3.512,47.864-3.142,57.288c0.369,9.424-2.588,23.47-2.588,23.47c4.805-2.587,6.099-5.359,6.099-5.359
						c-0.185,5.913-3.142,16.263-3.142,16.263c3.142-2.402,4.841-3.67,4.841-3.67c1.535,26.862,13.919,58.521,19.553,89.232
						c7.002,38.17,9.425,89.258,19.938,89.978c2.737,0.188,4.797-0.608,6.412-2.507C98.12,385.705,95.499,342.416,89.372,309.018"/>
				</g>
			</g>
			<path fill="#F9F5ED" d="M199.17,365.925c0,0,17.259-17.565,28.69-40.333c17.945-35.74,26.271-81.266-34.937-70.094
				c3.114-12.383,5.62-24.352,6.256-35.494c0,0,1.699,1.27,4.841,3.671c0,0-2.957-10.349-3.142-16.263c0,0,1.294,2.773,6.099,5.359
				c0,0-2.957-14.045-2.587-23.469c0.369-9.426,1.927-36.68-3.142-57.289c-1.53-6.219,4.805-10.901,4.805-10.901
				s-7.392-7.579-7.762-13.123c0,0,7.946,2.034,11.088,0.924c0,0-6.283-4.804-8.87-10.348c-2.588-5.544-13.399-37.7-70.51-37.7
				c-57.112,0-67.923,32.156-70.51,37.7s-8.87,10.348-8.87,10.348c3.141,1.11,11.088-0.924,11.088-0.924
				c-0.37,5.544-7.762,13.123-7.762,13.123s6.334,4.683,4.805,10.901c-5.068,20.609-3.512,47.863-3.143,57.289
				c0.37,9.424-2.587,23.469-2.587,23.469c4.806-2.586,6.099-5.359,6.099-5.359c-0.185,5.914-3.142,16.263-3.142,16.263
				c3.142-2.401,4.841-3.671,4.841-3.671c0.637,11.143,3.143,23.111,6.256,35.494c-61.208-11.172-52.881,34.354-34.936,70.094
				c11.432,22.768,28.69,40.333,28.69,40.333c-8.732-3.327-26.411-1.071-29.006,8.954c-2.401,9.279,14.609,8.766,14.609,8.766
				h45.497c2.195,9.318,4.824,15.328,8.38,15.57c6.24,0.428,8.985-4.202,10.882-15.57H130h18.807
				c1.896,11.368,4.643,15.998,10.882,15.57c3.557-0.242,6.186-6.252,8.381-15.57h45.496c0,0,17.012,0.514,14.609-8.766
				C225.581,364.854,207.901,362.598,199.17,365.925"/>
			<g>
				<defs>
					<path id="SVGID_7_" d="M129.011,56.321c-11.531,0.021-22.491,2.059-32.423,5.697c-1.677,0.614-3.319,1.28-4.934,1.983
						c-2.854,1.243-5.619,2.609-8.263,4.118c-7.792,4.445-14.604,9.999-20.136,16.378c-3.2,3.689-5.961,7.656-8.238,11.851
						c-1.199,2.211-2.262,4.484-3.179,6.813c-2.655,6.747-4.107,13.949-4.094,21.438c0.013,6.687,2.871,16.719,8.034,27.641
						c0.085,0.047,0.16,0.096,0.245,0.143l0.018-0.081c0.853-0.369,1.679-0.782,2.481-1.234c0.267-0.147,0.515-0.323,0.776-0.481
						c0.525-0.318,1.056-0.633,1.563-0.983c0.293-0.203,0.571-0.433,0.858-0.644c0.454-0.34,0.914-0.672,1.352-1.032
						c0.287-0.235,0.558-0.492,0.837-0.737c0.422-0.371,0.851-0.734,1.261-1.127c0.269-0.257,0.525-0.529,0.79-0.796
						c0.402-0.405,0.809-0.806,1.199-1.229c0.252-0.271,0.494-0.557,0.741-0.834c0.392-0.44,0.782-0.877,1.162-1.334
						c0.226-0.27,0.445-0.55,0.669-0.826c0.393-0.485,0.785-0.971,1.167-1.47c0.188-0.244,0.372-0.496,0.558-0.744
						c0.41-0.549,0.823-1.099,1.226-1.66c0.139-0.194,0.276-0.394,0.415-0.588c0.456-0.645,0.909-1.291,1.354-1.944
						c0.045-0.065,0.088-0.13,0.133-0.194c3.057-4.494,5.922-9.145,8.945-13.296c0.053-0.075,0.108-0.147,0.162-0.222
						c0.466-0.637,0.938-1.258,1.413-1.867c0.094-0.118,0.188-0.237,0.28-0.355c0.451-0.567,0.908-1.121,1.371-1.66
						c0.119-0.139,0.238-0.277,0.358-0.414c0.447-0.51,0.901-1.004,1.36-1.48c0.14-0.145,0.282-0.289,0.423-0.432
						c0.451-0.453,0.909-0.89,1.373-1.308c0.159-0.143,0.318-0.281,0.478-0.419c0.463-0.398,0.932-0.781,1.409-1.141
						c0.172-0.129,0.347-0.254,0.521-0.378c0.478-0.343,0.965-0.669,1.463-0.971c0.185-0.112,0.375-0.216,0.563-0.323
						c0.499-0.283,1.006-0.549,1.525-0.787c0.2-0.091,0.406-0.172,0.61-0.258c0.524-0.219,1.056-0.421,1.603-0.592
						c0.212-0.067,0.432-0.12,0.649-0.178c0.554-0.151,1.116-0.287,1.693-0.385c0.228-0.039,0.46-0.062,0.69-0.09
						c0.589-0.079,1.186-0.143,1.801-0.163c0.237-0.008,0.483,0.003,0.725,0.004c0.63,0.001,1.267,0.016,1.927,0.079
						c0.244,0.024,0.5,0.07,0.749,0.102c0.678,0.086,1.36,0.187,2.07,0.341c0.252,0.055,0.515,0.135,0.77,0.199
						c0.73,0.18,1.468,0.374,2.234,0.63c0.25,0.083,0.515,0.193,0.769,0.284c0.795,0.286,1.598,0.585,2.432,0.952
						c0.24,0.104,0.493,0.238,0.734,0.351c0.874,0.403,1.757,0.823,2.675,1.318c0.214,0.115,0.442,0.258,0.657,0.379
						c0.971,0.539,1.953,1.103,2.974,1.747c0.15,0.096,0.312,0.212,0.464,0.311c1.107,0.711,2.232,1.459,3.401,2.297h0.001
						c-1.946-20.39-2.565-40.313,3.794-40.4v0.014c6.398-0.012,5.85,19.957,3.975,40.394c1.166-0.844,2.289-1.596,3.393-2.311
						c0.152-0.099,0.313-0.215,0.463-0.312c1.02-0.648,1.999-1.215,2.967-1.758c0.217-0.121,0.443-0.265,0.657-0.381
						c0.916-0.499,1.797-0.922,2.67-1.329c0.241-0.112,0.493-0.247,0.731-0.354c0.834-0.369,1.635-0.671,2.429-0.959
						c0.255-0.093,0.519-0.204,0.768-0.289c0.767-0.257,1.502-0.454,2.232-0.638c0.256-0.063,0.518-0.144,0.769-0.2
						c0.709-0.157,1.394-0.26,2.07-0.35c0.248-0.033,0.504-0.08,0.749-0.104c0.658-0.064,1.296-0.082,1.926-0.086
						c0.241-0.001,0.486-0.014,0.724-0.007c0.615,0.02,1.213,0.08,1.802,0.156c0.229,0.029,0.463,0.05,0.69,0.088
						c0.578,0.097,1.142,0.229,1.696,0.379c0.217,0.057,0.437,0.11,0.65,0.176c0.547,0.168,1.079,0.369,1.603,0.586
						c0.205,0.085,0.411,0.165,0.611,0.256c0.521,0.236,1.029,0.501,1.53,0.781c0.188,0.106,0.378,0.209,0.563,0.322
						c0.499,0.3,0.986,0.624,1.467,0.965c0.175,0.124,0.349,0.247,0.521,0.376c0.479,0.359,0.951,0.739,1.414,1.137
						c0.16,0.137,0.32,0.274,0.479,0.416c0.467,0.418,0.926,0.852,1.378,1.303c0.143,0.143,0.283,0.285,0.425,0.431
						c0.461,0.478,0.916,0.966,1.365,1.476c0.12,0.137,0.24,0.274,0.361,0.414c0.463,0.536,0.923,1.088,1.376,1.653
						c0.094,0.118,0.187,0.235,0.281,0.356c0.478,0.606,0.953,1.225,1.421,1.859c0.055,0.074,0.109,0.148,0.164,0.221
						c3.038,4.142,5.919,8.783,8.99,13.266c0.046,0.063,0.09,0.129,0.134,0.193c0.448,0.652,0.903,1.297,1.361,1.938
						c0.141,0.194,0.278,0.394,0.417,0.587c0.405,0.559,0.818,1.107,1.232,1.657c0.188,0.246,0.371,0.496,0.559,0.741
						c0.385,0.497,0.78,0.981,1.175,1.466c0.224,0.275,0.442,0.554,0.671,0.824c0.381,0.455,0.774,0.89,1.166,1.328
						c0.249,0.277,0.492,0.562,0.744,0.832c0.393,0.422,0.801,0.821,1.205,1.226c0.265,0.264,0.523,0.538,0.793,0.793
						c0.41,0.39,0.84,0.753,1.264,1.122c0.279,0.242,0.553,0.499,0.839,0.734c0.44,0.359,0.901,0.689,1.356,1.025
						c0.289,0.213,0.566,0.439,0.86,0.643c0.508,0.349,1.039,0.66,1.567,0.978c0.262,0.157,0.511,0.331,0.776,0.479
						c0.806,0.447,1.633,0.858,2.487,1.226l0.016,0.08c0.086-0.046,0.161-0.099,0.246-0.144c5.122-10.94,7.946-20.983,7.934-27.669
						c-0.014-7.49-1.491-14.688-4.17-21.423c-0.926-2.327-1.996-4.596-3.204-6.803c-2.291-4.186-5.067-8.143-8.28-11.821
						c-5.557-6.36-12.388-11.889-20.195-16.305c-2.649-1.499-5.419-2.856-8.277-4.089c-1.617-0.698-3.262-1.356-4.94-1.963
						c-9.944-3.603-20.912-5.602-32.444-5.581c-0.2,0-0.4,0.011-0.602,0.013v-0.02c-0.205-0.001-0.408-0.012-0.613-0.012
						C129.026,56.321,129.019,56.321,129.011,56.321"/>
				</defs>
				<clipPath id="SVGID_8_">
					<use xlink:href="#SVGID_7_"  overflow="visible"/>
				</clipPath>
				<path clip-path="url(#SVGID_8_)" fill="#3C3729" d="M117.825,275.095c0,0,0,39.362-3.326,75.398s-3.922,49.672-14.435,48.952
					c-10.514-0.72-12.936-51.808-19.938-89.978c-5.635-30.712-18.019-62.37-19.553-89.233c0,0-1.699,1.269-4.842,3.672
					c0,0,2.957-10.35,3.143-16.264c0,0-1.295,2.771-6.099,5.359c0,0,2.956-14.045,2.587-23.471
					c-0.369-9.424-1.927-36.678,3.143-57.288c1.529-6.217-4.805-10.902-4.805-10.902s7.392-7.576,7.761-13.12
					c0,0-7.946,2.032-11.088,0.924c0,0,6.283-4.805,8.87-10.349c2.588-5.544,13.398-37.699,70.511-37.699
					c57.111,0,67.922,32.155,70.509,37.699s8.871,10.349,8.871,10.349c-3.143,1.108-11.088-0.924-11.088-0.924
					c0.369,5.544,7.761,13.12,7.761,13.12s-6.334,4.686-4.804,10.902c5.067,20.61,3.511,47.864,3.141,57.288
					c-0.369,9.426,2.587,23.471,2.587,23.471c-4.804-2.588-6.098-5.359-6.098-5.359c0.185,5.914,3.142,16.264,3.142,16.264
					c-3.142-2.403-4.841-3.672-4.841-3.672c-1.535,26.863-13.919,58.521-19.553,89.233c-7.002,38.17-9.425,89.258-19.938,89.978
					s-11.107-12.916-14.435-48.952c-3.326-36.036-3.326-75.398-3.326-75.398"/>
			</g>
			<path fill="#3C3729" d="M181.853,297.645c0.038-4.349,0.408-7.735-1.154-9.064c-5.656-4.814-21.479-11.174-25.69-20.621
				c-3.968-8.896-3.125-17.522,2.366-24.275c4.413-5.43,15.703-12.668,40.479-9.039c-4,17-4,23-10,43
				C185.925,284.07,184.017,291.789,181.853,297.645"/>
			<path fill="#3C3729" d="M77.853,297.645c-0.091-4.348-1.922-7.616-0.376-8.965c5.597-4.883,21.34-11.437,25.436-20.935
				c3.857-8.945,2.909-17.56-2.663-24.244c-4.481-5.375-12.668-12.79-37.396-8.856c2,16,6,32,10,43
				C75.192,284.082,75.616,291.815,77.853,297.645"/>
			<g>
				<defs>
					<path id="SVGID_9_" d="M59.489,99.565c-2.587,5.544-8.87,10.348-8.87,10.348c3.143,1.11,11.089-0.923,11.089-0.923
						c-0.37,5.543-7.762,13.121-7.762,13.121s6.334,4.683,4.805,10.902c-5.068,20.609-3.512,47.863-3.142,57.289
						c0.369,9.424-2.588,23.469-2.588,23.469c4.805-2.587,6.099-5.359,6.099-5.359c-0.185,5.914-3.142,16.262-3.142,16.262
						c3.142-2.401,4.841-3.67,4.841-3.67c0.637,11.143,3.143,23.111,6.256,35.494c-61.208-11.173-52.882,34.354-34.936,70.095
						c11.431,22.767,28.689,40.332,28.689,40.332c-8.731-3.327-26.41-1.071-29.006,8.954c-2.4,9.278,14.61,8.766,14.61,8.766h45.497
						c2.195,9.318,4.824,15.328,8.381,15.57c6.239,0.428,8.984-4.202,10.882-15.57h18.806h18.808
						c1.896,11.368,4.643,15.998,10.882,15.57c3.556-0.242,6.186-6.252,8.38-15.57h45.497c0,0,17.011,0.513,14.61-8.766
						c-2.595-10.025-20.275-12.281-29.005-8.954c0,0,17.258-17.565,28.689-40.332c17.945-35.741,26.272-81.268-34.936-70.095
						c3.113-12.383,5.619-24.352,6.255-35.494c0,0,1.7,1.269,4.841,3.67c0,0-2.957-10.348-3.141-16.262c0,0,1.293,2.772,6.098,5.359
						c0,0-2.957-14.045-2.587-23.469c0.369-9.426,1.926-36.68-3.142-57.289c-1.53-6.22,4.805-10.902,4.805-10.902
						s-7.393-7.577-7.762-13.121c0,0,7.946,2.033,11.088,0.923c0,0-6.283-4.804-8.869-10.348
						c-2.588-5.544-13.4-37.699-70.512-37.699S62.077,94.021,59.489,99.565"/>
				</defs>
				<clipPath id="SVGID_10_">
					<use xlink:href="#SVGID_9_"  overflow="visible"/>
				</clipPath>
				<g opacity="0.05" clip-path="url(#SVGID_10_)">
					<g>
						<defs>
							<rect id="SVGID_11_" x="-11.647" y="41.083" width="263" height="397.808"/>
						</defs>
						<clipPath id="SVGID_12_">
							<use xlink:href="#SVGID_11_"  overflow="visible"/>
						</clipPath>
						<path clip-path="url(#SVGID_12_)" d="M108.853,51.645c0,0-73,39-36,211c0,0-97.5-21.5-5,107c0,0-48.645,4.854-25,22
							c65.5,47.5,180.5-2.5,180.5-2.5s14-19-32-19c0,0,91-122-6-106c0,0,40-171-30-207c-16.325-8.396,48-6,48-6l48,289l-13,73
							c0,0-222,39-226,21s-24-96-24-96s22-176,21-185s19-111,21-112S108.853,51.645,108.853,51.645"/>
					</g>
				</g>
			</g>
			<path fill="none" stroke="#000000" stroke-miterlimit="10" d="M168.069,384.145h45.496c0,0,17.012,0.514,14.609-8.766
				c-2.594-10.025-20.273-12.281-29.005-8.954c0,0,17.259-17.565,28.689-40.333c17.946-35.74,26.272-81.266-34.936-70.094
				c3.114-12.383,5.62-24.352,6.256-35.494c0,0,1.7,1.269,4.841,3.67c0,0-2.957-10.348-3.141-16.262c0,0,1.293,2.772,6.098,5.359
				c0,0-2.957-14.045-2.587-23.469c0.369-9.426,1.926-36.68-3.142-57.289c-1.53-6.22,4.805-10.902,4.805-10.902
				s-7.392-7.577-7.762-13.121c0,0,7.945,2.033,11.088,0.924c0,0-6.283-4.805-8.87-10.349S187.11,61.367,130,61.367
				c-57.112,0-67.923,32.155-70.511,37.699c-2.586,5.544-8.869,10.349-8.869,10.349c3.141,1.109,11.088-0.924,11.088-0.924
				c-0.37,5.544-7.762,13.121-7.762,13.121s6.334,4.683,4.805,10.902c-5.068,20.609-3.512,47.863-3.143,57.289
				c0.37,9.424-2.587,23.469-2.587,23.469c4.806-2.587,6.099-5.359,6.099-5.359c-0.185,5.914-3.142,16.262-3.142,16.262
				c3.142-2.401,4.841-3.67,4.841-3.67c0.637,11.143,3.143,23.111,6.256,35.494c-61.208-11.172-52.881,34.354-34.936,70.094
				c11.432,22.768,28.69,40.333,28.69,40.333c-8.732-3.327-26.411-1.071-29.006,8.954c-2.401,9.279,14.609,8.766,14.609,8.766
				h45.497"/>
			<polyline fill="none" stroke="#000000" stroke-miterlimit="10" points="111.192,384.145 130,384.145 148.807,384.145 			"/>
			<path fill="none" stroke="#000000" stroke-miterlimit="10" d="M193.353,256.145c-4.395,17.474-10.575,34.347-13.873,52.323
				c-7.002,38.17-9.424,89.258-19.938,89.978c-10.515,0.721-11.108-12.916-14.435-48.952c-3.327-36.035-3.327-75.398-3.327-75.398"
				/>
			<path fill="none" stroke="#000000" stroke-miterlimit="10" d="M117.925,274.095c0,0,0,39.362-3.327,75.398
				c-3.326,36.036-3.921,49.672-14.435,48.952c-10.513-0.72-12.936-51.808-19.938-89.978c-3.245-17.688-8.729-35.688-13.09-52.906"
				/>
			<path fill="#FFFFFF" d="M89.483,85.645c-12.72,0-23.03,10.311-23.03,23.029c0,12.72,10.311,23.031,23.03,23.031
				c12.719,0,23.029-10.311,23.029-23.031C112.513,95.956,102.202,85.645,89.483,85.645"/>
			
				<circle fill="none" stroke="#000000" stroke-width="1.574" stroke-linecap="round" stroke-linejoin="round" cx="89.483" cy="108.674" r="23.03"/>
			<path fill="#F7DF5A" d="M111.853,111.145c0,9.665-7.835,17.5-17.5,17.5s-17.5-7.835-17.5-17.5s7.835-17.5,17.5-17.5
				S111.853,101.479,111.853,111.145"/>
			<path fill="#31323C" d="M110.075,111.526c0,8.499-6.891,15.391-15.391,15.391c-8.499,0-15.389-6.892-15.389-15.391
				s6.89-15.39,15.389-15.39C103.185,96.136,110.075,103.027,110.075,111.526"/>
			<path fill="#FFFFFF" d="M104.342,95.399c0,3.449-2.796,6.245-6.245,6.245c-3.448,0-6.244-2.796-6.244-6.245
				c0-3.448,2.796-6.244,6.244-6.244C101.546,89.155,104.342,91.952,104.342,95.399"/>
			<path fill="#FFFFFF" d="M170.978,85.645c-12.719,0-23.03,10.311-23.03,23.029c0,12.72,10.312,23.031,23.03,23.031
				s23.03-10.311,23.03-23.031C194.008,95.956,183.696,85.645,170.978,85.645"/>
			
				<circle fill="none" stroke="#000000" stroke-width="1.574" stroke-linecap="round" stroke-linejoin="round" cx="170.978" cy="108.674" r="23.03"/>
			<path fill="#F7DF5A" d="M183.853,111.145c0,9.665-7.835,17.5-17.5,17.5s-17.5-7.835-17.5-17.5s7.835-17.5,17.5-17.5
				S183.853,101.479,183.853,111.145"/>
			<path fill="#31323C" d="M182.075,111.526c0,8.499-6.891,15.391-15.391,15.391c-8.499,0-15.389-6.892-15.389-15.391
				s6.89-15.39,15.389-15.39C175.185,96.136,182.075,103.027,182.075,111.526"/>
			<path fill="#FFFFFF" d="M176.342,95.399c0,3.449-2.796,6.245-6.245,6.245c-3.448,0-6.244-2.796-6.244-6.245
				c0-3.448,2.796-6.244,6.244-6.244C173.546,89.155,176.342,91.952,176.342,95.399"/>
			<path fill="#3C3729" d="M144.476,128.592c0.007,3.87-5.366,13.396-13.937,13.413c-8.569,0.017-13.978-9.63-13.984-13.361
				c-0.012-5.955,6.236-7.4,13.946-7.414C138.211,121.215,144.464,122.638,144.476,128.592"/>
			<ellipse fill="#D55F5A" stroke="#020202" stroke-miterlimit="10" cx="130" cy="165" rx="6.615" ry="9"/>
		</g>
	</g>
</g>
</svg>
