<svg id="line" xmlns="http://www.w3.org/2000/svg" viewBox="0 0 488 488"><style>.st0{fill:#f2f2f2}.st1{fill:none;stroke:#9b9a9a;stroke-miterlimit:10}.st2{fill:#9b9a9a}</style><path id="XMLID_86_" class="st1" d="M306.6 281.6c-4.4 17.5-10.6 34.4-13.9 52.3-7 38.2-9.4 89.3-19.9 90-10.5.7-11.1-12.9-14.4-49-3.3-36.1-3.3-75.4-3.3-75.4"/><path id="XMLID_85_" class="st1" d="M231.1 299.6s0 39.4-3.3 75.4-3.9 49.7-14.4 49c-10.5-.7-12.9-51.8-19.9-90-3.2-17.7-8.7-35.7-13.1-52.9"/><path class="st1" d="M224 409.7h38.1m44-128.2c3.1-12.4 5.6-24.4 6.3-35.5 0 0 1.7 1.3 4.8 3.7 0 0-3-10.4-3.1-16.3 0 0 1.3 2.8 6.1 5.4 0 0-3-14.1-2.6-23.5.4-9.4 1.9-36.7-3.1-57.3-1.5-6.2 4.8-10.9 4.8-10.9s-7.4-7.6-7.8-13.1c0 0 7.9 2 11.1.9 0 0-6.3-4.8-8.9-10.4-1.2-2.5-3.9-10.2-11.7-18l-.1-.8c-.9-11.5-5.3-63.9-14.5-64.6-7.5-.6-16.9 31.2-21.4 47.8-6.6-1.3-14.2-2-22.8-2-9.2 0-17.1.8-24.1 2.2-4.5-16.3-14.6-48.6-22.2-48-10 .8-14.2 63.7-14.4 67.4l-.1.1c-6.3 7.1-8.7 13.7-9.8 16-2.6 5.5-8.9 10.4-8.9 10.4 3.1 1.1 11.1-.9 11.1-.9-.4 5.5-7.8 13.1-7.8 13.1s6.3 4.7 4.8 10.9c-5.1 20.6-3.5 47.9-3.1 57.3.4 9.4-2.6 23.5-2.6 23.5 4.8-2.6 6.1-5.4 6.1-5.4-.2 5.9-3.1 16.3-3.1 16.3 3.1-2.4 4.8-3.7 4.8-3.7.6 11.1 3.1 23.1 6.3 35.5-61.2-11.2-52.9 34.4-34.9 70.1C156.7 374.5 174 392 174 392c-8.7-3.3-26.4-1.1-29 9-2.4 9.3 14.6 8.8 14.6 8.8h45.5m147.5-89.2c25.2 3.6 61.2 1.1 71.4-39.2 8.2-32.6-9.7-53.5-30.3-59.9-19.8-6.2-42.2 1-46.5 23.9 0 0 20.3-7.8 30.6 2 4.8 4.6 7.5 13 5 27.9-2.8 16.2-15.4 22.1-27.7 23.8-.5.1-1.1.1-1.6.2"/><path class="st2" d="M230.2 196.3c0-4.7 1.3-8.4 4-11.1 2.7-2.7 6.3-4.1 10.9-4.1 4.1 0 7.3 1.1 9.9 3.4 2.5 2.2 3.8 5.2 3.8 8.8 0 3.7-2.5 7.5-7.4 11.6-2.9 2.4-4.4 5.1-4.4 8.2v1.1h-5.2v-.6c0-3 .3-5.2.9-6.5.6-1.4 1.9-2.9 3.9-4.8l2.1-1.9c2.8-2.5 4.2-5 4.2-7.5 0-2.1-.8-3.8-2.3-5.2-1.5-1.4-3.4-2-5.8-2-6.1 0-9.1 3.5-9.1 10.5h-5.5zm17.1 22.6v8h-5.9v-8h5.9z"/><path class="st1" d="M281 409.5h45.5s17 .5 14.6-8.8c-2.6-10-20.3-12.3-29-9 0 0 17.3-17.6 28.7-40.3 17.9-35.7 26.3-81.3-34.9-70.1"/></svg>