<svg width="17" height="16" viewBox="0 0 17 16" xmlns="http://www.w3.org/2000/svg"><title>badge/gift</title><g transform="translate(2 2.5)" fill="none" fill-rule="evenodd"><path d="M6.5 2.14C4.719 1.767 2.06 1.227 2.566.316 3.206-.842 5.222 1.53 6.644 1.94c2.257.65 2.167.687-.144.2z" stroke="#2A2825" stroke-width=".75"/><path d="M6.281 2.156c1.781-.375 4.373-.93 3.868-1.841C9.508-.842 7.492 1.53 6.07 1.94c-2.257.65-2.1.703.211.216z" stroke="#2A2825" stroke-width=".75"/><path d="M1.192 3.322l.09-1.162L11.686 2l.282 1.784-.116.042a1 1 0 0 0-.66.99l.255 5.134a1 1 0 0 1-.999 1.05H2.57a1 1 0 0 1-.998-1.068l.365-5.376-.451-.446a1 1 0 0 1-.294-.788z" fill="#F56D8A"/><path d="M6.5 2.982V10" stroke="#FFD300" stroke-width="2" stroke-linecap="square"/><path fill="#C90541" opacity=".337" d="M2.25 4.5h8.5V7h-8.5z"/><path fill="#FFF" opacity=".254" d="M1.5 2h10v1h-10z"/><path d="M2 5v6a.5.5 0 0 0 .5.5h8a.5.5 0 0 0 .5-.5V5H2z" stroke="#2A2825"/><rect stroke="#2A2825" x="1.38" y="2" width="10.25" height="2.75" rx=".5"/></g></svg>