<svg id="图层_2" xmlns="http://www.w3.org/2000/svg" xmlns:xlink="http://www.w3.org/1999/xlink" viewBox="0 0 488 488"><style>.st0{fill:#f5d1a7}.st1{fill:none;stroke:#020100;stroke-miterlimit:10}.st2{fill:#99918a}.st3{fill:#e8c5ae}.st4{fill:none;stroke:#000;stroke-miterlimit:10}.st5{opacity:5e-2;clip-path:url(#SVGID_2_)}.st6{opacity:.1}.st7{fill:#a5a5a5}.st10,.st11,.st12,.st8,.st9{fill-rule:evenodd;clip-rule:evenodd}.st8{fill:#654328}.st9{fill:#fff}.st10{fill:#36210d}.st11{fill:#323233}.st12{fill:#ef8867}.st13,.st14{stroke:#000;stroke-miterlimit:10}.st13{fill-rule:evenodd;clip-rule:evenodd;fill:#e95233}.st14{fill:#e7e5e4}.st14,.st15,.st16,.st17{fill-rule:evenodd;clip-rule:evenodd}.st15{stroke:#000;stroke-miterlimit:10;fill:#009158}.st16{fill:#e3a62d}.st17{fill:#f8d92d}.st18{clip-path:url(#SVGID_6_)}.st19{fill:#f7d0d7}.st20{opacity:.55;clip-path:url(#XMLID_14_);fill:#3c3729}.st21{opacity:.45;clip-path:url(#XMLID_15_)}.st21,.st22{fill:#f9f5ed}.st23{clip-path:url(#SVGID_8_)}.st23,.st24{fill:#3c3729}.st25{opacity:5e-2;clip-path:url(#SVGID_10_)}.st26{fill:#fff;stroke:#000;stroke-linecap:round;stroke-linejoin:round}.st27{fill:#9b6730}.st28{fill:#31323c}.st29{fill:#fff}</style><g id="eye"><defs><path id="SVGID_1_" d="M-179.7 402.3s17.3-17.6 28.7-40.3c17.9-35.7 26.3-81.3-34.9-70.1 3.1-12.4 5.6-24.4 6.3-35.5 0 0 1.7 1.3 4.8 3.7 0 0-3-10.3-3.1-16.3 0 0 1.3 2.8 6.1 5.4 0 0-3-14-2.6-23.5s1.9-36.7-3.1-57.3c-1.5-6.2 4.8-10.9 4.8-10.9s-7.4-7.6-7.8-13.1c0 0 7.9 2 11.1.9 0 0-6.3-4.8-8.9-10.3-2.6-5.5-13.4-37.7-70.5-37.7s-67.9 32.2-70.5 37.7-8.9 10.3-8.9 10.3c3.1 1.1 11.1-.9 11.1-.9-.4 5.5-7.8 13.1-7.8 13.1s6.3 4.7 4.8 10.9c-5.1 20.6-3.5 47.9-3.1 57.3s-2.6 23.5-2.6 23.5c4.8-2.6 6.1-5.4 6.1-5.4-.2 5.9-3.1 16.3-3.1 16.3 3.1-2.4 4.8-3.7 4.8-3.7.6 11.1 3.1 23.1 6.3 35.5-61.2-11.2-52.9 34.4-34.9 70.1 11.4 22.8 28.7 40.3 28.7 40.3-8.7-3.3-26.4-1.1-29 9-2.4 9.3 14.6 8.8 14.6 8.8h45.5c2.2 9.3 4.8 15.3 8.4 15.6 6.2.4 9-4.2 10.9-15.6h37.6c1.9 11.4 4.6 16 10.9 15.6 3.6-.2 6.2-6.3 8.4-15.6h45.5s17 .5 14.6-8.8c-2.8-10.1-20.5-12.3-29.2-9z"/></defs><clipPath id="SVGID_2_"><use xlink:href="#SVGID_1_" overflow="visible"/></clipPath><defs><circle id="SVGID_5_" cx="244.5" cy="244.5" r="243.5"/></defs><clipPath id="SVGID_4_"><use xlink:href="#SVGID_5_" overflow="visible"/></clipPath><g clip-path="url(#SVGID_4_)"><path class="st19" d="M-909.1-525.6h2970.7v2970.7H-909.1z"/><path id="XMLID_30_" class="st22" d="M200.4 130.6s26.5-401.6 89.2-406.7c62.7-5.1 147.1 342.6 147.1 342.6l-236.3 64.1z"/><path class="st2" d="M249.1 105.8s35.5-297.4 49.2-299.1C312.1-195 386 56.5 386 56.5l-136.9 49.3z"/><path class="st22" d="M992.2 1859.3s105.1-106.9 174.7-245.5c109.2-217.6 159.9-494.7-212.7-426.7 19-75.4 34.2-148.2 38.1-216.1 0 0 10.3 7.7 29.5 22.3 0 0-18-63-19.1-99 0 0 7.9 16.9 37.1 32.6 0 0-18-85.5-15.7-142.9 2.3-57.4 11.7-223.3-19.1-348.7-9.3-37.9 29.2-66.4 29.2-66.4s-45-46.1-47.2-79.9c0 0 48.4 12.4 67.5 5.6 0 0-38.2-29.2-54-63C984.6 198.1 918.7 2.3 571.1 2.3S157.6 198.1 141.8 231.8s-54 63-54 63c19.1 6.8 67.5-5.6 67.5-5.6-2.3 33.7-47.2 79.9-47.2 79.9s38.6 28.5 29.2 66.4c-30.9 125.5-21.4 291.4-19.1 348.7S102.5 927 102.5 927c29.2-15.8 37.1-32.6 37.1-32.6-1.1 36-19.1 99-19.1 99 19.1-14.6 29.5-22.3 29.5-22.3 3.9 67.8 19.1 140.7 38.1 216.1-372.6-68-321.9 209.1-212.7 426.7C44.9 1752.4 150 1859.3 150 1859.3c-53.2-20.3-160.8-6.5-176.6 54.5-14.6 56.5 88.9 53.4 88.9 53.4h277c13.4 56.7 29.4 93.3 51 94.8 38 2.6 54.7-25.6 66.2-94.8h229c11.5 69.2 28.3 97.4 66.2 94.8 21.6-1.5 37.7-38.1 51-94.8h277s103.6 3.1 88.9-53.4c-15.7-61-123.3-74.7-176.4-54.5z"/><defs><path id="SVGID_7_" d="M1043.4 257.2c-5.6-14.2-12.2-28-19.5-41.4-13.9-25.5-30.8-49.6-50.4-72-33.8-38.7-75.4-72.4-122.9-99.3-16.1-9.1-33-17.4-50.4-24.9-9.8-4.2-19.9-8.3-30.1-12-60.5-21.9-127.3-34.1-197.5-34-1.2 0-2.4.1-3.7.1v-.1c-1.3 0-2.6-.1-3.9-.1-70.2.1-136.9 12.5-197.4 34.7-10.2 3.7-20.2 7.8-30 12.1-17.4 7.6-34.2 15.9-50.3 25.1-47.4 27.1-88.9 60.9-122.6 99.7-19.5 22.5-36.3 46.6-50.1 72.1-7.3 13.5-13.8 27.3-19.4 41.5-16.2 41.1-25 84.9-24.9 130.5.1 40.7 17.5 101.8 48.9 168.3l1.5.9.1-.5c5.2-2.2 10.2-4.8 15.1-7.5 1.6-.9 3.1-2 4.7-2.9 3.2-1.9 6.4-3.8 9.5-6 1.8-1.2 3.5-2.6 5.2-3.9 2.8-2.1 5.6-4.1 8.2-6.3 1.7-1.4 3.4-3 5.1-4.5 2.6-2.3 5.2-4.5 7.7-6.9l4.8-4.8c2.5-2.5 4.9-4.9 7.3-7.5l4.5-5.1c2.4-2.7 4.8-5.3 7.1-8.1 1.4-1.6 2.7-3.4 4.1-5 2.4-3 4.8-5.9 7.1-9 1.1-1.5 2.3-3 3.4-4.5 2.5-3.3 5-6.7 7.5-10.1.9-1.2 1.7-2.4 2.5-3.6 2.8-3.9 5.5-7.9 8.2-11.8.3-.4.5-.8.8-1.2 18.6-27.4 36-55.7 54.5-80.9.3-.5.7-.9 1-1.4 2.8-3.9 5.7-7.7 8.6-11.4.6-.7 1.1-1.4 1.7-2.2 2.7-3.5 5.5-6.8 8.3-10.1.7-.8 1.5-1.7 2.2-2.5 2.7-3.1 5.5-6.1 8.3-9 .9-.9 1.7-1.8 2.6-2.6 2.7-2.8 5.5-5.4 8.4-8 1-.9 1.9-1.7 2.9-2.5 2.8-2.4 5.7-4.8 8.6-6.9 1-.8 2.1-1.5 3.2-2.3 2.9-2.1 5.9-4.1 8.9-5.9 1.1-.7 2.3-1.3 3.4-2 3-1.7 6.1-3.3 9.3-4.8 1.2-.6 2.5-1.1 3.7-1.6 3.2-1.3 6.4-2.6 9.8-3.6 1.3-.4 2.6-.7 4-1.1 3.4-.9 6.8-1.7 10.3-2.3l4.2-.6c3.6-.5 7.2-.9 11-1h4.4c3.8 0 7.7.1 11.7.5 1.5.1 3 .4 4.6.6 4.1.5 8.3 1.1 12.6 2.1 1.5.3 3.1.8 4.7 1.2 4.4 1.1 8.9 2.3 13.6 3.8 1.5.5 3.1 1.2 4.7 1.7 4.8 1.7 9.7 3.6 14.8 5.8 1.5.6 3 1.5 4.5 2.1 5.3 2.5 10.7 5 16.3 8 1.3.7 2.7 1.6 4 2.3 5.9 3.3 11.9 6.7 18.1 10.6.9.6 1.9 1.3 2.8 1.9 6.7 4.3 13.6 8.9 20.7 14-12-123.9-15.8-245.2 22.9-245.7v.1c38.9-.1 35.6 121.5 24.2 245.9 7.1-5.1 13.9-9.7 20.7-14.1.9-.6 1.9-1.3 2.8-1.9 6.2-3.9 12.2-7.4 18.1-10.7 1.3-.7 2.7-1.6 4-2.3 5.6-3 10.9-5.6 16.3-8.1 1.5-.7 3-1.5 4.5-2.1 5.1-2.2 10-4.1 14.8-5.8 1.5-.6 3.2-1.2 4.7-1.8 4.7-1.6 9.1-2.8 13.6-3.9 1.6-.4 3.2-.9 4.7-1.2 4.3-1 8.5-1.6 12.6-2.1 1.5-.2 3.1-.5 4.6-.6 4-.4 7.9-.5 11.7-.5 1.5 0 3-.1 4.4 0 3.7.1 7.4.5 11 .9 1.4.2 2.8.3 4.2.5 3.5.6 6.9 1.4 10.3 2.3 1.3.4 2.7.7 4 1.1 3.3 1 6.6 2.2 9.8 3.6 1.2.5 2.5 1 3.7 1.6 3.2 1.4 6.3 3 9.3 4.8 1.1.6 2.3 1.3 3.4 2 3 1.8 6 3.8 8.9 5.9 1.1.8 2.1 1.5 3.2 2.3 2.9 2.2 5.8 4.5 8.6 6.9 1 .8 2 1.7 2.9 2.5 2.8 2.5 5.6 5.2 8.4 7.9l2.6 2.6c2.8 2.9 5.6 5.9 8.3 9 .7.8 1.5 1.7 2.2 2.5 2.8 3.3 5.6 6.6 8.4 10.1.6.7 1.1 1.4 1.7 2.2 2.9 3.7 5.8 7.5 8.7 11.3.3.4.7.9 1 1.4 18.5 25.2 36 53.5 54.7 80.7.3.4.5.8.8 1.2 2.7 4 5.5 7.9 8.3 11.8.8 1.2 1.7 2.4 2.5 3.6 2.5 3.4 5 6.7 7.5 10.1 1.1 1.5 2.3 3 3.4 4.5 2.3 3 4.7 6 7.1 8.9 1.4 1.7 2.7 3.4 4.1 5 2.3 2.8 4.7 5.4 7.1 8.1l4.5 5.1c2.4 2.6 4.9 5 7.3 7.5 1.6 1.6 3.2 3.3 4.8 4.8 2.5 2.4 5.1 4.6 7.7 6.8l5.1 4.5c2.7 2.2 5.5 4.2 8.3 6.2 1.8 1.3 3.4 2.7 5.2 3.9 3.1 2.1 6.3 4 9.5 6 1.6 1 3.1 2 4.7 2.9 4.9 2.7 9.9 5.2 15.1 7.5l.1.5 1.5-.9c31.2-66.6 48.4-127.7 48.3-168.4-.1-46-9.1-89.8-25.4-130.8z"/></defs><clipPath id="SVGID_6_"><use xlink:href="#SVGID_7_" overflow="visible"/></clipPath><path id="XMLID_28_" d="M497 1305.4s0 239.6-20.2 459-23.9 302.4-87.9 298c-64-4.4-78.7-315.4-121.4-547.7-34.3-187-109.7-379.7-119-543.2 0 0-10.3 7.7-29.5 22.3 0 0 18-63 19.1-99 0 0-7.9 16.9-37.1 32.6 0 0 18-85.5 15.7-142.9-2.3-57.4-11.7-223.3 19.1-348.7 9.3-37.9-29.2-66.4-29.2-66.4s45-46.1 47.2-79.9c0 0-48.4 12.4-67.5 5.6 0 0 38.2-29.2 54-63C156.1 198.5 221.9 2.7 569.6 2.7s413.5 195.7 429.2 229.5c15.7 33.7 54 63 54 63-19.1 6.7-67.5-5.6-67.5-5.6 2.2 33.7 47.2 79.9 47.2 79.9s-38.6 28.5-29.2 66.4c30.9 125.5 21.4 291.4 19.1 348.7-2.3 57.4 15.7 142.9 15.7 142.9-29.2-15.7-37.1-32.6-37.1-32.6 1.1 36 19.1 99 19.1 99-19.1-14.6-29.5-22.3-29.5-22.3-9.3 163.5-84.7 356.2-119 543.2-42.6 232.4-57.4 543.4-121.4 547.7-64 4.4-67.6-78.6-87.9-298s-20.2-459-20.2-459" clip-path="url(#SVGID_6_)" fill="#3c3729"/><path class="st4" d="M423.9 21.4C398-74.3 337.5-275.9 289.6-272c-62.7 5.1-89.2 406.7-89.2 406.7m602.4 1832.6h277s103.6 3.1 88.9-53.4c-15.8-61-123.4-74.8-176.6-54.5 0 0 105.1-106.9 174.7-245.5 109.2-217.6 159.9-494.7-212.7-426.7 19-75.4 34.2-148.2 38.1-216.1 0 0 10.3 7.7 29.5 22.3 0 0-18-63-19.1-99 0 0 7.9 16.9 37.1 32.6 0 0-18-85.5-15.7-142.9 2.3-57.4 11.7-223.3-19.1-348.7-9.3-37.9 29.2-66.4 29.2-66.4s-45-46.1-47.2-79.9c0 0 48.4 12.4 67.5 5.6 0 0-38.2-29.2-54-63C984.6 198.1 918.7 2.3 571.1 2.3S157.6 198.1 141.8 231.8s-54 63-54 63c19.1 6.8 67.5-5.6 67.5-5.6-2.3 33.7-47.2 79.9-47.2 79.9s38.6 28.5 29.2 66.4c-30.9 125.5-21.4 291.4-19.1 348.7 2.3 57.4-15.7 142.9-15.7 142.9 29.2-15.8 37.1-32.6 37.1-32.6-1.1 36-19.1 99-19.1 99 19.1-14.6 29.5-22.3 29.5-22.3 3.9 67.8 19.1 140.7 38.1 216.1-372.6-68-321.9 209.1-212.7 426.7C44.9 1752.5 150 1859.4 150 1859.4c-53.2-20.3-160.8-6.5-176.6 54.5-14.6 56.5 88.9 53.4 88.9 53.4h277"/><defs><path id="SVGID_9_" d="M998.2 1862.4s105.1-106.9 174.7-245.5c109.2-217.6 159.9-494.7-212.7-426.7 19-75.4 34.2-148.2 38.1-216.1 0 0 10.3 7.7 29.5 22.3 0 0-18-63-19.1-99 0 0 7.9 16.9 37.1 32.6 0 0-18-85.5-15.7-142.9 2.2-57.4 11.7-223.3-19.1-348.7-9.3-37.9 29.2-66.4 29.2-66.4s-45-46.1-47.2-79.9c0 0 48.4 12.4 67.5 5.6 0 0-38.2-29.2-54-63C990.6 201.1 924.8 5.4 577.2 5.4S163.7 201.1 147.9 234.9s-54 63-54 63c19.1 6.8 67.5-5.6 67.5-5.6-2.3 33.7-47.2 79.9-47.2 79.9s38.6 28.5 29.2 66.4C112.5 564.1 122 730 124.3 787.3c2.3 57.4-15.7 142.9-15.7 142.9 29.2-15.8 37.1-32.6 37.1-32.6-1.1 36-19.1 99-19.1 99 19.1-14.6 29.5-22.3 29.5-22.3 3.9 67.8 19.1 140.7 38.1 216.1-372.6-68-321.9 209.1-212.7 426.7 69.6 138.6 174.7 245.5 174.7 245.5-53.2-20.3-160.8-6.5-176.6 54.5-14.6 56.5 88.9 53.4 88.9 53.4h277c13.4 56.7 29.4 93.3 51 94.8 38 2.6 54.7-25.6 66.2-94.8h229c11.5 69.2 28.3 97.4 66.2 94.8 21.6-1.5 37.7-38.1 51-94.8h277s103.6 3.1 88.9-53.4c-15.8-61.2-123.4-74.9-176.6-54.7z"/></defs><clipPath id="SVGID_8_"><use xlink:href="#SVGID_9_" overflow="visible"/></clipPath><path d="M448.4-50.7S4 186.7 229.3 1233.8c0 0-593.5-130.9-30.4 651.4 0 0-296.1 29.5-152.2 133.9 398.7 289.2 1098.8-15.2 1098.8-15.2s85.2-115.7-194.8-115.7c0 0 554-742.7-36.5-645.3 0 0 243.5-1041-182.6-1260.1-99.4-51.1 292.2-36.5 292.2-36.5L1316 1705.6l-79.1 444.4s-1351.4 237.4-1375.8 127.8c-24.4-109.6-146.1-584.4-146.1-584.4S-151.2 621.9-157.3 567.1c-6.1-54.8 115.7-675.7 127.8-681.8s477.9 64 477.9 64z" opacity=".05" clip-path="url(#SVGID_8_)"/><g class="st6"><path class="st7" d="M153.2 291c11.6-10 35.7-32.5 47.4-57.6 15.3-32.7 77.7-217.9 398.8-229-9.9-.2-20-.4-30.4-.4-347.7 0-413.5 195.7-429.2 229.5-15.8 33.7-54 63-54 63 19.1 6.8 67.5-5.6 67.5-5.6l-.1.1z"/></g><defs><path id="SVGID_11_" d="M992.2 1862.4s105.1-106.9 174.7-245.5c109.2-217.6 159.9-494.7-212.7-426.7 19-75.4 34.2-148.2 38.1-216.1 0 0 10.3 7.7 29.5 22.3 0 0-18-63-19.1-99 0 0 7.9 16.9 37.1 32.6 0 0-18-85.5-15.7-142.9 2.3-57.4 11.7-223.3-19.1-348.7-9.3-37.9 29.2-66.4 29.2-66.4s-45-46.1-47.2-79.9c0 0 48.4 12.4 67.5 5.6 0 0-38.2-29.2-54-63C984.6 201.1 918.7 5.4 571.1 5.4S157.6 201.1 141.8 234.9s-54 63-54 63c19.1 6.8 67.5-5.6 67.5-5.6-2.3 33.7-47.2 79.9-47.2 79.9s38.6 28.5 29.2 66.4C106.5 564 116 729.9 118.2 787.2c2.3 57.4-15.7 142.9-15.7 142.9 29.2-15.8 37.1-32.6 37.1-32.6-1.1 36-19.1 99-19.1 99 19.1-14.6 29.5-22.3 29.5-22.3 3.9 67.8 19.1 140.7 38.1 216.1-372.6-68-321.9 209.1-212.7 426.7C44.9 1755.5 150 1862.4 150 1862.4c-53.2-20.3-160.8-6.5-176.6 54.5-14.6 56.5 88.9 53.4 88.9 53.4h277c13.4 56.7 29.4 93.3 51 94.8 38 2.6 54.7-25.6 66.2-94.8h229c11.5 69.2 28.3 97.4 66.2 94.8 21.6-1.5 37.7-38.1 51-94.8h277s103.6 3.1 88.9-53.4c-15.7-61-123.3-74.7-176.4-54.5z"/></defs><clipPath id="SVGID_10_"><use xlink:href="#SVGID_11_" overflow="visible"/></clipPath><g id="XMLID_7_"><circle id="XMLID_12_" class="st26" cx="312.3" cy="284.3" r="140.2"/><g id="XMLID_8_"><circle id="XMLID_11_" class="st27" cx="314.6" cy="286.6" r="71.8"/><circle id="XMLID_10_" class="st28" cx="314.6" cy="286.6" r="52.6"/><circle id="XMLID_9_" class="st29" cx="344.5" cy="239.4" r="19.2"/></g></g></g></g></svg>