<svg xmlns="http://www.w3.org/2000/svg" xmlns:xlink="http://www.w3.org/1999/xlink" width="60" height="60" viewBox="0 0 60 60"><circle fill="#EBC642" cx="30" cy="30" r="30"/><defs><path id="a" d="M3.298 9.835s5.672 25.936 9.317 33.11C16.26 50.117 25.8 54.102 30.464 54.102c4.663 0 11.638-1.486 17.619-11.156 5.981-9.674 12.152-38.522 12.152-38.522l-2.128-37.459-47.521-14.814L.23 1.767l3.068 8.068z"/></defs><clipPath id="b"><use xlink:href="#a" overflow="visible"/></clipPath><g clip-path="url(#b)"><defs><path id="c" d="M-24.974-2.472H86.627v111.601H-24.974z"/></defs><clipPath id="d"><use xlink:href="#c" overflow="visible"/></clipPath><path clip-path="url(#d)" fill="#F8F4EC" d="M39.658 19.07s1.938-6.833 8.724-7.851c0 0 3.07 7.153-3.296 12.503"/><g opacity=".15" clip-path="url(#d)"><defs><path id="e" d="M40.772 13.083h6.701v8.991h-6.701z"/></defs><clipPath id="f"><use xlink:href="#e" overflow="visible"/></clipPath><path clip-path="url(#f)" fill="#040000" d="M40.772 19.555s1.718-4.921 6.467-6.472c0 0 1.413 5.26-2.696 8.991l-3.771-2.519z"/></g><path clip-path="url(#d)" fill="#F8F4EC" d="M21.907 19.07s-1.938-6.833-8.722-7.851c0 0-3.071 7.153 3.295 12.503"/><g opacity=".15" clip-path="url(#d)"><defs><path id="g" d="M14.093 13.083h6.7v8.991h-6.7z"/></defs><clipPath id="h"><use xlink:href="#g" overflow="visible"/></clipPath><path clip-path="url(#h)" fill="#040000" d="M20.793 19.555s-1.717-4.921-6.466-6.472c0 0-1.413 5.26 2.696 8.991l3.77-2.519z"/></g></g><path clip-path="url(#b)" fill="#F8F4EC" d="M55.675 71.754c.694-2.412 1.238-5.211-.163-7.484-2.106-3.42-6.925-2.928-10.32-2.398.999-3.965 1.86-7.996 2.176-12.078.13-1.678.101-3.365.276-5.041.125-1.197.915-2.285.915-2.285s-.687-.23-.661-.783c.333-.109.625-.338.81-.637-.523-.049-.884-.584-.957-1.105-.072-.521.062-1.047.116-1.57s.01-1.104-.35-1.49c1.085.234 2.292-.336 2.798-1.324a4.376 4.376 0 0 1-2.461-2.428c.825.367 1.807.275 2.628-.102.821-.375 1.501-1.01 2.072-1.711a6.62 6.62 0 0 1-4.835-2.679c.351.027.84.107 1.236-.289-1.083-.519-2.095-2.392-2.762-3.813-2.209-4.711-7.444-6.603-12.331-7.123l.044.585-.211-.07c.284-1.361 1.313-2.375 1.362-2.449-1.372-.229-2.013.503-2.013.503-.801-1.121-.526-4.276-.526-4.276-1.578 1.258-2.035 3.773-2.035 3.773-.686-1.143-2.287-2.172-2.287-2.172 1.28 3.041.686 3.315.686 3.315-.915-.457-2.287-.754-2.287-.754 1.921 2.401.961 3.042.961 3.042h.276l-.404.355.142-1.852c-4.886.52-10.123 2.412-12.332 7.123-.666 1.421-1.678 3.293-2.761 3.813.396.396.886.316 1.237.289a6.628 6.628 0 0 1-4.835 2.679c.571.701 1.25 1.336 2.072 1.711.821.377 1.802.469 2.628.102a4.378 4.378 0 0 1-2.462 2.428c.506.988 1.714 1.559 2.798 1.324-.358.387-.404.967-.35 1.49.054.523.189 1.049.116 1.57-.072.521-.434 1.057-.957 1.105.185.299.477.527.81.637.025.553-.662.783-.662.783s.79 1.088.915 2.285c.175 1.676.147 3.363.276 5.041.316 4.082 1.177 8.113 2.176 12.078-3.396-.529-8.213-1.021-10.32 2.398-1.401 2.273-.858 5.072-.163 7.484a33.886 33.886 0 0 0 3.298 7.707c1.608 2.756 3.586 5.283 5.734 7.637-.01-.008-.006.004.023.025-1.189-.449-2.515-.68-3.777-.434-1.021.199-2.804 1.127-2.934 2.406-.175 1.711 2.554 1.83 3.675 1.883 3.337.16 6.783.197 10.148.197l.008-.111c.494 2.029 1.084 3.328 1.875 3.383 1.394.094 2.024-.916 2.457-3.385h8.664c.433 2.469 1.064 3.479 2.458 3.385.888-.061 1.521-1.693 2.051-4.164l.068.893c3.366 0 6.811-.037 10.149-.197 1.121-.053 3.85-.172 3.675-1.883-.131-1.279-1.913-2.207-2.934-2.406-1.262-.246-2.589-.016-3.778.434.029-.021.034-.033.024-.025 2.147-2.354 4.125-4.881 5.734-7.637a33.877 33.877 0 0 0 3.301-7.708"/><path clip-path="url(#b)" fill="#F8F4EC" d="M27.57 17.414c-4.886.52-10.123 2.412-12.332 7.123-.666 1.421-1.678 3.293-2.761 3.813.396.396.886.316 1.237.289a6.628 6.628 0 0 1-4.835 2.679c.571.701 1.25 1.336 2.072 1.711.821.377 1.802.469 2.628.102a4.378 4.378 0 0 1-2.462 2.428c.507.988 1.714 1.559 2.798 1.324-.358.387-.404.967-.35 1.49.054.523.189 1.049.116 1.57-.072.521-.434 1.057-.957 1.105.185.299.477.527.81.637.025.553-.662.783-.662.783s.79 1.088.915 2.285c.175 1.676.147 3.363.276 5.041.316 4.082 1.177 8.113 2.176 12.078-3.396-.529-8.213-1.021-10.32 2.398-1.401 2.273-.858 5.072-.163 7.484a33.886 33.886 0 0 0 3.298 7.707c1.608 2.756 3.586 5.283 5.734 7.637-.01-.008-.006.004.023.025-1.189-.449-2.515-.68-3.777-.434-1.021.199-2.804 1.127-2.934 2.406-.175 1.711 2.554 1.83 3.675 1.883 3.337.16 6.783.197 10.148.197l.008-.111c.494 2.029 1.084 3.328 1.875 3.383 1.394.094 2.024-.916 2.457-3.385h8.664c.433 2.469 1.064 3.479 2.458 3.385.888-.061 1.521-1.693 2.051-4.164l.068.893c3.366 0 6.812-.037 10.149-.197 1.121-.053 3.85-.172 3.675-1.883-.131-1.279-1.913-2.207-2.934-2.406-1.262-.246-2.588-.016-3.778.434.029-.021.034-.033.024-.025 2.147-2.354 4.125-4.881 5.734-7.637a33.972 33.972 0 0 0 3.297-7.707c.694-2.412 1.238-5.211-.163-7.484-2.106-3.42-6.925-2.928-10.32-2.398.999-3.965 1.86-7.996 2.176-12.078.13-1.678.101-3.365.276-5.041.125-1.197.915-2.285.915-2.285s-.687-.23-.661-.783c.333-.109.625-.338.81-.637-.523-.049-.884-.584-.957-1.105-.072-.521.062-1.047.116-1.57s.01-1.104-.35-1.49c1.085.234 2.292-.336 2.798-1.324a4.376 4.376 0 0 1-2.461-2.428c.825.367 1.807.275 2.628-.102.821-.375 1.501-1.01 2.072-1.711a6.62 6.62 0 0 1-4.835-2.679c.351.027.84.107 1.236-.289-1.083-.519-2.095-2.392-2.762-3.813-2.209-4.711-7.444-6.603-12.331-7.123"/><path clip-path="url(#b)" fill="#F8F4EC" d="M33.695 17.929c.284-1.361 1.313-2.375 1.362-2.449-1.372-.229-2.013.503-2.013.503-.801-1.121-.526-4.276-.526-4.276-1.578 1.258-2.035 3.773-2.035 3.773-.686-1.143-2.287-2.172-2.287-2.172 1.28 3.041.686 3.315.686 3.315-.915-.457-2.287-.754-2.287-.754"/><path clip-path="url(#b)" fill="none" d="M-24.974-2.472H86.627v111.601H-24.974z"/><g clip-path="url(#b)"><defs><path id="i" d="M30.483 15.48c-.686-1.143-2.287-2.172-2.287-2.172 1.28 3.041.686 3.315.686 3.315-.915-.457-2.287-.754-2.287-.754 1.921 2.401.961 3.042.961 3.042h.276l-.404.356.142-1.852c-4.886.52-10.123 2.411-12.332 7.122-.666 1.421-1.678 3.293-2.761 3.813.396.396.886.316 1.237.289a6.628 6.628 0 0 1-4.835 2.679c.571.701 1.25 1.336 2.071 1.711.822.377 1.804.469 2.629.102a4.375 4.375 0 0 1-2.462 2.428c.506.988 1.714 1.559 2.798 1.324-.358.387-.404.967-.35 1.49.054.523.189 1.049.116 1.57-.072.521-.434 1.057-.957 1.105.185.299.477.527.81.637.025.553-.662.783-.662.783s.79 1.088.915 2.285c.175 1.676.147 3.363.276 5.041.316 4.082 1.177 8.113 2.176 12.078-3.396-.529-8.213-1.021-10.32 2.398-1.401 2.273-.858 5.072-.164 7.484a33.969 33.969 0 0 0 3.298 7.707c1.608 2.756 3.586 5.283 5.734 7.637-.01-.008-.006.002.023.025-1.189-.449-2.515-.68-3.777-.434-1.021.199-2.804 1.127-2.934 2.406-.175 1.711 2.554 1.83 3.675 1.883 3.337.16 6.783.197 10.148.197l.008-.111c.494 2.029 1.084 3.328 1.875 3.383 1.394.094 2.024-.916 2.458-3.385h8.664c.433 2.469 1.064 3.479 2.458 3.385.888-.061 1.521-1.693 2.051-4.164l.068.893c3.366 0 6.812-.037 10.149-.197 1.121-.053 3.85-.172 3.675-1.883-.131-1.279-1.913-2.207-2.934-2.406-1.262-.246-2.588-.016-3.778.434.029-.023.034-.033.024-.025 2.147-2.354 4.125-4.881 5.734-7.637a34.01 34.01 0 0 0 3.297-7.707c.694-2.412 1.238-5.211-.163-7.484-2.106-3.42-6.925-2.928-10.32-2.398.999-3.965 1.86-7.996 2.176-12.078.13-1.678.101-3.365.276-5.041.125-1.197.915-2.285.915-2.285s-.687-.23-.662-.783c.334-.109.626-.338.811-.637-.523-.049-.884-.584-.958-1.105-.072-.521.063-1.047.117-1.57s.01-1.104-.35-1.49c1.085.234 2.292-.336 2.798-1.324a4.376 4.376 0 0 1-2.461-2.428c.825.367 1.807.275 2.628-.102.821-.375 1.501-1.01 2.072-1.711a6.62 6.62 0 0 1-4.835-2.679c.351.027.84.107 1.235-.289-1.082-.519-2.094-2.392-2.761-3.813-2.208-4.711-7.444-6.603-12.331-7.122l.048.584-.211-.07c.284-1.361 1.313-2.375 1.362-2.449-1.372-.229-2.013.503-2.013.503-.801-1.121-.526-4.276-.526-4.276-1.578 1.257-2.035 3.772-2.035 3.772"/></defs><clipPath id="j"><use xlink:href="#i" overflow="visible"/></clipPath><path clip-path="url(#j)" fill-rule="evenodd" clip-rule="evenodd" fill="#E4C3AC" d="M70.341 56.992c.235.023.402.027.565.055.312.055.615.039.928 0 .391-.047.786-.055 1.179-.066.344-.014.658.088.923.313.48.408 1.03.693 1.612.922.498.195.875.547 1.217.943.234.271.294.588.225.932-.017.082-.034.166-.07.238-.241.5-.106.969.107 1.434.166.357.342.711.486 1.076.234.592.193 1.178-.08 1.75a1.79 1.79 0 0 1-.589.711c-.661.461-1.387.744-2.204.75-.486.002-.945-.139-1.383-.324a1.123 1.123 0 0 1-.682-.838 9.794 9.794 0 0 1-.131-1.172c-.013-.205.027-.412.049-.619.014-.123.045-.244.058-.367.042-.428-.093-.771-.465-1.014-.156-.102-.302-.219-.453-.328-.494-.357-1.031-.4-1.599-.223-.078.023-.152.066-.233.086-.788.197-1.271.744-1.638 1.424a1.219 1.219 0 0 0 .242 1.479c.2.186.42.354.684.418.698.174.938.926.775 1.553-.146.561-.449 1.021-1.001 1.279-.226.105-.446.221-.675.318-.307.131-.606.102-.896-.063a1.784 1.784 0 0 1-.694-.695c-.313-.561-.642-1.113-.959-1.67a1.273 1.273 0 0 0-.414-.457c-.417-.271-.66-.686-.899-1.098-.212-.365-.176-.758-.004-1.137a3.15 3.15 0 0 1 .674-.965c.394-.379.698-.813.921-1.314.22-.5.573-.898.966-1.279.676-.66 1.407-1.223 2.275-1.602.132-.059.254-.145.371-.229.266-.193.558-.268.812-.221m4.88 40.578c-.187 0-.373-.004-.561.002a.914.914 0 0 0-.709.332c-.244.285-.451.594-.567.955-.151.469-.054.738.355 1.008.173.113.351.223.507.355a.987.987 0 0 1 .343.771c.003.316-.051.619-.188.904-.25.514-.658.725-1.222.631-.101-.018-.199-.055-.301-.074a1.34 1.34 0 0 0-.557-.002c-.804.186-1.517-.102-2.193-.463-.401-.213-.619-.596-.629-1.076-.011-.563.001-1.121.154-1.666.141-.498.26-1.002.452-1.486.098-.248.173-.51.229-.773.115-.549.385-1 .815-1.357.063-.053.128-.105.188-.164.507-.488 1.099-.803 1.802-.908.413-.063.794-.227 1.169-.408.298-.146.601-.281.906-.408a1.457 1.457 0 0 1 1.036-.035c.494.16 1.003.256 1.513.346.6.105 1.163.301 1.625.725.106.098.236.168.354.252a2.487 2.487 0 0 1 1.058 1.758c.119.861.24 1.721.436 2.57.074.322.117.652.149.982.08.799-.426 1.631-1.131 1.895-.262.1-.529.104-.798.082-.333-.027-.656-.043-.979.09-.193.078-.409.059-.616.041-.399-.033-.791-.094-1.038-.463-.289-.432-.434-.896-.284-1.414.045-.16.116-.311.174-.467.058-.154.12-.309.171-.467.117-.361.07-.699-.198-.982-.193-.201-.33-.416-.348-.705-.013-.215-.168-.338-.373-.354-.247-.018-.497-.004-.745-.004v-.023zM59.708 71.717c.32-.084.64-.172.963-.25a3.322 3.322 0 0 1 1.357-.063c.868.148 1.695.02 2.486-.344a1.15 1.15 0 0 1 .664-.107c.581.078 1.133.211 1.591.629.487.441.677.975.611 1.613a3.716 3.716 0 0 1-.074.43c-.089.408.003.736.392.951.254.139.383.367.431.648.048.279 0 .539-.161.771a4.298 4.298 0 0 1-.315.385c-.461.508-.983.949-1.502 1.398-.283.246-.623.408-.963.561-.19.086-.393.145-.604.107-.1-.02-.23-.035-.286-.102-.213-.25-.459-.482-.568-.803a.717.717 0 0 1 .03-.549c.108-.225.162-.467.222-.709.038-.16.109-.313.177-.465.05-.111.121-.217.177-.326.265-.521.214-.705-.285-1.02-.158-.1-.32-.193-.477-.295a1.18 1.18 0 0 0-.955-.148c-.605.146-1.191.357-1.763.605-.227.098-.346.26-.36.525-.035.607.006 1.201.205 1.779.046.137.086.277.122.418.219.869-.254 1.695-1.111 1.936-.278.076-.56.141-.854.15-1.082.037-1.803-.512-2.303-1.412-.129-.234-.219-.49-.323-.74a1.856 1.856 0 0 1 .007-1.51 3.65 3.65 0 0 1 .251-.5c.145-.232.254-.475.285-.748.049-.418.201-.805.383-1.178.334-.682.839-1.178 1.589-1.385.32-.088.642-.17.963-.254-.002.004-.002.004-.002.002m9.26 13.271c-.016-.096-.017-.117-.022-.137-.255-.781-.554-.746-1.187-.631-.533.096-.917.471-1.207.918a.829.829 0 0 0-.118.656c.209.879-.126 1.635-.557 2.359-.193.324-.541.508-.853.703a.582.582 0 0 1-.652-.045c-.396-.297-.824-.539-1.187-.895-.514-.502-.714-1.098-.769-1.777-.022-.27-.049-.535-.073-.805-.007-.082-.031-.168-.017-.246.125-.693.202-1.4.521-2.041.092-.186.192-.375.33-.523.498-.529 1.02-1.035 1.681-1.367.204-.104.401-.217.602-.324.092-.051.179-.113.275-.145.843-.289 1.682-.598 2.59-.609.25-.004.498.004.747-.008.574-.025 1.107.145 1.634.336.411.15.679.469.902.824.243.387.486.773.703 1.176.448.826.541 1.689.185 2.572a1.8 1.8 0 0 0-.145.723c.004.145-.006.293-.034.434-.095.477-.499.896-.982.885-.276-.008-.529.076-.785.17-.507.184-.952.033-1.237-.418a4.549 4.549 0 0 1-.337-.664c-.158-.373-.246-.752-.008-1.121m2.641 1.338c.008-.016.021-.031.02-.047-.001-.01-.028-.025-.039-.021-.043.012-.054.041-.027.078.004.006.03-.006.046-.01m-5.311 9.639c.221-.115.449-.221.685-.297.508-.164.946.004 1.219.471.138.236.278.461.494.633.38.299.423.881.19 1.309a2.014 2.014 0 0 1-.25.355 1.757 1.757 0 0 0-.35.646c-.291.906-.915 1.512-1.789 1.861-.422.17-.856.313-1.29.455-.399.129-.809.203-1.221.055-.528-.188-1.047-.396-1.472-.785-.185-.166-.381-.32-.57-.482-.691-.59-1.139-1.363-1.603-2.123-.054-.088-.08-.191-.119-.287-.085-.213-.165-.426-.256-.635-.296-.678-.373-1.4-.418-2.125-.012-.203.033-.414.08-.615.165-.697.558-1.289.904-1.902.039-.068.112-.119.17-.178.189-.191.383-.381.57-.572.477-.488 1.013-.818 1.728-.877.506-.041.99.047 1.483.072.24.012.459.156.531.381.114.35.265.715.206 1.088-.131.83-.358 1.627-1.08 2.17a.836.836 0 0 0-.329.58c-.063.529-.006 1.063.342 1.477.414.492.621.711 1.315.273.018-.012.032-.027.104-.092.057-.434.366-.673.726-.856m2.135 1.478c-.044.01-.056.041-.03.078.007.01.038.014.045.008.011-.012.011-.033.015-.051-.01-.011-.024-.037-.03-.035m8.535-25.738c.527-.029 1.003.119 1.48.26.182.053.335.158.484.271.176.133.294.295.285.523-.009.211.045.414.119.605.116.295.053.572-.053.846-.116.299-.361.451-.686.426-.185-.014-.366-.066-.551-.09-.415-.051-.617.09-.729.494-.081.285-.103.57-.01.857.12.373.327.68.716.799.416.129.838.23 1.261.334a.914.914 0 0 0 .309.004c.309-.031.617-.066.925-.109.121-.016.245-.045.358-.09.253-.105.366-.34.291-.609-.084-.299-.19-.588-.188-.908.002-.299.063-.572.231-.822.104-.154.188-.324.295-.475.271-.381.582-.697 1.101-.703.142-.002.282-.057.426-.08.483-.076.847.215.894.713.008.082.003.166.007.248.026.539.021 1.078.105 1.611.025.164.02.332.028.498.033.574-.185 1.061-.576 1.457-.422.428-.872.828-1.325 1.221-.337.291-.754.434-1.184.523-.425.09-.854.178-1.284.221a5.06 5.06 0 0 1-2.498-.346c-.271-.113-.531-.24-.734-.457-.162-.172-.365-.266-.586-.336-.178-.057-.348-.139-.526-.189-.495-.139-.884-.434-1.242-.791-.428-.428-.555-.912-.32-1.471.088-.209.205-.406.32-.602.084-.143.19-.271.282-.41.241-.365.324-.76.202-1.186a2.691 2.691 0 0 1-.104-.861.854.854 0 0 1 .229-.563c.229-.246.482-.453.807-.563.475-.158.953-.289 1.441-.25m1.508 1.104l.033.023a.348.348 0 0 1-.038-.02l-.026-.033.031.03zm4.044 1.603c-.049-.01-.078.008-.08.055-.001.016.014.039.026.045.015.006.05-.002.051-.006.005-.031.003-.065.003-.094m-4.103-.383l.047-.027c-.012-.012-.023-.031-.038-.035-.051-.012-.074.006-.059.047.004.009.033.009.05.015m-.674 4.481c.016-.008.032-.018.047-.027-.014-.012-.026-.031-.041-.031-.016-.002-.031.016-.047.025l.041.033m6.674-10.764c-.064-.152-.145-.299-.193-.457-.119-.393-.032-.684.32-.912.284-.186.445-.416.481-.75.022-.205.072-.408.113-.611.137-.668.384-.896 1.073-1.014.392-.066.785-.07 1.178-.053.313.016.62.016.929-.033.522-.08 1.03-.047 1.521.176.187.084.396.117.595.178.199.061.39.137.549.279.4.357.413.93.034 1.32-.247.256-.55.361-.897.354-.372-.008-.751.018-1.115-.041-.484-.08-.842.139-1.201.391-.181.125-.265.316-.285.531-.014.143.002.289-.004.434-.027.629-.383 1.053-.998 1.172-.224.043-.452.055-.678.08-.478.055-1.025-.227-1.245-.645-.068-.129-.116-.266-.174-.398l-.003-.001M83.378 90c-.016.006-.041.016-.046.01-.026-.035-.017-.066.027-.078.011-.004.038.012.039.021.001.016-.012.031-.02.047"/><path clip-path="url(#j)" fill-rule="evenodd" clip-rule="evenodd" fill="#E4C3AC" d="M83.939 75.018c0 .031.002.064-.003.094-.001.006-.037.014-.051.008-.014-.008-.027-.029-.026-.045.002-.048.032-.065.08-.057m-4.102-.381c-.018-.006-.046-.006-.05-.016-.017-.041.008-.061.059-.047.015.004.025.023.037.035l-.046.028m-.675 4.48c-.014-.01-.027-.023-.04-.033.015-.01.03-.027.046-.027.016.002.028.021.042.033a.453.453 0 0 1-.048.027m.734-5.701l-.033-.029.028.033zm-.005.004a.348.348 0 0 0 .038.02l-.033-.023-.005.003zm3.613 15.068c.466-.303.801-.729 1.08-1.197.117-.197.2-.414.301-.621.342-.691.343-1.406.141-2.127-.071-.258-.185-.504-.285-.754a.75.75 0 0 0-.125-.213c-.43-.49-.926-.893-1.574-1.066a5.253 5.253 0 0 0-1.737-.158c-.362.029-.691.162-1.021.295-.277.111-.412.348-.432.641-.026.379.036.748.209 1.086.212.416.547.67 1.032.693.146.006.293.002.438.01.195.012.362.09.509.215a.474.474 0 0 1-.022.754.473.473 0 0 1-.163.092c-.666.174-.999.727-1.383 1.215-.137.174-.138.387-.055.596.148.375.396.627.817.67.125.014.251.033.374.023a3.71 3.71 0 0 1 .998.049c.324.059.622-.021.898-.203m-7.411-.685c-.017-.025.006.039.049.08.451.428.803.938 1.2 1.41.417.496 1.021.77 1.558 1.121a.259.259 0 0 0 .113.049c.567.051 1.13.064 1.619-.305.327-.246.374-.662.112-.99-.089-.113-.202-.207-.305-.311-.337-.33-.586-.744-.986-1.021-.14-.096-.181-.275-.176-.447.009-.395.001-.787-.142-1.164-.054-.143-.014-.287.053-.422.184-.369.022-.695-.146-1a.643.643 0 0 0-.639-.318 6.913 6.913 0 0 0-1.104.201c-.242.066-.438.238-.599.439-.182.23-.361.461-.547.688-.402.496-.55 1.261-.06 1.99m-82.5-5.643c.952-.049 1.75.266 2.415.943.245.252.52.477.791.701.539.445.948.98 1.186 1.643.141.395.177.811.222 1.221.04.357.118.693.302 1 .386.646.291 1.289-.082 1.883a5.066 5.066 0 0 1-1.312 1.396c-.561.41-1.169.508-1.826.303-.356-.109-.706-.24-1.058-.361-.437-.15-.666-.637-.459-1.059.128-.26.231-.533.365-.789.185-.354.283-.734.367-1.119.084-.383.003-.729-.225-1.059-.406-.586-.979-.887-1.656-.994-.473-.074-.948-.066-1.399.156-.203.1-.426.16-.646.221-.319.094-.551.277-.683.586-.042.096-.089.188-.135.279-.096.197-.123.393-.017.596.038.074.063.154.102.229.309.576.386 1.221.514 1.848.1.494-.046.766-.5 1.025-.288.164-.584.313-.877.467a.493.493 0 0 1-.477-.01c-.092-.049-.178-.105-.266-.162-.549-.352-.981-.828-1.372-1.338a1.816 1.816 0 0 1-.342-1.469c.062-.348.115-.695.187-1.039.086-.412.104-.822.026-1.234-.137-.73.127-1.277.691-1.746.976-.811 2.11-1.301 3.287-1.715.232-.08.485-.105.73-.145.348-.055.701-.08 1.043-.154a5.042 5.042 0 0 1 1.104-.104m-16.752 13.336c-.14.057-.288.129-.443.18-.449.141-.622.297-.626.719-.003.418-.094.824-.117 1.238a2.059 2.059 0 0 1-.082.488c-.093.297-.18.592-.157.912.029.391-.355.789-.807.766-.269-.014-.54.012-.808 0a1.634 1.634 0 0 1-.487-.08c-.293-.105-.579-.23-.862-.359a1.77 1.77 0 0 1-.732-.656c-.273-.408-.347-.838-.147-1.299.107-.246.201-.502.323-.74.167-.324.238-.662.2-1.023-.028-.268-.043-.537-.09-.803a1.564 1.564 0 0 1 .07-.855c.133-.35.255-.703.406-1.043.183-.408.466-.734.875-.939.092-.045.19-.086.274-.145.522-.369 1.1-.465 1.72-.365.389.064.779.121 1.166.193.489.094.975.199 1.479.08.248-.057.498-.018.732.082.708.299 1.416.596 1.943 1.193.122.137.285.238.428.357.158.135.315.27.47.406a.982.982 0 0 1 .331.713c.022.393.072.783.114 1.176.04.375.181.723.312 1.072.095.254.156.514.224.775.11.418.052.82-.054 1.227-.112.436-.398.682-.827.736-.351.043-.7.063-1.022.23-.112.059-.246.041-.367 0-.552-.182-1.096-.387-1.602-.68-.341-.195-.433-.391-.367-.771.025-.143.083-.279.109-.42.088-.471.036-.912-.317-1.273-.304-.313-.609-.623-.916-.934a.59.59 0 0 0-.346-.158M-4.105 73.83c.043.146.079.307.138.459.169.439.156.672-.17.939-.324.264-.584.588-.893.863a2.04 2.04 0 0 0-.33.371c-.175.258-.35.512-.614.693-.323.221-.393.77-.092 1.107.179.201.328.43.505.631.107.125.23.244.368.328.264.164.542.309.819.447.304.154.631.193.97.164.49-.043.871-.254 1.105-.699.125-.238.266-.471.375-.715.15-.332.368-.6.673-.795.227-.146.447-.305.682-.434.263-.145.474-.332.625-.59.188-.322.389-.639.56-.971.204-.396.281-.822.185-1.268-.022-.102-.051-.203-.058-.307-.04-.637-.327-1.146-.792-1.568-.292-.264-.581-.533-.879-.789-.379-.322-.765-.637-.987-1.104a1.18 1.18 0 0 0-.521-.52c-.676-.365-1.351-.73-2.146-.77-.184-.01-.364-.074-.547-.109a16.333 16.333 0 0 0-.611-.111.972.972 0 0 0-.761.186c-.32.229-.658.436-.988.646-.318.205-.679.313-1.033.43-.256.084-.499.199-.745.309-.396.178-.673.475-.924.811-.27.359-.282.736-.056 1.105.185.301.388.584.459.941.025.123.123.217.229.285.487.318.988.613 1.532.826.367.143.576.092.832-.197.096-.107.167-.238.261-.348.313-.365.688-.6 1.191-.551.434.043.867.086 1.3.133a.617.617 0 0 1 .338.172m-16.666 4.6c.06.098.108.189.168.271.179.242.269.512.261.813-.002.082-.005.166.001.248.033.412.26.596.671.512.242-.049.481-.127.711-.219.381-.154.756-.201 1.149-.049.133.053.282.074.425.092.316.043.474-.07.535-.373.017-.08.027-.164.031-.246.017-.295.101-.57.216-.84.218-.506.317-1.021.214-1.574-.088-.473.085-.904.309-1.307.194-.348.502-.418.848-.227.259.145.496.334.609.604.17.4.425.754.569 1.17.327.941.352 1.865-.075 2.779-.245.523-.512 1.039-.773 1.557a1.984 1.984 0 0 1-1.027.955c-.513.215-.997.508-1.565.588-.177.025-.348.129-.513.215-.619.322-1.263.512-1.971.465-.371-.025-.745-.012-1.119-.006a2.667 2.667 0 0 1-1.09-.217 6.576 6.576 0 0 1-1.64-.996c-.303-.252-.485-.563-.479-.969a1.134 1.134 0 0 0-.027-.309c-.155-.59-.053-1.148.183-1.697.082-.189.155-.385.214-.584a.33.33 0 0 0-.184-.416c-.168-.076-.35-.125-.525-.186-.214-.076-.438-.135-.639-.236-.266-.133-.339-.344-.261-.623.17-.605.927-1.57 1.473-1.873.109-.059.221-.119.339-.154a7.573 7.573 0 0 1 1.588-.279c.431-.025.749.139.99.51.29.447.442.936.549 1.443.047.227.032.453-.037.678-.047.155-.085.318-.128.48m8.667-15.26a4.526 4.526 0 0 1-.338.666c-.285.451-.73.6-1.238.416-.255-.094-.508-.176-.784-.17-.483.014-.888-.406-.983-.885a2.022 2.022 0 0 1-.035-.432 1.773 1.773 0 0 0-.145-.723c-.357-.883-.263-1.748.186-2.574.217-.4.459-.789.702-1.174.224-.355.492-.674.903-.824.527-.191 1.06-.363 1.633-.336.25.01.499.002.747.006.909.012 1.747.32 2.591.609.097.033.183.096.275.145.2.109.398.223.603.324.661.332 1.181.838 1.679 1.367.139.148.239.34.33.523.32.643.397 1.348.521 2.041.014.078-.009.164-.017.246-.024.268-.051.537-.072.805-.054.681-.254 1.277-.767 1.78-.362.354-.791.596-1.187.893-.192.143-.453.172-.652.045-.312-.195-.66-.379-.854-.703-.43-.725-.764-1.48-.556-2.359a.835.835 0 0 0-.118-.656c-.29-.447-.674-.822-1.207-.918-.633-.115-.931-.148-1.186.631-.006.02-.007.041-.022.137.236.368.15.749-.009 1.12m-2.587.226c.027-.035.016-.066-.027-.078-.011-.004-.038.014-.04.021-.001.016.013.033.021.049.016.003.042.014.046.008m-15.917 4.35c-.065-.152-.145-.299-.193-.457-.119-.393-.032-.684.32-.912.285-.186.446-.416.481-.75.022-.205.073-.408.114-.611.136-.668.384-.896 1.074-1.014.391-.066.785-.07 1.177-.053.312.016.62.016.929-.033.522-.08 1.029-.047 1.521.176.187.084.396.117.595.178.2.061.39.137.549.279.4.357.413.93.034 1.32-.248.256-.55.361-.896.354-.373-.008-.752.018-1.115-.041-.484-.08-.842.139-1.202.391-.181.125-.265.316-.285.531-.014.143.001.289-.004.434-.027.629-.382 1.053-.998 1.172-.223.043-.452.055-.678.08-.477.055-1.025-.227-1.245-.645-.067-.129-.116-.266-.174-.398l-.004-.001m3.073 2.227c.473-.156.919-.375 1.409-.492.499-.117.82-.463.953-.967.047-.182.083-.365.141-.543.179-.545.537-.754 1.103-.633.384.082.688.279.836.666.09.232.198.457.282.691.146.402.168.809.005 1.215-.146.365-.284.732-.526 1.053-.47.619-1.091 1.006-1.824 1.23-.267.08-.535.078-.798.006a1.436 1.436 0 0 0-.796-.004c-.362.104-.702.023-1.007-.182a7.169 7.169 0 0 1-.586-.459 1.2 1.2 0 0 1-.336-.516c-.131-.354-.063-.531.289-.697.28-.132.57-.247.855-.368M2.648 85.639c-.166 0-.333.016-.497-.004-.408-.043-.641-.238-.712-.652-.058-.334-.206-.572-.499-.738-.18-.102-.347-.227-.517-.346-.56-.389-.673-.707-.508-1.387a5.53 5.53 0 0 1 .417-1.102c.137-.281.258-.564.335-.867.133-.512.364-.965.762-1.328.151-.139.264-.318.397-.477.134-.16.281-.303.474-.395.487-.227 1.016-.014 1.226.488.137.328.116.648-.028.965-.154.34-.279.697-.479 1.008-.264.414-.204.83-.114 1.258.045.217.187.369.375.473.127.07.267.113.397.176.568.273.817.766.684 1.379-.049.223-.128.438-.194.654-.139.461-.613.852-1.084.891-.144.012-.29.002-.435.002v.002zm3.259-1.946c.042-.498.019-.992.104-1.488.088-.506-.103-.938-.514-1.258-.147-.115-.302-.221-.442-.344-.433-.379-.483-.791-.148-1.264.228-.32.528-.521.943-.506.249.01.498 0 .746.014.427.025.81.166 1.118.475.278.277.562.551.76.898.384.676.495 1.4.412 2.162-.03.277-.14.521-.309.736a1.433 1.433 0 0 0-.318.73c-.048.373-.255.654-.564.854-.208.133-.432.244-.653.357-.189.096-.396.115-.606.105-.376-.018-.513-.15-.527-.541-.011-.309-.002-.621-.002-.93m0-52.941c.042-.496.019-.992.104-1.487.088-.506-.103-.937-.514-1.258-.147-.115-.302-.22-.442-.343-.433-.38-.483-.792-.148-1.264.228-.321.528-.521.943-.505.249.009.498-.001.746.013.427.025.81.166 1.118.475.278.279.562.551.76.899.384.675.495 1.399.412 2.162-.03.275-.14.521-.309.734a1.447 1.447 0 0 0-.318.73c-.048.375-.255.654-.564.854-.208.135-.432.246-.653.357-.189.096-.396.115-.606.105-.376-.018-.513-.15-.527-.541-.011-.31-.002-.62-.002-.931"/><path clip-path="url(#j)" fill-rule="evenodd" clip-rule="evenodd" fill="#E4C3AC" d="M8.566 75.688c.236.021.402.027.566.055.31.055.615.037.928 0 .39-.047.785-.055 1.179-.068.343-.012.658.088.922.313.48.41 1.031.695 1.613.924.498.193.875.545 1.216.943.235.271.294.586.225.932-.016.08-.035.164-.07.238-.242.5-.106.969.107 1.434.166.357.342.711.487 1.076.234.59.192 1.178-.081 1.748a1.796 1.796 0 0 1-.589.713c-.661.459-1.387.744-2.204.75-.487.002-.945-.139-1.383-.326a1.114 1.114 0 0 1-.682-.836 9.624 9.624 0 0 1-.13-1.174c-.013-.203.026-.412.049-.617.014-.123.044-.244.057-.367.042-.428-.093-.773-.465-1.014-.156-.102-.301-.221-.453-.33-.494-.355-1.031-.398-1.599-.223-.079.025-.153.066-.233.088-.788.197-1.271.744-1.638 1.424a1.215 1.215 0 0 0 .242 1.477c.2.188.42.355.684.42.698.172.938.924.775 1.553-.146.559-.449 1.021-1 1.279-.225.104-.446.221-.675.318a.966.966 0 0 1-.896-.064 1.77 1.77 0 0 1-.693-.693c-.314-.561-.642-1.113-.96-1.672a1.261 1.261 0 0 0-.415-.455c-.417-.271-.659-.688-.898-1.098-.213-.367-.176-.758-.004-1.137.165-.361.387-.689.672-.965.395-.379.699-.814.921-1.316.22-.498.574-.896.966-1.279.676-.66 1.407-1.223 2.275-1.602a2.05 2.05 0 0 0 .371-.227c.268-.195.56-.269.813-.222m3.762-38.504c.043.146.079.307.137.457.169.441.156.672-.171.939-.323.266-.583.59-.893.865a2.06 2.06 0 0 0-.329.369c-.175.26-.35.512-.614.693-.323.221-.394.771-.092 1.109.18.199.328.428.505.631.108.123.23.242.368.328.265.162.541.307.819.447.304.154.632.191.97.162.489-.043.87-.254 1.105-.697.125-.238.266-.471.376-.717a1.79 1.79 0 0 1 .672-.795c.227-.146.447-.303.683-.432.263-.145.475-.334.624-.59.188-.324.389-.639.56-.971.204-.398.282-.822.185-1.27-.022-.1-.051-.203-.057-.305-.04-.639-.327-1.148-.792-1.568-.292-.264-.58-.533-.879-.789-.379-.324-.766-.637-.988-1.104-.109-.23-.297-.4-.521-.521-.675-.365-1.35-.73-2.146-.77-.183-.008-.364-.072-.547-.109a31.245 31.245 0 0 0-.611-.111.975.975 0 0 0-.761.188c-.32.227-.657.434-.989.646-.318.203-.677.311-1.031.428-.257.086-.5.201-.745.311-.396.176-.672.473-.924.809-.269.359-.282.738-.057 1.105.186.301.389.586.46.941.024.125.123.219.229.287.488.316.988.611 1.532.824.367.145.576.094.831-.197.096-.107.167-.238.261-.348.313-.363.688-.598 1.192-.549.433.041.867.086 1.3.133a.584.584 0 0 1 .338.171M51.21 85.523a4.626 4.626 0 0 1-.338.666c-.285.451-.73.602-1.237.416-.256-.094-.51-.178-.785-.17-.482.014-.888-.406-.982-.885a1.967 1.967 0 0 1-.034-.434 1.762 1.762 0 0 0-.146-.721c-.356-.883-.263-1.748.186-2.574.218-.4.46-.789.702-1.174.225-.355.492-.674.903-.824.527-.191 1.061-.363 1.634-.336.249.01.498.002.747.006.908.012 1.747.32 2.59.609.097.033.184.096.275.145.2.109.398.223.603.324.66.332 1.182.838 1.68 1.367.139.148.238.34.33.523.319.643.396 1.348.521 2.041.014.078-.01.164-.017.248-.024.268-.051.535-.073.803-.055.68-.255 1.277-.769 1.779-.362.354-.791.596-1.187.893a.582.582 0 0 1-.652.047c-.312-.197-.66-.381-.854-.705-.43-.725-.764-1.48-.556-2.359a.835.835 0 0 0-.118-.656c-.29-.447-.674-.82-1.207-.918-.634-.113-.932-.148-1.187.631-.006.02-.007.041-.022.137.238.369.151.75-.007 1.121m-2.587.227c.027-.035.016-.066-.026-.078-.013-.002-.039.012-.04.021-.002.016.013.033.02.049.016.004.041.014.046.008m-21.718 8.467c-.065-.152-.146-.301-.193-.457-.12-.393-.033-.686.319-.912.286-.186.446-.416.482-.75.021-.207.072-.408.113-.611.136-.668.384-.896 1.074-1.014a5.462 5.462 0 0 1 1.177-.053c.313.016.62.014.93-.033.522-.08 1.029-.047 1.521.176.187.084.396.117.595.176.199.063.39.139.549.281.4.357.413.928.034 1.318-.248.256-.55.361-.896.355-.372-.008-.752.018-1.116-.043-.483-.08-.842.141-1.201.393-.181.125-.266.316-.285.529-.015.145.002.291-.004.436-.027.629-.382 1.053-.998 1.172-.223.043-.452.055-.679.08-.477.053-1.025-.227-1.245-.646-.068-.127-.116-.266-.173-.398l-.004.001m3.074 2.224c.473-.156.918-.373 1.408-.49.499-.119.82-.463.953-.969.048-.18.083-.363.141-.541.178-.547.537-.756 1.104-.635.384.084.688.281.837.668.089.232.197.457.281.691.146.4.167.809.005 1.213-.146.367-.284.734-.526 1.055-.469.617-1.09 1.006-1.823 1.23-.267.08-.535.078-.798.006a1.44 1.44 0 0 0-.797-.004c-.362.104-.702.023-1.007-.182-.206-.139-.396-.299-.587-.459a1.19 1.19 0 0 1-.335-.516c-.132-.354-.064-.531.289-.697.279-.131.568-.247.855-.37"/><path clip-path="url(#j)" fill-rule="evenodd" clip-rule="evenodd" fill="#E4C3AC" d="M10.625 28.236c.235.022.402.026.565.055.31.054.615.038.927 0 .39-.047.786-.055 1.179-.068a1.31 1.31 0 0 1 .922.313c.48.409 1.031.693 1.613.921.498.195.875.547 1.216.943.235.273.294.588.225.934a.99.99 0 0 1-.07.236c-.242.5-.106.971.108 1.436.165.355.341.709.487 1.076.234.59.192 1.176-.081 1.748a1.796 1.796 0 0 1-.589.713c-.661.459-1.386.742-2.204.748-.487.004-.945-.139-1.384-.324a1.118 1.118 0 0 1-.681-.836 9.626 9.626 0 0 1-.131-1.174c-.013-.205.027-.412.049-.619.013-.121.045-.244.057-.367.042-.426-.093-.771-.465-1.014-.156-.102-.602.127-.752.018-.494-.355-.348-.406-.915-.229-.079.025-.537-.273-.617-.254-.788.197-1.271.744-1.638 1.426a1.215 1.215 0 0 0 .242 1.477c.2.186.419.354.684.42.699.172.938.924.775 1.551-.146.561-.45 1.023-1 1.281-.225.103-.447.218-.675.316a.957.957 0 0 1-.896-.063 1.796 1.796 0 0 1-.693-.693c-.314-.561-.642-1.113-.959-1.672a1.293 1.293 0 0 0-.415-.457c-.417-.27-.66-.686-.898-1.096-.212-.367-.176-.76-.004-1.137.165-.363.386-.689.673-.965.395-.379.699-.814.921-1.316.22-.5.574-.896.966-1.279.676-.659 1.407-1.223 2.276-1.602.131-.058.253-.142.371-.228.265-.193.557-.267.811-.219m37.737 19.909c.952-.051 2.521.264 3.184.943.246.252-.249.477.021.701.538.445.947.98 1.186 1.643.142.395.177.809.223 1.219.039.357.118.693.303 1.002.386.645.291 1.287-.083 1.881a5.073 5.073 0 0 1-1.312 1.398c-.561.408-1.169.508-1.826.303-.355-.111-.705-.242-1.059-.363a.766.766 0 0 1-.459-1.059c.128-.26.231-.531.366-.787.184-.355.282-.734.367-1.121.084-.383.002-.727-.227-1.057-.405-.588-.978-.889-1.656-.996-.473-.074-.947-.066-1.399.158-.202.1.343.158.125.221-.319.092-1.32.277-1.453.584-.041.096-.089.188-.135.281-.096.195-.123.393-.018.596.038.072.063.154.103.225.309.58 1.156 1.223 1.282 1.85.101.496-.046.766-.499 1.025-.288.164-1.354.313-1.647.467a.491.491 0 0 1-.476-.01c-.093-.047-.18-.105-.267-.16-.55-.354-.981-.828-1.372-1.34-.327-.43.332-.93.428-1.469.062-.348.114-.695.188-1.039a3.11 3.11 0 0 0 .025-1.234c-.138-.729-.643-1.275-.078-1.744.976-.813 2.879-1.303 4.057-1.715.231-.082.484-.107.729-.145.348-.055.7-.082 1.043-.156.37-.079-.031-.108.336-.102m11.609 21.439c.207 0 .416.01.622-.002a.622.622 0 0 0 .538-.369c.101-.205.184-.416.272-.627a9.26 9.26 0 0 1 .458-.953c.28-.5.428-1.033.233-1.611-.11-.326-.024-.602.208-.855.533-.584 1.125-.709 1.851-.387.353.156.641.371.821.723.073.146.178.283.292.4.213.223.314.49.331.785.017.314.081.617.181.912.077.225.082.445.016.672a5.02 5.02 0 0 0-.138.543c-.144.824-.539 1.512-1.106 2.117-.341.361-.647.754-.972 1.131-.239.277-.532.422-.901.496-.547.109-1.116.113-1.642.332-.209.088-.432.146-.642.234-.547.227-1.085.242-1.622-.031a3.373 3.373 0 0 0-1.062-.334 3.663 3.663 0 0 1-.665-.16 9.135 9.135 0 0 0-1.625-.414c-.317-.049-.588-.193-.844-.375a.573.573 0 0 1-.261-.471 5.49 5.49 0 0 1 .013-.559 1.643 1.643 0 0 0-.17-.904 3.129 3.129 0 0 1-.13-.283 1.145 1.145 0 0 1 .052-1.02c.167-.313.365-.604.623-.85.181-.172.362-.342.535-.521.375-.387.437-.832.211-1.316-.062-.131-.145-.252-.211-.381-.456-.875-.026-1.869.929-2.109.364-.092.739-.113 1.09.09.088.051.19.102.289.105.451.02.685.355.946.643.237.262.285.586.302.926.024.502-.103.941-.452 1.313-.126.135-.233.291-.347.439-.138.18-.182.379-.067.58.228.404.363.834.44 1.287.071.422.349.639.737.752.287.083.578.056.867.052m-3.309-5.582c-.019-.004-.038-.016-.055-.014-.064.014-.067.039-.01.066a.084.084 0 0 0 .058-.006c.008-.005.005-.03.007-.046"/><path clip-path="url(#j)" fill-rule="evenodd" clip-rule="evenodd" fill="#E4C3AC" d="M48.158 53.244c-.14.059-.287.131-.442.18-.449.145-.622.299-.626.721-.004.418-.095.824-.117 1.238a2.01 2.01 0 0 1-.082.488c-.092.299-.18.592-.156.912.028.391-.356.789-.808.766-.269-.014-.539.012-.808 0a1.682 1.682 0 0 1-.486-.08 11.02 11.02 0 0 1-.862-.359c-.31-.143-.545-.375-.733-.656-.272-.408-1.116-.836-.916-1.297.107-.248.971-.502 1.093-.742.166-.324.236-.662.2-1.023-.028-.268-.043-.537-.09-.801a1.579 1.579 0 0 1 .069-.857c.135-.348.255-.703.408-1.043.182-.408.465-.734.874-.938.093-.047.189-.088.273-.146.522-.367 1.101-.463 1.72-.365.39.064.779.121 1.165.193.49.094.976.199 1.479.08.247-.059.497-.018.732.082.708.299 1.415.596 1.942 1.191.122.139.285.24.428.361.158.133.315.268.471.406a.975.975 0 0 1 .33.711c.022.393.071.785.113 1.176.04.375.182.723.313 1.072.094.254.155.516.224.775.109.42.051.822-.054 1.229-.112.434-.398.68-.827.734-.351.043-.7.063-1.022.23-.112.059-.245.039-.366 0-.552-.182-1.096-.387-1.602-.678-.343-.197-.434-.393-.367-.773.024-.143.082-.279.108-.42.088-.473.035-.912-.316-1.273-.304-.313-.609-.623-.916-.932a.59.59 0 0 0-.346-.162"/><path clip-path="url(#j)" fill-rule="evenodd" clip-rule="evenodd" fill="#E4C3AC" d="M53.408 47.359c.043.146.078.307.137.459.17.439.156.672-.17.939-.324.266-.584.588-.892.865a2.028 2.028 0 0 0-.33.369c-.176.26-.351.512-.614.693-.322.221-.393.771-.093 1.107.18.201.329.43.506.631.107.125.229.244.368.33.264.164.541.307.818.447.305.152.633.191.971.162.488-.043.87-.254 1.104-.697.126-.24.266-.471.376-.717.149-.332.367-.6.673-.795.226-.146.446-.303.683-.432.263-.145.475-.334.624-.59.188-.324.389-.639.559-.973.205-.396.282-.822.186-1.268-.022-.102-.051-.203-.058-.305-.04-.639-.326-1.148-.792-1.57-.292-.264-.58-.531-.879-.787-.38-.324-.766-.637-.988-1.104-.109-.23-.297-.4-.521-.521-.676-.365-1.351-.73-2.146-.77-.184-.01-.365-.074-.548-.109a21.136 21.136 0 0 0-.611-.111.968.968 0 0 0-.762.186c-.319.229-.657.436-.988.648-.317.203-.678.311-1.032.428-.257.084-.499.199-.744.309-.396.178-.673.475-.925.811-.27.359-.282.738-.057 1.105.186.301.39.584.46.941.025.123.123.217.229.285.487.318.988.613 1.532.826.367.145.576.094.832-.197.095-.107.165-.238.26-.348.313-.363.688-.598 1.191-.551.434.043.867.086 1.301.133a.611.611 0 0 1 .34.171M11.455 58.518c-.016-.096-.017-.117-.023-.137-.255-.781-.553-.746-1.186-.631-.533.096-.917.471-1.208.918a.825.825 0 0 0-.117.656c.208.879-.126 1.635-.557 2.359-.193.324-.542.508-.853.703-.199.127-.46.098-.652-.045-.396-.297-.824-.539-1.187-.893-.514-.504-.713-1.1-.769-1.779-.021-.268-.049-.535-.072-.805-.007-.082-.031-.168-.018-.246.125-.693.203-1.4.522-2.041.091-.184.192-.375.331-.523.497-.529 1.018-1.035 1.679-1.367.204-.102.401-.217.603-.324.091-.049.178-.111.274-.145.844-.289 1.682-.598 2.59-.609.25-.004.499.004.746-.008.575-.025 1.108.145 1.635.338.411.15.678.467.903.824.242.385.485.773.702 1.174.448.826.542 1.691.185 2.574a1.767 1.767 0 0 0-.145.721 2.03 2.03 0 0 1-.034.434c-.094.479-.5.896-.983.885-.276-.008-.528.076-.785.17-.507.184-.953.035-1.238-.416a4.572 4.572 0 0 1-.337-.666c-.156-.371-.242-.752-.006-1.121m2.641 1.339c.008-.016.022-.033.02-.049 0-.01-.028-.025-.039-.021-.043.012-.053.043-.026.078.003.006.03-.006.045-.008m37.342-24.529a4.603 4.603 0 0 1-.338.664c-.284.453-.73.602-1.237.418-.256-.094-.51-.178-.785-.17-.482.014-.888-.408-.981-.885a1.909 1.909 0 0 1-.035-.434 1.764 1.764 0 0 0-.146-.723c-.356-.883-.262-1.746.187-2.574.217-.4.459-.787.701-1.174.225-.355.492-.673.903-.822.527-.192 1.061-.363 1.634-.338.249.012.498.004.747.008.908.012 1.747.32 2.59.608.098.033.184.097.275.146.2.107.398.221.603.324.66.332 1.182.838 1.68 1.367.139.146.238.338.33.523.319.641.396 1.348.521 2.041.015.078-.01.164-.017.246-.024.268-.051.535-.073.805-.054.68-.255 1.275-.768 1.777-.363.355-.792.598-1.188.895a.58.58 0 0 1-.651.045c-.313-.195-.661-.379-.854-.705-.43-.723-.764-1.48-.556-2.357a.833.833 0 0 0-.117-.656c-.29-.447-.675-.822-1.208-.918-.634-.115-.931-.15-1.187.631-.006.02-.006.041-.022.137.238.369.151.748-.008 1.121m-2.586.227c.027-.037.017-.066-.026-.078-.013-.004-.039.012-.04.021-.002.016.013.031.02.049.015.002.041.014.046.008M3.971 68.521c.073.064.087.08.104.09.695.438.902.221 1.316-.271.348-.416.404-.949.342-1.479a.835.835 0 0 0-.329-.58c-.722-.543-.949-1.338-1.08-2.17-.059-.373.091-.738.206-1.088.073-.223.292-.367.531-.381.494-.023.978-.113 1.483-.072.716.059 1.251.389 1.729.877.188.193.38.383.569.572.059.059.131.109.171.18.347.611.739 1.205.904 1.902.048.201.093.412.08.613-.044.727-.121 1.447-.418 2.125-.091.209-.17.424-.256.635-.038.096-.064.201-.118.287-.464.762-.913 1.535-1.603 2.125-.189.162-.386.314-.57.482-.425.387-.943.596-1.472.785-.412.146-.821.074-1.221-.057a20.12 20.12 0 0 1-1.29-.455c-.874-.348-1.498-.953-1.788-1.859a1.796 1.796 0 0 0-.35-.648 1.978 1.978 0 0 1-.25-.355c-.232-.428-.19-1.01.19-1.309.217-.17.358-.396.495-.631.272-.467.71-.637 1.219-.473.235.078.464.184.684.297.358.187.668.423.722.858m-2.888.659c.004.018.004.039.015.049.006.008.038.002.044-.008.026-.037.014-.066-.03-.076-.006-.002-.019.021-.029.035m16.397-7.938c.527-.027 1.003.119 1.48.26.182.055.335.16.485.273.175.133.293.293.284.521-.009.213.045.414.119.605.117.297.053.574-.053.848-.116.299-.361.449-.686.426-.185-.016-.366-.068-.551-.092-.415-.051-.617.092-.729.494-.081.285-.102.572-.009.857.12.373.326.68.716.801.416.127.838.23 1.261.334a.968.968 0 0 0 .309.004c.309-.031.617-.066.924-.109.122-.018.246-.045.359-.092a.482.482 0 0 0 .291-.607c-.084-.301-.19-.59-.188-.908.002-.301.062-.574.232-.824.104-.154.187-.322.295-.473.271-.381.582-.697 1.1-.703.142-.002.283-.059.426-.082.483-.076.847.215.894.713.007.082.003.166.007.248.026.539.022 1.078.105 1.613.026.162.02.33.028.496.033.574-.185 1.063-.576 1.459-.422.426-.872.828-1.326 1.221-.336.291-.753.434-1.183.521-.425.09-.854.178-1.285.223a5.06 5.06 0 0 1-2.498-.348c-.27-.111-.531-.238-.734-.455-.162-.172-.365-.268-.585-.338-.178-.057-.348-.137-.527-.188-.495-.141-.884-.436-1.242-.793-.428-.428-.555-.91-.32-1.471.088-.209.205-.406.32-.602.084-.143.19-.271.282-.41.241-.365.324-.758.202-1.184a2.67 2.67 0 0 1-.104-.861.85.85 0 0 1 .229-.563c.229-.246.482-.453.807-.563.475-.157.954-.29 1.441-.251m1.508 1.104a.717.717 0 0 1 .033.025l-.039-.02-.026-.035.032.03zm4.044 1.603c-.049-.01-.078.01-.08.057 0 .014.014.037.026.043.015.008.05 0 .051-.006.006-.031.003-.063.003-.094m-4.103-.383l.047-.027c-.013-.012-.024-.031-.039-.035-.051-.012-.074.008-.058.049.005.01.034.01.05.013m-.673 4.483a.466.466 0 0 1 .047-.027c-.013-.012-.027-.033-.042-.033-.015 0-.031.018-.047.025.015.011.028.023.042.035m41.905-8.879c-.165 0-.333.014-.496-.004-.408-.045-.642-.24-.712-.654-.058-.334-.206-.572-.499-.738-.181-.102-.347-.227-.517-.346-.561-.389-.674-.707-.509-1.387a5.41 5.41 0 0 1 .417-1.102c.137-.281.257-.564.335-.867.133-.512.364-.965.763-1.328.151-.137.264-.318.397-.477s.279-.303.473-.395c.486-.227 1.017-.014 1.226.49.138.328.116.646-.028.963-.153.34-.28.697-.479 1.008-.264.414-.203.83-.114 1.26.045.217.188.369.376.471.126.07.266.113.397.176.567.273.815.766.682 1.379-.048.223-.127.438-.193.654-.138.461-.612.854-1.083.891-.145.012-.29.002-.436.002v.004zm3.259-1.947c.042-.496.018-.992.104-1.488.087-.506-.104-.938-.514-1.258-.147-.115-.303-.221-.443-.344-.431-.379-.481-.791-.146-1.262.227-.322.528-.523.942-.508.249.01.498 0 .746.016.427.023.81.164 1.118.473.278.279.562.551.76.898.383.678.495 1.4.411 2.162a1.41 1.41 0 0 1-.309.736 1.449 1.449 0 0 0-.318.73c-.048.373-.255.654-.563.854a7.372 7.372 0 0 1-.653.357c-.189.096-.396.115-.606.105-.377-.018-.513-.15-.526-.541-.012-.309-.003-.62-.003-.93M44.915 70.406c-.001.016.001.039-.007.045-.017.008-.041.012-.057.006-.059-.025-.056-.051.01-.064.017-.004.036.007.054.013m-19.049-6.875c-.016.004-.042.014-.046.008-.026-.035-.017-.066.026-.078.011-.004.04.014.04.021.001.016-.013.032-.02.049m.56-14.982c0 .031.003.063-.002.094-.001.006-.037.012-.051.006-.013-.006-.027-.029-.026-.045.002-.045.03-.065.079-.055m-4.102-.383c-.018-.004-.045-.004-.049-.016-.017-.039.007-.059.058-.047.015.004.025.023.039.035l-.048.028m-.674 4.482l-.042-.035c.016-.01.032-.027.047-.025.014.002.028.02.042.033l-.047.027m.733-5.703l-.032-.029.026.033zm-.006.004a.348.348 0 0 0 .038.02c-.011-.008-.021-.016-.033-.023l-.005.003z"/><path clip-path="url(#j)" fill-rule="evenodd" clip-rule="evenodd" fill="#E4C3AC" d="M22.042 68.006c.825-.537 1.417-1.289 1.911-2.119.207-.348.353-.732.532-1.096.604-1.225.606-2.488.249-3.762-.127-.457-.326-.893-.504-1.334a1.324 1.324 0 0 0-.222-.377c-.76-.869-1.637-1.58-2.784-1.883a9.113 9.113 0 0 0-3.071-.281c-.641.051-1.223.287-1.805.521-.49.197-.729.615-.764 1.131-.045.672.065 1.324.369 1.92.375.736.969 1.186 1.827 1.227.258.012.518.006.775.02.345.018.641.158.899.377.43.365.413.982-.042 1.336a.843.843 0 0 1-.288.16c-1.177.309-1.766 1.285-2.444 2.15-.241.307-.244.682-.098 1.051.264.662.701 1.109 1.446 1.188.22.023.443.055.661.039a6.6 6.6 0 0 1 1.764.086c.575.109 1.102-.034 1.589-.354"/><path clip-path="url(#j)" fill-rule="evenodd" clip-rule="evenodd" fill="#E4C3AC" d="M18.58 61.334c-.015-.027.006.037.049.078.452.428.802.939 1.2 1.41.827.984 1.91 1.352 1.557 1.121a.273.273 0 0 0 .114.049c.567.051 1.13.066 1.618-.303.328-.248.374-.664.114-.992-.09-.113-.203-.207-.306-.309-.337-.332-.586-.746-.986-1.021-.14-.098-.18-.277-.176-.447.009-.396.001-.789-.141-1.166-.054-.143-.014-.287.053-.422.184-.369.022-.695-.147-1a.643.643 0 0 0-.639-.318 6.701 6.701 0 0 0-1.104.203c-.242.064-.438.238-.598.439-.183.229-.361.459-.547.686-.403.496-.552 1.262-.061 1.992m-.103-43.174c-.186 0-.373-.003-.56.001a.912.912 0 0 0-.709.333c-.243.286-.452.594-.567.957-.151.468-.054.736.356 1.006.172.114.351.223.506.356.232.198.338.461.342.771a1.98 1.98 0 0 1-.188.904c-.25.514-.658.726-1.22.631-.103-.017-.201-.055-.302-.075a1.32 1.32 0 0 0-.556 0c-.803.186-1.516-.104-2.194-.463-.401-.213-.619-.595-.628-1.077-.011-.562.001-1.121.155-1.666.141-.498.26-1.002.452-1.486.098-.249.173-.51.229-.773.117-.55.386-1 .816-1.358.064-.054.128-.106.188-.164.507-.488 1.099-.802 1.801-.908.413-.063.795-.227 1.169-.41.298-.146.602-.28.907-.407a1.463 1.463 0 0 1 1.036-.036c.494.161 1.002.257 1.513.347.6.105 1.163.301 1.625.723.106.097.236.167.354.252a2.483 2.483 0 0 1 1.058 1.756c.119.862.24 1.723.436 2.572.074.322.117.653.149.982.081.8-.426 1.63-1.131 1.895-.261.098-.529.103-.797.081-.333-.026-.657-.042-.979.089-.193.079-.408.06-.616.042-.399-.034-.791-.095-1.038-.464-.288-.431-.433-.896-.284-1.414.045-.159.116-.311.174-.465.058-.156.12-.309.171-.467.116-.363.07-.701-.199-.983-.192-.202-.328-.417-.347-.707-.013-.214-.168-.336-.373-.351-.247-.018-.497-.004-.746-.004v-.02zM51.106 2.75c.951-.05 1.751.264 2.414.944.246.251.52.476.791.7.539.446.948.981 1.187 1.643.142.395.177.81.222 1.219.039.358.118.693.303 1.001.387.646.29 1.288-.083 1.881a5.04 5.04 0 0 1-1.311 1.398c-.562.409-1.17.508-1.827.303-.355-.111-.705-.242-1.058-.362-.437-.149-.666-.638-.459-1.058.128-.261.231-.533.365-.79.185-.354.283-.734.367-1.119.083-.384.002-.729-.226-1.059-.407-.586-.979-.888-1.657-.994-.473-.074-.947-.067-1.398.156-.203.1-.427.159-.646.221-.319.092-.551.277-.684.584-.041.095-.089.188-.134.28-.097.196-.123.393-.019.596.038.073.063.154.103.227.309.578.387 1.222.514 1.849.101.495-.047.766-.5 1.024-.288.164-.584.314-.877.468a.496.496 0 0 1-.477-.011c-.093-.046-.18-.104-.267-.16-.549-.352-.982-.829-1.372-1.339a1.818 1.818 0 0 1-.342-1.469c.063-.346.114-.695.187-1.039a3.09 3.09 0 0 0 .026-1.234c-.138-.728.128-1.276.69-1.744.976-.812 2.11-1.302 3.288-1.715.231-.082.484-.105.729-.145.348-.055.701-.08 1.044-.154a5.016 5.016 0 0 1 1.107-.102m-2.113 20.297c.207 0 .416.01.622-.003a.616.616 0 0 0 .538-.368c.101-.205.185-.417.272-.628.137-.325.285-.643.458-.952.281-.5.429-1.034.233-1.611-.11-.327-.022-.603.209-.857.532-.583 1.124-.708 1.851-.387.353.156.64.371.82.725.074.145.179.281.292.4.213.222.315.489.331.785.018.314.081.616.181.912.077.224.083.444.017.671a5.128 5.128 0 0 0-.139.542c-.144.825-.538 1.512-1.106 2.118-.34.362-.647.755-.972 1.132-.238.277-.532.42-.901.495-.547.11-1.115.114-1.641.332-.21.088-.433.147-.643.234-.546.227-1.085.243-1.621-.029a3.383 3.383 0 0 0-1.063-.336 3.598 3.598 0 0 1-.665-.159 9.302 9.302 0 0 0-1.624-.415c-.318-.049-.589-.191-.844-.375a.57.57 0 0 1-.262-.47 5.808 5.808 0 0 1 .013-.56 1.633 1.633 0 0 0-.17-.904 3.285 3.285 0 0 1-.13-.283 1.152 1.152 0 0 1 .052-1.02c.168-.313.365-.603.624-.849.181-.171.361-.343.534-.521.375-.388.438-.832.211-1.316-.062-.131-.144-.252-.211-.38-.456-.876-.026-1.87.93-2.11.363-.092.739-.113 1.09.089a.664.664 0 0 0 .288.106c.451.021.685.355.947.643.236.261.284.585.301.925.025.503-.103.941-.451 1.313-.127.136-.233.291-.347.439-.139.18-.182.38-.068.582.228.402.364.833.441 1.287.07.421.349.637.736.751.287.084.578.057.867.052m-3.308-5.582c-.018-.005-.037-.017-.055-.014-.064.013-.067.04-.009.065.016.007.041.002.057-.007.008-.004.005-.028.007-.044m-10.789-1.381c-.141.058-.289.13-.443.18-.449.143-.622.298-.626.72-.004.418-.095.823-.117 1.238a2.01 2.01 0 0 1-.083.488c-.092.298-.18.592-.155.913.028.39-.356.789-.808.765-.269-.015-.54.011-.809 0a1.623 1.623 0 0 1-.486-.081 10.472 10.472 0 0 1-.861-.358c-.31-.143-.544-.374-.733-.657-.272-.408-.347-.836-.147-1.298.107-.247.201-.502.323-.741.167-.324.238-.662.2-1.022-.028-.268-.043-.538-.089-.803a1.55 1.55 0 0 1 .07-.856c.133-.349.254-.703.406-1.043.182-.408.465-.734.874-.938.093-.046.19-.087.274-.147.522-.368 1.101-.463 1.72-.363.389.063.778.12 1.165.193.49.093.976.198 1.479.08.248-.058.498-.018.732.081.708.299 1.416.596 1.943 1.193.122.138.285.239.427.359.159.134.316.269.471.407a.974.974 0 0 1 .33.711c.022.393.073.784.114 1.175.04.376.182.724.312 1.073.095.253.155.514.224.775.11.419.052.82-.053 1.228-.112.435-.399.681-.827.735-.351.044-.699.063-1.022.23-.111.058-.246.041-.366 0-.553-.182-1.097-.388-1.603-.679-.342-.197-.433-.391-.366-.772.023-.143.082-.279.108-.421.088-.471.036-.911-.316-1.274-.304-.312-.609-.623-.917-.931a.591.591 0 0 0-.345-.16M36.742-.981c.061.098.108.189.169.271.179.242.269.511.261.813-.002.083-.005.167.001.249.033.411.26.595.671.512.243-.049.482-.127.712-.22.381-.153.756-.2 1.149-.047.133.052.281.072.425.091.316.042.474-.07.534-.373.017-.081.026-.164.031-.247.017-.294.101-.571.216-.839.218-.506.317-1.021.214-1.576-.088-.472.086-.904.31-1.306.193-.347.503-.418.846-.226.26.144.496.334.61.603.17.401.425.755.569 1.17.327.941.352 1.866-.075 2.778-.245.525-.512 1.041-.774 1.558a1.992 1.992 0 0 1-1.026.956c-.513.214-.997.507-1.565.588-.179.025-.349.128-.513.214-.62.322-1.264.512-1.972.465-.371-.025-.746-.011-1.118-.006a2.682 2.682 0 0 1-1.091-.218 6.5 6.5 0 0 1-1.64-.996c-.303-.25-.485-.562-.479-.968a1.1 1.1 0 0 0-.027-.309c-.154-.59-.052-1.15.183-1.698.082-.19.155-.385.214-.583.053-.179-.018-.341-.185-.417-.167-.077-.349-.125-.524-.187-.214-.077-.438-.134-.64-.236-.265-.133-.339-.344-.261-.622.171-.605.928-1.571 1.473-1.873.109-.06.221-.12.339-.154a7.445 7.445 0 0 1 1.589-.28c.43-.027.748.138.99.511.29.446.442.934.549 1.443a1.34 1.34 0 0 1-.037.676c-.048.16-.085.32-.128.483M11.455 5.577c-.016-.096-.017-.117-.023-.137-.255-.78-.553-.745-1.186-.631-.533.097-.917.471-1.207.919a.829.829 0 0 0-.118.656c.208.878-.126 1.636-.557 2.359-.193.324-.541.508-.853.704a.582.582 0 0 1-.652-.046c-.396-.297-.824-.538-1.187-.893-.513-.503-.713-1.099-.768-1.779-.022-.268-.049-.536-.072-.804-.008-.082-.031-.168-.018-.247.125-.692.203-1.398.522-2.04.091-.185.192-.375.331-.523.497-.529 1.018-1.036 1.679-1.367.204-.103.402-.217.603-.325.091-.049.177-.112.274-.145.844-.289 1.682-.598 2.59-.609.25-.003.499.004.746-.007.575-.025 1.108.145 1.635.337.411.15.678.467.903.823.242.386.485.774.702 1.174.448.827.542 1.691.185 2.575a1.772 1.772 0 0 0-.145.722c.003.145-.006.292-.034.434-.094.477-.5.897-.983.884-.276-.007-.528.076-.785.169-.507.185-.953.036-1.238-.416a4.462 4.462 0 0 1-.337-.665c-.157-.372-.243-.753-.007-1.122m2.641 1.34c.008-.016.022-.033.02-.048 0-.009-.028-.025-.039-.022-.043.012-.053.042-.026.078.003.006.03-.006.045-.008m-5.31 9.636c.22-.113.449-.219.684-.295.508-.165.946.004 1.219.471.138.235.278.461.495.632.38.299.423.88.19 1.309a1.978 1.978 0 0 1-.25.355 1.796 1.796 0 0 0-.35.648c-.29.907-.915 1.512-1.788 1.861-.423.169-.856.312-1.291.454-.399.13-.809.204-1.22.056-.529-.189-1.047-.398-1.473-.785-.184-.167-.38-.321-.569-.483-.691-.589-1.139-1.363-1.603-2.124-.053-.087-.08-.191-.118-.288-.085-.211-.165-.425-.256-.634-.297-.678-.374-1.399-.418-2.125-.012-.203.033-.414.08-.615.165-.697.557-1.29.904-1.902.04-.07.112-.12.171-.18.189-.191.381-.379.569-.571.477-.488 1.012-.818 1.728-.877.506-.042.99.047 1.483.073a.58.58 0 0 1 .531.38c.114.35.265.714.206 1.088-.13.831-.358 1.627-1.079 2.169a.838.838 0 0 0-.33.58c-.063.529-.006 1.063.342 1.477.414.493.621.71 1.316.273.017-.011.031-.027.104-.091.053-.433.363-.671.723-.856m2.134 1.48c-.044.01-.055.041-.03.078.006.009.039.015.044.008.011-.011.011-.033.015-.05-.009-.013-.023-.038-.029-.036M60.161 6.228c-.165 0-.333.015-.496-.003-.408-.045-.642-.24-.712-.653-.058-.335-.206-.573-.499-.739-.181-.101-.347-.227-.517-.345-.561-.389-.674-.707-.509-1.386.093-.385.244-.75.417-1.103.137-.281.257-.564.335-.867.133-.512.364-.965.763-1.328.151-.138.264-.318.397-.477.134-.159.279-.304.473-.394.487-.227 1.017-.013 1.226.489.138.329.116.647-.028.964-.153.339-.28.697-.479 1.009-.264.413-.203.829-.114 1.258.045.216.188.369.376.472.126.069.266.112.397.175.567.273.815.766.682 1.379-.048.222-.127.437-.193.655-.138.459-.612.852-1.083.889-.145.012-.29.002-.436.002v.003zm3.259-1.946c.042-.496.018-.992.104-1.488.087-.505-.104-.937-.514-1.258-.147-.115-.303-.22-.443-.343-.431-.379-.481-.791-.146-1.263.227-.321.528-.522.942-.506.249.01.498 0 .746.013.427.025.81.166 1.118.475.278.279.562.55.76.899.383.676.495 1.399.411 2.162-.03.276-.139.522-.309.736a1.445 1.445 0 0 0-.318.73c-.048.374-.255.654-.563.854-.209.134-.432.246-.653.357a1.177 1.177 0 0 1-.606.105c-.377-.019-.513-.151-.526-.541-.012-.311-.003-.622-.003-.932"/><path clip-path="url(#j)" fill-rule="evenodd" clip-rule="evenodd" fill="#E4C3AC" d="M44.915 17.465c-.001.016.001.04-.007.044-.017.009-.041.014-.057.007-.059-.026-.056-.052.01-.065.017-.003.036.009.054.014m-19.049-6.874c-.016.003-.042.014-.046.008-.026-.035-.017-.066.026-.079.011-.002.04.013.04.022.001.016-.013.033-.02.049m.125-1.513c.466-.304.801-.729 1.081-1.199.117-.197.199-.414.3-.619.342-.693.343-1.407.141-2.127-.072-.258-.185-.505-.284-.754a.773.773 0 0 0-.126-.213c-.43-.492-.925-.894-1.574-1.065a5.12 5.12 0 0 0-1.736-.159c-.364.028-.693.162-1.022.295-.276.111-.413.347-.433.639-.025.38.037.749.209 1.087.212.415.547.669 1.033.693.146.007.292.003.438.011a.85.85 0 0 1 .509.214.475.475 0 0 1-.023.755.492.492 0 0 1-.163.09c-.666.175-.999.727-1.382 1.216-.137.174-.137.385-.055.594.149.375.396.627.818.672.124.013.25.031.373.022a3.75 3.75 0 0 1 .998.049c.324.061.622-.02.898-.201m-7.411-.685c-.015-.027.006.037.049.079.452.428.802.938 1.2 1.411.417.496 1.021.77 1.557 1.121a.271.271 0 0 0 .114.048c.567.051 1.13.066 1.618-.303.328-.248.374-.664.114-.992-.09-.112-.203-.207-.306-.308-.337-.332-.586-.746-.986-1.022-.14-.097-.18-.275-.176-.447.009-.396.001-.788-.141-1.165-.054-.143-.014-.287.053-.422.184-.369.022-.696-.147-1a.644.644 0 0 0-.639-.319 6.808 6.808 0 0 0-1.104.203c-.242.065-.438.239-.598.44-.183.229-.361.459-.547.687-.403.494-.552 1.26-.061 1.989"/></g><path clip-path="url(#b)" fill="none" stroke="#040000" stroke-width=".229" stroke-miterlimit="10" d="M26.33 91.176h8.603"/><g clip-path="url(#b)"><defs><path id="k" d="M-24.974-2.472H86.627v111.601H-24.974z"/></defs><clipPath id="l"><use xlink:href="#k" overflow="visible"/></clipPath><path clip-path="url(#l)" fill="none" stroke="#040000" stroke-width=".229" stroke-miterlimit="10" d="M45.12 61.904c-1.006 3.996-2.419 7.855-3.174 11.965-1.601 8.729-2.154 20.412-4.559 20.578-2.404.164-2.54-2.955-3.301-11.195s-.76-17.242-.76-17.242m-5.456 0s0 9.002-.761 17.242-.896 11.359-3.301 11.195c-2.405-.166-2.959-11.85-4.561-20.578-.741-4.043-1.996-8.16-2.993-12.098"/><path clip-path="url(#l)" fill="#040000" d="M27.557 18.911c.217-.2.238-.517.2-.788-.042-.279-.155-.542-.279-.794-.131-.25-.28-.49-.447-.719-.162-.233-.345-.45-.523-.669l-.209-.256.323.073c.398.09.787.197 1.175.318.386.124.769.264 1.139.446l-.099-.002c-.021.012-.004.001-.001-.004.004-.005.01-.019.017-.027.01-.024.022-.048.028-.079a.88.88 0 0 0 .026-.19 2.233 2.233 0 0 0-.027-.413 5.944 5.944 0 0 0-.192-.831 6.988 6.988 0 0 0-.131-.411 6.803 6.803 0 0 0-.145-.407c-.097-.271-.21-.537-.318-.805l-.139-.344.306.204c.449.299.869.626 1.267.986.395.362.768.757 1.057 1.224l-.211.039a8.825 8.825 0 0 1 .724-2.088c.167-.331.361-.646.581-.946.224-.298.483-.568.771-.809l.205-.171-.02.271a15.043 15.043 0 0 0-.012 2.165c.024.359.069.717.145 1.065.076.345.179.694.372.97l-.179-.008c.145-.151.3-.249.47-.336a2.404 2.404 0 0 1 1.089-.249c.187-.003.371.017.554.043l.005.001.198.026-.122.15c-.037.046-.063.07-.091.1l-.08.087c-.053.058-.106.115-.156.176-.102.119-.2.242-.293.369a5.54 5.54 0 0 0-.493.803 4.358 4.358 0 0 0-.32.888 3.517 3.517 0 0 0-.08.945 3.563 3.563 0 0 1 .024-.956c.057-.316.148-.626.272-.924a5.92 5.92 0 0 1 .733-1.25c.049-.065.1-.127.15-.191l.143-.173.076.176h-.003a3.45 3.45 0 0 0-.516-.041 2.177 2.177 0 0 0-.988.225 1.479 1.479 0 0 0-.401.282l-.101.104-.078-.113c-.228-.325-.329-.693-.41-1.055a7.567 7.567 0 0 1-.148-1.097 15.112 15.112 0 0 1 .012-2.201l.185.099a4.579 4.579 0 0 0-.731.767c-.21.287-.398.591-.56.912a8.79 8.79 0 0 0-.416.991 8.317 8.317 0 0 0-.287 1.034l-.058.287-.153-.248c-.268-.437-.628-.82-1.013-1.173a10.835 10.835 0 0 0-1.238-.963l.168-.14c.108.271.222.539.321.814.053.136.102.273.148.413a8.5 8.5 0 0 1 .133.419c.085.281.154.568.198.864.021.147.036.299.029.455a1.137 1.137 0 0 1-.034.24.615.615 0 0 1-.046.125c-.014.022-.022.042-.042.064-.02.023-.028.04-.081.069l-.044.025-.055-.027a8.027 8.027 0 0 0-1.106-.432 14.457 14.457 0 0 0-1.154-.313l.114-.183c.167.236.339.469.488.717.154.244.291.5.408.766.11.268.208.545.231.836.023.281-.024.609-.255.793"/><path clip-path="url(#l)" fill="none" stroke="#040000" stroke-width=".229" stroke-miterlimit="10" d="M27.57 17.414c-4.886.52-10.123 2.412-12.332 7.123-.667 1.421-1.678 3.293-2.761 3.813.396.396.886.316 1.237.288a6.625 6.625 0 0 1-4.835 2.679c.571.701 1.25 1.336 2.072 1.711.821.377 1.802.469 2.628.102a4.378 4.378 0 0 1-2.462 2.428c.507.988 1.714 1.559 2.798 1.324-.358.387-.404.967-.35 1.49.054.523.189 1.049.116 1.57-.072.521-.434 1.057-.957 1.105.185.299.477.527.81.637.025.553-.662.783-.662.783s.79 1.088.915 2.285c.175 1.676.147 3.363.276 5.041.316 4.082 1.177 8.113 2.176 12.078-3.396-.529-8.213-1.021-10.32 2.398-1.401 2.273-.858 5.072-.163 7.484a33.886 33.886 0 0 0 3.298 7.707c1.615 2.766 3.601 5.301 5.757 7.662-.043-.033-.034-.045 0 0-1.189-.449-2.515-.68-3.777-.434-1.021.199-2.804 1.127-2.934 2.406-.175 1.711 2.554 1.83 3.675 1.883 3.337.16 6.783.197 10.148.197m11.939-73.76c4.887.52 10.122 2.412 12.331 7.123.667 1.421 1.679 3.293 2.762 3.813-.396.396-.886.316-1.236.288a6.617 6.617 0 0 0 4.835 2.679c-.571.701-1.251 1.336-2.072 1.711-.821.377-1.803.469-2.628.102a4.373 4.373 0 0 0 2.461 2.428c-.506.988-1.713 1.559-2.798 1.324.359.387.404.967.35 1.49s-.188 1.049-.116 1.57c.073.521.434 1.057.957 1.105a1.52 1.52 0 0 1-.81.637c-.025.553.661.783.661.783s-.79 1.088-.915 2.285c-.175 1.676-.146 3.363-.277 5.041-.314 4.082-1.176 8.113-2.175 12.078 3.396-.529 8.214-1.021 10.32 2.398 1.401 2.273.857 5.072.163 7.484a33.927 33.927 0 0 1-3.297 7.707c-1.615 2.766-3.601 5.301-5.759 7.662.044-.033.035-.045 0 0 1.19-.449 2.517-.68 3.778-.434 1.021.199 2.803 1.127 2.934 2.406.175 1.711-2.554 1.83-3.675 1.883-3.339.16-6.783.197-10.149.197"/><path clip-path="url(#l)" fill="none" stroke="#040000" stroke-width=".229" stroke-miterlimit="10" d="M39.712 18.9c.354-1.063 2.522-6.758 8.67-7.681 0 0 2.922 6.807-2.845 12.107m-23.702-4.479c-.403-1.186-2.6-6.719-8.65-7.627 0 0-2.898 6.751 2.773 12.042"/></g><g clip-path="url(#b)"><defs><path id="m" d="M7.843 12.507c-.458.229-5.031 23.555-4.803 25.614s-4.802 42.307-4.802 42.307 4.574 17.838 5.488 21.955c.915 4.115 51.685-4.803 51.685-4.803l2.972-16.695-5.831-49.969-5.146-16.122s-14.71-.548-10.977 1.372c16.008 8.233 6.86 47.337 6.86 47.337 22.183-3.658 1.372 24.242 1.372 24.242 10.521 0 7.318 4.346 7.318 4.346s-26.3 11.434-41.279.57c-5.407-3.922 5.717-5.031 5.717-5.031-21.154-29.385 1.143-24.469 1.143-24.469-8.461-39.334 8.233-48.253 8.233-48.253S9.729 12.493 7.986 12.494a.452.452 0 0 0-.143.013"/></defs><clipPath id="n"><use xlink:href="#m" overflow="visible"/></clipPath><g opacity=".05" clip-path="url(#n)"><defs><path id="o" d="M5.047 11.707h51.338v82.746H5.047z"/></defs><clipPath id="p"><use xlink:href="#o" overflow="visible"/></clipPath><path clip-path="url(#p)" fill="#040000" d="M55.675 71.754c.694-2.412 1.238-5.211-.163-7.484-2.106-3.42-6.925-2.928-10.32-2.398.999-3.965 1.86-7.996 2.176-12.078.13-1.678.101-3.365.276-5.041.125-1.197.915-2.285.915-2.285s-.687-.23-.661-.783c.333-.109.625-.338.81-.637-.523-.049-.884-.584-.957-1.105-.072-.521.062-1.047.116-1.57s.01-1.104-.35-1.49c1.085.234 2.292-.336 2.798-1.324a4.376 4.376 0 0 1-2.461-2.428c.825.367 1.807.275 2.628-.102.821-.375 1.501-1.01 2.072-1.711a6.62 6.62 0 0 1-4.835-2.679c.351.027.84.107 1.236-.289-1.083-.519-2.095-2.392-2.762-3.813-2.209-4.711-7.444-6.603-12.331-7.123l.044.585-.211-.07c.284-1.361 1.313-2.375 1.362-2.449-1.372-.229-2.013.503-2.013.503-.801-1.121-.526-4.276-.526-4.276-1.578 1.258-2.035 3.773-2.035 3.773-.686-1.143-2.287-2.172-2.287-2.172 1.28 3.041.686 3.315.686 3.315-.915-.457-2.287-.754-2.287-.754 1.921 2.401.961 3.042.961 3.042h.276l-.404.355.142-1.852c-4.886.52-10.123 2.412-12.332 7.123-.666 1.421-1.678 3.293-2.761 3.813.396.396.886.316 1.237.289a6.628 6.628 0 0 1-4.835 2.679c.571.701 1.25 1.336 2.072 1.711.821.377 1.802.469 2.628.102a4.378 4.378 0 0 1-2.462 2.428c.506.988 1.714 1.559 2.798 1.324-.358.387-.404.967-.35 1.49.054.523.189 1.049.116 1.57-.072.521-.434 1.057-.957 1.105.185.299.477.527.81.637.025.553-.662.783-.662.783s.79 1.088.915 2.285c.175 1.676.147 3.363.276 5.041.316 4.082 1.177 8.113 2.176 12.078-3.396-.529-8.213-1.021-10.32 2.398-1.401 2.273-.858 5.072-.163 7.484a33.886 33.886 0 0 0 3.298 7.707c1.608 2.756 3.586 5.283 5.734 7.637-.01-.008-.006.004.023.025-1.189-.449-2.515-.68-3.777-.434-1.021.199-2.804 1.127-2.934 2.406-.175 1.711 2.554 1.83 3.675 1.883 3.337.16 6.783.197 10.148.197l.008-.111c.494 2.029 1.084 3.328 1.875 3.383 1.394.094 2.024-.916 2.457-3.385h8.664c.433 2.469 1.064 3.479 2.458 3.385.888-.061 1.521-1.693 2.051-4.164l.068.893c3.366 0 6.811-.037 10.149-.197 1.121-.053 3.85-.172 3.675-1.883-.131-1.279-1.913-2.207-2.934-2.406-1.262-.246-2.589-.016-3.778.434.029-.021.034-.033.024-.025 2.147-2.354 4.125-4.881 5.734-7.637a33.877 33.877 0 0 0 3.301-7.708"/></g></g><g clip-path="url(#b)"><defs><path id="q" d="M-24.974-2.472H86.627v111.601H-24.974z"/></defs><clipPath id="r"><use xlink:href="#q" overflow="visible"/></clipPath><path clip-path="url(#r)" fill="#D55F5A" d="M30.422 44.18c-1.994 0-2.486-2.549-2.544-4.707 1.38-.154 2.142-1.273 2.542-2.955.424 1.648 1.144 2.83 2.546 2.877-.048 2.173-.528 4.785-2.544 4.785"/><path clip-path="url(#r)" fill="#393C3D" d="M27.299 39.719c-1.586 0-2.932-.777-3.902-2.264-.758-1.16-1.017-2.326-1.028-2.375a.207.207 0 0 1 .159-.246.206.206 0 0 1 .247.158c.002.012.256 1.15.976 2.246.947 1.441 2.211 2.135 3.765 2.061 2.519-.119 2.692-2.986 2.699-3.107a.208.208 0 0 1 .216-.199.21.21 0 0 1 .198.219c-.002.033-.195 3.365-3.093 3.504-.079.003-.158.003-.237.003"/><path clip-path="url(#r)" fill="#393C3D" d="M21.69 36.043a.206.206 0 0 1-.168-.328c.608-.84 1.523-1.357 1.562-1.377a.207.207 0 1 1 .203.361c-.009.006-.875.494-1.428 1.258a.208.208 0 0 1-.169.086m11.852 3.676c-.079 0-.157 0-.236-.004-2.897-.139-3.091-3.471-3.093-3.504a.21.21 0 0 1 .198-.219.207.207 0 0 1 .216.199c.007.123.182 2.988 2.699 3.107 1.552.074 2.818-.619 3.765-2.061a7.527 7.527 0 0 0 .976-2.246.206.206 0 0 1 .247-.158.207.207 0 0 1 .159.246c-.012.049-.271 1.215-1.028 2.375-.971 1.487-2.316 2.265-3.903 2.265"/><path clip-path="url(#r)" fill="#393C3D" d="M39.151 36.043a.207.207 0 0 1-.168-.086c-.553-.764-1.419-1.252-1.428-1.258a.208.208 0 1 1 .203-.361c.038.02.953.537 1.562 1.377a.208.208 0 0 1-.169.328"/></g><path clip-path="url(#b)" fill="#F8F4EC" d="M30.631 91.176h-4.3 8.601z"/><g clip-path="url(#b)"><defs><path id="s" d="M-24.974-2.472H86.627v111.601H-24.974z"/></defs><clipPath id="t"><use xlink:href="#s" overflow="visible"/></clipPath><path clip-path="url(#t)" fill="#393C3D" d="M34.109 32.432c0 1.246-1.588 3.754-3.707 3.754-2.118 0-3.706-2.508-3.706-3.754s1.588-1.869 3.706-1.869c2.119 0 3.707.623 3.707 1.869"/></g><g clip-path="url(#b)"><defs><path id="u" d="M26.696 32.432c0 1.246 1.588 3.754 3.706 3.754 2.119 0 3.707-2.508 3.707-3.754s-1.588-1.869-3.707-1.869c-2.117 0-3.706.623-3.706 1.869"/></defs><clipPath id="v"><use xlink:href="#u" overflow="visible"/></clipPath><g opacity=".55" clip-path="url(#v)"><defs><path id="w" d="M25.652 30.742h9.249v6.994h-9.249z"/></defs><clipPath id="x"><use xlink:href="#w" overflow="visible"/></clipPath><path clip-path="url(#x)" fill="#1A1D1E" d="M26.444 31.752c0 1.193.881 2.283 1.753 3.008 1.338 1.113 2.902 1.109 4.371.221 1.291-.781 1.805-2.166 1.805-3.625 0-2.775 1.188 4.756 0 5.152-1.19.396-5.946 1.982-6.74.793-.792-1.189-1.981-3.172-1.981-3.172l.792-2.377z"/></g></g><g clip-path="url(#b)"><defs><path id="y" d="M-24.974-2.472H86.627v111.601H-24.974z"/></defs><clipPath id="z"><use xlink:href="#y" overflow="visible"/></clipPath><path clip-path="url(#z)" fill="#EAEFF8" d="M39.391 22.661c-1.478-.127-2.715.303-3.71 1.269-1.005.968-1.462 2.186-1.39 3.667.06 1.474.64 2.786 1.74 3.923 1.089 1.129 2.381 1.754 3.858 1.883 1.473.117 2.712-.313 3.717-1.281.994-.965 1.462-2.186 1.392-3.657-.074-1.493-.655-2.804-1.754-3.931-1.087-1.13-2.379-1.756-3.853-1.873"/><path clip-path="url(#z)" fill="none" stroke="#040000" stroke-width=".229" stroke-miterlimit="10" d="M39.391 22.661c-1.478-.127-2.715.303-3.71 1.269-1.005.968-1.462 2.186-1.39 3.667.06 1.474.64 2.786 1.74 3.923 1.089 1.129 2.381 1.754 3.858 1.883 1.473.117 2.712-.313 3.717-1.281.994-.965 1.462-2.186 1.392-3.657-.074-1.493-.655-2.804-1.754-3.931-1.087-1.13-2.379-1.756-3.853-1.873z"/><path clip-path="url(#z)" fill="#EAEFF8" d="M39.421 26.801c.069-.028.13-.055.202-.072a2.895 2.895 0 0 1 2.103.246 2.903 2.903 0 0 1 1.51 1.764c.254.796.192 1.562-.2 2.289a2.88 2.88 0 0 1-1.739 1.516 2.962 2.962 0 0 1-2.317-.182 3.827 3.827 0 0 1-.338-.203c-.556-.369-.939-.891-1.163-1.563-.254-.797-.204-1.57.162-2.313a2.98 2.98 0 0 1 1.78-1.482"/><path clip-path="url(#z)" fill="#31323C" d="M41.272 32.623c-.831.246-1.616.211-2.373-.184-.712-.365-1.205-.939-1.45-1.77-.283-.821-.246-1.606.109-2.354a3.026 3.026 0 0 1 1.844-1.469c.821-.283 1.57-.236 2.281.128a3.14 3.14 0 0 1 1.579 1.816c.245.83.163 1.588-.238 2.309-.355.751-.921 1.278-1.752 1.524"/><path clip-path="url(#z)" fill="#407190" d="M39.371 26.648a3.155 3.155 0 0 0-1.873 1.558c-.384.778-.441 1.597-.173 2.438.235.709.647 1.264 1.227 1.646a3.126 3.126 0 0 0 2.793.404 3.049 3.049 0 0 0 1.835-1.596c.406-.754.478-1.566.209-2.41a3.057 3.057 0 0 0-1.591-1.857 3.06 3.06 0 0 0-2.214-.26c-.075.019-.136.044-.2.07 0 .002-.024.011-.013.007m.109.302l.025-.01c.058-.024.104-.042.155-.055a2.75 2.75 0 0 1 1.99.233c.712.36 1.192.921 1.432 1.669.241.757.178 1.484-.188 2.164a2.747 2.747 0 0 1-1.649 1.439 2.814 2.814 0 0 1-2.195-.174 3.318 3.318 0 0 1-.319-.191c-.526-.35-.885-.834-1.101-1.48a2.85 2.85 0 0 1 .154-2.191 2.85 2.85 0 0 1 1.696-1.404"/><path clip-path="url(#z)" fill="#FFF" d="M40.229 29.271c.2.139.42.176.663.136s.422-.169.549-.368a.81.81 0 0 0 .148-.644.894.894 0 0 0-.381-.568.798.798 0 0 0-.64-.117.858.858 0 0 0-.572.349.855.855 0 0 0-.114.661.79.79 0 0 0 .347.551m-.937 1.786a.344.344 0 0 0 .037-.221c-.022-.094-.062-.154-.12-.189a.246.246 0 0 0-.221-.039c-.095.012-.154.051-.189.119-.047.061-.061.127-.038.221.011.086.05.145.109.191a.337.337 0 0 0 .22.039.383.383 0 0 0 .202-.121"/><path clip-path="url(#z)" fill="#EAEFF8" d="M21.833 22.661c-1.475.118-2.767.743-3.855 1.873-1.098 1.127-1.679 2.438-1.754 3.931-.069 1.472.398 2.692 1.393 3.657 1.004.969 2.243 1.398 3.717 1.281 1.477-.129 2.77-.754 3.857-1.883 1.1-1.137 1.681-2.449 1.74-3.923.073-1.481-.384-2.699-1.39-3.667-.994-.966-2.232-1.397-3.708-1.269"/><path clip-path="url(#z)" fill="none" stroke="#040000" stroke-width=".229" stroke-miterlimit="10" d="M21.833 22.661c-1.475.118-2.767.743-3.855 1.873-1.098 1.127-1.679 2.438-1.754 3.931-.069 1.472.398 2.692 1.393 3.657 1.004.969 2.243 1.398 3.717 1.281 1.477-.129 2.77-.754 3.857-1.883 1.1-1.137 1.681-2.449 1.74-3.923.073-1.481-.384-2.699-1.39-3.667-.994-.966-2.232-1.397-3.708-1.269z"/><path clip-path="url(#z)" fill="#EAEFF8" d="M21.802 26.801a2.99 2.99 0 0 1 1.781 1.482c.366.742.416 1.516.162 2.313-.223.672-.607 1.193-1.163 1.563a2.965 2.965 0 0 1-2.655.385 2.878 2.878 0 0 1-1.74-1.516c-.392-.727-.455-1.492-.201-2.289a2.909 2.909 0 0 1 1.51-1.764 2.895 2.895 0 0 1 2.103-.246c.073.018.132.044.203.072"/><path clip-path="url(#z)" fill="#31323C" d="M19.951 32.623c-.831-.246-1.397-.773-1.752-1.523-.402-.721-.484-1.479-.238-2.309a3.141 3.141 0 0 1 1.578-1.816c.712-.365 1.46-.411 2.281-.128a3.031 3.031 0 0 1 1.845 1.469c.355.748.392 1.533.109 2.354-.246.83-.739 1.404-1.451 1.77-.758.394-1.541.429-2.372.183"/><path clip-path="url(#z)" fill="#407190" d="M21.839 26.643a1.353 1.353 0 0 0-.201-.07 3.052 3.052 0 0 0-2.213.26c-.79.399-1.326 1.024-1.591 1.857-.27.842-.197 1.654.209 2.408a3.041 3.041 0 0 0 1.834 1.598 3.133 3.133 0 0 0 2.441-.191c.118-.063.241-.137.353-.211.578-.385.991-.939 1.226-1.648.269-.842.211-1.66-.172-2.438a3.156 3.156 0 0 0-1.874-1.558c.012.002-.012-.007-.012-.007m1.6 1.711c.343.696.395 1.433.153 2.191-.214.646-.574 1.131-1.1 1.48-.103.07-.214.137-.32.191a2.816 2.816 0 0 1-2.194.174 2.744 2.744 0 0 1-1.649-1.439c-.367-.68-.431-1.406-.188-2.164a2.743 2.743 0 0 1 1.431-1.669 2.74 2.74 0 0 1 1.99-.233c.053.013.098.031.156.055l.025.01a2.853 2.853 0 0 1 1.696 1.404"/><path clip-path="url(#z)" fill="#FFF" d="M20.993 29.271a.863.863 0 0 1-.663.136.771.771 0 0 1-.547-.368.815.815 0 0 1-.149-.644.891.891 0 0 1 .382-.568.795.795 0 0 1 .639-.117c.243.04.433.161.572.349a.855.855 0 0 1 .114.661.791.791 0 0 1-.348.551m.939 1.786a.344.344 0 0 1-.039-.221c.022-.094.063-.154.12-.189a.246.246 0 0 1 .221-.039c.096.012.156.051.19.119.047.061.061.127.038.221a.27.27 0 0 1-.109.191.339.339 0 0 1-.221.039.373.373 0 0 1-.2-.121"/></g><path clip-path="url(#b)" fill="none" d="M-24.974-2.472H86.627v111.601H-24.974z"/><path fill="none" stroke="#040000" stroke-width=".286" stroke-miterlimit="10" d="M13.729 44.678s2.181 2.957 4.167 4.354c1.986 1.396 6.9 5.143 13.219 5.07 6.318-.072 9.907-3.104 12.963-5.947 3.057-2.844 4.306-5.746 4.306-5.746"/></svg>