<svg width="15" height="15" viewBox="0 0 15 15" xmlns="http://www.w3.org/2000/svg"><g transform="rotate(11 13.193 -.058)" fill="none" fill-rule="evenodd"><path d="M7.38 2.8L14.65 7a1 1 0 0 1 .36 1.37l-2.88 5c-.27.5-.88.65-1.36.37h-.02L3.48 9.4c-.24-.15-.4-.38-.47-.66l-.74-3.56a1 1 0 0 1 .64-1.15l3.64-1.3c.28-.1.6-.08.84.07z" fill="#FCA375"/><path d="M13.97 7.18L7.13 3.23a.513.513 0 0 0-.42-.03L3.08 4.5a.51.51 0 0 0-.32.58l.75 3.56c.03.14.1.26.23.33L11 13.3c.25.15.55.07.7-.17l2.88-5c.14-.25.06-.56-.18-.7l-.43-.25z" stroke="#2C313C" opacity=".6" style="mix-blend-mode:overlay"/><path d="M2.7 9.22l7.68 4.42c.48.28 1.1.1 1.37-.37l1.6-2.78L1.78 4.1l.92 5.1z" fill="#FA814F"/><path d="M13.36 7.5L11 6.23" stroke="#FFF" stroke-linecap="round" stroke-linejoin="round"/><path d="M15.3 6.9c.4.46.47 1.15.15 1.72l-2.9 5c-.4.72-1.33.97-2.04.56L3.2 9.82c-.36-.22-.6-.57-.7-.98l-.75-3.57c-.15-.73.26-1.46.96-1.72l3.65-1.3c.4-.16.87-.1 1.25.1l7.7 4.46-.04.07z" stroke="#31323D" stroke-linecap="round" stroke-linejoin="round"/><circle fill="#31323D" cx="5.39" cy="6.16" r="1"/></g></svg>