<svg width="150" height="150" viewBox="0 0 150 150" xmlns="http://www.w3.org/2000/svg" xmlns:xlink="http://www.w3.org/1999/xlink"><defs><circle id="a" cx="75" cy="75" r="75"/><linearGradient x1="19.43%" y1="29.32%" x2="87.21%" y2="29.32%" id="c"><stop stop-color="#EF4974" offset="0%"/><stop stop-color="#FF6D93" offset="100%"/></linearGradient><linearGradient x1="45.91%" y1="59.11%" x2="56.98%" y2="2.09%" id="d"><stop stop-color="#FFA0BD" offset="0%"/><stop stop-color="#FC84A3" offset="100%"/></linearGradient><linearGradient x1="50%" y1="0%" x2="50%" y2="100%" id="e"><stop stop-color="#DB4980" offset="1.02%"/><stop stop-color="#B42449" offset="100%"/></linearGradient><linearGradient x1="97.19%" y1="21.28%" x2="28.72%" y2="21.28%" id="f"><stop stop-color="#FFF0F9" offset="0%"/><stop stop-color="#FF8EB0" offset="100%"/></linearGradient><linearGradient x1="16.29%" y1="4.32%" x2="50%" y2="92.94%" id="g"><stop stop-color="#FFF" offset="0%"/><stop stop-color="#FFF" stop-opacity="0" offset="100%"/></linearGradient></defs><g fill="none" fill-rule="evenodd"><mask id="b" fill="#fff"><use xlink:href="#a"/></mask><use fill="#F1BED9" xlink:href="#a"/><g mask="url(#b)"><path d="M75.5 108.7c30.2 0 50.75-8.06 50.75-13.45 0-5.4-23.7-7.25-50.75-7.25-27.06 0-50.6 2.14-50.6 7.25 0 5.1 20.4 13.46 50.6 13.46z" fill="#000" style="mix-blend-mode:soft-light"/><path d="M1.6 10.58c3.8 20.6 5.7 31.1 5.7 31.45 0 .86 2.1 4.14 13.07 6.72 5.2 1.22 17.4 3.73 32.13 3.73 14.73 0 24.94-1.47 30-2.77 13-3.33 15.2-6.8 15.2-7.67 0-.35 1.9-10.84 5.7-31.45.97-.52.66-1.13.66-2.08 0-1.88-103.43 1.56-102.47 2.08z" fill="url(#c)" transform="translate(23 52)"/><path d="M78.6 16.8c9.48-.78 25.96-4.2 25.96-7.34C104.56 4.8 81.5 1 52.5 1 23.5 1 0 4.8 0 9.46c0 3.17 13.7 5.7 26.85 7.38 2.17 18 12.62 26.46 25.65 26.45 13.03-.02 24.2-7.74 26.1-26.5z" fill="url(#d)" transform="translate(23 52)"/><path d="M99.27 66.7c9.5-.77 24.5-2.5 24.5-5.65 0-3.7-34.2-6.38-34.1-5.7 1.1 8 .96 14.75-.48 20.4-1.9 7.42-6.05 12.98-12.68 17.14 13.04-.02 19.9-8.76 22.75-26.2z" fill="#000" opacity=".5" style="mix-blend-mode:soft-light"/><path d="M55.08 76.55c2.64 10.5 9.27 15.95 19.92 16.4 10.65.42 17.8-4.55 21.5-14.95l-9.25-.94H71.7l-16.62-.5z" fill="#A4E9EA"/><path d="M68.62 91.75c13.34 3.5 22.5-1.13 27.5-13.88l-11.37-1.32c-1.17 5.5-2.75 9.22-4.72 11.17-4.05 4.03-6.78 4.03-11.4 4.03z" fill="#000" opacity=".5" style="mix-blend-mode:soft-light"/><path d="M1.24 10.36c4.08 20.6 6.12 31.1 6.12 31.45 0 .87 5.9 8.45 30.64 10.45-12.88-2.75-22.53-4.63-23.88-12.88C13 32.5 12.25 25.82 10.8 14.2 4.54 12.88.6 10.03 1.24 10.36z" fill="url(#e)" opacity=".5" transform="translate(23 52)"/><path d="M78.6 16.8c-1.9 18.76-13.07 26.48-26.1 26.5-13.03 0-23.48-8.47-25.65-26.46C13.7 15.14 0 12.64 0 9.46 0 4.8 23.5 1 52.5 1s51.94 3.8 51.94 8.46c0 3.14-16.36 6.56-25.84 7.34zm-2.73-2.03c18.42-2.1 24.88-4.02 24.88-5.98 0-1.8-21.34-5.53-47.67-5.53-26.32 0-47.66 3.5-47.66 5.52 0 1.88 13.76 4.28 22.97 5.23 2.07.22 1.7 1.94 2.07 4.38 2.44 16.67 11.6 22.7 22.6 22.7 11.4 0 20.98-9.33 22.8-26.33z" fill="url(#f)" transform="translate(23 52)"/><path d="M86.96 10.66c4.1 20.4 6.17 30.8 6.17 31.15 0 .87 0 3.97 10.8 6.9-2.5-2.64-3.35-4.73-4.1-8.7-1.67-8.88-2.07-13.28-4.47-26.5-3.8-1.46-9-3.16-8.4-2.84z" fill="url(#g)" opacity=".5" style="mix-blend-mode:soft-light" transform="matrix(-1 0 0 1 213.834 52)"/><path d="M76.83 77.5c-10.9-1.27-20.02-.96-22.18-.86" stroke="#2C313C"/><path d="M24.68 63.35c3.74 20.1 5.62 30.32 5.62 30.68C30.3 94.9 42.42 105 75 105c32.58 0 45.7-10.1 45.7-10.97 0-.35 1.9-10.78 5.67-31.28" stroke="#31323D" stroke-width="1.25"/><path d="M101.6 68.8c9.48-.78 25.65-4.2 25.65-7.34 0-4.67-22.76-8.96-51.75-8.96-29 0-52.06 4.3-52.06 8.96 0 3.17 13.27 5.7 26.4 7.38 2.18 18 12.63 26.46 25.66 26.45 13.03-.02 24.2-7.74 26.1-26.5z" stroke="#31323D" stroke-linejoin="round"/><path d="M98.87 66.77c18.42-2.1 24.88-4.02 24.88-5.98 0-1.8-21.34-6.03-47.67-6.03-26.32 0-47.66 4-47.66 6.02 0 1.88 13.76 4.28 22.97 5.23 2.07.22 1.7 1.94 2.07 4.38 2.44 16.67 11.6 22.7 22.6 22.7 11.4 0 20.98-9.33 22.8-26.33z" stroke="#31323D" stroke-linejoin="round"/><path d="M69.63 78.95c11.87-2.45 15.62-3.2 26.5-.93" stroke="#2C313C" stroke-linecap="round"/></g><g mask="url(#b)"><g transform="translate(82 84.5)"><ellipse fill="#000" style="mix-blend-mode:soft-light" cx="22.66" cy="34.68" rx="16.39" ry="3"/><g transform="rotate(-10 36.633 2.417)"><ellipse fill="#A1F1F1" cx="19.69" cy="16.56" rx="16.15" ry="16.29"/><path d="M25.8 31.54C20 31 13.33 29.3 10.04 21.06c-3.4-8.22.94-14.46 5.27-19.7C6 4.75 1.53 14.1 5.13 22.27c3.5 8.2 12.68 12.36 20.68 9.26z" fill="#56B7D2"/><ellipse stroke="#2C313C" cx="19.69" cy="16.56" rx="16.15" ry="16.29"/><path d="M3.48 16.6c3.32 3.12 8.25 5.25 13.18 5.25 6 0 11.33-2.84 14.72-7.26" stroke="#2C313C"/><path d="M15.24 21.93c.6-1.3 1.07-2.7 1.36-4.16 1.08-5.6-.68-11.55-4.18-15.52m7.31 19.53c.57-1.4 1.03-3.4 1.25-4.98.84-6-1.3-11.9-5.2-15.9M24.4 20c.18-.8.34-1.6.45-2.4.94-6.65-1.07-12.95-4.94-17.33M11.2 21c.3-.73.54-1.5.74-2.3 1.3-5.2.14-10.42-2.73-14.47M7.48 19.38c.3-.62.54-1.27.75-1.94 1.16-3.8.6-7.72-1.22-10.9m24.83-.74c-2.8-1.1-5.85-1.4-8.78-.9m12.4 7.97c-3.16-3.06-7.2-4.7-11.33-4.92M35.4 19.22c-2.5-3.87-6.23-6.47-10.34-7.62" stroke="#2C313C"/><path d="M3.9 20.07c3.57 3.86 8.65 5.6 13.57 5.6 6 0 11.82-2.97 15.88-8.94" stroke="#2C313C"/><path d="M5.63 24.58c3.32 3.12 8.02 4.92 12.94 4.92 6 0 13.4-3.6 16.45-10.86" stroke="#2C313C"/></g><path d="M31.7 32.44c6.36 2.3 6.83-2.8 10.35-5.6 3.52-2.78 8.32 3.4 6 6.16-2.3 2.75-5.18-3.37 0-8.56 5.2-5.2 15.03-3.14 18.76 4.6" stroke="#2C313C"/></g></g></g></svg>