<svg width="115" height="16" viewBox="0 0 115 16" xmlns="http://www.w3.org/2000/svg"><title>Group 13</title><g fill="none" fill-rule="evenodd"><path fill="#0A9600" d="M7.974 4.377V15H4.093V4.377H.172V.997h11.723v3.38zm8.219 2.561c-.82 0-1.28.56-1.4 1.6h3.001c-.18-1.06-.54-1.6-1.6-1.6zm4.761 3.841h-6.16c.12 1.16.798 1.68 1.78 1.68.92 0 1.68-.2 2.72-.74l1.38 2.301c-1.3.759-2.64 1.2-4.28 1.2-3.162 0-4.902-2.241-4.902-5.462 0-3.62 2.04-5.481 4.801-5.481 2.88 0 4.681 1.901 4.681 5.801 0 .301 0 .521-.02.701zm6.699 4.441c-3.08 0-4.92-1.96-4.92-5.501 0-3.221 1.64-5.441 5-5.441 1.981 0 3.121.92 4.041 2.4l-2.48 1.88c-.5-.92-.84-1.36-1.62-1.36-.92 0-1.38.92-1.38 2.58 0 1.662.5 2.52 1.48 2.52.68 0 1.16-.38 1.82-1.36l2.28 1.78c-1.22 1.802-2.36 2.502-4.22 2.502m12.28-.22V9.038c0-1.36-.46-1.72-1.2-1.72-.761 0-1.221.36-1.221 1.68V15h-3.6V1.857l3.6-1.44v4.78c.66-.5 1.4-.92 2.64-.92 2.302 0 3.402 1.54 3.402 4.301V15h-3.621z"/><path d="M52.174 15.22c-4.161 0-6.382-3.081-6.382-7.222 0-4.501 2.64-7.221 6.402-7.221 3.44 0 4.8 1.48 5.76 4.12l-3.52 1.38c-.5-1.3-.98-2.12-2.26-2.12-1.62 0-2.32 1.62-2.32 3.84 0 2.142.679 3.842 2.36 3.842 1.22 0 1.74-.66 2.5-1.98l3.28 1.74c-.94 1.84-2.5 3.62-5.82 3.62m14.679-6.761c-.46-.5-.98-.88-1.68-.88-.882 0-1.422.42-1.422 1.7V15h-3.6V4.497h3.6v.76c.622-.6 1.322-.98 2.242-.98.76 0 1.28.18 1.7.44l-.84 3.741zM75.413 15v-.701c-.64.5-1.4.921-2.62.921-2.3 0-3.4-1.54-3.4-4.302V4.497h3.62v5.962c0 1.359.46 1.72 1.2 1.72s1.2-.361 1.2-1.681V4.497h3.621V15h-3.62zm12.24 0V9.038c0-1.36-.46-1.72-1.2-1.72-.76 0-1.22.36-1.22 1.68V15h-3.6V4.497h3.6v.7c.66-.5 1.4-.92 2.64-.92 2.301 0 3.401 1.54 3.401 4.301V15h-3.62zm10.639.22c-3.08 0-4.921-1.96-4.921-5.501 0-3.221 1.641-5.441 5.001-5.441 1.981 0 3.121.92 4.041 2.4l-2.48 1.88c-.5-.92-.841-1.36-1.62-1.36-.921 0-1.381.92-1.381 2.58 0 1.662.5 2.52 1.48 2.52.68 0 1.16-.38 1.82-1.36l2.281 1.78c-1.22 1.802-2.361 2.502-4.221 2.502m12.28-.22V9.038c0-1.36-.46-1.72-1.2-1.72-.76 0-1.22.36-1.22 1.68V15h-3.6V1.857l3.6-1.44v4.78c.66-.5 1.4-.92 2.64-.92 2.301 0 3.401 1.54 3.401 4.301V15h-3.62z" fill="#000"/></g></svg>