<?xml version="1.0" encoding="utf-8"?>
<!-- Generator: Adobe Illustrator 16.0.0, SVG Export Plug-In . SVG Version: 6.00 Build 0)  -->
<!DOCTYPE svg PUBLIC "-//W3C//DTD SVG 1.1//EN" "http://www.w3.org/Graphics/SVG/1.1/DTD/svg11.dtd">
<svg version="1.1" xmlns="http://www.w3.org/2000/svg" xmlns:xlink="http://www.w3.org/1999/xlink" x="0px" y="0px" width="242px"
	 height="286px" viewBox="0 0 242 286" enable-background="new 0 0 242 286" xml:space="preserve">
<g id="图层_2">
	<rect fill="#FFF2C2" width="242" height="286"/>
</g>
<g id="图层_3">
	<ellipse opacity="0.1" cx="121" cy="234" rx="54.5" ry="8"/>
</g>
<g id="图层_4">
	<g>
		<defs>
			<rect id="SVGID_1_" x="26" y="3.66" width="200" height="278.68"/>
		</defs>
		<clipPath id="SVGID_2_">
			<use xlink:href="#SVGID_1_"  overflow="visible"/>
		</clipPath>
		<rect x="226" y="4.168" clip-path="url(#SVGID_2_)" fill="#E0D5BD" width="199.998" height="278.68"/>
	</g>
	<g>
		<defs>
			<rect id="SVGID_3_" x="26" y="3.66" width="200" height="278.68"/>
		</defs>
		<clipPath id="SVGID_4_">
			<use xlink:href="#SVGID_3_"  overflow="visible"/>
		</clipPath>
		<path clip-path="url(#SVGID_4_)" fill="#3C3729" d="M213.241,193.327c-8.149-32.423-49.377-16.634-49.377-16.634l0.801,8.549
			c0.573-0.326,7.021-1.795,13.576-0.911c6.278,0.846,12.655,3.85,14.067,12.082c1.297,7.562-0.064,11.845-2.521,14.177
			c2.338-0.111,4.257,0.453,0.244,3.737c0,0,8.21-2.728,1.776,2.085c0,0,8.853,0.979,0.103,2.831c0,0,8.699,0.695,1.981,2.754
			c0,0,4.433-0.354,3.952,1.736C208.323,220.475,217.4,209.876,213.241,193.327"/>
	</g>
	<g>
		<defs>
			<path id="SVGID_5_" d="M163.862,176.693l0.802,8.549c0.572-0.326,7.02-1.795,13.576-0.911c6.278,0.846,12.655,3.85,14.067,12.082
				c1.297,7.562-0.064,11.845-2.521,14.177c2.338-0.111,4.257,0.453,0.244,3.736c0,0,8.21-2.728,1.776,2.086
				c0,0,8.853,0.979,0.103,2.831c0,0,8.699,0.695,1.98,2.754c0,0,4.433-0.354,3.953,1.736c10.48-3.259,19.557-13.857,15.399-30.405
				c-4.128-16.425-16.747-20.479-28.193-20.479C173.9,172.849,163.862,176.693,163.862,176.693"/>
		</defs>
		<clipPath id="SVGID_6_">
			<use xlink:href="#SVGID_5_"  overflow="visible"/>
		</clipPath>
		<g opacity="0.55" clip-path="url(#SVGID_6_)">
			<g>
				<defs>
					<rect id="SVGID_7_" x="170.236" y="161.089" width="52.65" height="72.373"/>
				</defs>
				<clipPath id="SVGID_8_">
					<use xlink:href="#SVGID_7_"  overflow="visible"/>
				</clipPath>
				<path clip-path="url(#SVGID_8_)" fill="#3C3729" d="M178.639,185.849c0,0,2.641-5.279,0.44-10.999
					c0,0,39.192-4.153,31.674,33.433c-1.759,8.8-13.407,15.245-22.875,14.078c-8.324-1.023-14.78-6.732-15.397-11.877
					c0,0-4.399,2.639-0.881,8.799c3.52,6.158,17.597,17.596,27.275,13.196c9.679-4.398,19.357-10.558,21.997-21.116
					c2.638-10.557,4.398-35.192-6.159-42.23c-10.558-7.039-29.034-9.68-32.553-7.039c-3.521,2.64-8.37,5.418-8.584,8.428
					c-0.215,3.01-0.215,13.568,0.665,14.448C175.121,185.849,178.639,185.849,178.639,185.849"/>
			</g>
		</g>
	</g>
	<g>
		<defs>
			<rect id="SVGID_9_" x="26" y="3.66" width="200" height="278.68"/>
		</defs>
		<clipPath id="SVGID_10_">
			<use xlink:href="#SVGID_9_"  overflow="visible"/>
		</clipPath>
		<path clip-path="url(#SVGID_10_)" fill="#F9F5ED" d="M193.891,221.997c6.718-2.059-1.981-2.754-1.981-2.754
			c8.75-1.853-0.103-2.831-0.103-2.831c6.434-4.813-1.776-2.085-1.776-2.085c4.014-3.284,2.094-3.849-0.244-3.737
			c-5.258,4.988-15.537,1.02-15.537,1.02c2.19,11.619,13.539,15.25,23.593,12.124C198.324,221.644,193.891,221.997,193.891,221.997"
			/>
	</g>
	<g>
		<defs>
			<path id="SVGID_11_" d="M189.787,210.59c-5.258,4.988-15.537,1.02-15.537,1.02c2.192,11.619,13.538,15.25,23.593,12.124
				c0.48-2.09-3.953-1.736-3.953-1.736c6.718-2.059-1.98-2.754-1.98-2.754c8.75-1.853-0.103-2.831-0.103-2.831
				c6.434-4.813-1.776-2.086-1.776-2.086c3.718-3.043,2.345-3.749,0.265-3.749C190.129,210.577,189.959,210.581,189.787,210.59"/>
		</defs>
		<clipPath id="SVGID_12_">
			<use xlink:href="#SVGID_11_"  overflow="visible"/>
		</clipPath>
		<g opacity="0.45" clip-path="url(#SVGID_12_)">
			<g>
				<defs>
					<rect id="SVGID_13_" x="170.051" y="210.081" width="32.07" height="22.609"/>
				</defs>
				<clipPath id="SVGID_14_">
					<use xlink:href="#SVGID_13_"  overflow="visible"/>
				</clipPath>
				<path clip-path="url(#SVGID_14_)" fill="#F9F5ED" d="M200.636,219.282c0,0-4.4,5.278-13.198,2.639
					c-8.799-2.639-10.998-7.479-14.518-10.997c-3.519-3.521-3.958,4.838-0.439,9.237c3.52,4.399,14.957,14.077,19.356,12.317
					c4.399-1.759,7.919-1.759,9.678-4.398C203.275,225.44,200.636,219.282,200.636,219.282"/>
			</g>
		</g>
	</g>
	<g>
		<defs>
			<rect id="SVGID_15_" x="26" y="3.66" width="200" height="278.68"/>
		</defs>
		<clipPath id="SVGID_16_">
			<use xlink:href="#SVGID_15_"  overflow="visible"/>
		</clipPath>
		<g clip-path="url(#SVGID_16_)">
			<text transform="matrix(1 0 0 1 26.2178 -8.2813)" fill="#F9F7F4" font-family="'MStiffHeiPRC-Bold'" font-size="55.7285">导图</text>
		</g>
	</g>
	<g>
		<defs>
			<rect id="SVGID_17_" x="26" y="3.66" width="200" height="278.68"/>
		</defs>
		<clipPath id="SVGID_18_">
			<use xlink:href="#SVGID_17_"  overflow="visible"/>
		</clipPath>
		<path clip-path="url(#SVGID_18_)" fill="none" stroke="#020100" stroke-width="0.5076" stroke-miterlimit="10" d="
			M213.241,193.327c-8.149-32.423-49.377-16.634-49.377-16.634l0.801,8.55c0.573-0.327,7.021-1.796,13.576-0.912
			c6.278,0.848,12.655,3.85,14.067,12.082c1.297,7.562-0.064,11.845-2.521,14.177c-5.258,4.988-15.537,1.02-15.537,1.02
			c2.192,11.619,13.538,15.25,23.593,12.124C208.323,220.475,217.4,209.876,213.241,193.327z"/>
	</g>
	<g>
		<defs>
			<rect id="SVGID_19_" x="26" y="3.66" width="200" height="278.68"/>
		</defs>
		<clipPath id="SVGID_20_">
			<use xlink:href="#SVGID_19_"  overflow="visible"/>
		</clipPath>
		<path clip-path="url(#SVGID_20_)" fill="#F9F5ED" d="M90.6,79.699c0,0,2.209-33.49,7.437-33.912
			c5.228-0.423,12.263,28.563,12.263,28.563L90.6,79.699z"/>
		<path clip-path="url(#SVGID_20_)" fill="#99918A" d="M94.655,77.625c0,0,2.959-24.802,4.106-24.944
			c1.146-0.141,7.317,20.827,7.317,20.827L94.655,77.625z"/>
		<path clip-path="url(#SVGID_20_)" fill="#F9F5ED" d="M151.396,79.699c0,0-2.209-33.49-7.437-33.912
			c-5.228-0.423-12.263,28.563-12.263,28.563L151.396,79.699z"/>
		<path clip-path="url(#SVGID_20_)" fill="#99918A" d="M147.341,77.625c0,0-2.958-24.802-4.106-24.944
			c-1.146-0.141-7.316,20.827-7.316,20.827L147.341,77.625z"/>
		<path clip-path="url(#SVGID_20_)" fill="none" stroke="#000000" stroke-width="1.0152" stroke-miterlimit="10" d="M90.6,79.699
			c0,0,2.209-33.49,7.437-33.912c5.228-0.423,12.263,28.563,12.263,28.563L90.6,79.699z"/>
		<path clip-path="url(#SVGID_20_)" fill="none" stroke="#000000" stroke-width="1.0152" stroke-miterlimit="10" d="M151.396,79.699
			c0,0-2.209-33.49-7.437-33.912c-5.228-0.423-12.263,28.563-12.263,28.563L151.396,79.699z"/>
	</g>
	<path fill="#C6C1BA" d="M113.167,179.274v-10.787H92.992c-1.822-0.432-3.533-0.773-5.149-1.036c0.72,2.884,1.509,5.824,2.314,8.817
		c1.668,6.201,3.393,12.613,4.542,18.876c1.055,5.753,1.903,12.073,2.723,18.186c1.089,8.12,2.008,14.639,3.101,19.381h12.068
		c0.561-3.442,0.979-8.016,1.505-13.781c0.089-0.983,0.183-2.003,0.28-3.061c1.383-14.991,1.636-31.283,1.683-36.595H113.167z"/>
	<path fill="#C6C1BA" d="M149.004,168.487h-20.175v10.787h-2.891c0.045,5.312,0.299,21.604,1.682,36.595
		c0.098,1.055,0.19,2.072,0.279,3.052c0.527,5.771,0.945,10.347,1.507,13.79h12.067c1.092-4.742,2.013-11.261,3.101-19.382
		c0.82-6.111,1.667-12.433,2.723-18.185c1.148-6.263,2.873-12.675,4.541-18.876c0.806-2.993,1.595-5.934,2.316-8.817
		C152.537,167.714,150.826,168.056,149.004,168.487"/>
	<g opacity="0.07">
		<g>
			<defs>
				<rect id="SVGID_21_" x="118.714" y="69.371" width="43.087" height="171.766"/>
			</defs>
			<clipPath id="SVGID_22_">
				<use xlink:href="#SVGID_21_"  overflow="visible"/>
			</clipPath>
			<path clip-path="url(#SVGID_22_)" d="M161.801,93.762c0,0-3.19-2.439-4.502-5.254c-1.314-2.813-6.802-19.137-35.792-19.137
				c-0.957,0-1.885,0.019-2.792,0.055c26.554,1.009,31.73,16.362,33,19.082c1.314,2.814,4.503,5.254,4.503,5.254
				c-1.595,0.563-5.628-0.47-5.628-0.47c0.188,2.814,3.94,6.66,3.94,6.66s-3.215,2.378-2.438,5.535
				c2.571,10.462,1.781,24.296,1.594,29.08c-0.188,4.784,1.313,11.913,1.313,11.913c-2.438-1.313-3.095-2.72-3.095-2.72
				c0.093,3.003,1.595,8.254,1.595,8.254c-1.595-1.22-2.458-1.862-2.458-1.862c-0.779,13.636-7.065,29.706-9.924,45.295
				c-3.047,16.609-4.387,38.035-8.069,44.046c0.858,1.222,1.982,1.734,3.532,1.629c5.336-0.365,6.565-26.299,10.121-45.675
				c2.86-15.589,9.146-31.659,9.925-45.295c0,0,0.862,0.643,2.457,1.862c0,0-1.501-5.251-1.595-8.254c0,0,0.656,1.406,3.096,2.72
				c0,0-1.501-7.129-1.313-11.913s0.978-18.618-1.595-29.08c-0.775-3.157,2.44-5.535,2.44-5.535s-3.752-3.846-3.94-6.66
				C156.172,93.292,160.206,94.324,161.801,93.762"/>
		</g>
	</g>
	<g opacity="0.1">
		<g>
			<defs>
				<rect id="SVGID_23_" x="80.704" y="68.636" width="80.589" height="171.764"/>
			</defs>
			<clipPath id="SVGID_24_">
				<use xlink:href="#SVGID_23_"  overflow="visible"/>
			</clipPath>
			<path clip-path="url(#SVGID_24_)" fill="#A5A5A5" d="M160.743,92.572c0.013,0.185,0.042,0.371,0.083,0.562
				c0.168-0.027,0.329-0.061,0.466-0.109C161.292,93.024,161.08,92.861,160.743,92.572"/>
			<path clip-path="url(#SVGID_24_)" fill="#A5A5A5" d="M86.331,92.572c0.97-0.829,2.977-2.711,3.953-4.801
				c1.273-2.729,6.477-18.171,33.253-19.092c-0.826-0.028-1.671-0.043-2.538-0.043c-28.991,0-34.479,16.32-35.792,19.135
				c-1.313,2.814-4.503,5.253-4.503,5.253c1.595,0.564,5.628-0.469,5.628-0.469C86.333,92.563,86.331,92.568,86.331,92.572"/>
			<path clip-path="url(#SVGID_24_)" fill="#F9F5ED" d="M100.883,194.713c-2.859-15.589-9.146-31.66-9.925-45.298
				c0,0-0.862,0.644-2.457,1.864c0,0,1.501-5.254,1.595-8.255c0,0-0.657,1.406-3.096,2.721c0,0,1.501-7.131,1.314-11.914
				s-0.978-18.619,1.595-29.08c0.776-3.156-2.44-5.534-2.44-5.534s3.753-3.847,3.941-6.661c0,0-3.364,0.857-5.162,0.578
				c-0.589,2.733-3.854,6.083-3.854,6.083s3.216,2.378,2.439,5.534c-2.572,10.461-1.782,24.297-1.594,29.08
				c0.187,4.783-1.313,11.914-1.313,11.914c2.439-1.314,3.096-2.721,3.096-2.721c-0.094,3.001-1.596,8.255-1.596,8.255
				c1.596-1.221,2.458-1.864,2.458-1.864c0.78,13.638,7.066,29.709,9.925,45.298c3.554,19.375,4.784,45.308,10.121,45.673
				c1.389,0.096,2.435-0.309,3.255-1.272C105.324,233.64,103.993,211.666,100.883,194.713"/>
		</g>
	</g>
	<path fill="#F9F5ED" d="M156.618,223.6c0,0,8.76-8.917,14.563-20.475c9.109-18.141,13.335-41.251-17.734-35.58
		c1.58-6.285,2.853-12.361,3.176-18.018c0,0,0.862,0.645,2.457,1.863c0,0-1.501-5.252-1.595-8.255c0,0,0.657,1.408,3.096,2.721
		c0,0-1.501-7.129-1.313-11.913c0.188-4.785,0.979-18.618-1.595-29.081c-0.776-3.156,2.44-5.534,2.44-5.534s-3.752-3.847-3.94-6.66
		c0,0,4.034,1.032,5.629,0.47c0,0-3.19-2.439-4.502-5.254c-1.314-2.813-6.802-19.138-35.792-19.138S87.027,85.07,85.714,87.884
		c-1.313,2.814-4.502,5.254-4.502,5.254c1.594,0.563,5.628-0.47,5.628-0.47c-0.188,2.813-3.94,6.66-3.94,6.66
		s3.215,2.378,2.439,5.534c-2.572,10.463-1.782,24.296-1.595,29.081c0.188,4.784-1.313,11.913-1.313,11.913
		c2.439-1.313,3.096-2.721,3.096-2.721c-0.094,3.003-1.595,8.255-1.595,8.255c1.595-1.219,2.457-1.863,2.457-1.863
		c0.324,5.656,1.595,11.732,3.176,18.018c-31.07-5.671-26.843,17.439-17.734,35.58c5.803,11.558,14.563,20.475,14.563,20.475
		c-4.432-1.689-13.406-0.544-14.724,4.545c-1.219,4.711,7.416,4.449,7.416,4.449h23.095c1.114,4.729,2.449,7.781,4.254,7.904
		c3.167,0.217,4.561-2.133,5.523-7.904h9.547h9.546c0.964,5.771,2.357,8.121,5.525,7.904c1.805-0.123,3.139-3.175,4.254-7.904
		h23.095c0,0,8.635,0.262,7.415-4.449C170.024,223.056,161.05,221.91,156.618,223.6"/>
	<rect x="26" y="3.66" fill="none" width="200" height="278.68"/>
	<g>
		<defs>
			<path id="SVGID_25_" d="M121.003,66.44c-5.853,0.011-11.417,1.045-16.458,2.891c-0.85,0.313-1.684,0.649-2.504,1.008
				c-1.449,0.632-2.852,1.325-4.194,2.09c-3.955,2.256-7.412,5.076-10.221,8.313c-1.624,1.873-3.026,3.887-4.182,6.016
				c-0.609,1.123-1.148,2.276-1.614,3.46c-1.347,3.424-2.084,7.08-2.077,10.882c0.006,3.393,1.458,8.485,4.078,14.029
				c0.043,0.023,0.082,0.05,0.125,0.073l0.008-0.04c0.434-0.188,0.854-0.398,1.261-0.627c0.134-0.075,0.26-0.165,0.393-0.245
				c0.268-0.161,0.537-0.32,0.794-0.498c0.149-0.104,0.29-0.22,0.436-0.328c0.23-0.171,0.464-0.34,0.687-0.522
				c0.145-0.12,0.283-0.251,0.424-0.375c0.215-0.188,0.432-0.373,0.639-0.573c0.136-0.13,0.267-0.269,0.401-0.402
				c0.205-0.207,0.411-0.41,0.61-0.624c0.127-0.139,0.25-0.283,0.376-0.424c0.198-0.224,0.398-0.445,0.589-0.676
				c0.115-0.14,0.227-0.281,0.339-0.421c0.2-0.247,0.399-0.492,0.593-0.746c0.096-0.125,0.188-0.252,0.283-0.377
				c0.209-0.279,0.417-0.56,0.622-0.845c0.071-0.098,0.14-0.198,0.21-0.298c0.232-0.327,0.461-0.653,0.688-0.986
				c0.023-0.032,0.044-0.066,0.067-0.098c1.551-2.282,3.005-4.644,4.541-6.751c0.027-0.037,0.055-0.075,0.082-0.112
				c0.237-0.322,0.477-0.637,0.718-0.947c0.047-0.061,0.095-0.121,0.143-0.181c0.228-0.288,0.46-0.569,0.695-0.844
				c0.06-0.069,0.121-0.14,0.182-0.21c0.227-0.258,0.457-0.509,0.691-0.751c0.071-0.073,0.142-0.146,0.214-0.218
				c0.229-0.231,0.46-0.452,0.697-0.666c0.081-0.071,0.161-0.143,0.242-0.211c0.235-0.203,0.474-0.396,0.716-0.58
				c0.087-0.065,0.175-0.129,0.264-0.191c0.243-0.174,0.489-0.341,0.742-0.493c0.094-0.058,0.19-0.108,0.287-0.164
				c0.252-0.145,0.51-0.278,0.773-0.399c0.102-0.047,0.206-0.088,0.31-0.131c0.266-0.111,0.537-0.215,0.813-0.301
				c0.108-0.032,0.219-0.061,0.329-0.09c0.282-0.077,0.567-0.146,0.861-0.196c0.115-0.019,0.233-0.031,0.35-0.046
				c0.299-0.039,0.602-0.071,0.914-0.082c0.12-0.004,0.246,0.002,0.367,0.002c0.32,0.001,0.644,0.009,0.979,0.039
				c0.124,0.013,0.254,0.036,0.38,0.052c0.344,0.045,0.691,0.098,1.051,0.174c0.127,0.028,0.261,0.068,0.391,0.101
				c0.371,0.092,0.745,0.191,1.134,0.319c0.128,0.042,0.261,0.099,0.39,0.146c0.404,0.144,0.812,0.297,1.236,0.481
				c0.121,0.053,0.249,0.122,0.372,0.178c0.444,0.206,0.892,0.419,1.358,0.671c0.108,0.058,0.224,0.13,0.333,0.191
				c0.492,0.273,0.991,0.56,1.51,0.887c0.076,0.048,0.158,0.108,0.235,0.157c0.562,0.361,1.133,0.741,1.726,1.167
				c-0.987-10.352-1.302-20.464,1.927-20.508v0.006c3.248-0.005,2.97,10.132,2.017,20.505c0.592-0.429,1.163-0.811,1.723-1.173
				c0.076-0.051,0.158-0.109,0.235-0.157c0.517-0.33,1.015-0.617,1.506-0.893c0.109-0.062,0.224-0.135,0.333-0.193
				c0.465-0.254,0.912-0.469,1.355-0.674c0.122-0.058,0.25-0.127,0.372-0.179c0.423-0.188,0.83-0.343,1.232-0.487
				c0.13-0.049,0.263-0.105,0.39-0.148c0.389-0.13,0.762-0.229,1.133-0.322c0.13-0.033,0.263-0.074,0.391-0.104
				c0.359-0.079,0.706-0.131,1.049-0.177c0.127-0.018,0.256-0.041,0.38-0.052c0.334-0.033,0.658-0.043,0.978-0.045
				c0.123,0,0.248-0.006,0.369-0.003c0.311,0.01,0.614,0.041,0.914,0.078c0.116,0.016,0.235,0.025,0.35,0.045
				c0.294,0.049,0.581,0.117,0.861,0.192c0.11,0.03,0.222,0.057,0.33,0.09c0.278,0.085,0.549,0.187,0.815,0.297
				c0.103,0.043,0.208,0.084,0.309,0.131c0.264,0.119,0.522,0.254,0.776,0.396c0.095,0.054,0.193,0.105,0.286,0.162
				c0.254,0.153,0.502,0.318,0.745,0.49c0.089,0.063,0.178,0.126,0.264,0.191c0.244,0.183,0.482,0.375,0.717,0.577
				c0.083,0.069,0.163,0.14,0.244,0.213c0.236,0.21,0.47,0.432,0.699,0.659c0.073,0.073,0.145,0.146,0.216,0.22
				c0.234,0.241,0.466,0.49,0.693,0.749c0.062,0.069,0.123,0.139,0.184,0.209c0.235,0.273,0.469,0.553,0.698,0.84
				c0.049,0.061,0.095,0.12,0.143,0.18c0.243,0.309,0.483,0.623,0.722,0.945c0.028,0.038,0.055,0.075,0.083,0.112
				c1.542,2.103,3.006,4.458,4.564,6.733c0.023,0.033,0.045,0.065,0.068,0.099c0.228,0.33,0.458,0.658,0.69,0.983
				c0.071,0.099,0.141,0.199,0.212,0.299c0.207,0.284,0.416,0.563,0.626,0.842c0.094,0.124,0.188,0.252,0.283,0.375
				c0.196,0.252,0.395,0.498,0.597,0.744c0.112,0.14,0.224,0.281,0.339,0.418c0.193,0.23,0.394,0.451,0.592,0.675
				c0.127,0.14,0.25,0.286,0.378,0.423c0.2,0.212,0.407,0.416,0.612,0.622c0.135,0.134,0.266,0.272,0.403,0.401
				c0.208,0.198,0.425,0.384,0.641,0.57c0.142,0.123,0.28,0.254,0.425,0.371c0.224,0.184,0.458,0.351,0.69,0.522
				c0.146,0.107,0.286,0.223,0.436,0.326c0.257,0.177,0.527,0.336,0.795,0.496c0.132,0.078,0.26,0.169,0.394,0.243
				c0.409,0.227,0.83,0.437,1.263,0.621l0.007,0.041c0.044-0.023,0.082-0.049,0.126-0.071c2.6-5.555,4.034-10.652,4.027-14.046
				c-0.007-3.803-0.757-7.456-2.118-10.874c-0.469-1.183-1.013-2.333-1.626-3.453c-1.163-2.126-2.572-4.135-4.203-6.001
				c-2.82-3.229-6.288-6.035-10.251-8.276c-1.345-0.762-2.751-1.449-4.202-2.075c-0.821-0.354-1.656-0.69-2.507-0.997
				c-5.049-1.83-10.616-2.845-16.469-2.834c-0.104,0-0.204,0.006-0.307,0.008v-0.011c-0.104-0.001-0.207-0.006-0.311-0.006
				C121.012,66.44,121.008,66.44,121.003,66.44"/>
		</defs>
		<clipPath id="SVGID_26_">
			<use xlink:href="#SVGID_25_"  overflow="visible"/>
		</clipPath>
		<path clip-path="url(#SVGID_26_)" fill="#3C3729" d="M115.326,177.492c0,0,0,19.981-1.688,38.273s-1.991,25.215-7.327,24.849
			c-5.337-0.365-6.567-26.299-10.121-45.674c-2.86-15.589-9.146-31.659-9.925-45.297c0,0-0.863,0.645-2.458,1.865
			c0,0,1.501-5.253,1.595-8.256c0,0-0.657,1.407-3.095,2.72c0,0,1.5-7.129,1.313-11.914c-0.188-4.783-0.979-18.617,1.595-29.08
			c0.776-3.155-2.439-5.533-2.439-5.533s3.752-3.847,3.939-6.661c0,0-4.034,1.033-5.628,0.47c0,0,3.19-2.439,4.502-5.254
			c1.313-2.814,6.802-19.136,35.793-19.136S155.86,85.186,157.172,88c1.313,2.814,4.502,5.254,4.502,5.254
			c-1.594,0.563-5.627-0.47-5.627-0.47c0.187,2.814,3.939,6.661,3.939,6.661s-3.215,2.378-2.438,5.533
			c2.573,10.463,1.783,24.297,1.595,29.08c-0.188,4.785,1.313,11.914,1.313,11.914c-2.437-1.313-3.095-2.72-3.095-2.72
			c0.093,3.003,1.594,8.256,1.594,8.256c-1.594-1.221-2.457-1.865-2.457-1.865c-0.778,13.638-7.065,29.708-9.924,45.297
			c-3.554,19.375-4.784,45.309-10.122,45.674c-5.336,0.366-5.637-6.557-7.327-24.849c-1.688-18.292-1.688-38.273-1.688-38.273"/>
	</g>
	<g>
		<defs>
			<rect id="SVGID_27_" x="26" y="3.66" width="200" height="278.68"/>
		</defs>
		<clipPath id="SVGID_28_">
			<use xlink:href="#SVGID_27_"  overflow="visible"/>
		</clipPath>
		<path clip-path="url(#SVGID_28_)" fill="#3C3729" d="M147.827,188.938c0.02-2.207,0.208-3.926-0.586-4.6
			c-2.871-2.445-10.903-5.673-13.041-10.468c-2.014-4.517-1.587-8.896,1.201-12.322c2.24-2.759,7.971-6.432,20.548-4.589
			c-2.031,8.629-2.031,11.674-5.077,21.826C149.895,182.048,148.926,185.967,147.827,188.938"/>
		<path clip-path="url(#SVGID_28_)" fill="#3C3729" d="M95.035,188.938c-0.045-2.207-0.976-3.865-0.19-4.551
			c2.841-2.479,10.832-5.805,12.912-10.626c1.958-4.542,1.477-8.914-1.353-12.307c-2.275-2.729-6.43-6.491-18.982-4.495
			c1.015,8.121,3.045,16.243,5.076,21.826C93.685,182.055,93.9,185.98,95.035,188.938"/>
		<path clip-path="url(#SVGID_28_)" fill="none" stroke="#000000" stroke-width="0.5076" stroke-miterlimit="10" d="M140.83,232.848
			h23.095c0,0,8.636,0.261,7.416-4.449c-1.316-5.089-10.291-6.235-14.723-4.546c0,0,8.76-8.916,14.563-20.474
			c9.11-18.144,13.336-41.252-17.733-35.579c1.58-6.286,2.853-12.361,3.176-18.018c0,0,0.862,0.643,2.457,1.863
			c0,0-1.501-5.254-1.595-8.256c0,0,0.656,1.407,3.096,2.721c0,0-1.501-7.13-1.313-11.913c0.188-4.785,0.978-18.619-1.595-29.081
			c-0.776-3.156,2.44-5.534,2.44-5.534s-3.752-3.846-3.94-6.66c0,0,4.034,1.032,5.629,0.47c0,0-3.19-2.439-4.502-5.254
			c-1.314-2.813-6.803-19.137-35.792-19.137c-28.991,0-34.479,16.323-35.792,19.137c-1.313,2.814-4.502,5.254-4.502,5.254
			c1.594,0.563,5.628-0.47,5.628-0.47c-0.188,2.814-3.94,6.66-3.94,6.66s3.215,2.378,2.439,5.534
			c-2.573,10.462-1.782,24.296-1.595,29.081c0.188,4.783-1.313,11.913-1.313,11.913c2.438-1.313,3.095-2.721,3.095-2.721
			c-0.093,3.002-1.594,8.256-1.594,8.256c1.594-1.221,2.457-1.863,2.457-1.863c0.324,5.656,1.595,11.731,3.176,18.018
			c-31.071-5.673-26.843,17.436-17.734,35.579c5.803,11.558,14.563,20.474,14.563,20.474c-4.432-1.689-13.406-0.543-14.724,4.546
			c-1.219,4.71,7.416,4.449,7.416,4.449h23.095"/>
		<polyline clip-path="url(#SVGID_28_)" fill="none" stroke="#000000" stroke-width="0.5076" stroke-miterlimit="10" points="
			111.959,232.848 121.506,232.848 131.052,232.848 		"/>
		<path clip-path="url(#SVGID_28_)" fill="none" stroke="#000000" stroke-width="0.5076" stroke-miterlimit="10" d="
			M153.665,167.872c-2.23,8.872-5.368,17.436-7.042,26.561c-3.553,19.376-4.783,45.309-10.121,45.675
			c-5.336,0.366-5.639-6.557-7.326-24.85c-1.689-18.292-1.689-38.273-1.689-38.273"/>
		<path clip-path="url(#SVGID_28_)" fill="none" stroke="#000000" stroke-width="0.5076" stroke-miterlimit="10" d="
			M115.376,176.984c0,0,0,19.981-1.689,38.273c-1.688,18.293-1.989,25.215-7.327,24.85c-5.337-0.366-6.567-26.299-10.121-45.675
			c-1.647-8.978-4.431-18.115-6.645-26.855"/>
	</g>
	<g>
		<defs>
			<path id="SVGID_29_" d="M85.714,88.392c-1.313,2.814-4.502,5.252-4.502,5.252c1.594,0.564,5.628-0.468,5.628-0.468
				c-0.188,2.814-3.94,6.66-3.94,6.66s3.215,2.378,2.439,5.533c-2.573,10.463-1.782,24.296-1.595,29.081
				c0.188,4.784-1.313,11.913-1.313,11.913c2.438-1.312,3.095-2.72,3.095-2.72c-0.093,3.002-1.594,8.255-1.594,8.255
				c1.594-1.219,2.458-1.863,2.458-1.863c0.323,5.657,1.594,11.732,3.175,18.018c-31.071-5.671-26.844,17.438-17.734,35.58
				c5.802,11.557,14.563,20.475,14.563,20.475c-4.432-1.689-13.406-0.545-14.723,4.544c-1.22,4.712,7.415,4.45,7.415,4.45h23.095
				c1.114,4.729,2.45,7.781,4.254,7.904c3.168,0.216,4.562-2.134,5.523-7.904h9.547l0,0h9.546c0.964,5.771,2.357,8.12,5.525,7.904
				c1.805-0.123,3.14-3.175,4.253-7.904h23.096c0,0,8.634,0.262,7.415-4.45c-1.316-5.089-10.291-6.233-14.723-4.544
				c0,0,8.76-8.918,14.563-20.475c9.11-18.142,13.336-41.251-17.732-35.58c1.579-6.285,2.852-12.36,3.175-18.018
				c0,0,0.862,0.645,2.457,1.863c0,0-1.5-5.253-1.595-8.255c0,0,0.656,1.408,3.096,2.72c0,0-1.501-7.129-1.313-11.913
				c0.188-4.785,0.978-18.618-1.595-29.081c-0.775-3.155,2.44-5.533,2.44-5.533s-3.752-3.846-3.939-6.66
				c0,0,4.033,1.032,5.628,0.468c0,0-3.19-2.438-4.502-5.252c-1.314-2.814-6.802-19.137-35.792-19.137S87.028,85.577,85.714,88.392"
				/>
		</defs>
		<clipPath id="SVGID_30_">
			<use xlink:href="#SVGID_29_"  overflow="visible"/>
		</clipPath>
		<g opacity="0.05" clip-path="url(#SVGID_30_)">
			<g>
				<defs>
					<rect id="SVGID_31_" x="49.604" y="58.704" width="133.503" height="201.934"/>
				</defs>
				<clipPath id="SVGID_32_">
					<use xlink:href="#SVGID_31_"  overflow="visible"/>
				</clipPath>
				<path clip-path="url(#SVGID_32_)" d="M110.771,64.066c0,0-37.056,19.796-18.274,107.105c0,0-49.492-10.913-2.538,54.315
					c0,0-24.692,2.465-12.69,11.167c33.25,24.112,91.625-1.27,91.625-1.27s7.106-9.644-16.245-9.644c0,0,46.194-61.929-3.045-53.808
					c0,0,20.304-86.801-15.229-105.075c-8.287-4.263,24.365-3.045,24.365-3.045l24.366,146.699l-6.599,37.056
					c0,0-112.691,19.798-114.721,10.66c-2.031-9.137-12.183-48.73-12.183-48.73s11.168-89.342,10.66-93.909
					c-0.508-4.568,9.645-56.345,10.66-56.853C71.938,58.229,110.771,64.066,110.771,64.066"/>
			</g>
		</g>
	</g>
	<g>
		<defs>
			<rect id="SVGID_33_" x="26" y="3.66" width="200" height="278.68"/>
		</defs>
		<clipPath id="SVGID_34_">
			<use xlink:href="#SVGID_33_"  overflow="visible"/>
		</clipPath>
		<g clip-path="url(#SVGID_34_)">
			<g>
				<defs>
					<rect id="SVGID_35_" x="93.402" y="97.029" width="55.192" height="41.925"/>
				</defs>
				<clipPath id="SVGID_36_">
					<use xlink:href="#SVGID_35_"  overflow="visible"/>
				</clipPath>
				<path clip-path="url(#SVGID_36_)" fill="#C4C4C4" d="M141.817,108.255c-4.514,0.348-6.45,2.481-7.938-4.402
					c-1.489-6.884-12.881-6.822-12.881-6.822s-11.393-0.062-12.88,6.822c-1.489,6.884-3.424,4.75-7.938,4.402
					c-2.418-0.186-8.062,0.912-6.512,10.959c1.714,11.104,12.871,6.531,15.149,11.058c2.278,4.527,6.991,8.683,12.181,8.683
					s9.904-4.155,12.182-8.683c2.277-4.526,13.435,0.047,15.148-11.058C149.879,109.167,144.236,108.069,141.817,108.255"/>
			</g>
		</g>
		<path clip-path="url(#SVGID_34_)" fill="#C4C4C4" d="M141.817,106.225c-4.514,0.348-6.45,2.481-7.938-4.402
			C132.39,94.938,120.998,95,120.998,95s-11.393-0.063-12.88,6.822c-1.489,6.884-3.424,4.75-7.938,4.402
			c-2.418-0.186-8.062,0.912-6.512,10.958c1.714,11.105,12.871,6.532,15.149,11.059c2.278,4.526,6.991,8.682,12.181,8.682
			s9.904-4.155,12.182-8.682c2.277-4.526,13.435,0.047,15.148-11.059C149.879,107.137,144.236,106.039,141.817,106.225"/>
		<path clip-path="url(#SVGID_34_)" fill="#B84200" d="M120.999,133.347c-6.523,0-7.562-9.364-7.492-15.915
			c3.042-0.171,5.403-2.727,7.492-6.232c1.855,3.037,3.914,5.781,7.492,6.321C128.55,124.068,127.49,133.347,120.999,133.347"/>
		<path clip-path="url(#SVGID_34_)" fill="#393C3D" d="M129.645,117.888c-0.567,0-1.152-0.032-1.755-0.099
			c-6.598-0.728-7.582-8.583-7.59-8.663c-0.044-0.386,0.232-0.736,0.619-0.779c0.385-0.049,0.734,0.231,0.779,0.617
			c0.034,0.288,0.873,6.822,6.347,7.427c5.73,0.634,9.531-2.028,10.699-7.492c0.082-0.38,0.458-0.623,0.835-0.541
			c0.38,0.08,0.621,0.456,0.542,0.835C138.923,114.79,135.148,117.888,129.645,117.888"/>
		<path clip-path="url(#SVGID_34_)" fill="#393C3D" d="M112.351,117.888c-5.502,0-9.278-3.098-10.474-8.695
			c-0.081-0.379,0.161-0.755,0.541-0.835c0.378-0.082,0.753,0.161,0.835,0.541c1.167,5.464,4.97,8.124,10.698,7.492
			c5.479-0.604,6.315-7.148,6.348-7.428c0.045-0.385,0.395-0.663,0.78-0.615c0.386,0.044,0.662,0.393,0.618,0.778
			c-0.009,0.08-0.992,7.936-7.591,8.663C113.503,117.855,112.918,117.888,112.351,117.888"/>
		<path clip-path="url(#SVGID_34_)" fill="#393C3D" d="M129.224,102.456c0,2.766-3.524,8.333-8.226,8.333
			c-4.702,0-8.227-5.567-8.227-8.333s3.524-4.148,8.227-4.148C125.7,98.308,129.224,99.69,129.224,102.456"/>
	</g>
	<g>
		<defs>
			<path id="SVGID_37_" d="M112.771,102.456c0,2.766,3.524,8.333,8.227,8.333c4.701,0,8.226-5.567,8.226-8.333
				c0-2.765-3.524-4.148-8.226-4.148C116.296,98.308,112.771,99.691,112.771,102.456"/>
		</defs>
		<clipPath id="SVGID_38_">
			<use xlink:href="#SVGID_37_"  overflow="visible"/>
		</clipPath>
		<g opacity="0.55" clip-path="url(#SVGID_38_)">
			<g>
				<defs>
					<rect id="SVGID_39_" x="110.453" y="98.705" width="20.529" height="15.521"/>
				</defs>
				<clipPath id="SVGID_40_">
					<use xlink:href="#SVGID_39_"  overflow="visible"/>
				</clipPath>
				<path clip-path="url(#SVGID_40_)" fill="#1B1D1E" d="M112.212,100.944c0,2.648,1.956,5.066,3.892,6.677
					c2.97,2.469,6.44,2.463,9.7,0.492c2.865-1.732,4.005-4.809,4.005-8.049c0-6.159,2.639,10.558,0,11.438
					c-2.64,0.88-13.197,4.4-14.958,1.76c-1.76-2.64-4.399-7.039-4.399-7.039L112.212,100.944z"/>
			</g>
		</g>
	</g>
	<g>
		<defs>
			<rect id="SVGID_41_" x="26" y="3.66" width="200" height="278.68"/>
		</defs>
		<clipPath id="SVGID_42_">
			<use xlink:href="#SVGID_41_"  overflow="visible"/>
		</clipPath>
		<path clip-path="url(#SVGID_42_)" fill="#FFFFFF" d="M99.924,80.818c-6.456,0-11.69,5.232-11.69,11.689
			c0,6.456,5.234,11.69,11.69,11.69c6.457,0,11.69-5.234,11.69-11.69C111.614,86.051,106.38,80.818,99.924,80.818"/>
		
			<circle clip-path="url(#SVGID_42_)" fill="none" stroke="#000000" stroke-width="0.799" stroke-linecap="round" stroke-linejoin="round" cx="99.924" cy="92.508" r="11.69"/>
		<path clip-path="url(#SVGID_42_)" fill="#9B6730" d="M106.104,92.707c0,3.305-2.68,5.984-5.986,5.984
			c-3.306,0-5.985-2.68-5.985-5.984c0-3.307,2.679-5.987,5.985-5.987C103.423,86.72,106.104,89.4,106.104,92.707"/>
		<path clip-path="url(#SVGID_42_)" fill="#31323C" d="M104.5,92.707c0,2.42-1.961,4.383-4.382,4.383
			c-2.421,0-4.383-1.963-4.383-4.383c0-2.421,1.962-4.383,4.383-4.383C102.539,88.324,104.5,90.286,104.5,92.707"/>
		<path clip-path="url(#SVGID_42_)" fill="#FFFFFF" d="M104.213,88.766c0,0.882-0.715,1.599-1.598,1.599s-1.598-0.717-1.598-1.599
			c0-0.883,0.715-1.599,1.598-1.599S104.213,87.883,104.213,88.766"/>
		<path clip-path="url(#SVGID_42_)" fill="#FFFFFF" d="M141.292,80.818c-6.456,0-11.69,5.232-11.69,11.689
			c0,6.456,5.234,11.69,11.69,11.69s11.69-5.234,11.69-11.69C152.982,86.051,147.748,80.818,141.292,80.818"/>
		
			<circle clip-path="url(#SVGID_42_)" fill="none" stroke="#000000" stroke-width="0.799" stroke-linecap="round" stroke-linejoin="round" cx="141.292" cy="92.508" r="11.69"/>
		<path clip-path="url(#SVGID_42_)" fill="#9B6730" d="M147.471,92.707c0,3.305-2.68,5.984-5.986,5.984
			c-3.305,0-5.985-2.68-5.985-5.984c0-3.307,2.68-5.987,5.985-5.987C144.791,86.72,147.471,89.4,147.471,92.707"/>
		<path clip-path="url(#SVGID_42_)" fill="#31323C" d="M145.868,92.707c0,2.42-1.961,4.383-4.383,4.383
			c-2.419,0-4.381-1.963-4.381-4.383c0-2.421,1.962-4.383,4.381-4.383C143.907,88.324,145.868,90.286,145.868,92.707"/>
		<path clip-path="url(#SVGID_42_)" fill="#FFFFFF" d="M145.581,88.766c0,0.882-0.714,1.599-1.598,1.599
			c-0.882,0-1.597-0.717-1.597-1.599c0-0.883,0.715-1.599,1.597-1.599C144.866,87.167,145.581,87.883,145.581,88.766"/>
	</g>
	<rect x="26" y="3.66" fill="none" width="200" height="278.68"/>
</g>
</svg>
