<?xml version="1.0" encoding="utf-8"?>
<!-- Generator: Adobe Illustrator 16.0.0, SVG Export Plug-In . SVG Version: 6.00 Build 0)  -->
<!DOCTYPE svg PUBLIC "-//W3C//DTD SVG 1.1//EN" "http://www.w3.org/Graphics/SVG/1.1/DTD/svg11.dtd">
<svg version="1.1" xmlns="http://www.w3.org/2000/svg" xmlns:xlink="http://www.w3.org/1999/xlink" x="0px" y="0px" width="200px"
	 height="252px" viewBox="0 0 200 252" enable-background="new 0 0 200 252" xml:space="preserve">
<g id="图层_2">
	<rect x="-21" y="-17" fill="#E5EEC4" width="242" height="286"/>
</g>
<g id="图层_3">
	<ellipse opacity="0.1" cx="100" cy="217" rx="54.5" ry="8"/>
</g>
<g id="图层_5">
	<g>
		<g>
			<defs>
				<rect id="SVGID_1_" x="-24.943" y="8.667" width="247.943" height="247.943"/>
			</defs>
			<clipPath id="SVGID_2_">
				<use xlink:href="#SVGID_1_"  overflow="visible"/>
			</clipPath>
			<path clip-path="url(#SVGID_2_)" fill="#7BDF99" d="M173.092,122.675c-3.577,1.638-1.393,6.39-2.456,13.28
				c-0.4,2.587-1.257,5.475-3.05,8.614c-6.648,11.64-17.85,14.56-17.85,14.56l7.507,7.756c2.67-0.835,11.155-4.357,18.436-15.848
				c2.43-3.837,3.873-8.075,4.521-12.093c-0.005-0.004-0.009-0.007-0.012-0.009C181.899,129.001,178.156,120.356,173.092,122.675"/>
			<path clip-path="url(#SVGID_2_)" fill="#7BDF99" d="M173.092,122.675c-3.577,1.638-1.393,6.39-2.456,13.28
				c-0.4,2.587-1.257,5.475-3.05,8.614c-6.648,11.64-17.85,14.56-17.85,14.56l7.507,7.756c2.67-0.835,11.155-4.357,18.436-15.848
				c2.43-3.837,3.873-8.075,4.521-12.093c-0.005-0.004-0.009-0.007-0.012-0.009C181.899,129.001,178.156,120.356,173.092,122.675"/>
			<path clip-path="url(#SVGID_2_)" fill="#7BDF99" d="M131.123,72.492c1.991-0.406,18.712-53.854-15.633-20.874
				c-1.341,1.555-2.149,3.042-2.546,4.459c-0.778-0.355-1.571-0.691-2.379-1.003c0.549-1.15,1.306-2.332,2.357-3.551
				c38.978-37.427,23.068,18.034,19.25,24.414c-0.444-1.182-0.959-2.335-1.539-3.456C130.846,72.503,131.021,72.514,131.123,72.492"
				/>
			<path clip-path="url(#SVGID_2_)" fill="#7BDF99" d="M131.123,72.492c-0.103,0.021-0.277,0.011-0.491-0.011
				c-1.101-2.131-2.436-4.145-3.981-6.016c4.831-9.485,9.083-28.272-9.721-8.303c-1.276-0.764-2.61-1.455-3.987-2.086
				c0.397-1.417,1.205-2.904,2.546-4.459C149.835,18.639,133.114,72.086,131.123,72.492"/>
			<g opacity="0.3" clip-path="url(#SVGID_2_)">
				<g>
					<defs>
						<rect id="SVGID_3_" x="116.931" y="49.324" width="13.847" height="17.142"/>
					</defs>
					<clipPath id="SVGID_4_">
						<use xlink:href="#SVGID_3_"  overflow="visible"/>
					</clipPath>
					<path clip-path="url(#SVGID_4_)" fill="#7BDF99" d="M126.651,66.466c-2.673-3.236-5.961-6.05-9.721-8.303
						C135.734,38.193,131.482,56.98,126.651,66.466"/>
				</g>
			</g>
			<path clip-path="url(#SVGID_2_)" fill="#7BDF99" d="M69.285,72.492c-1.991-0.406-18.712-53.854,15.633-20.874
				c1.342,1.555,2.15,3.042,2.545,4.459c0.779-0.355,1.571-0.691,2.379-1.003c-0.548-1.15-1.304-2.332-2.356-3.551
				C48.51,14.097,64.418,69.558,68.237,75.938c0.444-1.182,0.959-2.335,1.539-3.456C69.563,72.503,69.388,72.514,69.285,72.492"/>
			<path clip-path="url(#SVGID_2_)" fill="#7BDF99" d="M69.285,72.492c0.103,0.021,0.277,0.011,0.491-0.011
				c1.1-2.131,2.435-4.145,3.981-6.016c-4.831-9.485-9.083-28.272,9.721-8.303c1.276-0.764,2.608-1.455,3.986-2.086
				c-0.396-1.417-1.203-2.904-2.545-4.459C50.573,18.639,67.294,72.086,69.285,72.492"/>
			<g opacity="0.3" clip-path="url(#SVGID_2_)">
				<g>
					<defs>
						<rect id="SVGID_5_" x="69.63" y="49.324" width="13.848" height="17.142"/>
					</defs>
					<clipPath id="SVGID_6_">
						<use xlink:href="#SVGID_5_"  overflow="visible"/>
					</clipPath>
					<path clip-path="url(#SVGID_6_)" fill="#7BDF99" d="M73.757,66.466c2.672-3.236,5.961-6.05,9.72-8.303
						C64.674,38.193,68.926,56.98,73.757,66.466"/>
				</g>
			</g>
			<g opacity="0.1" clip-path="url(#SVGID_2_)">
				<g>
					<defs>
						<rect id="SVGID_7_" x="60.296" y="51.346" width="80.663" height="171.923"/>
					</defs>
					<clipPath id="SVGID_8_">
						<use xlink:href="#SVGID_7_"  overflow="visible"/>
					</clipPath>
					<path clip-path="url(#SVGID_8_)" fill="#7BDF99" d="M140.409,75.307c0.013,0.184,0.042,0.371,0.083,0.561
						c0.169-0.026,0.33-0.061,0.466-0.109C140.958,75.758,140.746,75.596,140.409,75.307"/>
					<path clip-path="url(#SVGID_8_)" fill="#7BDF99" d="M65.927,75.307c0.971-0.831,2.98-2.714,3.957-4.805
						c1.274-2.733,6.483-18.189,33.285-19.111c-0.828-0.028-1.673-0.045-2.541-0.045c-29.017,0-34.51,16.34-35.824,19.156
						c-1.315,2.816-4.507,5.256-4.507,5.256c1.596,0.565,5.633-0.468,5.633-0.468C65.929,75.295,65.927,75.302,65.927,75.307"/>
					<path clip-path="url(#SVGID_8_)" fill="#7BDF99" d="M80.494,177.539c-2.863-15.604-9.155-31.687-9.935-45.337
						c0,0-0.863,0.645-2.459,1.864c0,0,1.502-5.258,1.597-8.262c0,0-0.658,1.407-3.099,2.723c0,0,1.502-7.136,1.314-11.925
						c-0.189-4.788-0.979-18.636,1.597-29.107c0.777-3.158-2.442-5.539-2.442-5.539s3.756-3.85,3.944-6.666
						c0,0-3.367,0.857-5.166,0.577c-0.59,2.736-3.858,6.089-3.858,6.089s3.219,2.381,2.442,5.539
						c-2.576,10.472-1.784,24.319-1.596,29.107c0.188,4.789-1.315,11.925-1.315,11.925c2.442-1.315,3.099-2.723,3.099-2.723
						c-0.094,3.004-1.596,8.262-1.596,8.262c1.596-1.22,2.458-1.864,2.458-1.864c0.78,13.65,7.072,29.732,9.935,45.337
						c3.557,19.395,4.788,45.351,10.13,45.716c1.391,0.096,2.437-0.309,3.258-1.273C84.938,216.503,83.607,194.508,80.494,177.539"
						/>
				</g>
			</g>
			<g opacity="0.07" clip-path="url(#SVGID_2_)">
				<g>
					<defs>
						<rect id="SVGID_9_" x="155.355" y="122.303" width="24.744" height="44.582"/>
					</defs>
					<clipPath id="SVGID_10_">
						<use xlink:href="#SVGID_9_"  overflow="visible"/>
					</clipPath>
					<path clip-path="url(#SVGID_10_)" fill="#7BDF99" d="M174.161,122.303c2.71,2.393,4.171,8.69,2.977,15.617
						c0.005,0.003,0.009,0.006,0.013,0.008c-0.648,4.019-2.091,8.256-4.521,12.091c-6.433,10.155-13.804,14.086-17.275,15.44
						l1.38,1.426c2.67-0.835,11.155-4.357,18.436-15.848c2.43-3.837,3.873-8.075,4.521-12.093c-0.004-0.004-0.009-0.007-0.014-0.009
						C181.207,130.067,178.386,122.234,174.161,122.303"/>
				</g>
			</g>
			<path clip-path="url(#SVGID_2_)" fill="#7BDF99" d="M156.441,156.011c-7.113,3.049-12.984,3.493-12.984,3.493l0.802,8.557
				c0.573-0.326,7.102,1.16,13.707-1.381C158.455,162.761,157.903,159.182,156.441,156.011"/>
			<path clip-path="url(#SVGID_2_)" fill="#7BDF99" d="M135.697,206.57c0,0,8.769-8.926,14.576-20.493
				c9.487-18.892,13.691-43.172-21.689-34.788h-28.032H72.521c-35.38-8.384-31.176,15.896-21.689,34.788
				c5.808,11.567,14.577,20.493,14.577,20.493c-4.437-1.691-13.419-0.546-14.736,4.549c-1.221,4.714,7.422,4.454,7.422,4.454h42.458
				h42.458c0,0,8.644,0.26,7.424-4.454C149.117,206.024,140.133,204.879,135.697,206.57"/>
			<path clip-path="url(#SVGID_2_)" fill="#7BDF99" d="M92.715,162.087v-10.798H72.521c-1.823-0.433-3.535-0.771-5.154-1.035
				c0.721,2.887,1.511,5.828,2.317,8.824c1.669,6.208,3.396,12.626,4.545,18.893c1.057,5.76,1.906,12.087,2.725,18.204
				c1.091,8.127,2.012,14.653,3.104,19.398h12.079c0.562-3.445,0.979-8.023,1.506-13.794c0.089-0.984,0.183-2.005,0.28-3.063
				c1.384-15.003,1.638-31.311,1.684-36.629H92.715z"/>
			<path clip-path="url(#SVGID_2_)" fill="#7BDF99" d="M128.584,151.289h-20.193v10.798h-2.894c0.046,5.318,0.3,21.626,1.685,36.629
				c0.097,1.057,0.19,2.073,0.28,3.056c0.526,5.775,0.944,10.354,1.507,13.802h12.079c1.093-4.745,2.014-11.271,3.104-19.398
				c0.82-6.117,1.669-12.444,2.725-18.204c1.15-6.267,2.877-12.685,4.547-18.893c0.805-2.996,1.596-5.938,2.316-8.824
				C132.121,150.518,130.408,150.856,128.584,151.289"/>
			<path clip-path="url(#SVGID_2_)" fill="#7BDF99" d="M94.492,160.304c0,0,0,19.999-1.69,38.308
				c-1.69,18.311-1.992,25.238-7.334,24.873c-5.342-0.367-6.572-26.323-10.13-45.716c-2.862-15.604-9.153-31.689-9.935-45.338
				c0,0-0.862,0.644-2.458,1.864c0,0,1.502-5.257,1.597-8.261c0,0-0.658,1.407-3.1,2.723c0,0,1.503-7.137,1.316-11.925
				c-0.189-4.789-0.98-18.637,1.595-29.107c0.777-3.16-2.44-5.539-2.44-5.539s3.755-3.85,3.943-6.668c0,0-4.039,1.035-5.634,0.472
				c0,0,3.192-2.442,4.506-5.26c1.315-2.816,6.808-19.154,35.825-19.154s34.511,16.338,35.825,19.154
				c1.314,2.817,4.508,5.26,4.508,5.26c-1.597,0.563-5.634-0.472-5.634-0.472c0.188,2.818,3.942,6.668,3.942,6.668
				s-3.217,2.379-2.441,5.539c2.576,10.471,1.784,24.318,1.596,29.107c-0.188,4.788,1.314,11.925,1.314,11.925
				c-2.44-1.315-3.098-2.723-3.098-2.723c0.094,3.004,1.596,8.261,1.596,8.261c-1.596-1.221-2.459-1.864-2.459-1.864
				c-0.779,13.648-7.072,29.733-9.934,45.338c-3.558,19.393-4.789,45.349-10.131,45.716c-5.341,0.365-5.644-6.563-7.333-24.873
				c-1.69-18.309-1.69-38.308-1.69-38.308"/>
		</g>
		<g>
			<defs>
				<path id="SVGID_11_" d="M64.728,70.73c-1.314,2.816-4.506,5.259-4.506,5.259c1.595,0.563,5.634-0.472,5.634-0.472
					c-0.188,2.818-3.944,6.666-3.944,6.666s3.218,2.381,2.441,5.541c-2.575,10.471-1.784,24.318-1.596,29.107
					c0.188,4.788-1.315,11.925-1.315,11.925c2.442-1.314,3.1-2.723,3.1-2.723c-0.094,3.004-1.597,8.261-1.597,8.261
					c1.597-1.22,2.458-1.864,2.458-1.864c0.782,13.648,7.073,29.733,9.935,45.338c3.559,19.393,4.789,45.349,10.13,45.716
					c5.342,0.365,5.644-6.563,7.334-24.873c1.69-18.309,1.69-38.308,1.69-38.308h12.121c0,0,0,19.999,1.69,38.308
					c1.69,18.311,1.992,25.238,7.334,24.873c5.342-0.367,6.572-26.323,10.129-45.716c2.862-15.604,9.155-31.689,9.935-45.338
					c0,0,0.863,0.645,2.46,1.864c0,0-1.502-5.257-1.597-8.261c0,0,0.657,1.408,3.099,2.723c0,0-1.502-7.137-1.314-11.925
					c0.188-4.789,0.979-18.637-1.596-29.107c-0.776-3.16,2.441-5.541,2.441-5.541s-3.755-3.848-3.943-6.666
					c0,0,4.038,1.035,5.634,0.472c0,0-3.192-2.442-4.507-5.259c-1.314-2.817-6.807-19.154-35.825-19.154
					C71.536,51.576,66.043,67.913,64.728,70.73"/>
			</defs>
			<clipPath id="SVGID_12_">
				<use xlink:href="#SVGID_11_"  overflow="visible"/>
			</clipPath>
			<path clip-path="url(#SVGID_12_)" fill="#7BDF99" d="M91.407,44.233c-1.016,1.016-5.081,11.178,1.524,13.209
				c6.605,2.032,7.114-2.031,10.669-0.508c3.557,1.524,5.082,1.524,7.114-2.032c2.032-3.557,2.032-12.701-1.016-14.226
				C106.65,39.151,91.407,44.233,91.407,44.233"/>
			<g opacity="0.07" clip-path="url(#SVGID_12_)">
				<g>
					<defs>
						<rect id="SVGID_13_" x="97.325" y="51.575" width="43.126" height="171.923"/>
					</defs>
					<clipPath id="SVGID_14_">
						<use xlink:href="#SVGID_13_"  overflow="visible"/>
					</clipPath>
					<path clip-path="url(#SVGID_14_)" fill="#7BDF99" d="M140.451,75.989c0,0-3.192-2.442-4.507-5.26
						c-1.314-2.816-6.806-19.154-35.825-19.154c-0.958,0-1.888,0.019-2.794,0.055c26.579,1.009,31.759,16.377,33.03,19.1
						c1.314,2.817,4.507,5.26,4.507,5.26c-1.597,0.562-5.634-0.472-5.634-0.472c0.188,2.818,3.943,6.666,3.943,6.666
						s-3.218,2.381-2.441,5.541c2.575,10.471,1.783,24.318,1.597,29.107c-0.188,4.788,1.315,11.925,1.315,11.925
						c-2.442-1.315-3.098-2.723-3.098-2.723c0.093,3.004,1.595,8.261,1.595,8.261c-1.595-1.221-2.459-1.864-2.459-1.864
						c-0.779,13.648-7.072,29.733-9.935,45.337c-3.05,16.625-4.39,38.068-8.075,44.086c0.859,1.223,1.984,1.736,3.533,1.631
						c5.344-0.367,6.573-26.323,10.131-45.717c2.862-15.604,9.155-31.688,9.934-45.337c0,0,0.864,0.644,2.459,1.864
						c0,0-1.501-5.257-1.595-8.261c0,0,0.657,1.407,3.098,2.723c0,0-1.502-7.137-1.313-11.925
						c0.187-4.789,0.978-18.637-1.596-29.107c-0.778-3.16,2.441-5.541,2.441-5.541s-3.756-3.848-3.944-6.666
						C134.817,75.518,138.854,76.551,140.451,75.989"/>
				</g>
			</g>
		</g>
		<g>
			<defs>
				<rect id="SVGID_15_" x="-24.943" y="8.667" width="247.943" height="247.943"/>
			</defs>
			<clipPath id="SVGID_16_">
				<use xlink:href="#SVGID_15_"  overflow="visible"/>
			</clipPath>
			<g opacity="0.05" clip-path="url(#SVGID_16_)">
				<g>
					<defs>
						<rect id="SVGID_17_" x="60.804" y="51.346" width="80.664" height="171.923"/>
					</defs>
					<clipPath id="SVGID_18_">
						<use xlink:href="#SVGID_17_"  overflow="visible"/>
					</clipPath>
					<path clip-path="url(#SVGID_18_)" fill="#7BDF99" d="M140.917,75.307c0.013,0.184,0.042,0.371,0.083,0.561
						c0.168-0.026,0.33-0.061,0.467-0.109C141.468,75.758,141.254,75.596,140.917,75.307"/>
					<path clip-path="url(#SVGID_18_)" fill="#7BDF99" d="M66.436,75.307c0.97-0.831,2.98-2.714,3.956-4.805
						c1.275-2.733,6.483-18.189,33.285-19.111c-0.827-0.028-1.672-0.045-2.541-0.045c-29.018,0-34.511,16.34-35.825,19.156
						s-4.507,5.256-4.507,5.256c1.596,0.565,5.633-0.468,5.633-0.468C66.438,75.295,66.436,75.302,66.436,75.307"/>
					<path clip-path="url(#SVGID_18_)" fill="#7BDF99" d="M81.001,177.539c-2.862-15.604-9.154-31.687-9.934-45.337
						c0,0-0.863,0.645-2.459,1.864c0,0,1.501-5.258,1.596-8.262c0,0-0.658,1.407-3.099,2.723c0,0,1.503-7.136,1.315-11.925
						c-0.188-4.788-0.979-18.636,1.596-29.107c0.778-3.158-2.441-5.539-2.441-5.539s3.756-3.85,3.943-6.666
						c0,0-3.366,0.857-5.167,0.577c-0.589,2.736-3.857,6.089-3.857,6.089s3.218,2.381,2.441,5.539
						c-2.575,10.472-1.784,24.319-1.596,29.107c0.188,4.789-1.315,11.925-1.315,11.925c2.442-1.315,3.099-2.723,3.099-2.723
						c-0.094,3.004-1.596,8.262-1.596,8.262c1.596-1.22,2.46-1.864,2.46-1.864c0.78,13.65,7.071,29.732,9.934,45.337
						c3.558,19.395,4.788,45.351,10.13,45.716c1.39,0.096,2.437-0.309,3.258-1.273C85.446,216.503,84.115,194.508,81.001,177.539"/>
				</g>
			</g>
			<path clip-path="url(#SVGID_16_)" fill="#7BDF99" d="M78.313,153.88c-0.319-2.62,8.836-3.315,8.501-7.193
				c-0.313-3.642-1.89-8.481-20.125-4.082c1.865,9.641,5.241,20.05,7.564,30.396c0.121-1.163,0.401-2.054,0.905-2.504
				c2.903-2.591,13.716-5.729,13.2-11.122C87.841,153.979,78.632,156.499,78.313,153.88"/>
			<path clip-path="url(#SVGID_16_)" fill="#7BDF99" d="M122.988,153.88c0.319-2.62-8.836-3.315-8.501-7.193
				c0.313-3.642,1.889-8.481,20.125-4.082c-1.865,9.641-5.241,20.051-7.564,30.396c-0.122-1.163-0.402-2.054-0.906-2.504
				c-2.902-2.591-13.715-5.729-13.2-11.122C113.459,153.979,122.668,156.499,122.988,153.88"/>
			<path clip-path="url(#SVGID_16_)" fill="#7BDF99" d="M76.347,118.242c0,0,0.101,0.119,0.265,0.333
				c0.079,0.107,0.183,0.235,0.287,0.385c0.108,0.148,0.236,0.313,0.362,0.5c0.262,0.365,0.551,0.797,0.858,1.254
				c0.305,0.459,0.629,0.945,0.953,1.432c0.153,0.248,0.331,0.477,0.483,0.72c0.161,0.234,0.326,0.461,0.477,0.688
				c0.16,0.218,0.314,0.429,0.457,0.635c0.154,0.195,0.297,0.382,0.428,0.562c0.14,0.17,0.267,0.326,0.38,0.465
				c0.111,0.146,0.222,0.257,0.311,0.355c0.178,0.197,0.277,0.322,0.277,0.322s-0.148-0.041-0.404-0.137
				c-0.126-0.051-0.292-0.103-0.452-0.202c-0.165-0.092-0.357-0.195-0.554-0.325c-0.189-0.137-0.393-0.29-0.604-0.457
				c-0.196-0.183-0.404-0.373-0.609-0.582c-0.193-0.215-0.4-0.436-0.585-0.678c-0.183-0.24-0.375-0.485-0.541-0.741
				c-0.165-0.261-0.334-0.518-0.477-0.781c-0.15-0.265-0.285-0.527-0.405-0.787c-0.247-0.518-0.435-1.019-0.574-1.456
				c-0.135-0.44-0.225-0.813-0.272-1.081C76.358,118.4,76.347,118.242,76.347,118.242"/>
			<path clip-path="url(#SVGID_16_)" fill="#7BDF99" d="M83.123,121.739c0,0,0.066,0.121,0.17,0.329
				c0.049,0.104,0.118,0.229,0.183,0.373c0.067,0.143,0.152,0.304,0.228,0.479c0.16,0.345,0.344,0.747,0.543,1.18
				c0.048,0.105,0.096,0.213,0.146,0.324c0.053,0.107,0.105,0.216,0.155,0.328c0.099,0.224,0.213,0.44,0.318,0.661
				c0.105,0.223,0.228,0.433,0.33,0.652c0.125,0.2,0.228,0.416,0.344,0.61c0.124,0.188,0.226,0.39,0.345,0.56
				c0.122,0.169,0.225,0.343,0.335,0.495c0.115,0.141,0.217,0.282,0.31,0.408c0.093,0.127,0.191,0.218,0.264,0.309
				c0.151,0.173,0.236,0.287,0.236,0.287s-0.13-0.027-0.359-0.101c-0.11-0.043-0.262-0.071-0.405-0.154
				c-0.147-0.078-0.315-0.167-0.494-0.275c-0.171-0.116-0.341-0.262-0.526-0.413c-0.181-0.156-0.341-0.345-0.518-0.536
				c-0.167-0.196-0.317-0.414-0.471-0.636c-0.138-0.23-0.277-0.467-0.398-0.706c-0.109-0.249-0.234-0.491-0.315-0.743
				c-0.094-0.247-0.173-0.497-0.233-0.74c-0.132-0.484-0.198-0.948-0.233-1.347c-0.026-0.401-0.023-0.737-0.001-0.974
				C83.092,121.875,83.123,121.739,83.123,121.739"/>
			<path clip-path="url(#SVGID_16_)" fill="#7BDF99" d="M88.66,123.197c0,0,0.068,0.1,0.171,0.272
				c0.105,0.173,0.243,0.422,0.397,0.717c0.15,0.298,0.317,0.643,0.48,1.014c0.087,0.184,0.164,0.377,0.249,0.568
				c0.086,0.191,0.161,0.391,0.249,0.583c0.079,0.197,0.163,0.389,0.244,0.578c0.078,0.192,0.162,0.376,0.239,0.555
				c0.074,0.185,0.161,0.347,0.233,0.514c0.067,0.17,0.158,0.306,0.224,0.454c0.064,0.149,0.147,0.26,0.209,0.381
				c0.034,0.059,0.064,0.112,0.093,0.164c0.034,0.045,0.064,0.088,0.092,0.127c0.113,0.158,0.18,0.267,0.18,0.267
				s-0.113-0.02-0.314-0.086c-0.051-0.02-0.107-0.038-0.168-0.06c-0.058-0.025-0.113-0.062-0.177-0.099
				c-0.123-0.075-0.284-0.151-0.412-0.272c-0.133-0.116-0.296-0.239-0.424-0.396c-0.133-0.152-0.283-0.314-0.401-0.497
				c-0.125-0.181-0.253-0.369-0.354-0.572c-0.115-0.2-0.209-0.412-0.299-0.623c-0.091-0.212-0.167-0.426-0.235-0.64
				c-0.073-0.214-0.123-0.429-0.172-0.636c-0.093-0.419-0.145-0.813-0.162-1.157c-0.018-0.342-0.007-0.632,0.013-0.835
				C88.633,123.313,88.66,123.197,88.66,123.197"/>
			<path clip-path="url(#SVGID_16_)" fill="#7BDF99" d="M109.208,125.236c0,0,0.019,0.082,0.026,0.222
				c0.01,0.137,0.011,0.329-0.018,0.549c-0.027,0.223-0.084,0.474-0.173,0.729c-0.09,0.258-0.215,0.52-0.367,0.769
				c-0.084,0.122-0.161,0.244-0.256,0.357c-0.094,0.116-0.185,0.224-0.294,0.321c-0.106,0.098-0.208,0.188-0.325,0.265
				c-0.11,0.075-0.22,0.142-0.337,0.191c-0.111,0.05-0.215,0.089-0.32,0.106c-0.102,0.019-0.183,0.035-0.263,0.026
				c-0.151-0.012-0.224-0.037-0.224-0.037s0.058-0.074,0.134-0.168c0.04-0.04,0.075-0.121,0.118-0.188
				c0.043-0.063,0.084-0.147,0.129-0.235c0.047-0.08,0.092-0.177,0.143-0.276c0.051-0.095,0.105-0.197,0.161-0.304
				c0.061-0.1,0.113-0.219,0.181-0.323c0.063-0.108,0.131-0.223,0.199-0.33c0.277-0.444,0.604-0.876,0.909-1.183
				c0.151-0.152,0.292-0.276,0.4-0.36C109.135,125.283,109.208,125.236,109.208,125.236"/>
			<path clip-path="url(#SVGID_16_)" fill="#7BDF99" d="M114.016,122.614c0,0,0.013,0.114,0.006,0.308
				c-0.004,0.195-0.029,0.468-0.089,0.789c-0.063,0.317-0.161,0.685-0.307,1.063c-0.07,0.188-0.153,0.38-0.248,0.57
				c-0.087,0.193-0.201,0.379-0.309,0.566c-0.113,0.185-0.239,0.364-0.365,0.537c-0.13,0.171-0.271,0.332-0.409,0.483
				c-0.147,0.148-0.292,0.286-0.436,0.409c-0.152,0.118-0.299,0.226-0.435,0.319c-0.148,0.084-0.284,0.157-0.406,0.216
				c-0.116,0.064-0.242,0.095-0.333,0.127c-0.188,0.058-0.297,0.076-0.297,0.076s0.058-0.103,0.165-0.257
				c0.052-0.081,0.121-0.166,0.185-0.277c0.067-0.11,0.144-0.229,0.229-0.35c0.078-0.135,0.163-0.274,0.258-0.415
				c0.089-0.147,0.178-0.305,0.281-0.458c0.093-0.162,0.191-0.326,0.296-0.489c0.095-0.173,0.208-0.335,0.307-0.51
				c0.105-0.169,0.211-0.338,0.314-0.506c0.104-0.168,0.211-0.332,0.314-0.492c0.209-0.318,0.41-0.618,0.599-0.87
				C113.705,122.946,114.016,122.614,114.016,122.614"/>
			<path clip-path="url(#SVGID_16_)" fill="#7BDF99" d="M116.712,122.614c0,0,0.035,0.092,0.068,0.251
				c0.037,0.16,0.073,0.388,0.085,0.655c0.029,0.54-0.056,1.246-0.293,1.92c-0.12,0.337-0.272,0.666-0.459,0.955
				c-0.085,0.147-0.194,0.281-0.293,0.403c-0.096,0.126-0.217,0.231-0.32,0.328c-0.1,0.095-0.219,0.169-0.315,0.232
				c-0.05,0.029-0.095,0.058-0.141,0.082c-0.047,0.018-0.092,0.036-0.132,0.053c-0.16,0.06-0.251,0.075-0.251,0.075
				s0.035-0.098,0.098-0.239c0.035-0.065,0.063-0.154,0.096-0.255c0.033-0.099,0.078-0.197,0.11-0.32
				c0.034-0.119,0.082-0.235,0.118-0.374c0.041-0.131,0.085-0.27,0.13-0.415c0.046-0.143,0.094-0.289,0.143-0.441
				c0.051-0.149,0.104-0.303,0.155-0.456c0.06-0.15,0.108-0.308,0.169-0.456c0.058-0.151,0.115-0.302,0.18-0.444
				c0.119-0.29,0.249-0.557,0.371-0.788c0.123-0.23,0.241-0.42,0.332-0.556C116.651,122.691,116.712,122.614,116.712,122.614"/>
			<path clip-path="url(#SVGID_16_)" fill="#7BDF99" d="M125.018,115.109c0,0,0.015,0.153,0.009,0.414
				c-0.003,0.264-0.031,0.634-0.094,1.076c-0.034,0.219-0.076,0.458-0.131,0.705c-0.059,0.248-0.116,0.51-0.201,0.775
				c-0.078,0.267-0.167,0.54-0.273,0.812c-0.099,0.274-0.222,0.545-0.346,0.818c-0.122,0.271-0.27,0.531-0.412,0.789
				c-0.145,0.257-0.314,0.497-0.47,0.731c-0.167,0.229-0.344,0.44-0.508,0.64c-0.18,0.19-0.358,0.364-0.521,0.519
				c-0.172,0.152-0.347,0.272-0.494,0.383c-0.142,0.114-0.297,0.184-0.413,0.246c-0.235,0.124-0.374,0.18-0.374,0.18
				s0.081-0.135,0.225-0.345c0.073-0.107,0.164-0.227,0.251-0.382c0.089-0.147,0.19-0.314,0.301-0.497
				c0.1-0.189,0.212-0.386,0.331-0.593c0.108-0.219,0.228-0.439,0.349-0.67c0.111-0.239,0.237-0.478,0.357-0.725
				c0.112-0.254,0.248-0.495,0.359-0.757c0.24-0.512,0.479-1.021,0.706-1.503c0.229-0.482,0.445-0.935,0.643-1.321
				c0.094-0.195,0.194-0.372,0.274-0.531c0.08-0.159,0.161-0.293,0.222-0.407C124.938,115.239,125.018,115.109,125.018,115.109"/>
			<path clip-path="url(#SVGID_16_)" fill="#7BDF99" d="M134.998,111.467c-0.131,0.563-0.288,1.127-0.472,1.68
				c-0.182,0.553-0.381,1.102-0.605,1.639c-0.224,0.54-0.458,1.076-0.721,1.601c-0.263,0.524-0.544,1.038-0.845,1.545
				c-0.155,0.251-0.305,0.504-0.472,0.747c-0.16,0.249-0.336,0.486-0.509,0.727c-0.178,0.237-0.355,0.475-0.546,0.703
				c-0.184,0.232-0.386,0.451-0.583,0.675c-0.206,0.217-0.407,0.438-0.629,0.64c-0.213,0.212-0.446,0.402-0.672,0.601
				c-0.238,0.186-0.471,0.377-0.722,0.548c-0.243,0.18-0.505,0.334-0.762,0.497l-0.427-0.945c0.232-0.082,0.445-0.148,0.67-0.211
				c0.223-0.064,0.45-0.12,0.679-0.168c0.463-0.091,0.931-0.169,1.466-0.14c0.267,0.024,0.566,0.056,0.903,0.266
				c0.165,0.104,0.328,0.284,0.415,0.488c0.021,0.053,0.041,0.105,0.053,0.155l0.01,0.039l0.01,0.054l0.007,0.041
				c0.005,0.033,0.012,0.112,0.015,0.166c-0.001,0.044-0.002,0.093-0.006,0.138c-0.034,0.351-0.149,0.6-0.262,0.833
				c-0.115,0.231-0.243,0.438-0.375,0.636c-0.268,0.392-0.558,0.747-0.851,1.095c-0.294,0.348-0.596,0.684-0.901,1.014
				c-0.612,0.658-1.233,1.3-1.875,1.922l-0.628-0.829c0.275-0.146,0.542-0.28,0.816-0.412c0.272-0.133,0.548-0.261,0.828-0.384
				c0.561-0.241,1.124-0.478,1.752-0.633c0.158-0.038,0.32-0.071,0.497-0.091c0.178-0.018,0.363-0.034,0.611,0.025
				c0.121,0.032,0.276,0.099,0.404,0.238c0.13,0.142,0.182,0.327,0.188,0.465c0.008,0.279-0.069,0.453-0.135,0.618
				c-0.152,0.334-0.309,0.562-0.461,0.825c-0.158,0.264-0.324,0.514-0.487,0.765c-0.163,0.248-0.326,0.495-0.479,0.743
				c-0.15,0.249-0.291,0.483-0.382,0.731c-0.042,0.12-0.071,0.241-0.068,0.329c0.003,0.089,0.018,0.129,0.078,0.178
				c0.065,0.053,0.181,0.09,0.309,0.109c0.154,0.026,0.279,0.041,0.42,0.048c0.561,0.032,1.134-0.07,1.661-0.31
				c0.525-0.239,1.015-0.59,1.407-1.038c-0.157,0.254-0.355,0.483-0.572,0.693c-0.218,0.211-0.459,0.399-0.725,0.556
				c-0.526,0.317-1.143,0.509-1.773,0.53c-0.157,0.006-0.328,0.002-0.47-0.008c-0.165-0.014-0.35-0.037-0.539-0.148
				c-0.093-0.057-0.181-0.14-0.246-0.243c-0.059-0.103-0.094-0.214-0.104-0.32c-0.025-0.21,0.016-0.386,0.058-0.551
				c0.091-0.32,0.237-0.61,0.375-0.881c0.142-0.27,0.289-0.532,0.432-0.792l0.423-0.774c0.134-0.257,0.294-0.537,0.374-0.752
				c0.042-0.107,0.063-0.228,0.053-0.246c-0.004-0.01-0.001,0.027,0.026,0.058c0.026,0.032,0.041,0.031,0.019,0.027
				c-0.044-0.007-0.16-0.005-0.277,0.017c-0.117,0.02-0.247,0.054-0.376,0.092c-0.519,0.164-1.057,0.393-1.58,0.644
				c-0.521,0.249-1.046,0.526-1.545,0.812l-3.076,1.751l2.447-2.582c0.608-0.642,1.224-1.272,1.812-1.924
				c0.584-0.648,1.163-1.315,1.632-1.998c0.117-0.17,0.224-0.341,0.309-0.506c0.085-0.164,0.146-0.331,0.153-0.425l0.002-0.029
				c-0.002-0.001,0.003,0.021,0.001,0l-0.007-0.041l-0.001-0.01l-0.001-0.005c-0.001-0.006,0.011,0.053,0.006,0.028h0v-0.002
				c0-0.004-0.002-0.004,0-0.004c-0.002,0.003,0.01,0.008-0.011-0.009c-0.039-0.031-0.194-0.079-0.367-0.09
				c-0.353-0.025-0.771,0.03-1.179,0.107c-0.205,0.043-0.411,0.086-0.617,0.137c-0.205,0.052-0.417,0.11-0.607,0.168l-4.212,1.315
				l3.786-2.262c0.235-0.142,0.479-0.271,0.706-0.431c0.233-0.146,0.453-0.315,0.677-0.479c0.216-0.176,0.436-0.344,0.642-0.535
				c0.21-0.183,0.414-0.375,0.617-0.569c0.196-0.201,0.397-0.396,0.584-0.608c0.192-0.207,0.374-0.423,0.557-0.641
				c0.177-0.22,0.357-0.438,0.525-0.668c0.173-0.224,0.34-0.455,0.506-0.686c0.327-0.469,0.638-0.947,0.934-1.438
				c0.145-0.247,0.292-0.492,0.435-0.743c0.141-0.248,0.28-0.501,0.415-0.755c0.266-0.509,0.526-1.024,0.769-1.547
				C134.549,112.536,134.792,112.009,134.998,111.467"/>
			<path clip-path="url(#SVGID_16_)" fill="#7BDF99" d="M64.939,111.467c0.133,0.563,0.289,1.127,0.472,1.68
				s0.382,1.102,0.605,1.639c0.224,0.54,0.457,1.076,0.721,1.601c0.263,0.524,0.545,1.038,0.845,1.545
				c0.154,0.251,0.305,0.504,0.471,0.747c0.161,0.249,0.337,0.486,0.51,0.727c0.178,0.237,0.356,0.475,0.547,0.703
				c0.185,0.232,0.386,0.451,0.583,0.675c0.206,0.217,0.407,0.438,0.629,0.64c0.213,0.212,0.446,0.402,0.672,0.601
				c0.238,0.186,0.471,0.377,0.723,0.548c0.242,0.18,0.505,0.334,0.761,0.497l0.426-0.945c-0.231-0.082-0.445-0.148-0.67-0.211
				c-0.223-0.064-0.448-0.12-0.678-0.168c-0.463-0.091-0.931-0.169-1.467-0.14c-0.267,0.024-0.565,0.056-0.901,0.266
				c-0.166,0.104-0.33,0.284-0.416,0.488c-0.021,0.053-0.042,0.105-0.053,0.155l-0.01,0.039l-0.012,0.054l-0.006,0.041
				c-0.004,0.033-0.013,0.112-0.015,0.166c0.001,0.044,0.001,0.093,0.005,0.138c0.035,0.351,0.15,0.6,0.261,0.833
				c0.115,0.231,0.244,0.438,0.376,0.636c0.268,0.392,0.558,0.747,0.851,1.095c0.294,0.348,0.596,0.684,0.902,1.014
				c0.611,0.658,1.232,1.3,1.873,1.922l0.63-0.829c-0.275-0.146-0.542-0.28-0.817-0.412c-0.273-0.133-0.548-0.261-0.827-0.384
				c-0.562-0.241-1.124-0.478-1.752-0.633c-0.158-0.038-0.32-0.071-0.498-0.091c-0.176-0.018-0.362-0.034-0.61,0.025
				c-0.121,0.032-0.276,0.099-0.404,0.238c-0.129,0.142-0.182,0.327-0.188,0.465c-0.009,0.279,0.07,0.453,0.136,0.618
				c0.152,0.334,0.308,0.562,0.461,0.825c0.158,0.264,0.324,0.514,0.486,0.765c0.162,0.248,0.326,0.495,0.479,0.743
				c0.15,0.249,0.291,0.483,0.382,0.731c0.042,0.12,0.071,0.241,0.067,0.329c-0.003,0.089-0.018,0.129-0.078,0.178
				c-0.064,0.053-0.18,0.09-0.308,0.109c-0.154,0.026-0.279,0.041-0.421,0.048c-0.561,0.032-1.132-0.07-1.66-0.31
				c-0.524-0.239-1.015-0.59-1.408-1.038c0.157,0.254,0.356,0.483,0.573,0.693c0.217,0.211,0.459,0.399,0.724,0.556
				c0.526,0.317,1.143,0.509,1.773,0.53c0.156,0.006,0.328,0.002,0.469-0.008c0.166-0.014,0.352-0.037,0.54-0.148
				c0.093-0.057,0.182-0.14,0.245-0.243c0.059-0.103,0.095-0.214,0.106-0.32c0.023-0.21-0.016-0.386-0.059-0.551
				c-0.09-0.32-0.238-0.61-0.375-0.881c-0.142-0.27-0.289-0.532-0.433-0.792l-0.423-0.774c-0.134-0.257-0.294-0.537-0.375-0.752
				c-0.042-0.107-0.063-0.228-0.052-0.246c0.003-0.01,0,0.027-0.027,0.058c-0.026,0.032-0.041,0.031-0.018,0.027
				c0.043-0.007,0.16-0.005,0.276,0.017c0.119,0.02,0.248,0.054,0.377,0.092c0.52,0.164,1.056,0.393,1.579,0.644
				c0.523,0.249,1.047,0.526,1.545,0.812l3.076,1.751l-2.447-2.582c-0.607-0.642-1.225-1.272-1.811-1.924
				c-0.585-0.648-1.162-1.315-1.633-1.998c-0.117-0.17-0.224-0.341-0.309-0.506c-0.085-0.164-0.145-0.331-0.152-0.425l-0.001-0.029
				c0.002-0.001-0.004,0.021-0.003,0l0.008-0.041l0.001-0.01l0.001-0.005c0.002-0.006-0.011,0.053-0.004,0.028v-0.002
				c0-0.004,0.001-0.004,0-0.004c0.001,0.003-0.011,0.008,0.011-0.009c0.039-0.031,0.194-0.079,0.367-0.09
				c0.353-0.025,0.771,0.03,1.179,0.107c0.204,0.043,0.412,0.086,0.617,0.137c0.204,0.052,0.417,0.11,0.606,0.168l4.212,1.315
				l-3.785-2.262c-0.236-0.142-0.479-0.271-0.707-0.431c-0.234-0.146-0.453-0.315-0.676-0.479c-0.216-0.176-0.438-0.344-0.642-0.535
				c-0.21-0.183-0.414-0.375-0.617-0.569c-0.197-0.201-0.398-0.396-0.585-0.608c-0.192-0.207-0.374-0.423-0.557-0.641
				c-0.176-0.22-0.357-0.438-0.524-0.668c-0.175-0.224-0.34-0.455-0.507-0.686c-0.327-0.469-0.638-0.947-0.933-1.438
				c-0.146-0.247-0.294-0.492-0.436-0.743c-0.141-0.248-0.28-0.501-0.414-0.755c-0.267-0.509-0.527-1.024-0.771-1.547
				C65.388,112.536,65.145,112.009,64.939,111.467"/>
			<g clip-path="url(#SVGID_16_)">
				<g>
					<defs>
						<rect id="SVGID_19_" x="92.423" y="146.356" width="17.667" height="73.672"/>
					</defs>
					<clipPath id="SVGID_20_">
						<use xlink:href="#SVGID_19_"  overflow="visible"/>
					</clipPath>
					<path clip-path="url(#SVGID_20_)" fill="#7BDF99" d="M95.472,159.764c-1.524-2.146-5.589-13.407,5.081-13.407
						c8.638,0,7.622,9.118,5.082,13.407c-6.217,10.498,0,0,0,0s0.507,42.898,3.556,56.306c2.026,8.909,0,0,0,0H92.423
						C92.423,216.069,96.488,176.923,95.472,159.764"/>
				</g>
			</g>
			<g opacity="0.07" clip-path="url(#SVGID_16_)">
				<g>
					<defs>
						<rect id="SVGID_21_" x="124.52" y="149.986" width="32.409" height="65.83"/>
					</defs>
					<clipPath id="SVGID_22_">
						<use xlink:href="#SVGID_21_"  overflow="visible"/>
					</clipPath>
					<path clip-path="url(#SVGID_22_)" fill="#7BDF99" d="M124.521,153.215c35.378-8.385,31.175,15.896,21.688,34.788
						c-5.807,11.568-14.578,20.493-14.578,20.493c4.437-1.69,13.419-0.544,14.739,4.551c0.319,1.231-0.041,2.123-0.741,2.77
						c2.433-0.332,5.572-1.327,4.805-4.296c-1.318-5.092-10.301-6.239-14.737-4.55c0,0,8.77-8.925,14.577-20.491
						c9.486-18.893,13.69-43.174-21.689-34.788"/>
				</g>
			</g>
			<g opacity="0.05" clip-path="url(#SVGID_16_)">
				<g>
					<defs>
						<rect id="SVGID_23_" x="44.178" y="149.584" width="32.917" height="65.839"/>
					</defs>
					<clipPath id="SVGID_24_">
						<use xlink:href="#SVGID_23_"  overflow="visible"/>
					</clipPath>
					<path clip-path="url(#SVGID_24_)" fill="#7BDF99" d="M72.521,151.289c-35.379-8.384-31.176,15.896-21.689,34.788
						c5.808,11.567,14.577,20.493,14.577,20.493c-4.436-1.691-13.419-0.546-14.736,4.549c-0.777,3,2.438,3.983,4.88,4.304
						c-0.397-0.587-0.552-1.328-0.308-2.271c1.318-5.094,10.301-6.239,14.737-4.551c0,0-8.769-8.924-14.577-20.492
						c-9.486-18.893-13.689-43.174,21.689-34.788"/>
				</g>
			</g>
			<path clip-path="url(#SVGID_16_)" fill="#7BDF99" d="M100.561,116.528c-6.517,0-7.556-9.361-7.486-15.908
				c3.04-0.168,5.399-2.723,7.486-6.228c1.855,3.036,3.912,5.779,7.488,6.319C108.109,107.255,107.049,116.528,100.561,116.528"/>
			<path clip-path="url(#SVGID_16_)" fill="#7BDF99" d="M109.203,101.076c-0.567,0-1.152-0.032-1.754-0.098
				c-6.595-0.727-7.577-8.579-7.586-8.658c-0.044-0.385,0.232-0.735,0.617-0.778c0.388-0.044,0.735,0.232,0.78,0.617
				c0.035,0.292,0.874,6.818,6.343,7.42c5.731,0.634,9.526-2.026,10.692-7.486c0.08-0.38,0.458-0.621,0.834-0.54
				c0.38,0.082,0.622,0.454,0.541,0.834C118.475,97.981,114.702,101.076,109.203,101.076"/>
			<path clip-path="url(#SVGID_16_)" fill="#7BDF99" d="M91.92,101.076c-5.5,0-9.271-3.095-10.467-8.689
				c-0.082-0.38,0.161-0.752,0.54-0.834c0.376-0.081,0.754,0.16,0.834,0.54c1.167,5.46,4.961,8.117,10.692,7.486
				c5.475-0.602,6.311-7.144,6.343-7.421c0.045-0.384,0.395-0.661,0.78-0.616c0.385,0.046,0.661,0.394,0.617,0.778
				c-0.008,0.079-0.992,7.932-7.586,8.658C93.072,101.044,92.487,101.076,91.92,101.076"/>
			<path clip-path="url(#SVGID_16_)" fill="#7BDF99" d="M108.783,85.654c0,2.766-3.522,8.329-8.222,8.329
				c-4.698,0-8.221-5.563-8.221-8.329c0-2.763,3.523-4.146,8.221-4.146C105.26,81.509,108.783,82.892,108.783,85.654"/>
			<path clip-path="url(#SVGID_16_)" fill="#7BDF99" d="M83.09,61.508c-6.461,0-11.7,5.239-11.7,11.7
				c0,6.464,5.239,11.702,11.7,11.702c6.463,0,11.702-5.238,11.702-11.702C94.792,66.747,89.553,61.508,83.09,61.508"/>
			<path clip-path="url(#SVGID_16_)" fill="#7BDF99" d="M89.275,73.407c0,3.31-2.682,5.992-5.991,5.992
				c-3.309,0-5.99-2.683-5.99-5.992c0-3.308,2.682-5.99,5.99-5.99C86.593,67.417,89.275,70.1,89.275,73.407"/>
			<path clip-path="url(#SVGID_16_)" fill="#7BDF99" d="M87.67,73.407c0,2.424-1.963,4.387-4.387,4.387
				c-2.422,0-4.386-1.963-4.386-4.387c0-2.423,1.963-4.387,4.386-4.387C85.708,69.021,87.67,70.984,87.67,73.407"/>
			<path clip-path="url(#SVGID_16_)" fill="#7BDF99" d="M87.383,69.463c0,0.884-0.716,1.601-1.599,1.601
				c-0.883,0-1.599-0.717-1.599-1.601c0-0.883,0.716-1.599,1.599-1.599C86.667,67.864,87.383,68.58,87.383,69.463"/>
			<path clip-path="url(#SVGID_16_)" fill="#7BDF99" d="M120.252,61.585c-6.42-0.743-12.226,3.858-12.968,10.278
				s3.859,12.226,10.278,12.969c6.42,0.742,12.226-3.858,12.968-10.279C131.273,68.134,126.671,62.327,120.252,61.585"/>
			<path clip-path="url(#SVGID_16_)" fill="#7BDF99" d="M125.028,74.117c-0.38,3.287-3.353,5.643-6.639,5.262
				c-3.288-0.381-5.644-3.35-5.264-6.64c0.381-3.285,3.354-5.641,6.641-5.26C123.053,67.857,125.408,70.83,125.028,74.117"/>
			<path clip-path="url(#SVGID_16_)" fill="#7BDF99" d="M123.435,73.933c-0.279,2.406-2.456,4.132-4.861,3.853
				c-2.407-0.276-4.133-2.454-3.854-4.861c0.278-2.406,2.455-4.132,4.861-3.854C121.988,69.349,123.714,71.525,123.435,73.933"/>
			<path clip-path="url(#SVGID_16_)" fill="#7BDF99" d="M123.603,69.982c-0.102,0.877-0.895,1.506-1.772,1.404
				c-0.878-0.103-1.506-0.896-1.405-1.772c0.102-0.877,0.895-1.507,1.773-1.405C123.075,68.312,123.704,69.104,123.603,69.982"/>
		</g>
		<g>
			<defs>
				<rect id="SVGID_25_" x="-24.943" y="8.667" width="247.943" height="247.943"/>
			</defs>
			<clipPath id="SVGID_26_">
				<use xlink:href="#SVGID_25_"  overflow="visible"/>
			</clipPath>
			<path clip-path="url(#SVGID_26_)" fill="#AA7E52" d="M173.092,122.675c-3.577,1.638-1.393,6.39-2.456,13.28
				c-0.4,2.587-1.257,5.475-3.05,8.614c-6.648,11.64-17.85,14.56-17.85,14.56l7.507,7.756c2.67-0.835,11.155-4.357,18.436-15.848
				c2.43-3.837,3.873-8.075,4.521-12.093c-0.005-0.004-0.009-0.007-0.012-0.009C181.899,129.001,178.156,120.356,173.092,122.675"/>
			<path clip-path="url(#SVGID_26_)" fill="none" stroke="#000000" stroke-width="0.5081" stroke-miterlimit="10" d="
				M173.092,122.675c-3.577,1.638-1.393,6.39-2.456,13.28c-0.4,2.587-1.257,5.475-3.05,8.614c-6.648,11.64-17.85,14.56-17.85,14.56
				l7.507,7.756c2.67-0.835,11.155-4.357,18.436-15.848c2.43-3.837,3.873-8.075,4.521-12.093c-0.005-0.004-0.009-0.007-0.012-0.009
				C181.899,129.001,178.156,120.356,173.092,122.675z"/>
			<path clip-path="url(#SVGID_26_)" fill="#AA7E52" d="M131.123,72.492c1.991-0.406,18.712-53.854-15.633-20.874
				c-1.341,1.555-2.149,3.042-2.546,4.459c-0.778-0.355-1.571-0.691-2.379-1.003c0.549-1.15,1.306-2.332,2.357-3.551
				c38.978-37.427,23.068,18.034,19.25,24.414c-0.444-1.182-0.959-2.335-1.539-3.456C130.846,72.503,131.021,72.514,131.123,72.492"
				/>
			<path clip-path="url(#SVGID_26_)" fill="#F9F5ED" d="M131.123,72.492c-0.103,0.021-0.277,0.011-0.491-0.011
				c-1.101-2.131-2.436-4.145-3.981-6.016c4.831-9.485,9.083-28.272-9.721-8.303c-1.276-0.764-2.61-1.455-3.987-2.086
				c0.397-1.417,1.205-2.904,2.546-4.459C149.835,18.639,133.114,72.086,131.123,72.492"/>
			<g opacity="0.3" clip-path="url(#SVGID_26_)">
				<g>
					<defs>
						<rect id="SVGID_27_" x="116.931" y="49.324" width="13.847" height="17.142"/>
					</defs>
					<clipPath id="SVGID_28_">
						<use xlink:href="#SVGID_27_"  overflow="visible"/>
					</clipPath>
					<path clip-path="url(#SVGID_28_)" d="M126.651,66.466c-2.673-3.236-5.961-6.05-9.721-8.303
						C135.734,38.193,131.482,56.98,126.651,66.466"/>
				</g>
			</g>
			<path clip-path="url(#SVGID_26_)" fill="#AA7E52" d="M69.285,72.492c-1.991-0.406-18.712-53.854,15.633-20.874
				c1.342,1.555,2.15,3.042,2.545,4.459c0.779-0.355,1.571-0.691,2.379-1.003c-0.548-1.15-1.304-2.332-2.356-3.551
				C48.51,14.097,64.418,69.558,68.237,75.938c0.444-1.182,0.959-2.335,1.539-3.456C69.563,72.503,69.388,72.514,69.285,72.492"/>
			<path clip-path="url(#SVGID_26_)" fill="#F9F5ED" d="M69.285,72.492c0.103,0.021,0.277,0.011,0.491-0.011
				c1.1-2.131,2.435-4.145,3.981-6.016c-4.831-9.485-9.083-28.272,9.721-8.303c1.276-0.764,2.608-1.455,3.986-2.086
				c-0.396-1.417-1.203-2.904-2.545-4.459C50.573,18.639,67.294,72.086,69.285,72.492"/>
			<g opacity="0.3" clip-path="url(#SVGID_26_)">
				<g>
					<defs>
						<rect id="SVGID_29_" x="69.63" y="49.324" width="13.848" height="17.142"/>
					</defs>
					<clipPath id="SVGID_30_">
						<use xlink:href="#SVGID_29_"  overflow="visible"/>
					</clipPath>
					<path clip-path="url(#SVGID_30_)" d="M73.757,66.466c2.672-3.236,5.961-6.05,9.72-8.303
						C64.674,38.193,68.926,56.98,73.757,66.466"/>
				</g>
			</g>
			<g opacity="0.1" clip-path="url(#SVGID_26_)">
				<g>
					<defs>
						<rect id="SVGID_31_" x="60.296" y="51.346" width="80.663" height="171.923"/>
					</defs>
					<clipPath id="SVGID_32_">
						<use xlink:href="#SVGID_31_"  overflow="visible"/>
					</clipPath>
					<path clip-path="url(#SVGID_32_)" fill="#A5A5A5" d="M140.409,75.307c0.013,0.184,0.042,0.371,0.083,0.561
						c0.169-0.026,0.33-0.061,0.466-0.109C140.958,75.758,140.746,75.596,140.409,75.307"/>
					<path clip-path="url(#SVGID_32_)" fill="#A5A5A5" d="M65.927,75.307c0.971-0.831,2.98-2.714,3.957-4.805
						c1.274-2.733,6.483-18.189,33.285-19.111c-0.828-0.028-1.673-0.045-2.541-0.045c-29.017,0-34.51,16.34-35.824,19.156
						c-1.315,2.816-4.507,5.256-4.507,5.256c1.596,0.565,5.633-0.468,5.633-0.468C65.929,75.295,65.927,75.302,65.927,75.307"/>
					<path clip-path="url(#SVGID_32_)" fill="#F9F5ED" d="M80.494,177.539c-2.863-15.604-9.155-31.687-9.935-45.337
						c0,0-0.863,0.645-2.459,1.864c0,0,1.502-5.258,1.597-8.262c0,0-0.658,1.407-3.099,2.723c0,0,1.502-7.136,1.314-11.925
						c-0.189-4.788-0.979-18.636,1.597-29.107c0.777-3.158-2.442-5.539-2.442-5.539s3.756-3.85,3.944-6.666
						c0,0-3.367,0.857-5.166,0.577c-0.59,2.736-3.858,6.089-3.858,6.089s3.219,2.381,2.442,5.539
						c-2.576,10.472-1.784,24.319-1.596,29.107c0.188,4.789-1.315,11.925-1.315,11.925c2.442-1.315,3.099-2.723,3.099-2.723
						c-0.094,3.004-1.596,8.262-1.596,8.262c1.596-1.22,2.458-1.864,2.458-1.864c0.78,13.65,7.072,29.732,9.935,45.337
						c3.557,19.395,4.788,45.351,10.13,45.716c1.391,0.096,2.437-0.309,3.258-1.273C84.938,216.503,83.607,194.508,80.494,177.539"
						/>
				</g>
			</g>
			<g opacity="0.07" clip-path="url(#SVGID_26_)">
				<g>
					<defs>
						<rect id="SVGID_33_" x="155.355" y="122.303" width="24.744" height="44.582"/>
					</defs>
					<clipPath id="SVGID_34_">
						<use xlink:href="#SVGID_33_"  overflow="visible"/>
					</clipPath>
					<path clip-path="url(#SVGID_34_)" d="M174.161,122.303c2.71,2.393,4.171,8.69,2.977,15.617
						c0.005,0.003,0.009,0.006,0.013,0.008c-0.648,4.019-2.091,8.256-4.521,12.091c-6.433,10.155-13.804,14.086-17.275,15.44
						l1.38,1.426c2.67-0.835,11.155-4.357,18.436-15.848c2.43-3.837,3.873-8.075,4.521-12.093c-0.004-0.004-0.009-0.007-0.014-0.009
						C181.207,130.067,178.386,122.234,174.161,122.303"/>
				</g>
			</g>
			<path clip-path="url(#SVGID_26_)" fill="#BC926F" d="M156.441,156.011c-7.113,3.049-12.984,3.493-12.984,3.493l0.802,8.557
				c0.573-0.326,7.102,1.16,13.707-1.381C158.455,162.761,157.903,159.182,156.441,156.011"/>
			<path clip-path="url(#SVGID_26_)" fill="#F9F5ED" d="M135.697,206.57c0,0,8.769-8.926,14.576-20.493
				c9.487-18.892,13.691-43.172-21.689-34.788h-28.032H72.521c-35.38-8.384-31.176,15.896-21.689,34.788
				c5.808,11.567,14.577,20.493,14.577,20.493c-4.437-1.691-13.419-0.546-14.736,4.549c-1.221,4.714,7.422,4.454,7.422,4.454h42.458
				h42.458c0,0,8.644,0.26,7.424-4.454C149.117,206.024,140.133,204.879,135.697,206.57"/>
			<path clip-path="url(#SVGID_26_)" fill="none" stroke="#000000" stroke-width="0.5081" stroke-miterlimit="10" d="
				M135.697,206.57c0,0,8.769-8.926,14.576-20.493c9.487-18.892,13.691-43.172-21.689-34.788h-28.032H72.521
				c-35.38-8.384-31.176,15.896-21.689,34.788c5.808,11.567,14.577,20.493,14.577,20.493c-4.437-1.691-13.419-0.546-14.736,4.549
				c-1.221,4.714,7.422,4.454,7.422,4.454h42.458h42.458c0,0,8.644,0.26,7.424-4.454
				C149.117,206.024,140.133,204.879,135.697,206.57z"/>
			<path clip-path="url(#SVGID_26_)" fill="#C6C1BA" d="M92.715,162.087v-10.798H72.521c-1.823-0.433-3.535-0.771-5.154-1.035
				c0.721,2.887,1.511,5.828,2.317,8.824c1.669,6.208,3.396,12.626,4.545,18.893c1.057,5.76,1.906,12.087,2.725,18.204
				c1.091,8.127,2.012,14.653,3.104,19.398h12.079c0.562-3.445,0.979-8.023,1.506-13.794c0.089-0.984,0.183-2.005,0.28-3.063
				c1.384-15.003,1.638-31.311,1.684-36.629H92.715z"/>
			<path clip-path="url(#SVGID_26_)" fill="#C6C1BA" d="M128.584,151.289h-20.193v10.798h-2.894
				c0.046,5.318,0.3,21.626,1.685,36.629c0.097,1.057,0.19,2.073,0.28,3.056c0.526,5.775,0.944,10.354,1.507,13.802h12.079
				c1.093-4.745,2.014-11.271,3.104-19.398c0.82-6.117,1.669-12.444,2.725-18.204c1.15-6.267,2.877-12.685,4.547-18.893
				c0.805-2.996,1.596-5.938,2.316-8.824C132.121,150.518,130.408,150.856,128.584,151.289"/>
			<path clip-path="url(#SVGID_26_)" fill="#F9F5ED" d="M94.492,160.304c0,0,0,19.999-1.69,38.308
				c-1.69,18.311-1.992,25.238-7.334,24.873c-5.342-0.367-6.572-26.323-10.13-45.716c-2.862-15.604-9.153-31.689-9.935-45.338
				c0,0-0.862,0.644-2.458,1.864c0,0,1.502-5.257,1.597-8.261c0,0-0.658,1.407-3.1,2.723c0,0,1.503-7.137,1.316-11.925
				c-0.189-4.789-0.98-18.637,1.595-29.107c0.777-3.16-2.44-5.539-2.44-5.539s3.755-3.85,3.943-6.668c0,0-4.039,1.035-5.634,0.472
				c0,0,3.192-2.442,4.506-5.26c1.315-2.816,6.808-19.154,35.825-19.154s34.511,16.338,35.825,19.154
				c1.314,2.817,4.508,5.26,4.508,5.26c-1.597,0.563-5.634-0.472-5.634-0.472c0.188,2.818,3.942,6.668,3.942,6.668
				s-3.217,2.379-2.441,5.539c2.576,10.471,1.784,24.318,1.596,29.107c-0.188,4.788,1.314,11.925,1.314,11.925
				c-2.44-1.315-3.098-2.723-3.098-2.723c0.094,3.004,1.596,8.261,1.596,8.261c-1.596-1.221-2.459-1.864-2.459-1.864
				c-0.779,13.648-7.072,29.733-9.934,45.338c-3.558,19.393-4.789,45.349-10.131,45.716c-5.341,0.365-5.644-6.563-7.333-24.873
				c-1.69-18.309-1.69-38.308-1.69-38.308"/>
		</g>
		<g opacity="0.07">
			<g>
				<defs>
					<rect id="SVGID_35_" x="97.325" y="51.575" width="43.126" height="171.923"/>
				</defs>
				<clipPath id="SVGID_36_">
					<use xlink:href="#SVGID_35_"  overflow="visible"/>
				</clipPath>
				<path clip-path="url(#SVGID_36_)" d="M140.451,75.989c0,0-3.192-2.442-4.507-5.26c-1.314-2.816-6.806-19.154-35.825-19.154
					c-0.958,0-1.888,0.019-2.794,0.055c26.579,1.009,31.759,16.377,33.03,19.1c1.314,2.817,4.507,5.26,4.507,5.26
					c-1.597,0.562-5.634-0.472-5.634-0.472c0.188,2.818,3.943,6.666,3.943,6.666s-3.218,2.381-2.441,5.541
					c2.575,10.471,1.783,24.318,1.597,29.107c-0.188,4.788,1.315,11.925,1.315,11.925c-2.442-1.315-3.098-2.723-3.098-2.723
					c0.093,3.004,1.595,8.261,1.595,8.261c-1.595-1.221-2.459-1.864-2.459-1.864c-0.779,13.648-7.072,29.733-9.935,45.337
					c-3.05,16.625-4.39,38.068-8.075,44.086c0.859,1.223,1.984,1.736,3.533,1.631c5.344-0.367,6.573-26.323,10.131-45.717
					c2.862-15.604,9.155-31.688,9.934-45.337c0,0,0.864,0.644,2.459,1.864c0,0-1.501-5.257-1.595-8.261c0,0,0.657,1.407,3.098,2.723
					c0,0-1.502-7.137-1.313-11.925c0.187-4.789,0.978-18.637-1.596-29.107c-0.778-3.16,2.441-5.541,2.441-5.541
					s-3.756-3.848-3.944-6.666C134.817,75.518,138.854,76.551,140.451,75.989"/>
			</g>
		</g>
		<path fill="none" d="M64.728,70.73c-1.314,2.816-4.506,5.259-4.506,5.259c1.595,0.563,5.634-0.472,5.634-0.472
			c-0.188,2.818-3.944,6.666-3.944,6.666s3.218,2.381,2.441,5.541c-2.575,10.471-1.784,24.318-1.596,29.107
			c0.188,4.788-1.315,11.925-1.315,11.925c2.442-1.314,3.1-2.723,3.1-2.723c-0.094,3.004-1.597,8.261-1.597,8.261
			c1.597-1.22,2.458-1.864,2.458-1.864c0.782,13.648,7.073,29.733,9.935,45.338c3.559,19.393,4.789,45.349,10.13,45.716
			c5.342,0.365,5.644-6.563,7.334-24.873c1.69-18.309,1.69-38.308,1.69-38.308h12.121c0,0,0,19.999,1.69,38.308
			c1.69,18.311,1.992,25.238,7.334,24.873c5.342-0.367,6.572-26.323,10.129-45.716c2.862-15.604,9.155-31.689,9.935-45.338
			c0,0,0.863,0.645,2.46,1.864c0,0-1.502-5.257-1.597-8.261c0,0,0.657,1.408,3.099,2.723c0,0-1.502-7.137-1.314-11.925
			c0.188-4.789,0.979-18.637-1.596-29.107c-0.776-3.16,2.441-5.541,2.441-5.541s-3.755-3.848-3.943-6.666
			c0,0,4.038,1.035,5.634,0.472c0,0-3.192-2.442-4.507-5.259c-1.314-2.817-6.807-19.154-35.825-19.154
			C71.536,51.576,66.043,67.913,64.728,70.73"/>
		<path fill="none" stroke="#000000" stroke-width="0.5081" stroke-miterlimit="10" d="M94.492,160.304c0,0,0,19.999-1.69,38.308
			c-1.69,18.311-1.992,25.238-7.334,24.873c-5.342-0.367-6.572-26.323-10.13-45.716c-2.862-15.604-9.153-31.689-9.935-45.338
			c0,0-0.862,0.644-2.458,1.864c0,0,1.502-5.257,1.597-8.261c0,0-0.658,1.407-3.1,2.723c0,0,1.503-7.137,1.316-11.925
			c-0.189-4.789-0.98-18.637,1.595-29.107c0.777-3.16-2.44-5.539-2.44-5.539s3.755-3.85,3.943-6.668c0,0-4.039,1.035-5.634,0.472
			c0,0,3.192-2.442,4.506-5.26c1.315-2.816,6.808-19.154,35.825-19.154s34.511,16.338,35.825,19.154
			c1.314,2.817,4.508,5.26,4.508,5.26c-1.597,0.563-5.634-0.472-5.634-0.472c0.188,2.818,3.942,6.668,3.942,6.668
			s-3.217,2.379-2.441,5.539c2.576,10.471,1.784,24.318,1.596,29.107c-0.188,4.788,1.314,11.925,1.314,11.925
			c-2.44-1.315-3.098-2.723-3.098-2.723c0.094,3.004,1.596,8.261,1.596,8.261c-1.596-1.221-2.459-1.864-2.459-1.864
			c-0.779,13.648-7.072,29.733-9.934,45.338c-3.558,19.393-4.789,45.349-10.131,45.716c-5.341,0.365-5.644-6.563-7.333-24.873
			c-1.69-18.309-1.69-38.308-1.69-38.308"/>
		<g opacity="0.05">
			<g>
				<defs>
					<rect id="SVGID_37_" x="60.804" y="51.346" width="80.664" height="171.923"/>
				</defs>
				<clipPath id="SVGID_38_">
					<use xlink:href="#SVGID_37_"  overflow="visible"/>
				</clipPath>
				<path clip-path="url(#SVGID_38_)" d="M140.917,75.307c0.013,0.184,0.042,0.371,0.083,0.561c0.168-0.026,0.33-0.061,0.467-0.109
					C141.468,75.758,141.254,75.596,140.917,75.307"/>
				<path clip-path="url(#SVGID_38_)" d="M66.436,75.307c0.97-0.831,2.98-2.714,3.956-4.805c1.275-2.733,6.483-18.189,33.285-19.111
					c-0.827-0.028-1.672-0.045-2.541-0.045c-29.018,0-34.511,16.34-35.825,19.156s-4.507,5.256-4.507,5.256
					c1.596,0.565,5.633-0.468,5.633-0.468C66.438,75.295,66.436,75.302,66.436,75.307"/>
				<path clip-path="url(#SVGID_38_)" d="M81.001,177.539c-2.862-15.604-9.154-31.687-9.934-45.337c0,0-0.863,0.645-2.459,1.864
					c0,0,1.501-5.258,1.596-8.262c0,0-0.658,1.407-3.099,2.723c0,0,1.503-7.136,1.315-11.925
					c-0.188-4.788-0.979-18.636,1.596-29.107c0.778-3.158-2.441-5.539-2.441-5.539s3.756-3.85,3.943-6.666
					c0,0-3.366,0.857-5.167,0.577c-0.589,2.736-3.857,6.089-3.857,6.089s3.218,2.381,2.441,5.539
					c-2.575,10.472-1.784,24.319-1.596,29.107c0.188,4.789-1.315,11.925-1.315,11.925c2.442-1.315,3.099-2.723,3.099-2.723
					c-0.094,3.004-1.596,8.262-1.596,8.262c1.596-1.22,2.46-1.864,2.46-1.864c0.78,13.65,7.071,29.732,9.934,45.337
					c3.558,19.395,4.788,45.351,10.13,45.716c1.39,0.096,2.437-0.309,3.258-1.273C85.446,216.503,84.115,194.508,81.001,177.539"/>
			</g>
		</g>
		<path fill="#263135" d="M76.347,118.242c0,0,0.101,0.119,0.265,0.333c0.079,0.107,0.183,0.235,0.287,0.385
			c0.108,0.148,0.236,0.313,0.362,0.5c0.262,0.365,0.551,0.797,0.858,1.254c0.305,0.459,0.629,0.945,0.953,1.432
			c0.153,0.248,0.331,0.477,0.483,0.72c0.161,0.234,0.326,0.461,0.477,0.688c0.16,0.218,0.314,0.429,0.457,0.635
			c0.154,0.195,0.297,0.382,0.428,0.562c0.14,0.17,0.267,0.326,0.38,0.465c0.111,0.146,0.222,0.257,0.311,0.355
			c0.178,0.197,0.277,0.322,0.277,0.322s-0.148-0.041-0.404-0.137c-0.126-0.051-0.292-0.103-0.452-0.202
			c-0.165-0.092-0.357-0.195-0.554-0.325c-0.189-0.137-0.393-0.29-0.604-0.457c-0.196-0.183-0.404-0.373-0.609-0.582
			c-0.193-0.215-0.4-0.436-0.585-0.678c-0.183-0.24-0.375-0.485-0.541-0.741c-0.165-0.261-0.334-0.518-0.477-0.781
			c-0.15-0.265-0.285-0.527-0.405-0.787c-0.247-0.518-0.435-1.019-0.574-1.456c-0.135-0.44-0.225-0.813-0.272-1.081
			C76.358,118.4,76.347,118.242,76.347,118.242"/>
		<path fill="#263135" d="M83.123,121.739c0,0,0.066,0.121,0.17,0.329c0.049,0.104,0.118,0.229,0.183,0.373
			c0.067,0.143,0.152,0.304,0.228,0.479c0.16,0.345,0.344,0.747,0.543,1.18c0.048,0.105,0.096,0.213,0.146,0.324
			c0.053,0.107,0.105,0.216,0.155,0.328c0.099,0.224,0.213,0.44,0.318,0.661c0.105,0.223,0.228,0.433,0.33,0.652
			c0.125,0.2,0.228,0.416,0.344,0.61c0.124,0.188,0.226,0.39,0.345,0.56c0.122,0.169,0.225,0.343,0.335,0.495
			c0.115,0.141,0.217,0.282,0.31,0.408c0.093,0.127,0.191,0.218,0.264,0.309c0.151,0.173,0.236,0.287,0.236,0.287
			s-0.13-0.027-0.359-0.101c-0.11-0.043-0.262-0.071-0.405-0.154c-0.147-0.078-0.315-0.167-0.494-0.275
			c-0.171-0.116-0.341-0.262-0.526-0.413c-0.181-0.156-0.341-0.345-0.518-0.536c-0.167-0.196-0.317-0.414-0.471-0.636
			c-0.138-0.23-0.277-0.467-0.398-0.706c-0.109-0.249-0.234-0.491-0.315-0.743c-0.094-0.247-0.173-0.497-0.233-0.74
			c-0.132-0.484-0.198-0.948-0.233-1.347c-0.026-0.401-0.023-0.737-0.001-0.974C83.092,121.875,83.123,121.739,83.123,121.739"/>
		<path fill="#263135" d="M88.66,123.197c0,0,0.068,0.1,0.171,0.272c0.105,0.173,0.243,0.422,0.397,0.717
			c0.15,0.298,0.317,0.643,0.48,1.014c0.087,0.184,0.164,0.377,0.249,0.568c0.086,0.191,0.161,0.391,0.249,0.583
			c0.079,0.197,0.163,0.389,0.244,0.578c0.078,0.192,0.162,0.376,0.239,0.555c0.074,0.185,0.161,0.347,0.233,0.514
			c0.067,0.17,0.158,0.306,0.224,0.454c0.064,0.149,0.147,0.26,0.209,0.381c0.034,0.059,0.064,0.112,0.093,0.164
			c0.034,0.045,0.064,0.088,0.092,0.127c0.113,0.158,0.18,0.267,0.18,0.267s-0.113-0.02-0.314-0.086
			c-0.051-0.02-0.107-0.038-0.168-0.06c-0.058-0.025-0.113-0.062-0.177-0.099c-0.123-0.075-0.284-0.151-0.412-0.272
			c-0.133-0.116-0.296-0.239-0.424-0.396c-0.133-0.152-0.283-0.314-0.401-0.497c-0.125-0.181-0.253-0.369-0.354-0.572
			c-0.115-0.2-0.209-0.412-0.299-0.623c-0.091-0.212-0.167-0.426-0.235-0.64c-0.073-0.214-0.123-0.429-0.172-0.636
			c-0.093-0.419-0.145-0.813-0.162-1.157c-0.018-0.342-0.007-0.632,0.013-0.835C88.633,123.313,88.66,123.197,88.66,123.197"/>
		<path fill="#263135" d="M109.208,125.236c0,0,0.019,0.082,0.026,0.222c0.01,0.137,0.011,0.329-0.018,0.549
			c-0.027,0.223-0.084,0.474-0.173,0.729c-0.09,0.258-0.215,0.52-0.367,0.769c-0.084,0.122-0.161,0.244-0.256,0.357
			c-0.094,0.116-0.185,0.224-0.294,0.321c-0.106,0.098-0.208,0.188-0.325,0.265c-0.11,0.075-0.22,0.142-0.337,0.191
			c-0.111,0.05-0.215,0.089-0.32,0.106c-0.102,0.019-0.183,0.035-0.263,0.026c-0.151-0.012-0.224-0.037-0.224-0.037
			s0.058-0.074,0.134-0.168c0.04-0.04,0.075-0.121,0.118-0.188c0.043-0.063,0.084-0.147,0.129-0.235
			c0.047-0.08,0.092-0.177,0.143-0.276c0.051-0.095,0.105-0.197,0.161-0.304c0.061-0.1,0.113-0.219,0.181-0.323
			c0.063-0.108,0.131-0.223,0.199-0.33c0.277-0.444,0.604-0.876,0.909-1.183c0.151-0.152,0.292-0.276,0.4-0.36
			C109.135,125.283,109.208,125.236,109.208,125.236"/>
		<path fill="#263135" d="M114.016,122.614c0,0,0.013,0.114,0.006,0.308c-0.004,0.195-0.029,0.468-0.089,0.789
			c-0.063,0.317-0.161,0.685-0.307,1.063c-0.07,0.188-0.153,0.38-0.248,0.57c-0.087,0.193-0.201,0.379-0.309,0.566
			c-0.113,0.185-0.239,0.364-0.365,0.537c-0.13,0.171-0.271,0.332-0.409,0.483c-0.147,0.148-0.292,0.286-0.436,0.409
			c-0.152,0.118-0.299,0.226-0.435,0.319c-0.148,0.084-0.284,0.157-0.406,0.216c-0.116,0.064-0.242,0.095-0.333,0.127
			c-0.188,0.058-0.297,0.076-0.297,0.076s0.058-0.103,0.165-0.257c0.052-0.081,0.121-0.166,0.185-0.277
			c0.067-0.11,0.144-0.229,0.229-0.35c0.078-0.135,0.163-0.274,0.258-0.415c0.089-0.147,0.178-0.305,0.281-0.458
			c0.093-0.162,0.191-0.326,0.296-0.489c0.095-0.173,0.208-0.335,0.307-0.51c0.105-0.169,0.211-0.338,0.314-0.506
			c0.104-0.168,0.211-0.332,0.314-0.492c0.209-0.318,0.41-0.618,0.599-0.87C113.705,122.946,114.016,122.614,114.016,122.614"/>
		<path fill="#263135" d="M116.712,122.614c0,0,0.035,0.092,0.068,0.251c0.037,0.16,0.073,0.388,0.085,0.655
			c0.029,0.54-0.056,1.246-0.293,1.92c-0.12,0.337-0.272,0.666-0.459,0.955c-0.085,0.147-0.194,0.281-0.293,0.403
			c-0.096,0.126-0.217,0.231-0.32,0.328c-0.1,0.095-0.219,0.169-0.315,0.232c-0.05,0.029-0.095,0.058-0.141,0.082
			c-0.047,0.018-0.092,0.036-0.132,0.053c-0.16,0.06-0.251,0.075-0.251,0.075s0.035-0.098,0.098-0.239
			c0.035-0.065,0.063-0.154,0.096-0.255c0.033-0.099,0.078-0.197,0.11-0.32c0.034-0.119,0.082-0.235,0.118-0.374
			c0.041-0.131,0.085-0.27,0.13-0.415c0.046-0.143,0.094-0.289,0.143-0.441c0.051-0.149,0.104-0.303,0.155-0.456
			c0.06-0.15,0.108-0.308,0.169-0.456c0.058-0.151,0.115-0.302,0.18-0.444c0.119-0.29,0.249-0.557,0.371-0.788
			c0.123-0.23,0.241-0.42,0.332-0.556C116.651,122.691,116.712,122.614,116.712,122.614"/>
		<path fill="#263135" d="M125.018,115.109c0,0,0.015,0.153,0.009,0.414c-0.003,0.264-0.031,0.634-0.094,1.076
			c-0.034,0.219-0.076,0.458-0.131,0.705c-0.059,0.248-0.116,0.51-0.201,0.775c-0.078,0.267-0.167,0.54-0.273,0.812
			c-0.099,0.274-0.222,0.545-0.346,0.818c-0.122,0.271-0.27,0.531-0.412,0.789c-0.145,0.257-0.314,0.497-0.47,0.731
			c-0.167,0.229-0.344,0.44-0.508,0.64c-0.18,0.19-0.358,0.364-0.521,0.519c-0.172,0.152-0.347,0.272-0.494,0.383
			c-0.142,0.114-0.297,0.184-0.413,0.246c-0.235,0.124-0.374,0.18-0.374,0.18s0.081-0.135,0.225-0.345
			c0.073-0.107,0.164-0.227,0.251-0.382c0.089-0.147,0.19-0.314,0.301-0.497c0.1-0.189,0.212-0.386,0.331-0.593
			c0.108-0.219,0.228-0.439,0.349-0.67c0.111-0.239,0.237-0.478,0.357-0.725c0.112-0.254,0.248-0.495,0.359-0.757
			c0.24-0.512,0.479-1.021,0.706-1.503c0.229-0.482,0.445-0.935,0.643-1.321c0.094-0.195,0.194-0.372,0.274-0.531
			c0.08-0.159,0.161-0.293,0.222-0.407C124.938,115.239,125.018,115.109,125.018,115.109"/>
		<path fill="#263135" d="M134.998,111.467c-0.131,0.563-0.288,1.127-0.472,1.68c-0.182,0.553-0.381,1.102-0.605,1.639
			c-0.224,0.54-0.458,1.076-0.721,1.601c-0.263,0.524-0.544,1.038-0.845,1.545c-0.155,0.251-0.305,0.504-0.472,0.747
			c-0.16,0.249-0.336,0.486-0.509,0.727c-0.178,0.237-0.355,0.475-0.546,0.703c-0.184,0.232-0.386,0.451-0.583,0.675
			c-0.206,0.217-0.407,0.438-0.629,0.64c-0.213,0.212-0.446,0.402-0.672,0.601c-0.238,0.186-0.471,0.377-0.722,0.548
			c-0.243,0.18-0.505,0.334-0.762,0.497l-0.427-0.945c0.232-0.082,0.445-0.148,0.67-0.211c0.223-0.064,0.45-0.12,0.679-0.168
			c0.463-0.091,0.931-0.169,1.466-0.14c0.267,0.024,0.566,0.056,0.903,0.266c0.165,0.104,0.328,0.284,0.415,0.488
			c0.021,0.053,0.041,0.105,0.053,0.155l0.01,0.039l0.01,0.054l0.007,0.041c0.005,0.033,0.012,0.112,0.015,0.166
			c-0.001,0.044-0.002,0.093-0.006,0.138c-0.034,0.351-0.149,0.6-0.262,0.833c-0.115,0.231-0.243,0.438-0.375,0.636
			c-0.268,0.392-0.558,0.747-0.851,1.095c-0.294,0.348-0.596,0.684-0.901,1.014c-0.612,0.658-1.233,1.3-1.875,1.922l-0.628-0.829
			c0.275-0.146,0.542-0.28,0.816-0.412c0.272-0.133,0.548-0.261,0.828-0.384c0.561-0.241,1.124-0.478,1.752-0.633
			c0.158-0.038,0.32-0.071,0.497-0.091c0.178-0.018,0.363-0.034,0.611,0.025c0.121,0.032,0.276,0.099,0.404,0.238
			c0.13,0.142,0.182,0.327,0.188,0.465c0.008,0.279-0.069,0.453-0.135,0.618c-0.152,0.334-0.309,0.562-0.461,0.825
			c-0.158,0.264-0.324,0.514-0.487,0.765c-0.163,0.248-0.326,0.495-0.479,0.743c-0.15,0.249-0.291,0.483-0.382,0.731
			c-0.042,0.12-0.071,0.241-0.068,0.329c0.003,0.089,0.018,0.129,0.078,0.178c0.065,0.053,0.181,0.09,0.309,0.109
			c0.154,0.026,0.279,0.041,0.42,0.048c0.561,0.032,1.134-0.07,1.661-0.31c0.525-0.239,1.015-0.59,1.407-1.038
			c-0.157,0.254-0.355,0.483-0.572,0.693c-0.218,0.211-0.459,0.399-0.725,0.556c-0.526,0.317-1.143,0.509-1.773,0.53
			c-0.157,0.006-0.328,0.002-0.47-0.008c-0.165-0.014-0.35-0.037-0.539-0.148c-0.093-0.057-0.181-0.14-0.246-0.243
			c-0.059-0.103-0.094-0.214-0.104-0.32c-0.025-0.21,0.016-0.386,0.058-0.551c0.091-0.32,0.237-0.61,0.375-0.881
			c0.142-0.27,0.289-0.532,0.432-0.792l0.423-0.774c0.134-0.257,0.294-0.537,0.374-0.752c0.042-0.107,0.063-0.228,0.053-0.246
			c-0.004-0.01-0.001,0.027,0.026,0.058c0.026,0.032,0.041,0.031,0.019,0.027c-0.044-0.007-0.16-0.005-0.277,0.017
			c-0.117,0.02-0.247,0.054-0.376,0.092c-0.519,0.164-1.057,0.393-1.58,0.644c-0.521,0.249-1.046,0.526-1.545,0.812l-3.076,1.751
			l2.447-2.582c0.608-0.642,1.224-1.272,1.812-1.924c0.584-0.648,1.163-1.315,1.632-1.998c0.117-0.17,0.224-0.341,0.309-0.506
			c0.085-0.164,0.146-0.331,0.153-0.425l0.002-0.029c-0.002-0.001,0.003,0.021,0.001,0l-0.007-0.041l-0.001-0.01l-0.001-0.005
			c-0.001-0.006,0.011,0.053,0.006,0.028h0v-0.002c0-0.004-0.002-0.004,0-0.004c-0.002,0.003,0.01,0.008-0.011-0.009
			c-0.039-0.031-0.194-0.079-0.367-0.09c-0.353-0.025-0.771,0.03-1.179,0.107c-0.205,0.043-0.411,0.086-0.617,0.137
			c-0.205,0.052-0.417,0.11-0.607,0.168l-4.212,1.315l3.786-2.262c0.235-0.142,0.479-0.271,0.706-0.431
			c0.233-0.146,0.453-0.315,0.677-0.479c0.216-0.176,0.436-0.344,0.642-0.535c0.21-0.183,0.414-0.375,0.617-0.569
			c0.196-0.201,0.397-0.396,0.584-0.608c0.192-0.207,0.374-0.423,0.557-0.641c0.177-0.22,0.357-0.438,0.525-0.668
			c0.173-0.224,0.34-0.455,0.506-0.686c0.327-0.469,0.638-0.947,0.934-1.438c0.145-0.247,0.292-0.492,0.435-0.743
			c0.141-0.248,0.28-0.501,0.415-0.755c0.266-0.509,0.526-1.024,0.769-1.547C134.549,112.536,134.792,112.009,134.998,111.467"/>
		<path fill="#263135" d="M64.939,111.467c0.133,0.563,0.289,1.127,0.472,1.68s0.382,1.102,0.605,1.639
			c0.224,0.54,0.457,1.076,0.721,1.601c0.263,0.524,0.545,1.038,0.845,1.545c0.154,0.251,0.305,0.504,0.471,0.747
			c0.161,0.249,0.337,0.486,0.51,0.727c0.178,0.237,0.356,0.475,0.547,0.703c0.185,0.232,0.386,0.451,0.583,0.675
			c0.206,0.217,0.407,0.438,0.629,0.64c0.213,0.212,0.446,0.402,0.672,0.601c0.238,0.186,0.471,0.377,0.723,0.548
			c0.242,0.18,0.505,0.334,0.761,0.497l0.426-0.945c-0.231-0.082-0.445-0.148-0.67-0.211c-0.223-0.064-0.448-0.12-0.678-0.168
			c-0.463-0.091-0.931-0.169-1.467-0.14c-0.267,0.024-0.565,0.056-0.901,0.266c-0.166,0.104-0.33,0.284-0.416,0.488
			c-0.021,0.053-0.042,0.105-0.053,0.155l-0.01,0.039l-0.012,0.054l-0.006,0.041c-0.004,0.033-0.013,0.112-0.015,0.166
			c0.001,0.044,0.001,0.093,0.005,0.138c0.035,0.351,0.15,0.6,0.261,0.833c0.115,0.231,0.244,0.438,0.376,0.636
			c0.268,0.392,0.558,0.747,0.851,1.095c0.294,0.348,0.596,0.684,0.902,1.014c0.611,0.658,1.232,1.3,1.873,1.922l0.63-0.829
			c-0.275-0.146-0.542-0.28-0.817-0.412c-0.273-0.133-0.548-0.261-0.827-0.384c-0.562-0.241-1.124-0.478-1.752-0.633
			c-0.158-0.038-0.32-0.071-0.498-0.091c-0.176-0.018-0.362-0.034-0.61,0.025c-0.121,0.032-0.276,0.099-0.404,0.238
			c-0.129,0.142-0.182,0.327-0.188,0.465c-0.009,0.279,0.07,0.453,0.136,0.618c0.152,0.334,0.308,0.562,0.461,0.825
			c0.158,0.264,0.324,0.514,0.486,0.765c0.162,0.248,0.326,0.495,0.479,0.743c0.15,0.249,0.291,0.483,0.382,0.731
			c0.042,0.12,0.071,0.241,0.067,0.329c-0.003,0.089-0.018,0.129-0.078,0.178c-0.064,0.053-0.18,0.09-0.308,0.109
			c-0.154,0.026-0.279,0.041-0.421,0.048c-0.561,0.032-1.132-0.07-1.66-0.31c-0.524-0.239-1.015-0.59-1.408-1.038
			c0.157,0.254,0.356,0.483,0.573,0.693c0.217,0.211,0.459,0.399,0.724,0.556c0.526,0.317,1.143,0.509,1.773,0.53
			c0.156,0.006,0.328,0.002,0.469-0.008c0.166-0.014,0.352-0.037,0.54-0.148c0.093-0.057,0.182-0.14,0.245-0.243
			c0.059-0.103,0.095-0.214,0.106-0.32c0.023-0.21-0.016-0.386-0.059-0.551c-0.09-0.32-0.238-0.61-0.375-0.881
			c-0.142-0.27-0.289-0.532-0.433-0.792l-0.423-0.774c-0.134-0.257-0.294-0.537-0.375-0.752c-0.042-0.107-0.063-0.228-0.052-0.246
			c0.003-0.01,0,0.027-0.027,0.058c-0.026,0.032-0.041,0.031-0.018,0.027c0.043-0.007,0.16-0.005,0.276,0.017
			c0.119,0.02,0.248,0.054,0.377,0.092c0.52,0.164,1.056,0.393,1.579,0.644c0.523,0.249,1.047,0.526,1.545,0.812l3.076,1.751
			l-2.447-2.582c-0.607-0.642-1.225-1.272-1.811-1.924c-0.585-0.648-1.162-1.315-1.633-1.998c-0.117-0.17-0.224-0.341-0.309-0.506
			c-0.085-0.164-0.145-0.331-0.152-0.425l-0.001-0.029c0.002-0.001-0.004,0.021-0.003,0l0.008-0.041l0.001-0.01l0.001-0.005
			c0.002-0.006-0.011,0.053-0.004,0.028v-0.002c0-0.004,0.001-0.004,0-0.004c0.001,0.003-0.011,0.008,0.011-0.009
			c0.039-0.031,0.194-0.079,0.367-0.09c0.353-0.025,0.771,0.03,1.179,0.107c0.204,0.043,0.412,0.086,0.617,0.137
			c0.204,0.052,0.417,0.11,0.606,0.168l4.212,1.315l-3.785-2.262c-0.236-0.142-0.479-0.271-0.707-0.431
			c-0.234-0.146-0.453-0.315-0.676-0.479c-0.216-0.176-0.438-0.344-0.642-0.535c-0.21-0.183-0.414-0.375-0.617-0.569
			c-0.197-0.201-0.398-0.396-0.585-0.608c-0.192-0.207-0.374-0.423-0.557-0.641c-0.176-0.22-0.357-0.438-0.524-0.668
			c-0.175-0.224-0.34-0.455-0.507-0.686c-0.327-0.469-0.638-0.947-0.933-1.438c-0.146-0.247-0.294-0.492-0.436-0.743
			c-0.141-0.248-0.28-0.501-0.414-0.755c-0.267-0.509-0.527-1.024-0.771-1.547C65.388,112.536,65.145,112.009,64.939,111.467"/>
		<g>
			<g>
				<defs>
					<rect id="SVGID_39_" x="92.423" y="146.356" width="17.667" height="73.672"/>
				</defs>
				<clipPath id="SVGID_40_">
					<use xlink:href="#SVGID_39_"  overflow="visible"/>
				</clipPath>
				<path clip-path="url(#SVGID_40_)" fill="#E0D5BD" d="M95.472,159.764c-1.524-2.146-5.589-13.407,5.081-13.407
					c8.638,0,7.622,9.118,5.082,13.407c-6.217,10.498,0,0,0,0s0.507,42.898,3.556,56.306c2.026,8.909,0,0,0,0H92.423
					C92.423,216.069,96.488,176.923,95.472,159.764"/>
			</g>
		</g>
		<g opacity="0.07">
			<g>
				<defs>
					<rect id="SVGID_41_" x="124.52" y="149.986" width="32.409" height="65.83"/>
				</defs>
				<clipPath id="SVGID_42_">
					<use xlink:href="#SVGID_41_"  overflow="visible"/>
				</clipPath>
				<path clip-path="url(#SVGID_42_)" d="M124.521,153.215c35.378-8.385,31.175,15.896,21.688,34.788
					c-5.807,11.568-14.578,20.493-14.578,20.493c4.437-1.69,13.419-0.544,14.739,4.551c0.319,1.231-0.041,2.123-0.741,2.77
					c2.433-0.332,5.572-1.327,4.805-4.296c-1.318-5.092-10.301-6.239-14.737-4.55c0,0,8.77-8.925,14.577-20.491
					c9.486-18.893,13.69-43.174-21.689-34.788"/>
			</g>
		</g>
		<g opacity="0.05">
			<g>
				<defs>
					<rect id="SVGID_43_" x="44.178" y="149.584" width="32.917" height="65.839"/>
				</defs>
				<clipPath id="SVGID_44_">
					<use xlink:href="#SVGID_43_"  overflow="visible"/>
				</clipPath>
				<path clip-path="url(#SVGID_44_)" d="M72.521,151.289c-35.379-8.384-31.176,15.896-21.689,34.788
					c5.808,11.567,14.577,20.493,14.577,20.493c-4.436-1.691-13.419-0.546-14.736,4.549c-0.777,3,2.438,3.983,4.88,4.304
					c-0.397-0.587-0.552-1.328-0.308-2.271c1.318-5.094,10.301-6.239,14.737-4.551c0,0-8.769-8.924-14.577-20.492
					c-9.486-18.893-13.689-43.174,21.689-34.788"/>
			</g>
		</g>
		<path fill="#E0605C" d="M100.561,116.528c-6.517,0-7.556-9.361-7.486-15.908c3.04-0.168,5.399-2.723,7.486-6.228
			c1.855,3.036,3.912,5.779,7.488,6.319C108.109,107.255,107.049,116.528,100.561,116.528"/>
		<path fill="#323435" d="M109.203,101.076c-0.567,0-1.152-0.032-1.754-0.098c-6.595-0.727-7.577-8.579-7.586-8.658
			c-0.044-0.385,0.232-0.735,0.617-0.778c0.388-0.044,0.735,0.232,0.78,0.617c0.035,0.292,0.874,6.818,6.343,7.42
			c5.731,0.634,9.526-2.026,10.692-7.486c0.08-0.38,0.458-0.621,0.834-0.54c0.38,0.082,0.622,0.454,0.541,0.834
			C118.475,97.981,114.702,101.076,109.203,101.076"/>
		<path fill="#323435" d="M91.92,101.076c-5.5,0-9.271-3.095-10.467-8.689c-0.082-0.38,0.161-0.752,0.54-0.834
			c0.376-0.081,0.754,0.16,0.834,0.54c1.167,5.46,4.961,8.117,10.692,7.486c5.475-0.602,6.311-7.144,6.343-7.421
			c0.045-0.384,0.395-0.661,0.78-0.616c0.385,0.046,0.661,0.394,0.617,0.778c-0.008,0.079-0.992,7.932-7.586,8.658
			C93.072,101.044,92.487,101.076,91.92,101.076"/>
		<path fill="#323435" d="M108.783,85.654c0,2.766-3.522,8.329-8.222,8.329c-4.698,0-8.221-5.563-8.221-8.329
			c0-2.763,3.523-4.146,8.221-4.146C105.26,81.509,108.783,82.892,108.783,85.654"/>
		<path fill="#FFFFFF" d="M83.09,61.508c-6.461,0-11.7,5.239-11.7,11.7c0,6.464,5.239,11.702,11.7,11.702
			c6.463,0,11.702-5.238,11.702-11.702C94.792,66.747,89.553,61.508,83.09,61.508"/>
		
			<circle fill="none" stroke="#000000" stroke-width="0.7997" stroke-linecap="round" stroke-linejoin="round" cx="83.09" cy="73.209" r="11.701"/>
		<path fill="#9B6730" d="M89.275,73.407c0,3.31-2.682,5.992-5.991,5.992c-3.309,0-5.99-2.683-5.99-5.992
			c0-3.308,2.682-5.99,5.99-5.99C86.593,67.417,89.275,70.1,89.275,73.407"/>
		<path fill="#31323C" d="M87.67,73.407c0,2.424-1.963,4.387-4.387,4.387c-2.422,0-4.386-1.963-4.386-4.387
			c0-2.423,1.963-4.387,4.386-4.387C85.708,69.021,87.67,70.984,87.67,73.407"/>
		<path fill="#FFFFFF" d="M87.383,69.463c0,0.884-0.716,1.601-1.599,1.601c-0.883,0-1.599-0.717-1.599-1.601
			c0-0.883,0.716-1.599,1.599-1.599C86.667,67.864,87.383,68.58,87.383,69.463"/>
		<path fill="#FFFFFF" d="M120.252,61.585c-6.42-0.743-12.226,3.858-12.968,10.278s3.859,12.226,10.278,12.969
			c6.42,0.742,12.226-3.858,12.968-10.279C131.273,68.134,126.671,62.327,120.252,61.585"/>
		
			<circle fill="none" stroke="#000000" stroke-width="0.7997" stroke-linecap="round" stroke-linejoin="round" cx="118.907" cy="73.208" r="11.701"/>
		<path fill="#9B6730" d="M125.028,74.117c-0.38,3.287-3.353,5.643-6.639,5.262c-3.288-0.381-5.644-3.35-5.264-6.64
			c0.381-3.285,3.354-5.641,6.641-5.26C123.053,67.857,125.408,70.83,125.028,74.117"/>
		<path fill="#31323C" d="M123.435,73.933c-0.279,2.406-2.456,4.132-4.861,3.853c-2.407-0.276-4.133-2.454-3.854-4.861
			c0.278-2.406,2.455-4.132,4.861-3.854C121.988,69.349,123.714,71.525,123.435,73.933"/>
		<path fill="#FFFFFF" d="M123.603,69.982c-0.102,0.877-0.895,1.506-1.772,1.404c-0.878-0.103-1.506-0.896-1.405-1.772
			c0.102-0.877,0.895-1.507,1.773-1.405C123.075,68.312,123.704,69.104,123.603,69.982"/>
	</g>
</g>
</svg>
