<?xml version="1.0" encoding="utf-8"?>
<!-- Generator: Adobe Illustrator 16.0.0, SVG Export Plug-In . SVG Version: 6.00 Build 0)  -->
<!DOCTYPE svg PUBLIC "-//W3C//DTD SVG 1.1//EN" "http://www.w3.org/Graphics/SVG/1.1/DTD/svg11.dtd">
<svg version="1.1" xmlns="http://www.w3.org/2000/svg" xmlns:xlink="http://www.w3.org/1999/xlink" x="0px" y="0px"
	 width="213.23px" height="252px" viewBox="0 0 213.23 252" enable-background="new 0 0 213.23 252" xml:space="preserve">
<g id="图层_2">
	<rect x="-14.385" y="-17" fill="#E7E7E7" width="242" height="286"/>
</g>
<g id="图层_3">
	<ellipse opacity="0.1" cx="108.615" cy="211" rx="54.5" ry="8"/>
</g>
<g id="图层_4">
	<g>
		<defs>
			<rect id="SVGID_1_" x="-14.906" y="2.232" width="249.622" height="249.622"/>
		</defs>
		<clipPath id="SVGID_2_">
			<use xlink:href="#SVGID_1_"  overflow="visible"/>
		</clipPath>
		<g clip-path="url(#SVGID_2_)">
			<defs>
				<rect id="SVGID_3_" x="-14.906" y="2.232" width="249.622" height="249.622"/>
			</defs>
			<clipPath id="SVGID_4_">
				<use xlink:href="#SVGID_3_"  overflow="visible"/>
			</clipPath>
			<path clip-path="url(#SVGID_4_)" fill="#7BDF99" d="M179.867,122.639c-3.602,1.649-1.401,6.433-2.473,13.371
				c-0.401,2.604-1.264,5.512-3.07,8.671c-6.694,11.718-17.971,14.659-17.971,14.659l7.558,7.808
				c2.688-0.838,11.23-4.385,18.561-15.956c2.446-3.861,3.899-8.127,4.552-12.174c-0.004-0.003-0.01-0.005-0.013-0.007
				C188.733,129.009,184.965,120.307,179.867,122.639"/>
		</g>
		<g clip-path="url(#SVGID_2_)">
			<defs>
				<rect id="SVGID_5_" x="-14.906" y="2.232" width="249.622" height="249.622"/>
			</defs>
			<clipPath id="SVGID_6_">
				<use xlink:href="#SVGID_5_"  overflow="visible"/>
			</clipPath>
			<path clip-path="url(#SVGID_6_)" fill="none" stroke="#000000" stroke-width="0.5115" stroke-miterlimit="10" d="
				M179.867,122.639c-3.602,1.649-1.401,6.433-2.473,13.371c-0.401,2.604-1.264,5.512-3.07,8.671
				c-6.694,11.718-17.971,14.659-17.971,14.659l7.558,7.808c2.688-0.838,11.23-4.385,18.561-15.956
				c2.446-3.861,3.899-8.127,4.552-12.174c-0.004-0.003-0.01-0.005-0.013-0.007C188.733,129.009,184.965,120.307,179.867,122.639z"
				/>
		</g>
		<g clip-path="url(#SVGID_2_)">
			<defs>
				<rect id="SVGID_7_" x="-14.906" y="2.232" width="249.622" height="249.622"/>
			</defs>
			<clipPath id="SVGID_8_">
				<use xlink:href="#SVGID_7_"  overflow="visible"/>
			</clipPath>
			<path clip-path="url(#SVGID_8_)" fill="#F1F6E4" d="M144.996,202.636c0,0,8.828-8.984,14.675-20.631
				c9.18-18.28,13.513-41.493-17.796-35.779c1.593-6.335,2.8-12.531,3.126-18.23c0,0,0.75-0.695,2.796-2.23
				c0.819-0.614,3.07-1.534,3.07-1.534c-1.023,0-2.559-2.046-2.559-2.046c2.046-1.024,3.582-2.046,3.582-2.046
				c-2.559,0-4.604-3.07-4.604-3.07c1.022-1.534,3.581-21.484,3.581-21.484c2.557-1.022,5.627-4.603,5.627-4.603
				c-2.047,0-3.582-2.558-3.582-2.558c2.557,1.022,7.162-2.559,7.162-2.559c-2.557,0.512-7.673-3.067-7.673-3.067
				c4.093,0,10.742-3.582,10.742-3.582c-4.092,0-13.812-5.628-13.812-5.628c2.559,0,8.697-3.578,8.697-3.578
				c-2.165-0.229-4.125-0.661-5.866-1.191c1.143-1.799,11.419-18.35,7.054-24.897c-1.023-1.534-10.742-2.047-25.576,8.185
				l0.011,0.01c-4.08-2.389-9.538-4.355-16.875-5.146v-0.002c2.017-4.864-1.024-8.121-1.024-8.121
				c0.112,3.755-2.044,4.127-2.044,4.127c3.196-5.649-8.733-11.298-8.733-11.298s0.93,4.125-1.561,5.944
				c-2.49,1.822-4.125,4.61-2.862,6.506c0,0-1.783-0.113-1.97-2.564c0,0-2.772,2.284,0.486,5.729l-0.357,0.163
				c-5.756,0.989-10.204,2.741-13.646,4.794c-14.538-9.854-24.533-9.841-25.542-8.326c-4.448,6.671,6.301,23.721,7.108,24.983
				c-1.668,0.491-3.529,0.888-5.574,1.105c0,0,6.139,3.578,8.696,3.578c0,0-9.719,5.628-13.811,5.628c0,0,6.649,3.582,10.742,3.582
				c0,0-5.115,3.579-7.672,3.067c0,0,4.604,3.581,7.161,2.559c0,0-1.535,2.558-3.581,2.558c0,0,3.069,3.58,5.627,4.603
				c0,0,2.557,19.95,3.58,21.484c0,0-2.045,3.07-4.603,3.07c0,0,1.534,1.021,3.58,2.046c0,0-1.535,2.046-2.557,2.046
				c0,0,2.25,0.92,3.069,1.534c2.045,1.535,2.796,2.23,2.796,2.23c0.326,5.699,1.608,11.82,3.2,18.155
				c-31.309-5.715-27.049,17.574-17.871,35.854c5.848,11.646,14.675,20.631,14.675,20.631c-4.466-1.702-13.508-0.548-14.835,4.58
				c-1.228,4.747,7.472,4.483,7.472,4.483h23.273l-0.049-0.541c1.117,4.704,2.456,7.733,4.261,7.855
				c5.378,0.369,5.682-6.606,7.383-25.038c1.585-17.167,1.694-35.806,1.702-38.287h12.204c0.007,2.481,0.116,21.12,1.701,38.287
				c1.701,18.432,2.005,25.407,7.382,25.038c2.087-0.141,3.552-4.167,4.771-10.181l-0.264,2.866h23.273c0,0,8.701,0.264,7.473-4.483
				C158.506,202.088,149.463,200.934,144.996,202.636 M117.021,47.128l-0.279-0.087c0.01-0.024,0.022-0.048,0.033-0.072
				L117.021,47.128z M67.072,68.646c-0.006,0.045-0.011,0.087-0.016,0.129c-0.069,0.02-0.135,0.043-0.206,0.064L67.072,68.646z"/>
		</g>
		<g clip-path="url(#SVGID_2_)">
			<defs>
				<path id="SVGID_9_" d="M67.072,68.646c-0.006,0.045-0.011,0.087-0.016,0.129c-0.069,0.02-0.135,0.043-0.206,0.064L67.072,68.646
					z M116.742,47.041c0.01-0.025,0.022-0.048,0.033-0.072l0.245,0.159L116.742,47.041z M103.413,37.619
					c-2.49,1.822-4.126,4.608-2.862,6.506c0,0-1.783-0.113-1.97-2.564c0,0-2.772,2.284,0.485,5.729l-0.357,0.163
					c-5.756,0.989-10.205,2.741-13.647,4.796c-14.537-9.855-24.531-9.843-25.541-8.328c-4.448,6.671,6.301,23.721,7.108,24.983
					c-1.668,0.491-3.529,0.888-5.574,1.105c0,0,6.139,3.578,8.695,3.578c0,0-9.718,5.628-13.811,5.628c0,0,6.65,3.582,10.742,3.582
					c0,0-5.114,3.579-7.672,3.067c0,0,4.604,3.581,7.162,2.559c0,0-1.535,2.558-3.581,2.558c0,0,3.069,3.58,5.626,4.603
					c0,0,2.557,19.95,3.58,21.484c0,0-2.046,3.07-4.603,3.07c0,0,1.534,1.021,3.58,2.046c0,0-1.535,2.046-2.557,2.046
					c0,0,2.25,0.92,3.07,1.534c2.045,1.535,2.795,2.23,2.795,2.23c0.327,5.699,1.608,11.82,3.2,18.155
					c-31.309-5.715-27.05,17.574-17.87,35.855c5.847,11.646,14.675,20.63,14.675,20.63c-4.466-1.702-13.509-0.548-14.836,4.58
					c-1.229,4.747,7.473,4.483,7.473,4.483h23.273l-0.051-0.54c1.118,4.703,2.458,7.732,4.262,7.854
					c5.378,0.369,5.682-6.606,7.384-25.039c1.584-17.166,1.694-35.805,1.701-38.286h12.205c0.007,2.481,0.116,21.12,1.701,38.286
					c1.701,18.433,2.006,25.408,7.384,25.039c2.086-0.141,3.55-4.167,4.771-10.181l-0.264,2.866h23.273c0,0,8.701,0.264,7.473-4.483
					c-1.327-5.128-10.371-6.282-14.837-4.58c0,0,8.828-8.984,14.675-20.63c9.18-18.281,13.513-41.494-17.796-35.78
					c1.593-6.335,2.8-12.531,3.126-18.23c0,0,0.75-0.695,2.795-2.23c0.818-0.614,3.07-1.534,3.07-1.534
					c-1.023,0-2.559-2.046-2.559-2.046c2.046-1.024,3.582-2.046,3.582-2.046c-2.559,0-4.604-3.07-4.604-3.07
					c1.022-1.534,3.581-21.484,3.581-21.484c2.557-1.022,5.627-4.603,5.627-4.603c-2.047,0-3.582-2.558-3.582-2.558
					c2.557,1.022,7.162-2.559,7.162-2.559c-2.557,0.512-7.673-3.067-7.673-3.067c4.093,0,10.742-3.582,10.742-3.582
					c-4.092,0-13.812-5.628-13.812-5.628c2.559,0,8.697-3.578,8.697-3.578c-2.165-0.229-4.125-0.661-5.866-1.191
					c1.143-1.799,11.419-18.35,7.054-24.897c-1.023-1.534-10.741-2.047-25.575,8.185l0.01,0.01
					c-4.079-2.389-9.538-4.355-16.875-5.146v-0.002c2.017-4.864-1.025-8.12-1.025-8.12c0.113,3.754-2.044,4.126-2.044,4.126
					c3.196-5.649-8.733-11.298-8.733-11.298S105.902,35.8,103.413,37.619"/>
			</defs>
			<clipPath id="SVGID_10_">
				<use xlink:href="#SVGID_9_"  overflow="visible"/>
			</clipPath>
			<path clip-path="url(#SVGID_10_)" fill="#7BDF99" d="M120.646,37.016c0,0-2.557,54.733,48.596,44.502
				c51.151-10.229,3.069-47.571,3.069-47.571s-31.714-17.903-42.457-10.741C119.112,30.367,120.646,37.016,120.646,37.016"/>
			<path clip-path="url(#SVGID_10_)" fill="#D6E9D4" d="M98.651,36.502c0,0-12.277,59.339-42.456,42.459
				c-30.18-16.88-1.535-54.734-0.512-54.222C56.707,25.251,98.651,36.502,98.651,36.502"/>
			<path clip-path="url(#SVGID_10_)" fill="#7BD999" d="M66.937,101.468c0,0,19.438,4.604,16.369,15.346s-2.558,19.438,0,25.065
				c2.558,5.627-9.207,17.903-14.834,13.81c-5.627-4.092-13.3-30.181-13.3-30.181C59.264,120.394,66.937,101.468,66.937,101.468"/>
			<path clip-path="url(#SVGID_10_)" fill="#7BDF99" d="M152.873,111.699c-1.023,1.022-25.576-8.698-20.972,17.901
				c4.603,26.6,13.299,19.438,19.437,26.6c6.138,7.16,3.07,18.415,14.834,19.437c11.765,1.024,18.415-20.972,15.857-29.155
				C179.472,138.297,152.873,111.699,152.873,111.699"/>
		</g>
		<g clip-path="url(#SVGID_2_)">
			<defs>
				<rect id="SVGID_11_" x="-14.906" y="2.232" width="249.622" height="249.622"/>
			</defs>
			<clipPath id="SVGID_12_">
				<use xlink:href="#SVGID_11_"  overflow="visible"/>
			</clipPath>
			<path clip-path="url(#SVGID_12_)" fill="#D6E9D4" d="M102.232,152.109c1.703,2.979,1.534,5.113,1.534,12.276
				c0,4.959-0.101,11.573-0.416,16.524c-0.59,9.307-3.023,29.677-3.165,30.534h19.438c-0.812,0-3.581-47.038-3.581-51.152
				c0-7.16,2.441-4.396,3.069-9.207c1.534-11.764-3.069-11.764-8.185-9.719c-1.501,0.601-2.91-2.285-4.092-2.045
				C101.116,140.469,100.186,148.527,102.232,152.109"/>
			<g opacity="0.05" clip-path="url(#SVGID_12_)">
				<g>
					<defs>
						<rect id="SVGID_13_" x="63.868" y="49.293" width="16.88" height="17.449"/>
					</defs>
					<clipPath id="SVGID_14_">
						<use xlink:href="#SVGID_13_"  overflow="visible"/>
					</clipPath>
					<path clip-path="url(#SVGID_14_)" d="M72.052,66.684c-2.229,1.205-8.184-16.88-8.184-17.391c0,0,8.696,2.557,16.88,6.138
						c-0.084-0.035-4.603,3.068-7.242,9.786C73.301,65.741,73,66.173,72.052,66.684"/>
				</g>
			</g>
			<g opacity="0.05" clip-path="url(#SVGID_12_)">
				<g>
					<defs>
						<rect id="SVGID_15_" x="138.55" y="49.293" width="16.88" height="17.449"/>
					</defs>
					<clipPath id="SVGID_16_">
						<use xlink:href="#SVGID_15_"  overflow="visible"/>
					</clipPath>
					<path clip-path="url(#SVGID_16_)" d="M147.246,66.684c2.23,1.205,8.185-16.88,8.185-17.391c0,0-8.695,2.557-16.88,6.138
						c0.083-0.035,4.603,3.068,7.241,9.786C145.999,65.741,146.299,66.173,147.246,66.684"/>
				</g>
			</g>
		</g>
		<g clip-path="url(#SVGID_2_)">
			<defs>
				<rect id="SVGID_17_" x="-14.906" y="2.232" width="249.622" height="249.622"/>
			</defs>
			<clipPath id="SVGID_18_">
				<use xlink:href="#SVGID_17_"  overflow="visible"/>
			</clipPath>
			
				<path clip-path="url(#SVGID_18_)" fill="none" stroke="#000000" stroke-width="0.5115" stroke-linecap="round" stroke-linejoin="round" stroke-miterlimit="10" d="
				M100.442,48.523c-5.315-4.123-1.862-6.963-1.862-6.963c0.188,2.451,1.97,2.564,1.97,2.564c-1.263-1.897,0.372-4.685,2.862-6.506
				c2.49-1.819,1.561-5.944,1.561-5.944s11.929,5.648,8.733,11.298c0,0,2.156-0.372,2.043-4.126c0,0,3.042,3.256,1.025,8.12
				c-0.201,0.486-0.454,0.989-0.764,1.505"/>
			
				<path clip-path="url(#SVGID_18_)" fill="none" stroke="#000000" stroke-width="0.5115" stroke-linecap="round" stroke-miterlimit="10" d="
				M85.608,52.616c-14.835-10.229-25.064-10.229-26.087-8.695c-4.62,6.93,7.16,25.064,7.16,25.064"/>
			
				<path clip-path="url(#SVGID_18_)" fill="none" stroke="#000000" stroke-width="0.5115" stroke-linecap="round" stroke-miterlimit="10" d="
				M133.641,52.105c14.834-10.231,24.552-9.719,25.575-8.185c4.619,6.93-7.161,25.064-7.161,25.064"/>
			
				<path clip-path="url(#SVGID_18_)" fill="none" stroke="#000000" stroke-width="0.5115" stroke-linecap="round" stroke-miterlimit="10" d="
				M76.401,63.872c0,0-5.628,5.113-15.346,6.138c0,0,6.139,3.578,8.695,3.578c0,0-9.718,5.628-13.811,5.628
				c0,0,6.65,3.582,10.742,3.582c0,0-5.114,3.579-7.672,3.067c0,0,4.604,3.581,7.162,2.559c0,0-1.535,2.558-3.581,2.558
				c0,0,3.069,3.58,5.626,4.603c0,0,2.557,19.95,3.58,21.484c0,0-2.046,3.07-4.603,3.07c0,0,1.534,1.021,3.58,2.046
				c0,0-1.535,2.046-2.557,2.046c0,0,2.25,0.92,3.07,1.534c2.045,1.535,2.795,2.23,2.795,2.23c0.327,5.699,1.608,11.82,3.2,18.155
				c-31.309-5.715-27.051,17.574-17.87,35.854c5.847,11.646,14.675,20.631,14.675,20.631c-4.466-1.702-13.509-0.548-14.836,4.58
				c-1.229,4.747,7.473,4.483,7.473,4.483h23.273"/>
			
				<path clip-path="url(#SVGID_18_)" fill="none" stroke="#000000" stroke-width="0.5115" stroke-linecap="round" stroke-miterlimit="10" d="
				M142.682,63.872c0,0,5.626,5.113,15.346,6.138c0,0-6.138,3.578-8.697,3.578c0,0,9.72,5.628,13.812,5.628
				c0,0-6.649,3.582-10.742,3.582c0,0,5.116,3.579,7.673,3.067c0,0-4.604,3.581-7.162,2.559c0,0,1.534,2.558,3.582,2.558
				c0,0-3.07,3.58-5.627,4.603c0,0-2.559,19.95-3.581,21.484c0,0,2.045,3.07,4.604,3.07c0,0-1.535,1.021-3.582,2.046
				c0,0,1.535,2.046,2.559,2.046c0,0-2.252,0.92-3.07,1.534c-2.045,1.535-2.795,2.23-2.795,2.23
				c-0.327,5.699-1.534,11.896-3.126,18.23c31.309-5.714,26.976,17.499,17.796,35.78c-5.847,11.646-14.675,20.63-14.675,20.63
				c4.467-1.702,13.51-0.547,14.836,4.58c1.228,4.747-7.473,4.483-7.473,4.483h-23.273"/>
			
				<path clip-path="url(#SVGID_18_)" fill="none" stroke="#000000" stroke-width="0.5115" stroke-linecap="round" stroke-miterlimit="10" d="
				M73.402,65.877c1.149-2.464,5.474-15.202,25.741-18.503"/>
			
				<path clip-path="url(#SVGID_18_)" fill="none" stroke="#000000" stroke-width="0.5115" stroke-linecap="round" stroke-miterlimit="10" d="
				M116.775,46.969c22.866,2.466,27.557,16.326,28.761,18.908"/>
			
				<path clip-path="url(#SVGID_18_)" fill="none" stroke="#000000" stroke-width="0.5115" stroke-linecap="round" stroke-miterlimit="10" d="
				M141.875,146.226c-2.248,8.938-5.41,17.568-7.098,26.764c-3.581,19.524-4.819,45.656-10.197,46.024
				c-5.378,0.369-5.683-6.606-7.383-25.038c-1.702-18.434-1.702-38.568-1.702-38.568"/>
			
				<path clip-path="url(#SVGID_18_)" fill="none" stroke="#000000" stroke-width="0.5115" stroke-linecap="round" stroke-miterlimit="10" d="
				M103.292,155.407c0,0,0,20.135-1.702,38.568c-1.701,18.432-2.005,25.407-7.383,25.038c-5.377-0.368-6.617-26.5-10.198-46.024
				c-1.661-9.048-4.465-18.253-6.695-27.063"/>
			<polyline clip-path="url(#SVGID_18_)" fill="none" stroke="#000000" stroke-width="0.5115" stroke-miterlimit="10" points="
				100.36,211.699 109.98,211.699 119.6,211.699 			"/>
		</g>
		<g clip-path="url(#SVGID_2_)">
			<defs>
				<rect id="SVGID_19_" x="-14.906" y="2.232" width="249.622" height="249.622"/>
			</defs>
			<clipPath id="SVGID_20_">
				<use xlink:href="#SVGID_19_"  overflow="visible"/>
			</clipPath>
			<g opacity="0.05" clip-path="url(#SVGID_20_)">
				<g>
					<defs>
						<rect id="SVGID_21_" x="22.605" y="32.185" width="179.094" height="242.185"/>
					</defs>
					<clipPath id="SVGID_22_">
						<use xlink:href="#SVGID_21_"  overflow="visible"/>
					</clipPath>
					<g clip-path="url(#SVGID_22_)">
						<defs>
							<path id="SVGID_23_" d="M144.996,203.146c0,0,8.828-8.984,14.675-20.629c9.18-18.283,13.513-41.495-17.796-35.781
								c1.593-6.333,2.8-12.529,3.126-18.23c0,0,0.75-0.694,2.795-2.229c0.818-0.614,3.07-1.535,3.07-1.535
								c-1.023,0-2.559-2.046-2.559-2.046c2.046-1.025,3.582-2.046,3.582-2.046c-2.559,0-4.604-3.07-4.604-3.07
								c1.022-1.535,3.581-21.483,3.581-21.483c2.557-1.022,5.627-4.604,5.627-4.604c-2.047,0-3.582-2.559-3.582-2.559
								c2.557,1.023,7.162-2.558,7.162-2.558c-2.557,0.512-7.673-3.069-7.673-3.069c4.093,0,10.742-3.58,10.742-3.58
								c-4.092,0-13.812-5.625-13.812-5.625c2.559,0,8.697-3.582,8.697-3.582c-5.662-0.596-9.931-2.58-12.512-4.132h0.02
								c-1.201-2.574-5.87-16.347-28.537-18.881c-0.073-0.043-0.137-0.082-0.191-0.112c1.947-4.818-1.058-8.037-1.058-8.037
								c0.113,3.755-2.044,4.126-2.044,4.126c3.196-5.649-8.733-11.3-8.733-11.3s0.929,4.126-1.561,5.946
								c-2.49,1.822-4.125,4.607-2.862,6.505c0,0-1.783-0.113-1.97-2.563c0,0-2.779,2.29,0.499,5.741l-0.165,0.114
								c-9.995,1.673-16.083,5.648-19.812,9.522c-2.118,2.2-3.477,4.368-4.363,6.061c-0.685,1.313-1.086,2.34-1.338,2.878h0.165
								c-2.581,1.552-6.851,3.536-12.512,4.132c0,0,6.139,3.582,8.695,3.582c0,0-9.718,5.625-13.811,5.625
								c0,0,6.65,3.58,10.742,3.58c0,0-5.114,3.581-7.672,3.069c0,0,4.604,3.581,7.162,2.558c0,0-1.535,2.559-3.581,2.559
								c0,0,3.069,3.581,5.626,4.604c0,0,2.557,19.948,3.58,21.483c0,0-2.046,3.07-4.603,3.07c0,0,1.534,1.021,3.58,2.046
								c0,0-1.535,2.046-2.557,2.046c0,0,2.25,0.921,3.07,1.535c2.045,1.534,2.795,2.229,2.795,2.229
								c0.327,5.701,1.608,11.822,3.2,18.156c-31.309-5.714-27.051,17.572-17.87,35.855c5.847,11.645,14.675,20.629,14.675,20.629
								c-4.466-1.701-13.509-0.547-14.836,4.581c-1.229,4.746,7.473,4.484,7.473,4.484h23.273l-0.051-0.541
								c1.118,4.703,2.458,7.733,4.262,7.854c5.378,0.37,5.682-6.605,7.384-25.038c1.587-17.193,1.694-35.864,1.701-38.298
								l12.204,0.006c0.008,2.458,0.116,21.112,1.701,38.292c1.701,18.433,2.006,25.408,7.384,25.038
								c2.086-0.143,3.55-4.168,4.771-10.181l-0.264,2.867h23.273c0,0,8.701,0.262,7.473-4.484
								C158.506,202.6,149.463,201.445,144.996,203.146"/>
						</defs>
						<clipPath id="SVGID_24_">
							<use xlink:href="#SVGID_23_"  overflow="visible"/>
						</clipPath>
						<path clip-path="url(#SVGID_24_)" d="M94.559,43.666c0,0-39.388,16.88-12.788,103.84c0,0-53.197-7.164-3.58,56.266
							c0,0-25.577-0.512-10.742,12.788c14.833,13.3,88.749-0.256,88.749-0.256s6.138-13.812-15.858-12.277
							c0,0,51.92-64.705-4.092-54.73c0,0,30.947-77.498-13.299-102.817l29.157-8.185c0,0,37.852,79.286,38.875,82.356
							c1.022,3.066,18.414,140.668,6.649,140.156s-32.738,34.271-100.77-5.626c-68.032-39.9-75.193-23.02-74.17-47.062
							c1.023-24.041,19.438-134.017,20.461-139.134C44.174,63.872,94.559,43.666,94.559,43.666"/>
					</g>
				</g>
			</g>
		</g>
		
			<line clip-path="url(#SVGID_2_)" fill="none" stroke="#393C3D" stroke-width="1.023" stroke-linecap="round" stroke-miterlimit="10" x1="106.507" y1="108.117" x2="112.646" y2="108.117"/>
		<g clip-path="url(#SVGID_2_)">
			<defs>
				<rect id="SVGID_25_" x="-14.906" y="2.232" width="249.622" height="249.622"/>
			</defs>
			<clipPath id="SVGID_26_">
				<use xlink:href="#SVGID_25_"  overflow="visible"/>
			</clipPath>
			<path clip-path="url(#SVGID_26_)" fill="#3C3729" d="M116.545,83.026c0.003,1.979-2.746,6.852-7.129,6.859
				c-4.384,0.009-7.15-4.925-7.154-6.834c-0.006-3.045,3.19-3.785,7.134-3.792C113.341,79.252,116.54,79.979,116.545,83.026"/>
		</g>
		<g clip-path="url(#SVGID_2_)">
			<defs>
				<rect id="SVGID_27_" x="-14.906" y="2.232" width="249.622" height="249.622"/>
			</defs>
			<clipPath id="SVGID_28_">
				<use xlink:href="#SVGID_27_"  overflow="visible"/>
			</clipPath>
			<path clip-path="url(#SVGID_28_)" fill="#FFFFFF" d="M88.561,58.499c-6.507,0-11.781,5.275-11.781,11.78
				c0,6.506,5.274,11.783,11.781,11.783s11.78-5.277,11.78-11.783C100.34,63.774,95.067,58.499,88.561,58.499"/>
			
				<circle clip-path="url(#SVGID_28_)" fill="none" stroke="#000000" stroke-width="0.8051" stroke-linecap="round" stroke-linejoin="round" cx="88.561" cy="70.281" r="11.782"/>
			<path clip-path="url(#SVGID_28_)" fill="#F7DF5A" d="M100.003,71.544c0,4.942-4.008,8.951-8.952,8.951
				c-4.943,0-8.952-4.009-8.952-8.951c0-4.945,4.008-8.952,8.952-8.952C95.995,62.592,100.003,66.599,100.003,71.544"/>
			<path clip-path="url(#SVGID_28_)" fill="#31323C" d="M99.094,71.738c0,4.349-3.525,7.873-7.872,7.873
				c-4.348,0-7.872-3.524-7.872-7.873c0-4.347,3.524-7.87,7.872-7.87C95.569,63.868,99.094,67.392,99.094,71.738"/>
			<path clip-path="url(#SVGID_28_)" fill="#FFFFFF" d="M96.161,63.489c0,1.765-1.43,3.194-3.194,3.194s-3.195-1.43-3.195-3.194
				c0-1.763,1.431-3.194,3.195-3.194S96.161,61.727,96.161,63.489"/>
			<path clip-path="url(#SVGID_28_)" fill="#FFFFFF" d="M130.247,58.499c-6.506,0-11.78,5.275-11.78,11.78
				c0,6.506,5.274,11.783,11.78,11.783c6.507,0,11.781-5.277,11.781-11.783C142.027,63.774,136.753,58.499,130.247,58.499"/>
			
				<circle clip-path="url(#SVGID_28_)" fill="none" stroke="#000000" stroke-width="0.8051" stroke-linecap="round" stroke-linejoin="round" cx="130.247" cy="70.281" r="11.782"/>
			<path clip-path="url(#SVGID_28_)" fill="#F7DF5A" d="M136.833,71.544c0,4.942-4.008,8.951-8.951,8.951
				c-4.945,0-8.952-4.009-8.952-8.951c0-4.945,4.007-8.952,8.952-8.952C132.825,62.592,136.833,66.599,136.833,71.544"/>
			<path clip-path="url(#SVGID_28_)" fill="#31323C" d="M135.923,71.738c0,4.349-3.524,7.873-7.872,7.873
				c-4.347,0-7.872-3.524-7.872-7.873c0-4.347,3.525-7.87,7.872-7.87C132.398,63.868,135.923,67.392,135.923,71.738"/>
			<path clip-path="url(#SVGID_28_)" fill="#FFFFFF" d="M132.991,63.489c0,1.765-1.429,3.194-3.193,3.194
				c-1.766,0-3.195-1.43-3.195-3.194c0-1.763,1.429-3.194,3.195-3.194C131.562,60.295,132.991,61.727,132.991,63.489"/>
		</g>
	</g>
</g>
</svg>
