<?xml version="1.0" encoding="utf-8"?>
<!-- Generator: Adobe Illustrator 16.0.0, SVG Export Plug-In . SVG Version: 6.00 Build 0)  -->
<!DOCTYPE svg PUBLIC "-//W3C//DTD SVG 1.1//EN" "http://www.w3.org/Graphics/SVG/1.1/DTD/svg11.dtd">
<svg version="1.1" xmlns="http://www.w3.org/2000/svg" xmlns:xlink="http://www.w3.org/1999/xlink" x="0px" y="0px" width="350px"
	 height="350px" viewBox="0 0 350 350" enable-background="new 0 0 350 350" xml:space="preserve">
<g id="图层_1">
	<circle fill="#D4E7ED" cx="174.5" cy="178" r="130"/>
</g>
<g id="图层_2">
	<g>
		<defs>
			<circle id="SVGID_1_" cx="175" cy="177.75" r="130.25"/>
		</defs>
		<clipPath id="SVGID_2_">
			<use xlink:href="#SVGID_1_"  overflow="visible"/>
		</clipPath>
		<g clip-path="url(#SVGID_2_)">
			<g>
				<defs>
					<rect id="SVGID_3_" x="17.782" y="7.636" width="333.993" height="465.387"/>
				</defs>
				<clipPath id="SVGID_4_">
					<use xlink:href="#SVGID_3_"  overflow="visible"/>
				</clipPath>
				<rect x="351.775" y="8.484" clip-path="url(#SVGID_4_)" fill="#DCD2BB" width="333.991" height="465.385"/>
			</g>
			<g>
				<defs>
					<rect id="SVGID_5_" x="17.782" y="7.636" width="333.993" height="465.387"/>
				</defs>
				<clipPath id="SVGID_6_">
					<use xlink:href="#SVGID_5_"  overflow="visible"/>
				</clipPath>
				<path clip-path="url(#SVGID_6_)" fill="#3C3629" d="M330.468,324.374c-13.61-54.146-82.459-27.778-82.459-27.778l1.34,14.276
					c0.956-0.546,11.723-2.997,22.67-1.522c10.483,1.414,21.134,6.43,23.49,20.178c2.167,12.627-0.106,19.781-4.209,23.675
					c3.905-0.187,7.11,0.757,0.408,6.241c0,0,13.71-4.555,2.966,3.481c0,0,14.784,1.635,0.171,4.729c0,0,14.529,1.161,3.309,4.598
					c0,0,7.404-0.591,6.601,2.901C322.258,369.709,337.414,352.01,330.468,324.374"/>
			</g>
			<g>
				<defs>
					<path id="SVGID_7_" d="M248.007,296.596l1.342,14.276c0.954-0.546,11.721-2.997,22.67-1.522
						c10.483,1.414,21.134,6.43,23.49,20.178c2.167,12.627-0.106,19.781-4.209,23.675c3.905-0.187,7.11,0.757,0.408,6.239
						c0,0,13.71-4.555,2.966,3.483c0,0,14.784,1.635,0.171,4.729c0,0,14.529,1.161,3.309,4.598c0,0,7.402-0.591,6.601,2.901
						c17.504-5.443,32.66-23.143,25.716-50.776c-6.896-27.43-27.967-34.2-47.081-34.2
						C264.771,290.176,248.007,296.596,248.007,296.596"/>
				</defs>
				<clipPath id="SVGID_8_">
					<use xlink:href="#SVGID_7_"  overflow="visible"/>
				</clipPath>
				<g opacity="0.55" clip-path="url(#SVGID_8_)">
					<g>
						<defs>
							<rect id="SVGID_9_" x="258.65" y="270.536" width="87.927" height="120.862"/>
						</defs>
						<clipPath id="SVGID_10_">
							<use xlink:href="#SVGID_9_"  overflow="visible"/>
						</clipPath>
						<path clip-path="url(#SVGID_10_)" fill="#3C3629" d="M272.684,311.886c0,0,4.411-8.817,0.734-18.37
							c0,0,65.449-6.934,52.897,55.832c-2.938,14.695-22.391,25.46-38.2,23.511c-13.901-1.709-24.685-11.243-25.714-19.835
							c0,0-7.347,4.407-1.472,14.693c5.878,10.285,29.387,29.385,45.549,22.038c16.165-7.345,32.327-17.631,36.733-35.263
							c4.407-17.629,7.345-58.771-10.286-70.524c-17.631-11.755-48.484-16.164-54.362-11.755
							c-5.88,4.408-13.978,9.049-14.337,14.075c-0.356,5.024-0.356,22.657,1.112,24.127
							C266.808,311.886,272.684,311.886,272.684,311.886"/>
					</g>
				</g>
			</g>
			<g>
				<defs>
					<rect id="SVGID_11_" x="17.782" y="7.636" width="333.993" height="465.387"/>
				</defs>
				<clipPath id="SVGID_12_">
					<use xlink:href="#SVGID_11_"  overflow="visible"/>
				</clipPath>
				<path clip-path="url(#SVGID_12_)" fill="#F8F4EB" d="M298.153,372.251c11.221-3.437-3.309-4.598-3.309-4.598
					c14.613-3.094-0.171-4.729-0.171-4.729c10.744-8.036-2.966-3.481-2.966-3.481c6.702-5.484,3.497-6.428-0.408-6.241
					c-8.781,8.329-25.944,1.703-25.944,1.703c3.655,19.403,22.608,25.466,39.398,20.247
					C305.558,371.66,298.153,372.251,298.153,372.251"/>
			</g>
			<g>
				<defs>
					<path id="SVGID_13_" d="M291.3,353.202c-8.781,8.329-25.944,1.703-25.944,1.703c3.66,19.403,22.608,25.466,39.398,20.247
						c0.802-3.492-6.601-2.901-6.601-2.901c11.221-3.437-3.309-4.598-3.309-4.598c14.613-3.094-0.171-4.729-0.171-4.729
						c10.744-8.038-2.966-3.483-2.966-3.483c6.208-5.082,3.916-6.262,0.44-6.262C291.872,353.18,291.589,353.188,291.3,353.202"/>
				</defs>
				<clipPath id="SVGID_14_">
					<use xlink:href="#SVGID_13_"  overflow="visible"/>
				</clipPath>
				<g opacity="0.45" clip-path="url(#SVGID_14_)">
					<g>
						<defs>
							<rect id="SVGID_15_" x="258.343" y="352.353" width="53.557" height="37.758"/>
						</defs>
						<clipPath id="SVGID_16_">
							<use xlink:href="#SVGID_15_"  overflow="visible"/>
						</clipPath>
						<path clip-path="url(#SVGID_16_)" fill="#F8F4EB" d="M309.419,367.717c0,0-7.349,8.815-22.04,4.407
							c-14.695-4.407-18.368-12.488-24.243-18.364c-5.876-5.879-6.61,8.079-0.734,15.426c5.875,7.347,24.978,23.51,32.324,20.569
							c7.345-2.938,13.225-2.938,16.162-7.345C313.825,378.002,309.419,367.717,309.419,367.717"/>
					</g>
				</g>
			</g>
			<g>
				<defs>
					<rect id="SVGID_17_" x="17.782" y="7.636" width="333.993" height="465.387"/>
				</defs>
				<clipPath id="SVGID_18_">
					<use xlink:href="#SVGID_17_"  overflow="visible"/>
				</clipPath>
				<g clip-path="url(#SVGID_18_)">
					<text transform="matrix(1 0 0 1 18.146 -12.3052)" fill="#F8F7F3" font-family="'MStiffHeiPRC-Bold'" font-size="93.0648">导图</text>
				</g>
			</g>
			<g>
				<defs>
					<rect id="SVGID_19_" x="17.782" y="7.636" width="333.993" height="465.387"/>
				</defs>
				<clipPath id="SVGID_20_">
					<use xlink:href="#SVGID_19_"  overflow="visible"/>
				</clipPath>
				<path clip-path="url(#SVGID_20_)" fill="none" stroke="#050000" stroke-width="0.8477" stroke-miterlimit="10" d="
					M330.468,324.374c-13.61-54.146-82.459-27.778-82.459-27.778l1.34,14.278c0.956-0.548,11.723-2.999,22.67-1.524
					c10.483,1.416,21.134,6.43,23.49,20.178c2.167,12.627-0.106,19.781-4.209,23.675c-8.781,8.329-25.944,1.703-25.944,1.703
					c3.66,19.403,22.608,25.466,39.398,20.247C322.258,369.709,337.414,352.01,330.468,324.374z"/>
			</g>
			<g>
				<defs>
					<rect id="SVGID_21_" x="17.782" y="7.636" width="333.993" height="465.387"/>
				</defs>
				<clipPath id="SVGID_22_">
					<use xlink:href="#SVGID_21_"  overflow="visible"/>
				</clipPath>
				<path clip-path="url(#SVGID_22_)" fill="#F8F4EB" d="M125.662,134.618c0,0,3.69-55.926,12.42-56.631
					s20.477,47.701,20.477,47.701L125.662,134.618z"/>
				<path clip-path="url(#SVGID_22_)" fill="#979089" d="M132.434,131.155c0,0,4.942-41.417,6.856-41.655
					c1.917-0.236,12.222,34.78,12.222,34.78L132.434,131.155z"/>
				<path clip-path="url(#SVGID_22_)" fill="#F8F4EB" d="M227.189,134.618c0,0-3.69-55.926-12.418-56.631
					c-8.731-0.706-20.479,47.701-20.479,47.701L227.189,134.618z"/>
				<path clip-path="url(#SVGID_22_)" fill="#979089" d="M220.418,131.155c0,0-4.94-41.417-6.856-41.655
					c-1.916-0.236-12.22,34.78-12.22,34.78L220.418,131.155z"/>
				<path clip-path="url(#SVGID_22_)" fill="none" stroke="#040000" stroke-width="1.6954" stroke-miterlimit="10" d="
					M125.662,134.618c0,0,3.69-55.926,12.42-56.631s20.477,47.701,20.477,47.701L125.662,134.618z"/>
				<path clip-path="url(#SVGID_22_)" fill="none" stroke="#040000" stroke-width="1.6954" stroke-miterlimit="10" d="
					M227.189,134.618c0,0-3.69-55.926-12.418-56.631c-8.731-0.706-20.479,47.701-20.479,47.701L227.189,134.618z"/>
			</g>
			<path fill="#C5BFB8" d="M163.35,300.905v-18.013h-33.693c-3.04-0.722-5.9-1.292-8.598-1.731
				c1.202,4.817,2.521,9.727,3.864,14.725c2.786,10.356,5.665,21.065,7.585,31.522c1.763,9.607,3.178,20.162,4.546,30.369
				c1.82,13.561,3.354,24.446,5.179,32.365h20.154c0.936-5.748,1.633-13.384,2.512-23.015c0.149-1.641,0.306-3.344,0.468-5.11
				c2.31-25.035,2.732-52.241,2.811-61.112H163.35z"/>
			<path fill="#C5BFB8" d="M223.195,282.893h-33.69v18.013h-4.83c0.078,8.871,0.501,36.077,2.812,61.112
				c0.161,1.763,0.315,3.461,0.463,5.097c0.883,9.638,1.58,17.278,2.518,23.028h20.152c1.822-7.919,3.36-18.805,5.179-32.365
				c1.368-10.207,2.783-20.764,4.546-30.369c1.918-10.457,4.799-21.166,7.585-31.522c1.344-4.998,2.665-9.907,3.867-14.725
				C229.094,281.601,226.238,282.171,223.195,282.893"/>
			<g opacity="0.07">
				<g>
					<defs>
						<rect id="SVGID_23_" x="172.612" y="117.37" width="71.952" height="286.845"/>
					</defs>
					<clipPath id="SVGID_24_">
						<use xlink:href="#SVGID_23_"  overflow="visible"/>
					</clipPath>
					<path clip-path="url(#SVGID_24_)" fill="#040000" d="M244.564,158.102c0,0-5.326-4.072-7.517-8.772
						c-2.195-4.7-11.361-31.959-59.774-31.959c-1.597,0-3.147,0.033-4.661,0.092c44.343,1.685,52.987,27.325,55.109,31.867
						c2.192,4.7,7.519,8.772,7.519,8.772c-2.665,0.939-9.398-0.784-9.398-0.784c0.313,4.7,6.577,11.122,6.577,11.122
						s-5.368,3.972-4.07,9.245c4.292,17.471,2.976,40.573,2.663,48.563c-0.315,7.989,2.191,19.894,2.191,19.894
						c-4.072-2.192-5.17-4.542-5.17-4.542c0.156,5.017,2.663,13.785,2.663,13.785c-2.663-2.037-4.104-3.11-4.104-3.11
						c-1.301,22.771-11.801,49.608-16.572,75.642c-5.088,27.736-7.328,63.517-13.477,73.555c1.434,2.039,3.309,2.896,5.897,2.72
						c8.912-0.609,10.964-43.918,16.901-76.274c4.776-26.033,15.273-52.871,16.576-75.642c0,0,1.44,1.073,4.104,3.11
						c0,0-2.507-8.769-2.663-13.785c0,0,1.096,2.35,5.17,4.542c0,0-2.507-11.904-2.195-19.894
						c0.314-7.989,1.634-31.092-2.663-48.563c-1.296-5.273,4.075-9.245,4.075-9.245s-6.266-6.421-6.582-11.122
						C235.164,157.318,241.901,159.042,244.564,158.102"/>
				</g>
			</g>
			<g opacity="0.1">
				<g>
					<defs>
						<rect id="SVGID_25_" x="109.137" y="116.144" width="134.578" height="286.84"/>
					</defs>
					<clipPath id="SVGID_26_">
						<use xlink:href="#SVGID_25_"  overflow="visible"/>
					</clipPath>
					<path clip-path="url(#SVGID_26_)" fill="#A4A4A4" d="M242.8,156.116c0.021,0.308,0.07,0.62,0.138,0.938
						c0.281-0.045,0.55-0.101,0.777-0.183C243.715,156.871,243.362,156.598,242.8,156.116"/>
					<path clip-path="url(#SVGID_26_)" fill="#A4A4A4" d="M118.532,156.116c1.619-1.385,4.972-4.528,6.601-8.018
						c2.127-4.559,10.817-30.345,55.533-31.881c-1.38-0.047-2.79-0.072-4.238-0.072c-48.417,0-57.579,27.253-59.771,31.953
						c-2.195,4.7-7.521,8.772-7.521,8.772c2.663,0.944,9.4-0.782,9.4-0.782C118.537,156.1,118.532,156.11,118.532,156.116"/>
					<path clip-path="url(#SVGID_26_)" fill="#F8F4EB" d="M142.836,326.688c-4.776-26.032-15.276-52.871-16.577-75.646
						c0,0-1.44,1.075-4.104,3.112c0,0,2.508-8.772,2.663-13.784c0,0-1.096,2.349-5.17,4.544c0,0,2.507-11.909,2.195-19.896
						c-0.313-7.989-1.633-31.094,2.663-48.565c1.297-5.27-4.074-9.24-4.074-9.24s6.268-6.426,6.581-11.124
						c0,0-5.619,1.43-8.62,0.964c-0.985,4.565-6.438,10.16-6.438,10.16s5.371,3.97,4.072,9.24
						c-4.294,17.472-2.975,40.576-2.66,48.565c0.312,7.986-2.195,19.896-2.195,19.896c4.074-2.195,5.17-4.544,5.17-4.544
						c-0.156,5.012-2.663,13.784-2.663,13.784c2.663-2.037,4.104-3.112,4.104-3.112c1.303,22.774,11.8,49.613,16.576,75.646
						c5.934,32.355,7.986,75.662,16.9,76.273c2.318,0.158,4.066-0.517,5.438-2.125C150.25,391.693,148.026,354.999,142.836,326.688"
						/>
				</g>
			</g>
			<path fill="#F8F4EB" d="M235.911,374.929c0,0,14.628-14.893,24.319-34.194c15.212-30.293,22.27-68.887-29.616-59.417
				c2.638-10.496,4.764-20.643,5.305-30.089c0,0,1.438,1.077,4.104,3.112c0,0-2.507-8.771-2.665-13.784c0,0,1.098,2.352,5.172,4.542
				c0,0-2.507-11.905-2.195-19.894c0.314-7.991,1.634-31.092-2.663-48.565c-1.296-5.27,4.075-9.242,4.075-9.242
				s-6.266-6.424-6.582-11.122c0,0,6.737,1.723,9.4,0.784c0,0-5.326-4.072-7.517-8.772c-2.195-4.7-11.361-31.959-59.774-31.959
				s-57.577,27.259-59.771,31.959c-2.195,4.7-7.52,8.772-7.52,8.772c2.663,0.939,9.4-0.784,9.4-0.784
				c-0.313,4.698-6.579,11.122-6.579,11.122s5.367,3.972,4.07,9.242c-4.294,17.474-2.975,40.574-2.663,48.565
				c0.316,7.988-2.191,19.894-2.191,19.894c4.073-2.19,5.17-4.542,5.17-4.542c-0.155,5.014-2.662,13.784-2.662,13.784
				c2.662-2.035,4.101-3.112,4.101-3.112c0.54,9.446,2.665,19.593,5.304,30.089c-51.887-9.47-44.827,29.124-29.615,59.417
				c9.689,19.302,24.322,34.194,24.322,34.194c-7.402-2.821-22.389-0.909-24.59,7.588c-2.035,7.868,12.385,7.432,12.385,7.432
				h38.567c1.863,7.898,4.091,12.994,7.104,13.199c5.291,0.361,7.617-3.562,9.224-13.199h15.943h15.94
				c1.61,9.638,3.939,13.561,9.228,13.199c3.017-0.205,5.242-5.301,7.104-13.199h38.568c0,0,14.418,0.437,12.383-7.432
				C258.298,374.02,243.312,372.107,235.911,374.929"/>
			<rect x="17.782" y="7.636" fill="none" width="333.993" height="465.387"/>
			<g>
				<defs>
					<path id="SVGID_27_" d="M176.437,112.477c-9.776,0.019-19.067,1.744-27.487,4.828c-1.42,0.521-2.811,1.083-4.181,1.682
						c-2.421,1.055-4.765,2.214-7.005,3.49c-6.605,3.769-12.379,8.477-17.068,13.883c-2.713,3.129-5.054,6.491-6.983,10.047
						c-1.018,1.875-1.919,3.801-2.696,5.779c-2.248,5.715-3.479,11.823-3.469,18.17c0.01,5.667,2.435,14.17,6.811,23.429
						c0.072,0.039,0.136,0.084,0.207,0.123l0.013-0.067c0.727-0.314,1.428-0.665,2.107-1.047c0.224-0.125,0.433-0.276,0.654-0.41
						c0.449-0.269,0.898-0.535,1.327-0.831c0.248-0.174,0.484-0.367,0.729-0.548c0.384-0.285,0.775-0.568,1.146-0.874
						c0.24-0.198,0.472-0.418,0.708-0.625c0.359-0.314,0.722-0.622,1.066-0.956c0.23-0.218,0.447-0.449,0.669-0.673
						c0.345-0.345,0.689-0.686,1.02-1.043c0.214-0.231,0.419-0.472,0.628-0.707c0.33-0.374,0.665-0.743,0.984-1.129
						c0.191-0.233,0.38-0.47,0.566-0.703c0.335-0.413,0.667-0.821,0.991-1.246c0.16-0.209,0.313-0.42,0.472-0.63
						c0.349-0.465,0.697-0.933,1.038-1.409c0.119-0.164,0.234-0.332,0.354-0.498c0.385-0.546,0.769-1.092,1.148-1.647
						c0.037-0.054,0.074-0.111,0.11-0.162c2.592-3.812,5.019-7.755,7.583-11.273c0.045-0.064,0.093-0.127,0.138-0.189
						c0.396-0.538,0.798-1.063,1.2-1.582c0.078-0.101,0.158-0.201,0.237-0.302c0.382-0.48,0.768-0.95,1.161-1.409
						c0.099-0.115,0.201-0.232,0.304-0.351c0.38-0.431,0.764-0.849,1.153-1.253c0.119-0.123,0.238-0.242,0.359-0.363
						c0.384-0.388,0.77-0.755,1.163-1.112c0.136-0.119,0.271-0.238,0.404-0.353c0.394-0.338,0.792-0.663,1.195-0.968
						c0.145-0.109,0.292-0.215,0.441-0.32c0.406-0.292,0.816-0.568,1.237-0.823c0.158-0.097,0.32-0.183,0.48-0.275
						c0.422-0.242,0.853-0.466,1.292-0.667c0.168-0.078,0.345-0.147,0.517-0.219c0.443-0.185,0.895-0.359,1.358-0.501
						c0.181-0.055,0.365-0.103,0.55-0.151c0.472-0.127,0.948-0.242,1.437-0.327c0.192-0.033,0.39-0.053,0.587-0.078
						c0.5-0.066,1.005-0.119,1.526-0.138c0.2-0.006,0.41,0.004,0.611,0.004c0.537,0.002,1.074,0.014,1.635,0.065
						c0.207,0.021,0.425,0.06,0.634,0.086c0.574,0.076,1.155,0.162,1.756,0.289c0.214,0.049,0.436,0.115,0.652,0.168
						c0.62,0.154,1.244,0.32,1.895,0.533c0.213,0.07,0.437,0.166,0.649,0.246c0.678,0.238,1.358,0.495,2.064,0.802
						c0.201,0.088,0.416,0.205,0.621,0.297c0.741,0.345,1.488,0.7,2.268,1.12c0.181,0.097,0.373,0.218,0.558,0.32
						c0.821,0.458,1.653,0.934,2.52,1.481c0.127,0.08,0.267,0.181,0.394,0.263c0.94,0.603,1.894,1.237,2.885,1.949
						c-1.649-17.287-2.175-34.175,3.217-34.249v0.01c5.423-0.008,4.959,16.919,3.369,34.243c0.988-0.716,1.94-1.354,2.876-1.959
						c0.127-0.084,0.265-0.183,0.394-0.263c0.862-0.55,1.695-1.03,2.514-1.49c0.183-0.103,0.375-0.226,0.556-0.324
						c0.777-0.423,1.522-0.782,2.265-1.125c0.203-0.096,0.417-0.211,0.62-0.299c0.706-0.314,1.387-0.573,2.058-0.813
						c0.218-0.082,0.441-0.177,0.652-0.249c0.65-0.217,1.272-0.383,1.892-0.537c0.216-0.056,0.439-0.125,0.652-0.175
						c0.602-0.131,1.18-0.217,1.754-0.293c0.212-0.031,0.427-0.07,0.634-0.088c0.559-0.055,1.098-0.072,1.632-0.074
						c0.205,0,0.414-0.01,0.617-0.006c0.519,0.017,1.025,0.07,1.526,0.131c0.192,0.027,0.392,0.043,0.585,0.076
						c0.49,0.08,0.968,0.195,1.436,0.32c0.185,0.051,0.374,0.094,0.552,0.15c0.466,0.144,0.917,0.312,1.36,0.496
						c0.173,0.072,0.349,0.14,0.518,0.22c0.44,0.197,0.874,0.423,1.296,0.661c0.158,0.09,0.322,0.176,0.477,0.271
						c0.427,0.256,0.839,0.531,1.245,0.818c0.149,0.106,0.297,0.211,0.441,0.32c0.405,0.306,0.804,0.626,1.197,0.964
						c0.138,0.115,0.271,0.234,0.406,0.355c0.395,0.351,0.786,0.722,1.168,1.102c0.123,0.121,0.242,0.242,0.36,0.367
						c0.393,0.402,0.778,0.819,1.157,1.25c0.103,0.117,0.203,0.232,0.306,0.349c0.395,0.458,0.784,0.923,1.166,1.403
						c0.082,0.101,0.159,0.201,0.237,0.3c0.406,0.515,0.809,1.04,1.207,1.58c0.047,0.063,0.092,0.125,0.139,0.187
						c2.575,3.513,5.019,7.445,7.622,11.245c0.039,0.056,0.076,0.109,0.112,0.164c0.382,0.552,0.766,1.1,1.153,1.644
						c0.119,0.164,0.238,0.332,0.355,0.499c0.344,0.474,0.693,0.939,1.044,1.405c0.158,0.207,0.315,0.42,0.474,0.627
						c0.328,0.421,0.659,0.831,0.997,1.241c0.187,0.234,0.376,0.47,0.568,0.7c0.32,0.384,0.656,0.753,0.987,1.126
						c0.211,0.234,0.416,0.479,0.63,0.706c0.336,0.354,0.681,0.695,1.021,1.038c0.228,0.224,0.447,0.455,0.675,0.671
						c0.347,0.332,0.71,0.642,1.07,0.952c0.236,0.207,0.468,0.424,0.708,0.619c0.376,0.308,0.768,0.587,1.153,0.874
						c0.244,0.179,0.478,0.371,0.73,0.544c0.429,0.295,0.878,0.562,1.327,0.828c0.22,0.132,0.433,0.283,0.658,0.406
						c0.682,0.378,1.383,0.729,2.109,1.038l0.011,0.068c0.075-0.039,0.137-0.082,0.211-0.119c4.341-9.277,6.735-17.789,6.725-23.456
						c-0.012-6.352-1.264-12.453-3.536-18.161c-0.784-1.974-1.691-3.896-2.717-5.767c-1.94-3.549-4.294-6.903-7.017-10.02
						c-4.71-5.394-10.502-10.08-17.12-13.822c-2.246-1.272-4.594-2.421-7.019-3.467c-1.37-0.591-2.766-1.153-4.185-1.664
						c-8.433-3.057-17.73-4.751-27.504-4.733c-0.172,0-0.341,0.01-0.513,0.012v-0.017c-0.172-0.002-0.345-0.01-0.517-0.01
						C176.448,112.477,176.442,112.477,176.437,112.477"/>
				</defs>
				<clipPath id="SVGID_28_">
					<use xlink:href="#SVGID_27_"  overflow="visible"/>
				</clipPath>
				<path clip-path="url(#SVGID_28_)" fill="#3C3629" d="M166.954,297.929c0,0,0,33.369-2.819,63.917
					c-2.82,30.546-3.325,42.108-12.235,41.497c-8.914-0.611-10.968-43.92-16.903-76.275c-4.775-26.032-15.273-52.869-16.574-75.644
					c0,0-1.44,1.075-4.104,3.114c0,0,2.505-8.772,2.663-13.786c0,0-1.1,2.349-5.17,4.542c0,0,2.507-11.905,2.193-19.896
					c-0.313-7.988-1.635-31.091,2.663-48.563c1.296-5.271-4.072-9.24-4.072-9.24s6.266-6.425,6.577-11.124
					c0,0-6.735,1.725-9.4,0.784c0,0,5.33-4.075,7.521-8.774c2.192-4.7,11.357-31.956,59.772-31.956
					c48.414,0,57.577,27.255,59.768,31.956c2.195,4.7,7.521,8.774,7.521,8.774c-2.663,0.941-9.398-0.784-9.398-0.784
					c0.312,4.698,6.579,11.124,6.579,11.124s-5.371,3.97-4.074,9.24c4.296,17.472,2.979,40.574,2.663,48.563
					c-0.313,7.991,2.193,19.896,2.193,19.896c-4.07-2.193-5.168-4.542-5.168-4.542c0.156,5.014,2.661,13.786,2.661,13.786
					c-2.661-2.039-4.104-3.114-4.104-3.114c-1.299,22.774-11.799,49.611-16.574,75.644c-5.934,32.355-7.989,75.664-16.901,76.275
					s-9.414-10.951-12.235-41.497c-2.819-30.548-2.819-63.917-2.819-63.917"/>
			</g>
			<g>
				<defs>
					<rect id="SVGID_29_" x="17.782" y="7.636" width="333.993" height="465.387"/>
				</defs>
				<clipPath id="SVGID_30_">
					<use xlink:href="#SVGID_29_"  overflow="visible"/>
				</clipPath>
				<path clip-path="url(#SVGID_30_)" fill="#3C3629" d="M221.23,317.045c0.032-3.687,0.345-6.557-0.979-7.681
					c-4.794-4.085-18.207-9.474-21.777-17.481c-3.364-7.544-2.65-14.855,2.005-20.577c3.74-4.607,13.313-10.742,34.316-7.665
					c-3.394,14.41-3.394,19.496-8.479,36.45C224.681,305.538,223.064,312.083,221.23,317.045"/>
				<path clip-path="url(#SVGID_30_)" fill="#3C3629" d="M133.07,317.045c-0.078-3.687-1.631-6.456-0.32-7.601
					c4.745-4.138,18.091-9.693,21.562-17.744c3.271-7.585,2.467-14.886-2.256-20.553c-3.8-4.557-10.738-10.838-31.701-7.507
					c1.694,13.563,5.084,27.126,8.477,36.45C130.813,305.549,131.175,312.105,133.07,317.045"/>
				<path clip-path="url(#SVGID_30_)" fill="none" stroke="#040000" stroke-width="0.8477" stroke-miterlimit="10" d="
					M209.544,390.372h38.567c0,0,14.421,0.436,12.386-7.431c-2.199-8.497-17.186-10.413-24.586-7.591
					c0,0,14.628-14.89,24.319-34.191c15.212-30.299,22.27-68.89-29.616-59.415c2.638-10.498,4.764-20.643,5.305-30.089
					c0,0,1.44,1.073,4.104,3.11c0,0-2.507-8.772-2.663-13.786c0,0,1.096,2.351,5.17,4.544c0,0-2.507-11.907-2.195-19.894
					c0.314-7.991,1.634-31.094-2.663-48.565c-1.296-5.27,4.075-9.242,4.075-9.242s-6.266-6.421-6.582-11.122
					c0,0,6.737,1.724,9.4,0.784c0,0-5.326-4.074-7.517-8.774c-2.195-4.698-11.361-31.957-59.774-31.957
					s-57.577,27.259-59.771,31.957c-2.195,4.7-7.52,8.774-7.52,8.774c2.663,0.94,9.4-0.784,9.4-0.784
					c-0.313,4.7-6.579,11.122-6.579,11.122s5.367,3.972,4.07,9.242c-4.296,17.472-2.975,40.574-2.663,48.565
					c0.316,7.986-2.191,19.894-2.191,19.894c4.07-2.193,5.168-4.544,5.168-4.544c-0.153,5.014-2.66,13.786-2.66,13.786
					c2.66-2.037,4.101-3.11,4.101-3.11c0.54,9.446,2.665,19.591,5.304,30.089c-51.889-9.475-44.827,29.116-29.615,59.415
					c9.689,19.302,24.322,34.191,24.322,34.191c-7.402-2.822-22.389-0.906-24.59,7.591c-2.035,7.866,12.385,7.431,12.385,7.431
					h38.567"/>
				<polyline clip-path="url(#SVGID_30_)" fill="none" stroke="#040000" stroke-width="0.8477" stroke-miterlimit="10" points="
					161.33,390.372 177.273,390.372 193.214,390.372 				"/>
				<path clip-path="url(#SVGID_30_)" fill="none" stroke="#040000" stroke-width="0.8477" stroke-miterlimit="10" d="
					M230.979,281.865c-3.726,14.816-8.966,29.115-11.762,44.354c-5.936,32.357-7.987,75.664-16.903,76.275
					c-8.91,0.611-9.414-10.949-12.233-41.497c-2.821-30.548-2.821-63.916-2.821-63.916"/>
				<path clip-path="url(#SVGID_30_)" fill="none" stroke="#040000" stroke-width="0.8477" stroke-miterlimit="10" d="
					M167.038,297.082c0,0,0,33.368-2.821,63.916c-2.818,30.548-3.323,42.106-12.235,41.497c-8.912-0.611-10.968-43.918-16.9-76.275
					c-2.752-14.992-7.398-30.252-11.098-44.847"/>
			</g>
			<g>
				<defs>
					<path id="SVGID_31_" d="M117.503,149.135c-2.193,4.7-7.52,8.771-7.52,8.771c2.663,0.944,9.398-0.782,9.398-0.782
						c-0.312,4.7-6.577,11.124-6.577,11.124s5.367,3.97,4.07,9.24c-4.296,17.472-2.975,40.572-2.663,48.564
						c0.314,7.989-2.191,19.895-2.191,19.895c4.07-2.191,5.168-4.542,5.168-4.542c-0.153,5.012-2.662,13.784-2.662,13.784
						c2.662-2.035,4.104-3.11,4.104-3.11c0.538,9.447,2.661,19.593,5.302,30.089c-51.889-9.471-44.827,29.122-29.615,59.417
						c9.689,19.299,24.322,34.191,24.322,34.191c-7.402-2.82-22.389-0.908-24.586,7.589c-2.039,7.868,12.381,7.431,12.381,7.431
						h38.567c1.86,7.898,4.091,12.995,7.104,13.2c5.291,0.361,7.617-3.563,9.224-13.2h15.943l0,0h15.94
						c1.61,9.637,3.937,13.562,9.228,13.2c3.017-0.205,5.244-5.302,7.103-13.2h38.57c0,0,14.418,0.438,12.383-7.431
						c-2.199-8.497-17.186-10.409-24.586-7.589c0,0,14.628-14.893,24.319-34.191c15.212-30.295,22.27-68.888-29.612-59.417
						c2.634-10.496,4.76-20.642,5.301-30.089c0,0,1.44,1.075,4.104,3.11c0,0-2.507-8.772-2.663-13.784c0,0,1.096,2.351,5.17,4.542
						c0,0-2.507-11.905-2.195-19.895c0.314-7.992,1.634-31.093-2.663-48.564c-1.296-5.271,4.075-9.24,4.075-9.24
						s-6.266-6.423-6.58-11.124c0,0,6.735,1.726,9.398,0.782c0,0-5.326-4.07-7.517-8.771c-2.195-4.7-11.361-31.958-59.774-31.958
						S119.698,144.435,117.503,149.135"/>
				</defs>
				<clipPath id="SVGID_32_">
					<use xlink:href="#SVGID_31_"  overflow="visible"/>
				</clipPath>
				<g opacity="0.05" clip-path="url(#SVGID_32_)">
					<g>
						<defs>
							<rect id="SVGID_33_" x="57.199" y="99.559" width="222.946" height="337.223"/>
						</defs>
						<clipPath id="SVGID_34_">
							<use xlink:href="#SVGID_33_"  overflow="visible"/>
						</clipPath>
						<path clip-path="url(#SVGID_34_)" fill="#040000" d="M159.347,108.512c0,0-61.879,33.059-30.516,178.864
							c0,0-82.651-18.225-4.238,90.703c0,0-41.236,4.118-21.192,18.649c55.523,40.266,153.01-2.119,153.01-2.119
							s11.866-16.105-27.13-16.105c0,0,77.144-103.419-5.084-89.856c0,0,33.908-144.956-25.431-175.473
							c-13.84-7.119,40.688-5.084,40.688-5.084l40.69,244.982l-11.019,61.881c0,0-188.19,33.063-191.582,17.802
							c-3.391-15.258-20.346-81.378-20.346-81.378S75.85,202.18,75.002,194.553c-0.849-7.628,16.105-94.094,17.801-94.941
							C94.497,98.765,159.347,108.512,159.347,108.512"/>
					</g>
				</g>
			</g>
			<g>
				<defs>
					<rect id="SVGID_35_" x="17.782" y="7.636" width="333.993" height="465.387"/>
				</defs>
				<clipPath id="SVGID_36_">
					<use xlink:href="#SVGID_35_"  overflow="visible"/>
				</clipPath>
				<g clip-path="url(#SVGID_36_)">
					<g>
						<defs>
							<rect id="SVGID_37_" x="130.342" y="163.559" width="92.168" height="70.014"/>
						</defs>
						<clipPath id="SVGID_38_">
							<use xlink:href="#SVGID_37_"  overflow="visible"/>
						</clipPath>
						<path clip-path="url(#SVGID_38_)" fill="#C4C4C3" d="M211.193,182.307c-7.539,0.58-10.771,4.145-13.257-7.353
							c-2.486-11.495-21.511-11.392-21.511-11.392s-19.024-0.103-21.511,11.392c-2.486,11.498-5.716,7.933-13.257,7.353
							c-4.038-0.31-13.463,1.522-10.874,18.3c2.864,18.544,21.495,10.908,25.301,18.466c3.803,7.561,11.673,14.501,20.341,14.501
							s16.538-6.94,20.344-14.501c3.804-7.558,22.438,0.078,25.298-18.466C224.656,183.829,215.231,181.997,211.193,182.307"/>
					</g>
				</g>
				<path clip-path="url(#SVGID_36_)" fill="#C4C4C3" d="M211.193,178.915c-7.539,0.581-10.771,4.145-13.257-7.351
					c-2.486-11.499-21.511-11.395-21.511-11.395s-19.024-0.104-21.511,11.395c-2.486,11.495-5.716,7.932-13.257,7.351
					c-4.038-0.31-13.463,1.522-10.874,18.3c2.864,18.547,21.495,10.908,25.301,18.467c3.803,7.56,11.673,14.498,20.341,14.498
					s16.538-6.938,20.344-14.498c3.804-7.559,22.438,0.08,25.298-18.467C224.656,180.438,215.231,178.605,211.193,178.915"/>
				<path clip-path="url(#SVGID_36_)" fill="#AE4323" d="M176.428,224.208c-10.894,0-12.629-15.638-12.513-26.578
					c5.082-0.285,9.023-4.553,12.513-10.408c3.098,5.074,6.534,9.655,12.511,10.558
					C189.037,208.714,187.269,224.208,176.428,224.208"/>
				<path clip-path="url(#SVGID_36_)" fill="#393C3D" d="M190.867,198.393c-0.948,0-1.925-0.055-2.935-0.166
					c-11.017-1.215-12.657-14.332-12.674-14.466c-0.074-0.644,0.39-1.23,1.034-1.303c0.644-0.08,1.227,0.388,1.3,1.032
					c0.058,0.48,1.459,11.393,10.599,12.401c9.57,1.059,15.916-3.387,17.869-12.512c0.136-0.635,0.764-1.04,1.396-0.903
					c0.632,0.134,1.036,0.762,0.902,1.396C206.36,193.219,200.056,198.393,190.867,198.393"/>
				<path clip-path="url(#SVGID_36_)" fill="#393C3D" d="M161.984,198.393c-9.187,0-15.493-5.174-17.489-14.521
					c-0.136-0.634,0.269-1.262,0.902-1.396c0.63-0.137,1.258,0.269,1.396,0.903c1.949,9.125,8.299,13.566,17.867,12.512
					c9.147-1.009,10.545-11.938,10.599-12.403c0.075-0.643,0.66-1.107,1.305-1.028c0.644,0.074,1.104,0.657,1.029,1.301
					c-0.016,0.134-1.657,13.251-12.674,14.466C163.909,198.338,162.933,198.393,161.984,198.393"/>
				<path clip-path="url(#SVGID_36_)" fill="#393C3D" d="M190.163,172.621c0,4.62-5.886,13.916-13.737,13.916
					s-13.739-9.296-13.739-13.916c0-4.618,5.888-6.926,13.739-6.926S190.163,168.003,190.163,172.621"/>
			</g>
			<g>
				<defs>
					<path id="SVGID_39_" d="M162.687,172.621c0,4.62,5.888,13.916,13.741,13.916c7.85,0,13.735-9.296,13.735-13.916
						c0-4.616-5.886-6.926-13.735-6.926C168.574,165.695,162.687,168.005,162.687,172.621"/>
				</defs>
				<clipPath id="SVGID_40_">
					<use xlink:href="#SVGID_39_"  overflow="visible"/>
				</clipPath>
				<g opacity="0.55" clip-path="url(#SVGID_40_)">
					<g>
						<defs>
							<rect id="SVGID_41_" x="158.817" y="166.357" width="34.281" height="25.922"/>
						</defs>
						<clipPath id="SVGID_42_">
							<use xlink:href="#SVGID_41_"  overflow="visible"/>
						</clipPath>
						<path clip-path="url(#SVGID_42_)" fill="#1B1C1E" d="M161.755,170.098c0,4.423,3.267,8.461,6.5,11.15
							c4.958,4.121,10.754,4.113,16.199,0.82c4.784-2.893,6.688-8.03,6.688-13.439c0-10.287,4.407,17.631,0,19.1
							c-4.411,1.469-22.04,7.349-24.979,2.938c-2.938-4.407-7.345-11.756-7.345-11.756L161.755,170.098z"/>
					</g>
				</g>
			</g>
			<g>
				<defs>
					<rect id="SVGID_43_" x="17.782" y="7.636" width="333.993" height="465.387"/>
				</defs>
				<clipPath id="SVGID_44_">
					<use xlink:href="#SVGID_43_"  overflow="visible"/>
				</clipPath>
				<path clip-path="url(#SVGID_44_)" fill="#FFFFFF" d="M141.231,136.487c-10.779,0-19.521,8.74-19.521,19.523
					c0,10.781,8.741,19.522,19.521,19.522c10.783,0,19.522-8.742,19.522-19.522C160.754,145.227,152.015,136.487,141.231,136.487"/>
				
					<circle clip-path="url(#SVGID_44_)" fill="none" stroke="#040000" stroke-width="1.3343" stroke-linecap="round" stroke-linejoin="round" cx="141.231" cy="156.01" r="19.523"/>
				<path clip-path="url(#SVGID_44_)" fill="#96662F" d="M151.553,156.342c0,5.519-4.475,9.993-9.997,9.993
					c-5.52,0-9.995-4.475-9.995-9.993c0-5.523,4.476-9.999,9.995-9.999C147.078,146.343,151.553,150.819,151.553,156.342"/>
				<path clip-path="url(#SVGID_44_)" fill="#30313C" d="M148.875,156.342c0,4.042-3.276,7.318-7.317,7.318
					c-4.044,0-7.32-3.276-7.32-7.318c0-4.043,3.276-7.32,7.32-7.32C145.599,149.022,148.875,152.298,148.875,156.342"/>
				<path clip-path="url(#SVGID_44_)" fill="#FFFFFF" d="M148.396,149.758c0,1.473-1.194,2.671-2.667,2.671
					c-1.474,0-2.669-1.198-2.669-2.671s1.195-2.669,2.669-2.669C147.201,147.089,148.396,148.285,148.396,149.758"/>
				<path clip-path="url(#SVGID_44_)" fill="#FFFFFF" d="M210.315,136.487c-10.78,0-19.522,8.74-19.522,19.523
					c0,10.781,8.742,19.522,19.522,19.522c10.783,0,19.523-8.742,19.523-19.522C229.839,145.227,221.099,136.487,210.315,136.487"/>
				
					<circle clip-path="url(#SVGID_44_)" fill="none" stroke="#040000" stroke-width="1.3343" stroke-linecap="round" stroke-linejoin="round" cx="210.315" cy="156.01" r="19.523"/>
				<path clip-path="url(#SVGID_44_)" fill="#96662F" d="M220.635,156.342c0,5.519-4.477,9.993-9.997,9.993
					c-5.519,0-9.993-4.475-9.993-9.993c0-5.523,4.475-9.999,9.993-9.999C216.158,146.343,220.635,150.819,220.635,156.342"/>
				<path clip-path="url(#SVGID_44_)" fill="#30313C" d="M217.958,156.342c0,4.042-3.276,7.318-7.32,7.318
					c-4.039,0-7.315-3.276-7.315-7.318c0-4.043,3.276-7.32,7.315-7.32C214.682,149.022,217.958,152.298,217.958,156.342"/>
				<path clip-path="url(#SVGID_44_)" fill="#FFFFFF" d="M217.478,149.758c0,1.473-1.191,2.671-2.669,2.671
					c-1.473,0-2.667-1.198-2.667-2.671s1.194-2.669,2.667-2.669C216.286,147.089,217.478,148.285,217.478,149.758"/>
			</g>
			<rect x="17.782" y="7.636" fill="none" width="333.993" height="465.387"/>
		</g>
	</g>
</g>
</svg>
