<svg width="15" height="15" viewBox="0 0 15 15" xmlns="http://www.w3.org/2000/svg"><g fill="none" fill-rule="evenodd"><path d="M8.12 4c-.8 1.16-.06 2.13-2.9 2.77-1.24.28-2.28.2-3.35 1-1.5 1.1-1.8 3.76-.26 5.15C5.2 16 11.5 12.1 12.4 6.22" fill="#CB6DE5"/><path d="M9 3.9c-.5 1.96-1.34 2.55-4.3 3.23-1.46.34-2.05.56-2.8 1.12-.95.74-.96 2.6.12 3.62 2.74 2.94 9.1-1.22 9.86-6.5.3-2.02-.1-2.66-.9-2.62-.8.03-1.85.72-1.97 1.15z" stroke="#000" stroke-width="1.75" opacity=".5" style="mix-blend-mode:soft-light"/><path d="M2.2 10.45C2.2 9 3.14 8.05 4.93 8" stroke="#FFF" stroke-linecap="round"/><path d="M8.26 3.6c-.8 1.2-.06 2.2-2.96 2.87-1.26.3-2.32.22-3.4 1.05-1.54 1.15-1.83 3.9-.28 5.34 3.64 3.2 10.08-.84 10.97-6.95" stroke="#31323D"/><path d="M11.76 2.4C12.4 1.28 13 1.02 13.54.97" stroke="#31323D" stroke-linecap="round"/><path d="M8.16 2.24c2.5-1.7 5.77.18 5.86 3.25.1 3.06-2.07.85-2.3-.38-1.3 1.74-3.07 1.23-2.18-1.14-1.06.56-3.7.3-1.38-1.74z" fill="#AAE350"/><path d="M8.7 2.26c2.33-1.32 4.8 0 5.1 3 .27 2.34-1.64.22-1.9-.74-1.06 1.42-2.68.98-1.96-1.1-.86.35-3.07.26-1.25-1.16z" stroke="#000" style="mix-blend-mode:soft-light"/><path d="M8.16 2.24c2.5-1.7 5.77.18 5.86 3.25.1 3.06-2.07.85-2.3-.38-1.3 1.74-3.07 1.23-2.18-1.14-1.06.56-3.7.3-1.38-1.74z" stroke="#31323D"/></g></svg>