<?xml version="1.0" encoding="utf-8"?>
<!-- Generator: Adobe Illustrator 16.0.0, SVG Export Plug-In . SVG Version: 6.00 Build 0)  -->
<!DOCTYPE svg PUBLIC "-//W3C//DTD SVG 1.1//EN" "http://www.w3.org/Graphics/SVG/1.1/DTD/svg11.dtd">
<svg version="1.1" xmlns="http://www.w3.org/2000/svg" xmlns:xlink="http://www.w3.org/1999/xlink" x="0px" y="0px" width="60px"
	 height="60px" viewBox="0 0 60 60" enable-background="new 0 0 60 60" xml:space="preserve">
<g id="图层_1">
	<circle fill="#EBC642" cx="30" cy="30" r="30"/>
</g>
<g id="图层_2">
	<g>
		<g>
			<defs>
				<path id="SVGID_1_" d="M3.298,9.835c0,0,5.672,25.936,9.317,33.11C16.26,50.117,25.8,54.102,30.464,54.102
					c4.663,0,11.638-1.486,17.619-11.156c5.981-9.674,12.152-38.522,12.152-38.522l-2.128-37.459L10.586-47.849L0.23,1.767
					L3.298,9.835z"/>
			</defs>
			<clipPath id="SVGID_2_">
				<use xlink:href="#SVGID_1_"  overflow="visible"/>
			</clipPath>
			<g clip-path="url(#SVGID_2_)">
				<defs>
					<rect id="SVGID_3_" x="-24.974" y="-2.472" width="111.601" height="111.601"/>
				</defs>
				<clipPath id="SVGID_4_">
					<use xlink:href="#SVGID_3_"  overflow="visible"/>
				</clipPath>
				<path clip-path="url(#SVGID_4_)" fill="#F8F4EC" d="M39.658,19.07c0,0,1.938-6.833,8.724-7.851c0,0,3.07,7.153-3.296,12.503"/>
				<g opacity="0.15" clip-path="url(#SVGID_4_)">
					<g>
						<defs>
							<rect id="SVGID_5_" x="40.772" y="13.083" width="6.701" height="8.991"/>
						</defs>
						<clipPath id="SVGID_6_">
							<use xlink:href="#SVGID_5_"  overflow="visible"/>
						</clipPath>
						<path clip-path="url(#SVGID_6_)" fill="#040000" d="M40.772,19.555c0,0,1.718-4.921,6.467-6.472c0,0,1.413,5.26-2.696,8.991
							L40.772,19.555z"/>
					</g>
				</g>
				<path clip-path="url(#SVGID_4_)" fill="#F8F4EC" d="M21.907,19.07c0,0-1.938-6.833-8.722-7.851c0,0-3.071,7.153,3.295,12.503"/>
				<g opacity="0.15" clip-path="url(#SVGID_4_)">
					<g>
						<defs>
							<rect id="SVGID_7_" x="14.093" y="13.083" width="6.7" height="8.991"/>
						</defs>
						<clipPath id="SVGID_8_">
							<use xlink:href="#SVGID_7_"  overflow="visible"/>
						</clipPath>
						<path clip-path="url(#SVGID_8_)" fill="#040000" d="M20.793,19.555c0,0-1.717-4.921-6.466-6.472c0,0-1.413,5.26,2.696,8.991
							L20.793,19.555z"/>
					</g>
				</g>
			</g>
			<path clip-path="url(#SVGID_2_)" fill="#F8F4EC" d="M55.675,71.754c0.694-2.412,1.238-5.211-0.163-7.484
				c-2.106-3.42-6.925-2.928-10.32-2.398c0.999-3.965,1.86-7.996,2.176-12.078c0.13-1.678,0.101-3.365,0.276-5.041
				c0.125-1.197,0.915-2.285,0.915-2.285s-0.687-0.23-0.661-0.783c0.333-0.109,0.625-0.338,0.81-0.637
				c-0.523-0.049-0.884-0.584-0.957-1.105c-0.072-0.521,0.062-1.047,0.116-1.57s0.01-1.104-0.35-1.49
				c1.085,0.234,2.292-0.336,2.798-1.324c-1.106-0.426-2.021-1.326-2.461-2.428c0.825,0.367,1.807,0.275,2.628-0.102
				c0.821-0.375,1.501-1.01,2.072-1.711c-1.899-0.131-3.719-1.139-4.835-2.679c0.351,0.027,0.84,0.107,1.236-0.289
				c-1.083-0.519-2.095-2.392-2.762-3.813c-2.209-4.711-7.444-6.603-12.331-7.123l0.044,0.585l-0.211-0.07
				c0.284-1.361,1.313-2.375,1.362-2.449c-1.372-0.229-2.013,0.503-2.013,0.503c-0.801-1.121-0.526-4.276-0.526-4.276
				c-1.578,1.258-2.035,3.773-2.035,3.773c-0.686-1.143-2.287-2.172-2.287-2.172c1.28,3.041,0.686,3.315,0.686,3.315
				c-0.915-0.457-2.287-0.754-2.287-0.754c1.921,2.401,0.961,3.042,0.961,3.042h0.276l-0.404,0.355l0.142-1.852
				c-4.886,0.52-10.123,2.412-12.332,7.123c-0.666,1.421-1.678,3.293-2.761,3.813c0.396,0.396,0.886,0.316,1.237,0.289
				c-1.118,1.54-2.938,2.548-4.835,2.679c0.571,0.701,1.25,1.336,2.072,1.711c0.821,0.377,1.802,0.469,2.628,0.102
				c-0.441,1.102-1.355,2.002-2.462,2.428c0.506,0.988,1.714,1.559,2.798,1.324c-0.358,0.387-0.404,0.967-0.35,1.49
				c0.054,0.523,0.189,1.049,0.116,1.57c-0.072,0.521-0.434,1.057-0.957,1.105c0.185,0.299,0.477,0.527,0.81,0.637
				c0.025,0.553-0.662,0.783-0.662,0.783s0.79,1.088,0.915,2.285c0.175,1.676,0.147,3.363,0.276,5.041
				c0.316,4.082,1.177,8.113,2.176,12.078c-3.396-0.529-8.213-1.021-10.32,2.398c-1.401,2.273-0.858,5.072-0.163,7.484
				c0.776,2.693,1.884,5.287,3.298,7.707c1.608,2.756,3.586,5.283,5.734,7.637c-0.01-0.008-0.006,0.004,0.023,0.025
				c-1.189-0.449-2.515-0.68-3.777-0.434c-1.021,0.199-2.804,1.127-2.934,2.406c-0.175,1.711,2.554,1.83,3.675,1.883
				c3.337,0.16,6.783,0.197,10.148,0.197l0.008-0.111c0.494,2.029,1.084,3.328,1.875,3.383c1.394,0.094,2.024-0.916,2.457-3.385
				h8.664c0.433,2.469,1.064,3.479,2.458,3.385c0.888-0.061,1.521-1.693,2.051-4.164l0.068,0.893c3.366,0,6.811-0.037,10.149-0.197
				c1.121-0.053,3.85-0.172,3.675-1.883c-0.131-1.279-1.913-2.207-2.934-2.406c-1.262-0.246-2.589-0.016-3.778,0.434
				c0.029-0.021,0.034-0.033,0.024-0.025c2.147-2.354,4.125-4.881,5.734-7.637C53.79,77.041,54.898,74.447,55.675,71.754"/>
			<path clip-path="url(#SVGID_2_)" fill="#F8F4EC" d="M27.57,17.414c-4.886,0.52-10.123,2.412-12.332,7.123
				c-0.666,1.421-1.678,3.293-2.761,3.813c0.396,0.396,0.886,0.316,1.237,0.289c-1.118,1.54-2.938,2.548-4.835,2.679
				c0.571,0.701,1.25,1.336,2.072,1.711c0.821,0.377,1.802,0.469,2.628,0.102c-0.441,1.102-1.355,2.002-2.462,2.428
				c0.507,0.988,1.714,1.559,2.798,1.324c-0.358,0.387-0.404,0.967-0.35,1.49c0.054,0.523,0.189,1.049,0.116,1.57
				c-0.072,0.521-0.434,1.057-0.957,1.105c0.185,0.299,0.477,0.527,0.81,0.637c0.025,0.553-0.662,0.783-0.662,0.783
				s0.79,1.088,0.915,2.285c0.175,1.676,0.147,3.363,0.276,5.041c0.316,4.082,1.177,8.113,2.176,12.078
				c-3.396-0.529-8.213-1.021-10.32,2.398c-1.401,2.273-0.858,5.072-0.163,7.484c0.776,2.693,1.884,5.287,3.298,7.707
				c1.608,2.756,3.586,5.283,5.734,7.637c-0.01-0.008-0.006,0.004,0.023,0.025c-1.189-0.449-2.515-0.68-3.777-0.434
				c-1.021,0.199-2.804,1.127-2.934,2.406c-0.175,1.711,2.554,1.83,3.675,1.883c3.337,0.16,6.783,0.197,10.148,0.197l0.008-0.111
				c0.494,2.029,1.084,3.328,1.875,3.383c1.394,0.094,2.024-0.916,2.457-3.385h8.664c0.433,2.469,1.064,3.479,2.458,3.385
				c0.888-0.061,1.521-1.693,2.051-4.164l0.068,0.893c3.366,0,6.812-0.037,10.149-0.197c1.121-0.053,3.85-0.172,3.675-1.883
				c-0.131-1.279-1.913-2.207-2.934-2.406c-1.262-0.246-2.588-0.016-3.778,0.434c0.029-0.021,0.034-0.033,0.024-0.025
				c2.147-2.354,4.125-4.881,5.734-7.637c1.412-2.42,2.521-5.014,3.297-7.707c0.694-2.412,1.238-5.211-0.163-7.484
				c-2.106-3.42-6.925-2.928-10.32-2.398c0.999-3.965,1.86-7.996,2.176-12.078c0.13-1.678,0.101-3.365,0.276-5.041
				c0.125-1.197,0.915-2.285,0.915-2.285s-0.687-0.23-0.661-0.783c0.333-0.109,0.625-0.338,0.81-0.637
				c-0.523-0.049-0.884-0.584-0.957-1.105c-0.072-0.521,0.062-1.047,0.116-1.57s0.01-1.104-0.35-1.49
				c1.085,0.234,2.292-0.336,2.798-1.324c-1.106-0.426-2.021-1.326-2.461-2.428c0.825,0.367,1.807,0.275,2.628-0.102
				c0.821-0.375,1.501-1.01,2.072-1.711c-1.899-0.131-3.719-1.139-4.835-2.679c0.351,0.027,0.84,0.107,1.236-0.289
				c-1.083-0.519-2.095-2.392-2.762-3.813c-2.209-4.711-7.444-6.603-12.331-7.123"/>
			<path clip-path="url(#SVGID_2_)" fill="#F8F4EC" d="M33.695,17.929c0.284-1.361,1.313-2.375,1.362-2.449
				c-1.372-0.229-2.013,0.503-2.013,0.503c-0.801-1.121-0.526-4.276-0.526-4.276c-1.578,1.258-2.035,3.773-2.035,3.773
				c-0.686-1.143-2.287-2.172-2.287-2.172c1.28,3.041,0.686,3.315,0.686,3.315c-0.915-0.457-2.287-0.754-2.287-0.754"/>
			<rect x="-24.974" y="-2.472" clip-path="url(#SVGID_2_)" fill="none" width="111.601" height="111.601"/>
			<g clip-path="url(#SVGID_2_)">
				<defs>
					<path id="SVGID_9_" d="M30.483,15.48c-0.686-1.143-2.287-2.172-2.287-2.172c1.28,3.041,0.686,3.315,0.686,3.315
						c-0.915-0.457-2.287-0.754-2.287-0.754c1.921,2.401,0.961,3.042,0.961,3.042h0.276l-0.404,0.356l0.142-1.852
						c-4.886,0.52-10.123,2.411-12.332,7.122c-0.666,1.421-1.678,3.293-2.761,3.813c0.396,0.396,0.886,0.316,1.237,0.289
						c-1.118,1.54-2.938,2.548-4.835,2.679c0.571,0.701,1.25,1.336,2.071,1.711c0.822,0.377,1.804,0.469,2.629,0.102
						c-0.441,1.102-1.354,2.002-2.462,2.428c0.506,0.988,1.714,1.559,2.798,1.324c-0.358,0.387-0.404,0.967-0.35,1.49
						c0.054,0.523,0.189,1.049,0.116,1.57c-0.072,0.521-0.434,1.057-0.957,1.105c0.185,0.299,0.477,0.527,0.81,0.637
						c0.025,0.553-0.662,0.783-0.662,0.783s0.79,1.088,0.915,2.285c0.175,1.676,0.147,3.363,0.276,5.041
						c0.316,4.082,1.177,8.113,2.176,12.078c-3.396-0.529-8.213-1.021-10.32,2.398c-1.401,2.273-0.858,5.072-0.164,7.484
						c0.776,2.693,1.885,5.285,3.298,7.707c1.608,2.756,3.586,5.283,5.734,7.637c-0.01-0.008-0.006,0.002,0.023,0.025
						c-1.189-0.449-2.515-0.68-3.777-0.434c-1.021,0.199-2.804,1.127-2.934,2.406c-0.175,1.711,2.554,1.83,3.675,1.883
						c3.337,0.16,6.783,0.197,10.148,0.197l0.008-0.111c0.494,2.029,1.084,3.328,1.875,3.383c1.394,0.094,2.024-0.916,2.458-3.385
						h8.664c0.433,2.469,1.064,3.479,2.458,3.385c0.888-0.061,1.521-1.693,2.051-4.164l0.068,0.893
						c3.366,0,6.812-0.037,10.149-0.197c1.121-0.053,3.85-0.172,3.675-1.883c-0.131-1.279-1.913-2.207-2.934-2.406
						c-1.262-0.246-2.588-0.016-3.778,0.434c0.029-0.023,0.034-0.033,0.024-0.025c2.147-2.354,4.125-4.881,5.734-7.637
						c1.412-2.422,2.521-5.014,3.297-7.707c0.694-2.412,1.238-5.211-0.163-7.484c-2.106-3.42-6.925-2.928-10.32-2.398
						c0.999-3.965,1.86-7.996,2.176-12.078c0.13-1.678,0.101-3.365,0.276-5.041c0.125-1.197,0.915-2.285,0.915-2.285
						s-0.687-0.23-0.662-0.783c0.334-0.109,0.626-0.338,0.811-0.637c-0.523-0.049-0.884-0.584-0.958-1.105
						c-0.072-0.521,0.063-1.047,0.117-1.57s0.01-1.104-0.35-1.49c1.085,0.234,2.292-0.336,2.798-1.324
						c-1.106-0.426-2.021-1.326-2.461-2.428c0.825,0.367,1.807,0.275,2.628-0.102c0.821-0.375,1.501-1.01,2.072-1.711
						c-1.899-0.131-3.719-1.139-4.835-2.679c0.351,0.027,0.84,0.107,1.235-0.289c-1.082-0.519-2.094-2.392-2.761-3.813
						c-2.208-4.711-7.444-6.603-12.331-7.122L33.906,18l-0.211-0.07c0.284-1.361,1.313-2.375,1.362-2.449
						c-1.372-0.229-2.013,0.503-2.013,0.503c-0.801-1.121-0.526-4.276-0.526-4.276C30.94,12.965,30.483,15.48,30.483,15.48"/>
				</defs>
				<clipPath id="SVGID_10_">
					<use xlink:href="#SVGID_9_"  overflow="visible"/>
				</clipPath>
				<path clip-path="url(#SVGID_10_)" fill-rule="evenodd" clip-rule="evenodd" fill="#E4C3AC" d="M70.341,56.992
					c0.235,0.023,0.402,0.027,0.565,0.055c0.312,0.055,0.615,0.039,0.928,0c0.391-0.047,0.786-0.055,1.179-0.066
					c0.344-0.014,0.658,0.088,0.923,0.313c0.48,0.408,1.03,0.693,1.612,0.922c0.498,0.195,0.875,0.547,1.217,0.943
					c0.234,0.271,0.294,0.588,0.225,0.932c-0.017,0.082-0.034,0.166-0.07,0.238c-0.241,0.5-0.106,0.969,0.107,1.434
					c0.166,0.357,0.342,0.711,0.486,1.076c0.234,0.592,0.193,1.178-0.08,1.75c-0.137,0.285-0.331,0.533-0.589,0.711
					c-0.661,0.461-1.387,0.744-2.204,0.75c-0.486,0.002-0.945-0.139-1.383-0.324c-0.358-0.154-0.609-0.449-0.682-0.838
					c-0.073-0.385-0.105-0.781-0.131-1.172c-0.013-0.205,0.027-0.412,0.049-0.619c0.014-0.123,0.045-0.244,0.058-0.367
					c0.042-0.428-0.093-0.771-0.465-1.014c-0.156-0.102-0.302-0.219-0.453-0.328c-0.494-0.357-1.031-0.4-1.599-0.223
					c-0.078,0.023-0.152,0.066-0.233,0.086c-0.788,0.197-1.271,0.744-1.638,1.424c-0.268,0.498-0.167,1.098,0.242,1.479
					c0.2,0.186,0.42,0.354,0.684,0.418c0.698,0.174,0.938,0.926,0.775,1.553c-0.146,0.561-0.449,1.021-1.001,1.279
					c-0.226,0.105-0.446,0.221-0.675,0.318c-0.307,0.131-0.606,0.102-0.896-0.063c-0.297-0.168-0.526-0.396-0.694-0.695
					c-0.313-0.561-0.642-1.113-0.959-1.67c-0.105-0.186-0.237-0.342-0.414-0.457c-0.417-0.271-0.66-0.686-0.899-1.098
					c-0.212-0.365-0.176-0.758-0.004-1.137c0.166-0.361,0.387-0.689,0.674-0.965c0.394-0.379,0.698-0.813,0.921-1.314
					c0.22-0.5,0.573-0.898,0.966-1.279c0.676-0.66,1.407-1.223,2.275-1.602c0.132-0.059,0.254-0.145,0.371-0.229
					C69.795,57.02,70.087,56.945,70.341,56.992"/>
				<path clip-path="url(#SVGID_10_)" fill-rule="evenodd" clip-rule="evenodd" fill="#E4C3AC" d="M75.221,97.57
					c-0.187,0-0.373-0.004-0.561,0.002c-0.284,0.004-0.524,0.115-0.709,0.332c-0.244,0.285-0.451,0.594-0.567,0.955
					c-0.151,0.469-0.054,0.738,0.355,1.008c0.173,0.113,0.351,0.223,0.507,0.355c0.232,0.199,0.339,0.463,0.343,0.771
					c0.003,0.316-0.051,0.619-0.188,0.904c-0.25,0.514-0.658,0.725-1.222,0.631c-0.101-0.018-0.199-0.055-0.301-0.074
					c-0.186-0.037-0.372-0.043-0.557-0.002c-0.804,0.186-1.517-0.102-2.193-0.463c-0.401-0.213-0.619-0.596-0.629-1.076
					c-0.011-0.563,0.001-1.121,0.154-1.666c0.141-0.498,0.26-1.002,0.452-1.486c0.098-0.248,0.173-0.51,0.229-0.773
					c0.115-0.549,0.385-1,0.815-1.357c0.063-0.053,0.128-0.105,0.188-0.164c0.507-0.488,1.099-0.803,1.802-0.908
					c0.413-0.063,0.794-0.227,1.169-0.408c0.298-0.146,0.601-0.281,0.906-0.408c0.338-0.141,0.689-0.148,1.036-0.035
					c0.494,0.16,1.003,0.256,1.513,0.346c0.6,0.105,1.163,0.301,1.625,0.725c0.106,0.098,0.236,0.168,0.354,0.252
					c0.606,0.432,0.956,1.018,1.058,1.758c0.119,0.861,0.24,1.721,0.436,2.57c0.074,0.322,0.117,0.652,0.149,0.982
					c0.08,0.799-0.426,1.631-1.131,1.895c-0.262,0.1-0.529,0.104-0.798,0.082c-0.333-0.027-0.656-0.043-0.979,0.09
					c-0.193,0.078-0.409,0.059-0.616,0.041c-0.399-0.033-0.791-0.094-1.038-0.463c-0.289-0.432-0.434-0.896-0.284-1.414
					c0.045-0.16,0.116-0.311,0.174-0.467c0.058-0.154,0.12-0.309,0.171-0.467c0.117-0.361,0.07-0.699-0.198-0.982
					c-0.193-0.201-0.33-0.416-0.348-0.705c-0.013-0.215-0.168-0.338-0.373-0.354c-0.247-0.018-0.497-0.004-0.745-0.004V97.57z"/>
				<path clip-path="url(#SVGID_10_)" fill-rule="evenodd" clip-rule="evenodd" fill="#E4C3AC" d="M59.708,71.717
					c0.32-0.084,0.64-0.172,0.963-0.25c0.447-0.109,0.903-0.141,1.357-0.063c0.868,0.148,1.695,0.02,2.486-0.344
					c0.218-0.102,0.435-0.139,0.664-0.107c0.581,0.078,1.133,0.211,1.591,0.629c0.487,0.441,0.677,0.975,0.611,1.613
					c-0.014,0.145-0.043,0.287-0.074,0.43c-0.089,0.408,0.003,0.736,0.392,0.951c0.254,0.139,0.383,0.367,0.431,0.648
					c0.048,0.279,0,0.539-0.161,0.771c-0.095,0.135-0.205,0.262-0.315,0.385c-0.461,0.508-0.983,0.949-1.502,1.398
					c-0.283,0.246-0.623,0.408-0.963,0.561c-0.19,0.086-0.393,0.145-0.604,0.107c-0.1-0.02-0.23-0.035-0.286-0.102
					c-0.213-0.25-0.459-0.482-0.568-0.803c-0.063-0.184-0.053-0.371,0.03-0.549c0.108-0.225,0.162-0.467,0.222-0.709
					c0.038-0.16,0.109-0.313,0.177-0.465c0.05-0.111,0.121-0.217,0.177-0.326c0.265-0.521,0.214-0.705-0.285-1.02
					c-0.158-0.1-0.32-0.193-0.477-0.295c-0.297-0.189-0.617-0.232-0.955-0.148c-0.605,0.146-1.191,0.357-1.763,0.605
					c-0.227,0.098-0.346,0.26-0.36,0.525c-0.035,0.607,0.006,1.201,0.205,1.779c0.046,0.137,0.086,0.277,0.122,0.418
					c0.219,0.869-0.254,1.695-1.111,1.936c-0.278,0.076-0.56,0.141-0.854,0.15c-1.082,0.037-1.803-0.512-2.303-1.412
					c-0.129-0.234-0.219-0.49-0.323-0.74c-0.212-0.504-0.209-1.01,0.007-1.51c0.075-0.172,0.152-0.344,0.251-0.5
					c0.145-0.232,0.254-0.475,0.285-0.748c0.049-0.418,0.201-0.805,0.383-1.178c0.334-0.682,0.839-1.178,1.589-1.385
					c0.32-0.088,0.642-0.17,0.963-0.254C59.708,71.719,59.708,71.719,59.708,71.717"/>
				<path clip-path="url(#SVGID_10_)" fill-rule="evenodd" clip-rule="evenodd" fill="#E4C3AC" d="M68.968,84.988
					c-0.016-0.096-0.017-0.117-0.022-0.137c-0.255-0.781-0.554-0.746-1.187-0.631c-0.533,0.096-0.917,0.471-1.207,0.918
					c-0.125,0.191-0.174,0.418-0.118,0.656c0.209,0.879-0.126,1.635-0.557,2.359c-0.193,0.324-0.541,0.508-0.853,0.703
					c-0.199,0.125-0.461,0.098-0.652-0.045c-0.396-0.297-0.824-0.539-1.187-0.895c-0.514-0.502-0.714-1.098-0.769-1.777
					c-0.022-0.27-0.049-0.535-0.073-0.805c-0.007-0.082-0.031-0.168-0.017-0.246c0.125-0.693,0.202-1.4,0.521-2.041
					c0.092-0.186,0.192-0.375,0.33-0.523c0.498-0.529,1.02-1.035,1.681-1.367c0.204-0.104,0.401-0.217,0.602-0.324
					c0.092-0.051,0.179-0.113,0.275-0.145c0.843-0.289,1.682-0.598,2.59-0.609c0.25-0.004,0.498,0.004,0.747-0.008
					c0.574-0.025,1.107,0.145,1.634,0.336c0.411,0.15,0.679,0.469,0.902,0.824c0.243,0.387,0.486,0.773,0.703,1.176
					c0.448,0.826,0.541,1.689,0.185,2.572c-0.096,0.238-0.15,0.471-0.145,0.723c0.004,0.145-0.006,0.293-0.034,0.434
					c-0.095,0.477-0.499,0.896-0.982,0.885c-0.276-0.008-0.529,0.076-0.785,0.17c-0.507,0.184-0.952,0.033-1.237-0.418
					c-0.133-0.209-0.24-0.436-0.337-0.664C68.818,85.736,68.73,85.357,68.968,84.988 M71.609,86.326
					c0.008-0.016,0.021-0.031,0.02-0.047c-0.001-0.01-0.028-0.025-0.039-0.021c-0.043,0.012-0.054,0.041-0.027,0.078
					C71.567,86.342,71.593,86.33,71.609,86.326"/>
				<path clip-path="url(#SVGID_10_)" fill-rule="evenodd" clip-rule="evenodd" fill="#E4C3AC" d="M66.298,95.965
					c0.221-0.115,0.449-0.221,0.685-0.297c0.508-0.164,0.946,0.004,1.219,0.471c0.138,0.236,0.278,0.461,0.494,0.633
					c0.38,0.299,0.423,0.881,0.19,1.309c-0.068,0.125-0.155,0.246-0.25,0.355c-0.167,0.189-0.271,0.402-0.35,0.646
					c-0.291,0.906-0.915,1.512-1.789,1.861c-0.422,0.17-0.856,0.313-1.29,0.455c-0.399,0.129-0.809,0.203-1.221,0.055
					c-0.528-0.188-1.047-0.396-1.472-0.785c-0.185-0.166-0.381-0.32-0.57-0.482c-0.691-0.59-1.139-1.363-1.603-2.123
					c-0.054-0.088-0.08-0.191-0.119-0.287c-0.085-0.213-0.165-0.426-0.256-0.635c-0.296-0.678-0.373-1.4-0.418-2.125
					c-0.012-0.203,0.033-0.414,0.08-0.615c0.165-0.697,0.558-1.289,0.904-1.902c0.039-0.068,0.112-0.119,0.17-0.178
					c0.189-0.191,0.383-0.381,0.57-0.572c0.477-0.488,1.013-0.818,1.728-0.877c0.506-0.041,0.99,0.047,1.483,0.072
					c0.24,0.012,0.459,0.156,0.531,0.381c0.114,0.35,0.265,0.715,0.206,1.088c-0.131,0.83-0.358,1.627-1.08,2.17
					c-0.194,0.146-0.301,0.352-0.329,0.58c-0.063,0.529-0.006,1.063,0.342,1.477c0.414,0.492,0.621,0.711,1.315,0.273
					c0.018-0.012,0.032-0.027,0.104-0.092C65.629,96.387,65.938,96.148,66.298,95.965 M68.433,97.443
					c-0.044,0.01-0.056,0.041-0.03,0.078c0.007,0.01,0.038,0.014,0.045,0.008c0.011-0.012,0.011-0.033,0.015-0.051
					C68.453,97.467,68.439,97.441,68.433,97.443"/>
				<path clip-path="url(#SVGID_10_)" fill-rule="evenodd" clip-rule="evenodd" fill="#E4C3AC" d="M76.968,71.705
					c0.527-0.029,1.003,0.119,1.48,0.26c0.182,0.053,0.335,0.158,0.484,0.271c0.176,0.133,0.294,0.295,0.285,0.523
					c-0.009,0.211,0.045,0.414,0.119,0.605c0.116,0.295,0.053,0.572-0.053,0.846c-0.116,0.299-0.361,0.451-0.686,0.426
					c-0.185-0.014-0.366-0.066-0.551-0.09c-0.415-0.051-0.617,0.09-0.729,0.494c-0.081,0.285-0.103,0.57-0.01,0.857
					c0.12,0.373,0.327,0.68,0.716,0.799c0.416,0.129,0.838,0.23,1.261,0.334c0.098,0.023,0.206,0.016,0.309,0.004
					c0.309-0.031,0.617-0.066,0.925-0.109c0.121-0.016,0.245-0.045,0.358-0.09c0.253-0.105,0.366-0.34,0.291-0.609
					c-0.084-0.299-0.19-0.588-0.188-0.908c0.002-0.299,0.063-0.572,0.231-0.822c0.104-0.154,0.188-0.324,0.295-0.475
					c0.271-0.381,0.582-0.697,1.101-0.703c0.142-0.002,0.282-0.057,0.426-0.08c0.483-0.076,0.847,0.215,0.894,0.713
					c0.008,0.082,0.003,0.166,0.007,0.248c0.026,0.539,0.021,1.078,0.105,1.611c0.025,0.164,0.02,0.332,0.028,0.498
					c0.033,0.574-0.185,1.061-0.576,1.457c-0.422,0.428-0.872,0.828-1.325,1.221c-0.337,0.291-0.754,0.434-1.184,0.523
					c-0.425,0.09-0.854,0.178-1.284,0.221c-0.858,0.09-1.696-0.014-2.498-0.346c-0.271-0.113-0.531-0.24-0.734-0.457
					c-0.162-0.172-0.365-0.266-0.586-0.336c-0.178-0.057-0.348-0.139-0.526-0.189c-0.495-0.139-0.884-0.434-1.242-0.791
					c-0.428-0.428-0.555-0.912-0.32-1.471c0.088-0.209,0.205-0.406,0.32-0.602c0.084-0.143,0.19-0.271,0.282-0.41
					c0.241-0.365,0.324-0.76,0.202-1.186c-0.081-0.281-0.116-0.568-0.104-0.861c0.009-0.215,0.081-0.402,0.229-0.563
					c0.229-0.246,0.482-0.453,0.807-0.563C76.002,71.797,76.48,71.666,76.968,71.705 M78.476,72.809
					c0.012,0.008,0.022,0.016,0.033,0.023c-0.013-0.006-0.025-0.012-0.038-0.02l-0.026-0.033L78.476,72.809z M82.52,74.412
					c-0.049-0.01-0.078,0.008-0.08,0.055c-0.001,0.016,0.014,0.039,0.026,0.045c0.015,0.006,0.05-0.002,0.051-0.006
					C82.522,74.475,82.52,74.441,82.52,74.412 M78.417,74.029c0.016-0.01,0.031-0.018,0.047-0.027
					c-0.012-0.012-0.023-0.031-0.038-0.035c-0.051-0.012-0.074,0.006-0.059,0.047C78.371,74.023,78.4,74.023,78.417,74.029
					 M77.743,78.51c0.016-0.008,0.032-0.018,0.047-0.027c-0.014-0.012-0.026-0.031-0.041-0.031
					c-0.016-0.002-0.031,0.016-0.047,0.025C77.716,78.488,77.729,78.5,77.743,78.51"/>
				<path clip-path="url(#SVGID_10_)" fill-rule="evenodd" clip-rule="evenodd" fill="#E4C3AC" d="M84.417,67.746
					c-0.064-0.152-0.145-0.299-0.193-0.457c-0.119-0.393-0.032-0.684,0.32-0.912c0.284-0.186,0.445-0.416,0.481-0.75
					c0.022-0.205,0.072-0.408,0.113-0.611c0.137-0.668,0.384-0.896,1.073-1.014c0.392-0.066,0.785-0.07,1.178-0.053
					c0.313,0.016,0.62,0.016,0.929-0.033c0.522-0.08,1.03-0.047,1.521,0.176c0.187,0.084,0.396,0.117,0.595,0.178
					c0.199,0.061,0.39,0.137,0.549,0.279c0.4,0.357,0.413,0.93,0.034,1.32c-0.247,0.256-0.55,0.361-0.897,0.354
					c-0.372-0.008-0.751,0.018-1.115-0.041c-0.484-0.08-0.842,0.139-1.201,0.391c-0.181,0.125-0.265,0.316-0.285,0.531
					c-0.014,0.143,0.002,0.289-0.004,0.434c-0.027,0.629-0.383,1.053-0.998,1.172c-0.224,0.043-0.452,0.055-0.678,0.08
					c-0.478,0.055-1.025-0.227-1.245-0.645c-0.068-0.129-0.116-0.266-0.174-0.398C84.419,67.746,84.419,67.746,84.417,67.746"/>
				<path clip-path="url(#SVGID_10_)" fill-rule="evenodd" clip-rule="evenodd" fill="#E4C3AC" d="M83.378,90
					c-0.016,0.006-0.041,0.016-0.046,0.01c-0.026-0.035-0.017-0.066,0.027-0.078c0.011-0.004,0.038,0.012,0.039,0.021
					C83.399,89.969,83.386,89.984,83.378,90"/>
				<path clip-path="url(#SVGID_10_)" fill-rule="evenodd" clip-rule="evenodd" fill="#E4C3AC" d="M83.939,75.018
					c0,0.031,0.002,0.064-0.003,0.094c-0.001,0.006-0.037,0.014-0.051,0.008c-0.014-0.008-0.027-0.029-0.026-0.045
					C83.861,75.027,83.891,75.01,83.939,75.018"/>
				<path clip-path="url(#SVGID_10_)" fill-rule="evenodd" clip-rule="evenodd" fill="#E4C3AC" d="M79.837,74.637
					c-0.018-0.006-0.046-0.006-0.05-0.016c-0.017-0.041,0.008-0.061,0.059-0.047c0.015,0.004,0.025,0.023,0.037,0.035
					C79.868,74.617,79.853,74.627,79.837,74.637"/>
				<path clip-path="url(#SVGID_10_)" fill-rule="evenodd" clip-rule="evenodd" fill="#E4C3AC" d="M79.162,79.117
					c-0.014-0.01-0.027-0.023-0.04-0.033c0.015-0.01,0.03-0.027,0.046-0.027c0.016,0.002,0.028,0.021,0.042,0.033
					C79.194,79.1,79.179,79.109,79.162,79.117"/>
				<polygon clip-path="url(#SVGID_10_)" fill-rule="evenodd" clip-rule="evenodd" fill="#E4C3AC" points="79.896,73.416 
					79.863,73.387 79.891,73.42 				"/>
				<path clip-path="url(#SVGID_10_)" fill-rule="evenodd" clip-rule="evenodd" fill="#E4C3AC" d="M79.891,73.42
					c0.013,0.008,0.025,0.014,0.038,0.02c-0.011-0.008-0.022-0.016-0.033-0.023L79.891,73.42z"/>
				<path clip-path="url(#SVGID_10_)" fill-rule="evenodd" clip-rule="evenodd" fill="#E4C3AC" d="M83.504,88.488
					c0.466-0.303,0.801-0.729,1.08-1.197c0.117-0.197,0.2-0.414,0.301-0.621c0.342-0.691,0.343-1.406,0.141-2.127
					c-0.071-0.258-0.185-0.504-0.285-0.754c-0.03-0.076-0.071-0.15-0.125-0.213c-0.43-0.49-0.926-0.893-1.574-1.066
					c-0.567-0.148-1.146-0.203-1.737-0.158c-0.362,0.029-0.691,0.162-1.021,0.295c-0.277,0.111-0.412,0.348-0.432,0.641
					c-0.026,0.379,0.036,0.748,0.209,1.086c0.212,0.416,0.547,0.67,1.032,0.693c0.146,0.006,0.293,0.002,0.438,0.01
					c0.195,0.012,0.362,0.09,0.509,0.215c0.243,0.205,0.233,0.555-0.022,0.754c-0.049,0.039-0.104,0.076-0.163,0.092
					c-0.666,0.174-0.999,0.727-1.383,1.215c-0.137,0.174-0.138,0.387-0.055,0.596c0.148,0.375,0.396,0.627,0.817,0.67
					c0.125,0.014,0.251,0.033,0.374,0.023c0.336-0.025,0.667-0.016,0.998,0.049C82.93,88.75,83.228,88.67,83.504,88.488"/>
				<path clip-path="url(#SVGID_10_)" fill-rule="evenodd" clip-rule="evenodd" fill="#E4C3AC" d="M76.093,87.803
					c-0.017-0.025,0.006,0.039,0.049,0.08c0.451,0.428,0.803,0.938,1.2,1.41c0.417,0.496,1.021,0.77,1.558,1.121
					c0.033,0.023,0.074,0.045,0.113,0.049c0.567,0.051,1.13,0.064,1.619-0.305c0.327-0.246,0.374-0.662,0.112-0.99
					c-0.089-0.113-0.202-0.207-0.305-0.311c-0.337-0.33-0.586-0.744-0.986-1.021c-0.14-0.096-0.181-0.275-0.176-0.447
					c0.009-0.395,0.001-0.787-0.142-1.164c-0.054-0.143-0.014-0.287,0.053-0.422c0.184-0.369,0.022-0.695-0.146-1
					c-0.127-0.227-0.377-0.346-0.639-0.318c-0.371,0.037-0.743,0.104-1.104,0.201c-0.242,0.066-0.438,0.238-0.599,0.439
					c-0.182,0.23-0.361,0.461-0.547,0.688C75.751,86.309,75.603,87.074,76.093,87.803"/>
				<path clip-path="url(#SVGID_10_)" fill-rule="evenodd" clip-rule="evenodd" fill="#E4C3AC" d="M-6.407,82.16
					c0.952-0.049,1.75,0.266,2.415,0.943c0.245,0.252,0.52,0.477,0.791,0.701c0.539,0.445,0.948,0.98,1.186,1.643
					c0.141,0.395,0.177,0.811,0.222,1.221c0.04,0.357,0.118,0.693,0.302,1c0.386,0.646,0.291,1.289-0.082,1.883
					c-0.342,0.543-0.785,1.012-1.312,1.396c-0.561,0.41-1.169,0.508-1.826,0.303c-0.356-0.109-0.706-0.24-1.058-0.361
					c-0.437-0.15-0.666-0.637-0.459-1.059c0.128-0.26,0.231-0.533,0.365-0.789c0.185-0.354,0.283-0.734,0.367-1.119
					c0.084-0.383,0.003-0.729-0.225-1.059c-0.406-0.586-0.979-0.887-1.656-0.994c-0.473-0.074-0.948-0.066-1.399,0.156
					c-0.203,0.1-0.426,0.16-0.646,0.221c-0.319,0.094-0.551,0.277-0.683,0.586c-0.042,0.096-0.089,0.188-0.135,0.279
					c-0.096,0.197-0.123,0.393-0.017,0.596c0.038,0.074,0.063,0.154,0.102,0.229c0.309,0.576,0.386,1.221,0.514,1.848
					c0.1,0.494-0.046,0.766-0.5,1.025c-0.288,0.164-0.584,0.313-0.877,0.467c-0.16,0.084-0.321,0.07-0.477-0.01
					c-0.092-0.049-0.178-0.105-0.266-0.162c-0.549-0.352-0.981-0.828-1.372-1.338c-0.328-0.43-0.438-0.932-0.342-1.469
					c0.062-0.348,0.115-0.695,0.187-1.039c0.086-0.412,0.104-0.822,0.026-1.234c-0.137-0.73,0.127-1.277,0.691-1.746
					c0.976-0.811,2.11-1.301,3.287-1.715c0.232-0.08,0.485-0.105,0.73-0.145c0.348-0.055,0.701-0.08,1.043-0.154
					C-7.143,82.186-6.774,82.156-6.407,82.16"/>
				<path clip-path="url(#SVGID_10_)" fill-rule="evenodd" clip-rule="evenodd" fill="#E4C3AC" d="M-23.159,95.496
					c-0.14,0.057-0.288,0.129-0.443,0.18c-0.449,0.141-0.622,0.297-0.626,0.719c-0.003,0.418-0.094,0.824-0.117,1.238
					c-0.009,0.164-0.034,0.332-0.082,0.488c-0.093,0.297-0.18,0.592-0.157,0.912c0.029,0.391-0.355,0.789-0.807,0.766
					c-0.269-0.014-0.54,0.012-0.808,0c-0.164-0.006-0.333-0.025-0.487-0.08c-0.293-0.105-0.579-0.23-0.862-0.359
					c-0.31-0.143-0.544-0.373-0.732-0.656c-0.273-0.408-0.347-0.838-0.147-1.299c0.107-0.246,0.201-0.502,0.323-0.74
					c0.167-0.324,0.238-0.662,0.2-1.023c-0.028-0.268-0.043-0.537-0.09-0.803c-0.052-0.295-0.037-0.578,0.07-0.855
					c0.133-0.35,0.255-0.703,0.406-1.043c0.183-0.408,0.466-0.734,0.875-0.939c0.092-0.045,0.19-0.086,0.274-0.145
					c0.522-0.369,1.1-0.465,1.72-0.365c0.389,0.064,0.779,0.121,1.166,0.193c0.489,0.094,0.975,0.199,1.479,0.08
					c0.248-0.057,0.498-0.018,0.732,0.082c0.708,0.299,1.416,0.596,1.943,1.193c0.122,0.137,0.285,0.238,0.428,0.357
					c0.158,0.135,0.315,0.27,0.47,0.406c0.212,0.189,0.314,0.424,0.331,0.713c0.022,0.393,0.072,0.783,0.114,1.176
					c0.04,0.375,0.181,0.723,0.312,1.072c0.095,0.254,0.156,0.514,0.224,0.775c0.11,0.418,0.052,0.82-0.054,1.227
					c-0.112,0.436-0.398,0.682-0.827,0.736c-0.351,0.043-0.7,0.063-1.022,0.23c-0.112,0.059-0.246,0.041-0.367,0
					c-0.552-0.182-1.096-0.387-1.602-0.68c-0.341-0.195-0.433-0.391-0.367-0.771c0.025-0.143,0.083-0.279,0.109-0.42
					c0.088-0.471,0.036-0.912-0.317-1.273c-0.304-0.313-0.609-0.623-0.916-0.934C-22.904,95.564-23.019,95.516-23.159,95.496"/>
				<path clip-path="url(#SVGID_10_)" fill-rule="evenodd" clip-rule="evenodd" fill="#E4C3AC" d="M-4.105,73.83
					c0.043,0.146,0.079,0.307,0.138,0.459c0.169,0.439,0.156,0.672-0.17,0.939c-0.324,0.264-0.584,0.588-0.893,0.863
					c-0.123,0.111-0.238,0.234-0.33,0.371c-0.175,0.258-0.35,0.512-0.614,0.693c-0.323,0.221-0.393,0.77-0.092,1.107
					c0.179,0.201,0.328,0.43,0.505,0.631c0.107,0.125,0.23,0.244,0.368,0.328c0.264,0.164,0.542,0.309,0.819,0.447
					c0.304,0.154,0.631,0.193,0.97,0.164c0.49-0.043,0.871-0.254,1.105-0.699c0.125-0.238,0.266-0.471,0.375-0.715
					c0.15-0.332,0.368-0.6,0.673-0.795c0.227-0.146,0.447-0.305,0.682-0.434c0.263-0.145,0.474-0.332,0.625-0.59
					c0.188-0.322,0.389-0.639,0.56-0.971c0.204-0.396,0.281-0.822,0.185-1.268c-0.022-0.102-0.051-0.203-0.058-0.307
					c-0.04-0.637-0.327-1.146-0.792-1.568c-0.292-0.264-0.581-0.533-0.879-0.789c-0.379-0.322-0.765-0.637-0.987-1.104
					c-0.11-0.229-0.296-0.398-0.521-0.52c-0.676-0.365-1.351-0.73-2.146-0.77c-0.184-0.01-0.364-0.074-0.547-0.109
					c-0.204-0.041-0.407-0.078-0.611-0.111c-0.28-0.047-0.527,0.018-0.761,0.186c-0.32,0.229-0.658,0.436-0.988,0.646
					c-0.318,0.205-0.679,0.313-1.033,0.43c-0.256,0.084-0.499,0.199-0.745,0.309c-0.396,0.178-0.673,0.475-0.924,0.811
					c-0.27,0.359-0.282,0.736-0.056,1.105c0.185,0.301,0.388,0.584,0.459,0.941c0.025,0.123,0.123,0.217,0.229,0.285
					c0.487,0.318,0.988,0.613,1.532,0.826c0.367,0.143,0.576,0.092,0.832-0.197c0.096-0.107,0.167-0.238,0.261-0.348
					c0.313-0.365,0.688-0.6,1.191-0.551c0.434,0.043,0.867,0.086,1.3,0.133C-4.318,73.676-4.208,73.734-4.105,73.83"/>
				<path clip-path="url(#SVGID_10_)" fill-rule="evenodd" clip-rule="evenodd" fill="#E4C3AC" d="M-20.771,78.43
					c0.06,0.098,0.108,0.189,0.168,0.271c0.179,0.242,0.269,0.512,0.261,0.813c-0.002,0.082-0.005,0.166,0.001,0.248
					c0.033,0.412,0.26,0.596,0.671,0.512c0.242-0.049,0.481-0.127,0.711-0.219c0.381-0.154,0.756-0.201,1.149-0.049
					c0.133,0.053,0.282,0.074,0.425,0.092c0.316,0.043,0.474-0.07,0.535-0.373c0.017-0.08,0.027-0.164,0.031-0.246
					c0.017-0.295,0.101-0.57,0.216-0.84c0.218-0.506,0.317-1.021,0.214-1.574c-0.088-0.473,0.085-0.904,0.309-1.307
					c0.194-0.348,0.502-0.418,0.848-0.227c0.259,0.145,0.496,0.334,0.609,0.604c0.17,0.4,0.425,0.754,0.569,1.17
					c0.327,0.941,0.352,1.865-0.075,2.779c-0.245,0.523-0.512,1.039-0.773,1.557c-0.225,0.443-0.576,0.768-1.027,0.955
					c-0.513,0.215-0.997,0.508-1.565,0.588c-0.177,0.025-0.348,0.129-0.513,0.215c-0.619,0.322-1.263,0.512-1.971,0.465
					c-0.371-0.025-0.745-0.012-1.119-0.006c-0.379,0.006-0.742-0.07-1.09-0.217c-0.595-0.252-1.143-0.584-1.64-0.996
					c-0.303-0.252-0.485-0.563-0.479-0.969c0.002-0.104-0.001-0.211-0.027-0.309c-0.155-0.59-0.053-1.148,0.183-1.697
					c0.082-0.189,0.155-0.385,0.214-0.584c0.053-0.178-0.018-0.34-0.184-0.416c-0.168-0.076-0.35-0.125-0.525-0.186
					c-0.214-0.076-0.438-0.135-0.639-0.236c-0.266-0.133-0.339-0.344-0.261-0.623c0.17-0.605,0.927-1.57,1.473-1.873
					c0.109-0.059,0.221-0.119,0.339-0.154c0.519-0.148,1.049-0.244,1.588-0.279c0.431-0.025,0.749,0.139,0.99,0.51
					c0.29,0.447,0.442,0.936,0.549,1.443c0.047,0.227,0.032,0.453-0.037,0.678C-20.69,78.105-20.728,78.268-20.771,78.43"/>
				<path clip-path="url(#SVGID_10_)" fill-rule="evenodd" clip-rule="evenodd" fill="#E4C3AC" d="M-12.104,63.17
					c-0.097,0.229-0.205,0.457-0.338,0.666c-0.285,0.451-0.73,0.6-1.238,0.416c-0.255-0.094-0.508-0.176-0.784-0.17
					c-0.483,0.014-0.888-0.406-0.983-0.885c-0.028-0.141-0.038-0.289-0.035-0.432c0.006-0.256-0.049-0.484-0.145-0.723
					c-0.357-0.883-0.263-1.748,0.186-2.574c0.217-0.4,0.459-0.789,0.702-1.174c0.224-0.355,0.492-0.674,0.903-0.824
					c0.527-0.191,1.06-0.363,1.633-0.336c0.25,0.01,0.499,0.002,0.747,0.006c0.909,0.012,1.747,0.32,2.591,0.609
					c0.097,0.033,0.183,0.096,0.275,0.145c0.2,0.109,0.398,0.223,0.603,0.324c0.661,0.332,1.181,0.838,1.679,1.367
					c0.139,0.148,0.239,0.34,0.33,0.523c0.32,0.643,0.397,1.348,0.521,2.041c0.014,0.078-0.009,0.164-0.017,0.246
					c-0.024,0.268-0.051,0.537-0.072,0.805C-5.6,63.881-5.8,64.477-6.313,64.98c-0.362,0.354-0.791,0.596-1.187,0.893
					c-0.192,0.143-0.453,0.172-0.652,0.045c-0.312-0.195-0.66-0.379-0.854-0.703c-0.43-0.725-0.764-1.48-0.556-2.359
					c0.056-0.238,0.006-0.463-0.118-0.656c-0.29-0.447-0.674-0.822-1.207-0.918c-0.633-0.115-0.931-0.148-1.186,0.631
					c-0.006,0.02-0.007,0.041-0.022,0.137C-11.859,62.418-11.945,62.799-12.104,63.17 M-14.691,63.396
					c0.027-0.035,0.016-0.066-0.027-0.078c-0.011-0.004-0.038,0.014-0.04,0.021c-0.001,0.016,0.013,0.033,0.021,0.049
					C-14.721,63.391-14.695,63.402-14.691,63.396"/>
				<path clip-path="url(#SVGID_10_)" fill-rule="evenodd" clip-rule="evenodd" fill="#E4C3AC" d="M-30.608,67.746
					c-0.065-0.152-0.145-0.299-0.193-0.457c-0.119-0.393-0.032-0.684,0.32-0.912c0.285-0.186,0.446-0.416,0.481-0.75
					c0.022-0.205,0.073-0.408,0.114-0.611c0.136-0.668,0.384-0.896,1.074-1.014c0.391-0.066,0.785-0.07,1.177-0.053
					c0.312,0.016,0.62,0.016,0.929-0.033c0.522-0.08,1.029-0.047,1.521,0.176c0.187,0.084,0.396,0.117,0.595,0.178
					c0.2,0.061,0.39,0.137,0.549,0.279c0.4,0.357,0.413,0.93,0.034,1.32c-0.248,0.256-0.55,0.361-0.896,0.354
					c-0.373-0.008-0.752,0.018-1.115-0.041c-0.484-0.08-0.842,0.139-1.202,0.391c-0.181,0.125-0.265,0.316-0.285,0.531
					c-0.014,0.143,0.001,0.289-0.004,0.434c-0.027,0.629-0.382,1.053-0.998,1.172c-0.223,0.043-0.452,0.055-0.678,0.08
					c-0.477,0.055-1.025-0.227-1.245-0.645c-0.067-0.129-0.116-0.266-0.174-0.398C-30.607,67.746-30.607,67.746-30.608,67.746"/>
				<path clip-path="url(#SVGID_10_)" fill-rule="evenodd" clip-rule="evenodd" fill="#E4C3AC" d="M-27.535,69.973
					c0.473-0.156,0.919-0.375,1.409-0.492c0.499-0.117,0.82-0.463,0.953-0.967c0.047-0.182,0.083-0.365,0.141-0.543
					c0.179-0.545,0.537-0.754,1.103-0.633c0.384,0.082,0.688,0.279,0.836,0.666c0.09,0.232,0.198,0.457,0.282,0.691
					c0.146,0.402,0.168,0.809,0.005,1.215c-0.146,0.365-0.284,0.732-0.526,1.053c-0.47,0.619-1.091,1.006-1.824,1.23
					c-0.267,0.08-0.535,0.078-0.798,0.006c-0.268-0.074-0.528-0.08-0.796-0.004c-0.362,0.104-0.702,0.023-1.007-0.182
					c-0.205-0.139-0.396-0.299-0.586-0.459c-0.162-0.137-0.262-0.318-0.336-0.516c-0.131-0.354-0.063-0.531,0.289-0.697
					C-28.11,70.209-27.82,70.094-27.535,69.973"/>
				<path clip-path="url(#SVGID_10_)" fill-rule="evenodd" clip-rule="evenodd" fill="#E4C3AC" d="M2.648,85.639
					c-0.166,0-0.333,0.016-0.497-0.004c-0.408-0.043-0.641-0.238-0.712-0.652c-0.058-0.334-0.206-0.572-0.499-0.738
					c-0.18-0.102-0.347-0.227-0.517-0.346c-0.56-0.389-0.673-0.707-0.508-1.387c0.094-0.385,0.245-0.748,0.417-1.102
					c0.137-0.281,0.258-0.564,0.335-0.867c0.133-0.512,0.364-0.965,0.762-1.328c0.151-0.139,0.264-0.318,0.397-0.477
					c0.134-0.16,0.281-0.303,0.474-0.395c0.487-0.227,1.016-0.014,1.226,0.488c0.137,0.328,0.116,0.648-0.028,0.965
					c-0.154,0.34-0.279,0.697-0.479,1.008c-0.264,0.414-0.204,0.83-0.114,1.258c0.045,0.217,0.187,0.369,0.375,0.473
					c0.127,0.07,0.267,0.113,0.397,0.176c0.568,0.273,0.817,0.766,0.684,1.379c-0.049,0.223-0.128,0.438-0.194,0.654
					c-0.139,0.461-0.613,0.852-1.084,0.891c-0.144,0.012-0.29,0.002-0.435,0.002V85.639z"/>
				<path clip-path="url(#SVGID_10_)" fill-rule="evenodd" clip-rule="evenodd" fill="#E4C3AC" d="M5.907,83.693
					c0.042-0.498,0.019-0.992,0.104-1.488c0.088-0.506-0.103-0.938-0.514-1.258c-0.147-0.115-0.302-0.221-0.442-0.344
					c-0.433-0.379-0.483-0.791-0.148-1.264c0.228-0.32,0.528-0.521,0.943-0.506c0.249,0.01,0.498,0,0.746,0.014
					c0.427,0.025,0.81,0.166,1.118,0.475c0.278,0.277,0.562,0.551,0.76,0.898c0.384,0.676,0.495,1.4,0.412,2.162
					c-0.03,0.277-0.14,0.521-0.309,0.736c-0.174,0.217-0.282,0.453-0.318,0.73c-0.048,0.373-0.255,0.654-0.564,0.854
					c-0.208,0.133-0.432,0.244-0.653,0.357c-0.189,0.096-0.396,0.115-0.606,0.105c-0.376-0.018-0.513-0.15-0.527-0.541
					C5.898,84.314,5.907,84.002,5.907,83.693"/>
				<path clip-path="url(#SVGID_10_)" fill-rule="evenodd" clip-rule="evenodd" fill="#E4C3AC" d="M5.907,30.752
					c0.042-0.496,0.019-0.992,0.104-1.487c0.088-0.506-0.103-0.937-0.514-1.258c-0.147-0.115-0.302-0.22-0.442-0.343
					c-0.433-0.38-0.483-0.792-0.148-1.264c0.228-0.321,0.528-0.521,0.943-0.505c0.249,0.009,0.498-0.001,0.746,0.013
					c0.427,0.025,0.81,0.166,1.118,0.475c0.278,0.279,0.562,0.551,0.76,0.899c0.384,0.675,0.495,1.399,0.412,2.162
					c-0.03,0.275-0.14,0.521-0.309,0.734c-0.174,0.219-0.282,0.455-0.318,0.73c-0.048,0.375-0.255,0.654-0.564,0.854
					c-0.208,0.135-0.432,0.246-0.653,0.357c-0.189,0.096-0.396,0.115-0.606,0.105c-0.376-0.018-0.513-0.15-0.527-0.541
					C5.898,31.373,5.907,31.063,5.907,30.752"/>
				<path clip-path="url(#SVGID_10_)" fill-rule="evenodd" clip-rule="evenodd" fill="#E4C3AC" d="M8.566,75.688
					c0.236,0.021,0.402,0.027,0.566,0.055c0.31,0.055,0.615,0.037,0.928,0c0.39-0.047,0.785-0.055,1.179-0.068
					c0.343-0.012,0.658,0.088,0.922,0.313c0.48,0.41,1.031,0.695,1.613,0.924c0.498,0.193,0.875,0.545,1.216,0.943
					c0.235,0.271,0.294,0.586,0.225,0.932c-0.016,0.08-0.035,0.164-0.07,0.238c-0.242,0.5-0.106,0.969,0.107,1.434
					c0.166,0.357,0.342,0.711,0.487,1.076c0.234,0.59,0.192,1.178-0.081,1.748c-0.137,0.287-0.331,0.533-0.589,0.713
					c-0.661,0.459-1.387,0.744-2.204,0.75c-0.487,0.002-0.945-0.139-1.383-0.326c-0.359-0.152-0.609-0.447-0.682-0.836
					c-0.073-0.387-0.105-0.781-0.13-1.174c-0.013-0.203,0.026-0.412,0.049-0.617c0.014-0.123,0.044-0.244,0.057-0.367
					c0.042-0.428-0.093-0.773-0.465-1.014c-0.156-0.102-0.301-0.221-0.453-0.33c-0.494-0.355-1.031-0.398-1.599-0.223
					c-0.079,0.025-0.153,0.066-0.233,0.088c-0.788,0.197-1.271,0.744-1.638,1.424c-0.268,0.498-0.167,1.098,0.242,1.477
					c0.2,0.188,0.42,0.355,0.684,0.42c0.698,0.172,0.938,0.924,0.775,1.553c-0.146,0.559-0.449,1.021-1,1.279
					c-0.225,0.104-0.446,0.221-0.675,0.318c-0.307,0.129-0.606,0.102-0.896-0.064c-0.296-0.166-0.526-0.395-0.693-0.693
					c-0.314-0.561-0.642-1.113-0.96-1.672c-0.105-0.184-0.237-0.342-0.415-0.455c-0.417-0.271-0.659-0.688-0.898-1.098
					c-0.213-0.367-0.176-0.758-0.004-1.137c0.165-0.361,0.387-0.689,0.672-0.965c0.395-0.379,0.699-0.814,0.921-1.316
					c0.22-0.498,0.574-0.896,0.966-1.279c0.676-0.66,1.407-1.223,2.275-1.602c0.132-0.057,0.254-0.143,0.371-0.227
					C8.021,75.715,8.313,75.641,8.566,75.688"/>
				<path clip-path="url(#SVGID_10_)" fill-rule="evenodd" clip-rule="evenodd" fill="#E4C3AC" d="M12.328,37.184
					c0.043,0.146,0.079,0.307,0.137,0.457c0.169,0.441,0.156,0.672-0.171,0.939c-0.323,0.266-0.583,0.59-0.893,0.865
					c-0.122,0.109-0.237,0.234-0.329,0.369c-0.175,0.26-0.35,0.512-0.614,0.693c-0.323,0.221-0.394,0.771-0.092,1.109
					c0.18,0.199,0.328,0.428,0.505,0.631c0.108,0.123,0.23,0.242,0.368,0.328c0.265,0.162,0.541,0.307,0.819,0.447
					c0.304,0.154,0.632,0.191,0.97,0.162c0.489-0.043,0.87-0.254,1.105-0.697c0.125-0.238,0.266-0.471,0.376-0.717
					c0.149-0.332,0.367-0.598,0.672-0.795c0.227-0.146,0.447-0.303,0.683-0.432c0.263-0.145,0.475-0.334,0.624-0.59
					c0.188-0.324,0.389-0.639,0.56-0.971c0.204-0.398,0.282-0.822,0.185-1.27c-0.022-0.1-0.051-0.203-0.057-0.305
					c-0.04-0.639-0.327-1.148-0.792-1.568c-0.292-0.264-0.58-0.533-0.879-0.789c-0.379-0.324-0.766-0.637-0.988-1.104
					c-0.109-0.23-0.297-0.4-0.521-0.521c-0.675-0.365-1.35-0.73-2.146-0.77c-0.183-0.008-0.364-0.072-0.547-0.109
					c-0.203-0.039-0.407-0.076-0.611-0.111c-0.279-0.047-0.526,0.02-0.761,0.188c-0.32,0.227-0.657,0.434-0.989,0.646
					c-0.318,0.203-0.677,0.311-1.031,0.428c-0.257,0.086-0.5,0.201-0.745,0.311c-0.396,0.176-0.672,0.473-0.924,0.809
					c-0.269,0.359-0.282,0.738-0.057,1.105c0.186,0.301,0.389,0.586,0.46,0.941c0.024,0.125,0.123,0.219,0.229,0.287
					c0.488,0.316,0.988,0.611,1.532,0.824c0.367,0.145,0.576,0.094,0.831-0.197c0.096-0.107,0.167-0.238,0.261-0.348
					c0.313-0.363,0.688-0.598,1.192-0.549c0.433,0.041,0.867,0.086,1.3,0.133C12.113,37.027,12.225,37.086,12.328,37.184"/>
				<path clip-path="url(#SVGID_10_)" fill-rule="evenodd" clip-rule="evenodd" fill="#E4C3AC" d="M51.21,85.523
					c-0.098,0.229-0.205,0.457-0.338,0.666c-0.285,0.451-0.73,0.602-1.237,0.416c-0.256-0.094-0.51-0.178-0.785-0.17
					c-0.482,0.014-0.888-0.406-0.982-0.885c-0.028-0.141-0.038-0.289-0.034-0.434c0.006-0.252-0.049-0.482-0.146-0.721
					c-0.356-0.883-0.263-1.748,0.186-2.574c0.218-0.4,0.46-0.789,0.702-1.174c0.225-0.355,0.492-0.674,0.903-0.824
					c0.527-0.191,1.061-0.363,1.634-0.336c0.249,0.01,0.498,0.002,0.747,0.006c0.908,0.012,1.747,0.32,2.59,0.609
					c0.097,0.033,0.184,0.096,0.275,0.145c0.2,0.109,0.398,0.223,0.603,0.324c0.66,0.332,1.182,0.838,1.68,1.367
					c0.139,0.148,0.238,0.34,0.33,0.523c0.319,0.643,0.396,1.348,0.521,2.041c0.014,0.078-0.01,0.164-0.017,0.248
					c-0.024,0.268-0.051,0.535-0.073,0.803c-0.055,0.68-0.255,1.277-0.769,1.779c-0.362,0.354-0.791,0.596-1.187,0.893
					c-0.191,0.143-0.453,0.172-0.652,0.047c-0.312-0.197-0.66-0.381-0.854-0.705c-0.43-0.725-0.764-1.48-0.556-2.359
					c0.056-0.236,0.006-0.465-0.118-0.656c-0.29-0.447-0.674-0.82-1.207-0.918c-0.634-0.113-0.932-0.148-1.187,0.631
					c-0.006,0.02-0.007,0.041-0.022,0.137C51.455,84.771,51.368,85.152,51.21,85.523 M48.623,85.75
					c0.027-0.035,0.016-0.066-0.026-0.078c-0.013-0.002-0.039,0.012-0.04,0.021c-0.002,0.016,0.013,0.033,0.02,0.049
					C48.593,85.746,48.618,85.756,48.623,85.75"/>
				<path clip-path="url(#SVGID_10_)" fill-rule="evenodd" clip-rule="evenodd" fill="#E4C3AC" d="M26.905,94.217
					c-0.065-0.152-0.146-0.301-0.193-0.457c-0.12-0.393-0.033-0.686,0.319-0.912c0.286-0.186,0.446-0.416,0.482-0.75
					c0.021-0.207,0.072-0.408,0.113-0.611c0.136-0.668,0.384-0.896,1.074-1.014c0.391-0.066,0.785-0.072,1.177-0.053
					c0.313,0.016,0.62,0.014,0.93-0.033c0.522-0.08,1.029-0.047,1.521,0.176c0.187,0.084,0.396,0.117,0.595,0.176
					c0.199,0.063,0.39,0.139,0.549,0.281c0.4,0.357,0.413,0.928,0.034,1.318c-0.248,0.256-0.55,0.361-0.896,0.355
					c-0.372-0.008-0.752,0.018-1.116-0.043c-0.483-0.08-0.842,0.141-1.201,0.393c-0.181,0.125-0.266,0.316-0.285,0.529
					c-0.015,0.145,0.002,0.291-0.004,0.436c-0.027,0.629-0.382,1.053-0.998,1.172c-0.223,0.043-0.452,0.055-0.679,0.08
					c-0.477,0.053-1.025-0.227-1.245-0.646c-0.068-0.127-0.116-0.266-0.173-0.398C26.906,94.217,26.905,94.217,26.905,94.217"/>
				<path clip-path="url(#SVGID_10_)" fill-rule="evenodd" clip-rule="evenodd" fill="#E4C3AC" d="M29.979,96.441
					c0.473-0.156,0.918-0.373,1.408-0.49c0.499-0.119,0.82-0.463,0.953-0.969c0.048-0.18,0.083-0.363,0.141-0.541
					c0.178-0.547,0.537-0.756,1.104-0.635c0.384,0.084,0.688,0.281,0.837,0.668c0.089,0.232,0.197,0.457,0.281,0.691
					c0.146,0.4,0.167,0.809,0.005,1.213c-0.146,0.367-0.284,0.734-0.526,1.055c-0.469,0.617-1.09,1.006-1.823,1.23
					c-0.267,0.08-0.535,0.078-0.798,0.006c-0.269-0.074-0.529-0.08-0.797-0.004c-0.362,0.104-0.702,0.023-1.007-0.182
					c-0.206-0.139-0.396-0.299-0.587-0.459c-0.162-0.137-0.262-0.318-0.335-0.516c-0.132-0.354-0.064-0.531,0.289-0.697
					C29.403,96.68,29.692,96.564,29.979,96.441"/>
				<path clip-path="url(#SVGID_10_)" fill-rule="evenodd" clip-rule="evenodd" fill="#E4C3AC" d="M10.625,28.236
					c0.235,0.022,0.402,0.026,0.565,0.055c0.31,0.054,0.615,0.038,0.927,0c0.39-0.047,0.786-0.055,1.179-0.068
					c0.344-0.012,0.658,0.088,0.922,0.313c0.48,0.409,1.031,0.693,1.613,0.921c0.498,0.195,0.875,0.547,1.216,0.943
					c0.235,0.273,0.294,0.588,0.225,0.934c-0.016,0.08-0.035,0.164-0.07,0.236c-0.242,0.5-0.106,0.971,0.108,1.436
					c0.165,0.355,0.341,0.709,0.487,1.076c0.234,0.59,0.192,1.176-0.081,1.748c-0.137,0.287-0.331,0.533-0.589,0.713
					c-0.661,0.459-1.386,0.742-2.204,0.748c-0.487,0.004-0.945-0.139-1.384-0.324c-0.358-0.152-0.608-0.449-0.681-0.836
					c-0.073-0.387-0.106-0.781-0.131-1.174c-0.013-0.205,0.027-0.412,0.049-0.619c0.013-0.121,0.045-0.244,0.057-0.367
					c0.042-0.426-0.093-0.771-0.465-1.014c-0.156-0.102-0.602,0.127-0.752,0.018c-0.494-0.355-0.348-0.406-0.915-0.229
					c-0.079,0.025-0.537-0.273-0.617-0.254c-0.788,0.197-1.271,0.744-1.638,1.426c-0.268,0.498-0.167,1.098,0.242,1.477
					c0.2,0.186,0.419,0.354,0.684,0.42c0.699,0.172,0.938,0.924,0.775,1.551c-0.146,0.561-0.45,1.023-1,1.281
					C8.922,38.75,8.7,38.865,8.472,38.963c-0.307,0.131-0.606,0.104-0.896-0.063c-0.295-0.168-0.525-0.395-0.693-0.693
					c-0.314-0.561-0.642-1.113-0.959-1.672c-0.105-0.184-0.238-0.342-0.415-0.457c-0.417-0.27-0.66-0.686-0.898-1.096
					c-0.212-0.367-0.176-0.76-0.004-1.137c0.165-0.363,0.386-0.689,0.673-0.965c0.395-0.379,0.699-0.814,0.921-1.316
					c0.22-0.5,0.574-0.896,0.966-1.279c0.676-0.659,1.407-1.223,2.276-1.602c0.131-0.058,0.253-0.142,0.371-0.228
					C10.079,28.262,10.371,28.188,10.625,28.236"/>
				<path clip-path="url(#SVGID_10_)" fill-rule="evenodd" clip-rule="evenodd" fill="#E4C3AC" d="M48.362,48.145
					c0.952-0.051,2.521,0.264,3.184,0.943c0.246,0.252-0.249,0.477,0.021,0.701c0.538,0.445,0.947,0.98,1.186,1.643
					c0.142,0.395,0.177,0.809,0.223,1.219c0.039,0.357,0.118,0.693,0.303,1.002c0.386,0.645,0.291,1.287-0.083,1.881
					c-0.342,0.543-0.785,1.014-1.312,1.398c-0.561,0.408-1.169,0.508-1.826,0.303c-0.355-0.111-0.705-0.242-1.059-0.363
					c-0.437-0.148-0.665-0.637-0.459-1.059c0.128-0.26,0.231-0.531,0.366-0.787c0.184-0.355,0.282-0.734,0.367-1.121
					c0.084-0.383,0.002-0.727-0.227-1.057c-0.405-0.588-0.978-0.889-1.656-0.996c-0.473-0.074-0.947-0.066-1.399,0.158
					c-0.202,0.1,0.343,0.158,0.125,0.221c-0.319,0.092-1.32,0.277-1.453,0.584c-0.041,0.096-0.089,0.188-0.135,0.281
					c-0.096,0.195-0.123,0.393-0.018,0.596c0.038,0.072,0.063,0.154,0.103,0.225c0.309,0.58,1.156,1.223,1.282,1.85
					c0.101,0.496-0.046,0.766-0.499,1.025c-0.288,0.164-1.354,0.313-1.647,0.467c-0.159,0.084-0.321,0.07-0.476-0.01
					c-0.093-0.047-0.18-0.105-0.267-0.16c-0.55-0.354-0.981-0.828-1.372-1.34c-0.327-0.43,0.332-0.93,0.428-1.469
					c0.062-0.348,0.114-0.695,0.188-1.039c0.086-0.412,0.104-0.822,0.025-1.234c-0.138-0.729-0.643-1.275-0.078-1.744
					c0.976-0.813,2.879-1.303,4.057-1.715c0.231-0.082,0.484-0.107,0.729-0.145c0.348-0.055,0.7-0.082,1.043-0.156
					C48.396,48.168,47.995,48.139,48.362,48.145"/>
				<path clip-path="url(#SVGID_10_)" fill-rule="evenodd" clip-rule="evenodd" fill="#E4C3AC" d="M59.971,69.584
					c0.207,0,0.416,0.01,0.622-0.002c0.247-0.016,0.431-0.15,0.538-0.369c0.101-0.205,0.184-0.416,0.272-0.627
					c0.137-0.326,0.284-0.643,0.458-0.953c0.28-0.5,0.428-1.033,0.233-1.611c-0.11-0.326-0.024-0.602,0.208-0.855
					c0.533-0.584,1.125-0.709,1.851-0.387c0.353,0.156,0.641,0.371,0.821,0.723c0.073,0.146,0.178,0.283,0.292,0.4
					c0.213,0.223,0.314,0.49,0.331,0.785c0.017,0.314,0.081,0.617,0.181,0.912c0.077,0.225,0.082,0.445,0.016,0.672
					c-0.053,0.178-0.105,0.359-0.138,0.543c-0.144,0.824-0.539,1.512-1.106,2.117c-0.341,0.361-0.647,0.754-0.972,1.131
					c-0.239,0.277-0.532,0.422-0.901,0.496c-0.547,0.109-1.116,0.113-1.642,0.332c-0.209,0.088-0.432,0.146-0.642,0.234
					c-0.547,0.227-1.085,0.242-1.622-0.031c-0.335-0.17-0.688-0.281-1.062-0.334c-0.226-0.033-0.451-0.086-0.665-0.16
					c-0.53-0.186-1.071-0.328-1.625-0.414c-0.317-0.049-0.588-0.193-0.844-0.375c-0.163-0.117-0.257-0.271-0.261-0.471
					c-0.004-0.186-0.002-0.373,0.013-0.559c0.023-0.318-0.021-0.619-0.17-0.904c-0.049-0.092-0.091-0.188-0.13-0.283
					c-0.143-0.348-0.125-0.688,0.052-1.02c0.167-0.313,0.365-0.604,0.623-0.85c0.181-0.172,0.362-0.342,0.535-0.521
					c0.375-0.387,0.437-0.832,0.211-1.316c-0.062-0.131-0.145-0.252-0.211-0.381c-0.456-0.875-0.026-1.869,0.929-2.109
					c0.364-0.092,0.739-0.113,1.09,0.09c0.088,0.051,0.19,0.102,0.289,0.105c0.451,0.02,0.685,0.355,0.946,0.643
					c0.237,0.262,0.285,0.586,0.302,0.926c0.024,0.502-0.103,0.941-0.452,1.313c-0.126,0.135-0.233,0.291-0.347,0.439
					c-0.138,0.18-0.182,0.379-0.067,0.58c0.228,0.404,0.363,0.834,0.44,1.287c0.071,0.422,0.349,0.639,0.737,0.752
					C59.391,69.615,59.682,69.588,59.971,69.584 M56.662,64.002c-0.019-0.004-0.038-0.016-0.055-0.014
					c-0.064,0.014-0.067,0.039-0.01,0.066c0.017,0.006,0.041,0.002,0.058-0.006C56.663,64.043,56.66,64.018,56.662,64.002"/>
				<path clip-path="url(#SVGID_10_)" fill-rule="evenodd" clip-rule="evenodd" fill="#E4C3AC" d="M48.158,53.244
					c-0.14,0.059-0.287,0.131-0.442,0.18c-0.449,0.145-0.622,0.299-0.626,0.721c-0.004,0.418-0.095,0.824-0.117,1.238
					c-0.009,0.164-0.033,0.332-0.082,0.488c-0.092,0.299-0.18,0.592-0.156,0.912c0.028,0.391-0.356,0.789-0.808,0.766
					c-0.269-0.014-0.539,0.012-0.808,0c-0.164-0.006-0.334-0.027-0.486-0.08c-0.294-0.105-0.579-0.23-0.862-0.359
					c-0.31-0.143-0.545-0.375-0.733-0.656c-0.272-0.408-1.116-0.836-0.916-1.297c0.107-0.248,0.971-0.502,1.093-0.742
					c0.166-0.324,0.236-0.662,0.2-1.023c-0.028-0.268-0.043-0.537-0.09-0.801c-0.052-0.297-0.037-0.58,0.069-0.857
					c0.135-0.348,0.255-0.703,0.408-1.043c0.182-0.408,0.465-0.734,0.874-0.938c0.093-0.047,0.189-0.088,0.273-0.146
					c0.522-0.367,1.101-0.463,1.72-0.365c0.39,0.064,0.779,0.121,1.165,0.193c0.49,0.094,0.976,0.199,1.479,0.08
					c0.247-0.059,0.497-0.018,0.732,0.082c0.708,0.299,1.415,0.596,1.942,1.191c0.122,0.139,0.285,0.24,0.428,0.361
					c0.158,0.133,0.315,0.268,0.471,0.406c0.212,0.188,0.313,0.422,0.33,0.711c0.022,0.393,0.071,0.785,0.113,1.176
					c0.04,0.375,0.182,0.723,0.313,1.072c0.094,0.254,0.155,0.516,0.224,0.775c0.109,0.42,0.051,0.822-0.054,1.229
					c-0.112,0.434-0.398,0.68-0.827,0.734c-0.351,0.043-0.7,0.063-1.022,0.23c-0.112,0.059-0.245,0.039-0.366,0
					c-0.552-0.182-1.096-0.387-1.602-0.678c-0.343-0.197-0.434-0.393-0.367-0.773c0.024-0.143,0.082-0.279,0.108-0.42
					c0.088-0.473,0.035-0.912-0.316-1.273c-0.304-0.313-0.609-0.623-0.916-0.932C48.413,53.314,48.299,53.266,48.158,53.244"/>
				<path clip-path="url(#SVGID_10_)" fill-rule="evenodd" clip-rule="evenodd" fill="#E4C3AC" d="M53.408,47.359
					c0.043,0.146,0.078,0.307,0.137,0.459c0.17,0.439,0.156,0.672-0.17,0.939c-0.324,0.266-0.584,0.588-0.892,0.865
					c-0.123,0.109-0.238,0.234-0.33,0.369c-0.176,0.26-0.351,0.512-0.614,0.693c-0.322,0.221-0.393,0.771-0.093,1.107
					c0.18,0.201,0.329,0.43,0.506,0.631c0.107,0.125,0.229,0.244,0.368,0.33c0.264,0.164,0.541,0.307,0.818,0.447
					c0.305,0.152,0.633,0.191,0.971,0.162c0.488-0.043,0.87-0.254,1.104-0.697c0.126-0.24,0.266-0.471,0.376-0.717
					c0.149-0.332,0.367-0.6,0.673-0.795c0.226-0.146,0.446-0.303,0.683-0.432c0.263-0.145,0.475-0.334,0.624-0.59
					c0.188-0.324,0.389-0.639,0.559-0.973c0.205-0.396,0.282-0.822,0.186-1.268c-0.022-0.102-0.051-0.203-0.058-0.305
					c-0.04-0.639-0.326-1.148-0.792-1.57c-0.292-0.264-0.58-0.531-0.879-0.787c-0.38-0.324-0.766-0.637-0.988-1.104
					c-0.109-0.23-0.297-0.4-0.521-0.521c-0.676-0.365-1.351-0.73-2.146-0.77c-0.184-0.01-0.365-0.074-0.548-0.109
					c-0.203-0.039-0.407-0.078-0.611-0.111c-0.28-0.049-0.526,0.018-0.762,0.186c-0.319,0.229-0.657,0.436-0.988,0.648
					c-0.317,0.203-0.678,0.311-1.032,0.428c-0.257,0.084-0.499,0.199-0.744,0.309c-0.396,0.178-0.673,0.475-0.925,0.811
					c-0.27,0.359-0.282,0.738-0.057,1.105c0.186,0.301,0.39,0.584,0.46,0.941c0.025,0.123,0.123,0.217,0.229,0.285
					c0.487,0.318,0.988,0.613,1.532,0.826c0.367,0.145,0.576,0.094,0.832-0.197c0.095-0.107,0.165-0.238,0.26-0.348
					c0.313-0.363,0.688-0.598,1.191-0.551c0.434,0.043,0.867,0.086,1.301,0.133C53.195,47.205,53.306,47.264,53.408,47.359"/>
				<path clip-path="url(#SVGID_10_)" fill-rule="evenodd" clip-rule="evenodd" fill="#E4C3AC" d="M11.455,58.518
					c-0.016-0.096-0.017-0.117-0.023-0.137c-0.255-0.781-0.553-0.746-1.186-0.631c-0.533,0.096-0.917,0.471-1.208,0.918
					c-0.125,0.191-0.174,0.418-0.117,0.656c0.208,0.879-0.126,1.635-0.557,2.359c-0.193,0.324-0.542,0.508-0.853,0.703
					c-0.199,0.127-0.46,0.098-0.652-0.045c-0.396-0.297-0.824-0.539-1.187-0.893c-0.514-0.504-0.713-1.1-0.769-1.779
					c-0.021-0.268-0.049-0.535-0.072-0.805c-0.007-0.082-0.031-0.168-0.018-0.246c0.125-0.693,0.203-1.4,0.522-2.041
					c0.091-0.184,0.192-0.375,0.331-0.523c0.497-0.529,1.018-1.035,1.679-1.367c0.204-0.102,0.401-0.217,0.603-0.324
					c0.091-0.049,0.178-0.111,0.274-0.145c0.844-0.289,1.682-0.598,2.59-0.609c0.25-0.004,0.499,0.004,0.746-0.008
					c0.575-0.025,1.108,0.145,1.635,0.338c0.411,0.15,0.678,0.467,0.903,0.824c0.242,0.385,0.485,0.773,0.702,1.174
					c0.448,0.826,0.542,1.691,0.185,2.574c-0.096,0.236-0.151,0.469-0.145,0.721c0.003,0.145-0.006,0.293-0.034,0.434
					c-0.094,0.479-0.5,0.896-0.983,0.885c-0.276-0.008-0.528,0.076-0.785,0.17c-0.507,0.184-0.953,0.035-1.238-0.416
					c-0.133-0.211-0.241-0.438-0.337-0.666C11.305,59.268,11.219,58.887,11.455,58.518 M14.096,59.857
					c0.008-0.016,0.022-0.033,0.02-0.049c0-0.01-0.028-0.025-0.039-0.021c-0.043,0.012-0.053,0.043-0.026,0.078
					C14.054,59.871,14.081,59.859,14.096,59.857"/>
				<path clip-path="url(#SVGID_10_)" fill-rule="evenodd" clip-rule="evenodd" fill="#E4C3AC" d="M51.438,35.328
					c-0.098,0.229-0.205,0.455-0.338,0.664c-0.284,0.453-0.73,0.602-1.237,0.418c-0.256-0.094-0.51-0.178-0.785-0.17
					c-0.482,0.014-0.888-0.408-0.981-0.885c-0.029-0.141-0.039-0.289-0.035-0.434c0.006-0.254-0.049-0.484-0.146-0.723
					c-0.356-0.883-0.262-1.746,0.187-2.574c0.217-0.4,0.459-0.787,0.701-1.174c0.225-0.355,0.492-0.673,0.903-0.822
					c0.527-0.192,1.061-0.363,1.634-0.338c0.249,0.012,0.498,0.004,0.747,0.008c0.908,0.012,1.747,0.32,2.59,0.608
					c0.098,0.033,0.184,0.097,0.275,0.146c0.2,0.107,0.398,0.221,0.603,0.324c0.66,0.332,1.182,0.838,1.68,1.367
					c0.139,0.146,0.238,0.338,0.33,0.523c0.319,0.641,0.396,1.348,0.521,2.041c0.015,0.078-0.01,0.164-0.017,0.246
					c-0.024,0.268-0.051,0.535-0.073,0.805c-0.054,0.68-0.255,1.275-0.768,1.777c-0.363,0.355-0.792,0.598-1.188,0.895
					c-0.191,0.143-0.453,0.17-0.651,0.045c-0.313-0.195-0.661-0.379-0.854-0.705c-0.43-0.723-0.764-1.48-0.556-2.357
					c0.057-0.238,0.006-0.465-0.117-0.656c-0.29-0.447-0.675-0.822-1.208-0.918c-0.634-0.115-0.931-0.15-1.187,0.631
					c-0.006,0.02-0.006,0.041-0.022,0.137C51.684,34.576,51.597,34.955,51.438,35.328 M48.852,35.555
					c0.027-0.037,0.017-0.066-0.026-0.078c-0.013-0.004-0.039,0.012-0.04,0.021c-0.002,0.016,0.013,0.031,0.02,0.049
					C48.821,35.549,48.847,35.561,48.852,35.555"/>
				<path clip-path="url(#SVGID_10_)" fill-rule="evenodd" clip-rule="evenodd" fill="#E4C3AC" d="M3.971,68.521
					c0.073,0.064,0.087,0.08,0.104,0.09c0.695,0.438,0.902,0.221,1.316-0.271c0.348-0.416,0.404-0.949,0.342-1.479
					c-0.028-0.227-0.134-0.434-0.329-0.58c-0.722-0.543-0.949-1.338-1.08-2.17c-0.059-0.373,0.091-0.738,0.206-1.088
					c0.073-0.223,0.292-0.367,0.531-0.381c0.494-0.023,0.978-0.113,1.483-0.072c0.716,0.059,1.251,0.389,1.729,0.877
					c0.188,0.193,0.38,0.383,0.569,0.572c0.059,0.059,0.131,0.109,0.171,0.18c0.347,0.611,0.739,1.205,0.904,1.902
					c0.048,0.201,0.093,0.412,0.08,0.613c-0.044,0.727-0.121,1.447-0.418,2.125c-0.091,0.209-0.17,0.424-0.256,0.635
					c-0.038,0.096-0.064,0.201-0.118,0.287c-0.464,0.762-0.913,1.535-1.603,2.125c-0.189,0.162-0.386,0.314-0.57,0.482
					c-0.425,0.387-0.943,0.596-1.472,0.785c-0.412,0.146-0.821,0.074-1.221-0.057c-0.434-0.141-0.867-0.285-1.29-0.455
					c-0.874-0.348-1.498-0.953-1.788-1.859c-0.079-0.244-0.184-0.457-0.35-0.648c-0.095-0.109-0.182-0.229-0.25-0.355
					c-0.232-0.428-0.19-1.01,0.19-1.309c0.217-0.17,0.358-0.396,0.495-0.631c0.272-0.467,0.71-0.637,1.219-0.473
					c0.235,0.078,0.464,0.184,0.684,0.297C3.607,67.85,3.917,68.086,3.971,68.521 M1.083,69.18c0.004,0.018,0.004,0.039,0.015,0.049
					c0.006,0.008,0.038,0.002,0.044-0.008c0.026-0.037,0.014-0.066-0.03-0.076C1.106,69.143,1.093,69.166,1.083,69.18"/>
				<path clip-path="url(#SVGID_10_)" fill-rule="evenodd" clip-rule="evenodd" fill="#E4C3AC" d="M17.48,61.242
					c0.527-0.027,1.003,0.119,1.48,0.26c0.182,0.055,0.335,0.16,0.485,0.273c0.175,0.133,0.293,0.293,0.284,0.521
					c-0.009,0.213,0.045,0.414,0.119,0.605c0.117,0.297,0.053,0.574-0.053,0.848c-0.116,0.299-0.361,0.449-0.686,0.426
					c-0.185-0.016-0.366-0.068-0.551-0.092c-0.415-0.051-0.617,0.092-0.729,0.494c-0.081,0.285-0.102,0.572-0.009,0.857
					c0.12,0.373,0.326,0.68,0.716,0.801c0.416,0.127,0.838,0.23,1.261,0.334c0.097,0.023,0.206,0.014,0.309,0.004
					c0.309-0.031,0.617-0.066,0.924-0.109c0.122-0.018,0.246-0.045,0.359-0.092c0.251-0.105,0.366-0.338,0.291-0.607
					c-0.084-0.301-0.19-0.59-0.188-0.908c0.002-0.301,0.062-0.574,0.232-0.824c0.104-0.154,0.187-0.322,0.295-0.473
					c0.271-0.381,0.582-0.697,1.1-0.703c0.142-0.002,0.283-0.059,0.426-0.082c0.483-0.076,0.847,0.215,0.894,0.713
					c0.007,0.082,0.003,0.166,0.007,0.248c0.026,0.539,0.022,1.078,0.105,1.613c0.026,0.162,0.02,0.33,0.028,0.496
					c0.033,0.574-0.185,1.063-0.576,1.459c-0.422,0.426-0.872,0.828-1.326,1.221c-0.336,0.291-0.753,0.434-1.183,0.521
					c-0.425,0.09-0.854,0.178-1.285,0.223c-0.858,0.088-1.696-0.014-2.498-0.348c-0.27-0.111-0.531-0.238-0.734-0.455
					c-0.162-0.172-0.365-0.268-0.585-0.338c-0.178-0.057-0.348-0.137-0.527-0.188c-0.495-0.141-0.884-0.436-1.242-0.793
					c-0.428-0.428-0.555-0.91-0.32-1.471c0.088-0.209,0.205-0.406,0.32-0.602c0.084-0.143,0.19-0.271,0.282-0.41
					c0.241-0.365,0.324-0.758,0.202-1.184c-0.082-0.283-0.116-0.568-0.104-0.861c0.008-0.217,0.082-0.402,0.229-0.563
					c0.229-0.246,0.482-0.453,0.807-0.563C16.514,61.336,16.993,61.203,17.48,61.242 M18.988,62.346
					c0.011,0.008,0.022,0.016,0.033,0.025c-0.013-0.006-0.026-0.014-0.039-0.02l-0.026-0.035L18.988,62.346z M23.032,63.949
					c-0.049-0.01-0.078,0.01-0.08,0.057c0,0.014,0.014,0.037,0.026,0.043c0.015,0.008,0.05,0,0.051-0.006
					C23.035,64.012,23.032,63.98,23.032,63.949 M18.929,63.566c0.016-0.01,0.031-0.018,0.047-0.027
					c-0.013-0.012-0.024-0.031-0.039-0.035c-0.051-0.012-0.074,0.008-0.058,0.049C18.884,63.563,18.913,63.563,18.929,63.566
					 M18.256,68.049c0.016-0.01,0.032-0.02,0.047-0.027c-0.013-0.012-0.027-0.033-0.042-0.033c-0.015,0-0.031,0.018-0.047,0.025
					C18.229,68.025,18.242,68.037,18.256,68.049"/>
				<path clip-path="url(#SVGID_10_)" fill-rule="evenodd" clip-rule="evenodd" fill="#E4C3AC" d="M60.161,59.17
					c-0.165,0-0.333,0.014-0.496-0.004c-0.408-0.045-0.642-0.24-0.712-0.654c-0.058-0.334-0.206-0.572-0.499-0.738
					c-0.181-0.102-0.347-0.227-0.517-0.346c-0.561-0.389-0.674-0.707-0.509-1.387c0.093-0.385,0.244-0.748,0.417-1.102
					c0.137-0.281,0.257-0.564,0.335-0.867c0.133-0.512,0.364-0.965,0.763-1.328c0.151-0.137,0.264-0.318,0.397-0.477
					s0.279-0.303,0.473-0.395c0.486-0.227,1.017-0.014,1.226,0.49c0.138,0.328,0.116,0.646-0.028,0.963
					c-0.153,0.34-0.28,0.697-0.479,1.008c-0.264,0.414-0.203,0.83-0.114,1.26c0.045,0.217,0.188,0.369,0.376,0.471
					c0.126,0.07,0.266,0.113,0.397,0.176c0.567,0.273,0.815,0.766,0.682,1.379c-0.048,0.223-0.127,0.438-0.193,0.654
					c-0.138,0.461-0.612,0.854-1.083,0.891c-0.145,0.012-0.29,0.002-0.436,0.002V59.17z"/>
				<path clip-path="url(#SVGID_10_)" fill-rule="evenodd" clip-rule="evenodd" fill="#E4C3AC" d="M63.42,57.223
					c0.042-0.496,0.018-0.992,0.104-1.488c0.087-0.506-0.104-0.938-0.514-1.258c-0.147-0.115-0.303-0.221-0.443-0.344
					c-0.431-0.379-0.481-0.791-0.146-1.262c0.227-0.322,0.528-0.523,0.942-0.508c0.249,0.01,0.498,0,0.746,0.016
					c0.427,0.023,0.81,0.164,1.118,0.473c0.278,0.279,0.562,0.551,0.76,0.898c0.383,0.678,0.495,1.4,0.411,2.162
					c-0.03,0.277-0.139,0.523-0.309,0.736c-0.173,0.217-0.282,0.455-0.318,0.73c-0.048,0.373-0.255,0.654-0.563,0.854
					c-0.209,0.133-0.432,0.246-0.653,0.357c-0.189,0.096-0.396,0.115-0.606,0.105c-0.377-0.018-0.513-0.15-0.526-0.541
					C63.411,57.844,63.42,57.533,63.42,57.223"/>
				<path clip-path="url(#SVGID_10_)" fill-rule="evenodd" clip-rule="evenodd" fill="#E4C3AC" d="M44.915,70.406
					c-0.001,0.016,0.001,0.039-0.007,0.045c-0.017,0.008-0.041,0.012-0.057,0.006c-0.059-0.025-0.056-0.051,0.01-0.064
					C44.878,70.389,44.897,70.4,44.915,70.406"/>
				<path clip-path="url(#SVGID_10_)" fill-rule="evenodd" clip-rule="evenodd" fill="#E4C3AC" d="M25.866,63.531
					c-0.016,0.004-0.042,0.014-0.046,0.008c-0.026-0.035-0.017-0.066,0.026-0.078c0.011-0.004,0.04,0.014,0.04,0.021
					C25.887,63.498,25.873,63.514,25.866,63.531"/>
				<path clip-path="url(#SVGID_10_)" fill-rule="evenodd" clip-rule="evenodd" fill="#E4C3AC" d="M26.426,48.549
					c0,0.031,0.003,0.063-0.002,0.094c-0.001,0.006-0.037,0.012-0.051,0.006c-0.013-0.006-0.027-0.029-0.026-0.045
					C26.349,48.559,26.377,48.539,26.426,48.549"/>
				<path clip-path="url(#SVGID_10_)" fill-rule="evenodd" clip-rule="evenodd" fill="#E4C3AC" d="M22.324,48.166
					c-0.018-0.004-0.045-0.004-0.049-0.016c-0.017-0.039,0.007-0.059,0.058-0.047c0.015,0.004,0.025,0.023,0.039,0.035
					C22.355,48.148,22.34,48.156,22.324,48.166"/>
				<path clip-path="url(#SVGID_10_)" fill-rule="evenodd" clip-rule="evenodd" fill="#E4C3AC" d="M21.65,52.648
					c-0.013-0.012-0.028-0.023-0.042-0.035c0.016-0.01,0.032-0.027,0.047-0.025c0.014,0.002,0.028,0.02,0.042,0.033
					C21.682,52.629,21.666,52.639,21.65,52.648"/>
				<polygon clip-path="url(#SVGID_10_)" fill-rule="evenodd" clip-rule="evenodd" fill="#E4C3AC" points="22.383,46.945 
					22.351,46.916 22.377,46.949 				"/>
				<path clip-path="url(#SVGID_10_)" fill-rule="evenodd" clip-rule="evenodd" fill="#E4C3AC" d="M22.377,46.949
					c0.013,0.008,0.025,0.014,0.038,0.02c-0.011-0.008-0.021-0.016-0.033-0.023L22.377,46.949z"/>
				<path clip-path="url(#SVGID_10_)" fill-rule="evenodd" clip-rule="evenodd" fill="#E4C3AC" d="M22.042,68.006
					c0.825-0.537,1.417-1.289,1.911-2.119c0.207-0.348,0.353-0.732,0.532-1.096c0.604-1.225,0.606-2.488,0.249-3.762
					c-0.127-0.457-0.326-0.893-0.504-1.334c-0.054-0.135-0.127-0.268-0.222-0.377c-0.76-0.869-1.637-1.58-2.784-1.883
					c-1.002-0.266-2.027-0.363-3.071-0.281c-0.641,0.051-1.223,0.287-1.805,0.521c-0.49,0.197-0.729,0.615-0.764,1.131
					c-0.045,0.672,0.065,1.324,0.369,1.92c0.375,0.736,0.969,1.186,1.827,1.227c0.258,0.012,0.518,0.006,0.775,0.02
					c0.345,0.018,0.641,0.158,0.899,0.377c0.43,0.365,0.413,0.982-0.042,1.336c-0.085,0.066-0.184,0.133-0.288,0.16
					c-1.177,0.309-1.766,1.285-2.444,2.15c-0.241,0.307-0.244,0.682-0.098,1.051c0.264,0.662,0.701,1.109,1.446,1.188
					c0.22,0.023,0.443,0.055,0.661,0.039c0.594-0.047,1.179-0.025,1.764,0.086C21.028,68.469,21.555,68.326,22.042,68.006"/>
				<path clip-path="url(#SVGID_10_)" fill-rule="evenodd" clip-rule="evenodd" fill="#E4C3AC" d="M18.58,61.334
					c-0.015-0.027,0.006,0.037,0.049,0.078c0.452,0.428,0.802,0.939,1.2,1.41c0.827,0.984,1.91,1.352,1.557,1.121
					c0.035,0.023,0.075,0.045,0.114,0.049c0.567,0.051,1.13,0.066,1.618-0.303c0.328-0.248,0.374-0.664,0.114-0.992
					c-0.09-0.113-0.203-0.207-0.306-0.309c-0.337-0.332-0.586-0.746-0.986-1.021c-0.14-0.098-0.18-0.277-0.176-0.447
					c0.009-0.396,0.001-0.789-0.141-1.166c-0.054-0.143-0.014-0.287,0.053-0.422c0.184-0.369,0.022-0.695-0.147-1
					c-0.127-0.227-0.377-0.346-0.639-0.318c-0.371,0.037-0.743,0.104-1.104,0.203c-0.242,0.064-0.438,0.238-0.598,0.439
					c-0.183,0.229-0.361,0.459-0.547,0.686C18.238,59.838,18.089,60.604,18.58,61.334"/>
				<path clip-path="url(#SVGID_10_)" fill-rule="evenodd" clip-rule="evenodd" fill="#E4C3AC" d="M18.477,18.16
					c-0.186,0-0.373-0.003-0.56,0.001c-0.285,0.005-0.525,0.115-0.709,0.333c-0.243,0.286-0.452,0.594-0.567,0.957
					c-0.151,0.468-0.054,0.736,0.356,1.006c0.172,0.114,0.351,0.223,0.506,0.356c0.232,0.198,0.338,0.461,0.342,0.771
					c0.004,0.317-0.05,0.619-0.188,0.904c-0.25,0.514-0.658,0.726-1.22,0.631c-0.103-0.017-0.201-0.055-0.302-0.075
					c-0.185-0.036-0.373-0.043-0.556,0c-0.803,0.186-1.516-0.104-2.194-0.463c-0.401-0.213-0.619-0.595-0.628-1.077
					c-0.011-0.562,0.001-1.121,0.155-1.666c0.141-0.498,0.26-1.002,0.452-1.486c0.098-0.249,0.173-0.51,0.229-0.773
					c0.117-0.55,0.386-1,0.816-1.358c0.064-0.054,0.128-0.106,0.188-0.164c0.507-0.488,1.099-0.802,1.801-0.908
					c0.413-0.063,0.795-0.227,1.169-0.41c0.298-0.146,0.602-0.28,0.907-0.407c0.339-0.141,0.689-0.148,1.036-0.036
					c0.494,0.161,1.002,0.257,1.513,0.347c0.6,0.105,1.163,0.301,1.625,0.723c0.106,0.097,0.236,0.167,0.354,0.252
					c0.607,0.433,0.956,1.017,1.058,1.756c0.119,0.862,0.24,1.723,0.436,2.572c0.074,0.322,0.117,0.653,0.149,0.982
					c0.081,0.8-0.426,1.63-1.131,1.895c-0.261,0.098-0.529,0.103-0.797,0.081c-0.333-0.026-0.657-0.042-0.979,0.089
					c-0.193,0.079-0.408,0.06-0.616,0.042c-0.399-0.034-0.791-0.095-1.038-0.464c-0.288-0.431-0.433-0.896-0.284-1.414
					c0.045-0.159,0.116-0.311,0.174-0.465c0.058-0.156,0.12-0.309,0.171-0.467c0.116-0.363,0.07-0.701-0.199-0.983
					c-0.192-0.202-0.328-0.417-0.347-0.707c-0.013-0.214-0.168-0.336-0.373-0.351c-0.247-0.018-0.497-0.004-0.746-0.004V18.16z"/>
				<path clip-path="url(#SVGID_10_)" fill-rule="evenodd" clip-rule="evenodd" fill="#E4C3AC" d="M51.106,2.75
					c0.951-0.05,1.751,0.264,2.414,0.944c0.246,0.251,0.52,0.476,0.791,0.7c0.539,0.446,0.948,0.981,1.187,1.643
					c0.142,0.395,0.177,0.81,0.222,1.219c0.039,0.358,0.118,0.693,0.303,1.001c0.387,0.646,0.29,1.288-0.083,1.881
					c-0.341,0.544-0.784,1.014-1.311,1.398c-0.562,0.409-1.17,0.508-1.827,0.303c-0.355-0.111-0.705-0.242-1.058-0.362
					c-0.437-0.149-0.666-0.638-0.459-1.058c0.128-0.261,0.231-0.533,0.365-0.79c0.185-0.354,0.283-0.734,0.367-1.119
					c0.083-0.384,0.002-0.729-0.226-1.059c-0.407-0.586-0.979-0.888-1.657-0.994c-0.473-0.074-0.947-0.067-1.398,0.156
					c-0.203,0.1-0.427,0.159-0.646,0.221c-0.319,0.092-0.551,0.277-0.684,0.584c-0.041,0.095-0.089,0.188-0.134,0.28
					c-0.097,0.196-0.123,0.393-0.019,0.596c0.038,0.073,0.063,0.154,0.103,0.227c0.309,0.578,0.387,1.222,0.514,1.849
					c0.101,0.495-0.047,0.766-0.5,1.024c-0.288,0.164-0.584,0.314-0.877,0.468c-0.16,0.083-0.321,0.069-0.477-0.011
					c-0.093-0.046-0.18-0.104-0.267-0.16c-0.549-0.352-0.982-0.829-1.372-1.339c-0.327-0.43-0.438-0.93-0.342-1.469
					c0.063-0.346,0.114-0.695,0.187-1.039c0.087-0.412,0.105-0.821,0.026-1.234c-0.138-0.728,0.128-1.276,0.69-1.744
					c0.976-0.812,2.11-1.302,3.288-1.715c0.231-0.082,0.484-0.105,0.729-0.145c0.348-0.055,0.701-0.08,1.044-0.154
					C50.37,2.774,50.738,2.745,51.106,2.75"/>
				<path clip-path="url(#SVGID_10_)" fill-rule="evenodd" clip-rule="evenodd" fill="#E4C3AC" d="M48.993,23.047
					c0.207,0,0.416,0.01,0.622-0.003c0.248-0.015,0.431-0.148,0.538-0.368c0.101-0.205,0.185-0.417,0.272-0.628
					c0.137-0.325,0.285-0.643,0.458-0.952c0.281-0.5,0.429-1.034,0.233-1.611c-0.11-0.327-0.022-0.603,0.209-0.857
					c0.532-0.583,1.124-0.708,1.851-0.387c0.353,0.156,0.64,0.371,0.82,0.725c0.074,0.145,0.179,0.281,0.292,0.4
					c0.213,0.222,0.315,0.489,0.331,0.785c0.018,0.314,0.081,0.616,0.181,0.912c0.077,0.224,0.083,0.444,0.017,0.671
					c-0.053,0.179-0.106,0.359-0.139,0.542c-0.144,0.825-0.538,1.512-1.106,2.118c-0.34,0.362-0.647,0.755-0.972,1.132
					c-0.238,0.277-0.532,0.42-0.901,0.495c-0.547,0.11-1.115,0.114-1.641,0.332c-0.21,0.088-0.433,0.147-0.643,0.234
					c-0.546,0.227-1.085,0.243-1.621-0.029c-0.336-0.17-0.688-0.283-1.063-0.336c-0.226-0.032-0.45-0.085-0.665-0.159
					c-0.53-0.184-1.07-0.329-1.624-0.415c-0.318-0.049-0.589-0.191-0.844-0.375c-0.164-0.117-0.258-0.271-0.262-0.47
					c-0.004-0.187-0.001-0.374,0.013-0.56c0.024-0.318-0.021-0.62-0.17-0.904c-0.048-0.092-0.091-0.187-0.13-0.283
					c-0.142-0.348-0.124-0.689,0.052-1.02c0.168-0.313,0.365-0.603,0.624-0.849c0.181-0.171,0.361-0.343,0.534-0.521
					c0.375-0.388,0.438-0.832,0.211-1.316c-0.062-0.131-0.144-0.252-0.211-0.38c-0.456-0.876-0.026-1.87,0.93-2.11
					c0.363-0.092,0.739-0.113,1.09,0.089c0.088,0.051,0.189,0.102,0.288,0.106c0.451,0.021,0.685,0.355,0.947,0.643
					c0.236,0.261,0.284,0.585,0.301,0.925c0.025,0.503-0.103,0.941-0.451,1.313c-0.127,0.136-0.233,0.291-0.347,0.439
					c-0.139,0.18-0.182,0.38-0.068,0.582c0.228,0.402,0.364,0.833,0.441,1.287c0.07,0.421,0.349,0.637,0.736,0.751
					C48.413,23.079,48.704,23.052,48.993,23.047 M45.685,17.465c-0.018-0.005-0.037-0.017-0.055-0.014
					c-0.064,0.013-0.067,0.04-0.009,0.065c0.016,0.007,0.041,0.002,0.057-0.007C45.686,17.505,45.683,17.481,45.685,17.465"/>
				<path clip-path="url(#SVGID_10_)" fill-rule="evenodd" clip-rule="evenodd" fill="#E4C3AC" d="M34.896,16.084
					c-0.141,0.058-0.289,0.13-0.443,0.18c-0.449,0.143-0.622,0.298-0.626,0.72c-0.004,0.418-0.095,0.823-0.117,1.238
					c-0.009,0.164-0.034,0.332-0.083,0.488c-0.092,0.298-0.18,0.592-0.155,0.913c0.028,0.39-0.356,0.789-0.808,0.765
					c-0.269-0.015-0.54,0.011-0.809,0c-0.163-0.006-0.334-0.026-0.486-0.081c-0.294-0.104-0.579-0.229-0.861-0.358
					c-0.31-0.143-0.544-0.374-0.733-0.657c-0.272-0.408-0.347-0.836-0.147-1.298c0.107-0.247,0.201-0.502,0.323-0.741
					c0.167-0.324,0.238-0.662,0.2-1.022c-0.028-0.268-0.043-0.538-0.089-0.803c-0.053-0.295-0.038-0.578,0.07-0.856
					c0.133-0.349,0.254-0.703,0.406-1.043c0.182-0.408,0.465-0.734,0.874-0.938c0.093-0.046,0.19-0.087,0.274-0.147
					c0.522-0.368,1.101-0.463,1.72-0.363c0.389,0.063,0.778,0.12,1.165,0.193c0.49,0.093,0.976,0.198,1.479,0.08
					c0.248-0.058,0.498-0.018,0.732,0.081c0.708,0.299,1.416,0.596,1.943,1.193c0.122,0.138,0.285,0.239,0.427,0.359
					c0.159,0.134,0.316,0.269,0.471,0.407c0.212,0.189,0.314,0.423,0.33,0.711c0.022,0.393,0.073,0.784,0.114,1.175
					c0.04,0.376,0.182,0.724,0.312,1.073c0.095,0.253,0.155,0.514,0.224,0.775c0.11,0.419,0.052,0.82-0.053,1.228
					c-0.112,0.435-0.399,0.681-0.827,0.735c-0.351,0.044-0.699,0.063-1.022,0.23c-0.111,0.058-0.246,0.041-0.366,0
					c-0.553-0.182-1.097-0.388-1.603-0.679c-0.342-0.197-0.433-0.391-0.366-0.772c0.023-0.143,0.082-0.279,0.108-0.421
					c0.088-0.471,0.036-0.911-0.316-1.274c-0.304-0.312-0.609-0.623-0.917-0.931C35.15,16.154,35.035,16.104,34.896,16.084"/>
				<path clip-path="url(#SVGID_10_)" fill-rule="evenodd" clip-rule="evenodd" fill="#E4C3AC" d="M36.742-0.981
					c0.061,0.098,0.108,0.189,0.169,0.271c0.179,0.242,0.269,0.511,0.261,0.813c-0.002,0.083-0.005,0.167,0.001,0.249
					c0.033,0.411,0.26,0.595,0.671,0.512c0.243-0.049,0.482-0.127,0.712-0.22c0.381-0.153,0.756-0.2,1.149-0.047
					c0.133,0.052,0.281,0.072,0.425,0.091c0.316,0.042,0.474-0.07,0.534-0.373c0.017-0.081,0.026-0.164,0.031-0.247
					c0.017-0.294,0.101-0.571,0.216-0.839c0.218-0.506,0.317-1.021,0.214-1.576c-0.088-0.472,0.086-0.904,0.31-1.306
					C41.628-4,41.938-4.071,42.281-3.879c0.26,0.144,0.496,0.334,0.61,0.603c0.17,0.401,0.425,0.755,0.569,1.17
					c0.327,0.941,0.352,1.866-0.075,2.778c-0.245,0.525-0.512,1.041-0.774,1.558c-0.225,0.443-0.575,0.767-1.026,0.956
					C41.072,3.4,40.588,3.693,40.02,3.774c-0.179,0.025-0.349,0.128-0.513,0.214c-0.62,0.322-1.264,0.512-1.972,0.465
					c-0.371-0.025-0.746-0.011-1.118-0.006c-0.381,0.004-0.743-0.07-1.091-0.218c-0.596-0.251-1.143-0.583-1.64-0.996
					c-0.303-0.25-0.485-0.562-0.479-0.968c0.003-0.104-0.001-0.21-0.027-0.309c-0.154-0.59-0.052-1.15,0.183-1.698
					c0.082-0.19,0.155-0.385,0.214-0.583c0.053-0.179-0.018-0.341-0.185-0.417c-0.167-0.077-0.349-0.125-0.524-0.187
					c-0.214-0.077-0.438-0.134-0.64-0.236c-0.265-0.133-0.339-0.344-0.261-0.622c0.171-0.605,0.928-1.571,1.473-1.873
					c0.109-0.06,0.221-0.12,0.339-0.154c0.519-0.149,1.049-0.246,1.589-0.28c0.43-0.027,0.748,0.138,0.99,0.511
					c0.29,0.446,0.442,0.934,0.549,1.443c0.047,0.225,0.032,0.453-0.037,0.676C36.822-1.304,36.785-1.144,36.742-0.981"/>
				<path clip-path="url(#SVGID_10_)" fill-rule="evenodd" clip-rule="evenodd" fill="#E4C3AC" d="M11.455,5.577
					c-0.016-0.096-0.017-0.117-0.023-0.137c-0.255-0.78-0.553-0.745-1.186-0.631C9.713,4.906,9.329,5.28,9.039,5.728
					C8.914,5.919,8.865,6.146,8.921,6.384C9.129,7.262,8.795,8.02,8.364,8.743C8.171,9.067,7.823,9.251,7.511,9.447
					c-0.199,0.125-0.46,0.097-0.652-0.046C6.463,9.104,6.035,8.863,5.672,8.508C5.159,8.005,4.959,7.409,4.904,6.729
					C4.882,6.461,4.855,6.193,4.832,5.925C4.824,5.843,4.801,5.757,4.814,5.678C4.939,4.986,5.017,4.28,5.336,3.638
					c0.091-0.185,0.192-0.375,0.331-0.523c0.497-0.529,1.018-1.036,1.679-1.367C7.55,1.645,7.748,1.531,7.949,1.423
					C8.04,1.374,8.126,1.311,8.223,1.278c0.844-0.289,1.682-0.598,2.59-0.609c0.25-0.003,0.499,0.004,0.746-0.007
					c0.575-0.025,1.108,0.145,1.635,0.337c0.411,0.15,0.678,0.467,0.903,0.823c0.242,0.386,0.485,0.774,0.702,1.174
					c0.448,0.827,0.542,1.691,0.185,2.575c-0.096,0.238-0.151,0.468-0.145,0.722c0.003,0.145-0.006,0.292-0.034,0.434
					c-0.094,0.477-0.5,0.897-0.983,0.884c-0.276-0.007-0.528,0.076-0.785,0.169c-0.507,0.185-0.953,0.036-1.238-0.416
					c-0.133-0.209-0.241-0.437-0.337-0.665C11.305,6.327,11.219,5.946,11.455,5.577 M14.096,6.917
					c0.008-0.016,0.022-0.033,0.02-0.048c0-0.009-0.028-0.025-0.039-0.022c-0.043,0.012-0.053,0.042-0.026,0.078
					C14.054,6.931,14.081,6.919,14.096,6.917"/>
				<path clip-path="url(#SVGID_10_)" fill-rule="evenodd" clip-rule="evenodd" fill="#E4C3AC" d="M8.786,16.553
					c0.22-0.113,0.449-0.219,0.684-0.295c0.508-0.165,0.946,0.004,1.219,0.471c0.138,0.235,0.278,0.461,0.495,0.632
					c0.38,0.299,0.423,0.88,0.19,1.309c-0.068,0.126-0.155,0.246-0.25,0.355c-0.166,0.191-0.271,0.404-0.35,0.648
					c-0.29,0.907-0.915,1.512-1.788,1.861c-0.423,0.169-0.856,0.312-1.291,0.454c-0.399,0.13-0.809,0.204-1.22,0.056
					c-0.529-0.189-1.047-0.398-1.473-0.785c-0.184-0.167-0.38-0.321-0.569-0.483c-0.691-0.589-1.139-1.363-1.603-2.124
					c-0.053-0.087-0.08-0.191-0.118-0.288c-0.085-0.211-0.165-0.425-0.256-0.634c-0.297-0.678-0.374-1.399-0.418-2.125
					c-0.012-0.203,0.033-0.414,0.08-0.615c0.165-0.697,0.557-1.29,0.904-1.902c0.04-0.07,0.112-0.12,0.171-0.18
					c0.189-0.191,0.381-0.379,0.569-0.571c0.477-0.488,1.012-0.818,1.728-0.877c0.506-0.042,0.99,0.047,1.483,0.073
					c0.24,0.012,0.458,0.157,0.531,0.38c0.114,0.35,0.265,0.714,0.206,1.088c-0.13,0.831-0.358,1.627-1.079,2.169
					c-0.195,0.147-0.302,0.353-0.33,0.58c-0.063,0.529-0.006,1.063,0.342,1.477c0.414,0.493,0.621,0.71,1.316,0.273
					c0.017-0.011,0.031-0.027,0.104-0.091C8.116,16.976,8.426,16.738,8.786,16.553 M10.92,18.033
					c-0.044,0.01-0.055,0.041-0.03,0.078c0.006,0.009,0.039,0.015,0.044,0.008c0.011-0.011,0.011-0.033,0.015-0.05
					C10.94,18.056,10.926,18.031,10.92,18.033"/>
				<path clip-path="url(#SVGID_10_)" fill-rule="evenodd" clip-rule="evenodd" fill="#E4C3AC" d="M60.161,6.228
					c-0.165,0-0.333,0.015-0.496-0.003c-0.408-0.045-0.642-0.24-0.712-0.653c-0.058-0.335-0.206-0.573-0.499-0.739
					c-0.181-0.101-0.347-0.227-0.517-0.345c-0.561-0.389-0.674-0.707-0.509-1.386c0.093-0.385,0.244-0.75,0.417-1.103
					c0.137-0.281,0.257-0.564,0.335-0.867c0.133-0.512,0.364-0.965,0.763-1.328c0.151-0.138,0.264-0.318,0.397-0.477
					c0.134-0.159,0.279-0.304,0.473-0.394C60.3-1.294,60.83-1.08,61.039-0.578c0.138,0.329,0.116,0.647-0.028,0.964
					c-0.153,0.339-0.28,0.697-0.479,1.009c-0.264,0.413-0.203,0.829-0.114,1.258c0.045,0.216,0.188,0.369,0.376,0.472
					C60.92,3.194,61.06,3.237,61.191,3.3c0.567,0.273,0.815,0.766,0.682,1.379c-0.048,0.222-0.127,0.437-0.193,0.655
					c-0.138,0.459-0.612,0.852-1.083,0.889c-0.145,0.012-0.29,0.002-0.436,0.002V6.228z"/>
				<path clip-path="url(#SVGID_10_)" fill-rule="evenodd" clip-rule="evenodd" fill="#E4C3AC" d="M63.42,4.282
					c0.042-0.496,0.018-0.992,0.104-1.488c0.087-0.505-0.104-0.937-0.514-1.258c-0.147-0.115-0.303-0.22-0.443-0.343
					c-0.431-0.379-0.481-0.791-0.146-1.263c0.227-0.321,0.528-0.522,0.942-0.506c0.249,0.01,0.498,0,0.746,0.013
					c0.427,0.025,0.81,0.166,1.118,0.475c0.278,0.279,0.562,0.55,0.76,0.899c0.383,0.676,0.495,1.399,0.411,2.162
					c-0.03,0.276-0.139,0.522-0.309,0.736c-0.173,0.217-0.282,0.454-0.318,0.73c-0.048,0.374-0.255,0.654-0.563,0.854
					c-0.209,0.134-0.432,0.246-0.653,0.357c-0.189,0.096-0.396,0.116-0.606,0.105c-0.377-0.019-0.513-0.151-0.526-0.541
					C63.411,4.903,63.42,4.592,63.42,4.282"/>
				<path clip-path="url(#SVGID_10_)" fill-rule="evenodd" clip-rule="evenodd" fill="#E4C3AC" d="M44.915,17.465
					c-0.001,0.016,0.001,0.04-0.007,0.044c-0.017,0.009-0.041,0.014-0.057,0.007c-0.059-0.026-0.056-0.052,0.01-0.065
					C44.878,17.448,44.897,17.46,44.915,17.465"/>
				<path clip-path="url(#SVGID_10_)" fill-rule="evenodd" clip-rule="evenodd" fill="#E4C3AC" d="M25.866,10.591
					c-0.016,0.003-0.042,0.014-0.046,0.008c-0.026-0.035-0.017-0.066,0.026-0.079c0.011-0.002,0.04,0.013,0.04,0.022
					C25.887,10.558,25.873,10.575,25.866,10.591"/>
				<path clip-path="url(#SVGID_10_)" fill-rule="evenodd" clip-rule="evenodd" fill="#E4C3AC" d="M25.991,9.078
					c0.466-0.304,0.801-0.729,1.081-1.199c0.117-0.197,0.199-0.414,0.3-0.619c0.342-0.693,0.343-1.407,0.141-2.127
					c-0.072-0.258-0.185-0.505-0.284-0.754c-0.031-0.076-0.073-0.152-0.126-0.213c-0.43-0.492-0.925-0.894-1.574-1.065
					c-0.567-0.151-1.146-0.206-1.736-0.159C23.429,2.97,23.1,3.104,22.771,3.237c-0.276,0.111-0.413,0.347-0.433,0.639
					c-0.025,0.38,0.037,0.749,0.209,1.087c0.212,0.415,0.547,0.669,1.033,0.693c0.146,0.007,0.292,0.003,0.438,0.011
					c0.195,0.011,0.362,0.09,0.509,0.214c0.243,0.207,0.233,0.555-0.023,0.755C24.456,6.673,24.4,6.71,24.341,6.726
					c-0.666,0.175-0.999,0.727-1.382,1.216c-0.137,0.174-0.137,0.385-0.055,0.594c0.149,0.375,0.396,0.627,0.818,0.672
					c0.124,0.013,0.25,0.031,0.373,0.022c0.336-0.026,0.667-0.014,0.998,0.049C25.417,9.34,25.715,9.259,25.991,9.078"/>
				<path clip-path="url(#SVGID_10_)" fill-rule="evenodd" clip-rule="evenodd" fill="#E4C3AC" d="M18.58,8.393
					c-0.015-0.027,0.006,0.037,0.049,0.079c0.452,0.428,0.802,0.938,1.2,1.411c0.417,0.496,1.021,0.77,1.557,1.121
					c0.035,0.023,0.075,0.044,0.114,0.048c0.567,0.051,1.13,0.066,1.618-0.303c0.328-0.248,0.374-0.664,0.114-0.992
					c-0.09-0.112-0.203-0.207-0.306-0.308c-0.337-0.332-0.586-0.746-0.986-1.022c-0.14-0.097-0.18-0.275-0.176-0.447
					c0.009-0.396,0.001-0.788-0.141-1.165c-0.054-0.143-0.014-0.287,0.053-0.422c0.184-0.369,0.022-0.696-0.147-1
					c-0.127-0.228-0.377-0.346-0.639-0.319c-0.371,0.038-0.743,0.104-1.104,0.203c-0.242,0.065-0.438,0.239-0.598,0.44
					c-0.183,0.229-0.361,0.459-0.547,0.687C18.238,6.898,18.089,7.664,18.58,8.393"/>
			</g>
			<polyline clip-path="url(#SVGID_2_)" fill="none" stroke="#040000" stroke-width="0.2287" stroke-miterlimit="10" points="
				26.33,91.176 30.631,91.176 34.933,91.176 			"/>
			<g clip-path="url(#SVGID_2_)">
				<defs>
					<rect id="SVGID_11_" x="-24.974" y="-2.472" width="111.601" height="111.601"/>
				</defs>
				<clipPath id="SVGID_12_">
					<use xlink:href="#SVGID_11_"  overflow="visible"/>
				</clipPath>
				<path clip-path="url(#SVGID_12_)" fill="none" stroke="#040000" stroke-width="0.2287" stroke-miterlimit="10" d="M45.12,61.904
					c-1.006,3.996-2.419,7.855-3.174,11.965c-1.601,8.729-2.154,20.412-4.559,20.578c-2.404,0.164-2.54-2.955-3.301-11.195
					S33.326,66.01,33.326,66.01"/>
				<path clip-path="url(#SVGID_12_)" fill="none" stroke="#040000" stroke-width="0.2287" stroke-miterlimit="10" d="M27.87,66.01
					c0,0,0,9.002-0.761,17.242s-0.896,11.359-3.301,11.195c-2.405-0.166-2.959-11.85-4.561-20.578
					c-0.741-4.043-1.996-8.16-2.993-12.098"/>
				<path clip-path="url(#SVGID_12_)" fill="#040000" d="M27.557,18.911c0.217-0.2,0.238-0.517,0.2-0.788
					c-0.042-0.279-0.155-0.542-0.279-0.794c-0.131-0.25-0.28-0.49-0.447-0.719c-0.162-0.233-0.345-0.45-0.523-0.669v0l-0.209-0.256
					l0.323,0.073c0.398,0.09,0.787,0.197,1.175,0.318c0.386,0.124,0.769,0.264,1.139,0.446l-0.099-0.002
					c-0.021,0.012-0.004,0.001-0.001-0.004c0.004-0.005,0.01-0.019,0.017-0.027c0.01-0.024,0.022-0.048,0.028-0.079
					c0.017-0.057,0.022-0.125,0.026-0.19c0.006-0.134-0.007-0.274-0.027-0.413c-0.042-0.278-0.109-0.557-0.192-0.831
					c-0.039-0.138-0.083-0.274-0.131-0.411c-0.044-0.137-0.092-0.272-0.145-0.407c-0.097-0.271-0.21-0.537-0.318-0.805l-0.139-0.344
					l0.306,0.204c0.449,0.299,0.869,0.626,1.267,0.986c0.395,0.362,0.768,0.757,1.057,1.224l-0.211,0.039
					c0.074-0.368,0.176-0.718,0.297-1.068c0.12-0.348,0.264-0.689,0.427-1.02c0.167-0.331,0.361-0.646,0.581-0.946
					c0.224-0.298,0.483-0.568,0.771-0.809l0.205-0.171l-0.02,0.271c-0.053,0.718-0.063,1.446-0.012,2.165
					c0.024,0.359,0.069,0.717,0.145,1.065c0.076,0.345,0.179,0.694,0.372,0.97l-0.179-0.008c0.145-0.151,0.3-0.249,0.47-0.336
					c0.17-0.086,0.35-0.146,0.531-0.189c0.185-0.038,0.371-0.061,0.558-0.06c0.187-0.003,0.371,0.017,0.554,0.043l0.005,0.001
					l0.198,0.026l-0.122,0.15c-0.037,0.046-0.063,0.07-0.091,0.1l-0.08,0.087c-0.053,0.058-0.106,0.115-0.156,0.176
					c-0.102,0.119-0.2,0.242-0.293,0.369c-0.186,0.253-0.352,0.521-0.493,0.803c-0.138,0.283-0.246,0.581-0.32,0.888
					c-0.072,0.308-0.093,0.626-0.08,0.945c-0.031-0.316-0.031-0.639,0.024-0.956c0.057-0.316,0.148-0.626,0.272-0.924
					c0.128-0.296,0.281-0.581,0.456-0.853c0.087-0.136,0.181-0.268,0.277-0.397c0.049-0.065,0.1-0.127,0.15-0.191l0.143-0.173
					l0.076,0.176l-0.003,0c-0.172-0.024-0.344-0.043-0.516-0.041c-0.172-0.001-0.342,0.021-0.51,0.055
					c-0.165,0.039-0.327,0.094-0.478,0.17c-0.148,0.073-0.298,0.174-0.401,0.282l-0.101,0.104l-0.078-0.113
					c-0.228-0.325-0.329-0.693-0.41-1.055c-0.077-0.363-0.125-0.73-0.148-1.097c-0.052-0.735-0.043-1.466,0.012-2.201l0.185,0.099
					c-0.271,0.227-0.518,0.482-0.731,0.767c-0.21,0.287-0.398,0.591-0.56,0.912c-0.159,0.321-0.297,0.652-0.416,0.991
					c-0.116,0.339-0.217,0.688-0.287,1.034l-0.058,0.287l-0.153-0.248c-0.268-0.437-0.628-0.82-1.013-1.173
					c-0.388-0.349-0.805-0.675-1.238-0.963l0.168-0.14c0.108,0.271,0.222,0.539,0.321,0.814c0.053,0.136,0.102,0.273,0.148,0.413
					c0.048,0.138,0.092,0.278,0.133,0.419c0.085,0.281,0.154,0.568,0.198,0.864c0.021,0.147,0.036,0.299,0.029,0.455
					c-0.005,0.078-0.011,0.158-0.034,0.24c-0.008,0.04-0.027,0.083-0.046,0.125c-0.014,0.022-0.022,0.042-0.042,0.064
					c-0.02,0.023-0.028,0.04-0.081,0.069l-0.044,0.025l-0.055-0.027c-0.352-0.173-0.726-0.311-1.106-0.432
					c-0.379-0.119-0.767-0.226-1.154-0.313l0.114-0.183l0,0c0.167,0.236,0.339,0.469,0.488,0.717c0.154,0.244,0.291,0.5,0.408,0.766
					c0.11,0.268,0.208,0.545,0.231,0.836C27.835,18.399,27.788,18.727,27.557,18.911"/>
				<path clip-path="url(#SVGID_12_)" fill="none" stroke="#040000" stroke-width="0.2287" stroke-miterlimit="10" d="M27.57,17.414
					c-4.886,0.52-10.123,2.412-12.332,7.123c-0.667,1.421-1.678,3.293-2.761,3.813c0.396,0.396,0.886,0.316,1.237,0.288
					c-1.118,1.541-2.938,2.548-4.835,2.679c0.571,0.701,1.25,1.336,2.072,1.711c0.821,0.377,1.802,0.469,2.628,0.102
					c-0.441,1.102-1.355,2.002-2.462,2.428c0.507,0.988,1.714,1.559,2.798,1.324c-0.358,0.387-0.404,0.967-0.35,1.49
					c0.054,0.523,0.189,1.049,0.116,1.57c-0.072,0.521-0.434,1.057-0.957,1.105c0.185,0.299,0.477,0.527,0.81,0.637
					c0.025,0.553-0.662,0.783-0.662,0.783s0.79,1.088,0.915,2.285c0.175,1.676,0.147,3.363,0.276,5.041
					c0.316,4.082,1.177,8.113,2.176,12.078c-3.396-0.529-8.213-1.021-10.32,2.398c-1.401,2.273-0.858,5.072-0.163,7.484
					c0.776,2.693,1.884,5.287,3.298,7.707c1.615,2.766,3.601,5.301,5.757,7.662c-0.043-0.033-0.034-0.045,0,0
					c-1.189-0.449-2.515-0.68-3.777-0.434c-1.021,0.199-2.804,1.127-2.934,2.406c-0.175,1.711,2.554,1.83,3.675,1.883
					c3.337,0.16,6.783,0.197,10.148,0.197"/>
				<path clip-path="url(#SVGID_12_)" fill="none" stroke="#040000" stroke-width="0.2287" stroke-miterlimit="10" d="
					M33.862,17.414c4.887,0.52,10.122,2.412,12.331,7.123c0.667,1.421,1.679,3.293,2.762,3.813
					c-0.396,0.396-0.886,0.316-1.236,0.288c1.116,1.541,2.936,2.548,4.835,2.679c-0.571,0.701-1.251,1.336-2.072,1.711
					c-0.821,0.377-1.803,0.469-2.628,0.102c0.44,1.102,1.354,2.002,2.461,2.428c-0.506,0.988-1.713,1.559-2.798,1.324
					c0.359,0.387,0.404,0.967,0.35,1.49s-0.188,1.049-0.116,1.57c0.073,0.521,0.434,1.057,0.957,1.105
					c-0.185,0.299-0.477,0.527-0.81,0.637c-0.025,0.553,0.661,0.783,0.661,0.783s-0.79,1.088-0.915,2.285
					c-0.175,1.676-0.146,3.363-0.277,5.041c-0.314,4.082-1.176,8.113-2.175,12.078c3.396-0.529,8.214-1.021,10.32,2.398
					c1.401,2.273,0.857,5.072,0.163,7.484c-0.775,2.693-1.885,5.287-3.297,7.707c-1.615,2.766-3.601,5.301-5.759,7.662
					c0.044-0.033,0.035-0.045,0,0c1.19-0.449,2.517-0.68,3.778-0.434c1.021,0.199,2.803,1.127,2.934,2.406
					c0.175,1.711-2.554,1.83-3.675,1.883c-3.339,0.16-6.783,0.197-10.149,0.197"/>
				<path clip-path="url(#SVGID_12_)" fill="none" stroke="#040000" stroke-width="0.2287" stroke-miterlimit="10" d="M39.712,18.9
					c0.354-1.063,2.522-6.758,8.67-7.681c0,0,2.922,6.807-2.845,12.107"/>
				<path clip-path="url(#SVGID_12_)" fill="none" stroke="#040000" stroke-width="0.2287" stroke-miterlimit="10" d="
					M21.835,18.847c-0.403-1.186-2.6-6.719-8.65-7.627c0,0-2.898,6.751,2.773,12.042"/>
			</g>
			<g clip-path="url(#SVGID_2_)">
				<defs>
					<path id="SVGID_13_" d="M7.843,12.507c-0.458,0.229-5.031,23.555-4.803,25.614s-4.802,42.307-4.802,42.307
						s4.574,17.838,5.488,21.955c0.915,4.115,51.685-4.803,51.685-4.803l2.972-16.695l-5.831-49.969l-5.146-16.122
						c0,0-14.71-0.548-10.977,1.372c16.008,8.233,6.86,47.337,6.86,47.337c22.183-3.658,1.372,24.242,1.372,24.242
						c10.521,0,7.318,4.346,7.318,4.346s-26.3,11.434-41.279,0.57c-5.407-3.922,5.717-5.031,5.717-5.031
						c-21.154-29.385,1.143-24.469,1.143-24.469c-8.461-39.334,8.233-48.253,8.233-48.253S9.729,12.493,7.986,12.494
						C7.911,12.494,7.862,12.498,7.843,12.507"/>
				</defs>
				<clipPath id="SVGID_14_">
					<use xlink:href="#SVGID_13_"  overflow="visible"/>
				</clipPath>
				<g opacity="0.05" clip-path="url(#SVGID_14_)">
					<g>
						<defs>
							<rect id="SVGID_15_" x="5.047" y="11.707" width="51.338" height="82.746"/>
						</defs>
						<clipPath id="SVGID_16_">
							<use xlink:href="#SVGID_15_"  overflow="visible"/>
						</clipPath>
						<path clip-path="url(#SVGID_16_)" fill="#040000" d="M55.675,71.754c0.694-2.412,1.238-5.211-0.163-7.484
							c-2.106-3.42-6.925-2.928-10.32-2.398c0.999-3.965,1.86-7.996,2.176-12.078c0.13-1.678,0.101-3.365,0.276-5.041
							c0.125-1.197,0.915-2.285,0.915-2.285s-0.687-0.23-0.661-0.783c0.333-0.109,0.625-0.338,0.81-0.637
							c-0.523-0.049-0.884-0.584-0.957-1.105c-0.072-0.521,0.062-1.047,0.116-1.57s0.01-1.104-0.35-1.49
							c1.085,0.234,2.292-0.336,2.798-1.324c-1.106-0.426-2.021-1.326-2.461-2.428c0.825,0.367,1.807,0.275,2.628-0.102
							c0.821-0.375,1.501-1.01,2.072-1.711c-1.899-0.131-3.719-1.139-4.835-2.679c0.351,0.027,0.84,0.107,1.236-0.289
							c-1.083-0.519-2.095-2.392-2.762-3.813c-2.209-4.711-7.444-6.603-12.331-7.123l0.044,0.585l-0.211-0.07
							c0.284-1.361,1.313-2.375,1.362-2.449c-1.372-0.229-2.013,0.503-2.013,0.503c-0.801-1.121-0.526-4.276-0.526-4.276
							c-1.578,1.258-2.035,3.773-2.035,3.773c-0.686-1.143-2.287-2.172-2.287-2.172c1.28,3.041,0.686,3.315,0.686,3.315
							c-0.915-0.457-2.287-0.754-2.287-0.754c1.921,2.401,0.961,3.042,0.961,3.042h0.276l-0.404,0.355l0.142-1.852
							c-4.886,0.52-10.123,2.412-12.332,7.123c-0.666,1.421-1.678,3.293-2.761,3.813c0.396,0.396,0.886,0.316,1.237,0.289
							c-1.118,1.54-2.938,2.548-4.835,2.679c0.571,0.701,1.25,1.336,2.072,1.711c0.821,0.377,1.802,0.469,2.628,0.102
							c-0.441,1.102-1.355,2.002-2.462,2.428c0.506,0.988,1.714,1.559,2.798,1.324c-0.358,0.387-0.404,0.967-0.35,1.49
							c0.054,0.523,0.189,1.049,0.116,1.57c-0.072,0.521-0.434,1.057-0.957,1.105c0.185,0.299,0.477,0.527,0.81,0.637
							c0.025,0.553-0.662,0.783-0.662,0.783s0.79,1.088,0.915,2.285c0.175,1.676,0.147,3.363,0.276,5.041
							c0.316,4.082,1.177,8.113,2.176,12.078c-3.396-0.529-8.213-1.021-10.32,2.398c-1.401,2.273-0.858,5.072-0.163,7.484
							c0.776,2.693,1.884,5.287,3.298,7.707c1.608,2.756,3.586,5.283,5.734,7.637c-0.01-0.008-0.006,0.004,0.023,0.025
							c-1.189-0.449-2.515-0.68-3.777-0.434c-1.021,0.199-2.804,1.127-2.934,2.406c-0.175,1.711,2.554,1.83,3.675,1.883
							c3.337,0.16,6.783,0.197,10.148,0.197l0.008-0.111c0.494,2.029,1.084,3.328,1.875,3.383c1.394,0.094,2.024-0.916,2.457-3.385
							h8.664c0.433,2.469,1.064,3.479,2.458,3.385c0.888-0.061,1.521-1.693,2.051-4.164l0.068,0.893
							c3.366,0,6.811-0.037,10.149-0.197c1.121-0.053,3.85-0.172,3.675-1.883c-0.131-1.279-1.913-2.207-2.934-2.406
							c-1.262-0.246-2.589-0.016-3.778,0.434c0.029-0.021,0.034-0.033,0.024-0.025c2.147-2.354,4.125-4.881,5.734-7.637
							C53.79,77.041,54.898,74.447,55.675,71.754"/>
					</g>
				</g>
			</g>
			<g clip-path="url(#SVGID_2_)">
				<defs>
					<rect id="SVGID_17_" x="-24.974" y="-2.472" width="111.601" height="111.601"/>
				</defs>
				<clipPath id="SVGID_18_">
					<use xlink:href="#SVGID_17_"  overflow="visible"/>
				</clipPath>
				<path clip-path="url(#SVGID_18_)" fill="#D55F5A" d="M30.422,44.18c-1.994,0-2.486-2.549-2.544-4.707
					c1.38-0.154,2.142-1.273,2.542-2.955c0.424,1.648,1.144,2.83,2.546,2.877C32.918,41.568,32.438,44.18,30.422,44.18"/>
				<path clip-path="url(#SVGID_18_)" fill="#393C3D" d="M27.299,39.719c-1.586,0-2.932-0.777-3.902-2.264
					c-0.758-1.16-1.017-2.326-1.028-2.375c-0.024-0.111,0.047-0.223,0.159-0.246c0.112-0.025,0.222,0.045,0.247,0.158
					c0.002,0.012,0.256,1.15,0.976,2.246c0.947,1.441,2.211,2.135,3.765,2.061c2.519-0.119,2.692-2.986,2.699-3.107
					c0.005-0.115,0.104-0.205,0.216-0.199c0.115,0.006,0.203,0.104,0.198,0.219c-0.002,0.033-0.195,3.365-3.093,3.504
					C27.457,39.719,27.378,39.719,27.299,39.719"/>
				<path clip-path="url(#SVGID_18_)" fill="#393C3D" d="M21.69,36.043c-0.042,0-0.085-0.012-0.122-0.039
					c-0.093-0.068-0.113-0.197-0.046-0.289c0.608-0.84,1.523-1.357,1.562-1.377c0.101-0.057,0.227-0.021,0.283,0.078
					c0.056,0.1,0.02,0.227-0.08,0.283c-0.009,0.006-0.875,0.494-1.428,1.258C21.817,36.014,21.754,36.043,21.69,36.043"/>
				<path clip-path="url(#SVGID_18_)" fill="#393C3D" d="M33.542,39.719c-0.079,0-0.157,0-0.236-0.004
					c-2.897-0.139-3.091-3.471-3.093-3.504c-0.005-0.115,0.083-0.213,0.198-0.219c0.116-0.004,0.212,0.084,0.216,0.199
					c0.007,0.123,0.182,2.988,2.699,3.107c1.552,0.074,2.818-0.619,3.765-2.061c0.72-1.096,0.974-2.234,0.976-2.246
					c0.025-0.113,0.135-0.184,0.247-0.158c0.112,0.023,0.183,0.135,0.159,0.246c-0.012,0.049-0.271,1.215-1.028,2.375
					C36.474,38.941,35.129,39.719,33.542,39.719"/>
				<path clip-path="url(#SVGID_18_)" fill="#393C3D" d="M39.151,36.043c-0.063,0-0.127-0.029-0.168-0.086
					c-0.553-0.764-1.419-1.252-1.428-1.258c-0.1-0.057-0.136-0.184-0.079-0.283c0.056-0.1,0.183-0.135,0.282-0.078
					c0.038,0.02,0.953,0.537,1.562,1.377c0.067,0.092,0.046,0.221-0.046,0.289C39.237,36.031,39.194,36.043,39.151,36.043"/>
			</g>
			<polygon clip-path="url(#SVGID_2_)" fill="#F8F4EC" points="30.631,91.176 30.631,91.176 26.331,91.176 34.932,91.176 			"/>
			<g clip-path="url(#SVGID_2_)">
				<defs>
					<rect id="SVGID_19_" x="-24.974" y="-2.472" width="111.601" height="111.601"/>
				</defs>
				<clipPath id="SVGID_20_">
					<use xlink:href="#SVGID_19_"  overflow="visible"/>
				</clipPath>
				<path clip-path="url(#SVGID_20_)" fill="#393C3D" d="M34.109,32.432c0,1.246-1.588,3.754-3.707,3.754
					c-2.118,0-3.706-2.508-3.706-3.754s1.588-1.869,3.706-1.869C32.521,30.563,34.109,31.186,34.109,32.432"/>
			</g>
			<g clip-path="url(#SVGID_2_)">
				<defs>
					<path id="SVGID_21_" d="M26.696,32.432c0,1.246,1.588,3.754,3.706,3.754c2.119,0,3.707-2.508,3.707-3.754
						s-1.588-1.869-3.707-1.869C28.285,30.563,26.696,31.186,26.696,32.432"/>
				</defs>
				<clipPath id="SVGID_22_">
					<use xlink:href="#SVGID_21_"  overflow="visible"/>
				</clipPath>
				<g opacity="0.55" clip-path="url(#SVGID_22_)">
					<g>
						<defs>
							<rect id="SVGID_23_" x="25.652" y="30.742" width="9.249" height="6.994"/>
						</defs>
						<clipPath id="SVGID_24_">
							<use xlink:href="#SVGID_23_"  overflow="visible"/>
						</clipPath>
						<path clip-path="url(#SVGID_24_)" fill="#1A1D1E" d="M26.444,31.752c0,1.193,0.881,2.283,1.753,3.008
							c1.338,1.113,2.902,1.109,4.371,0.221c1.291-0.781,1.805-2.166,1.805-3.625c0-2.775,1.188,4.756,0,5.152
							c-1.19,0.396-5.946,1.982-6.74,0.793c-0.792-1.189-1.981-3.172-1.981-3.172L26.444,31.752z"/>
					</g>
				</g>
			</g>
			<g clip-path="url(#SVGID_2_)">
				<defs>
					<rect id="SVGID_25_" x="-24.974" y="-2.472" width="111.601" height="111.601"/>
				</defs>
				<clipPath id="SVGID_26_">
					<use xlink:href="#SVGID_25_"  overflow="visible"/>
				</clipPath>
				<path clip-path="url(#SVGID_26_)" fill="#EAEFF8" d="M39.391,22.661c-1.478-0.127-2.715,0.303-3.71,1.269
					c-1.005,0.968-1.462,2.186-1.39,3.667c0.06,1.474,0.64,2.786,1.74,3.923c1.089,1.129,2.381,1.754,3.858,1.883
					c1.473,0.117,2.712-0.313,3.717-1.281c0.994-0.965,1.462-2.186,1.392-3.657c-0.074-1.493-0.655-2.804-1.754-3.931
					C42.157,23.404,40.865,22.778,39.391,22.661"/>
				<path clip-path="url(#SVGID_26_)" fill="none" stroke="#040000" stroke-width="0.2287" stroke-miterlimit="10" d="
					M39.391,22.661c-1.478-0.127-2.715,0.303-3.71,1.269c-1.005,0.968-1.462,2.186-1.39,3.667c0.06,1.474,0.64,2.786,1.74,3.923
					c1.089,1.129,2.381,1.754,3.858,1.883c1.473,0.117,2.712-0.313,3.717-1.281c0.994-0.965,1.462-2.186,1.392-3.657
					c-0.074-1.493-0.655-2.804-1.754-3.931C42.157,23.404,40.865,22.778,39.391,22.661z"/>
				<path clip-path="url(#SVGID_26_)" fill="#EAEFF8" d="M39.421,26.801c0.069-0.028,0.13-0.055,0.202-0.072
					c0.727-0.182,1.431-0.104,2.103,0.246c0.744,0.377,1.256,0.966,1.51,1.764c0.254,0.796,0.192,1.562-0.2,2.289
					c-0.366,0.744-0.945,1.252-1.739,1.516c-0.797,0.254-1.573,0.195-2.317-0.182c-0.114-0.061-0.232-0.131-0.338-0.203
					c-0.556-0.369-0.939-0.891-1.163-1.563c-0.254-0.797-0.204-1.57,0.162-2.313C38.031,27.556,38.623,27.055,39.421,26.801"/>
				<path clip-path="url(#SVGID_26_)" fill="#31323C" d="M41.272,32.623c-0.831,0.246-1.616,0.211-2.373-0.184
					c-0.712-0.365-1.205-0.939-1.45-1.77c-0.283-0.821-0.246-1.606,0.109-2.354c0.401-0.72,1.014-1.222,1.844-1.469
					c0.821-0.283,1.57-0.236,2.281,0.128c0.758,0.393,1.296,0.995,1.579,1.816c0.245,0.83,0.163,1.588-0.238,2.309
					C42.669,31.85,42.103,32.377,41.272,32.623"/>
				<path clip-path="url(#SVGID_26_)" fill="#407190" d="M39.371,26.648c-0.827,0.264-1.458,0.788-1.873,1.558
					c-0.384,0.778-0.441,1.597-0.173,2.438c0.235,0.709,0.647,1.264,1.227,1.646c0.111,0.076,0.233,0.15,0.353,0.213
					c0.782,0.395,1.603,0.459,2.44,0.191c0.831-0.275,1.448-0.813,1.835-1.596c0.406-0.754,0.478-1.566,0.209-2.41
					c-0.266-0.833-0.801-1.458-1.591-1.857c-0.698-0.364-1.443-0.452-2.214-0.26c-0.075,0.019-0.136,0.044-0.2,0.07
					C39.384,26.643,39.36,26.652,39.371,26.648 M39.48,26.95l0.025-0.01c0.058-0.024,0.104-0.042,0.155-0.055
					c0.692-0.173,1.362-0.094,1.99,0.233c0.712,0.36,1.192,0.921,1.432,1.669c0.241,0.757,0.178,1.484-0.188,2.164
					c-0.351,0.709-0.904,1.191-1.649,1.439c-0.753,0.24-1.492,0.182-2.195-0.174c-0.105-0.055-0.216-0.121-0.319-0.191
					c-0.526-0.35-0.885-0.834-1.101-1.48c-0.241-0.758-0.189-1.494,0.154-2.191C38.155,27.665,38.724,27.192,39.48,26.95"/>
				<path clip-path="url(#SVGID_26_)" fill="#FFFFFF" d="M40.229,29.271c0.2,0.139,0.42,0.176,0.663,0.136s0.422-0.169,0.549-0.368
					c0.139-0.189,0.189-0.4,0.148-0.644c-0.051-0.242-0.182-0.431-0.381-0.568c-0.188-0.128-0.398-0.167-0.64-0.117
					c-0.244,0.04-0.434,0.161-0.572,0.349c-0.127,0.199-0.165,0.419-0.114,0.661C39.922,28.964,40.041,29.143,40.229,29.271"/>
				<path clip-path="url(#SVGID_26_)" fill="#FFFFFF" d="M39.292,31.057c0.035-0.059,0.048-0.135,0.037-0.221
					c-0.022-0.094-0.062-0.154-0.12-0.189c-0.06-0.047-0.137-0.061-0.221-0.039c-0.095,0.012-0.154,0.051-0.189,0.119
					c-0.047,0.061-0.061,0.127-0.038,0.221c0.011,0.086,0.05,0.145,0.109,0.191c0.059,0.037,0.136,0.049,0.22,0.039
					C39.174,31.156,39.244,31.115,39.292,31.057"/>
				<path clip-path="url(#SVGID_26_)" fill="#EAEFF8" d="M21.833,22.661c-1.475,0.118-2.767,0.743-3.855,1.873
					c-1.098,1.127-1.679,2.438-1.754,3.931c-0.069,1.472,0.398,2.692,1.393,3.657c1.004,0.969,2.243,1.398,3.717,1.281
					c1.477-0.129,2.77-0.754,3.857-1.883c1.1-1.137,1.681-2.449,1.74-3.923c0.073-1.481-0.384-2.699-1.39-3.667
					C24.547,22.964,23.309,22.533,21.833,22.661"/>
				<path clip-path="url(#SVGID_26_)" fill="none" stroke="#040000" stroke-width="0.2287" stroke-miterlimit="10" d="
					M21.833,22.661c-1.475,0.118-2.767,0.743-3.855,1.873c-1.098,1.127-1.679,2.438-1.754,3.931
					c-0.069,1.472,0.398,2.692,1.393,3.657c1.004,0.969,2.243,1.398,3.717,1.281c1.477-0.129,2.77-0.754,3.857-1.883
					c1.1-1.137,1.681-2.449,1.74-3.923c0.073-1.481-0.384-2.699-1.39-3.667C24.547,22.964,23.309,22.533,21.833,22.661z"/>
				<path clip-path="url(#SVGID_26_)" fill="#EAEFF8" d="M21.802,26.801c0.797,0.254,1.389,0.755,1.781,1.482
					c0.366,0.742,0.416,1.516,0.162,2.313c-0.223,0.672-0.607,1.193-1.163,1.563c-0.106,0.072-0.223,0.143-0.337,0.203
					c-0.745,0.377-1.521,0.436-2.318,0.182c-0.794-0.264-1.374-0.771-1.74-1.516c-0.392-0.727-0.455-1.492-0.201-2.289
					c0.255-0.797,0.766-1.387,1.51-1.764c0.672-0.35,1.376-0.428,2.103-0.246C21.672,26.747,21.731,26.773,21.802,26.801"/>
				<path clip-path="url(#SVGID_26_)" fill="#31323C" d="M19.951,32.623c-0.831-0.246-1.397-0.773-1.752-1.523
					c-0.402-0.721-0.484-1.479-0.238-2.309c0.283-0.821,0.821-1.423,1.578-1.816c0.712-0.365,1.46-0.411,2.281-0.128
					c0.831,0.247,1.442,0.749,1.845,1.469c0.355,0.748,0.392,1.533,0.109,2.354c-0.246,0.83-0.739,1.404-1.451,1.77
					C21.565,32.834,20.782,32.869,19.951,32.623"/>
				<path clip-path="url(#SVGID_26_)" fill="#407190" d="M21.839,26.643c-0.065-0.027-0.125-0.051-0.201-0.07
					c-0.77-0.192-1.515-0.105-2.213,0.26c-0.79,0.399-1.326,1.024-1.591,1.857c-0.27,0.842-0.197,1.654,0.209,2.408
					c0.386,0.785,1.002,1.322,1.834,1.598c0.837,0.268,1.659,0.203,2.441-0.191c0.118-0.063,0.241-0.137,0.353-0.211
					c0.578-0.385,0.991-0.939,1.226-1.648c0.269-0.842,0.211-1.66-0.172-2.438c-0.416-0.77-1.046-1.294-1.874-1.558
					C21.863,26.652,21.839,26.643,21.839,26.643 M23.439,28.354c0.343,0.696,0.395,1.433,0.153,2.191
					c-0.214,0.646-0.574,1.131-1.1,1.48c-0.103,0.07-0.214,0.137-0.32,0.191c-0.702,0.355-1.442,0.414-2.194,0.174
					c-0.745-0.248-1.299-0.73-1.649-1.439c-0.367-0.68-0.431-1.406-0.188-2.164c0.239-0.749,0.719-1.31,1.431-1.669
					c0.629-0.328,1.299-0.407,1.99-0.233c0.053,0.013,0.098,0.031,0.156,0.055l0.025,0.01
					C22.499,27.192,23.067,27.665,23.439,28.354"/>
				<path clip-path="url(#SVGID_26_)" fill="#FFFFFF" d="M20.993,29.271c-0.2,0.139-0.419,0.176-0.663,0.136
					c-0.243-0.04-0.421-0.169-0.547-0.368c-0.139-0.189-0.189-0.4-0.149-0.644c0.051-0.242,0.182-0.431,0.382-0.568
					c0.188-0.128,0.397-0.167,0.639-0.117c0.243,0.04,0.433,0.161,0.572,0.349c0.127,0.199,0.165,0.419,0.114,0.661
					C21.3,28.964,21.182,29.143,20.993,29.271"/>
				<path clip-path="url(#SVGID_26_)" fill="#FFFFFF" d="M21.932,31.057c-0.036-0.059-0.049-0.135-0.039-0.221
					c0.022-0.094,0.063-0.154,0.12-0.189c0.06-0.047,0.137-0.061,0.221-0.039c0.096,0.012,0.156,0.051,0.19,0.119
					c0.047,0.061,0.061,0.127,0.038,0.221c-0.01,0.086-0.05,0.145-0.109,0.191c-0.059,0.037-0.136,0.049-0.221,0.039
					C22.049,31.156,21.978,31.115,21.932,31.057"/>
			</g>
			<rect x="-24.974" y="-2.472" clip-path="url(#SVGID_2_)" fill="none" width="111.601" height="111.601"/>
		</g>
		<path fill="none" stroke="#040000" stroke-width="0.2864" stroke-miterlimit="10" d="M13.729,44.678c0,0,2.181,2.957,4.167,4.354
			c1.986,1.396,6.9,5.143,13.219,5.07c6.318-0.072,9.907-3.104,12.963-5.947c3.057-2.844,4.306-5.746,4.306-5.746"/>
	</g>
</g>
</svg>
