<?xml version="1.0" encoding="utf-8"?>
<!-- Generator: Adobe Illustrator 16.0.0, SVG Export Plug-In . SVG Version: 6.00 Build 0)  -->
<!DOCTYPE svg PUBLIC "-//W3C//DTD SVG 1.1//EN" "http://www.w3.org/Graphics/SVG/1.1/DTD/svg11.dtd">
<svg version="1.1" id="图层_1" xmlns="http://www.w3.org/2000/svg" xmlns:xlink="http://www.w3.org/1999/xlink" x="0px" y="0px"
	 width="94px" height="56px" viewBox="0 0 94 56" enable-background="new 0 0 94 56" xml:space="preserve">
<g>
	<path fill="#8CBB36" d="M41.796,42.91c-0.205,0.057-0.424,0.059-0.634,0c-3.478-0.972-7.137-0.94-10.878,0.098
		c-1.904,0.527-3.823,1.316-5.704,2.347c-0.305,0.168-0.666,0.191-0.99,0.066c-0.324-0.123-0.578-0.384-0.694-0.71
		c-1.048-2.962-2.457-5.265-4.434-7.247c-1.824-1.829-3.975-2.82-6.575-3.03c-1.045-0.085-1.576-0.852-1.579-2.282
		c0-0.115,0.003-0.229-0.008-0.328c-0.059-0.528-0.186-1.034-0.424-1.689c-0.634-1.748-1.332-3.185-2.135-4.39
		c-1.386-2.083-3.322-3.268-6.283-3.845c-0.297-0.059-0.546-0.223-0.716-0.446c-0.023-0.031-0.045-0.063-0.066-0.096
		c-0.144-0.233-0.207-0.517-0.16-0.807c0.004-0.029,0.009-0.056,0.016-0.084c0.017-0.071,0.041-0.139,0.067-0.204
		c1.84-4.456,1.891-9.67,0.155-15.501C0.627,4.338,0.746,3.881,1.063,3.574C1.379,3.267,1.84,3.16,2.258,3.298
		C5.943,4.51,9.997,4.567,13.983,3.463c1.551-0.43,3.086-1.034,4.566-1.794c0.287-0.148,0.624-0.172,0.929-0.065
		c0.307,0.106,0.557,0.334,0.691,0.631c0.943,2.086,3.566,7.209,7.517,9.694c0.652,0.41,1.418,0.773,2.409,1.142
		c0.26,0.096,0.592,0.163,0.945,0.233c0.543,0.108,1.161,0.233,1.711,0.514c1.001,0.515,1.366,1.49,1.632,2.202
		c0.039,0.104,0.076,0.204,0.116,0.3c0.364,0.905,0.841,1.83,1.417,2.748c0.977,1.56,2.188,3.312,3.768,4.469l0.353,0.26
		c0.628,0.462,1.276,0.94,1.921,1.351c0.169,0.108,0.338,0.212,0.507,0.316c0.196,0.12,0.394,0.243,0.588,0.366
		c0.437,0.281,0.639,0.814,0.5,1.314c-0.16,0.572-0.307,1.152-0.438,1.726c-0.976,4.263-1.132,8.541-0.466,12.713
		c0.063,0.398-0.08,0.802-0.381,1.07C42.13,42.775,41.968,42.863,41.796,42.91"/>
	<path fill="#73B02C" d="M5.026,7.577c0,0,0.146,0.118,0.422,0.339c0.279,0.214,0.659,0.58,1.202,0.937
		c0.264,0.184,0.556,0.389,0.873,0.611c0.331,0.21,0.688,0.437,1.07,0.678c0.77,0.479,1.655,0.99,2.617,1.572
		c0.964,0.575,2.021,1.204,3.101,1.963c0.539,0.367,1.09,0.818,1.632,1.227c0.53,0.419,1.054,0.869,1.594,1.317
		c0.539,0.45,1.086,0.906,1.64,1.369c0.558,0.452,1.123,0.91,1.692,1.371c1.134,0.921,2.273,1.877,3.426,2.851
		c0.571,0.488,1.141,0.977,1.709,1.464c0.568,0.489,1.11,1.013,1.659,1.513c0.548,0.503,1.086,1.008,1.612,1.511l0.198,0.188
		L29.59,26.6l0.092,0.097l0.37,0.389c0.245,0.258,0.489,0.515,0.73,0.77c0.481,0.511,0.965,1.002,1.417,1.505
		c0.461,0.491,0.868,1.046,1.287,1.544c0.827,1.01,1.604,1.986,2.275,2.874c0.687,0.886,1.3,1.714,1.842,2.449
		c0.563,0.717,1.053,1.34,1.457,1.854c0.805,1.035,1.251,1.65,1.251,1.65s-0.583-0.472-1.578-1.337
		c-0.493-0.438-1.111-0.955-1.779-1.587c-0.654-0.64-1.393-1.363-2.178-2.171c-0.795-0.813-1.644-1.643-2.519-2.561
		c-0.45-0.448-0.868-0.932-1.375-1.384c-0.503-0.45-0.996-0.933-1.508-1.412c-0.255-0.241-0.512-0.484-0.771-0.729l-0.389-0.369
		l-0.098-0.092c0.003,0.006-0.058-0.048-0.083-0.069l-0.205-0.174c-0.546-0.461-1.094-0.934-1.641-1.417
		c-0.549-0.48-1.103-0.964-1.658-1.45c-0.568-0.478-1.138-0.957-1.708-1.437c-1.137-0.977-2.274-1.954-3.394-2.916
		c-1.135-0.958-2.19-1.956-3.216-2.911c-0.512-0.479-1.023-0.942-1.507-1.415c-0.499-0.45-0.934-0.881-1.424-1.284
		c-0.969-0.797-1.919-1.539-2.807-2.233c-0.891-0.683-1.7-1.341-2.396-1.947c-0.346-0.309-0.673-0.591-0.965-0.863
		C6.832,9.687,6.573,9.42,6.339,9.18C5.855,8.718,5.585,8.275,5.354,8.007C5.14,7.727,5.026,7.577,5.026,7.577"/>
	<path fill="#73B02C" d="M18.134,6.401c0,0,0.016,0.18,0.011,0.483c0,0.304-0.034,0.734-0.08,1.234
		C18.02,8.617,17.923,9.181,17.83,9.78c-0.055,0.296-0.111,0.602-0.169,0.912c-0.051,0.31-0.118,0.619-0.184,0.93
		c-0.057,0.31-0.105,0.619-0.175,0.922c-0.073,0.304-0.11,0.604-0.17,0.896c-0.052,0.292-0.134,0.574-0.17,0.845
		c-0.046,0.271-0.1,0.529-0.155,0.77c-0.116,0.482-0.177,0.893-0.264,1.187c-0.075,0.293-0.138,0.466-0.138,0.466
		s-0.085-0.156-0.2-0.439c-0.108-0.283-0.283-0.692-0.387-1.2c-0.05-0.254-0.098-0.532-0.139-0.828
		c-0.051-0.296-0.048-0.608-0.055-0.932c0.001-0.325-0.013-0.664,0.04-0.999c0.035-0.337,0.086-0.679,0.141-1.02
		c0.08-0.333,0.158-0.667,0.252-0.99c0.081-0.329,0.209-0.631,0.322-0.93c0.223-0.598,0.504-1.124,0.755-1.568
		c0.257-0.441,0.509-0.786,0.693-1.029C18.01,6.532,18.134,6.401,18.134,6.401"/>
	<path fill="#73B02C" d="M31.175,16.218c0,0-0.013,0.188-0.066,0.502c-0.045,0.315-0.156,0.758-0.268,1.271
		c-0.056,0.255-0.122,0.527-0.2,0.809c-0.085,0.277-0.15,0.58-0.231,0.885c-0.072,0.307-0.186,0.613-0.255,0.932
		c-0.072,0.318-0.162,0.636-0.25,0.954c-0.082,0.319-0.139,0.641-0.225,0.955c-0.09,0.313-0.137,0.628-0.204,0.932
		c-0.057,0.304-0.156,0.597-0.19,0.883c-0.05,0.284-0.105,0.555-0.162,0.809c-0.124,0.506-0.174,0.94-0.262,1.249
		c-0.074,0.308-0.136,0.491-0.136,0.491s-0.086-0.164-0.203-0.463c-0.057-0.149-0.131-0.332-0.196-0.545
		c-0.07-0.213-0.155-0.455-0.193-0.724c-0.048-0.27-0.094-0.563-0.133-0.877c-0.051-0.314-0.03-0.646-0.03-0.99
		c0.009-0.345,0.007-0.705,0.079-1.059c0.055-0.357,0.119-0.721,0.2-1.078c0.106-0.35,0.211-0.701,0.331-1.04
		c0.107-0.344,0.276-0.654,0.418-0.963c0.279-0.617,0.649-1.146,0.957-1.591c0.152-0.227,0.321-0.404,0.464-0.571
		c0.14-0.167,0.277-0.304,0.387-0.419C31.03,16.34,31.175,16.218,31.175,16.218"/>
	<path fill="#73B02C" d="M4.91,19.567c0,0,0.178-0.122,0.499-0.3c0.32-0.181,0.783-0.418,1.346-0.672
		c0.282-0.125,0.589-0.254,0.916-0.383c0.324-0.133,0.684-0.238,1.051-0.352c0.737-0.222,1.534-0.425,2.338-0.599
		c1.596-0.311,3.221-0.48,4.452-0.495c0.617-0.007,1.137,0.012,1.504,0.041c0.366,0.026,0.58,0.062,0.58,0.062
		s-0.185,0.111-0.514,0.272c-0.331,0.163-0.806,0.375-1.383,0.597c-1.157,0.445-2.717,0.889-4.304,1.197
		c-0.784,0.164-1.572,0.298-2.322,0.393c-0.377,0.043-0.742,0.085-1.088,0.125c-0.349,0.042-0.681,0.074-0.988,0.096
		c-0.616,0.042-1.136,0.053-1.504,0.045C5.124,19.589,4.91,19.567,4.91,19.567"/>
	<path fill="#73B02C" d="M13.598,31.409c0,0,0.154-0.217,0.448-0.571c0.144-0.178,0.329-0.388,0.56-0.613
		c0.227-0.236,0.488-0.494,0.795-0.742c0.297-0.266,0.637-0.532,1.01-0.796c0.367-0.273,0.784-0.516,1.212-0.775
		c0.441-0.234,0.895-0.488,1.386-0.685c0.478-0.223,0.992-0.386,1.5-0.561c0.522-0.136,1.039-0.294,1.567-0.368
		c0.521-0.106,1.047-0.143,1.553-0.177c0.508-0.012,0.999-0.015,1.462,0.033c0.463,0.046,0.897,0.105,1.291,0.208
		c0.197,0.046,0.385,0.082,0.562,0.132c0.173,0.061,0.337,0.12,0.493,0.174c0.309,0.102,0.568,0.213,0.776,0.326
		c0.417,0.211,0.64,0.349,0.64,0.349s-0.272,0.004-0.723-0.019c-0.224-0.022-0.5-0.012-0.809-0.013
		c-0.309-0.007-0.654,0.003-1.028,0.026c-0.372,0.006-0.773,0.061-1.193,0.1c-0.419,0.039-0.859,0.12-1.309,0.188
		c-0.45,0.09-0.914,0.173-1.378,0.293c-0.469,0.101-0.936,0.25-1.406,0.379c-0.466,0.151-0.934,0.293-1.387,0.464
		c-0.459,0.153-0.898,0.345-1.335,0.505c-0.423,0.189-0.85,0.345-1.238,0.529c-0.393,0.177-0.772,0.335-1.113,0.502
		c-0.691,0.322-1.258,0.597-1.677,0.803C13.845,31.309,13.598,31.409,13.598,31.409"/>
	<path fill="#73B02C" d="M26.539,40.273c0,0,0.089-0.176,0.267-0.46c0.178-0.282,0.459-0.677,0.83-1.108
		c0.373-0.431,0.844-0.9,1.396-1.352c0.549-0.453,1.188-0.878,1.864-1.249c0.349-0.167,0.688-0.352,1.053-0.48
		c0.354-0.146,0.72-0.257,1.081-0.345c0.354-0.1,0.723-0.135,1.058-0.18c0.351-0.005,0.668-0.04,0.973,0.008
		c0.303,0.034,0.572,0.071,0.808,0.155c0.235,0.068,0.434,0.128,0.587,0.222c0.309,0.164,0.463,0.275,0.463,0.275
		s-0.204,0.03-0.522,0.059c-0.157,0-0.353,0.064-0.563,0.097c-0.21,0.027-0.444,0.112-0.691,0.178
		c-0.246,0.053-0.51,0.182-0.783,0.263c-0.272,0.122-0.559,0.218-0.849,0.359c-0.145,0.071-0.294,0.135-0.444,0.2
		c-0.148,0.076-0.298,0.153-0.451,0.224c-0.305,0.145-0.61,0.316-0.918,0.473c-1.226,0.66-2.47,1.36-3.45,1.866
		c-0.493,0.25-0.91,0.452-1.217,0.589C26.726,40.208,26.539,40.273,26.539,40.273"/>
	<path fill="#73B02C" d="M39.338,28.534c0,0-0.053,0.136-0.168,0.347c-0.065,0.102-0.108,0.241-0.177,0.37
		c-0.065,0.13-0.126,0.296-0.204,0.459c-0.302,0.663-0.651,1.514-0.994,2.357c-0.331,0.851-0.659,1.697-0.873,2.382
		c-0.05,0.171-0.116,0.334-0.149,0.48c-0.033,0.145-0.09,0.282-0.107,0.392c-0.049,0.224-0.095,0.368-0.095,0.368
		s-0.098-0.101-0.239-0.307c-0.076-0.104-0.141-0.236-0.209-0.395c-0.078-0.16-0.136-0.343-0.189-0.55
		c-0.105-0.412-0.145-0.908-0.1-1.428c0.024-0.26,0.061-0.528,0.131-0.791c0.052-0.269,0.157-0.523,0.246-0.784
		c0.115-0.25,0.217-0.506,0.362-0.736c0.129-0.237,0.285-0.456,0.444-0.659c0.32-0.407,0.68-0.741,1.03-0.976
		c0.341-0.231,0.692-0.392,0.916-0.45C39.194,28.554,39.338,28.534,39.338,28.534"/>
	<path fill="#8CBB36" d="M49.987,43.454c-0.288-0.284-0.409-0.694-0.325-1.088c0.882-4.133,0.95-8.412,0.201-12.721
		c-0.1-0.58-0.217-1.167-0.347-1.747c-0.112-0.507,0.118-1.028,0.568-1.285c0.201-0.115,0.403-0.226,0.605-0.336
		c0.176-0.094,0.351-0.189,0.524-0.289c0.665-0.376,1.339-0.819,1.989-1.248l0.366-0.242c1.637-1.073,2.938-2.759,3.997-4.266
		c0.622-0.885,1.146-1.784,1.558-2.668c0.045-0.094,0.088-0.194,0.132-0.294c0.303-0.698,0.719-1.652,1.745-2.113
		c0.566-0.253,1.188-0.344,1.736-0.424c0.356-0.052,0.692-0.101,0.955-0.185c1.009-0.316,1.793-0.638,2.466-1.013
		c4.077-2.274,6.964-7.253,8.017-9.288c0.148-0.288,0.41-0.503,0.723-0.593c0.31-0.09,0.646-0.048,0.926,0.115
		c1.436,0.835,2.938,1.52,4.463,2.031c3.923,1.312,7.977,1.468,11.718,0.452c0.426-0.117,0.88,0.014,1.18,0.337
		c0.3,0.323,0.395,0.785,0.248,1.201c-2.04,5.731-2.261,10.942-0.66,15.488c0.025,0.067,0.044,0.135,0.057,0.207
		c0.005,0.028,0.01,0.057,0.012,0.085c0.032,0.292-0.047,0.572-0.203,0.798c-0.021,0.032-0.045,0.064-0.069,0.092
		c-0.182,0.213-0.438,0.364-0.739,0.408c-2.987,0.42-4.983,1.501-6.476,3.508c-0.865,1.164-1.637,2.562-2.361,4.274
		c-0.272,0.642-0.427,1.14-0.514,1.664c-0.016,0.098-0.019,0.212-0.025,0.327c-0.076,1.429-0.648,2.168-1.696,2.196
		c-2.606,0.074-4.808,0.95-6.726,2.682c-2.076,1.875-3.604,4.101-4.807,7.005c-0.133,0.319-0.399,0.566-0.73,0.673
		c-0.33,0.107-0.689,0.065-0.986-0.119c-1.824-1.127-3.699-2.016-5.571-2.643c-3.682-1.23-7.335-1.456-10.857-0.668
		c-0.216,0.049-0.434,0.034-0.635-0.033C50.274,43.679,50.117,43.584,49.987,43.454"/>
	<path fill="#73B02C" d="M89.016,10.379c0,0-0.121,0.143-0.351,0.412c-0.244,0.255-0.537,0.685-1.044,1.119
		c-0.246,0.229-0.52,0.481-0.814,0.757c-0.307,0.256-0.647,0.521-1.01,0.811c-0.727,0.569-1.569,1.184-2.495,1.819
		c-0.922,0.646-1.911,1.337-2.919,2.083c-0.511,0.376-0.969,0.784-1.49,1.206c-0.508,0.447-1.043,0.882-1.579,1.334
		c-1.074,0.899-2.181,1.84-3.364,2.738c-1.168,0.901-2.354,1.818-3.541,2.733c-0.594,0.45-1.189,0.899-1.78,1.346
		c-0.581,0.456-1.158,0.91-1.732,1.36c-0.571,0.454-1.144,0.897-1.713,1.33L64.97,29.59c-0.027,0.02-0.09,0.072-0.087,0.065
		l-0.104,0.087l-0.407,0.347c-0.272,0.231-0.541,0.46-0.809,0.688c-0.537,0.451-1.055,0.907-1.581,1.332
		c-0.529,0.424-0.972,0.884-1.445,1.309c-0.922,0.871-1.813,1.654-2.649,2.425c-0.827,0.765-1.602,1.449-2.289,2.054
		c-0.7,0.596-1.344,1.081-1.859,1.491c-1.04,0.813-1.646,1.252-1.646,1.252s0.478-0.592,1.336-1.582
		c0.43-0.491,0.952-1.089,1.552-1.773c0.579-0.706,1.235-1.502,1.968-2.35c0.716-0.852,1.544-1.787,2.423-2.752
		c0.444-0.476,0.879-1.008,1.366-1.475c0.478-0.478,0.987-0.941,1.494-1.428c0.254-0.241,0.512-0.485,0.771-0.729l0.389-0.369
		l0.098-0.093l0.123-0.105l0.207-0.177c0.552-0.476,1.115-0.952,1.69-1.424c0.573-0.472,1.143-0.966,1.734-1.425
		c0.594-0.456,1.188-0.914,1.783-1.372c1.203-0.911,2.392-1.807,3.571-2.667c0.594-0.431,1.181-0.857,1.762-1.28
		c0.577-0.433,1.148-0.861,1.71-1.282c0.563-0.418,1.109-0.84,1.661-1.231c0.561-0.38,1.135-0.802,1.694-1.14
		c1.118-0.702,2.206-1.273,3.2-1.797c0.991-0.531,1.901-0.995,2.694-1.432c0.395-0.222,0.764-0.43,1.105-0.622
		c0.328-0.205,0.631-0.394,0.903-0.565c0.562-0.328,0.959-0.673,1.248-0.872C88.863,10.49,89.016,10.379,89.016,10.379"/>
	<path fill="#73B02C" d="M75.989,8.517c0,0,0.116,0.138,0.288,0.389c0.172,0.252,0.404,0.61,0.639,1.064
		c0.227,0.458,0.479,0.998,0.671,1.606c0.096,0.304,0.209,0.613,0.272,0.945c0.076,0.329,0.138,0.666,0.199,1.002
		c0.037,0.343,0.069,0.687,0.088,1.025c0.034,0.337,0.003,0.676-0.014,1c-0.023,0.324-0.036,0.636-0.104,0.929
		c-0.057,0.293-0.118,0.568-0.183,0.819c-0.129,0.501-0.325,0.901-0.448,1.178c-0.129,0.276-0.223,0.427-0.223,0.427
		s-0.055-0.176-0.114-0.472c-0.07-0.298-0.111-0.712-0.201-1.199c-0.042-0.243-0.082-0.504-0.115-0.777
		c-0.021-0.273-0.088-0.559-0.124-0.853c-0.046-0.293-0.066-0.596-0.124-0.903c-0.053-0.307-0.085-0.619-0.127-0.931
		c-0.05-0.314-0.101-0.626-0.135-0.938c-0.041-0.313-0.081-0.622-0.12-0.92c-0.062-0.603-0.129-1.172-0.148-1.672
		C75.947,9.733,75.936,9.303,75.952,9C75.964,8.696,75.989,8.517,75.989,8.517"/>
	<path fill="#73B02C" d="M62.451,17.637c0,0,0.138,0.129,0.348,0.37c0.104,0.121,0.233,0.265,0.365,0.439
		c0.134,0.174,0.293,0.36,0.433,0.594c0.283,0.46,0.625,1.008,0.873,1.64c0.125,0.315,0.277,0.634,0.366,0.983
		c0.102,0.345,0.188,0.7,0.277,1.056c0.062,0.361,0.104,0.728,0.142,1.087c0.053,0.358,0.033,0.718,0.024,1.062
		c-0.019,0.344-0.015,0.676-0.083,0.987c-0.056,0.311-0.116,0.603-0.178,0.869c-0.054,0.267-0.15,0.504-0.232,0.713
		c-0.075,0.209-0.158,0.388-0.223,0.535c-0.133,0.292-0.228,0.452-0.228,0.452s-0.052-0.186-0.109-0.498
		c-0.071-0.313-0.1-0.75-0.196-1.261c-0.043-0.255-0.085-0.529-0.118-0.816c-0.021-0.287-0.104-0.584-0.145-0.892
		c-0.05-0.307-0.081-0.623-0.154-0.94c-0.07-0.317-0.111-0.643-0.175-0.965c-0.071-0.322-0.145-0.645-0.201-0.966
		c-0.053-0.322-0.149-0.634-0.206-0.944c-0.065-0.309-0.113-0.613-0.185-0.896c-0.063-0.285-0.112-0.56-0.156-0.818
		c-0.085-0.519-0.172-0.966-0.2-1.283C62.454,17.826,62.451,17.637,62.451,17.637"/>
	<path fill="#73B02C" d="M88.505,22.359c0,0-0.216,0.012-0.584-0.002c-0.367-0.012-0.886-0.05-1.499-0.125
		c-0.307-0.039-0.636-0.088-0.981-0.148c-0.345-0.058-0.707-0.119-1.08-0.182c-0.744-0.134-1.525-0.309-2.298-0.514
		c-1.569-0.39-3.104-0.915-4.236-1.42c-0.564-0.253-1.028-0.488-1.35-0.669C76.156,19.122,75.978,19,75.978,19
		s0.216-0.023,0.583-0.031c0.367-0.009,0.888-0.002,1.504,0.038c1.229,0.079,2.843,0.333,4.42,0.728
		c0.793,0.215,1.579,0.46,2.304,0.72c0.36,0.132,0.714,0.257,1.03,0.406c0.32,0.146,0.62,0.291,0.895,0.431
		c0.549,0.283,0.999,0.544,1.309,0.741C88.333,22.229,88.505,22.359,88.505,22.359"/>
	<path fill="#73B02C" d="M79.206,33.729c0,0-0.241-0.114-0.641-0.341c-0.407-0.229-0.959-0.531-1.634-0.89
		c-0.33-0.186-0.702-0.362-1.085-0.56c-0.378-0.205-0.795-0.383-1.207-0.594c-0.429-0.184-0.856-0.396-1.308-0.575
		c-0.443-0.193-0.904-0.36-1.361-0.536c-0.463-0.153-0.921-0.327-1.384-0.452c-0.459-0.145-0.916-0.251-1.361-0.365
		c-0.445-0.091-0.881-0.195-1.297-0.255c-0.417-0.062-0.815-0.138-1.187-0.163c-0.372-0.043-0.718-0.071-1.025-0.08
		c-0.309-0.016-0.584-0.04-0.808-0.03c-0.451,0-0.723-0.018-0.723-0.018s0.229-0.125,0.657-0.315c0.212-0.102,0.478-0.2,0.792-0.285
		c0.157-0.047,0.324-0.096,0.501-0.148c0.178-0.041,0.369-0.066,0.567-0.103c0.399-0.083,0.835-0.12,1.301-0.141
		c0.465-0.024,0.954,0.005,1.462,0.043c0.502,0.061,1.025,0.125,1.54,0.258c0.524,0.102,1.031,0.287,1.546,0.45
		c0.498,0.201,1.003,0.391,1.469,0.639c0.48,0.222,0.919,0.5,1.349,0.756c0.413,0.281,0.817,0.546,1.17,0.837
		c0.358,0.284,0.684,0.567,0.966,0.848c0.294,0.264,0.542,0.536,0.756,0.783c0.219,0.237,0.393,0.456,0.527,0.643
		C79.063,33.504,79.206,33.729,79.206,33.729"/>
	<path fill="#73B02C" d="M65.818,41.902c0,0-0.183-0.076-0.479-0.233c-0.3-0.153-0.705-0.375-1.185-0.651
		c-0.952-0.557-2.157-1.322-3.348-2.045c-0.3-0.172-0.596-0.36-0.892-0.519c-0.149-0.079-0.296-0.164-0.438-0.248
		c-0.146-0.074-0.292-0.145-0.434-0.223c-0.283-0.157-0.563-0.269-0.829-0.404c-0.269-0.095-0.525-0.237-0.768-0.303
		c-0.244-0.079-0.474-0.176-0.682-0.215c-0.207-0.042-0.399-0.117-0.556-0.124c-0.317-0.046-0.52-0.088-0.52-0.088
		s0.16-0.103,0.478-0.251c0.158-0.085,0.358-0.133,0.597-0.19c0.24-0.071,0.512-0.095,0.814-0.111
		c0.309-0.032,0.624,0.019,0.974,0.042c0.331,0.063,0.698,0.118,1.047,0.236c0.355,0.104,0.715,0.234,1.062,0.4
		c0.357,0.147,0.686,0.349,1.025,0.535c0.655,0.405,1.271,0.863,1.796,1.345c0.528,0.479,0.974,0.973,1.323,1.424
		c0.348,0.449,0.607,0.857,0.771,1.148C65.739,41.721,65.818,41.902,65.818,41.902"/>
	<path fill="#73B02C" d="M53.652,29.508c0,0,0.144,0.027,0.372,0.1c0.219,0.071,0.562,0.249,0.891,0.498
		c0.337,0.252,0.678,0.604,0.977,1.027c0.147,0.212,0.293,0.439,0.409,0.683c0.132,0.237,0.221,0.498,0.323,0.755
		c0.073,0.266,0.165,0.525,0.204,0.796c0.057,0.266,0.078,0.535,0.089,0.796c0.019,0.521-0.047,1.015-0.174,1.42
		c-0.064,0.204-0.132,0.385-0.218,0.54c-0.076,0.154-0.148,0.282-0.229,0.382c-0.153,0.2-0.256,0.296-0.256,0.296
		s-0.037-0.147-0.075-0.374c-0.012-0.11-0.062-0.25-0.086-0.396c-0.025-0.147-0.083-0.313-0.124-0.487
		c-0.178-0.694-0.461-1.559-0.746-2.423c-0.299-0.862-0.603-1.729-0.869-2.407c-0.069-0.168-0.121-0.337-0.181-0.47
		c-0.061-0.133-0.098-0.273-0.156-0.38C53.698,29.646,53.652,29.508,53.652,29.508"/>
	<path fill-rule="evenodd" clip-rule="evenodd" fill="#A62124" d="M48.914,53.849c-1.656-0.448-3.222-1.545-4.204-2.958
		c-1.087-1.565-0.712-3.868-0.27-5.604c0.439-1.714,1.239-3.202,2.872-4.008c1.709-0.845,3.828-1.088,5.682-0.654
		c1.638,0.382,3.729,1.475,4.547,3.021c0.91,1.725,0.854,3.836,0.311,5.639c-0.573,1.905-1.235,3.709-3.187,4.555
		C52.936,54.592,50.615,54.741,48.914,53.849C47.335,53.421,50.333,54.593,48.914,53.849"/>
	<path fill-rule="evenodd" clip-rule="evenodd" fill="#C13432" d="M38.142,53.501c-1.398-0.987-3.149-1.773-3.636-3.562
		c-0.448-1.646-0.341-4.039,0.235-5.628c1.205-3.325,5.049-5.536,8.548-4.227c3.74,1.398,4.395,5.87,3.352,9.226
		C45.507,52.957,41.699,54.466,38.142,53.501C37.225,52.854,39.671,53.917,38.142,53.501"/>
	<path fill-rule="evenodd" clip-rule="evenodd" fill="#D64946" d="M44.802,42.951c-1.472-0.751-3.213-1.375-4.101-2.872
		c-0.997-1.683-0.962-3.55-0.477-5.398c1.081-4.105,4.866-6.569,9.038-5.151c3.731,1.268,5.188,5.509,3.997,9.074
		c-0.537,1.609-1.514,3.105-3.057,3.891C48.432,43.397,46.691,43.115,44.802,42.951C43.02,42.04,45.621,43.022,44.802,42.951"/>
</g>
</svg>
