<?xml version="1.0" encoding="utf-8"?>
<!-- Generator: Adobe Illustrator 16.0.0, SVG Export Plug-In . SVG Version: 6.00 Build 0)  -->
<!DOCTYPE svg PUBLIC "-//W3C//DTD SVG 1.1//EN" "http://www.w3.org/Graphics/SVG/1.1/DTD/svg11.dtd">
<svg version="1.1" xmlns="http://www.w3.org/2000/svg" xmlns:xlink="http://www.w3.org/1999/xlink" x="0px" y="0px"
	 width="164.667px" height="210.333px" viewBox="0 0 164.667 210.333" enable-background="new 0 0 164.667 210.333"
	 xml:space="preserve">
<g id="图层_2">
	<g opacity="0.6">
		<ellipse fill-rule="evenodd" clip-rule="evenodd" fill="#040000" cx="61" cy="197.333" rx="39.5" ry="7"/>
		<ellipse fill-rule="evenodd" clip-rule="evenodd" fill="#040000" cx="110" cy="197" rx="36.5" ry="10"/>
	</g>
</g>
<g id="图层_1">
	<g>
		<path fill-rule="evenodd" clip-rule="evenodd" fill="#AD7D49" d="M50.41,164.712c-1.674,10.73-5.067,33.6,10.174,33.6
			c17,0,10.96-27.381,9.926-32.145"/>
		<path fill-rule="evenodd" clip-rule="evenodd" fill="#8CAC25" d="M85.643,81.376c0.844,1.666,1.217,2.515,1.687,3.309
			c6.414,10.885,11.277,22.485,15.91,34.2c1.269,3.205,2.883,6.275,4.409,9.373c1.378,2.791,0.588,4.947-2.613,4.848
			c-0.783-0.023-1.573,0.258-2.54,0.432c2.111,9.334,7.04,17.313,11.459,25.936c0.803,2.092,0.451,3.18-0.868,3.563
			c-4.339,1.264-8.569,2.295-16.38,3.15c-11.682,2.385-21.493,2.346-32.485,2.492c-8.707,0.123-17.444,0.254-26.123-0.299
			c-9.621-0.615-19.266-1.592-28.61-4.178c-2.264-0.625-4.373-1.959-6.422-3.188c-1.533-0.916-1.617-2.754-0.223-4.414
			c5.65-6.744,9.014-14.828,13.272-22.387c0.258-0.457,0.394-0.979,0.603-1.508c-1.912-2.715-6.457-1.6-7.428-4.805
			c3.211-4.441,6.352-8.535,9.219-12.814c4.244-6.34,8.359-12.766,12.394-19.24c2.116-3.396,5.138-8.667,7.256-12.457
			c-2.009-0.815-5.048,0.206-6.829-0.614c-2.609-1.202-3.01-2.892-1.14-5.003c6.224-7.027,11.484-14.722,16.21-22.824
			c4.512-7.741,9.223-15.368,13.837-23.048c0.929-1.545,1.955-2.871,4.001-2.935c1.605-0.05,2.772,0.353,3.638,1.892
			c5.299,9.442,10.837,18.74,15.189,28.715c2.178,4.983,5.489,9.474,8.304,14.178c0.345,0.574,0.828,1.066,1.151,1.65
			c1.729,3.154,0.511,5.515-3.104,5.956C88.416,81.479,87.392,81.376,85.643,81.376"/>
		<path fill="#FFFFFF" d="M51.064,73.274c3.225,0,3.225-5,0-5S47.839,73.274,51.064,73.274"/>
		<path fill="#FFFFFF" d="M90.823,125.634c3.225,0,3.225-5,0-5C87.597,120.634,87.597,125.634,90.823,125.634"/>
		<path fill="#FFFFFF" d="M27.263,152.236c3.225,0,3.225-5,0-5S24.039,152.236,27.263,152.236"/>
		<path fill="#FFFFFF" d="M70.665,94.154c4.514,0,4.514-7,0-7S66.151,94.154,70.665,94.154"/>
		<path fill="#FFFFFF" d="M57.786,154.634c4.514,0,4.514-7,0-7S53.272,154.634,57.786,154.634"/>
		<path fill="#FFFFFF" d="M37.625,113.474c4.514,0,4.514-7,0-7S33.111,113.474,37.625,113.474"/>
		<path fill="#FFFFFF" d="M72.064,60.889c2.418,0,2.418-3.75,0-3.75S69.646,60.889,72.064,60.889"/>
		<path fill="#FFFFFF" d="M90.263,155.251c2.418,0,2.418-3.75,0-3.75S87.845,155.251,90.263,155.251"/>
		<path fill="#FFFFFF" d="M61.705,125.289c2.418,0,2.418-3.75,0-3.75S59.287,125.289,61.705,125.289"/>
		<path fill-rule="evenodd" clip-rule="evenodd" fill="#EFAD39" d="M56.159,19.927c0,0-4.045-3.285-6.019-4.98
			c-2.555-2.198-0.849-3.063,1.623-2.904c2.157,0.14,5.313,0.974,7.347,0.469c1.418-0.354,2.407-5.236,2.911-6.497
			c0.424-1.06,1.738-6.442,3.769-4.092c1.877,2.176,2.451,5.623,3.278,8.214c0.488,1.52,0.157,2.35,1.896,2.372
			c1.521,0.021,3.042,0.035,4.565,0.063c1.008,0.019,7.137-0.047,5.307,2.444c-1.132,1.534-3.701,2.54-5.295,3.578
			c-1.313,0.86-2.719,1.083-2.161,2.843c0.48,1.516,0.959,3.028,1.441,4.545c0.356,1.125,2.665,6.109-0.117,5.422
			c-2.648-0.658-5.359-3.142-7.643-4.651c-4.664-3.089-8.635,4.147-13.411,4.167c-2.585,0.02-1.134-2.667-0.623-3.787
			C54.113,24.751,55.138,22.344,56.159,19.927C56.159,19.927,55.498,21.489,56.159,19.927"/>
	</g>
	<g>
		<path fill-rule="evenodd" clip-rule="evenodd" fill="#FFFFFF" d="M128.127,139.185c6.6,3.639,14.595,7.229,19.476,13.197
			c5.437,6.648,6.554,22.396,3.456,30.314c-6.244,15.959-23.153,19.615-39.885,20.475c-14.648,0.754-38.536-4.213-42.333-21.133
			c-1.893-8.422-0.066-17.686,4.01-25.271c3.364-6.26,8.553-14.717,16.187-16.221c-2.926-3.023-5.566-5.531-6.752-9.74
			c-1.466-5.193-1.104-10.924,0.551-16.021c3.598-11.075,13.046-18.712,25.045-18.556c9.494,0.123,21.156,5.294,26.157,13.652
			C140.024,119.888,136.401,131.843,128.127,139.185C131.591,141.093,129.171,138.255,128.127,139.185"/>
		<path fill-rule="evenodd" clip-rule="evenodd" fill="#D64946" d="M109.309,173.527c-3.095-0.008-4.606-1.492-4.617-4.531
			c-0.009-2.553,2.434-4.867,5.121-4.855c2.483,0.012,4.393,1.979,4.368,4.502C114.151,171.722,112.341,173.535,109.309,173.527"/>
		<path fill-rule="evenodd" clip-rule="evenodd" fill="#D64946" d="M110.23,186.427c-3.189-0.033-4.652-1.33-4.756-4.18
			c-0.106-2.916,1.771-4.395,4.921-4.654c2.252-0.189,4.314,2.043,4.338,4.381C114.755,184.382,112.729,186.388,110.23,186.427"/>
		<path fill-rule="evenodd" clip-rule="evenodd" fill="#D64946" d="M107.705,158.945c-2.911-0.309-4.397-1.205-4.264-4.367
			c0.097-2.254,2.322-4.402,4.646-4.402c2.182,0,4.59,2.27,4.56,4.297C112.607,157.035,110.444,158.994,107.705,158.945"/>
		<path fill="#AD7D49" d="M139.085,155.687L139.085,155.687c-0.626,0-1.263-0.41-1.55-0.994c-0.279-0.568-0.189-1.221,0.249-1.787
			c0.003-0.008,0.054-0.063,0.057-0.068l0.076-0.086c0.905-0.982,1.824-1.951,2.743-2.92c1.676-1.766,3.409-3.592,5.013-5.467
			c2.364-2.766,4.558-5.764,6.494-8.41c0.33-0.451,0.27-1.451,0.249-1.781c-0.08-1.277-0.213-2.576-0.342-3.834
			c-0.068-0.65-0.133-1.301-0.193-1.949l-0.02-0.186c-0.045-0.354-0.092-0.75,0.114-1.066c0.243-0.375,0.721-0.852,1.261-0.957
			c0.05-0.01,0.116-0.016,0.195-0.016c0.015,0,1.422,0.031,1.628,0.707c0.187,0.613,0.211,1.045,0.237,1.5
			c0.016,0.297,0.034,0.604,0.101,0.986c0.048,0.285,0.171,0.992,0.269,1.641l0.039-0.049c0.478-0.584,0.953-1.164,1.426-1.75
			c0.111-0.139,0.216-0.283,0.319-0.426c0.178-0.244,0.354-0.484,0.555-0.705c0.654-0.711,1.704-0.785,2.381-0.186
			c0.436,0.391,0.466,1.467,0.171,1.955c-0.508,0.84-1.125,1.613-1.722,2.363l-0.458,0.58c-0.253,0.322-0.515,0.631-0.781,0.939
			c1.615-0.078,3.3-0.119,4.907-0.154h0.001c0.639,0,1.457,0.428,1.773,1.225c0.359,1.221-0.012,1.635-0.384,1.773
			c-0.699,0.262-1.734,0.334-2.648,0.396c-0.299,0.021-0.578,0.041-0.814,0.066c-1.34,0.143-2.707,0.227-4.029,0.309
			c-0.471,0.031-0.944,0.061-1.419,0.092c-0.835,1.037-1.666,2.076-2.497,3.113c-2.034,2.541-4.139,5.17-6.254,7.713
			c-1.402,1.68-2.893,3.33-4.334,4.926c-0.636,0.701-1.272,1.404-1.9,2.109C139.767,155.546,139.444,155.687,139.085,155.687"/>
		<path fill="#AD7D49" d="M77.745,158.324c-0.297,0-0.57-0.1-0.788-0.289c-0.707-0.623-1.418-1.242-2.127-1.859
			c-1.627-1.414-3.308-2.879-4.905-4.387c-2.404-2.27-4.807-4.627-7.132-6.908c-0.947-0.932-1.897-1.863-2.852-2.795
			c-0.481,0.025-0.964,0.055-1.444,0.082c-1.313,0.076-2.672,0.156-4.012,0.172c-0.239,0.004-0.521,0.02-0.823,0.033
			c-0.423,0.021-0.884,0.045-1.324,0.045c-0.568,0-1.008-0.041-1.345-0.121c-0.386-0.094-0.804-0.461-0.602-1.68
			c0.231-0.883,1.007-1.406,1.623-1.465c1.598-0.158,3.274-0.316,4.891-0.434c-0.3-0.273-0.599-0.551-0.885-0.838l-0.521-0.516
			c-0.685-0.674-1.392-1.373-1.997-2.146c-0.352-0.451-0.45-1.523-0.065-1.961c0.604-0.686,1.645-0.734,2.386-0.1
			c0.227,0.193,0.431,0.41,0.634,0.631c0.122,0.131,0.243,0.262,0.37,0.383c0.556,0.541,1.111,1.076,1.668,1.613
			c0.022-0.732,0.066-1.531,0.072-1.66c0.022-0.389,0.002-0.695-0.018-0.992c-0.028-0.455-0.056-0.887,0.056-1.516
			c0.127-0.699,1.523-0.906,1.671-0.906c0.604,0.041,1.135,0.457,1.424,0.799c0.242,0.293,0.241,0.695,0.241,1.047l0.001,0.184
			c0.018,0.65,0.029,1.301,0.041,1.949c0.022,1.268,0.046,2.578,0.119,3.861c0.02,0.328,0.077,1.328,0.459,1.736
			c2.24,2.398,4.778,5.115,7.453,7.576c1.813,1.668,3.746,3.268,5.619,4.818c1.031,0.855,2.063,1.711,3.082,2.58l0.082,0.074
			c0.005,0.002,0.064,0.057,0.069,0.063c0.532,0.543,0.687,1.211,0.425,1.84C79.026,157.867,78.376,158.324,77.745,158.324"/>
		<path fill="#9FCAD8" d="M82.712,143.468c6.729,3.916,15.052,3.041,22.484,2.412c9.771-0.828,19.432-0.98,28.98-3.502
			c4.718-1.246,2.714-8.551-2.013-7.303c-8.278,2.186-16.601,2.482-25.088,3.078c-6.461,0.453-14.632,2.215-20.543-1.227
			C82.306,134.466,78.494,141.013,82.712,143.468"/>
		<path fill="#9FCAD8" d="M120.978,141.669c0.04,7.307,0.636,14.578,1.261,21.855c0.414,4.828,7.99,4.871,7.573,0
			c-0.624-7.277-1.22-14.549-1.261-21.855C128.524,136.787,120.951,136.783,120.978,141.669"/>
		<path fill-rule="evenodd" clip-rule="evenodd" fill="#EFAD39" d="M108.823,127.728c-4.164-0.545-8.301-1.041-12.418-1.66
			c-0.895-0.135-1.807-0.596-2.557-1.123c-1.223-0.863-1.039-2.006,0.362-2.559c4.06-1.604,8.138-3.152,12.201-4.746
			c1.152-0.453,2.123-0.234,2.977,0.617c1.436,1.438,2.569,3.092,2.702,5.154c0.092,1.404,0.067,2.959-1.481,3.766
			C110.078,127.455,109.445,127.542,108.823,127.728"/>
		<path fill-rule="evenodd" clip-rule="evenodd" fill="#634E42" d="M116.183,113.294c1.451,0.033,2.48,1.141,2.414,2.598
			c-0.071,1.525-0.989,2.352-2.623,2.363c-1.381,0.01-2.319-1.092-2.297-2.689C113.697,114.201,114.731,113.263,116.183,113.294"/>
		<path fill-rule="evenodd" clip-rule="evenodd" fill="#634E42" d="M101.187,115.689c-0.033,1.486-1.098,2.566-2.489,2.521
			c-1.314-0.045-2.271-1.047-2.1-2.369c0.202-1.553,0.979-2.512,2.542-2.512C100.489,113.328,101.221,114.166,101.187,115.689"/>
		<path fill="#634E42" d="M93.836,128.464c3.486,3.865,8.918,3.945,13.765,4.18c5.549,0.27,9.981-1.49,13.307-5.992
			c0.492-0.668-0.625-1.311-1.113-0.648c-3.113,4.217-7.118,5.475-12.193,5.354c-4.46-0.104-9.661-0.264-12.855-3.803
			C94.189,126.935,93.282,127.849,93.836,128.464"/>
	</g>
</g>
</svg>
