<svg xmlns="http://www.w3.org/2000/svg" width="164.667" height="210.333" viewBox="0 0 164.667 210.333"><g opacity=".6" fill-rule="evenodd" clip-rule="evenodd" fill="#040000"><ellipse cx="61" cy="197.333" rx="39.5" ry="7"/><ellipse cx="110" cy="197" rx="36.5" ry="10"/></g><path fill-rule="evenodd" clip-rule="evenodd" fill="#AD7D49" d="M50.41 164.712c-1.674 10.73-5.067 33.6 10.174 33.6 17 0 10.96-27.381 9.926-32.145"/><path fill-rule="evenodd" clip-rule="evenodd" fill="#8CAC25" d="M85.643 81.376c.844 1.666 1.217 2.515 1.687 3.309 6.414 10.885 11.277 22.485 15.91 34.2 1.269 3.205 2.883 6.275 4.409 9.373 1.378 2.791.588 4.947-2.613 4.848-.783-.023-1.573.258-2.54.432 2.111 9.334 7.04 17.313 11.459 25.936.803 2.092.451 3.18-.868 3.563-4.339 1.264-8.569 2.295-16.38 3.15-11.682 2.385-21.493 2.346-32.485 2.492-8.707.123-17.444.254-26.123-.299-9.621-.615-19.266-1.592-28.61-4.178-2.264-.625-4.373-1.959-6.422-3.188-1.533-.916-1.617-2.754-.223-4.414 5.65-6.744 9.014-14.828 13.272-22.387.258-.457.394-.979.603-1.508-1.912-2.715-6.457-1.6-7.428-4.805 3.211-4.441 6.352-8.535 9.219-12.814 4.244-6.34 8.359-12.766 12.394-19.24 2.116-3.396 5.138-8.667 7.256-12.457-2.009-.815-5.048.206-6.829-.614-2.609-1.202-3.01-2.892-1.14-5.003 6.224-7.027 11.484-14.722 16.21-22.824 4.512-7.741 9.223-15.368 13.837-23.048.929-1.545 1.955-2.871 4.001-2.935 1.605-.05 2.772.353 3.638 1.892 5.299 9.442 10.837 18.74 15.189 28.715 2.178 4.983 5.489 9.474 8.304 14.178.345.574.828 1.066 1.151 1.65 1.729 3.154.511 5.515-3.104 5.956-1.001.123-2.025.02-3.774.02"/><path fill="#FFF" d="M51.064 73.274c3.225 0 3.225-5 0-5s-3.225 5 0 5m39.759 52.36c3.225 0 3.225-5 0-5-3.226 0-3.226 5 0 5m-63.56 26.602c3.225 0 3.225-5 0-5s-3.224 5 0 5m43.402-58.082c4.514 0 4.514-7 0-7s-4.514 7 0 7m-12.879 60.48c4.514 0 4.514-7 0-7s-4.514 7 0 7m-20.161-41.16c4.514 0 4.514-7 0-7s-4.514 7 0 7m34.439-52.585c2.418 0 2.418-3.75 0-3.75s-2.418 3.75 0 3.75m18.199 94.362c2.418 0 2.418-3.75 0-3.75s-2.418 3.75 0 3.75m-28.558-29.962c2.418 0 2.418-3.75 0-3.75s-2.418 3.75 0 3.75"/><path fill-rule="evenodd" clip-rule="evenodd" fill="#EFAD39" d="M56.159 19.927s-4.045-3.285-6.019-4.98c-2.555-2.198-.849-3.063 1.623-2.904 2.157.14 5.313.974 7.347.469 1.418-.354 2.407-5.236 2.911-6.497.424-1.06 1.738-6.442 3.769-4.092 1.877 2.176 2.451 5.623 3.278 8.214.488 1.52.157 2.35 1.896 2.372 1.521.021 3.042.035 4.565.063 1.008.019 7.137-.047 5.307 2.444-1.132 1.534-3.701 2.54-5.295 3.578-1.313.86-2.719 1.083-2.161 2.843l1.441 4.545c.356 1.125 2.665 6.109-.117 5.422-2.648-.658-5.359-3.142-7.643-4.651-4.664-3.089-8.635 4.147-13.411 4.167-2.585.02-1.134-2.667-.623-3.787 1.086-2.382 2.111-4.789 3.132-7.206 0 0-.661 1.562 0 0"/><path fill-rule="evenodd" clip-rule="evenodd" fill="#FFF" d="M128.127 139.185c6.6 3.639 14.595 7.229 19.476 13.197 5.437 6.648 6.554 22.396 3.456 30.314-6.244 15.959-23.153 19.615-39.885 20.475-14.648.754-38.536-4.213-42.333-21.133-1.893-8.422-.066-17.686 4.01-25.271 3.364-6.26 8.553-14.717 16.187-16.221-2.926-3.023-5.566-5.531-6.752-9.74-1.466-5.193-1.104-10.924.551-16.021 3.598-11.075 13.046-18.712 25.045-18.556 9.494.123 21.156 5.294 26.157 13.652 5.985 10.007 2.362 21.962-5.912 29.304 3.464 1.908 1.044-.93 0 0"/><path fill-rule="evenodd" clip-rule="evenodd" fill="#D64946" d="M109.309 173.527c-3.095-.008-4.606-1.492-4.617-4.531-.009-2.553 2.434-4.867 5.121-4.855 2.483.012 4.393 1.979 4.368 4.502-.03 3.079-1.84 4.892-4.872 4.884m.921 12.9c-3.189-.033-4.652-1.33-4.756-4.18-.106-2.916 1.771-4.395 4.921-4.654 2.252-.189 4.314 2.043 4.338 4.381.022 2.408-2.004 4.414-4.503 4.453m-2.525-27.482c-2.911-.309-4.397-1.205-4.264-4.367.097-2.254 2.322-4.402 4.646-4.402 2.182 0 4.59 2.27 4.56 4.297-.04 2.562-2.203 4.521-4.942 4.472"/><path fill="#AD7D49" d="M139.085 155.687c-.626 0-1.263-.41-1.55-.994-.279-.568-.189-1.221.249-1.787.003-.008.054-.063.057-.068l.076-.086c.905-.982 1.824-1.951 2.743-2.92 1.676-1.766 3.409-3.592 5.013-5.467 2.364-2.766 4.558-5.764 6.494-8.41.33-.451.27-1.451.249-1.781a97.818 97.818 0 0 0-.342-3.834c-.068-.65-.133-1.301-.193-1.949l-.02-.186c-.045-.354-.092-.75.114-1.066.243-.375.721-.852 1.261-.957.05-.01.116-.016.195-.016.015 0 1.422.031 1.628.707.187.613.211 1.045.237 1.5.016.297.034.604.101.986.048.285.171.992.269 1.641l.039-.049c.478-.584.953-1.164 1.426-1.75.111-.139.216-.283.319-.426.178-.244.354-.484.555-.705.654-.711 1.704-.785 2.381-.186.436.391.466 1.467.171 1.955-.508.84-1.125 1.613-1.722 2.363l-.458.58c-.253.322-.515.631-.781.939 1.615-.078 3.3-.119 4.907-.154h.001c.639 0 1.457.428 1.773 1.225.359 1.221-.012 1.635-.384 1.773-.699.262-1.734.334-2.648.396a24.41 24.41 0 0 0-.814.066c-1.34.143-2.707.227-4.029.309l-1.419.092c-.835 1.037-1.666 2.076-2.497 3.113-2.034 2.541-4.139 5.17-6.254 7.713-1.402 1.68-2.893 3.33-4.334 4.926a311.56 311.56 0 0 0-1.9 2.109 1.207 1.207 0 0 1-.913.398m-61.34 2.637c-.297 0-.57-.1-.788-.289a455.96 455.96 0 0 0-2.127-1.859c-1.627-1.414-3.308-2.879-4.905-4.387-2.404-2.27-4.807-4.627-7.132-6.908a949.252 949.252 0 0 0-2.852-2.795c-.481.025-.964.055-1.444.082-1.313.076-2.672.156-4.012.172-.239.004-.521.02-.823.033-.423.021-.884.045-1.324.045-.568 0-1.008-.041-1.345-.121-.386-.094-.804-.461-.602-1.68.231-.883 1.007-1.406 1.623-1.465 1.598-.158 3.274-.316 4.891-.434-.3-.273-.599-.551-.885-.838l-.521-.516c-.685-.674-1.392-1.373-1.997-2.146-.352-.451-.45-1.523-.065-1.961.604-.686 1.645-.734 2.386-.1.227.193.431.41.634.631.122.131.243.262.37.383.556.541 1.111 1.076 1.668 1.613.022-.732.066-1.531.072-1.66a7.488 7.488 0 0 0-.018-.992c-.028-.455-.056-.887.056-1.516.127-.699 1.523-.906 1.671-.906.604.041 1.135.457 1.424.799.242.293.241.695.241 1.047l.001.184c.018.65.029 1.301.041 1.949.022 1.268.046 2.578.119 3.861.02.328.077 1.328.459 1.736 2.24 2.398 4.778 5.115 7.453 7.576 1.813 1.668 3.746 3.268 5.619 4.818 1.031.855 2.063 1.711 3.082 2.58l.082.074a.985.985 0 0 1 .069.063c.532.543.687 1.211.425 1.84-.265.63-.915 1.087-1.546 1.087"/><path fill="#9FCAD8" d="M82.712 143.468c6.729 3.916 15.052 3.041 22.484 2.412 9.771-.828 19.432-.98 28.98-3.502 4.718-1.246 2.714-8.551-2.013-7.303-8.278 2.186-16.601 2.482-25.088 3.078-6.461.453-14.632 2.215-20.543-1.227-4.226-2.46-8.038 4.087-3.82 6.542"/><path fill="#9FCAD8" d="M120.978 141.669c.04 7.307.636 14.578 1.261 21.855.414 4.828 7.99 4.871 7.573 0-.624-7.277-1.22-14.549-1.261-21.855-.027-4.882-7.6-4.886-7.573 0"/><path fill-rule="evenodd" clip-rule="evenodd" fill="#EFAD39" d="M108.823 127.728c-4.164-.545-8.301-1.041-12.418-1.66-.895-.135-1.807-.596-2.557-1.123-1.223-.863-1.039-2.006.362-2.559 4.06-1.604 8.138-3.152 12.201-4.746 1.152-.453 2.123-.234 2.977.617 1.436 1.438 2.569 3.092 2.702 5.154.092 1.404.067 2.959-1.481 3.766-.531.278-1.164.365-1.786.551"/><path fill-rule="evenodd" clip-rule="evenodd" fill="#634E42" d="M116.183 113.294c1.451.033 2.48 1.141 2.414 2.598-.071 1.525-.989 2.352-2.623 2.363-1.381.01-2.319-1.092-2.297-2.689.02-1.365 1.054-2.303 2.506-2.272m-14.996 2.395c-.033 1.486-1.098 2.566-2.489 2.521-1.314-.045-2.271-1.047-2.1-2.369.202-1.553.979-2.512 2.542-2.512 1.349-.001 2.081.837 2.047 2.36"/><path fill="#634E42" d="M93.836 128.464c3.486 3.865 8.918 3.945 13.765 4.18 5.549.27 9.981-1.49 13.307-5.992.492-.668-.625-1.311-1.113-.648-3.113 4.217-7.118 5.475-12.193 5.354-4.46-.104-9.661-.264-12.855-3.803-.558-.62-1.465.294-.911.909"/></svg>