<svg xmlns="http://www.w3.org/2000/svg" width="94" height="56" viewBox="0 0 94 56"><path fill="#8CBB36" d="M41.796 42.91a1.177 1.177 0 0 1-.634 0c-3.478-.972-7.137-.94-10.878.098-1.904.527-3.823 1.316-5.704 2.347a1.185 1.185 0 0 1-1.684-.644c-1.048-2.962-2.457-5.265-4.434-7.247-1.824-1.829-3.975-2.82-6.575-3.03-1.045-.085-1.576-.852-1.579-2.282 0-.115.003-.229-.008-.328-.059-.528-.186-1.034-.424-1.689-.634-1.748-1.332-3.185-2.135-4.39-1.386-2.083-3.322-3.268-6.283-3.845a1.188 1.188 0 0 1-.926-1.433c.017-.071.041-.139.067-.204 1.84-4.456 1.891-9.67.155-15.501a1.184 1.184 0 1 1 1.504-1.464c3.685 1.212 7.739 1.269 11.725.165a24.144 24.144 0 0 0 4.566-1.794 1.181 1.181 0 0 1 1.62.566c.943 2.086 3.566 7.209 7.517 9.694.652.41 1.418.773 2.409 1.142.26.096.592.163.945.233.543.108 1.161.233 1.711.514 1.001.515 1.366 1.49 1.632 2.202.039.104.076.204.116.3.364.905.841 1.83 1.417 2.748.977 1.56 2.188 3.312 3.768 4.469l.353.26c.628.462 1.276.94 1.921 1.351.169.108.338.212.507.316.196.12.394.243.588.366.437.281.639.814.5 1.314-.16.572-.307 1.152-.438 1.726-.976 4.263-1.132 8.541-.466 12.713a1.185 1.185 0 0 1-.853 1.327"/><path fill="#73B02C" d="M5.026 7.577l.422.339c.279.214.659.58 1.202.937l.873.611 1.07.678c.77.479 1.655.99 2.617 1.572.964.575 2.021 1.204 3.101 1.963.539.367 1.09.818 1.632 1.227.53.419 1.054.869 1.594 1.317l1.64 1.369 1.692 1.371a231.64 231.64 0 0 1 3.426 2.851l1.709 1.464c.568.489 1.11 1.013 1.659 1.513.548.503 1.086 1.008 1.612 1.511l.198.188.117.112.092.097.37.389.73.77c.481.511.965 1.002 1.417 1.505.461.491.868 1.046 1.287 1.544a95.974 95.974 0 0 1 2.275 2.874c.687.886 1.3 1.714 1.842 2.449l1.457 1.854c.805 1.035 1.251 1.65 1.251 1.65s-.583-.472-1.578-1.337c-.493-.438-1.111-.955-1.779-1.587-.654-.64-1.393-1.363-2.178-2.171-.795-.813-1.644-1.643-2.519-2.561-.45-.448-.868-.932-1.375-1.384-.503-.45-.996-.933-1.508-1.412l-.771-.729-.389-.369-.098-.092c.003.006-.058-.048-.083-.069l-.205-.174a97.947 97.947 0 0 1-1.641-1.417l-1.658-1.45-1.708-1.437-3.394-2.916c-1.135-.958-2.19-1.956-3.216-2.911-.512-.479-1.023-.942-1.507-1.415-.499-.45-.934-.881-1.424-1.284-.969-.797-1.919-1.539-2.807-2.233a50.152 50.152 0 0 1-2.396-1.947c-.346-.309-.673-.591-.965-.863l-.773-.794c-.484-.462-.754-.905-.985-1.173l-.328-.43"/><path fill="#73B02C" d="M18.134 6.401s.016.18.011.483c0 .304-.034.734-.08 1.234-.045.499-.142 1.063-.235 1.662l-.169.912c-.051.31-.118.619-.184.93-.057.31-.105.619-.175.922-.073.304-.11.604-.17.896-.052.292-.134.574-.17.845-.046.271-.1.529-.155.77-.116.482-.177.893-.264 1.187-.075.293-.138.466-.138.466s-.085-.156-.2-.439c-.108-.283-.283-.692-.387-1.2-.05-.254-.098-.532-.139-.828-.051-.296-.048-.608-.055-.932.001-.325-.013-.664.04-.999.035-.337.086-.679.141-1.02.08-.333.158-.667.252-.99.081-.329.209-.631.322-.93.223-.598.504-1.124.755-1.568.257-.441.509-.786.693-1.029.183-.241.307-.372.307-.372m13.041 9.817s-.013.188-.066.502c-.045.315-.156.758-.268 1.271a15.55 15.55 0 0 1-.2.809c-.085.277-.15.58-.231.885-.072.307-.186.613-.255.932-.072.318-.162.636-.25.954-.082.319-.139.641-.225.955-.09.313-.137.628-.204.932-.057.304-.156.597-.19.883-.05.284-.105.555-.162.809-.124.506-.174.94-.262 1.249-.074.308-.136.491-.136.491s-.086-.164-.203-.463c-.057-.149-.131-.332-.196-.545-.07-.213-.155-.455-.193-.724-.048-.27-.094-.563-.133-.877-.051-.314-.03-.646-.03-.99.009-.345.007-.705.079-1.059.055-.357.119-.721.2-1.078.106-.35.211-.701.331-1.04.107-.344.276-.654.418-.963.279-.617.649-1.146.957-1.591.152-.227.321-.404.464-.571.14-.167.277-.304.387-.419.223-.23.368-.352.368-.352M4.91 19.567s.178-.122.499-.3c.32-.181.783-.418 1.346-.672.282-.125.589-.254.916-.383.324-.133.684-.238 1.051-.352a30.762 30.762 0 0 1 2.338-.599c1.596-.311 3.221-.48 4.452-.495.617-.007 1.137.012 1.504.041.366.026.58.062.58.062s-.185.111-.514.272c-.331.163-.806.375-1.383.597-1.157.445-2.717.889-4.304 1.197-.784.164-1.572.298-2.322.393l-1.088.125a20.71 20.71 0 0 1-.988.096c-.616.042-1.136.053-1.504.045-.369-.005-.583-.027-.583-.027m8.688 11.842s.154-.217.448-.571a7.02 7.02 0 0 1 .56-.613c.227-.236.488-.494.795-.742.297-.266.637-.532 1.01-.796.367-.273.784-.516 1.212-.775.441-.234.895-.488 1.386-.685.478-.223.992-.386 1.5-.561.522-.136 1.039-.294 1.567-.368.521-.106 1.047-.143 1.553-.177.508-.012.999-.015 1.462.033.463.046.897.105 1.291.208.197.046.385.082.562.132l.493.174c.309.102.568.213.776.326.417.211.64.349.64.349s-.272.004-.723-.019c-.224-.022-.5-.012-.809-.013-.309-.007-.654.003-1.028.026-.372.006-.773.061-1.193.1-.419.039-.859.12-1.309.188-.45.09-.914.173-1.378.293-.469.101-.936.25-1.406.379-.466.151-.934.293-1.387.464-.459.153-.898.345-1.335.505-.423.189-.85.345-1.238.529-.393.177-.772.335-1.113.502a88.44 88.44 0 0 0-1.677.803 9.544 9.544 0 0 1-.659.309m12.941 8.864s.089-.176.267-.46c.178-.282.459-.677.83-1.108.373-.431.844-.9 1.396-1.352a12.11 12.11 0 0 1 1.864-1.249c.349-.167.688-.352 1.053-.48a7.49 7.49 0 0 1 1.081-.345c.354-.1.723-.135 1.058-.18.351-.005.668-.04.973.008.303.034.572.071.808.155.235.068.434.128.587.222.309.164.463.275.463.275s-.204.03-.522.059c-.157 0-.353.064-.563.097-.21.027-.444.112-.691.178-.246.053-.51.182-.783.263-.272.122-.559.218-.849.359-.145.071-.294.135-.444.2-.148.076-.298.153-.451.224-.305.145-.61.316-.918.473-1.226.66-2.47 1.36-3.45 1.866-.493.25-.91.452-1.217.589a6.012 6.012 0 0 1-.492.206"/><path fill="#73B02C" d="M39.338 28.534s-.053.136-.168.347c-.065.102-.108.241-.177.37-.065.13-.126.296-.204.459a67.622 67.622 0 0 0-.994 2.357c-.331.851-.659 1.697-.873 2.382-.05.171-.116.334-.149.48-.033.145-.09.282-.107.392-.049.224-.095.368-.095.368s-.098-.101-.239-.307a2.025 2.025 0 0 1-.209-.395 2.898 2.898 0 0 1-.189-.55 4.364 4.364 0 0 1-.1-1.428c.024-.26.061-.528.131-.791.052-.269.157-.523.246-.784.115-.25.217-.506.362-.736.129-.237.285-.456.444-.659.32-.407.68-.741 1.03-.976.341-.231.692-.392.916-.45.231-.059.375-.079.375-.079"/><path fill="#8CBB36" d="M49.987 43.454a1.18 1.18 0 0 1-.325-1.088c.882-4.133.95-8.412.201-12.721-.1-.58-.217-1.167-.347-1.747a1.185 1.185 0 0 1 .568-1.285c.201-.115.403-.226.605-.336.176-.094.351-.189.524-.289.665-.376 1.339-.819 1.989-1.248l.366-.242c1.637-1.073 2.938-2.759 3.997-4.266a17.617 17.617 0 0 0 1.558-2.668c.045-.094.088-.194.132-.294.303-.698.719-1.652 1.745-2.113.566-.253 1.188-.344 1.736-.424.356-.052.692-.101.955-.185 1.009-.316 1.793-.638 2.466-1.013 4.077-2.274 6.964-7.253 8.017-9.288a1.187 1.187 0 0 1 1.649-.478A24.218 24.218 0 0 0 80.286 5.8c3.923 1.312 7.977 1.468 11.718.452a1.183 1.183 0 0 1 1.428 1.538c-2.04 5.731-2.261 10.942-.66 15.488a1.194 1.194 0 0 1 .069.292 1.176 1.176 0 0 1-.272.89 1.194 1.194 0 0 1-.739.408c-2.987.42-4.983 1.501-6.476 3.508-.865 1.164-1.637 2.562-2.361 4.274-.272.642-.427 1.14-.514 1.664-.016.098-.019.212-.025.327-.076 1.429-.648 2.168-1.696 2.196-2.606.074-4.808.95-6.726 2.682-2.076 1.875-3.604 4.101-4.807 7.005a1.187 1.187 0 0 1-1.716.554c-1.824-1.127-3.699-2.016-5.571-2.643-3.682-1.23-7.335-1.456-10.857-.668a1.177 1.177 0 0 1-.635-.033 1.138 1.138 0 0 1-.459-.28"/><path fill="#73B02C" d="M89.016 10.379l-.351.412c-.244.255-.537.685-1.044 1.119-.246.229-.52.481-.814.757-.307.256-.647.521-1.01.811a49.626 49.626 0 0 1-2.495 1.819c-.922.646-1.911 1.337-2.919 2.083-.511.376-.969.784-1.49 1.206-.508.447-1.043.882-1.579 1.334-1.074.899-2.181 1.84-3.364 2.738l-3.541 2.733-1.78 1.346-1.732 1.36c-.571.454-1.144.897-1.713 1.33l-.214.163c-.027.02-.09.072-.087.065l-.104.087-.407.347-.809.688c-.537.451-1.055.907-1.581 1.332-.529.424-.972.884-1.445 1.309-.922.871-1.813 1.654-2.649 2.425-.827.765-1.602 1.449-2.289 2.054-.7.596-1.344 1.081-1.859 1.491-1.04.813-1.646 1.252-1.646 1.252s.478-.592 1.336-1.582l1.552-1.773c.579-.706 1.235-1.502 1.968-2.35a93.88 93.88 0 0 1 2.423-2.752c.444-.476.879-1.008 1.366-1.475.478-.478.987-.941 1.494-1.428l.771-.729.389-.369.098-.093.123-.105.207-.177a91.054 91.054 0 0 1 1.69-1.424c.573-.472 1.143-.966 1.734-1.425l1.783-1.372a249.856 249.856 0 0 1 3.571-2.667l1.762-1.28 1.71-1.282c.563-.418 1.109-.84 1.661-1.231.561-.38 1.135-.802 1.694-1.14 1.118-.702 2.206-1.273 3.2-1.797.991-.531 1.901-.995 2.694-1.432l1.105-.622.903-.565c.562-.328.959-.673 1.248-.872l.44-.319"/><path fill="#73B02C" d="M75.989 8.517s.116.138.288.389c.172.252.404.61.639 1.064.227.458.479.998.671 1.606.096.304.209.613.272.945.076.329.138.666.199 1.002.037.343.069.687.088 1.025.034.337.003.676-.014 1-.023.324-.036.636-.104.929-.057.293-.118.568-.183.819-.129.501-.325.901-.448 1.178-.129.276-.223.427-.223.427s-.055-.176-.114-.472c-.07-.298-.111-.712-.201-1.199a15.46 15.46 0 0 1-.115-.777c-.021-.273-.088-.559-.124-.853-.046-.293-.066-.596-.124-.903-.053-.307-.085-.619-.127-.931-.05-.314-.101-.626-.135-.938l-.12-.92c-.062-.603-.129-1.172-.148-1.672-.019-.503-.03-.933-.014-1.236.012-.304.037-.483.037-.483m-13.538 9.12s.138.129.348.37c.104.121.233.265.365.439.134.174.293.36.433.594.283.46.625 1.008.873 1.64.125.315.277.634.366.983.102.345.188.7.277 1.056.062.361.104.728.142 1.087.053.358.033.718.024 1.062-.019.344-.015.676-.083.987-.056.311-.116.603-.178.869-.054.267-.15.504-.232.713-.075.209-.158.388-.223.535-.133.292-.228.452-.228.452s-.052-.186-.109-.498c-.071-.313-.1-.75-.196-1.261a15.643 15.643 0 0 1-.118-.816c-.021-.287-.104-.584-.145-.892-.05-.307-.081-.623-.154-.94-.07-.317-.111-.643-.175-.965-.071-.322-.145-.645-.201-.966-.053-.322-.149-.634-.206-.944-.065-.309-.113-.613-.185-.896a16.98 16.98 0 0 1-.156-.818c-.085-.519-.172-.966-.2-1.283-.036-.319-.039-.508-.039-.508m26.054 4.722s-.216.012-.584-.002c-.367-.012-.886-.05-1.499-.125a21.715 21.715 0 0 1-.981-.148l-1.08-.182a29.364 29.364 0 0 1-2.298-.514c-1.569-.39-3.104-.915-4.236-1.42a17.36 17.36 0 0 1-1.35-.669c-.321-.177-.499-.299-.499-.299s.216-.023.583-.031c.367-.009.888-.002 1.504.038 1.229.079 2.843.333 4.42.728.793.215 1.579.46 2.304.72.36.132.714.257 1.03.406.32.146.62.291.895.431.549.283.999.544 1.309.741.31.196.482.326.482.326m-9.299 11.37s-.241-.114-.641-.341a81.089 81.089 0 0 0-1.634-.89c-.33-.186-.702-.362-1.085-.56-.378-.205-.795-.383-1.207-.594-.429-.184-.856-.396-1.308-.575-.443-.193-.904-.36-1.361-.536-.463-.153-.921-.327-1.384-.452-.459-.145-.916-.251-1.361-.365-.445-.091-.881-.195-1.297-.255-.417-.062-.815-.138-1.187-.163a12.193 12.193 0 0 0-1.025-.08c-.309-.016-.584-.04-.808-.03-.451 0-.723-.018-.723-.018s.229-.125.657-.315c.212-.102.478-.2.792-.285l.501-.148c.178-.041.369-.066.567-.103.399-.083.835-.12 1.301-.141.465-.024.954.005 1.462.043.502.061 1.025.125 1.54.258.524.102 1.031.287 1.546.45.498.201 1.003.391 1.469.639.48.222.919.5 1.349.756.413.281.817.546 1.17.837.358.284.684.567.966.848.294.264.542.536.756.783.219.237.393.456.527.643.275.369.418.594.418.594m-13.388 8.173s-.183-.076-.479-.233c-.3-.153-.705-.375-1.185-.651-.952-.557-2.157-1.322-3.348-2.045-.3-.172-.596-.36-.892-.519a10.828 10.828 0 0 1-.438-.248c-.146-.074-.292-.145-.434-.223-.283-.157-.563-.269-.829-.404-.269-.095-.525-.237-.768-.303-.244-.079-.474-.176-.682-.215-.207-.042-.399-.117-.556-.124-.317-.046-.52-.088-.52-.088s.16-.103.478-.251c.158-.085.358-.133.597-.19.24-.071.512-.095.814-.111.309-.032.624.019.974.042.331.063.698.118 1.047.236.355.104.715.234 1.062.4.357.147.686.349 1.025.535.655.405 1.271.863 1.796 1.345.528.479.974.973 1.323 1.424.348.449.607.857.771 1.148.165.294.244.475.244.475"/><path fill="#73B02C" d="M53.652 29.508s.144.027.372.1c.219.071.562.249.891.498.337.252.678.604.977 1.027.147.212.293.439.409.683.132.237.221.498.323.755.073.266.165.525.204.796.057.266.078.535.089.796a4.309 4.309 0 0 1-.174 1.42 2.918 2.918 0 0 1-.218.54 2.058 2.058 0 0 1-.229.382c-.153.2-.256.296-.256.296s-.037-.147-.075-.374c-.012-.11-.062-.25-.086-.396-.025-.147-.083-.313-.124-.487-.178-.694-.461-1.559-.746-2.423a69.228 69.228 0 0 0-.869-2.407c-.069-.168-.121-.337-.181-.47-.061-.133-.098-.273-.156-.38-.105-.218-.151-.356-.151-.356"/><path fill-rule="evenodd" clip-rule="evenodd" fill="#A62124" d="M48.914 53.849c-1.656-.448-3.222-1.545-4.204-2.958-1.087-1.565-.712-3.868-.27-5.604.439-1.714 1.239-3.202 2.872-4.008 1.709-.845 3.828-1.088 5.682-.654 1.638.382 3.729 1.475 4.547 3.021.91 1.725.854 3.836.311 5.639-.573 1.905-1.235 3.709-3.187 4.555-1.729.752-4.05.901-5.751.009-1.579-.428 1.419.744 0 0"/><path fill-rule="evenodd" clip-rule="evenodd" fill="#C13432" d="M38.142 53.501c-1.398-.987-3.149-1.773-3.636-3.562-.448-1.646-.341-4.039.235-5.628 1.205-3.325 5.049-5.536 8.548-4.227 3.74 1.398 4.395 5.87 3.352 9.226-1.134 3.647-4.942 5.156-8.499 4.191-.917-.647 1.529.416 0 0"/><path fill-rule="evenodd" clip-rule="evenodd" fill="#D64946" d="M44.802 42.951c-1.472-.751-3.213-1.375-4.101-2.872-.997-1.683-.962-3.55-.477-5.398 1.081-4.105 4.866-6.569 9.038-5.151 3.731 1.268 5.188 5.509 3.997 9.074-.537 1.609-1.514 3.105-3.057 3.891-1.77.902-3.511.62-5.4.456-1.782-.911.819.071 0 0"/></svg>