<svg xmlns="http://www.w3.org/2000/svg" xmlns:xlink="http://www.w3.org/1999/xlink" width="340" height="348.814" viewBox="0 0 340 348.814"><circle fill="#FFD334" cx="170" cy="170" r="170"/><defs><circle id="a" cx="170" cy="170" r="170"/></defs><clipPath id="b"><use xlink:href="#a" overflow="visible"/></clipPath><g clip-path="url(#b)"><path fill="#FFF" d="M297.203 254.817c-.778-.299-1.395-.893-2.32-.688-1.088.244-1.874.904-2.251 1.859-.778.891-1.072 2.195-.113 3.105.185.178.393.334.607.479.637.859 1.763 1.008 2.706.479.222-.082.44-.186.65-.346.479-.361.885-.754 1.16-1.299.093-.186.164-.379.236-.572.033-.057.055-.119.085-.18a.537.537 0 0 1-.036.066c.017-.049.043-.094.059-.143.066-.186.107-.25.111-.234.015-.039.039-.076.052-.115.257-.864-.005-2.055-.946-2.411zm.895 2.528a2.208 2.208 0 0 1-.134.311c.1-.182.139-.292.134-.311zm33.798 18.166c-2.128-.93-4.177-1.988-6.197-3.1 1.421-.529 2.848-1.039 4.25-1.617 2.561-1.057 1.997-5.447-.938-4.236-2.643 1.092-5.368 1.957-7.978 3.123a157.97 157.97 0 0 1-5.783-3.762c2.701-.975 7.586-1.453 9.019-2.023 2.577-1.027 2.012-5.41-.938-4.236-3.359 1.338-8.888 1.137-12.056 3.494-1.291-.916-2.582-1.832-3.871-2.75a2.07 2.07 0 0 0-.805-.346c.439-2.213.296-4.848.048-7.131 2.078-.871 4.073-1.883 6.021-2.979 3.48 1.439 6.867 3.041 10.665 3.529 2.603.334 4.29-4.121 1.341-4.5-2.458-.314-4.727-1.158-6.969-2.094 1.16-.746 2.312-1.506 3.465-2.27 2.239 1.83 5.806 1.686 8.331 2.822 2.412 1.086 4.985-3.02 2.396-4.186-1.918-.863-4.037-1.08-6.022-1.73a131.869 131.869 0 0 1 3.609-2.256c2.532-1.51.672-5.285-2.035-3.666a107.823 107.823 0 0 0-3.403 2.129c.377-1.387.807-2.75.782-4.209-.057-3.098-4.536-2.164-4.489.521.043 2.426-1.155 4.67-1.082 6.861-1.604 1.07-3.21 2.139-4.845 3.16.892-3.092 2.477-5.957 2.504-9.324.022-3.102-4.468-2.162-4.49.521-.03 4.09-2.489 7.615-2.993 11.658a50.004 50.004 0 0 1-3.752 1.789 2.515 2.515 0 0 0-.439.234 3.582 3.582 0 0 0-.45-.166c-2.063-.578-3.916-2.992-5.986-4.369-.043-1.977-.13-3.953-.229-5.93 2.372-2.225 4.81-4.381 7.059-6.734 2.129-2.229-.904-5.047-3.027-2.822-1.391 1.457-2.856 2.834-4.332 4.199a753.46 753.46 0 0 1-.288-5c2.086-1.055 3.682-3.029 5.73-4.271 2.521-1.527.664-5.305-2.034-3.668-1.296.785-2.545 2.352-3.914 3.33a170.554 170.554 0 0 1-.129-4.8c-.029-3.101-4.514-2.165-4.488.522.012 1.139.038 2.277.072 3.418-1.069-1.113-2.061-2.465-2.659-3.025-1.987-1.863-5.309 1.697-3.321 3.561 1.869 1.754 3.702 4.459 6.245 5.34.092 1.717.191 3.434.294 5.15-1.742-1.906-3.419-3.857-5.71-5.232-2.261-1.357-4.832 2.721-2.396 4.184 3.246 1.949 5.134 5.459 8.059 7.805.134.107.271.191.413.262.045 1.061.105 2.121.136 3.182-2.685 1.164-5.095 3.225-7.172 5.352-1.898-1.141-3.909-2.113-5.936-3.063-.089-3.17-.676-6.26-1.437-9.354-.712-2.893-5.022-.904-4.395 1.65.45 1.826.843 3.646 1.1 5.486a65.928 65.928 0 0 1-3.821-1.955c.945-2.211.207-5.695-.188-7.82-.543-2.92-4.874-.926-4.394 1.65.196 1.057.426 2.301.473 3.49a23.56 23.56 0 0 1-3.311-3.051c-1.793-2.023-5.124 1.527-3.321 3.561.86.971 1.787 1.832 2.757 2.623-.856.299-1.699.621-2.52 1.066-2.598 1.406-.722 5.162 2.035 3.668 1.581-.857 3.218-1.229 4.714-1.852 1.6.922 3.267 1.736 4.951 2.525-2.047.824-4.139 1.516-6.317 1.727-2.665.26-3.295 4.814-.209 4.514 4.129-.4 7.947-2.225 11.729-3.82 1.976.945 3.921 1.953 5.758 3.139-.224 2.691-.181 5.371-.153 8.072a73.94 73.94 0 0 0-3.693 2.043c-2.323-2.295-8.171-1.992-10.513-3.434-2.243-1.385-4.813 2.693-2.396 4.184 1.225.754 5.702 1.379 8.037 2.119a74.823 74.823 0 0 1-3.459 1.908c-.438.225-.874.445-1.311.666a1.954 1.954 0 0 0-1.195-.717c-2.682-.426-5.248-1.127-7.79-2.076-2.468-.918-5.041 3.199-2.396 4.186a49.425 49.425 0 0 0 5.564 1.711c-1.501.873-2.976 1.795-4.37 2.883-2.285 1.783-.469 5.623 2.035 3.67 1.193-.932 2.449-1.738 3.729-2.506-.367 1.801-.836 3.602-.903 5.395-.118 3.1 4.387 2.152 4.488-.521.097-2.547.791-4.977 1.108-7.455 1.131-.576 2.268-1.146 3.406-1.73a55.113 55.113 0 0 0 2.574-1.43c-.271 2.549-1.111 5.252-1.536 7.514-.582 3.096 3.771 3.398 4.288.641.663-3.531 1.585-7.162 1.656-10.783 1.643-.986 3.299-1.949 5.045-2.764.429.336.841.66 1.16.982 1.734 1.766 3.309 3.238 5.223 3.588.011.908.038 1.816.057 2.725a2.612 2.612 0 0 0-.973.664c-2.253 2.564-4.277 6.344-7.477 7.816-2.497 1.15-1.943 5.559.938 4.234 3.28-1.51 5.456-4.219 7.657-6.936.06 1.873.119 3.746.176 5.619-2.736 1.523-4.885 5.305-6.771 7.119-2.228 2.146.823 4.943 3.027 2.824 1.129-1.088 2.082-2.348 3.09-3.547.25-.297.521-.572.783-.855.028 1.42.07 2.844.077 4.266.017 3.1 4.503 2.162 4.488-.521-.006-1.24-.033-2.479-.058-3.719 1.514 1.102 2.936 2.469 4.065 3.732 1.806 2.016 5.135-1.537 3.322-3.563-1.789-1.998-4.695-4.799-7.532-5.906-.013-.43-.022-.857-.037-1.287 1.25 1.123 2.59 2.139 4.101 2.951 2.333 1.25 4.904-2.84 2.397-4.184-2.633-1.412-4.702-3.637-6.718-5.865a342.423 342.423 0 0 1-.133-6.568c2.3-1.07 4.776-2.535 6.541-4.365 1.504 1.072 3.011 2.145 4.521 3.211-.656 4.471 1.384 10.912 3.542 14.383 1.503 2.418 5.405-.436 4.008-2.684-1.44-2.316-2.38-5.441-2.8-8.408 1.722 1.16 3.47 2.275 5.236 3.361.668 2.564.442 5.209.416 7.867-.028 3.102 4.464 2.16 4.488-.521.015-1.488.079-2.996.05-4.49 1.843.992 3.71 1.943 5.639 2.785 2.422 1.06 4.995-3.047 2.395-4.182zm-29.903-15.608c-.171 2.199-4.67 4.324-6.457 5.031-1.648.654-3.633-2.096-4.979-3.465-2.158-2.193-1.675-5.486-1.326-8.48 1.256-1.402 3.966-4.563 5.966-4.705.303.186.664.279 1.042.275 2.171 1.137 3.623 3.014 5.758 4.121.228 2.389.18 4.842-.004 7.223zm-29.785-70.586c-.42-.159-.752-.477-1.251-.367-.587.13-1.01.482-1.214.992-.419.476-.578 1.172-.061 1.657.1.096.211.179.327.256.344.459.951.538 1.459.256.12-.044.237-.1.351-.185.259-.193.478-.402.626-.693.05-.099.089-.202.127-.306.019-.03.029-.063.046-.096-.006.013-.012.022-.02.035.01-.026.023-.05.032-.076.035-.099.058-.133.06-.125.008-.021.021-.041.028-.062.138-.46-.003-1.096-.51-1.286zm.482 1.349c-.02.059-.045.112-.072.166a.485.485 0 0 0 .072-.166zm18.224 9.696a41.656 41.656 0 0 1-3.342-1.654c.767-.282 1.536-.555 2.292-.863 1.381-.563 1.077-2.907-.506-2.261-1.425.582-2.895 1.044-4.302 1.666a81.796 81.796 0 0 1-3.118-2.008c1.456-.52 4.09-.775 4.862-1.08 1.39-.548 1.085-2.887-.506-2.261-1.811.714-4.792.606-6.5 1.865l-2.087-1.468a1.134 1.134 0 0 0-.435-.185c.237-1.181.16-2.588.026-3.807a31.653 31.653 0 0 0 3.246-1.589c1.876.768 3.703 1.623 5.75 1.883 1.403.179 2.313-2.199.724-2.401-1.326-.168-2.549-.618-3.758-1.118.626-.397 1.246-.803 1.868-1.211 1.207.977 3.13.899 4.492 1.506 1.3.58 2.688-1.611 1.292-2.233-1.034-.461-2.177-.577-3.247-.924a74.85 74.85 0 0 1 1.946-1.204c1.365-.806.362-2.82-1.098-1.957-.619.366-1.229.747-1.835 1.137.203-.74.435-1.468.422-2.246-.03-1.654-2.446-1.156-2.421.277.023 1.295-.623 2.493-.583 3.662-.865.572-1.731 1.143-2.612 1.688.48-1.65 1.335-3.18 1.35-4.977.013-1.656-2.408-1.154-2.42.277-.018 2.184-1.343 4.065-1.614 6.224a26.88 26.88 0 0 1-2.023.954 1.427 1.427 0 0 0-.236.125 1.961 1.961 0 0 0-.243-.088c-1.112-.309-2.111-1.598-3.228-2.332a111.56 111.56 0 0 0-.123-3.165c1.278-1.188 2.593-2.339 3.806-3.595 1.147-1.189-.487-2.693-1.633-1.506a52.529 52.529 0 0 1-2.335 2.241 338.13 338.13 0 0 1-.155-2.669c1.124-.563 1.984-1.617 3.09-2.28 1.358-.815.357-2.831-1.098-1.958-.698.42-1.371 1.256-2.109 1.777a87.43 87.43 0 0 1-.07-2.562c-.016-1.655-2.434-1.155-2.42.278.007.608.021 1.216.039 1.825-.576-.595-1.111-1.315-1.434-1.615-1.071-.994-2.862.906-1.791 1.9 1.008.937 1.996 2.38 3.367 2.851.05.916.104 1.832.159 2.749-.939-1.018-1.844-2.06-3.079-2.793-1.219-.725-2.605 1.452-1.292 2.233 1.75 1.04 2.768 2.913 4.345 4.166.072.057.146.102.223.139.024.566.057 1.133.073 1.699-1.447.621-2.747 1.721-3.866 2.855-1.024-.608-2.108-1.128-3.201-1.635-.048-1.691-.364-3.341-.774-4.992-.384-1.544-2.708-.482-2.369.881.242.975.454 1.946.593 2.929a36.478 36.478 0 0 1-2.061-1.044c.51-1.18.111-3.039-.101-4.174-.293-1.559-2.628-.494-2.369.881.105.564.229 1.229.255 1.863a12.69 12.69 0 0 1-1.785-1.629c-.967-1.08-2.763.815-1.791 1.9.464.519.964.979 1.486 1.4a9.03 9.03 0 0 0-1.357.569c-1.401.751-.39 2.755 1.097 1.958.853-.458 1.735-.656 2.542-.988.862.492 1.761.927 2.669 1.348-1.104.439-2.231.809-3.406.922-1.437.139-1.776 2.569-.112 2.409 2.226-.214 4.285-1.188 6.324-2.04 1.064.505 2.114 1.043 3.104 1.676-.12 1.437-.098 2.867-.083 4.309-.677.342-1.337.712-1.991 1.091-1.253-1.226-4.405-1.063-5.668-1.833-1.21-.739-2.596 1.438-1.292 2.233.66.402 3.074.735 4.333 1.131a40.89 40.89 0 0 1-1.864 1.019l-.707.355c-.16-.2-.399-.346-.645-.383a21.804 21.804 0 0 1-4.2-1.108c-1.331-.489-2.718 1.708-1.292 2.234.986.364 1.984.668 3 .913-.81.467-1.604.958-2.356 1.539-1.231.951-.253 3.001 1.098 1.959.644-.498 1.32-.928 2.011-1.338-.198.961-.451 1.923-.488 2.879-.063 1.655 2.365 1.149 2.421-.277.052-1.359.426-2.656.598-3.979.609-.308 1.223-.612 1.836-.924.472-.238.931-.5 1.388-.763-.146 1.36-.599 2.803-.827 4.01-.314 1.652 2.032 1.814 2.312.342.357-1.885.854-3.822.893-5.755.886-.526 1.779-1.04 2.721-1.476.23.18.453.353.625.524.936.942 1.784 1.729 2.816 1.915.006.485.021.97.03 1.455a1.385 1.385 0 0 0-.524.354c-1.215 1.369-2.306 3.387-4.031 4.172-1.347.614-1.048 2.967.506 2.261 1.769-.806 2.941-2.252 4.129-3.702l.095 3c-1.476.813-2.635 2.831-3.651 3.799-1.201 1.146.443 2.639 1.632 1.508.609-.58 1.123-1.253 1.666-1.893.136-.159.281-.306.423-.457.015.758.037 1.518.041 2.276.009 1.655 2.428 1.154 2.42-.278-.003-.662-.018-1.322-.03-1.984a14.432 14.432 0 0 1 2.191 1.992c.974 1.076 2.769-.82 1.791-1.901-.965-1.066-2.531-2.562-4.061-3.153l-.021-.687c.674.6 1.396 1.142 2.211 1.575 1.258.667 2.645-1.516 1.293-2.233-1.42-.753-2.535-1.94-3.622-3.13a170.832 170.832 0 0 1-.071-3.506c1.239-.572 2.574-1.354 3.526-2.33.812.572 1.623 1.145 2.438 1.714-.354 2.386.746 5.824 1.909 7.677.811 1.291 2.915-.232 2.161-1.433-.776-1.236-1.283-2.904-1.509-4.487.928.619 1.87 1.214 2.822 1.794.36 1.368.238 2.78.225 4.198-.016 1.656 2.407 1.153 2.42-.277.008-.795.043-1.6.027-2.397.993.53 2 1.038 3.04 1.487 1.303.566 2.689-1.626 1.288-2.232zm-16.123-8.331c-.092 1.174-2.518 2.309-3.481 2.686-.889.35-1.959-1.118-2.685-1.85-1.164-1.17-.902-2.928-.715-4.525.677-.749 2.138-2.436 3.217-2.512.163.099.357.148.562.146 1.171.607 1.953 1.609 3.104 2.2.123 1.275.097 2.585-.002 3.855zM44.223 253.374c-1.007-.38-1.804-1.134-3.001-.874-1.407.311-2.423 1.149-2.911 2.363-1.006 1.132-1.387 2.79-.147 3.947.239.226.508.424.786.607.824 1.092 2.28 1.281 3.5.608.287-.104.569-.235.842-.439.619-.459 1.145-.958 1.5-1.65.121-.235.213-.481.307-.728.043-.072.069-.151.109-.229-.015.029-.028.055-.047.085.021-.063.055-.119.075-.182.086-.235.14-.317.145-.298.019-.049.051-.097.067-.146.33-1.098-.009-2.612-1.225-3.064zm1.157 3.212a2.986 2.986 0 0 1-.173.395c.13-.231.18-.37.173-.395zm43.714 23.086c-2.752-1.181-5.402-2.526-8.016-3.938 1.839-.673 3.684-1.32 5.498-2.056 3.312-1.343 2.583-6.922-1.214-5.384-3.419 1.388-6.944 2.487-10.317 3.97a206.735 206.735 0 0 1-7.48-4.781c3.493-1.238 9.811-1.847 11.664-2.571 3.333-1.306 2.602-6.876-1.213-5.384-4.346 1.7-11.496 1.445-15.593 4.44-1.671-1.164-3.34-2.328-5.007-3.495a2.735 2.735 0 0 0-1.041-.439c.568-2.812.383-6.16.062-9.062 2.688-1.107 5.269-2.394 7.786-3.786 4.502 1.83 8.883 3.865 13.795 4.486 3.365.424 5.549-5.238 1.733-5.719-3.179-.4-6.113-1.473-9.013-2.661 1.5-.948 2.99-1.914 4.48-2.885 2.896 2.326 7.51 2.143 10.775 3.587 3.12 1.38 6.448-3.837 3.1-5.319-2.48-1.097-5.221-1.372-7.789-2.199a170.07 170.07 0 0 1 4.669-2.866c3.274-1.919.869-6.717-2.633-4.659a139.554 139.554 0 0 0-4.401 2.705c.488-1.762 1.043-3.495 1.012-5.349-.073-3.937-5.867-2.75-5.807.662.056 3.083-1.494 5.936-1.398 8.721-2.076 1.359-4.152 2.717-6.267 4.016 1.153-3.93 3.202-7.57 3.237-11.85.03-3.941-5.777-2.748-5.807.662-.039 5.198-3.22 9.679-3.871 14.816-1.584.812-3.193 1.589-4.853 2.273a3.251 3.251 0 0 0-.568.298 4.781 4.781 0 0 0-.582-.211c-2.67-.734-5.065-3.803-7.743-5.553a263.47 263.47 0 0 0-.295-7.535c3.067-2.827 6.22-5.567 9.129-8.559 2.753-2.832-1.17-6.414-3.916-3.587-1.798 1.852-3.693 3.602-5.602 5.337a894.832 894.832 0 0 1-.374-6.354c2.698-1.34 4.763-3.85 7.412-5.428 3.261-1.941.859-6.742-2.631-4.662-1.677.998-3.292 2.988-5.062 4.232a213.8 213.8 0 0 1-.168-6.1c-.037-3.94-5.838-2.752-5.805.663.015 1.447.05 2.895.094 4.344-1.383-1.415-2.666-3.132-3.439-3.845-2.57-2.367-6.866 2.157-4.296 4.525 2.418 2.229 4.789 5.666 8.078 6.786.119 2.182.247 4.363.381 6.545-2.253-2.423-4.422-4.902-7.385-6.649-2.925-1.725-6.25 3.458-3.1 5.316 4.198 2.478 6.639 6.938 10.422 9.919a3 3 0 0 0 .534.333c.059 1.348.136 2.695.176 4.043-3.473 1.479-6.589 4.098-9.275 6.801-2.456-1.449-5.056-2.686-7.678-3.892-.114-4.028-.874-7.955-1.858-11.887-.921-3.677-6.496-1.149-5.683 2.097.582 2.321 1.089 4.635 1.421 6.973-1.677-.787-3.336-1.601-4.942-2.484 1.223-2.81.267-7.238-.242-9.938-.702-3.711-6.304-1.177-5.684 2.097.254 1.344.551 2.925.612 4.436-1.528-1.151-2.97-2.424-4.281-3.877-2.32-2.571-6.627 1.941-4.296 4.525a30.355 30.355 0 0 0 3.566 3.334c-1.108.379-2.198.789-3.259 1.354-3.36 1.787-.934 6.561 2.631 4.662 2.045-1.09 4.162-1.562 6.098-2.354 2.069 1.172 4.225 2.207 6.404 3.21-2.647 1.047-5.353 1.926-8.171 2.193-3.447.33-4.262 6.119-.27 5.736 5.339-.509 10.278-2.827 15.17-4.855 2.555 1.202 5.072 2.482 7.447 3.989-.289 3.421-.233 6.826-.198 10.259-1.625.814-3.208 1.695-4.776 2.596-3.005-2.916-10.568-2.531-13.597-4.363-2.901-1.76-6.226 3.424-3.1 5.317 1.583.958 7.375 1.752 10.395 2.692a97.725 97.725 0 0 1-4.473 2.426c-.567.285-1.131.565-1.696.846-.383-.477-.958-.821-1.545-.91-3.469-.542-6.788-1.433-10.076-2.639-3.192-1.167-6.52 4.065-3.1 5.318a64.576 64.576 0 0 0 7.198 2.175c-1.942 1.11-3.849 2.281-5.653 3.663-2.955 2.267-.606 7.146 2.633 4.664 1.543-1.184 3.167-2.209 4.822-3.185-.475 2.289-1.081 4.577-1.169 6.856-.152 3.938 5.674 2.735 5.806-.663.125-3.237 1.022-6.324 1.434-9.475 1.463-.731 2.933-1.456 4.405-2.199 1.132-.568 2.233-1.19 3.33-1.816-.349 3.239-1.437 6.675-1.986 9.549-.753 3.934 4.876 4.318 5.546.813.857-4.487 2.05-9.102 2.142-13.703 2.125-1.254 4.267-2.478 6.524-3.513.555.427 1.088.839 1.5 1.249 2.244 2.244 4.279 4.115 6.755 4.56.015 1.154.049 2.309.073 3.462-.489.196-.938.487-1.258.844-2.913 3.26-5.531 8.063-9.67 9.934-3.229 1.463-2.513 7.064 1.213 5.382 4.243-1.919 7.057-5.361 9.904-8.813.076 2.38.153 4.76.227 7.141-3.54 1.936-6.318 6.741-8.759 9.047-2.88 2.729 1.065 6.282 3.916 3.59 1.461-1.383 2.693-2.984 3.997-4.508.324-.377.675-.728 1.014-1.088.036 1.805.091 3.614.1 5.422.021 3.938 5.824 2.747 5.806-.663-.008-1.576-.043-3.149-.075-4.726 1.958 1.399 3.797 3.137 5.257 4.743 2.336 2.562 6.643-1.954 4.298-4.527-2.313-2.539-6.072-6.099-9.742-7.506-.016-.546-.028-1.09-.048-1.636 1.617 1.427 3.35 2.718 5.305 3.75 3.017 1.589 6.342-3.608 3.1-5.316-3.405-1.795-6.081-4.622-8.688-7.454-.08-2.78-.146-5.564-.172-8.347 2.975-1.361 6.177-3.223 8.459-5.548a1642.78 1642.78 0 0 0 5.848 4.081c-.85 5.681 1.789 13.867 4.58 18.277 1.943 3.073 6.992-.553 5.184-3.41-1.863-2.943-3.077-6.915-3.621-10.686a191.472 191.472 0 0 0 6.772 4.271c.864 3.26.572 6.62.539 9.998-.036 3.941 5.773 2.746 5.805-.662.019-1.892.102-3.809.063-5.707 2.384 1.262 4.799 2.47 7.293 3.54 3.133 1.347 6.461-3.873 3.098-5.315zm-38.676-19.834c-.221 2.795-6.039 5.495-8.352 6.394-2.131.832-4.699-2.663-6.439-4.403-2.792-2.787-2.166-6.973-1.715-10.777 1.625-1.782 5.129-5.798 7.715-5.979.393.236.859.354 1.348.351 2.808 1.444 4.687 3.829 7.448 5.236.294 3.034.232 6.152-.005 9.178z"/><path fill="#F9F5ED" d="M109.116 122.44s4.352-65.974 14.649-66.805c10.298-.832 24.158 56.272 24.158 56.272l-38.807 10.533z"/><path fill="#99918A" d="M117.104 118.355s5.829-48.861 8.089-49.139c2.26-.277 14.415 41.028 14.415 41.028l-22.504 8.111z"/><path fill="#F9F5ED" d="M228.884 122.44s-4.352-65.974-14.649-66.805c-10.299-.832-24.158 56.272-24.158 56.272l38.807 10.533z"/><path fill="#99918A" d="M220.896 118.355s-5.83-48.861-8.09-49.139c-2.26-.277-14.414 41.028-14.414 41.028l22.504 8.111z"/><path fill="none" stroke="#000" stroke-width="2" stroke-miterlimit="10" d="M109.116 122.44s4.352-65.974 14.649-66.805c10.298-.832 24.158 56.272 24.158 56.272l-38.807 10.533zm119.768 0s-4.352-65.974-14.649-66.805c-10.299-.832-24.158 56.272-24.158 56.272l38.807 10.533z"/><path fill="#C6C1BA" d="M153.573 318.605v-21.252h-39.745a144.531 144.531 0 0 0-10.145-2.041c1.419 5.682 2.974 11.474 4.56 17.371 3.287 12.215 6.684 24.848 8.948 37.184 2.079 11.336 3.749 23.786 5.364 35.827 2.145 15.996 3.957 28.841 6.108 38.181h23.773c1.105-6.782 1.928-15.791 2.964-27.15.176-1.936.359-3.943.552-6.027 2.726-29.529 3.224-61.625 3.315-72.092h-5.694v-.001zm70.598-21.251h-39.744v21.252h-5.694c.09 10.467.588 42.563 3.313 72.092.192 2.079.375 4.083.552 6.015 1.036 11.366 1.858 20.379 2.967 27.164h23.771c2.151-9.34 3.965-22.186 6.108-38.182 1.615-12.04 3.285-24.491 5.365-35.826 2.262-12.336 5.66-24.968 8.945-37.185 1.588-5.897 3.145-11.688 4.563-17.369a144.72 144.72 0 0 0-10.146 2.039"/><g opacity=".07"><defs><path id="c" d="M164.503 102.097h84.88v338.375h-84.88z"/></defs><clipPath id="d"><use xlink:href="#c" overflow="visible"/></clipPath><path clip-path="url(#d)" d="M249.38 150.145s-6.282-4.805-8.87-10.35c-2.588-5.543-13.396-37.699-70.51-37.699-1.885 0-3.715.038-5.5.106 52.313 1.99 62.508 32.233 65.01 37.593 2.588 5.545 8.87 10.35 8.87 10.35-3.144 1.108-11.088-.924-11.088-.924.37 5.543 7.763 13.12 7.763 13.12s-6.334 4.685-4.806 10.904c5.067 20.608 3.511 47.862 3.142 57.288-.369 9.424 2.588 23.469 2.588 23.469-4.806-2.588-6.099-5.359-6.099-5.359.185 5.914 3.142 16.262 3.142 16.262-3.142-2.401-4.842-3.67-4.842-3.67-1.533 26.863-13.918 58.521-19.552 89.232-6.003 32.72-8.642 74.927-15.896 86.771 1.69 2.406 3.904 3.418 6.955 3.209 10.516-.721 12.938-51.809 19.939-89.979 5.635-30.711 18.018-62.369 19.553-89.232 0 0 1.699 1.269 4.84 3.67 0 0-2.957-10.348-3.141-16.262 0 0 1.293 2.771 6.098 5.359 0 0-2.957-14.045-2.586-23.469.368-9.426 1.926-36.68-3.143-57.288-1.529-6.22 4.805-10.904 4.805-10.904s-7.392-7.577-7.762-13.12c.002-.001 7.946 2.03 11.09.923"/></g><g opacity=".1"><defs><path id="e" d="M89.622 100.646h158.761v338.376H89.622z"/></defs><defs><path id="g" d="M89.622 100.646h158.761v338.376H89.622z"/></defs><defs><path id="i" d="M89.622 100.646h158.761v338.376H89.622z"/></defs><clipPath id="f"><use xlink:href="#e" overflow="visible"/></clipPath><clipPath id="h" clip-path="url(#f)"><use xlink:href="#g" overflow="visible"/></clipPath><clipPath id="j" clip-path="url(#h)"><use xlink:href="#i" overflow="visible"/></clipPath><path clip-path="url(#j)" fill="#A5A5A5" d="M247.297 147.804c.023.36.083.729.164 1.103a5.31 5.31 0 0 0 .919-.213s-.42-.323-1.083-.89m-146.594 0c1.911-1.637 5.866-5.342 7.787-9.458 2.51-5.379 12.761-35.798 65.51-37.613a145.251 145.251 0 0 0-5-.086c-57.112 0-67.923 32.154-70.51 37.699-2.587 5.543-8.87 10.348-8.87 10.348 3.141 1.109 11.087-.924 11.087-.924 0 .012-.004.023-.004.034"/><path clip-path="url(#j)" fill="#F9F5ED" d="M129.372 349.018c-5.634-30.711-18.018-62.369-19.553-89.231 0 0-1.699 1.269-4.841 3.67 0 0 2.957-10.351 3.142-16.263 0 0-1.294 2.771-6.099 5.358 0 0 2.957-14.046 2.588-23.47-.37-9.424-1.927-36.68 3.142-57.288 1.529-6.219-4.806-10.903-4.806-10.903s7.393-7.576 7.763-13.121c0 0-6.628 1.691-10.168 1.137-1.161 5.385-7.595 11.984-7.595 11.984s6.335 4.685 4.806 10.903c-5.068 20.608-3.512 47.864-3.142 57.288.369 9.424-2.588 23.47-2.588 23.47 4.805-2.587 6.099-5.358 6.099-5.358-.185 5.912-3.142 16.263-3.142 16.263 3.142-2.401 4.841-3.67 4.841-3.67 1.535 26.862 13.919 58.521 19.553 89.231 7.002 38.17 9.425 89.259 19.938 89.979 2.737.188 4.797-.608 6.412-2.507-7.602-10.785-10.223-54.074-16.35-87.472"/></g><path fill="#F9F5ED" d="M239.17 405.925s17.26-17.564 28.689-40.333c17.945-35.74 26.271-81.266-34.937-70.094 3.114-12.383 5.62-24.352 6.257-35.494 0 0 1.698 1.27 4.84 3.671 0 0-2.957-10.349-3.142-16.263 0 0 1.294 2.773 6.099 5.359 0 0-2.957-14.045-2.586-23.47.368-9.426 1.926-36.68-3.143-57.288-1.53-6.22 4.805-10.902 4.805-10.902s-7.392-7.579-7.762-13.123c0 0 7.945 2.034 11.088.924 0 0-6.283-4.804-8.87-10.348-2.588-5.544-13.399-37.7-70.51-37.7-57.112 0-67.923 32.156-70.51 37.7-2.587 5.544-8.87 10.348-8.87 10.348 3.141 1.11 11.088-.924 11.088-.924-.37 5.544-7.762 13.123-7.762 13.123s6.334 4.683 4.805 10.902c-5.068 20.608-3.512 47.862-3.143 57.288.37 9.425-2.587 23.47-2.587 23.47 4.806-2.586 6.099-5.359 6.099-5.359-.185 5.914-3.142 16.263-3.142 16.263 3.142-2.401 4.841-3.671 4.841-3.671.637 11.143 3.143 23.111 6.256 35.494-61.208-11.172-52.881 34.354-34.936 70.094 11.432 22.769 28.69 40.333 28.69 40.333-8.732-3.327-26.411-1.071-29.006 8.954-2.401 9.279 14.609 8.766 14.609 8.766h45.497c2.195 9.318 4.824 15.328 8.38 15.57 6.24.428 8.985-4.202 10.882-15.57h37.618c1.896 11.368 4.644 15.998 10.883 15.57 3.557-.242 6.186-6.252 8.381-15.57h45.496s17.012.515 14.608-8.766c-2.594-10.025-20.275-12.281-29.005-8.954"/><defs><path id="k" d="M169.011 96.321c-11.531.021-22.491 2.059-32.423 5.697a89.19 89.19 0 0 0-4.934 1.983 85.703 85.703 0 0 0-8.263 4.118c-7.792 4.445-14.604 9.999-20.136 16.378a66.533 66.533 0 0 0-8.238 11.851 61.741 61.741 0 0 0-3.179 6.813c-2.655 6.747-4.107 13.949-4.094 21.438.013 6.687 2.871 16.719 8.034 27.641.085.047.16.096.245.143l.018-.08a26.641 26.641 0 0 0 2.481-1.234c.267-.147.515-.323.776-.481.525-.317 1.056-.633 1.563-.983.293-.203.571-.433.858-.644.454-.34.914-.672 1.352-1.032.287-.234.558-.492.837-.736.422-.371.851-.734 1.261-1.127.269-.258.525-.529.79-.797.402-.404.809-.806 1.199-1.229.252-.271.494-.557.741-.834a49.99 49.99 0 0 0 1.162-1.334c.226-.27.445-.551.669-.826.393-.484.785-.971 1.167-1.47.188-.244.372-.496.558-.744.41-.549.823-1.099 1.226-1.66.139-.194.276-.394.415-.588.456-.646.909-1.291 1.354-1.944.045-.064.088-.13.133-.193 3.057-4.494 5.922-9.146 8.945-13.296.053-.075.108-.147.162-.222a75.911 75.911 0 0 1 1.693-2.222 57.054 57.054 0 0 1 1.729-2.074c.447-.51.901-1.004 1.36-1.48.14-.145.282-.289.423-.432a30.478 30.478 0 0 1 1.851-1.727c.463-.398.932-.781 1.409-1.141.172-.129.347-.254.521-.378.478-.343.965-.669 1.463-.971.185-.112.375-.216.563-.323a19.978 19.978 0 0 1 1.525-.787c.2-.091.406-.172.61-.258a18.377 18.377 0 0 1 1.603-.592c.212-.067.432-.12.649-.178a17.707 17.707 0 0 1 1.693-.385c.228-.039.46-.062.69-.09a17.85 17.85 0 0 1 1.801-.163c.237-.008.483.003.725.004.63.001 1.267.016 1.927.079.244.024.5.07.749.102.678.086 1.36.187 2.07.341.252.055.515.135.77.199.73.18 1.468.374 2.234.63.25.083.515.193.769.284.795.286 1.598.585 2.432.952.24.104.493.238.734.351.874.403 1.757.823 2.675 1.318.214.115.442.258.657.379a60.798 60.798 0 0 1 2.974 1.747c.15.096.312.212.464.311a79.56 79.56 0 0 1 3.401 2.297h.001c-1.946-20.39-2.565-40.313 3.794-40.4v.014c6.398-.012 5.85 19.957 3.975 40.394a77.71 77.71 0 0 1 3.394-2.311c.151-.099.313-.215.463-.312a61.607 61.607 0 0 1 2.967-1.758c.217-.121.443-.265.656-.381a46.908 46.908 0 0 1 2.67-1.329c.242-.112.494-.247.731-.354a37.706 37.706 0 0 1 2.429-.959c.256-.093.52-.204.769-.289a30.045 30.045 0 0 1 2.231-.638c.256-.063.519-.144.77-.2a24.33 24.33 0 0 1 2.07-.35c.248-.033.504-.08.748-.104a21.14 21.14 0 0 1 1.927-.086c.241-.001.485-.014.724-.007.615.02 1.213.08 1.803.156.229.029.463.05.689.088a17.53 17.53 0 0 1 1.695.379c.218.057.438.11.65.176.547.168 1.079.369 1.604.586.205.085.41.165.611.256a20.36 20.36 0 0 1 1.529.781c.188.106.378.209.563.322.5.3.986.624 1.468.965.175.124.349.247.521.376.479.359.951.739 1.414 1.137.16.137.32.274.479.416a34.311 34.311 0 0 1 1.804 1.734 44.124 44.124 0 0 1 1.725 1.89 58.79 58.79 0 0 1 1.377 1.653 73.154 73.154 0 0 1 1.701 2.215l.164.221c3.038 4.142 5.92 8.783 8.99 13.267.046.063.09.129.134.192.448.651.903 1.297 1.361 1.938.142.193.278.394.417.586.404.56.818 1.107 1.232 1.658.188.246.371.496.559.74.385.497.779.98 1.175 1.467.224.274.442.553.671.823.381.455.774.89 1.166 1.328.249.276.492.562.744.832.393.422.801.821 1.205 1.226.266.265.523.539.793.793.41.391.84.754 1.264 1.123.279.241.553.498.84.733.439.358.9.688 1.355 1.024.289.213.566.439.859.644.509.349 1.039.66 1.568.978.262.157.51.332.775.479.807.446 1.633.858 2.486 1.226l.017.08c.086-.046.161-.099.246-.144 5.122-10.94 7.946-20.983 7.935-27.669-.015-7.49-1.492-14.688-4.171-21.423a61.423 61.423 0 0 0-3.204-6.803 66.527 66.527 0 0 0-8.279-11.821c-5.557-6.36-12.389-11.889-20.195-16.305a85.76 85.76 0 0 0-8.277-4.089 88.242 88.242 0 0 0-4.939-1.963c-9.944-3.603-20.912-5.602-32.444-5.581-.2 0-.4.011-.602.013v-.02c-.205-.001-.408-.012-.613-.012-.012-.002-.019-.002-.027-.002"/></defs><clipPath id="l"><use xlink:href="#k" overflow="visible"/></clipPath><path clip-path="url(#l)" fill="#3C3729" d="M157.825 315.096s0 39.361-3.326 75.397-3.922 49.672-14.435 48.952c-10.514-.721-12.936-51.809-19.938-89.979-5.635-30.712-18.019-62.369-19.553-89.232 0 0-1.699 1.269-4.842 3.672 0 0 2.957-10.35 3.143-16.264 0 0-1.295 2.771-6.099 5.358 0 0 2.956-14.045 2.587-23.472-.369-9.424-1.927-36.678 3.143-57.287 1.529-6.217-4.805-10.902-4.805-10.902s7.392-7.576 7.761-13.12c0 0-7.946 2.032-11.088.924 0 0 6.283-4.805 8.87-10.349 2.588-5.544 13.398-37.699 70.511-37.699 57.111 0 67.922 32.155 70.51 37.699 2.586 5.544 8.87 10.349 8.87 10.349-3.143 1.108-11.088-.924-11.088-.924.369 5.544 7.761 13.12 7.761 13.12s-6.334 4.686-4.804 10.902c5.067 20.609 3.511 47.863 3.142 57.287-.369 9.427 2.586 23.472 2.586 23.472-4.803-2.588-6.098-5.358-6.098-5.358.186 5.914 3.143 16.264 3.143 16.264-3.143-2.403-4.842-3.672-4.842-3.672-1.535 26.863-13.918 58.521-19.553 89.232-7.002 38.17-9.425 89.258-19.938 89.979-10.514.72-11.107-12.916-14.436-48.952-3.326-36.036-3.326-75.397-3.326-75.397"/><path fill="#3C3729" d="M221.854 337.645c.037-4.349.408-7.734-1.154-9.063-5.656-4.813-21.479-11.174-25.69-20.621-3.968-8.896-3.125-17.522 2.366-24.274 4.413-5.431 15.703-12.668 40.479-9.039-4 17-4 23-10 43-1.93 6.422-3.837 14.141-6.001 19.997m-104.001 0c-.091-4.348-1.922-7.615-.376-8.965 5.597-4.883 21.34-11.437 25.436-20.935 3.857-8.945 2.909-17.56-2.663-24.244-4.481-5.375-12.668-12.79-37.396-8.856 2 16 6 32 10 43 2.338 6.437 2.762 14.169 4.999 20"/><defs><path id="m" d="M99.489 139.565c-2.587 5.544-8.87 10.348-8.87 10.348 3.143 1.11 11.089-.923 11.089-.923-.37 5.543-7.762 13.121-7.762 13.121s6.334 4.683 4.805 10.903c-5.068 20.608-3.512 47.862-3.142 57.288.369 9.425-2.588 23.47-2.588 23.47 4.805-2.588 6.099-5.359 6.099-5.359-.185 5.914-3.142 16.262-3.142 16.262 3.142-2.4 4.841-3.67 4.841-3.67.637 11.143 3.143 23.111 6.256 35.494-61.208-11.173-52.882 34.354-34.936 70.095 11.431 22.768 28.689 40.332 28.689 40.332-8.731-3.327-26.41-1.071-29.006 8.954-2.4 9.278 14.61 8.766 14.61 8.766h45.497c2.195 9.318 4.824 15.328 8.381 15.57 6.239.428 8.984-4.202 10.882-15.57h37.615c1.896 11.368 4.643 15.998 10.881 15.57 3.557-.242 6.187-6.252 8.381-15.57h45.496s17.012.514 14.61-8.766c-2.595-10.025-20.274-12.281-29.005-8.954 0 0 17.258-17.564 28.689-40.332 17.945-35.741 26.271-81.268-34.937-70.095 3.113-12.383 5.619-24.352 6.255-35.494 0 0 1.7 1.27 4.842 3.67 0 0-2.957-10.348-3.142-16.262 0 0 1.293 2.771 6.099 5.359 0 0-2.957-14.045-2.588-23.47.369-9.426 1.926-36.68-3.142-57.288-1.53-6.221 4.805-10.903 4.805-10.903s-7.393-7.577-7.762-13.121c0 0 7.946 2.033 11.088.923 0 0-6.282-4.804-8.869-10.348-2.588-5.544-13.399-37.699-70.512-37.699s-67.919 32.155-70.507 37.699"/></defs><clipPath id="n"><use xlink:href="#m" overflow="visible"/></clipPath><g opacity=".05" clip-path="url(#n)"><defs><path id="o" d="M28.353 81.083h263v397.808h-263z"/></defs><clipPath id="p"><use xlink:href="#o" overflow="visible"/></clipPath><path clip-path="url(#p)" d="M148.853 91.645s-73 39-36 211c0 0-97.5-21.5-5 107 0 0-48.645 4.854-25 22 65.5 47.5 180.5-2.5 180.5-2.5s14-19-32-19c0 0 91-122-6-106 0 0 40-171-30-207-16.326-8.396 48-6 48-6l48 289-13 73s-222 39-226 21-24-96-24-96 22-176 21-185 19-111 21-112 78.5 10.5 78.5 10.5"/></g><path clip-path="url(#n)" fill="none" stroke="#000" stroke-miterlimit="10" d="M208.068 424.145h45.496s17.013.515 14.609-8.766c-2.594-10.025-20.273-12.281-29.005-8.954 0 0 17.259-17.564 28.688-40.333 17.947-35.74 26.272-81.266-34.936-70.094 3.114-12.383 5.62-24.352 6.256-35.494 0 0 1.7 1.27 4.842 3.67 0 0-2.957-10.348-3.142-16.262 0 0 1.293 2.771 6.099 5.359 0 0-2.957-14.045-2.588-23.47.369-9.426 1.926-36.68-3.142-57.288-1.53-6.221 4.805-10.903 4.805-10.903s-7.392-7.577-7.762-13.121c0 0 7.944 2.033 11.088.924 0 0-6.283-4.805-8.87-10.349S227.109 101.367 170 101.367c-57.112 0-67.923 32.155-70.511 37.699-2.586 5.544-8.869 10.349-8.869 10.349 3.141 1.109 11.088-.924 11.088-.924-.37 5.544-7.762 13.121-7.762 13.121s6.334 4.683 4.805 10.902c-5.068 20.609-3.512 47.863-3.143 57.289.37 9.424-2.587 23.469-2.587 23.469 4.806-2.586 6.099-5.358 6.099-5.358-.185 5.914-3.142 16.262-3.142 16.262 3.142-2.401 4.841-3.67 4.841-3.67.637 11.144 3.143 23.111 6.256 35.494-61.208-11.172-52.881 34.354-34.936 70.094 11.432 22.769 28.69 40.333 28.69 40.333-8.732-3.327-26.411-1.07-29.006 8.954-2.401 9.279 14.609 8.767 14.609 8.767h45.497m19.263-.003h37.615"/><path clip-path="url(#n)" fill="none" stroke="#000" stroke-miterlimit="10" d="M233.354 296.145c-4.396 17.475-10.576 34.348-13.873 52.323-7.002 38.17-9.424 89.258-19.938 89.979s-11.108-12.916-14.435-48.952c-3.328-36.035-3.328-75.398-3.328-75.398m-23.855-.001s0 39.361-3.327 75.397c-3.326 36.036-3.921 49.672-14.435 48.952-10.513-.721-12.936-51.809-19.938-89.979-3.245-17.688-8.729-35.688-13.09-52.906"/><path clip-path="url(#n)" fill="#FFF" d="M129.483 125.645c-12.72 0-23.03 10.311-23.03 23.029 0 12.72 10.311 23.031 23.03 23.031 12.719 0 23.029-10.311 23.029-23.031.001-12.718-10.31-23.029-23.029-23.029"/><circle clip-path="url(#n)" fill="none" stroke="#000" stroke-width="1.574" stroke-linecap="round" stroke-linejoin="round" cx="129.483" cy="148.674" r="23.03"/><path clip-path="url(#n)" fill="#F7DF5A" d="M151.853 151.145c0 9.665-7.835 17.5-17.5 17.5s-17.5-7.835-17.5-17.5 7.835-17.5 17.5-17.5 17.5 7.834 17.5 17.5"/><path clip-path="url(#n)" fill="#31323C" d="M150.075 151.526c0 8.499-6.891 15.391-15.391 15.391-8.499 0-15.389-6.892-15.389-15.391s6.89-15.39 15.389-15.39c8.501 0 15.391 6.891 15.391 15.39"/><path clip-path="url(#n)" fill="#FFF" d="M144.342 135.399a6.245 6.245 0 1 1-12.49 0 6.245 6.245 0 0 1 12.49 0m66.637-9.754c-12.72 0-23.03 10.311-23.03 23.029 0 12.72 10.312 23.031 23.03 23.031 12.717 0 23.029-10.311 23.029-23.031 0-12.718-10.313-23.029-23.029-23.029"/><circle clip-path="url(#n)" fill="none" stroke="#000" stroke-width="1.574" stroke-linecap="round" stroke-linejoin="round" cx="210.979" cy="148.674" r="23.03"/><path clip-path="url(#n)" fill="#F7DF5A" d="M223.854 151.145c0 9.665-7.836 17.5-17.5 17.5-9.666 0-17.5-7.835-17.5-17.5s7.834-17.5 17.5-17.5c9.664 0 17.5 7.834 17.5 17.5"/><path clip-path="url(#n)" fill="#31323C" d="M222.075 151.526c0 8.499-6.892 15.391-15.392 15.391-8.498 0-15.389-6.892-15.389-15.391s6.891-15.39 15.389-15.39c8.503 0 15.392 6.891 15.392 15.39"/><path clip-path="url(#n)" fill="#FFF" d="M216.342 135.399a6.245 6.245 0 1 1-12.49 0 6.245 6.245 0 0 1 12.49 0"/><path clip-path="url(#n)" fill="#3C3729" d="M184.477 168.592c.006 3.87-5.367 13.396-13.938 13.413-8.569.017-13.978-9.63-13.984-13.361-.012-5.955 6.236-7.4 13.946-7.414 7.71-.015 13.963 1.408 13.976 7.362"/><ellipse clip-path="url(#n)" fill="#D55F5A" stroke="#020202" stroke-miterlimit="10" cx="170" cy="205" rx="6.615" ry="9"/></g><path fill="#A1C31F" d="M196.777 348.814c-7.715 0-12.886-6.77-17.216-12.262-.732-.932-1.002-2.818-2.286-2.48l-5.139 1.354-12.354 3.254c-3.324.877-6.244-5.176-3.38-7.261 2.44-1.776 7.706-1.689 10.588-2.209 1.689-.306 3.372-.63 5.046-1.012 3.079-.702 2.968-.587 2.187-3.761-1.498-6.099-2.358-13.043-.49-19.268.697-2.32 2.572-6.271 5.068-7.086 4.368-1.424 6.038 2.932 6.054 6.297.03 7.314-2.582 14.58-4.057 21.694 2.8-.136 7.774-.399 7.346-3.548-.508-3.73-.654-7.504-.522-11.264.201-5.754 1.408-19.986 9.938-19.986 10.549 0-.316 25.379-2.159 31.203 2.246-.786 7.854-1.555 9.381-3.282.298-8.247.458-16.349 3.448-24.167 1.271-3.322 3.021-6.908 6.712-7.949 2.883-.814 5.535 1.342 5.886 4.191.478 3.887-1.567 8.039-2.787 11.602-1.604 4.686-3.464 9.033-5.547 13.509 3.36-.979 6.533-2.446 9.773-3.746.628-3.753 1.228-7.511 1.864-11.265 1.072-6.313 1.93-13.439 6.372-18.438 1.921-2.154 5.625-3.322 7.984-1.105 2.61 2.451 1.941 5.971.991 8.99-2.105 6.695-5.65 12.166-8.764 18.35 5.391-1.881 9.849-3.387 10.897-9.141 1.218-6.682 1.729-13.621 5.198-19.592 2.891-4.973 11.179-7.459 10.904.82-.195 5.902-4.818 13.02-7.791 17.834 2.437-1.631 5.084-3.205 7.035-5.438 2.5-2.861 3.71-6.607 5.755-9.775 3.384-5.244 11.718-15.971 19.029-11.719 7.708 4.484-2.626 14.281-6.301 17.428-2.938 2.516-6.067 4.938-9.548 6.66-3.986 1.973-8.024 2.48-11.697 5.188 6.318.447 16.035-3.738 21.52.9 2.818 2.385 1.635 6.053-1.043 7.93-3.207 2.252-7.819 2.3-11.575 2.165a55.605 55.605 0 0 1-10.351-1.343c-1.363-.313-8.195-3.598-8.996-3.197l-8.864 4.445c6.994.241 14.908-.455 21.438 2.503 6.729 3.048 4.994 9.755-1.827 11.128-7.239 1.456-16.346-.459-22.534-4.38-1.771-1.122-4.204-3.836-6.262-4.342-1.863-1.341-6.967 2.067-8.928 2.911 6.735 1.078 13.661 1.566 19.519 5.508 8.173 5.5 2.299 12.057-5.767 11.103-8.198-.97-14.189-5.588-20.493-10.384-2.523-1.92-2.633-2.477-5.389-1.533l-5.362 1.836c7.282 2.483 14.342 5.043 20.363 9.951 2.141 1.744 2.341 5.285.105 6.987-3.004 2.291-6.877 1.639-10.173.396-6.209-2.342-12.255-6.711-16.358-11.972-1.784-2.288-1.459-2.535-4.045-1.726l-5.146 1.613c4.385 2.004 9.109 3.521 12.915 6.576 3.74 3.006 7.796 10.305-.165 10.305"/><path fill="#85A11A" d="M276.165 278.826s-.146.313-.443.811c-.278.508-.777 1.178-1.278 1.992-.259.4-.545.822-.855 1.256-.316.438-.651.9-.995 1.379a52.244 52.244 0 0 1-2.333 2.896c-.433.475-.861.953-1.307 1.402-.429.461-.906.885-1.36 1.291-.463.402-.893.797-1.361 1.125-.46.334-.901.637-1.315.908a8.667 8.667 0 0 1-1.186.664c-.359.189-.69.326-.957.443-.536.232-.858.332-.858.332s.165-.309.481-.795c.303-.502.804-1.115 1.334-1.918.273-.391.575-.807.903-1.23.337-.412.656-.898 1.022-1.354.727-.912 1.513-1.906 2.349-2.846.847-.957 1.719-1.879 2.622-2.701.452-.41.872-.799 1.333-1.15.451-.354.885-.672 1.291-.957.809-.574 1.55-.91 2.069-1.176.522-.253.844-.372.844-.372"/><path fill="none" d="M261.915 278.826h14.25v14.5h-14.25z"/><path fill="#85A11A" d="M248.915 284.076s.078.271.156.736c.036.232.089.516.113.832.043.318.07.68.037 1.086-.021.402-.056.842-.11 1.311-.055.471-.153.912-.259 1.393-.209.963-.516 1.914-.86 2.865-.173.461-.341.924-.536 1.371l-.55 1.297c-.173.42-.408.818-.555 1.201-.165.381-.335.742-.506 1.078-.184.336-.327.646-.449.928-.118.283-.253.531-.358.738-.215.416-.373.664-.373.664s-.104-.254-.222-.715c-.057-.23-.132-.514-.184-.842a4.93 4.93 0 0 1-.12-1.105c-.006-.4.001-.84.024-1.303.011-.473.113-.928.196-1.418.096-.484.188-.998.345-1.475.139-.486.309-.973.475-1.461.35-.941.771-1.869 1.168-2.697.195-.414.434-.824.615-1.186.188-.365.381-.711.572-1.033.198-.314.384-.627.529-.916.145-.285.302-.527.424-.729.251-.399.428-.62.428-.62"/><path fill="none" d="M244.138 284.076h5.099v15.5h-5.099z"/><path fill="#85A11A" d="M231.665 289.576s.054.313.09.84c.039.531.057 1.281.028 2.166-.065 1.771-.386 4.059-.949 6.283a33.507 33.507 0 0 1-.883 3.225c-.157.512-.37 1-.506 1.467-.153.467-.313.906-.471 1.313a21.172 21.172 0 0 1-.89 1.963c-.244.475-.42.744-.42.744s-.085-.301-.172-.822a19.752 19.752 0 0 1-.234-2.168 27.332 27.332 0 0 1-.033-1.445c-.011-.518.063-1.039.12-1.586.127-1.094.325-2.25.573-3.393.571-2.246 1.382-4.434 2.188-6.01a20.93 20.93 0 0 1 1.073-1.883c.288-.448.486-.694.486-.694"/><path fill="none" d="M227.225 289.576h4.573v18h-4.573z"/><path fill="#85A11A" d="M211.915 296.826s.045.313.064.844c.021.533.025 1.281-.04 2.166a30.022 30.022 0 0 1-.397 2.963 50.294 50.294 0 0 1-.717 3.26c-.131.545-.258 1.088-.412 1.619l-.419 1.559c-.139.506-.312.994-.424 1.462-.13.467-.267.91-.404 1.321-.281.822-.471 1.525-.674 2.021-.186.496-.327.786-.327.786s-.12-.287-.27-.8c-.072-.256-.168-.57-.242-.932-.08-.362-.188-.775-.22-1.223-.084-.896-.174-1.964-.063-3.079.051-.557.073-1.148.194-1.719.097-.576.226-1.156.35-1.738.156-.57.315-1.135.497-1.688.17-.557.377-1.08.583-1.588a24.56 24.56 0 0 1 1.282-2.707c.433-.771.825-1.412 1.132-1.848.302-.439.507-.679.507-.679"/><path fill="none" d="M207.319 296.826h4.674v18h-4.674z"/><path fill="#85A11A" d="M194.415 299.826s.082.355.165.971c.087.615.174 1.49.224 2.533.043 1.041.039 2.25.001 3.525a49.107 49.107 0 0 1-.312 3.981 47.805 47.805 0 0 1-.549 3.949l-.36 1.811a36.798 36.798 0 0 1-.354 1.621 28.614 28.614 0 0 1-.713 2.433c-.202.589-.353.926-.353.926s-.111-.346-.244-.951a27.673 27.673 0 0 1-.427-2.516 36.26 36.26 0 0 1-.162-1.684c-.051-.599-.04-1.223-.038-1.87.013-1.297.09-2.676.218-4.049.169-1.366.396-2.728.662-3.993.26-1.27.588-2.43.915-3.42.331-.99.652-1.809.903-2.377.248-.57.424-.89.424-.89"/><path fill="none" d="M191.292 299.826h3.543v21.75h-3.543z"/><path fill="#85A11A" d="M177.915 305.326s.156.283.369.787c.217.504.489 1.225.761 2.096.133.438.265.91.389 1.412.123.502.188 1.059.266 1.623.146 1.136.239 2.358.278 3.582a38.09 38.09 0 0 1-.272 3.551c-.077.564-.141 1.108-.265 1.621-.125.513-.258.994-.391 1.437a20.972 20.972 0 0 1-.765 2.11c-.214.502-.37.781-.37.781s-.104-.313-.223-.849a22.033 22.033 0 0 1-.375-2.187 27.218 27.218 0 0 1-.131-1.434l-.14-1.593a35.44 35.44 0 0 1-.069-3.438 35.099 35.099 0 0 1 .075-3.407l.141-1.593c.032-.516.077-1.006.129-1.459.11-.906.248-1.666.371-2.199.119-.532.222-.841.222-.841"/><path fill="none" d="M176.964 305.326h3.014v19h-3.014z"/><path fill="#85A11A" d="M249.165 305.326s.289-.119.793-.266a20.787 20.787 0 0 1 2.085-.482c1.723-.313 4.012-.469 6.293-.377 2.27.092 4.533.434 6.235.889.852.227 1.563.465 2.061.654s.783.332.783.332-.285.119-.785.266c-.5.15-1.215.328-2.074.486-1.72.314-4.019.467-6.312.371-2.281-.096-4.555-.439-6.254-.891a21.04 21.04 0 0 1-2.05-.654 9.05 9.05 0 0 1-.775-.328"/><path fill="none" d="M249.165 304.176h18.25v3.053h-18.25z"/><path fill="#85A11A" d="M230.415 315.076s.358.016.961.099c.3.044.668.089 1.075.174l.654.125.71.072c.488.055 1.004.123 1.536.21.523.098 1.143.124 1.736.218l1.859.261c.64.077 1.284.185 1.929.289 1.313.199 2.605.444 3.843.739 1.227.277 2.375.642 3.341 1.004.967.339 1.748.781 2.281 1.064.534.294.824.495.824.495s-.36.052-.965.085c-.612.051-1.438.022-2.455.065-2.001.013-4.661-.078-7.335-.491-.67-.125-1.342-.246-1.996-.395-.655-.125-1.301-.335-1.918-.531-.621-.21-1.203-.374-1.77-.643a34.162 34.162 0 0 1-1.547-.762c-.231-.128-.458-.238-.659-.364l-.532-.398c-.338-.242-.618-.483-.854-.675-.465-.388-.718-.641-.718-.641"/><path fill="none" d="M230.415 315.076h20.75v4.901h-20.75z"/><path fill="#85A11A" d="M212.665 322.576s.317.029.844.134a21.49 21.49 0 0 1 2.118.54c.426.134.882.288 1.356.466l1.478.511c1.01.37 2.049.816 3.069 1.308 1.052.434 2.082.916 3.031 1.425.479.243.923.537 1.364.753.439.221.853.444 1.232.661.758.441 1.387.856 1.823 1.175.438.313.684.528.684.528s-.31.039-.844.046a19.82 19.82 0 0 1-2.203-.097 27.097 27.097 0 0 1-1.457-.188c-.516-.079-1.025-.246-1.564-.398a36.475 36.475 0 0 1-3.3-1.171 35.566 35.566 0 0 1-3.078-1.697 15.165 15.165 0 0 1-2.44-1.813 21.564 21.564 0 0 1-1.561-1.53c-.362-.397-.552-.653-.552-.653"/><path fill="none" d="M212.665 322.576h17v7.549h-17z"/><path fill="#85A11A" d="M195.915 329.326s.326.059.863.212c.539.15 1.289.396 2.158.737.867.348 1.85.802 2.872 1.285a37.888 37.888 0 0 1 3.098 1.698 37.296 37.296 0 0 1 3.009 1.816c.473.303.904.662 1.345.925a24.072 24.072 0 0 1 2.996 2.212c.425.368.659.613.659.613s-.324.001-.878-.058a21.751 21.751 0 0 1-2.272-.368 32.43 32.43 0 0 1-1.491-.368c-.53-.137-1.036-.374-1.58-.593a39.994 39.994 0 0 1-3.296-1.589 39.085 39.085 0 0 1-3.009-2.05 20.852 20.852 0 0 1-2.398-2.077 23.106 23.106 0 0 1-1.537-1.688c-.355-.43-.539-.707-.539-.707"/><path fill="none" d="M195.915 329.326h17v9.5h-17z"/><path fill="#85A11A" d="M179.415 332.326s.271.032.715.14c.444.104 1.057.282 1.762.543.351.133.724.286 1.109.461.389.159.77.424 1.167.67a25.66 25.66 0 0 1 2.382 1.749c.737.625 1.43 1.28 2.049 1.946l.871.979c.276.301.531.597.762.881.457.574.819 1.098 1.063 1.49.245.388.37.642.37.642s-.266-.033-.704-.146a14.407 14.407 0 0 1-1.77-.592 11.654 11.654 0 0 1-2.282-1.196c-.771-.506-1.56-1.1-2.308-1.723a22.558 22.558 0 0 1-2.001-1.89c-.315-.317-.569-.668-.883-.961a20.658 20.658 0 0 1-.813-.888 15.625 15.625 0 0 1-1.114-1.478 7.006 7.006 0 0 1-.375-.627"/><path fill="none" d="M179.415 332.326h12.25v9.5h-12.25z"/><path fill="#A1C31F" d="M142.834 348.814c7.715 0 12.886-6.77 17.216-12.262.732-.932 1.002-2.818 2.286-2.48l5.139 1.354 12.354 3.254c3.323.877 6.244-5.176 3.38-7.261-2.44-1.776-7.706-1.689-10.588-2.209-1.689-.306-3.372-.63-5.046-1.012-3.079-.702-2.968-.587-2.187-3.761 1.498-6.099 2.358-13.043.49-19.268-.697-2.32-2.572-6.271-5.068-7.086-4.368-1.424-6.038 2.932-6.054 6.297-.03 7.314 2.582 14.58 4.057 21.694-2.8-.136-7.774-.399-7.346-3.548.508-3.73.654-7.504.522-11.264-.201-5.754-1.408-19.986-9.938-19.986-10.549 0 .316 25.379 2.159 31.203-2.246-.786-7.854-1.555-9.381-3.282-.298-8.247-.458-16.349-3.448-24.167-1.271-3.322-3.021-6.908-6.712-7.949-2.883-.814-5.535 1.342-5.886 4.191-.478 3.887 1.567 8.039 2.787 11.602 1.604 4.686 3.464 9.033 5.547 13.509-3.36-.979-6.533-2.446-9.773-3.746-.628-3.753-1.228-7.511-1.864-11.265-1.072-6.313-1.93-13.439-6.372-18.438-1.921-2.154-5.625-3.322-7.984-1.105-2.61 2.451-1.941 5.971-.991 8.99 2.105 6.695 5.65 12.166 8.764 18.35-5.391-1.881-9.849-3.387-10.897-9.141-1.218-6.682-1.729-13.621-5.198-19.592-2.891-4.973-11.179-7.459-10.904.82.195 5.902 4.818 13.02 7.791 17.834-2.437-1.631-5.084-3.205-7.035-5.438-2.5-2.861-3.71-6.607-5.755-9.775-3.384-5.244-11.718-15.971-19.029-11.719-7.708 4.484 2.626 14.281 6.301 17.428 2.938 2.516 6.067 4.938 9.548 6.66 3.986 1.973 8.024 2.48 11.697 5.188-6.318.447-16.035-3.738-21.52.9-2.818 2.385-1.635 6.053 1.043 7.93 3.207 2.252 7.819 2.3 11.575 2.165a55.605 55.605 0 0 0 10.351-1.343c1.363-.313 8.195-3.598 8.996-3.197l8.864 4.445c-6.994.241-14.908-.455-21.438 2.503-6.729 3.048-4.994 9.755 1.827 11.128 7.239 1.456 16.346-.459 22.534-4.38 1.771-1.122 4.204-3.836 6.262-4.342 1.863-1.341 6.967 2.067 8.928 2.911-6.735 1.078-13.661 1.566-19.519 5.508-8.173 5.5-2.299 12.057 5.767 11.103 8.198-.97 14.189-5.588 20.493-10.384 2.523-1.92 2.633-2.477 5.389-1.533l5.362 1.836c-7.282 2.483-14.342 5.043-20.363 9.951-2.141 1.744-2.341 5.285-.105 6.987 3.004 2.291 6.877 1.639 10.173.396 6.209-2.342 12.255-6.711 16.358-11.972 1.784-2.288 1.459-2.535 4.045-1.726l5.146 1.613c-4.385 2.004-9.109 3.521-12.915 6.576-3.739 3.006-7.796 10.305.165 10.305"/><path fill="#85A11A" d="M63.446 278.826s.146.313.443.811c.278.508.777 1.178 1.278 1.992.259.4.545.822.855 1.256.316.438.651.9.995 1.379a52.244 52.244 0 0 0 2.333 2.896c.433.475.861.953 1.307 1.402.429.461.906.885 1.36 1.291.463.402.893.797 1.361 1.125.46.334.901.637 1.315.908.404.279.817.486 1.186.664.359.189.69.326.957.443.536.232.858.332.858.332s-.165-.309-.481-.795c-.303-.502-.804-1.115-1.334-1.918a30.538 30.538 0 0 0-.903-1.23c-.337-.412-.656-.898-1.022-1.354-.727-.912-1.513-1.906-2.349-2.846-.847-.957-1.719-1.879-2.622-2.701-.452-.41-.872-.799-1.333-1.15a30.031 30.031 0 0 0-1.291-.957c-.809-.574-1.55-.91-2.069-1.176-.521-.253-.844-.372-.844-.372"/><path fill="none" d="M63.446 278.826h14.25v14.5h-14.25z"/><path fill="#85A11A" d="M90.696 284.076s-.078.271-.156.736c-.036.232-.089.516-.113.832-.043.318-.07.68-.037 1.086.021.402.056.842.11 1.311.055.471.153.912.259 1.393.209.963.516 1.914.86 2.865.173.461.341.924.536 1.371l.55 1.297c.173.42.408.818.555 1.201.165.381.335.742.506 1.078.184.336.327.646.449.928.118.283.253.531.358.738.215.416.373.664.373.664s.104-.254.222-.715c.057-.23.132-.514.184-.842a4.93 4.93 0 0 0 .12-1.105c.006-.4-.001-.84-.024-1.303-.011-.473-.113-.928-.196-1.418-.096-.484-.188-.998-.345-1.475-.139-.486-.309-.973-.475-1.461a32.708 32.708 0 0 0-1.168-2.697c-.195-.414-.434-.824-.615-1.186a19.81 19.81 0 0 0-.572-1.033 11.162 11.162 0 0 1-.529-.916c-.145-.285-.302-.527-.424-.729-.251-.399-.428-.62-.428-.62"/><path fill="none" d="M90.375 284.076h5.099v15.5h-5.099z"/><path fill="#85A11A" d="M107.946 289.576s-.054.313-.09.84a21.245 21.245 0 0 0-.028 2.166c.065 1.771.386 4.059.949 6.283.247 1.109.545 2.205.883 3.225.157.512.37 1 .506 1.467.153.467.313.906.471 1.313.323.813.641 1.488.89 1.963.244.475.42.744.42.744s.085-.301.172-.822c.091-.523.182-1.27.234-2.168.022-.447.035-.934.033-1.445.011-.518-.063-1.039-.12-1.586a35.522 35.522 0 0 0-.573-3.393c-.571-2.246-1.382-4.434-2.188-6.01a20.93 20.93 0 0 0-1.073-1.883c-.287-.448-.486-.694-.486-.694"/><path fill="none" d="M107.813 289.576h4.573v18h-4.573z"/><path fill="#85A11A" d="M127.696 296.826s-.045.313-.064.844c-.021.533-.025 1.281.04 2.166.068.883.206 1.908.397 2.963.205 1.063.43 2.168.717 3.26.131.545.258 1.088.412 1.619l.419 1.559c.139.506.312.994.424 1.462.13.467.267.91.404 1.321.281.822.471 1.525.674 2.021.186.496.327.786.327.786s.12-.287.27-.8c.072-.256.168-.57.242-.932.08-.362.188-.775.22-1.223.084-.896.174-1.964.063-3.079-.051-.557-.073-1.148-.194-1.719-.097-.576-.226-1.156-.35-1.738a34.706 34.706 0 0 0-.497-1.688c-.17-.557-.377-1.08-.583-1.588a24.56 24.56 0 0 0-1.282-2.707 22.849 22.849 0 0 0-1.132-1.848 9.015 9.015 0 0 0-.507-.679"/><path fill="none" d="M127.618 296.826h4.674v18h-4.674z"/><path fill="#85A11A" d="M145.196 299.826s-.082.355-.165.971c-.087.615-.174 1.49-.224 2.533a50.981 50.981 0 0 0-.001 3.525c.044 1.279.154 2.633.312 3.981.133 1.35.317 2.692.549 3.949l.36 1.811c.112.574.232 1.118.354 1.621.251 1.005.507 1.844.713 2.433.202.589.353.926.353.926s.111-.346.244-.951c.137-.605.294-1.473.427-2.516a36.26 36.26 0 0 0 .162-1.684c.051-.599.04-1.223.038-1.87a49.497 49.497 0 0 0-.218-4.049 48.674 48.674 0 0 0-.662-3.993c-.26-1.27-.588-2.43-.915-3.42a28.273 28.273 0 0 0-.903-2.377c-.248-.57-.424-.89-.424-.89"/><path fill="none" d="M144.776 299.826h3.543v21.75h-3.543z"/><path fill="#85A11A" d="M161.696 305.326s-.156.283-.369.787a22.212 22.212 0 0 0-.761 2.096c-.133.438-.265.91-.389 1.412-.123.502-.188 1.059-.266 1.623a37.924 37.924 0 0 0-.278 3.582 38.09 38.09 0 0 0 .272 3.551c.077.564.141 1.108.265 1.621.125.513.258.994.391 1.437.273.884.547 1.609.765 2.11.214.502.37.781.37.781s.104-.313.223-.849c.124-.536.264-1.292.375-2.187.053-.446.098-.928.131-1.434l.14-1.593c.079-1.103.1-2.271.069-3.438a35.099 35.099 0 0 0-.075-3.407l-.141-1.593a28.053 28.053 0 0 0-.129-1.459 21.82 21.82 0 0 0-.371-2.199c-.118-.532-.222-.841-.222-.841"/><path fill="none" d="M159.634 305.326h3.014v19h-3.014z"/><path fill="#85A11A" d="M90.446 305.326s-.289-.119-.793-.266a20.787 20.787 0 0 0-2.085-.482c-1.723-.313-4.012-.469-6.293-.377-2.27.092-4.533.434-6.235.889-.852.227-1.563.465-2.061.654s-.783.332-.783.332.285.119.785.266c.5.15 1.215.328 2.074.486 1.72.314 4.019.467 6.312.371 2.281-.096 4.555-.439 6.254-.891a21.04 21.04 0 0 0 2.05-.654c.494-.187.775-.328.775-.328"/><path fill="none" d="M72.196 304.176h18.25v3.053h-18.25z"/><path fill="#85A11A" d="M109.196 315.076s-.358.016-.961.099c-.3.044-.668.089-1.075.174l-.654.125-.71.072c-.488.055-1.004.123-1.536.21-.523.098-1.143.124-1.736.218l-1.859.261c-.64.077-1.284.185-1.929.289a47.093 47.093 0 0 0-3.843.739 25.887 25.887 0 0 0-3.341 1.004c-.967.339-1.748.781-2.281 1.064-.534.294-.824.495-.824.495s.36.052.965.085c.612.051 1.438.022 2.455.065 2.001.013 4.661-.078 7.335-.491.67-.125 1.342-.246 1.996-.395.655-.125 1.301-.335 1.918-.531.621-.21 1.203-.374 1.77-.643.561-.259 1.08-.517 1.547-.762.231-.128.458-.238.659-.364l.532-.398c.338-.242.618-.483.854-.675.465-.388.718-.641.718-.641"/><path fill="none" d="M88.446 315.076h20.75v4.901h-20.75z"/><path fill="#85A11A" d="M126.946 322.576s-.317.029-.844.134a21.49 21.49 0 0 0-2.118.54c-.426.134-.882.288-1.356.466l-1.478.511c-1.01.37-2.049.816-3.069 1.308a33.491 33.491 0 0 0-3.031 1.425c-.479.243-.923.537-1.364.753-.439.221-.853.444-1.232.661-.758.441-1.387.856-1.823 1.175-.438.313-.684.528-.684.528s.31.039.844.046a19.82 19.82 0 0 0 2.203-.097c.452-.046.941-.107 1.457-.188.516-.079 1.025-.246 1.564-.398a36.475 36.475 0 0 0 3.3-1.171 35.566 35.566 0 0 0 3.078-1.697 15.165 15.165 0 0 0 2.44-1.813c.667-.596 1.2-1.132 1.561-1.53.362-.397.552-.653.552-.653"/><path fill="none" d="M109.946 322.576h17v7.549h-17z"/><path fill="#85A11A" d="M143.696 329.326s-.326.059-.863.212c-.539.15-1.289.396-2.158.737-.867.348-1.85.802-2.872 1.285a37.888 37.888 0 0 0-3.098 1.698 37.296 37.296 0 0 0-3.009 1.816c-.473.303-.904.662-1.345.925a24.072 24.072 0 0 0-2.996 2.212c-.425.368-.659.613-.659.613s.324.001.878-.058c.555-.055 1.34-.171 2.272-.368a32.43 32.43 0 0 0 1.491-.368c.53-.137 1.036-.374 1.58-.593a39.994 39.994 0 0 0 3.296-1.589 39.085 39.085 0 0 0 3.009-2.05 20.852 20.852 0 0 0 2.398-2.077 23.106 23.106 0 0 0 1.537-1.688c.356-.43.539-.707.539-.707"/><path fill="none" d="M126.696 329.326h17v9.5h-17z"/><path fill="#85A11A" d="M160.196 332.326s-.271.032-.715.14c-.444.104-1.057.282-1.762.543-.351.133-.724.286-1.109.461-.389.159-.77.424-1.167.67a25.66 25.66 0 0 0-2.382 1.749c-.737.625-1.43 1.28-2.049 1.946l-.871.979c-.276.301-.531.597-.762.881a16.304 16.304 0 0 0-1.063 1.49c-.245.388-.37.642-.37.642s.266-.033.704-.146c.44-.111 1.054-.305 1.77-.592.717-.286 1.53-.677 2.282-1.196.771-.506 1.56-1.1 2.308-1.723a22.558 22.558 0 0 0 2.001-1.89c.315-.317.569-.668.883-.961.296-.304.567-.604.813-.888.485-.576.864-1.094 1.114-1.478.251-.381.375-.627.375-.627"/><path fill="none" d="M147.946 332.326h12.25v9.5h-12.25z"/></svg>