<?xml version="1.0" encoding="utf-8"?>
<!-- Generator: Adobe Illustrator 21.0.0, SVG Export Plug-In . SVG Version: 6.00 Build 0)  -->
<svg version="1.1" id="line" xmlns="http://www.w3.org/2000/svg" xmlns:xlink="http://www.w3.org/1999/xlink" x="0px" y="0px"
	 viewBox="0 0 488 488" style="enable-background:new 0 0 488 488;" xml:space="preserve">
<style type="text/css">
	.st0{fill:#F2F2F2;}
	.st1{fill:none;stroke:#9B9A9A;stroke-miterlimit:10;}
	.st2{fill:#9B9A9A;}
</style>
<g>
	<g>
		<path id="XMLID_86_" class="st1" d="M306.6,281.6c-4.4,17.5-10.6,34.4-13.9,52.3c-7,38.2-9.4,89.3-19.9,90
			c-10.5,0.7-11.1-12.9-14.4-49c-3.3-36.1-3.3-75.4-3.3-75.4"/>
		<path id="XMLID_85_" class="st1" d="M231.1,299.6c0,0,0,39.4-3.3,75.4s-3.9,49.7-14.4,49c-10.5-0.7-12.9-51.8-19.9-90
			c-3.2-17.7-8.7-35.7-13.1-52.9"/>
		<line class="st1" x1="224" y1="409.7" x2="262.1" y2="409.7"/>
		<path class="st1" d="M306.1,281.5c3.1-12.4,5.6-24.4,6.3-35.5c0,0,1.7,1.3,4.8,3.7c0,0-3-10.4-3.1-16.3c0,0,1.3,2.8,6.1,5.4
			c0,0-3-14.1-2.6-23.5c0.4-9.4,1.9-36.7-3.1-57.3c-1.5-6.2,4.8-10.9,4.8-10.9s-7.4-7.6-7.8-13.1c0,0,7.9,2,11.1,0.9
			c0,0-6.3-4.8-8.9-10.4c-1.2-2.5-3.9-10.2-11.7-18c0,0,0,0,0,0l-0.1-0.8c-0.9-11.5-5.3-63.9-14.5-64.6
			c-7.5-0.6-16.9,31.2-21.4,47.8c-6.6-1.3-14.2-2-22.8-2c-9.2,0-17.1,0.8-24.1,2.2c-4.5-16.3-14.6-48.6-22.2-48
			c-10,0.8-14.2,63.7-14.4,67.4c0,0-0.1,0.1-0.1,0.1c-6.3,7.1-8.7,13.7-9.8,16c-2.6,5.5-8.9,10.4-8.9,10.4
			c3.1,1.1,11.1-0.9,11.1-0.9c-0.4,5.5-7.8,13.1-7.8,13.1s6.3,4.7,4.8,10.9c-5.1,20.6-3.5,47.9-3.1,57.3c0.4,9.4-2.6,23.5-2.6,23.5
			c4.8-2.6,6.1-5.4,6.1-5.4c-0.2,5.9-3.1,16.3-3.1,16.3c3.1-2.4,4.8-3.7,4.8-3.7c0.6,11.1,3.1,23.1,6.3,35.5
			c-61.2-11.2-52.9,34.4-34.9,70.1c11.4,22.8,28.7,40.3,28.7,40.3c-8.7-3.3-26.4-1.1-29,9c-2.4,9.3,14.6,8.8,14.6,8.8h45.5"/>
		<path class="st1" d="M352.6,320.6c25.2,3.6,61.2,1.1,71.4-39.2c8.2-32.6-9.7-53.5-30.3-59.9c-19.8-6.2-42.2,1-46.5,23.9
			c0,0,20.3-7.8,30.6,2c4.8,4.6,7.5,13,5,27.9c-2.8,16.2-15.4,22.1-27.7,23.8c-0.5,0.1-1.1,0.1-1.6,0.2"/>
	</g>
	<g>
		<path class="st2" d="M230.2,196.3c0-4.7,1.3-8.4,4-11.1c2.7-2.7,6.3-4.1,10.9-4.1c4.1,0,7.3,1.1,9.9,3.4c2.5,2.2,3.8,5.2,3.8,8.8
			c0,3.7-2.5,7.5-7.4,11.6c-2.9,2.4-4.4,5.1-4.4,8.2l0,1.1h-5.2l0-0.6c0-3,0.3-5.2,0.9-6.5c0.6-1.4,1.9-2.9,3.9-4.8l2.1-1.9
			c2.8-2.5,4.2-5,4.2-7.5c0-2.1-0.8-3.8-2.3-5.2c-1.5-1.4-3.4-2-5.8-2c-6.1,0-9.1,3.5-9.1,10.5H230.2z M247.3,218.9v8h-5.9v-8H247.3
			z"/>
	</g>
</g>
<g>
	<g>
		<g>
			<path class="st1" d="M281,409.5h45.5c0,0,17,0.5,14.6-8.8c-2.6-10-20.3-12.3-29-9c0,0,17.3-17.6,28.7-40.3
				c17.9-35.7,26.3-81.3-34.9-70.1"/>
		</g>
	</g>
</g>
</svg>
