<?xml version="1.0" encoding="utf-8"?>
<!-- Generator: Adobe Illustrator 21.0.0, SVG Export Plug-In . SVG Version: 6.00 Build 0)  -->
<svg version="1.1" id="图层_2" xmlns="http://www.w3.org/2000/svg" xmlns:xlink="http://www.w3.org/1999/xlink" x="0px" y="0px"
	 viewBox="0 0 488 488" style="enable-background:new 0 0 488 488;" xml:space="preserve">
<style type="text/css">
	.st0{fill:#F5D1A7;}
	.st1{fill:none;stroke:#020100;stroke-miterlimit:10;}
	.st2{fill:#99918A;}
	.st3{fill:#E8C5AE;}
	.st4{fill:none;stroke:#000000;stroke-miterlimit:10;}
	.st5{opacity:5.000000e-02;clip-path:url(#SVGID_2_);}
	.st6{opacity:0.1;}
	.st7{fill:#A5A5A5;}
	.st8{fill-rule:evenodd;clip-rule:evenodd;fill:#654328;}
	.st9{fill-rule:evenodd;clip-rule:evenodd;fill:#FFFFFF;}
	.st10{fill-rule:evenodd;clip-rule:evenodd;fill:#36210D;}
	.st11{fill-rule:evenodd;clip-rule:evenodd;fill:#323233;}
	.st12{fill-rule:evenodd;clip-rule:evenodd;fill:#EF8867;}
	.st13{fill-rule:evenodd;clip-rule:evenodd;fill:#E95233;stroke:#000000;stroke-miterlimit:10;}
	.st14{fill-rule:evenodd;clip-rule:evenodd;fill:#E7E5E4;stroke:#000000;stroke-miterlimit:10;}
	.st15{fill-rule:evenodd;clip-rule:evenodd;fill:#009158;stroke:#000000;stroke-miterlimit:10;}
	.st16{fill-rule:evenodd;clip-rule:evenodd;fill:#E3A62D;}
	.st17{fill-rule:evenodd;clip-rule:evenodd;fill:#F8D92D;}
	.st18{clip-path:url(#SVGID_6_);}
	.st19{fill:#F7D0D7;}
	.st20{opacity:0.55;clip-path:url(#XMLID_14_);fill:#3C3729;}
	.st21{opacity:0.45;clip-path:url(#XMLID_15_);fill:#F9F5ED;}
	.st22{fill:#F9F5ED;}
	.st23{clip-path:url(#SVGID_8_);fill:#3C3729;}
	.st24{fill:#3C3729;}
	.st25{opacity:5.000000e-02;clip-path:url(#SVGID_10_);}
	.st26{fill:#FFFFFF;stroke:#000000;stroke-linecap:round;stroke-linejoin:round;}
	.st27{fill:#9B6730;}
	.st28{fill:#31323C;}
	.st29{fill:#FFFFFF;}
</style>
<g id="eye">
	<g>
		<defs>
			<path id="SVGID_1_" d="M-179.7,402.3c0,0,17.3-17.6,28.7-40.3c17.9-35.7,26.3-81.3-34.9-70.1c3.1-12.4,5.6-24.4,6.3-35.5
				c0,0,1.7,1.3,4.8,3.7c0,0-3-10.3-3.1-16.3c0,0,1.3,2.8,6.1,5.4c0,0-3-14-2.6-23.5s1.9-36.7-3.1-57.3c-1.5-6.2,4.8-10.9,4.8-10.9
				s-7.4-7.6-7.8-13.1c0,0,7.9,2,11.1,0.9c0,0-6.3-4.8-8.9-10.3c-2.6-5.5-13.4-37.7-70.5-37.7s-67.9,32.2-70.5,37.7
				s-8.9,10.3-8.9,10.3c3.1,1.1,11.1-0.9,11.1-0.9c-0.4,5.5-7.8,13.1-7.8,13.1s6.3,4.7,4.8,10.9c-5.1,20.6-3.5,47.9-3.1,57.3
				s-2.6,23.5-2.6,23.5c4.8-2.6,6.1-5.4,6.1-5.4c-0.2,5.9-3.1,16.3-3.1,16.3c3.1-2.4,4.8-3.7,4.8-3.7c0.6,11.1,3.1,23.1,6.3,35.5
				c-61.2-11.2-52.9,34.4-34.9,70.1c11.4,22.8,28.7,40.3,28.7,40.3c-8.7-3.3-26.4-1.1-29,9c-2.4,9.3,14.6,8.8,14.6,8.8h45.5
				c2.2,9.3,4.8,15.3,8.4,15.6c6.2,0.4,9-4.2,10.9-15.6h18.8h0h18.8c1.9,11.4,4.6,16,10.9,15.6c3.6-0.2,6.2-6.3,8.4-15.6h45.5
				c0,0,17,0.5,14.6-8.8C-153.3,401.2-171,399-179.7,402.3z"/>
		</defs>
		<clipPath id="SVGID_2_">
			<use xlink:href="#SVGID_1_"  style="overflow:visible;"/>
		</clipPath>
	</g>
	<g>
		<defs>
			<circle id="SVGID_5_" cx="244.5" cy="244.5" r="243.5"/>
		</defs>
		<clipPath id="SVGID_4_">
			<use xlink:href="#SVGID_5_"  style="overflow:visible;"/>
		</clipPath>
		<g style="clip-path:url(#SVGID_4_);">
			<rect x="-909.1" y="-525.6" class="st19" width="2970.7" height="2970.7"/>
			<g>
				<path id="XMLID_30_" class="st22" d="M200.4,130.6c0,0,26.5-401.6,89.2-406.7c62.7-5.1,147.1,342.6,147.1,342.6L200.4,130.6z"/>
				<g>
					<path class="st2" d="M249.1,105.8c0,0,35.5-297.4,49.2-299.1c13.8-1.7,87.7,249.8,87.7,249.8L249.1,105.8z"/>
				</g>
				<path class="st22" d="M992.2,1859.3c0,0,105.1-106.9,174.7-245.5c109.2-217.6,159.9-494.7-212.7-426.7
					c19-75.4,34.2-148.2,38.1-216.1c0,0,10.3,7.7,29.5,22.3c0,0-18-63-19.1-99c0,0,7.9,16.9,37.1,32.6c0,0-18-85.5-15.7-142.9
					c2.3-57.4,11.7-223.3-19.1-348.7c-9.3-37.9,29.2-66.4,29.2-66.4s-45-46.1-47.2-79.9c0,0,48.4,12.4,67.5,5.6c0,0-38.2-29.2-54-63
					C984.6,198.1,918.7,2.3,571.1,2.3S157.6,198.1,141.8,231.8s-54,63-54,63c19.1,6.8,67.5-5.6,67.5-5.6
					c-2.3,33.7-47.2,79.9-47.2,79.9s38.6,28.5,29.2,66.4c-30.9,125.5-21.4,291.4-19.1,348.7S102.5,927,102.5,927
					c29.2-15.8,37.1-32.6,37.1-32.6c-1.1,36-19.1,99-19.1,99c19.1-14.6,29.5-22.3,29.5-22.3c3.9,67.8,19.1,140.7,38.1,216.1
					c-372.6-68-321.9,209.1-212.7,426.7C44.9,1752.4,150,1859.3,150,1859.3c-53.2-20.3-160.8-6.5-176.6,54.5
					c-14.6,56.5,88.9,53.4,88.9,53.4h277c13.4,56.7,29.4,93.3,51,94.8c38,2.6,54.7-25.6,66.2-94.8h114.5h0h114.5
					c11.5,69.2,28.3,97.4,66.2,94.8c21.6-1.5,37.7-38.1,51-94.8h277c0,0,103.6,3.1,88.9-53.4
					C1152.9,1852.8,1045.3,1839.1,992.2,1859.3z"/>
				<g>
					<defs>
						<path id="SVGID_7_" d="M1043.4,257.2c-5.6-14.2-12.2-28-19.5-41.4c-13.9-25.5-30.8-49.6-50.4-72
							c-33.8-38.7-75.4-72.4-122.9-99.3c-16.1-9.1-33-17.4-50.4-24.9c-9.8-4.2-19.9-8.3-30.1-12c-60.5-21.9-127.3-34.1-197.5-34
							c-1.2,0-2.4,0.1-3.7,0.1l0-0.1c-1.3,0-2.6-0.1-3.9-0.1c-70.2,0.1-136.9,12.5-197.4,34.7c-10.2,3.7-20.2,7.8-30,12.1
							c-17.4,7.6-34.2,15.9-50.3,25.1c-47.4,27.1-88.9,60.9-122.6,99.7c-19.5,22.5-36.3,46.6-50.1,72.1
							c-7.3,13.5-13.8,27.3-19.4,41.5c-16.2,41.1-25,84.9-24.9,130.5c0.1,40.7,17.5,101.8,48.9,168.3c0.5,0.3,1,0.6,1.5,0.9l0.1-0.5
							c5.2-2.2,10.2-4.8,15.1-7.5c1.6-0.9,3.1-2,4.7-2.9c3.2-1.9,6.4-3.8,9.5-6c1.8-1.2,3.5-2.6,5.2-3.9c2.8-2.1,5.6-4.1,8.2-6.3
							c1.7-1.4,3.4-3,5.1-4.5c2.6-2.3,5.2-4.5,7.7-6.9c1.6-1.6,3.2-3.2,4.8-4.8c2.5-2.5,4.9-4.9,7.3-7.5c1.5-1.7,3-3.4,4.5-5.1
							c2.4-2.7,4.8-5.3,7.1-8.1c1.4-1.6,2.7-3.4,4.1-5c2.4-3,4.8-5.9,7.1-9c1.1-1.5,2.3-3,3.4-4.5c2.5-3.3,5-6.7,7.5-10.1
							c0.9-1.2,1.7-2.4,2.5-3.6c2.8-3.9,5.5-7.9,8.2-11.8c0.3-0.4,0.5-0.8,0.8-1.2c18.6-27.4,36-55.7,54.5-80.9
							c0.3-0.5,0.7-0.9,1-1.4c2.8-3.9,5.7-7.7,8.6-11.4c0.6-0.7,1.1-1.4,1.7-2.2c2.7-3.5,5.5-6.8,8.3-10.1c0.7-0.8,1.5-1.7,2.2-2.5
							c2.7-3.1,5.5-6.1,8.3-9c0.9-0.9,1.7-1.8,2.6-2.6c2.7-2.8,5.5-5.4,8.4-8c1-0.9,1.9-1.7,2.9-2.5c2.8-2.4,5.7-4.8,8.6-6.9
							c1-0.8,2.1-1.5,3.2-2.3c2.9-2.1,5.9-4.1,8.9-5.9c1.1-0.7,2.3-1.3,3.4-2c3-1.7,6.1-3.3,9.3-4.8c1.2-0.6,2.5-1.1,3.7-1.6
							c3.2-1.3,6.4-2.6,9.8-3.6c1.3-0.4,2.6-0.7,4-1.1c3.4-0.9,6.8-1.7,10.3-2.3c1.4-0.2,2.8-0.4,4.2-0.6c3.6-0.5,7.2-0.9,11-1
							c1.4,0,2.9,0,4.4,0c3.8,0,7.7,0.1,11.7,0.5c1.5,0.1,3,0.4,4.6,0.6c4.1,0.5,8.3,1.1,12.6,2.1c1.5,0.3,3.1,0.8,4.7,1.2
							c4.4,1.1,8.9,2.3,13.6,3.8c1.5,0.5,3.1,1.2,4.7,1.7c4.8,1.7,9.7,3.6,14.8,5.8c1.5,0.6,3,1.5,4.5,2.1c5.3,2.5,10.7,5,16.3,8
							c1.3,0.7,2.7,1.6,4,2.3c5.9,3.3,11.9,6.7,18.1,10.6c0.9,0.6,1.9,1.3,2.8,1.9c6.7,4.3,13.6,8.9,20.7,14l0,0
							C534,217.2,530.2,95.9,568.9,95.4l0,0.1c38.9-0.1,35.6,121.5,24.2,245.9l0,0c7.1-5.1,13.9-9.7,20.7-14.1
							c0.9-0.6,1.9-1.3,2.8-1.9c6.2-3.9,12.2-7.4,18.1-10.7c1.3-0.7,2.7-1.6,4-2.3c5.6-3,10.9-5.6,16.3-8.1c1.5-0.7,3-1.5,4.5-2.1
							c5.1-2.2,10-4.1,14.8-5.8c1.5-0.6,3.2-1.2,4.7-1.8c4.7-1.6,9.1-2.8,13.6-3.9c1.6-0.4,3.2-0.9,4.7-1.2c4.3-1,8.5-1.6,12.6-2.1
							c1.5-0.2,3.1-0.5,4.6-0.6c4-0.4,7.9-0.5,11.7-0.5c1.5,0,3-0.1,4.4,0c3.7,0.1,7.4,0.5,11,0.9c1.4,0.2,2.8,0.3,4.2,0.5
							c3.5,0.6,6.9,1.4,10.3,2.3c1.3,0.4,2.7,0.7,4,1.1c3.3,1,6.6,2.2,9.8,3.6c1.2,0.5,2.5,1,3.7,1.6c3.2,1.4,6.3,3,9.3,4.8
							c1.1,0.6,2.3,1.3,3.4,2c3,1.8,6,3.8,8.9,5.9c1.1,0.8,2.1,1.5,3.2,2.3c2.9,2.2,5.8,4.5,8.6,6.9c1,0.8,2,1.7,2.9,2.5
							c2.8,2.5,5.6,5.2,8.4,7.9c0.9,0.9,1.7,1.7,2.6,2.6c2.8,2.9,5.6,5.9,8.3,9c0.7,0.8,1.5,1.7,2.2,2.5c2.8,3.3,5.6,6.6,8.4,10.1
							c0.6,0.7,1.1,1.4,1.7,2.2c2.9,3.7,5.8,7.5,8.7,11.3c0.3,0.4,0.7,0.9,1,1.4c18.5,25.2,36,53.5,54.7,80.7
							c0.3,0.4,0.5,0.8,0.8,1.2c2.7,4,5.5,7.9,8.3,11.8c0.8,1.2,1.7,2.4,2.5,3.6c2.5,3.4,5,6.7,7.5,10.1c1.1,1.5,2.3,3,3.4,4.5
							c2.3,3,4.7,6,7.1,8.9c1.4,1.7,2.7,3.4,4.1,5c2.3,2.8,4.7,5.4,7.1,8.1c1.5,1.7,3,3.4,4.5,5.1c2.4,2.6,4.9,5,7.3,7.5
							c1.6,1.6,3.2,3.3,4.8,4.8c2.5,2.4,5.1,4.6,7.7,6.8c1.7,1.5,3.4,3,5.1,4.5c2.7,2.2,5.5,4.2,8.3,6.2c1.8,1.3,3.4,2.7,5.2,3.9
							c3.1,2.1,6.3,4,9.5,6c1.6,1,3.1,2,4.7,2.9c4.9,2.7,9.9,5.2,15.1,7.5l0.1,0.5c0.5-0.3,1-0.6,1.5-0.9
							c31.2-66.6,48.4-127.7,48.3-168.4C1068.7,342,1059.7,298.2,1043.4,257.2z"/>
					</defs>
					<clipPath id="SVGID_6_">
						<use xlink:href="#SVGID_7_"  style="overflow:visible;"/>
					</clipPath>
					<path id="XMLID_28_" style="clip-path:url(#SVGID_6_);fill:#3C3729;" d="M497,1305.4c0,0,0,239.6-20.2,459
						s-23.9,302.4-87.9,298c-64-4.4-78.7-315.4-121.4-547.7c-34.3-187-109.7-379.7-119-543.2c0,0-10.3,7.7-29.5,22.3
						c0,0,18-63,19.1-99c0,0-7.9,16.9-37.1,32.6c0,0,18-85.5,15.7-142.9c-2.3-57.4-11.7-223.3,19.1-348.7
						c9.3-37.9-29.2-66.4-29.2-66.4s45-46.1,47.2-79.9c0,0-48.4,12.4-67.5,5.6c0,0,38.2-29.2,54-63C156.1,198.5,221.9,2.7,569.6,2.7
						s413.5,195.7,429.2,229.5c15.7,33.7,54,63,54,63c-19.1,6.7-67.5-5.6-67.5-5.6c2.2,33.7,47.2,79.9,47.2,79.9
						s-38.6,28.5-29.2,66.4c30.9,125.5,21.4,291.4,19.1,348.7c-2.3,57.4,15.7,142.9,15.7,142.9c-29.2-15.7-37.1-32.6-37.1-32.6
						c1.1,36,19.1,99,19.1,99c-19.1-14.6-29.5-22.3-29.5-22.3c-9.3,163.5-84.7,356.2-119,543.2c-42.6,232.4-57.4,543.4-121.4,547.7
						c-64,4.4-67.6-78.6-87.9-298s-20.2-459-20.2-459"/>
				</g>
				<path class="st4" d="M423.9,21.4C398-74.3,337.5-275.9,289.6-272c-62.7,5.1-89.2,406.7-89.2,406.7"/>
				<path class="st4" d="M802.8,1967.3h277c0,0,103.6,3.1,88.9-53.4c-15.8-61-123.4-74.8-176.6-54.5c0,0,105.1-106.9,174.7-245.5
					c109.2-217.6,159.9-494.7-212.7-426.7c19-75.4,34.2-148.2,38.1-216.1c0,0,10.3,7.7,29.5,22.3c0,0-18-63-19.1-99
					c0,0,7.9,16.9,37.1,32.6c0,0-18-85.5-15.7-142.9c2.3-57.4,11.7-223.3-19.1-348.7c-9.3-37.9,29.2-66.4,29.2-66.4
					s-45-46.1-47.2-79.9c0,0,48.4,12.4,67.5,5.6c0,0-38.2-29.2-54-63C984.6,198.1,918.7,2.3,571.1,2.3S157.6,198.1,141.8,231.8
					s-54,63-54,63c19.1,6.8,67.5-5.6,67.5-5.6c-2.3,33.7-47.2,79.9-47.2,79.9s38.6,28.5,29.2,66.4
					c-30.9,125.5-21.4,291.4-19.1,348.7c2.3,57.4-15.7,142.9-15.7,142.9c29.2-15.8,37.1-32.6,37.1-32.6c-1.1,36-19.1,99-19.1,99
					c19.1-14.6,29.5-22.3,29.5-22.3c3.9,67.8,19.1,140.7,38.1,216.1c-372.6-68-321.9,209.1-212.7,426.7
					C44.9,1752.5,150,1859.4,150,1859.4c-53.2-20.3-160.8-6.5-176.6,54.5c-14.6,56.5,88.9,53.4,88.9,53.4h277"/>
				<g>
					<defs>
						<path id="SVGID_9_" d="M998.2,1862.4c0,0,105.1-106.9,174.7-245.5c109.2-217.6,159.9-494.7-212.7-426.7
							c19-75.4,34.2-148.2,38.1-216.1c0,0,10.3,7.7,29.5,22.3c0,0-18-63-19.1-99c0,0,7.9,16.9,37.1,32.6c0,0-18-85.5-15.7-142.9
							c2.2-57.4,11.7-223.3-19.1-348.7c-9.3-37.9,29.2-66.4,29.2-66.4s-45-46.1-47.2-79.9c0,0,48.4,12.4,67.5,5.6
							c0,0-38.2-29.2-54-63C990.6,201.1,924.8,5.4,577.2,5.4S163.7,201.1,147.9,234.9s-54,63-54,63c19.1,6.8,67.5-5.6,67.5-5.6
							c-2.3,33.7-47.2,79.9-47.2,79.9s38.6,28.5,29.2,66.4c-30.9,125.5-21.4,291.4-19.1,348.7c2.3,57.4-15.7,142.9-15.7,142.9
							c29.2-15.8,37.1-32.6,37.1-32.6c-1.1,36-19.1,99-19.1,99c19.1-14.6,29.5-22.3,29.5-22.3c3.9,67.8,19.1,140.7,38.1,216.1
							c-372.6-68-321.9,209.1-212.7,426.7c69.6,138.6,174.7,245.5,174.7,245.5c-53.2-20.3-160.8-6.5-176.6,54.5
							c-14.6,56.5,88.9,53.4,88.9,53.4h277c13.4,56.7,29.4,93.3,51,94.8c38,2.6,54.7-25.6,66.2-94.8h114.5h0h114.5
							c11.5,69.2,28.3,97.4,66.2,94.8c21.6-1.5,37.7-38.1,51-94.8h277c0,0,103.6,3.1,88.9-53.4
							C1159,1855.9,1051.4,1842.2,998.2,1862.4z"/>
					</defs>
					<clipPath id="SVGID_8_">
						<use xlink:href="#SVGID_9_"  style="overflow:visible;"/>
					</clipPath>
					<path style="opacity:5.000000e-02;clip-path:url(#SVGID_8_);" d="M448.4-50.7c0,0-444.4,237.4-219.1,1284.5
						c0,0-593.5-130.9-30.4,651.4c0,0-296.1,29.5-152.2,133.9c398.7,289.2,1098.8-15.2,1098.8-15.2s85.2-115.7-194.8-115.7
						c0,0,554-742.7-36.5-645.3c0,0,243.5-1041-182.6-1260.1c-99.4-51.1,292.2-36.5,292.2-36.5l292.2,1759.3l-79.1,444.4
						c0,0-1351.4,237.4-1375.8,127.8c-24.4-109.6-146.1-584.4-146.1-584.4S-151.2,621.9-157.3,567.1
						c-6.1-54.8,115.7-675.7,127.8-681.8S448.4-50.7,448.4-50.7z"/>
				</g>
				<g class="st6">
					<path class="st7" d="M153.2,291c11.6-10,35.7-32.5,47.4-57.6c15.3-32.7,77.7-217.9,398.8-229C589.5,4.2,579.4,4,569,4
						C221.3,4,155.5,199.7,139.8,233.5c-15.8,33.7-54,63-54,63c19.1,6.8,67.5-5.6,67.5-5.6C153.3,290.9,153.2,291,153.2,291z"/>
				</g>
				<g>
					<defs>
						<path id="SVGID_11_" d="M992.2,1862.4c0,0,105.1-106.9,174.7-245.5c109.2-217.6,159.9-494.7-212.7-426.7
							c19-75.4,34.2-148.2,38.1-216.1c0,0,10.3,7.7,29.5,22.3c0,0-18-63-19.1-99c0,0,7.9,16.9,37.1,32.6c0,0-18-85.5-15.7-142.9
							c2.3-57.4,11.7-223.3-19.1-348.7c-9.3-37.9,29.2-66.4,29.2-66.4s-45-46.1-47.2-79.9c0,0,48.4,12.4,67.5,5.6
							c0,0-38.2-29.2-54-63C984.6,201.1,918.7,5.4,571.1,5.4S157.6,201.1,141.8,234.9s-54,63-54,63c19.1,6.8,67.5-5.6,67.5-5.6
							c-2.3,33.7-47.2,79.9-47.2,79.9s38.6,28.5,29.2,66.4C106.5,564,116,729.9,118.2,787.2c2.3,57.4-15.7,142.9-15.7,142.9
							c29.2-15.8,37.1-32.6,37.1-32.6c-1.1,36-19.1,99-19.1,99c19.1-14.6,29.5-22.3,29.5-22.3c3.9,67.8,19.1,140.7,38.1,216.1
							c-372.6-68-321.9,209.1-212.7,426.7C44.9,1755.5,150,1862.4,150,1862.4c-53.2-20.3-160.8-6.5-176.6,54.5
							c-14.6,56.5,88.9,53.4,88.9,53.4h277c13.4,56.7,29.4,93.3,51,94.8c38,2.6,54.7-25.6,66.2-94.8h114.5h0h114.5
							c11.5,69.2,28.3,97.4,66.2,94.8c21.6-1.5,37.7-38.1,51-94.8h277c0,0,103.6,3.1,88.9-53.4
							C1152.9,1855.9,1045.3,1842.2,992.2,1862.4z"/>
					</defs>
					<clipPath id="SVGID_10_">
						<use xlink:href="#SVGID_11_"  style="overflow:visible;"/>
					</clipPath>
				</g>
				<g id="XMLID_7_">
					<circle id="XMLID_12_" class="st26" cx="312.3" cy="284.3" r="140.2"/>
					<g id="XMLID_8_">
						<circle id="XMLID_11_" class="st27" cx="314.6" cy="286.6" r="71.8"/>
						<circle id="XMLID_10_" class="st28" cx="314.6" cy="286.6" r="52.6"/>
						<circle id="XMLID_9_" class="st29" cx="344.5" cy="239.4" r="19.2"/>
					</g>
				</g>
			</g>
		</g>
	</g>
</g>
</svg>
