<svg xmlns="http://www.w3.org/2000/svg" width="45" height="45" viewBox="0 0 45 45"><g fill="none" fill-rule="evenodd"><circle cx="22.5" cy="22.5" r="22.5" fill="#FADCF7"/><ellipse cx="23" cy="33.625" fill="#E7B2E3" rx="7" ry="1.625"/><path fill="#FF71E7" d="M22.498 33a.615.615 0 0 1-.434-.177l-7.125-7.011-.052-.053c-2.366-2.39-2.535-6.09-.348-8.242 2.066-2.034 5.53-2.004 7.962-.022 2.43-1.982 5.897-2.009 7.96.022 2.186 2.151 2.024 5.855-.364 8.254l-.049.053-7.115 7a.615.615 0 0 1-.435.176z"/><path stroke="#EF42D1" stroke-width="2.5" d="M15.915 24.358l6.569 6.2a.75.75 0 0 0 1.03 0l6.517-6.145.083-.088c2.039-2.033 2.175-5.105.392-6.846-1.685-1.647-4.618-1.646-6.718.055l-.786.636-.787-.636c-2.103-1.702-5.034-1.704-6.722-.055-1.779 1.737-1.645 4.807.383 6.84l.039.04z"/><path stroke="#FFF" stroke-linecap="round" stroke-width="1.5" d="M27 18c1.257 0 3 1.268 3 3"/><path stroke="#000" d="M22.3 32.712l-7.26-7.095-.054-.057c-2.49-2.586-2.669-6.59-.366-8.919 2.175-2.2 5.822-2.168 8.381-.023 2.558-2.145 6.207-2.174 8.379.023 2.301 2.328 2.13 6.336-.383 8.932l-.051.057-7.249 7.082a1 1 0 0 1-1.398 0z"/></g></svg>