<svg xmlns="http://www.w3.org/2000/svg" xmlns:xlink="http://www.w3.org/1999/xlink" width="200" height="252" viewBox="0 0 200 252"><path fill="#E3F1F5" d="M-21-17h242v286H-21z"/><ellipse opacity=".1" cx="100" cy="217" rx="54.5" ry="8"/><path fill="#AA7E52" d="M173.964 122.705c-3.627 1.661-1.412 6.477-2.491 13.463-.404 2.622-1.273 5.55-3.092 8.733-6.74 11.799-18.097 14.759-18.097 14.759l7.611 7.866c2.706-.848 11.309-4.418 18.688-16.07 2.464-3.889 3.927-8.185 4.585-12.258l-.014-.007c1.739-10.071-2.056-18.834-7.19-16.486"/><path fill="none" stroke="#000" stroke-width=".515" stroke-miterlimit="10" d="M173.964 122.705c-3.627 1.661-1.412 6.477-2.491 13.463-.404 2.622-1.273 5.55-3.092 8.733-6.74 11.799-18.097 14.759-18.097 14.759l7.611 7.866c2.706-.848 11.309-4.418 18.688-16.07 2.464-3.889 3.927-8.185 4.585-12.258l-.014-.007c1.739-10.071-2.056-18.834-7.19-16.486z"/><path fill="#AA7E52" d="M131.416 71.83c2.018-.411 18.971-54.595-15.849-21.162-1.361 1.576-2.178 3.083-2.582 4.521-.789-.36-1.592-.7-2.412-1.017.556-1.166 1.322-2.364 2.39-3.601 39.515-37.942 23.386 18.284 19.515 24.751a32.61 32.61 0 0 0-1.559-3.504c.216.023.393.033.497.012"/><path fill="#F9F5ED" d="M131.416 71.83c-.104.021-.28.011-.497-.012a34.336 34.336 0 0 0-4.037-6.098c4.898-9.616 9.209-28.661-9.855-8.418a41.14 41.14 0 0 0-4.042-2.114c.404-1.438 1.221-2.944 2.582-4.521 34.819-33.432 17.867 20.752 15.849 21.163"/><g opacity=".3"><defs><path id="a" d="M117.027 48.343h14.038V65.72h-14.038z"/></defs><clipPath id="b"><use xlink:href="#a" overflow="visible"/></clipPath><path clip-path="url(#b)" d="M126.882 65.72c-2.709-3.28-6.043-6.134-9.855-8.417 19.064-20.244 14.753-1.199 9.855 8.417"/></g><path fill="#AA7E52" d="M68.724 71.83c-2.019-.411-18.97-54.595 15.85-21.162 1.359 1.576 2.178 3.083 2.581 4.521.79-.36 1.593-.7 2.412-1.017-.555-1.166-1.322-2.364-2.389-3.601-39.516-37.942-23.387 18.284-19.516 24.751a32.817 32.817 0 0 1 1.56-3.504c-.216.023-.394.033-.498.012"/><path fill="#F9F5ED" d="M68.724 71.83c.104.021.282.011.498-.012a34.39 34.39 0 0 1 4.037-6.098c-4.898-9.616-9.209-28.661 9.854-8.418a41.253 41.253 0 0 1 4.042-2.114c-.402-1.438-1.221-2.944-2.581-4.521-34.82-33.432-17.869 20.752-15.85 21.163"/><g opacity=".3"><defs><path id="c" d="M69.075 48.343h14.038V65.72H69.075z"/></defs><clipPath id="d"><use xlink:href="#c" overflow="visible"/></clipPath><path clip-path="url(#d)" d="M73.259 65.72c2.709-3.28 6.042-6.134 9.854-8.417-19.063-20.244-14.754-1.199-9.854 8.417"/></g><g opacity=".1"><defs><path id="e" d="M59.611 50.393h81.775v174.294H59.611z"/></defs><clipPath id="f"><use xlink:href="#e" overflow="visible"/></clipPath><path clip-path="url(#f)" fill="#A5A5A5" d="M140.829 74.684c.014.186.043.376.085.566.172-.025.334-.059.473-.108 0 0-.216-.166-.558-.458m-75.509 0c.985-.842 3.022-2.753 4.011-4.872 1.293-2.771 6.574-18.439 33.744-19.374a77.098 77.098 0 0 0-2.576-.044c-29.417 0-34.986 16.563-36.319 19.418-1.332 2.854-4.569 5.33-4.569 5.33 1.618.571 5.711-.477 5.711-.477l-.002.019"/><path clip-path="url(#f)" fill="#F9F5ED" d="M80.087 178.326c-2.902-15.819-9.281-32.126-10.071-45.962 0 0-.875.652-2.494 1.889 0 0 1.522-5.33 1.618-8.376 0 0-.667 1.428-3.141 2.762 0 0 1.523-7.235 1.332-12.09-.19-4.854-.992-18.894 1.619-29.51.788-3.201-2.476-5.615-2.476-5.615s3.808-3.902 3.999-6.759c0 0-3.414.871-5.238.585-.599 2.775-3.912 6.174-3.912 6.174s3.264 2.414 2.475 5.615c-2.61 10.616-1.808 24.656-1.618 29.51.19 4.854-1.333 12.09-1.333 12.09 2.476-1.334 3.142-2.762 3.142-2.762-.095 3.046-1.619 8.376-1.619 8.376a320.025 320.025 0 0 1 2.494-1.889c.791 13.836 7.169 30.143 10.071 45.962 3.607 19.661 4.855 45.978 10.271 46.347 1.41.096 2.471-.313 3.303-1.292-3.915-5.555-5.266-27.85-8.422-45.055"/></g><g opacity=".07"><defs><path id="g" d="M155.981 122.328h25.086v45.198h-25.086z"/></defs><clipPath id="h"><use xlink:href="#g" overflow="visible"/></clipPath><path clip-path="url(#h)" d="M175.047 122.328c2.747 2.425 4.229 8.809 3.019 15.831a.08.08 0 0 1 .014.009c-.659 4.073-2.121 8.371-4.584 12.258-6.522 10.295-13.995 14.28-17.515 15.652l1.401 1.448c2.706-.848 11.308-4.418 18.688-16.07 2.464-3.889 3.927-8.185 4.584-12.258l-.014-.007c1.551-8.992-1.309-16.934-5.593-16.863"/></g><path fill="#BC926F" d="M157.084 156.5c-7.211 3.092-13.164 3.542-13.164 3.542l.812 8.675c.582-.331 7.201 1.176 13.897-1.399.496-3.975-.065-7.603-1.545-10.818"/><path fill="#F9F5ED" d="M136.052 207.758s8.89-9.05 14.778-20.775c9.617-19.154 13.879-43.771-21.988-35.268H72.005c-35.867-8.503-31.604 16.113-21.988 35.268 5.887 11.726 14.777 20.775 14.777 20.775-4.498-1.715-13.604-.553-14.939 4.611-1.238 4.78 7.524 4.516 7.524 4.516h86.088s8.763.265 7.526-4.516c-1.336-5.164-10.443-6.326-14.941-4.611"/><path fill="none" stroke="#000" stroke-width=".515" stroke-miterlimit="10" d="M136.052 207.758s8.89-9.05 14.778-20.775c9.617-19.154 13.879-43.771-21.988-35.268H72.005c-35.867-8.503-31.604 16.113-21.988 35.268 5.887 11.726 14.777 20.775 14.777 20.775-4.498-1.715-13.604-.553-14.939 4.611-1.238 4.78 7.524 4.516 7.524 4.516h86.088s8.763.265 7.526-4.516c-1.336-5.164-10.443-6.326-14.941-4.611z"/><path fill="#C6C1BA" d="M92.477 162.663v-10.948H72.004a75.298 75.298 0 0 0-5.225-1.051c.731 2.926 1.532 5.908 2.35 8.947 1.692 6.291 3.443 12.799 4.609 19.152 1.07 5.838 1.931 12.253 2.762 18.455 1.105 8.239 2.039 14.855 3.147 19.666h12.244c.57-3.493.995-8.134 1.528-13.985.091-.997.185-2.032.285-3.104 1.403-15.211 1.66-31.743 1.708-37.132h-2.935zm36.365-10.948H108.37v10.948h-2.934c.047 5.389.304 21.921 1.708 37.132l.284 3.098c.533 5.855.956 10.498 1.527 13.992h12.244c1.109-4.811 2.043-11.428 3.148-19.666.833-6.202 1.691-12.617 2.763-18.455 1.166-6.354 2.916-12.861 4.61-19.152.816-3.04 1.618-6.021 2.347-8.947-1.64.267-3.377.612-5.225 1.05"/><path fill="#F9F5ED" d="M94.28 160.853s0 20.277-1.714 38.839c-1.713 18.56-2.02 25.583-7.434 25.213-5.415-.37-6.664-26.686-10.271-46.347-2.903-15.818-9.28-32.126-10.072-45.962 0 0-.875.652-2.493 1.891 0 0 1.522-5.33 1.618-8.377 0 0-.666 1.43-3.142 2.76 0 0 1.523-7.235 1.333-12.09-.191-4.854-.993-18.892 1.617-29.507.788-3.203-2.474-5.617-2.474-5.617s3.807-3.901 3.997-6.756c0 0-4.092 1.047-5.711.474 0 0 3.237-2.474 4.569-5.329 1.333-2.857 6.901-19.419 36.32-19.419 29.417 0 34.986 16.562 36.318 19.419 1.333 2.855 4.57 5.329 4.57 5.329-1.619.573-5.712-.474-5.712-.474.19 2.854 3.998 6.756 3.998 6.756s-3.263 2.414-2.475 5.617c2.611 10.615 1.808 24.653 1.618 29.507-.19 4.854 1.333 12.09 1.333 12.09-2.474-1.33-3.141-2.76-3.141-2.76.096 3.047 1.618 8.377 1.618 8.377-1.618-1.238-2.493-1.891-2.493-1.891-.791 13.836-7.169 30.144-10.071 45.962-3.607 19.661-4.854 45.977-10.27 46.347-5.415.37-5.722-6.653-7.435-25.213-1.714-18.562-1.714-38.839-1.714-38.839"/><defs><path id="i" d="M64.104 70.045c-1.332 2.854-4.569 5.328-4.569 5.328 1.619.573 5.711-.474 5.711-.474-.189 2.854-3.997 6.756-3.997 6.756s3.262 2.414 2.474 5.617c-2.609 10.615-1.808 24.653-1.618 29.509.19 4.853-1.333 12.088-1.333 12.088 2.476-1.33 3.142-2.76 3.142-2.76-.096 3.048-1.618 8.377-1.618 8.377 1.618-1.238 2.493-1.891 2.493-1.891.792 13.836 7.169 30.144 10.073 45.962 3.606 19.661 4.855 45.977 10.271 46.347 5.414.37 5.72-6.653 7.434-25.215s1.714-38.837 1.714-38.837h12.288s0 20.275 1.714 38.837c1.712 18.562 2.019 25.585 7.435 25.215 5.415-.37 6.663-26.686 10.27-46.347 2.902-15.818 9.281-32.126 10.071-45.962 0 0 .875.652 2.494 1.891 0 0-1.522-5.329-1.619-8.377 0 0 .667 1.43 3.142 2.76 0 0-1.522-7.235-1.333-12.088.191-4.855.994-18.894-1.617-29.509-.788-3.203 2.475-5.617 2.475-5.617s-3.807-3.901-3.998-6.756c0 0 4.093 1.047 5.712.474 0 0-3.237-2.474-4.57-5.328-1.332-2.858-6.9-19.42-36.318-19.42s-34.99 16.562-36.323 19.42"/></defs><clipPath id="j"><use xlink:href="#i" overflow="visible"/></clipPath><path clip-path="url(#j)" fill="#AA7E52" d="M91.151 43.181c-1.03 1.03-5.151 11.332 1.545 13.392 6.697 2.06 7.211-2.06 10.818-.515 3.604 1.546 5.151 1.546 7.21-2.061 2.061-3.604 2.061-12.877-1.03-14.422-3.09-1.546-18.543 3.606-18.543 3.606"/><g opacity=".07" clip-path="url(#j)"><defs><path id="k" d="M97.151 50.625h43.721v174.293H97.151z"/></defs><clipPath id="l"><use xlink:href="#k" overflow="visible"/></clipPath><path clip-path="url(#l)" d="M140.872 75.373s-3.237-2.474-4.569-5.329c-1.333-2.857-6.901-19.42-36.318-19.42a72.3 72.3 0 0 0-2.834.056c26.946 1.024 32.198 16.603 33.486 19.364 1.333 2.855 4.569 5.329 4.569 5.329-1.617.57-5.711-.474-5.711-.474.191 2.854 3.999 6.755 3.999 6.755s-3.263 2.415-2.475 5.618c2.61 10.615 1.808 24.653 1.618 29.509-.191 4.853 1.333 12.088 1.333 12.088-2.476-1.332-3.141-2.76-3.141-2.76.095 3.047 1.617 8.377 1.617 8.377-1.617-1.239-2.494-1.891-2.494-1.891-.79 13.836-7.168 30.144-10.07 45.962-3.092 16.854-4.451 38.595-8.188 44.694.872 1.24 2.011 1.76 3.583 1.652 5.416-.37 6.664-26.686 10.271-46.347 2.902-15.818 9.281-32.126 10.071-45.962 0 0 .876.651 2.494 1.891 0 0-1.523-5.33-1.618-8.377 0 0 .665 1.428 3.141 2.76 0 0-1.523-7.235-1.333-12.088.19-4.855.992-18.894-1.619-29.509-.787-3.203 2.476-5.618 2.476-5.618s-3.808-3.901-3.999-6.755c0 .001 4.093 1.045 5.711.475"/></g><path fill="none" stroke="#000" stroke-width=".515" stroke-miterlimit="10" d="M94.28 160.853s0 20.277-1.714 38.839c-1.713 18.56-2.02 25.583-7.434 25.213-5.415-.37-6.664-26.686-10.271-46.347-2.903-15.818-9.28-32.126-10.072-45.962 0 0-.875.652-2.493 1.891 0 0 1.522-5.33 1.618-8.377 0 0-.666 1.43-3.142 2.76 0 0 1.523-7.235 1.333-12.09-.191-4.854-.993-18.892 1.617-29.507.788-3.203-2.474-5.617-2.474-5.617s3.807-3.901 3.997-6.756c0 0-4.092 1.047-5.711.474 0 0 3.237-2.474 4.569-5.329 1.333-2.857 6.901-19.419 36.32-19.419 29.417 0 34.986 16.562 36.318 19.419 1.333 2.855 4.57 5.329 4.57 5.329-1.619.573-5.712-.474-5.712-.474.19 2.854 3.998 6.756 3.998 6.756s-3.263 2.414-2.475 5.617c2.611 10.615 1.808 24.653 1.618 29.507-.19 4.854 1.333 12.09 1.333 12.09-2.474-1.33-3.141-2.76-3.141-2.76.096 3.047 1.618 8.377 1.618 8.377-1.618-1.238-2.493-1.891-2.493-1.891-.791 13.836-7.169 30.144-10.071 45.962-3.607 19.661-4.854 45.977-10.27 46.347-5.415.37-5.722-6.653-7.435-25.213-1.714-18.562-1.714-38.839-1.714-38.839"/><g opacity=".05"><defs><path id="m" d="M60.126 50.393h81.776v174.294H60.126z"/></defs><clipPath id="n"><use xlink:href="#m" overflow="visible"/></clipPath><path clip-path="url(#n)" d="M141.345 74.684c.013.186.042.376.084.566.171-.025.334-.059.473-.108 0 0-.215-.166-.557-.458m-75.51 0c.984-.842 3.022-2.753 4.011-4.872 1.293-2.771 6.573-18.439 33.744-19.374a76.991 76.991 0 0 0-2.575-.044c-29.418 0-34.987 16.563-36.32 19.418-1.332 2.854-4.568 5.33-4.568 5.33 1.618.571 5.711-.477 5.711-.477 0 .008-.003.013-.003.019m14.768 103.642c-2.902-15.819-9.281-32.126-10.071-45.962 0 0-.875.652-2.493 1.889 0 0 1.522-5.33 1.618-8.376 0 0-.666 1.428-3.141 2.762 0 0 1.523-7.235 1.333-12.09-.19-4.854-.993-18.894 1.617-29.51.79-3.201-2.475-5.615-2.475-5.615s3.807-3.902 3.999-6.759c0 0-3.414.871-5.238.585-.598 2.775-3.912 6.174-3.912 6.174s3.264 2.414 2.475 5.615c-2.61 10.616-1.808 24.656-1.617 29.51.19 4.854-1.333 12.09-1.333 12.09 2.475-1.334 3.142-2.762 3.142-2.762-.096 3.046-1.618 8.376-1.618 8.376a311.436 311.436 0 0 1 2.493-1.889c.79 13.836 7.169 30.143 10.071 45.962 3.606 19.661 4.855 45.978 10.27 46.347 1.41.096 2.471-.313 3.303-1.292-3.917-5.555-5.268-27.85-8.423-45.055"/></g><path fill="#AA7E52" d="M77.878 154.341c-.324-2.657 8.957-3.36 8.618-7.293-.318-3.691-1.915-8.598-20.403-4.138 1.891 9.771 5.313 20.326 7.668 30.815.122-1.179.407-2.083.918-2.539 2.943-2.628 13.906-5.807 13.381-11.277-.523-5.468-9.859-2.914-10.182-5.568m45.29 0c.324-2.657-8.958-3.36-8.619-7.293.318-3.691 1.917-8.599 20.404-4.138-1.892 9.771-5.313 20.327-7.669 30.815-.123-1.179-.408-2.083-.918-2.539-2.942-2.628-13.904-5.807-13.38-11.277.522-5.468 9.859-2.914 10.182-5.568"/><path fill="#263135" d="M75.884 118.212s.102.122.268.337c.081.107.184.237.291.39.109.151.238.319.366.506.266.371.56.809.872 1.272.308.465.637.957.965 1.451.156.252.334.482.489.729.164.24.331.469.483.699.163.221.32.436.464.646.156.196.301.387.434.566l.384.475c.114.147.225.259.315.359.18.197.282.326.282.326s-.15-.042-.411-.141c-.126-.051-.295-.102-.456-.202-.167-.094-.364-.197-.563-.33-.191-.14-.396-.295-.611-.466-.199-.184-.411-.376-.618-.587-.196-.221-.405-.444-.593-.688-.186-.244-.38-.491-.548-.753-.168-.263-.34-.522-.483-.793a9.566 9.566 0 0 1-.411-.796 11.71 11.71 0 0 1-.583-1.477 9.661 9.661 0 0 1-.274-1.097 3.723 3.723 0 0 1-.062-.426m6.869 3.546s.068.122.173.331c.05.106.12.232.186.379.067.145.153.308.231.486l.55 1.193.149.331c.054.108.107.219.157.332.1.229.217.447.323.674.106.224.23.436.333.658.126.203.231.422.349.619.126.189.229.395.35.568.123.171.228.349.338.501.117.144.221.286.314.413.094.129.193.222.267.313.154.176.24.29.24.29s-.133-.026-.364-.101c-.112-.04-.266-.073-.41-.155-.15-.079-.319-.171-.501-.28-.175-.116-.345-.264-.534-.418-.184-.159-.346-.348-.524-.544a8.31 8.31 0 0 1-.478-.646 9.97 9.97 0 0 1-.404-.715c-.111-.251-.236-.497-.32-.751a7.034 7.034 0 0 1-.236-.751 7.798 7.798 0 0 1-.237-1.367 6.673 6.673 0 0 1-.001-.986c.019-.238.049-.374.049-.374m5.613 1.476s.069.101.175.276c.105.175.246.425.401.728.154.302.322.651.487 1.026.088.187.167.383.253.576.087.193.163.396.252.591.079.2.165.395.248.586.08.195.163.382.242.563.074.188.163.35.236.519.068.175.16.313.228.462.065.152.148.265.212.387l.094.165.094.13c.115.16.182.271.182.271s-.114-.021-.318-.089l-.17-.059c-.059-.025-.115-.063-.18-.1-.125-.076-.287-.155-.418-.276-.133-.12-.3-.245-.43-.4-.134-.156-.286-.318-.406-.506a4.655 4.655 0 0 1-.359-.58 7.16 7.16 0 0 1-.543-1.281c-.074-.215-.124-.434-.175-.644a7.314 7.314 0 0 1-.164-1.172 5.837 5.837 0 0 1 .014-.847c.018-.206.045-.326.045-.326m20.832 2.069s.019.083.027.224c.01.138.01.335-.019.558a3.525 3.525 0 0 1-.175.738c-.091.26-.219.525-.372.779-.085.122-.163.249-.261.36a2.568 2.568 0 0 1-.298.326 2.44 2.44 0 0 1-.329.268 1.674 1.674 0 0 1-.343.192 1.313 1.313 0 0 1-.325.11c-.103.019-.185.035-.265.025-.153-.012-.226-.037-.226-.037l.134-.171c.041-.039.076-.121.12-.188.044-.063.086-.148.131-.238.048-.082.094-.18.146-.278l.163-.309c.061-.102.115-.223.184-.329.063-.11.131-.226.201-.336.28-.448.612-.887.921-1.196.153-.155.296-.28.405-.365.107-.086.181-.133.181-.133m4.873-2.66s.014.116.007.313c-.003.198-.03.476-.091.8a6.418 6.418 0 0 1-.311 1.075 6.163 6.163 0 0 1-.25.581c-.089.195-.205.383-.314.573-.114.188-.241.37-.37.545a7.49 7.49 0 0 1-.414.491c-.149.148-.295.29-.442.415-.155.12-.304.228-.441.321a6.801 6.801 0 0 1-.412.221c-.118.066-.245.094-.337.126-.19.061-.302.081-.302.081s.06-.106.168-.263c.052-.082.122-.167.188-.28.068-.111.146-.231.231-.357.079-.136.167-.277.261-.421.091-.147.181-.308.285-.462.095-.164.194-.332.301-.496.097-.175.211-.338.311-.516.107-.171.214-.343.319-.515.106-.17.214-.334.318-.5.212-.322.416-.626.607-.881.374-.515.688-.851.688-.851m2.735 0s.036.094.07.254c.037.164.073.394.084.666a5.264 5.264 0 0 1-.297 1.948c-.12.34-.274.673-.464.967-.087.15-.196.284-.298.409-.098.127-.22.233-.323.33-.102.099-.222.174-.32.237-.051.03-.096.059-.142.083l-.134.053c-.162.061-.255.077-.255.077s.036-.101.1-.242c.035-.068.064-.158.097-.26.034-.101.079-.2.112-.324.034-.121.083-.238.119-.379l.132-.419c.047-.146.095-.296.146-.448l.156-.462c.061-.153.11-.313.173-.466.059-.152.116-.304.181-.448.121-.295.252-.565.376-.798a6.65 6.65 0 0 1 .335-.563c.09-.137.152-.215.152-.215m8.421-7.608s.015.154.008.419a8.914 8.914 0 0 1-.095 1.092c-.035.223-.077.464-.133.715-.06.25-.119.517-.204.786a9.44 9.44 0 0 1-.277.821c-.1.279-.225.555-.349.831-.125.274-.276.54-.419.801-.146.261-.319.503-.476.741-.17.231-.348.445-.515.648-.183.192-.363.367-.529.526-.174.152-.351.274-.5.386-.144.119-.3.188-.418.25-.239.127-.379.183-.379.183s.082-.138.229-.351c.073-.108.166-.229.255-.386l.305-.504c.101-.19.216-.393.335-.601.109-.222.23-.445.353-.681.113-.241.242-.483.362-.734.113-.257.253-.503.365-.767l.715-1.523c.232-.488.451-.947.651-1.339.096-.199.197-.378.279-.537.081-.162.163-.301.225-.417.13-.227.212-.359.212-.359m10.116-3.694a19.132 19.132 0 0 1-.478 1.703 23.283 23.283 0 0 1-.613 1.662 24.352 24.352 0 0 1-.73 1.625 27.012 27.012 0 0 1-.857 1.564c-.157.254-.31.512-.479.757-.163.253-.341.492-.517.736-.181.241-.36.481-.554.712-.187.237-.392.459-.592.686-.208.22-.412.445-.637.649-.216.212-.453.406-.682.606-.242.189-.478.383-.732.555-.246.186-.512.341-.771.507l-.434-.961a11.221 11.221 0 0 1 1.368-.382c.47-.092.944-.172 1.487-.143.271.023.573.056.914.271a1.114 1.114 0 0 1 .475.651l.011.038.011.055.007.042a1.436 1.436 0 0 1 .009.308c-.034.356-.15.609-.264.845a6.245 6.245 0 0 1-.381.646c-.273.396-.565.757-.864 1.11-.297.353-.604.69-.913 1.025a53.006 53.006 0 0 1-1.901 1.948l-.637-.841a24.547 24.547 0 0 1 1.666-.805c.57-.243 1.14-.484 1.776-.643a4.61 4.61 0 0 1 .504-.093c.18-.017.37-.034.62.026a.766.766 0 0 1 .6.712c.009.284-.07.458-.137.63-.153.338-.312.567-.467.835-.161.266-.328.521-.494.774-.166.253-.33.504-.485.754-.153.252-.295.491-.387.743-.042.12-.072.243-.069.33.004.092.018.133.079.184a.722.722 0 0 0 .313.11 3.592 3.592 0 0 0 2.111-.266 4.208 4.208 0 0 0 1.426-1.053 3.61 3.61 0 0 1-.581.704c-.22.212-.465.404-.734.563a3.713 3.713 0 0 1-1.798.536 4.151 4.151 0 0 1-.476-.007 1.221 1.221 0 0 1-.545-.149.782.782 0 0 1-.25-.246.824.824 0 0 1-.105-.326c-.025-.212.016-.39.059-.558.091-.323.24-.619.379-.893.145-.275.293-.54.438-.804l.429-.785c.135-.26.299-.543.38-.764.042-.107.064-.229.053-.248-.003-.011-.001.027.027.059.027.031.042.03.019.028a.858.858 0 0 0-.281.016c-.119.021-.25.054-.382.094-.526.165-1.071.398-1.601.651-.53.254-1.062.534-1.566.821l-3.119 1.777 2.481-2.619c.616-.648 1.241-1.287 1.837-1.948.594-.656 1.179-1.332 1.655-2.026a4.65 4.65 0 0 0 .313-.513c.086-.165.148-.337.156-.43l.001-.031c-.003 0 .004.022.002.001l-.007-.041-.001-.011-.001-.005.006.028h-.001v-.006c-.001.003.011.008-.011-.008-.04-.033-.197-.081-.372-.091-.358-.026-.782.028-1.195.107a11.813 11.813 0 0 0-1.24.311l-4.27 1.332 3.838-2.294c.238-.143.486-.274.715-.434.237-.149.46-.321.687-.486.219-.18.443-.351.651-.544.213-.185.419-.381.625-.577.198-.203.404-.402.593-.617.195-.21.379-.43.564-.647.18-.226.363-.446.532-.678.176-.229.345-.464.513-.696.332-.475.647-.959.946-1.457.148-.25.298-.5.442-.753a35.708 35.708 0 0 0 1.2-2.334c.238-.53.484-1.063.693-1.614m-71.024 0c.134.573.292 1.143.478 1.703.186.561.387 1.117.614 1.662.227.549.463 1.093.73 1.625.267.528.552 1.052.856 1.564.157.254.31.512.478.757.164.253.341.492.516.736.181.241.362.481.556.712.186.237.39.459.59.686.208.22.413.445.637.649.216.212.453.406.682.606.241.189.478.383.732.555.246.186.513.341.771.507l.432-.961a10.794 10.794 0 0 0-.68-.213 8.946 8.946 0 0 0-.687-.169c-.469-.092-.944-.172-1.487-.143-.271.023-.573.056-.914.271a1.114 1.114 0 0 0-.476.651l-.011.038-.011.055-.007.042a2.51 2.51 0 0 0-.015.17c.001.046.002.094.005.138.035.356.151.609.264.845.117.234.248.444.381.646.272.396.565.757.863 1.11.298.353.605.69.915 1.025a52.98 52.98 0 0 0 1.9 1.948l.637-.841a24.547 24.547 0 0 0-1.666-.805c-.569-.243-1.139-.484-1.777-.643a4.59 4.59 0 0 0-.503-.093 1.73 1.73 0 0 0-.619.026.764.764 0 0 0-.6.712c-.009.284.07.458.137.63.154.338.312.567.468.835.16.266.328.521.493.774.166.253.33.504.485.754.153.252.294.491.387.743.043.12.072.243.069.33-.004.092-.018.133-.079.184a.722.722 0 0 1-.313.11 3.59 3.59 0 0 1-2.111-.266 4.208 4.208 0 0 1-1.426-1.053c.158.258.361.491.58.704.221.212.466.404.735.563a3.72 3.72 0 0 0 1.798.536c.158.008.332.003.476-.007.167-.013.354-.038.545-.149a.772.772 0 0 0 .25-.246.845.845 0 0 0 .107-.326 1.482 1.482 0 0 0-.06-.558c-.091-.323-.24-.619-.379-.893-.145-.275-.293-.54-.439-.804l-.428-.785c-.135-.26-.298-.543-.379-.764-.042-.107-.064-.229-.054-.248.004-.011.001.027-.026.059-.027.031-.041.03-.019.028a.851.851 0 0 1 .28.016c.12.021.251.054.382.094a12.41 12.41 0 0 1 1.602.651c.529.254 1.061.534 1.566.821l3.119 1.777-2.48-2.619c-.616-.648-1.242-1.287-1.837-1.948-.593-.656-1.178-1.332-1.656-2.026a4.977 4.977 0 0 1-.313-.513 1.365 1.365 0 0 1-.154-.43l-.001-.031c.002 0-.005.022-.003.001l.007-.041.001-.011.001-.005c.002-.007-.011.055-.005.028v-.006c.001.003-.012.008.011-.008.04-.033.197-.081.371-.091.358-.026.783.028 1.195.107a12.097 12.097 0 0 1 1.24.311l4.271 1.332-3.837-2.294c-.239-.143-.486-.274-.716-.434-.237-.149-.46-.321-.687-.486-.218-.18-.442-.351-.651-.544-.213-.185-.419-.381-.625-.577-.198-.203-.403-.402-.592-.617-.194-.21-.379-.43-.564-.647-.179-.226-.363-.446-.532-.678-.177-.229-.346-.464-.514-.696a25.029 25.029 0 0 1-.946-1.457c-.148-.25-.298-.5-.442-.753a23.657 23.657 0 0 1-.42-.767 36.843 36.843 0 0 1-.78-1.567c-.238-.53-.483-1.063-.692-1.614"/><defs><path id="o" d="M92.182 146.714h17.911v74.688H92.182z"/></defs><clipPath id="p"><use xlink:href="#o" overflow="visible"/></clipPath><path clip-path="url(#p)" fill="#E0D5BD" d="M95.272 160.305c-1.545-2.173-5.666-13.591 5.151-13.591 8.756 0 7.726 9.242 5.151 13.591-6.303 10.643 0 0 0 0s.514 43.491 3.605 57.082c2.054 9.035 0 0 0 0H92.182s4.121-39.686 3.09-57.082"/><g opacity=".07"><defs><path id="q" d="M124.721 150.392h32.856v66.739h-32.856z"/></defs><clipPath id="r"><use xlink:href="#q" overflow="visible"/></clipPath><path clip-path="url(#r)" d="M124.721 153.668c35.868-8.502 31.605 16.115 21.988 35.266-5.887 11.729-14.778 20.776-14.778 20.776 4.498-1.715 13.605-.551 14.942 4.611.322 1.251-.042 2.153-.75 2.81 2.466-.336 5.648-1.346 4.871-4.354-1.337-5.163-10.443-6.326-14.941-4.613 0 0 8.891-9.047 14.778-20.774 9.617-19.152 13.879-43.77-21.988-35.267"/></g><g opacity=".05"><defs><path id="s" d="M43.27 149.986h33.371v66.746H43.27z"/></defs><clipPath id="t"><use xlink:href="#s" overflow="visible"/></clipPath><path clip-path="url(#t)" d="M72.004 151.715c-35.866-8.503-31.604 16.113-21.987 35.268 5.887 11.726 14.777 20.775 14.777 20.775-4.497-1.715-13.604-.553-14.939 4.611-.788 3.042 2.471 4.039 4.948 4.363-.403-.595-.56-1.347-.313-2.303 1.336-5.164 10.442-6.327 14.94-4.61 0 0-8.89-9.05-14.777-20.775-9.617-19.155-13.878-43.772 21.988-35.269"/></g><path fill="#E0605C" d="M100.432 116.474c-6.607 0-7.662-9.489-7.59-16.127 3.083-.173 5.475-2.76 7.59-6.314 1.88 3.078 3.965 5.858 7.591 6.407.061 6.63-1.014 16.034-7.591 16.034"/><path fill="#323435" d="M109.193 100.811c-.575 0-1.167-.035-1.778-.103-6.685-.737-7.681-8.696-7.691-8.776a.711.711 0 1 1 1.416-.164c.036.295.887 6.912 6.432 7.524 5.811.642 9.657-2.055 10.839-7.59a.712.712 0 1 1 1.394.297c-1.212 5.672-5.037 8.812-10.612 8.812"/><path fill="#323435" d="M91.672 100.811c-5.576 0-9.4-3.14-10.612-8.812a.713.713 0 1 1 1.394-.297c1.183 5.535 5.029 8.229 10.84 7.59 5.549-.612 6.397-7.243 6.43-7.525a.712.712 0 0 1 .791-.624.71.71 0 0 1 .625.789c-.008.08-1.005 8.039-7.69 8.776-.611.067-1.203.103-1.778.103"/><path fill="#323435" d="M108.768 85.175c0 2.802-3.572 8.441-8.335 8.441s-8.335-5.64-8.335-8.441 3.572-4.203 8.335-4.203 8.335 1.401 8.335 4.203"/><path fill="#FFF" d="M82.72 60.693c-6.551 0-11.863 5.311-11.863 11.862 0 6.553 5.312 11.864 11.863 11.864 6.552 0 11.862-5.312 11.862-11.864.001-6.551-5.31-11.862-11.862-11.862"/><circle fill="none" stroke="#000" stroke-width=".811" stroke-linecap="round" stroke-linejoin="round" cx="82.72" cy="72.557" r="11.863"/><path fill="#9B6730" d="M88.991 72.759a6.074 6.074 0 1 1-12.148-.002 6.074 6.074 0 0 1 12.148.002"/><path fill="#31323C" d="M87.364 72.759a4.446 4.446 0 0 1-4.448 4.446 4.446 4.446 0 1 1 0-8.893 4.446 4.446 0 0 1 4.448 4.447"/><path fill="#FFF" d="M87.072 68.76a1.62 1.62 0 1 1-3.242 0 1.622 1.622 0 1 1 3.242 0m33.323-7.987c-6.509-.755-12.395 3.911-13.148 10.419-.753 6.509 3.913 12.395 10.421 13.148 6.509.752 12.394-3.914 13.147-10.421.753-6.508-3.913-12.395-10.42-13.146"/><circle fill="none" stroke="#000" stroke-width=".811" stroke-linecap="round" stroke-linejoin="round" cx="119.031" cy="72.557" r="11.862"/><path fill="#9B6730" d="M125.236 73.478a6.074 6.074 0 0 1-12.066-1.396 6.075 6.075 0 0 1 6.732-5.335 6.07 6.07 0 0 1 5.334 6.731"/><path fill="#31323C" d="M123.621 73.289a4.447 4.447 0 1 1-8.836-1.022 4.447 4.447 0 0 1 8.836 1.022"/><path fill="#FFF" d="M123.791 69.284a1.62 1.62 0 1 1-3.22-.371 1.624 1.624 0 0 1 1.796-1.427 1.624 1.624 0 0 1 1.424 1.798"/></svg>