<svg xmlns="http://www.w3.org/2000/svg" xmlns:xlink="http://www.w3.org/1999/xlink" width="242" height="286" viewBox="0 0 242 286"><path fill="#FFF2C2" d="M0 0h242v286H0z"/><ellipse opacity=".1" cx="121" cy="234" rx="54.5" ry="8"/><defs><path id="a" d="M26 3.66h200v278.68H26z"/></defs><clipPath id="b"><use xlink:href="#a" overflow="visible"/></clipPath><path clip-path="url(#b)" fill="#E0D5BD" d="M226 4.168h199.998v278.68H226z"/><defs><path id="c" d="M26 3.66h200v278.68H26z"/></defs><clipPath id="d"><use xlink:href="#c" overflow="visible"/></clipPath><path clip-path="url(#d)" fill="#3C3729" d="M213.241 193.327c-8.149-32.423-49.377-16.634-49.377-16.634l.801 8.549c.573-.326 7.021-1.795 13.576-.911 6.278.846 12.655 3.85 14.067 12.082 1.297 7.562-.064 11.845-2.521 14.177 2.338-.111 4.257.453.244 3.737 0 0 8.21-2.728 1.776 2.085 0 0 8.853.979.103 2.831 0 0 8.699.695 1.981 2.754 0 0 4.433-.354 3.952 1.736 10.48-3.258 19.557-13.857 15.398-30.406"/><defs><path id="e" d="M163.862 176.693l.802 8.549c.572-.326 7.02-1.795 13.576-.911 6.278.846 12.655 3.85 14.067 12.082 1.297 7.562-.064 11.845-2.521 14.177 2.338-.111 4.257.453.244 3.736 0 0 8.21-2.728 1.776 2.086 0 0 8.853.979.103 2.831 0 0 8.699.695 1.98 2.754 0 0 4.433-.354 3.953 1.736 10.48-3.259 19.557-13.857 15.399-30.405-4.128-16.425-16.747-20.479-28.193-20.479-11.148 0-21.186 3.844-21.186 3.844"/></defs><clipPath id="f"><use xlink:href="#e" overflow="visible"/></clipPath><g opacity=".55" clip-path="url(#f)"><defs><path id="g" d="M170.236 161.089h52.65v72.373h-52.65z"/></defs><clipPath id="h"><use xlink:href="#g" overflow="visible"/></clipPath><path clip-path="url(#h)" fill="#3C3729" d="M178.639 185.849s2.641-5.279.44-10.999c0 0 39.192-4.153 31.674 33.433-1.759 8.8-13.407 15.245-22.875 14.078-8.324-1.023-14.78-6.732-15.397-11.877 0 0-4.399 2.639-.881 8.799 3.52 6.158 17.597 17.596 27.275 13.196 9.679-4.398 19.357-10.558 21.997-21.116 2.638-10.557 4.398-35.192-6.159-42.23-10.558-7.039-29.034-9.68-32.553-7.039-3.521 2.64-8.37 5.418-8.584 8.428-.215 3.01-.215 13.568.665 14.448.88.879 4.398.879 4.398.879"/></g><defs><path id="i" d="M26 3.66h200v278.68H26z"/></defs><clipPath id="j"><use xlink:href="#i" overflow="visible"/></clipPath><path clip-path="url(#j)" fill="#F9F5ED" d="M193.891 221.997c6.718-2.059-1.981-2.754-1.981-2.754 8.75-1.853-.103-2.831-.103-2.831 6.434-4.813-1.776-2.085-1.776-2.085 4.014-3.284 2.094-3.849-.244-3.737-5.258 4.988-15.537 1.02-15.537 1.02 2.19 11.619 13.539 15.25 23.593 12.124.481-2.09-3.952-1.737-3.952-1.737"/><defs><path id="k" d="M189.787 210.59c-5.258 4.988-15.537 1.02-15.537 1.02 2.192 11.619 13.538 15.25 23.593 12.124.48-2.09-3.953-1.736-3.953-1.736 6.718-2.059-1.98-2.754-1.98-2.754 8.75-1.853-.103-2.831-.103-2.831 6.434-4.813-1.776-2.086-1.776-2.086 3.718-3.043 2.345-3.749.265-3.749a8.748 8.748 0 0 0-.509.012"/></defs><clipPath id="l"><use xlink:href="#k" overflow="visible"/></clipPath><g opacity=".45" clip-path="url(#l)"><defs><path id="m" d="M170.051 210.081h32.07v22.609h-32.07z"/></defs><clipPath id="n"><use xlink:href="#m" overflow="visible"/></clipPath><path clip-path="url(#n)" fill="#F9F5ED" d="M200.636 219.282s-4.4 5.278-13.198 2.639c-8.799-2.639-10.998-7.479-14.518-10.997-3.519-3.521-3.958 4.838-.439 9.237 3.52 4.399 14.957 14.077 19.356 12.317 4.399-1.759 7.919-1.759 9.678-4.398 1.76-2.64-.879-8.798-.879-8.798"/></g><defs><path id="o" d="M26 3.66h200v278.68H26z"/></defs><clipPath id="p"><use xlink:href="#o" overflow="visible"/></clipPath><g clip-path="url(#p)"><text transform="translate(26.218 -8.281)" fill="#F9F7F4" font-family="'MStiffHeiPRC-Bold'" font-size="55.728">导图</text></g><defs><path id="q" d="M26 3.66h200v278.68H26z"/></defs><clipPath id="r"><use xlink:href="#q" overflow="visible"/></clipPath><path clip-path="url(#r)" fill="none" stroke="#020100" stroke-width=".508" stroke-miterlimit="10" d="M213.241 193.327c-8.149-32.423-49.377-16.634-49.377-16.634l.801 8.55c.573-.327 7.021-1.796 13.576-.912 6.278.848 12.655 3.85 14.067 12.082 1.297 7.562-.064 11.845-2.521 14.177-5.258 4.988-15.537 1.02-15.537 1.02 2.192 11.619 13.538 15.25 23.593 12.124 10.48-3.259 19.557-13.858 15.398-30.407z"/><defs><path id="s" d="M26 3.66h200v278.68H26z"/></defs><clipPath id="t"><use xlink:href="#s" overflow="visible"/></clipPath><path clip-path="url(#t)" fill="#F9F5ED" d="M90.6 79.699s2.209-33.49 7.437-33.912c5.228-.423 12.263 28.563 12.263 28.563l-19.7 5.349z"/><path clip-path="url(#t)" fill="#99918A" d="M94.655 77.625s2.959-24.802 4.106-24.944c1.146-.141 7.317 20.827 7.317 20.827l-11.423 4.117z"/><path clip-path="url(#t)" fill="#F9F5ED" d="M151.396 79.699s-2.209-33.49-7.437-33.912c-5.228-.423-12.263 28.563-12.263 28.563l19.7 5.349z"/><path clip-path="url(#t)" fill="#99918A" d="M147.341 77.625s-2.958-24.802-4.106-24.944c-1.146-.141-7.316 20.827-7.316 20.827l11.422 4.117z"/><path clip-path="url(#t)" fill="none" stroke="#000" stroke-width="1.015" stroke-miterlimit="10" d="M90.6 79.699s2.209-33.49 7.437-33.912c5.228-.423 12.263 28.563 12.263 28.563l-19.7 5.349zm60.796 0s-2.209-33.49-7.437-33.912c-5.228-.423-12.263 28.563-12.263 28.563l19.7 5.349z"/><path fill="#C6C1BA" d="M113.167 179.274v-10.787H92.992a73.475 73.475 0 0 0-5.149-1.036c.72 2.884 1.509 5.824 2.314 8.817 1.668 6.201 3.393 12.613 4.542 18.876 1.055 5.753 1.903 12.073 2.723 18.186 1.089 8.12 2.008 14.639 3.101 19.381h12.068c.561-3.442.979-8.016 1.505-13.781l.28-3.061c1.383-14.991 1.636-31.283 1.683-36.595h-2.892zm35.837-10.787h-20.175v10.787h-2.891c.045 5.312.299 21.604 1.682 36.595.098 1.055.19 2.072.279 3.052.527 5.771.945 10.347 1.507 13.79h12.067c1.092-4.742 2.013-11.261 3.101-19.382.82-6.111 1.667-12.433 2.723-18.185 1.148-6.263 2.873-12.675 4.541-18.876a510.432 510.432 0 0 0 2.316-8.817 73.96 73.96 0 0 0-5.15 1.036"/><g opacity=".07"><defs><path id="u" d="M118.714 69.371h43.087v171.766h-43.087z"/></defs><clipPath id="v"><use xlink:href="#u" overflow="visible"/></clipPath><path clip-path="url(#v)" d="M161.801 93.762s-3.19-2.439-4.502-5.254c-1.314-2.813-6.802-19.137-35.792-19.137-.957 0-1.885.019-2.792.055 26.554 1.009 31.73 16.362 33 19.082 1.314 2.814 4.503 5.254 4.503 5.254-1.595.563-5.628-.47-5.628-.47.188 2.814 3.94 6.66 3.94 6.66s-3.215 2.378-2.438 5.535c2.571 10.462 1.781 24.296 1.594 29.08-.188 4.784 1.313 11.913 1.313 11.913-2.438-1.313-3.095-2.72-3.095-2.72.093 3.003 1.595 8.254 1.595 8.254-1.595-1.22-2.458-1.862-2.458-1.862-.779 13.636-7.065 29.706-9.924 45.295-3.047 16.609-4.387 38.035-8.069 44.046.858 1.222 1.982 1.734 3.532 1.629 5.336-.365 6.565-26.299 10.121-45.675 2.86-15.589 9.146-31.659 9.925-45.295 0 0 .862.643 2.457 1.862 0 0-1.501-5.251-1.595-8.254 0 0 .656 1.406 3.096 2.72 0 0-1.501-7.129-1.313-11.913s.978-18.618-1.595-29.08c-.775-3.157 2.44-5.535 2.44-5.535s-3.752-3.846-3.94-6.66c-.004 0 4.03 1.032 5.625.47"/></g><g opacity=".1"><defs><path id="w" d="M80.704 68.636h80.589V240.4H80.704z"/></defs><clipPath id="x"><use xlink:href="#w" overflow="visible"/></clipPath><path clip-path="url(#x)" fill="#A5A5A5" d="M160.743 92.572c.013.185.042.371.083.562.168-.027.329-.061.466-.109 0-.001-.212-.164-.549-.453m-74.412 0c.97-.829 2.977-2.711 3.953-4.801 1.273-2.729 6.477-18.171 33.253-19.092a74.854 74.854 0 0 0-2.538-.043c-28.991 0-34.479 16.32-35.792 19.135-1.313 2.814-4.503 5.253-4.503 5.253 1.595.564 5.628-.469 5.628-.469.001.008-.001.013-.001.017"/><path clip-path="url(#x)" fill="#F9F5ED" d="M100.883 194.713c-2.859-15.589-9.146-31.66-9.925-45.298 0 0-.862.644-2.457 1.864 0 0 1.501-5.254 1.595-8.255 0 0-.657 1.406-3.096 2.721 0 0 1.501-7.131 1.314-11.914s-.978-18.619 1.595-29.08c.776-3.156-2.44-5.534-2.44-5.534s3.753-3.847 3.941-6.661c0 0-3.364.857-5.162.578-.589 2.733-3.854 6.083-3.854 6.083s3.216 2.378 2.439 5.534c-2.572 10.461-1.782 24.297-1.594 29.08.187 4.783-1.313 11.914-1.313 11.914 2.439-1.314 3.096-2.721 3.096-2.721-.094 3.001-1.596 8.255-1.596 8.255 1.596-1.221 2.458-1.864 2.458-1.864.78 13.638 7.066 29.709 9.925 45.298 3.554 19.375 4.784 45.308 10.121 45.673 1.389.096 2.435-.309 3.255-1.272-3.861-5.474-5.192-27.448-8.302-44.401"/></g><path fill="#F9F5ED" d="M156.618 223.6s8.76-8.917 14.563-20.475c9.109-18.141 13.335-41.251-17.734-35.58 1.58-6.285 2.853-12.361 3.176-18.018 0 0 .862.645 2.457 1.863 0 0-1.501-5.252-1.595-8.255 0 0 .657 1.408 3.096 2.721 0 0-1.501-7.129-1.313-11.913.188-4.785.979-18.618-1.595-29.081-.776-3.156 2.44-5.534 2.44-5.534s-3.752-3.847-3.94-6.66c0 0 4.034 1.032 5.629.47 0 0-3.19-2.439-4.502-5.254-1.314-2.813-6.802-19.138-35.792-19.138S87.027 85.07 85.714 87.884c-1.313 2.814-4.502 5.254-4.502 5.254 1.594.563 5.628-.47 5.628-.47-.188 2.813-3.94 6.66-3.94 6.66s3.215 2.378 2.439 5.534c-2.572 10.463-1.782 24.296-1.595 29.081.188 4.784-1.313 11.913-1.313 11.913 2.439-1.313 3.096-2.721 3.096-2.721-.094 3.003-1.595 8.255-1.595 8.255 1.595-1.219 2.457-1.863 2.457-1.863.324 5.656 1.595 11.732 3.176 18.018-31.07-5.671-26.843 17.439-17.734 35.58 5.803 11.558 14.563 20.475 14.563 20.475-4.432-1.689-13.406-.544-14.724 4.545-1.219 4.711 7.416 4.449 7.416 4.449h23.095c1.114 4.729 2.449 7.781 4.254 7.904 3.167.217 4.561-2.133 5.523-7.904h19.093c.964 5.771 2.357 8.121 5.525 7.904 1.805-.123 3.139-3.175 4.254-7.904h23.095s8.635.262 7.415-4.449c-1.316-5.089-10.29-6.235-14.722-4.545"/><path fill="none" d="M26 3.66h200v278.68H26z"/><defs><path id="y" d="M121.003 66.44c-5.853.011-11.417 1.045-16.458 2.891a45.09 45.09 0 0 0-2.504 1.008 43.92 43.92 0 0 0-4.194 2.09c-3.955 2.256-7.412 5.076-10.221 8.313a33.835 33.835 0 0 0-4.182 6.016 31.3 31.3 0 0 0-1.614 3.46c-1.347 3.424-2.084 7.08-2.077 10.882.006 3.393 1.458 8.485 4.078 14.029.043.023.082.05.125.073l.008-.04c.434-.188.854-.398 1.261-.627.134-.075.26-.165.393-.245.268-.161.537-.32.794-.498.149-.104.29-.22.436-.328.23-.171.464-.34.687-.522.145-.12.283-.251.424-.375.215-.188.432-.373.639-.573.136-.13.267-.269.401-.402.205-.207.411-.41.61-.624.127-.139.25-.283.376-.424.198-.224.398-.445.589-.676.115-.14.227-.281.339-.421.2-.247.399-.492.593-.746.096-.125.188-.252.283-.377.209-.279.417-.56.622-.845.071-.098.14-.198.21-.298.232-.327.461-.653.688-.986l.067-.098c1.551-2.282 3.005-4.644 4.541-6.751l.082-.112c.237-.322.477-.637.718-.947l.143-.181c.228-.288.46-.569.695-.844l.182-.21c.227-.258.457-.509.691-.751l.214-.218c.229-.231.46-.452.697-.666.081-.071.161-.143.242-.211.235-.203.474-.396.716-.58.087-.065.175-.129.264-.191.243-.174.489-.341.742-.493.094-.058.19-.108.287-.164a9.57 9.57 0 0 1 .773-.399c.102-.047.206-.088.31-.131.266-.111.537-.215.813-.301.108-.032.219-.061.329-.09a8.97 8.97 0 0 1 .861-.196c.115-.019.233-.031.35-.046.299-.039.602-.071.914-.082.12-.004.246.002.367.002.32.001.644.009.979.039.124.013.254.036.38.052.344.045.691.098 1.051.174.127.028.261.068.391.101.371.092.745.191 1.134.319.128.042.261.099.39.146.404.144.812.297 1.236.481.121.053.249.122.372.178.444.206.892.419 1.358.671.108.058.224.13.333.191.492.273.991.56 1.51.887.076.048.158.108.235.157.562.361 1.133.741 1.726 1.167-.987-10.352-1.302-20.464 1.927-20.508v.006c3.248-.005 2.97 10.132 2.017 20.505a38.734 38.734 0 0 1 1.723-1.173c.076-.051.158-.109.235-.157.517-.33 1.015-.617 1.506-.893.109-.062.224-.135.333-.193.465-.254.912-.469 1.355-.674.122-.058.25-.127.372-.179.423-.188.83-.343 1.232-.487.13-.049.263-.105.39-.148.389-.13.762-.229 1.133-.322.13-.033.263-.074.391-.104.359-.079.706-.131 1.049-.177.127-.018.256-.041.38-.052.334-.033.658-.043.978-.045.123 0 .248-.006.369-.003.311.01.614.041.914.078.116.016.235.025.35.045.294.049.581.117.861.192.11.03.222.057.33.09.278.085.549.187.815.297.103.043.208.084.309.131.264.119.522.254.776.396.095.054.193.105.286.162a12.096 12.096 0 0 1 1.009.681 13.814 13.814 0 0 1 .961.79 17.918 17.918 0 0 1 .915.879 19.993 19.993 0 0 1 .877.958c.235.273.469.553.698.84l.143.18c.243.309.483.623.722.945l.083.112c1.542 2.103 3.006 4.458 4.564 6.733l.068.099c.228.33.458.658.69.983l.212.299c.207.284.416.563.626.842.094.124.188.252.283.375.196.252.395.498.597.744.112.14.224.281.339.418.193.23.394.451.592.675.127.14.25.286.378.423.2.212.407.416.612.622.135.134.266.272.403.401.208.198.425.384.641.57.142.123.28.254.425.371.224.184.458.351.69.522.146.107.286.223.436.326.257.177.527.336.795.496.132.078.26.169.394.243.409.227.83.437 1.263.621l.007.041c.044-.023.082-.049.126-.071 2.6-5.555 4.034-10.652 4.027-14.046-.007-3.803-.757-7.456-2.118-10.874a30.934 30.934 0 0 0-1.626-3.453 33.7 33.7 0 0 0-4.203-6.001c-2.82-3.229-6.288-6.035-10.251-8.276a43.38 43.38 0 0 0-4.202-2.075 44.32 44.32 0 0 0-2.507-.997c-5.049-1.83-10.616-2.845-16.469-2.834-.104 0-.204.006-.307.008v-.011c-.104-.001-.207-.006-.311-.006-.003.002-.007.002-.012.002"/></defs><clipPath id="z"><use xlink:href="#y" overflow="visible"/></clipPath><path clip-path="url(#z)" fill="#3C3729" d="M115.326 177.492s0 19.981-1.688 38.273-1.991 25.215-7.327 24.849c-5.337-.365-6.567-26.299-10.121-45.674-2.86-15.589-9.146-31.659-9.925-45.297 0 0-.863.645-2.458 1.865 0 0 1.501-5.253 1.595-8.256 0 0-.657 1.407-3.095 2.72 0 0 1.5-7.129 1.313-11.914-.188-4.783-.979-18.617 1.595-29.08.776-3.155-2.439-5.533-2.439-5.533s3.752-3.847 3.939-6.661c0 0-4.034 1.033-5.628.47 0 0 3.19-2.439 4.502-5.254 1.313-2.814 6.802-19.136 35.793-19.136S155.86 85.186 157.172 88c1.313 2.814 4.502 5.254 4.502 5.254-1.594.563-5.627-.47-5.627-.47.187 2.814 3.939 6.661 3.939 6.661s-3.215 2.378-2.438 5.533c2.573 10.463 1.783 24.297 1.595 29.08-.188 4.785 1.313 11.914 1.313 11.914-2.437-1.313-3.095-2.72-3.095-2.72.093 3.003 1.594 8.256 1.594 8.256-1.594-1.221-2.457-1.865-2.457-1.865-.778 13.638-7.065 29.708-9.924 45.297-3.554 19.375-4.784 45.309-10.122 45.674-5.336.366-5.637-6.557-7.327-24.849-1.688-18.292-1.688-38.273-1.688-38.273"/><defs><path id="A" d="M26 3.66h200v278.68H26z"/></defs><clipPath id="B"><use xlink:href="#A" overflow="visible"/></clipPath><path clip-path="url(#B)" fill="#3C3729" d="M147.827 188.938c.02-2.207.208-3.926-.586-4.6-2.871-2.445-10.903-5.673-13.041-10.468-2.014-4.517-1.587-8.896 1.201-12.322 2.24-2.759 7.971-6.432 20.548-4.589-2.031 8.629-2.031 11.674-5.077 21.826-.977 3.263-1.946 7.182-3.045 10.153m-52.792 0c-.045-2.207-.976-3.865-.19-4.551 2.841-2.479 10.832-5.805 12.912-10.626 1.958-4.542 1.477-8.914-1.353-12.307-2.275-2.729-6.43-6.491-18.982-4.495 1.015 8.121 3.045 16.243 5.076 21.826 1.187 3.27 1.402 7.195 2.537 10.153"/><path clip-path="url(#B)" fill="none" stroke="#000" stroke-width=".508" stroke-miterlimit="10" d="M140.83 232.848h23.095s8.636.261 7.416-4.449c-1.316-5.089-10.291-6.235-14.723-4.546 0 0 8.76-8.916 14.563-20.474 9.11-18.144 13.336-41.252-17.733-35.579 1.58-6.286 2.853-12.361 3.176-18.018 0 0 .862.643 2.457 1.863 0 0-1.501-5.254-1.595-8.256 0 0 .656 1.407 3.096 2.721 0 0-1.501-7.13-1.313-11.913.188-4.785.978-18.619-1.595-29.081-.776-3.156 2.44-5.534 2.44-5.534s-3.752-3.846-3.94-6.66c0 0 4.034 1.032 5.629.47 0 0-3.19-2.439-4.502-5.254-1.314-2.813-6.803-19.137-35.792-19.137-28.991 0-34.479 16.323-35.792 19.137-1.313 2.814-4.502 5.254-4.502 5.254 1.594.563 5.628-.47 5.628-.47-.188 2.814-3.94 6.66-3.94 6.66s3.215 2.378 2.439 5.534c-2.573 10.462-1.782 24.296-1.595 29.081.188 4.783-1.313 11.913-1.313 11.913 2.438-1.313 3.095-2.721 3.095-2.721-.093 3.002-1.594 8.256-1.594 8.256 1.594-1.221 2.457-1.863 2.457-1.863.324 5.656 1.595 11.731 3.176 18.018-31.071-5.673-26.843 17.436-17.734 35.579 5.803 11.558 14.563 20.474 14.563 20.474-4.432-1.689-13.406-.543-14.724 4.546-1.219 4.71 7.416 4.449 7.416 4.449h23.095m9.775 0h19.093"/><path clip-path="url(#B)" fill="none" stroke="#000" stroke-width=".508" stroke-miterlimit="10" d="M153.665 167.872c-2.23 8.872-5.368 17.436-7.042 26.561-3.553 19.376-4.783 45.309-10.121 45.675-5.336.366-5.639-6.557-7.326-24.85-1.689-18.292-1.689-38.273-1.689-38.273m-12.111-.001s0 19.981-1.689 38.273c-1.688 18.293-1.989 25.215-7.327 24.85-5.337-.366-6.567-26.299-10.121-45.675-1.647-8.978-4.431-18.115-6.645-26.855"/><defs><path id="C" d="M85.714 88.392c-1.313 2.814-4.502 5.252-4.502 5.252 1.594.564 5.628-.468 5.628-.468-.188 2.814-3.94 6.66-3.94 6.66s3.215 2.378 2.439 5.533c-2.573 10.463-1.782 24.296-1.595 29.081.188 4.784-1.313 11.913-1.313 11.913 2.438-1.312 3.095-2.72 3.095-2.72-.093 3.002-1.594 8.255-1.594 8.255a279.276 279.276 0 0 1 2.458-1.863c.323 5.657 1.594 11.732 3.175 18.018-31.071-5.671-26.844 17.438-17.734 35.58 5.802 11.557 14.563 20.475 14.563 20.475-4.432-1.689-13.406-.545-14.723 4.544-1.22 4.712 7.415 4.45 7.415 4.45h23.095c1.114 4.729 2.45 7.781 4.254 7.904 3.168.216 4.562-2.134 5.523-7.904h19.093c.964 5.771 2.357 8.12 5.525 7.904 1.805-.123 3.14-3.175 4.253-7.904h23.096s8.634.262 7.415-4.45c-1.316-5.089-10.291-6.233-14.723-4.544 0 0 8.76-8.918 14.563-20.475 9.11-18.142 13.336-41.251-17.732-35.58 1.579-6.285 2.852-12.36 3.175-18.018 0 0 .862.645 2.457 1.863 0 0-1.5-5.253-1.595-8.255 0 0 .656 1.408 3.096 2.72 0 0-1.501-7.129-1.313-11.913.188-4.785.978-18.618-1.595-29.081-.775-3.155 2.44-5.533 2.44-5.533s-3.752-3.846-3.939-6.66c0 0 4.033 1.032 5.628.468 0 0-3.19-2.438-4.502-5.252-1.314-2.814-6.802-19.137-35.792-19.137s-34.48 16.322-35.794 19.137"/></defs><clipPath id="D"><use xlink:href="#C" overflow="visible"/></clipPath><g opacity=".05" clip-path="url(#D)"><defs><path id="E" d="M49.604 58.704h133.503v201.934H49.604z"/></defs><clipPath id="F"><use xlink:href="#E" overflow="visible"/></clipPath><path clip-path="url(#F)" d="M110.771 64.066S73.715 83.862 92.497 171.171c0 0-49.492-10.913-2.538 54.315 0 0-24.692 2.465-12.69 11.167 33.25 24.112 91.625-1.27 91.625-1.27s7.106-9.644-16.245-9.644c0 0 46.194-61.929-3.045-53.808 0 0 20.304-86.801-15.229-105.075-8.287-4.263 24.365-3.045 24.365-3.045l24.366 146.699-6.599 37.056s-112.691 19.798-114.721 10.66c-2.031-9.137-12.183-48.73-12.183-48.73s11.168-89.342 10.66-93.909c-.508-4.568 9.645-56.345 10.66-56.853 1.015-.505 39.848 5.332 39.848 5.332"/></g><defs><path id="G" d="M26 3.66h200v278.68H26z"/></defs><clipPath id="H"><use xlink:href="#G" overflow="visible"/></clipPath><g clip-path="url(#H)"><defs><path id="I" d="M93.402 97.029h55.192v41.925H93.402z"/></defs><clipPath id="J"><use xlink:href="#I" overflow="visible"/></clipPath><path clip-path="url(#J)" fill="#C4C4C4" d="M141.817 108.255c-4.514.348-6.45 2.481-7.938-4.402-1.489-6.884-12.881-6.822-12.881-6.822s-11.393-.062-12.88 6.822c-1.489 6.884-3.424 4.75-7.938 4.402-2.418-.186-8.062.912-6.512 10.959 1.714 11.104 12.871 6.531 15.149 11.058 2.278 4.527 6.991 8.683 12.181 8.683s9.904-4.155 12.182-8.683c2.277-4.526 13.435.047 15.148-11.058 1.551-10.047-4.092-11.145-6.511-10.959"/></g><path clip-path="url(#H)" fill="#C4C4C4" d="M141.817 106.225c-4.514.348-6.45 2.481-7.938-4.402C132.39 94.938 120.998 95 120.998 95s-11.393-.063-12.88 6.822c-1.489 6.884-3.424 4.75-7.938 4.402-2.418-.186-8.062.912-6.512 10.958 1.714 11.105 12.871 6.532 15.149 11.059 2.278 4.526 6.991 8.682 12.181 8.682s9.904-4.155 12.182-8.682c2.277-4.526 13.435.047 15.148-11.059 1.551-10.045-4.092-11.143-6.511-10.957"/><path clip-path="url(#H)" fill="#B84200" d="M120.999 133.347c-6.523 0-7.562-9.364-7.492-15.915 3.042-.171 5.403-2.727 7.492-6.232 1.855 3.037 3.914 5.781 7.492 6.321.059 6.547-1.001 15.826-7.492 15.826"/><path clip-path="url(#H)" fill="#393C3D" d="M129.645 117.888c-.567 0-1.152-.032-1.755-.099-6.598-.728-7.582-8.583-7.59-8.663a.702.702 0 0 1 .619-.779.7.7 0 0 1 .779.617c.034.288.873 6.822 6.347 7.427 5.73.634 9.531-2.028 10.699-7.492a.705.705 0 0 1 1.377.294c-1.198 5.597-4.973 8.695-10.476 8.695"/><path clip-path="url(#H)" fill="#393C3D" d="M112.351 117.888c-5.502 0-9.278-3.098-10.474-8.695a.704.704 0 0 1 1.376-.294c1.167 5.464 4.97 8.124 10.698 7.492 5.479-.604 6.315-7.148 6.348-7.428a.7.7 0 0 1 .78-.615.703.703 0 0 1 .618.778c-.009.08-.992 7.936-7.591 8.663-.603.066-1.188.099-1.755.099"/><path clip-path="url(#H)" fill="#393C3D" d="M129.224 102.456c0 2.766-3.524 8.333-8.226 8.333-4.702 0-8.227-5.567-8.227-8.333s3.524-4.148 8.227-4.148c4.702 0 8.226 1.382 8.226 4.148"/><defs><path id="K" d="M112.771 102.456c0 2.766 3.524 8.333 8.227 8.333 4.701 0 8.226-5.567 8.226-8.333 0-2.765-3.524-4.148-8.226-4.148-4.702 0-8.227 1.383-8.227 4.148"/></defs><clipPath id="L"><use xlink:href="#K" overflow="visible"/></clipPath><g opacity=".55" clip-path="url(#L)"><defs><path id="M" d="M110.453 98.705h20.529v15.521h-20.529z"/></defs><clipPath id="N"><use xlink:href="#M" overflow="visible"/></clipPath><path clip-path="url(#N)" fill="#1B1D1E" d="M112.212 100.944c0 2.648 1.956 5.066 3.892 6.677 2.97 2.469 6.44 2.463 9.7.492 2.865-1.732 4.005-4.809 4.005-8.049 0-6.159 2.639 10.558 0 11.438-2.64.88-13.197 4.4-14.958 1.76-1.76-2.64-4.399-7.039-4.399-7.039l1.76-5.279z"/></g><defs><path id="O" d="M26 3.66h200v278.68H26z"/></defs><clipPath id="P"><use xlink:href="#O" overflow="visible"/></clipPath><path clip-path="url(#P)" fill="#FFF" d="M99.924 80.818c-6.456 0-11.69 5.232-11.69 11.689 0 6.456 5.234 11.69 11.69 11.69 6.457 0 11.69-5.234 11.69-11.69 0-6.456-5.234-11.689-11.69-11.689"/><circle clip-path="url(#P)" fill="none" stroke="#000" stroke-width=".799" stroke-linecap="round" stroke-linejoin="round" cx="99.924" cy="92.508" r="11.69"/><path clip-path="url(#P)" fill="#9B6730" d="M106.104 92.707a5.985 5.985 0 0 1-5.986 5.984 5.985 5.985 0 1 1 5.986-5.984"/><path clip-path="url(#P)" fill="#31323C" d="M104.5 92.707a4.382 4.382 0 1 1-4.382-4.383 4.382 4.382 0 0 1 4.382 4.383"/><path clip-path="url(#P)" fill="#FFF" d="M104.213 88.766a1.599 1.599 0 1 1-3.198 0 1.599 1.599 0 0 1 3.198 0m37.079-7.948c-6.456 0-11.69 5.232-11.69 11.689 0 6.456 5.234 11.69 11.69 11.69s11.69-5.234 11.69-11.69c0-6.456-5.234-11.689-11.69-11.689"/><circle clip-path="url(#P)" fill="none" stroke="#000" stroke-width=".799" stroke-linecap="round" stroke-linejoin="round" cx="141.292" cy="92.508" r="11.69"/><path clip-path="url(#P)" fill="#9B6730" d="M147.471 92.707a5.985 5.985 0 1 1-11.971-.003 5.985 5.985 0 0 1 11.971.003"/><path clip-path="url(#P)" fill="#31323C" d="M145.868 92.707a4.383 4.383 0 1 1-8.765 0 4.383 4.383 0 0 1 8.765 0"/><path clip-path="url(#P)" fill="#FFF" d="M145.581 88.766a1.598 1.598 0 1 1-3.197.001 1.598 1.598 0 0 1 3.197-.001"/><path fill="none" d="M26 3.66h200v278.68H26z"/></svg>