<svg xmlns="http://www.w3.org/2000/svg" xmlns:xlink="http://www.w3.org/1999/xlink" width="286" height="286" viewBox="0 0 286 286"><path fill="#E5EEC4" d="M0 0h286v286H0z"/><defs><path id="a" d="M-18.473-46.5h319.239v444.827H-18.473z"/></defs><clipPath id="b"><use xlink:href="#a" overflow="visible"/></clipPath><path clip-path="url(#b)" fill="#CCC" d="M300.766-46.5h319.239v444.827H300.766z"/><path fill="#616D72" d="M93.525 75.657s3.52-53.373 11.851-54.045c8.332-.674 19.544 45.521 19.544 45.521l-31.395 8.524z"/><g opacity=".3"><defs><path id="c" d="M99.987 32.598h18.205v39.754H99.987z"/></defs><clipPath id="d"><use xlink:href="#c" overflow="visible"/></clipPath><path clip-path="url(#d)" d="M99.987 72.352s4.716-39.529 6.544-39.752c1.828-.226 11.663 33.188 11.663 33.188l-18.207 6.564z"/></g><path fill="#616D72" d="M190.417 75.657s-3.521-53.373-11.852-54.045c-8.331-.674-19.544 45.521-19.544 45.521l31.396 8.524z"/><g opacity=".3"><defs><path id="e" d="M165.749 32.598h18.206v39.754h-18.206z"/></defs><clipPath id="f"><use xlink:href="#e" overflow="visible"/></clipPath><path clip-path="url(#f)" d="M183.955 72.352s-4.717-39.529-6.545-39.752c-1.827-.226-11.66 33.188-11.66 33.188l18.205 6.564z"/></g><path fill="#616D72" d="M203.357 231.919s30.401-.724 36.915-27.264c6.515-26.541-6.033-54.528-6.033-54.528s39.328 15.44 37.399 48.254c0 0 9.65 1.449-2.897 14.235 0 0 8.446 2.173-2.17 8.686 0 0 12.458 12.706-26.059 23.406-21.714 6.032-39.14.51-39.14.51l1.985-13.299z"/><path fill="none" stroke="#020202" stroke-width=".81" stroke-miterlimit="10" d="M203.357 232.729s30.401-.724 36.915-27.264c6.515-26.541-6.033-54.529-6.033-54.529s39.328 15.44 37.399 48.255c0 0 9.65 1.447-2.897 14.237 0 0 8.446 2.17-2.17 8.686 0 0 12.458 12.704-26.059 23.403-21.714 6.031-39.14.511-39.14.511l1.985-13.299z"/><path fill="#616D72" d="M128.183 319.733c1.62 0 6.482-58.34 5.671-85.077-.712-23.5 0 0 0 0"/><path fill="#263135" d="M230.108 222.911c-.167-.271-.352-.53-.53-.791-11.19 9.441-26.223 9.799-26.223 9.799l-1.983 13.299s13.301 4.213 31.143 1.256c1.68-8.573 1.58-17.103-2.407-23.563"/><path fill="#616D72" d="M197.929 305.182s13.963-14.211 23.211-32.631c15.104-30.082 21.797-68.741-34.535-55.389H97.336c-56.333-13.353-49.64 25.307-34.535 55.389 9.248 18.42 23.21 32.631 23.21 32.631-7.063-2.691-21.366-.864-23.465 7.244-1.943 7.507 11.819 7.092 11.819 7.092h135.208s13.762.415 11.819-7.092c-2.096-8.109-16.398-9.936-23.463-7.244"/><path fill="#263135" d="M129.49 234.354v-17.191H97.336a116.215 116.215 0 0 0-8.207-1.65c1.148 4.595 2.406 9.28 3.69 14.051 2.658 9.884 5.407 20.103 7.237 30.083 1.683 9.171 3.034 19.243 4.34 28.984 1.735 12.938 3.202 23.332 4.943 30.888h19.232c.894-5.487 1.56-12.774 2.398-21.965.142-1.564.291-3.189.446-4.876 2.205-23.89 2.609-49.854 2.683-58.323h-4.608zm57.114-17.192h-32.153v17.191h-4.608c.074 8.469.476 34.434 2.682 58.323.156 1.682.303 3.303.446 4.865.838 9.195 1.505 16.486 2.399 21.976h19.232c1.74-7.556 3.207-17.949 4.943-30.889 1.306-9.74 2.656-19.813 4.339-28.983 1.831-9.98 4.58-20.2 7.238-30.083 1.285-4.771 2.542-9.456 3.69-14.051-2.577.42-5.304.962-8.208 1.651"/><path fill="#616D72" d="M204.246 181.281s-2.392-11.361-2.093-18.988c.299-7.623 1.558-29.672-2.541-46.346-1.238-5.03 3.887-8.821 3.887-8.821s-5.98-6.129-6.279-10.614c0 0 6.428 1.646 8.97.748 0 0-5.083-3.886-7.177-8.372-2.093-4.484-10.837-30.499-57.042-30.499-46.204 0-54.949 26.015-57.042 30.499-2.093 4.486-7.177 8.372-7.177 8.372 2.542.898 8.97-.748 8.97-.748-.298 4.485-6.278 10.614-6.278 10.614s5.125 3.791 3.886 8.821c-4.1 16.674-2.84 38.723-2.541 46.346.299 7.627-2.093 18.988-2.093 18.988 3.886-2.094 4.933-4.336 4.933-4.336-.15 4.783-2.542 13.156-2.542 13.156 2.542-1.944 3.916-2.969 3.916-2.969 1.242 21.731 11.26 47.344 15.818 72.188 5.666 30.88 7.625 72.21 16.131 72.793 8.505.581 8.985-10.45 11.677-39.603 2.691-29.154 2.691-60.998 2.691-60.998h19.3s0 31.844 2.69 60.998c2.691 29.152 3.173 40.184 11.678 39.603 8.506-.583 10.466-41.913 16.13-72.793 4.559-24.845 14.576-50.457 15.817-72.188 0 0 1.375 1.024 3.918 2.969 0 0-2.392-8.373-2.542-13.156.001 0 1.048 2.243 4.935 4.336"/><g opacity=".07"><defs><path id="g" d="M136.81 57.578h68.773v274.169H136.81z"/></defs><clipPath id="h"><use xlink:href="#g" overflow="visible"/></clipPath><path clip-path="url(#h)" d="M205.583 96.509s-5.09-3.893-7.187-8.385c-2.096-4.492-10.854-30.546-57.13-30.546-1.527 0-3.01.03-4.456.083 42.386 1.615 50.646 26.12 52.673 30.463 2.097 4.492 7.188 8.385 7.188 8.385-2.546.897-8.984-.748-8.984-.748.3 4.491 6.289 10.631 6.289 10.631s-5.131 3.796-3.893 8.835c4.106 16.697 2.845 38.78 2.545 46.418-.3 7.636 2.096 19.015 2.096 19.015-3.893-2.097-4.94-4.343-4.94-4.343.148 4.793 2.544 13.178 2.544 13.178a464.866 464.866 0 0 0-3.922-2.976c-1.243 21.767-11.277 47.418-15.842 72.302-4.864 26.511-7 60.71-12.878 70.306 1.37 1.95 3.163 2.77 5.636 2.6 8.52-.584 10.482-41.977 16.156-72.905 4.565-24.884 14.599-50.535 15.841-72.302 0 0 1.378 1.028 3.922 2.976 0 0-2.395-8.385-2.544-13.178 0 0 1.047 2.246 4.94 4.343 0 0-2.396-11.379-2.096-19.015.299-7.638 1.561-29.721-2.545-46.418-1.24-5.039 3.892-8.835 3.892-8.835s-5.99-6.14-6.289-10.631c.001-.001 6.44 1.644 8.984.747"/></g><g opacity=".05"><defs><path id="i" d="M77.758 58.023h128.636v274.169H77.758z"/></defs><clipPath id="j"><use xlink:href="#i" overflow="visible"/></clipPath><path clip-path="url(#j)" d="M205.517 96.232c.021.292.066.591.133.895a4.39 4.39 0 0 0 .745-.173s-.341-.262-.878-.722m-118.777 0c1.548-1.326 4.753-4.327 6.309-7.662 2.034-4.358 10.339-29.006 53.079-30.477a118.6 118.6 0 0 0-4.051-.07c-46.275 0-55.035 26.053-57.131 30.547-2.096 4.49-7.187 8.384-7.187 8.384 2.545.899 8.984-.749 8.984-.749l-.003.027m23.229 163.035c-4.565-24.886-14.599-50.535-15.843-72.302 0 0-1.376 1.028-3.923 2.974 0 0 2.397-8.385 2.547-13.176 0 0-1.049 2.246-4.942 4.341 0 0 2.395-11.379 2.097-19.015-.3-7.638-1.561-29.721 2.544-46.419 1.241-5.036-3.894-8.835-3.894-8.835s5.99-6.137 6.29-10.63c0 0-5.369 1.371-8.238.922-.94 4.363-6.153 9.708-6.153 9.708s5.133 3.799 3.894 8.835c-4.106 16.698-2.845 38.781-2.546 46.419.299 7.636-2.097 19.015-2.097 19.015 3.894-2.095 4.942-4.341 4.942-4.341-.149 4.791-2.546 13.176-2.546 13.176a535.98 535.98 0 0 1 3.922-2.974c1.245 21.767 11.279 47.416 15.844 72.302 5.673 30.928 7.636 72.321 16.154 72.903 2.217.152 3.887-.493 5.195-2.029-6.159-8.739-8.284-43.814-13.247-70.874"/></g><path fill="#263135" d="M104.976 163.894s.161.192.422.531c.126.17.291.374.459.612.171.239.375.502.576.797.417.583.879 1.27 1.37 2.002l1.519 2.282c.244.396.526.761.77 1.147.258.375.52.734.76 1.099.255.347.502.684.73 1.014.245.309.473.607.681.895.223.27.426.521.606.742.178.232.355.407.496.564.284.314.443.516.443.516s-.237-.066-.644-.219c-.202-.083-.466-.163-.721-.323-.263-.147-.571-.311-.885-.517-.3-.22-.624-.463-.961-.731a28.942 28.942 0 0 1-.973-.926c-.307-.347-.636-.697-.934-1.08-.292-.386-.596-.775-.861-1.188-.265-.413-.534-.82-.76-1.245a15.558 15.558 0 0 1-.647-1.253 18.673 18.673 0 0 1-.917-2.32 15.5 15.5 0 0 1-.431-1.726c-.081-.422-.098-.673-.098-.673m10.805 5.578s.106.192.272.522c.079.167.188.367.291.595.106.23.243.484.364.764l.866 1.882.233.518c.085.172.169.346.248.524.156.355.342.7.507 1.056.167.354.362.688.525 1.037.197.321.363.664.548.975.198.299.361.622.55.894.193.269.36.548.534.786.184.228.347.452.494.654.148.201.306.348.421.489.241.275.376.458.376.458s-.208-.041-.572-.158c-.176-.066-.418-.116-.646-.245a16.431 16.431 0 0 1-.788-.441c-.274-.184-.543-.415-.839-.658-.29-.248-.544-.549-.826-.854-.266-.314-.505-.661-.752-1.016-.22-.365-.44-.743-.635-1.128-.174-.395-.372-.78-.503-1.183a10.46 10.46 0 0 1-.372-1.179 12.468 12.468 0 0 1-.372-2.151 10.44 10.44 0 0 1-.002-1.551c.029-.375.078-.59.078-.59m8.831 2.323s.11.157.274.434c.166.277.386.673.632 1.144.24.476.506 1.026.765 1.615.138.292.262.603.397.907.139.305.256.624.397.93.125.315.26.62.389.924.125.307.257.599.382.885.116.293.256.553.371.818.108.272.251.489.357.724.103.238.234.417.334.607.052.094.103.181.147.262.054.072.104.142.147.203.181.252.287.424.287.424s-.18-.031-.5-.138l-.269-.093c-.094-.041-.181-.101-.283-.158-.196-.12-.452-.241-.657-.435-.21-.187-.472-.383-.676-.628-.211-.247-.451-.502-.639-.796a7.361 7.361 0 0 1-.566-.913 9.099 9.099 0 0 1-.477-.99 11.058 11.058 0 0 1-.375-1.024c-.117-.34-.194-.684-.275-1.013a11.613 11.613 0 0 1-.258-1.844 9.172 9.172 0 0 1 .022-1.333c.032-.327.074-.512.074-.512m32.768 3.253s.029.131.042.352c.016.218.018.526-.029.878a5.681 5.681 0 0 1-.276 1.161 6.534 6.534 0 0 1-.586 1.227c-.133.192-.256.39-.408.568-.15.183-.295.356-.47.511a3.7 3.7 0 0 1-.518.421 2.887 2.887 0 0 1-.538.307 2.086 2.086 0 0 1-.511.17c-.162.03-.292.056-.418.041-.241-.017-.356-.058-.356-.058l.211-.27c.064-.064.12-.192.188-.298.069-.103.136-.233.207-.373.075-.13.148-.283.229-.44l.256-.485c.096-.158.181-.348.29-.515.1-.177.207-.355.316-.53.441-.705.963-1.395 1.449-1.882.242-.244.466-.443.639-.576.168-.136.283-.209.283-.209m7.668-4.184s.02.183.01.491a7.863 7.863 0 0 1-.142 1.259 10.2 10.2 0 0 1-.489 1.692 9.17 9.17 0 0 1-.396.911c-.14.309-.322.604-.492.903-.18.295-.381.58-.583.856-.208.273-.431.529-.652.772a11.49 11.49 0 0 1-.695.652c-.243.188-.477.357-.694.508-.235.136-.452.252-.646.346-.187.104-.386.147-.531.2-.3.093-.475.124-.475.124s.094-.166.264-.412c.083-.128.192-.262.296-.442.107-.175.229-.363.365-.559.124-.213.261-.436.411-.66.143-.234.286-.487.448-.729.15-.259.306-.521.474-.781.151-.274.331-.534.489-.811l.502-.809c.166-.268.336-.528.499-.786.335-.506.655-.985.955-1.388.585-.807 1.082-1.337 1.082-1.337m4.298 0s.058.146.111.401c.058.255.116.616.134 1.046.047.858-.088 1.987-.467 3.063a7.266 7.266 0 0 1-.73 1.522 5.224 5.224 0 0 1-.47.644c-.153.199-.345.368-.509.521-.159.154-.348.271-.502.371-.081.048-.151.094-.224.131l-.211.083c-.255.095-.4.12-.4.12s.057-.155.156-.381c.055-.104.102-.245.152-.406.055-.158.125-.314.176-.51.055-.191.132-.375.188-.596l.208-.661c.073-.229.15-.465.228-.704l.246-.729c.096-.24.172-.49.27-.728.094-.239.185-.479.287-.707.192-.462.398-.889.593-1.257a9.95 9.95 0 0 1 .528-.886c.139-.213.236-.337.236-.337m13.247-11.966s.023.24.013.66a14.322 14.322 0 0 1-.149 1.716c-.054.35-.121.729-.208 1.125-.094.393-.186.813-.32 1.234-.125.426-.266.86-.437 1.295-.157.438-.354.871-.549 1.303-.195.434-.432.851-.659 1.26-.229.412-.5.794-.748 1.167-.267.363-.548.701-.811 1.021-.288.304-.57.579-.831.828-.275.241-.553.433-.788.608-.226.186-.472.293-.657.395-.375.198-.596.285-.596.285s.128-.216.36-.552c.116-.17.261-.36.4-.607l.48-.792c.159-.301.339-.616.528-.945.171-.348.362-.7.556-1.07.177-.381.379-.76.57-1.154.177-.404.396-.792.572-1.206l1.125-2.396c.365-.768.71-1.49 1.025-2.108.151-.312.309-.593.439-.845.127-.254.256-.471.353-.653.204-.363.332-.569.332-.569m15.915-5.811c-.21.9-.458 1.798-.752 2.679a36.71 36.71 0 0 1-.965 2.615c-.357.86-.729 1.717-1.149 2.553a41.536 41.536 0 0 1-1.348 2.465c-.246.397-.487.801-.752 1.19-.257.396-.537.773-.812 1.159-.285.376-.569.755-.873 1.118-.292.371-.615.722-.929 1.079-.328.345-.649.698-1.004 1.02-.34.336-.711.641-1.072.956-.379.297-.751.603-1.151.873-.388.288-.807.533-1.214.794l-.682-1.511c.37-.129.71-.233 1.07-.335.354-.1.715-.191 1.082-.265.739-.146 1.485-.27 2.338-.223.426.035.902.087 1.438.422.264.166.525.453.664.782.034.081.064.165.084.246l.017.061.016.085.012.065c.009.054.02.179.023.266-.001.072-.002.147-.008.218-.055.561-.238.957-.417 1.33a9.31 9.31 0 0 1-.599 1.014 22.122 22.122 0 0 1-1.358 1.746 48.619 48.619 0 0 1-1.438 1.615 83.238 83.238 0 0 1-2.989 3.065l-1.003-1.322c.44-.232.864-.445 1.302-.658a38.5 38.5 0 0 1 1.32-.609c.895-.384 1.792-.765 2.795-1.01.252-.062.51-.114.792-.147.282-.026.58-.054.973.043.194.051.442.155.645.381.206.224.289.522.298.74.014.447-.109.722-.214.987-.242.532-.491.893-.736 1.315-.251.419-.517.818-.776 1.217-.26.398-.521.792-.763 1.186-.24.397-.464.772-.609 1.168-.066.189-.113.383-.109.522.007.146.029.207.125.289.103.08.287.14.492.172a5.658 5.658 0 0 0 3.319-.418 6.7 6.7 0 0 0 2.245-1.657c-.25.406-.567.772-.913 1.108a6.28 6.28 0 0 1-1.156.885 5.851 5.851 0 0 1-2.829.845 6.598 6.598 0 0 1-.749-.013c-.261-.021-.556-.06-.857-.234a1.22 1.22 0 0 1-.392-.388 1.37 1.37 0 0 1-.168-.512c-.039-.336.026-.615.094-.879.143-.51.378-.974.598-1.404.225-.432.458-.85.689-1.264l.674-1.234c.213-.408.469-.856.597-1.2.066-.17.1-.36.083-.391-.006-.017-.001.043.042.093.043.048.066.047.03.042a1.452 1.452 0 0 0-.44.026 5.169 5.169 0 0 0-.601.146c-.828.26-1.686.626-2.519 1.025s-1.669.84-2.464 1.292l-4.905 2.796 3.901-4.117c.969-1.023 1.953-2.029 2.891-3.067.932-1.034 1.853-2.097 2.603-3.188.186-.271.357-.544.492-.808.136-.258.233-.528.245-.677l.002-.047c-.004-.002.005.034.002.002l-.012-.065-.001-.017-.001-.008c-.003-.012.017.085.01.045h-.001l-.001-.003c0-.005-.003-.005 0-.006-.003.003.017.012-.018-.013-.063-.053-.31-.129-.584-.144-.563-.042-1.231.046-1.881.17a22.33 22.33 0 0 0-.984.22c-.325.08-.664.173-.967.267l-6.717 2.096 6.037-3.605c.375-.226.764-.433 1.125-.685.372-.233.722-.506 1.08-.767.343-.28.696-.55 1.023-.852.337-.293.66-.602.984-.91.312-.32.635-.631.932-.971.306-.329.595-.674.888-1.019.282-.354.57-.701.836-1.065.276-.359.542-.728.807-1.098a40.617 40.617 0 0 0 1.489-2.29c.232-.394.467-.787.694-1.185.225-.396.447-.798.661-1.204a59.68 59.68 0 0 0 1.228-2.469c.378-.836.767-1.676 1.095-2.54m-111.724 0c.21.9.458 1.798.752 2.679.292.883.608 1.757.965 2.615.356.86.73 1.717 1.15 2.553.42.834.868 1.657 1.348 2.465.246.397.487.801.751 1.19.257.396.538.773.813 1.159.284.376.569.755.873 1.118.293.371.614.722.929 1.079.328.345.65.698 1.003 1.02.341.336.711.641 1.073.956.378.297.75.603 1.15.873.387.288.807.533 1.214.794l.68-1.511a18.133 18.133 0 0 0-2.151-.6c-.738-.146-1.484-.27-2.337-.223-.425.035-.903.087-1.439.422a1.796 1.796 0 0 0-.664.782 1.833 1.833 0 0 0-.084.246l-.016.061-.017.085-.01.065c-.009.054-.02.179-.023.266.001.072.002.147.007.218.054.561.238.957.417 1.33.185.367.389.699.6 1.014a21.88 21.88 0 0 0 1.357 1.746c.47.554.951 1.089 1.438 1.615a81.646 81.646 0 0 0 2.989 3.065l1.003-1.322a41.88 41.88 0 0 0-2.622-1.267c-.895-.384-1.792-.765-2.794-1.01a6.402 6.402 0 0 0-.792-.147c-.283-.026-.58-.054-.975.043-.193.051-.44.155-.645.381a1.217 1.217 0 0 0-.299.74c-.014.447.11.722.215.987.243.532.491.893.736 1.315.252.419.516.818.776 1.217s.521.792.765 1.186c.239.397.463.772.609 1.168.066.189.112.383.107.522-.005.146-.027.207-.124.289-.103.08-.288.14-.492.172a5.66 5.66 0 0 1-3.32-.418 6.696 6.696 0 0 1-2.244-1.657c.25.406.568.772.913 1.108.348.334.734.635 1.156.885a5.85 5.85 0 0 0 2.827.845c.249.012.522.003.749-.013.263-.021.559-.06.859-.234a1.24 1.24 0 0 0 .392-.388c.094-.166.15-.346.168-.512.039-.336-.026-.615-.094-.879-.143-.51-.378-.974-.597-1.404-.225-.432-.46-.85-.689-1.264l-.674-1.234c-.212-.408-.47-.856-.596-1.2-.067-.17-.101-.36-.083-.391.006-.017.001.043-.042.093-.043.048-.066.047-.031.042.069-.014.256-.01.441.026.189.031.394.085.601.146.829.26 1.686.626 2.519 1.025.833.399 1.668.84 2.464 1.292l4.905 2.796-3.901-4.117c-.97-1.023-1.954-2.029-2.89-3.067-.933-1.034-1.854-2.097-2.604-3.188a7.475 7.475 0 0 1-.492-.808c-.135-.258-.231-.528-.243-.677l-.002-.047c.004-.002-.007.034-.003.002l.011-.065.002-.017.001-.008c.003-.012-.017.085-.008.045l.001-.003v-.006c.001.003-.017.012.018-.013.062-.053.31-.129.583-.144.563-.042 1.23.046 1.881.17.326.066.656.138.984.22.325.08.665.173.967.267l6.717 2.096-6.036-3.605c-.377-.226-.764-.433-1.126-.685-.373-.233-.723-.506-1.081-.767-.343-.28-.696-.55-1.022-.852a30.186 30.186 0 0 1-.984-.91c-.312-.32-.634-.631-.931-.971-.308-.329-.597-.674-.889-1.019-.282-.354-.57-.701-.836-1.065-.277-.359-.542-.728-.808-1.098a40.054 40.054 0 0 1-1.488-2.29c-.233-.394-.469-.787-.695-1.185a38.778 38.778 0 0 1-.66-1.204 58.449 58.449 0 0 1-1.228-2.469c-.382-.836-.77-1.676-1.098-2.54"/><g opacity=".05"><defs><path id="k" d="M77.758 57.213h128.636v274.169H77.758z"/></defs><clipPath id="l"><use xlink:href="#k" overflow="visible"/></clipPath><path clip-path="url(#l)" d="M205.517 95.423a6.2 6.2 0 0 0 .133.893c.27-.04.525-.096.745-.173 0 0-.341-.26-.878-.72m-118.777 0c1.548-1.326 4.753-4.328 6.309-7.663 2.034-4.358 10.339-29.005 53.079-30.479a121.354 121.354 0 0 0-4.051-.067c-46.275 0-55.035 26.052-57.131 30.546-2.096 4.491-7.187 8.383-7.187 8.383 2.545.899 8.984-.748 8.984-.748l-.003.028m23.229 163.033c-4.565-24.885-14.599-50.536-15.843-72.302 0 0-1.376 1.029-3.923 2.974 0 0 2.397-8.386 2.547-13.177 0 0-1.049 2.247-4.942 4.344 0 0 2.395-11.382 2.097-19.017-.3-7.636-1.561-29.719 2.544-46.418 1.241-5.037-3.894-8.833-3.894-8.833s5.99-6.141 6.29-10.633c0 0-5.369 1.372-8.238.921-.94 4.365-6.153 9.712-6.153 9.712s5.133 3.796 3.894 8.833c-4.106 16.699-2.845 38.782-2.546 46.418.299 7.635-2.097 19.017-2.097 19.017 3.894-2.097 4.942-4.344 4.942-4.344-.149 4.791-2.546 13.177-2.546 13.177 2.546-1.944 3.922-2.974 3.922-2.974 1.245 21.766 11.279 47.417 15.844 72.302 5.673 30.928 7.636 72.321 16.154 72.905 2.217.149 3.887-.494 5.195-2.032-6.159-8.736-8.284-43.812-13.247-70.873"/></g><defs><path id="m" d="M128.994 214.4h28.174v111.316h-28.174z"/></defs><clipPath id="n"><use xlink:href="#m" overflow="visible"/></clipPath><path clip-path="url(#n)" fill="#616D72" d="M133.854 234.656c-2.43-3.241-8.913-20.256 8.103-20.256 13.774 0 12.153 13.774 8.102 20.256-9.915 15.862 0 0 0 0s.811 64.82 5.672 85.077c3.231 13.463 0 0 0 0h-26.738c.001 0 6.482-59.149 4.861-85.077"/><path fill="#E0605C" d="M141.971 161.159c-10.394 0-12.051-14.928-11.939-25.366 4.849-.271 8.61-4.346 11.939-9.933 2.958 4.84 6.237 9.215 11.941 10.076.096 10.433-1.595 25.223-11.941 25.223"/><path fill="#323435" d="M155.752 136.52c-.904 0-1.836-.053-2.797-.158-10.516-1.158-12.083-13.679-12.098-13.806a1.122 1.122 0 0 1 2.228-.258c.055.466 1.393 10.873 10.116 11.835 9.139 1.009 15.19-3.233 17.051-11.941a1.12 1.12 0 0 1 2.193.471c-1.905 8.919-7.924 13.857-16.693 13.857"/><path fill="#323435" d="M128.19 136.52c-8.771 0-14.787-4.938-16.693-13.857a1.12 1.12 0 0 1 .861-1.33 1.123 1.123 0 0 1 1.332.859c1.861 8.708 7.911 12.947 17.051 11.941 8.73-.963 10.063-11.393 10.115-11.837a1.12 1.12 0 0 1 2.228.26c-.015.127-1.582 12.647-12.098 13.806-.959.105-1.893.158-2.796.158"/><path fill="#323435" d="M155.082 111.926c0 4.407-5.618 13.28-13.111 13.28s-13.111-8.873-13.111-13.28 5.618-6.612 13.111-6.612 13.111 2.205 13.111 6.612"/><path fill="#FFF" d="M113.7 73.417c-10.236 0-18.535 8.354-18.535 18.66s8.299 18.66 18.535 18.66 18.535-8.354 18.535-18.66-8.299-18.66-18.535-18.66"/><ellipse fill="none" stroke="#000" stroke-width="1.275" stroke-linecap="round" stroke-linejoin="round" cx="113.7" cy="92.077" rx="18.535" ry="18.66"/><path fill="#9B6730" d="M129.235 98.065c0 5.275-4.277 9.555-9.554 9.555-5.276 0-9.554-4.279-9.554-9.555a9.554 9.554 0 0 1 19.108 0"/><path fill="#31323C" d="M126.676 98.065a6.995 6.995 0 1 1-13.99 0 6.995 6.995 0 0 1 13.99 0"/><path fill="#FFF" d="M126.218 91.776a2.55 2.55 0 1 1-5.1-.002 2.55 2.55 0 0 1 5.1.002m41.768-18.359c-10.236 0-18.534 8.354-18.534 18.66s8.298 18.66 18.534 18.66 18.535-8.354 18.535-18.66-8.299-18.66-18.535-18.66"/><ellipse fill="none" stroke="#000" stroke-width="1.275" stroke-linecap="round" stroke-linejoin="round" cx="167.986" cy="92.077" rx="18.534" ry="18.66"/><path fill="#9B6730" d="M171.369 86.723c0 5.275-4.278 9.555-9.555 9.555-5.276 0-9.554-4.279-9.554-9.555 0-5.278 4.278-9.555 9.554-9.555a9.554 9.554 0 0 1 9.555 9.555"/><path fill="#31323C" d="M168.81 86.723a6.996 6.996 0 1 1-13.992-.002 6.996 6.996 0 0 1 13.992.002"/><path fill="#FFF" d="M168.352 80.434a2.55 2.55 0 1 1-5.1-.004 2.55 2.55 0 0 1 5.1.004"/><path fill="none" d="M-18.473-46.5h319.239v444.827H-18.473z"/><path fill="none" d="M-18.473-46.5h319.239v444.827H-18.473z"/></svg>