<svg xmlns="http://www.w3.org/2000/svg" xmlns:xlink="http://www.w3.org/1999/xlink" width="213.23" height="252" viewBox="0 0 213.23 252"><path fill="#E7E7E7" d="M-14.385-17h242v286h-242z"/><ellipse opacity=".1" cx="108.615" cy="211" rx="54.5" ry="8"/><defs><path id="a" d="M-14.409 4h247.257v247.257H-14.409z"/></defs><clipPath id="b"><use xlink:href="#a" overflow="visible"/></clipPath><g clip-path="url(#b)"><defs><path id="c" d="M-14.409 4h247.257v247.257H-14.409z"/></defs><clipPath id="d"><use xlink:href="#c" overflow="visible"/></clipPath><path clip-path="url(#d)" fill="#E5C6DF" d="M115.759 135.165s9.582-4.912 22.111-4.668c12.528.247 17.088 14.242 33.41 4.668 13.939-8.177 3.686-25.06 3.686-25.06s7.118 4.455 10.563 13.023c4.22 10.49 3.803 26.438-13.512 33.655-22.089 9.205-32.175-2.702-48.396-2.702-7.96 0-14.495 1.72-14.495 1.72l6.633-20.636z"/></g><g clip-path="url(#b)"><defs><path id="e" d="M171.28 135.165c-16.321 9.575-20.881-4.421-33.411-4.668-12.528-.244-22.109 4.668-22.109 4.668l-6.634 20.637s6.534-1.72 14.495-1.72c16.221 0 26.307 11.907 48.396 2.702 17.315-7.217 17.73-23.165 13.512-33.655-3.446-8.568-10.564-13.023-10.564-13.023s10.254 16.882-3.685 25.059"/></defs><clipPath id="f"><use xlink:href="#e" overflow="visible"/></clipPath><path clip-path="url(#f)" fill="#B75CA8" d="M163.766 111.892c.558.172.903.75 1.535 1.744 1.208 1.898 2.183 3.93 3.298 5.88 1.308 2.285 3.038 5.095 5.474 6.298.427-.683.999-1.55 1.971-1.388 5.146.854 1.348 8.875.413 11.501-.654 1.837.028 2.282 1.528 1.276 1.941-1.302 2.368-3.824 3.995-5.345.504.589.317 1.387.182 2.192-.143.856-.285 1.751-.03 2.581.471 1.54 1.861.813 3.09.117.897-.509 2.583-3.182 3.547-3.548.345-.131 1.335-2.506 1.591-2.24.253.263 16.241 1.383 16.143 1.734-1.75 6.211-11.861 18.367-15.2 23.813-3.371 5.499-2.076 5.912-7.878 9.175-3.902 2.194 6.928-15.127 3.318-12.721-10.641 7.094-11.147-6.588-16.721-5.067-13.298 3.626 12.667 31.919-5.067 30.906-17.733-1.014-78.027-33.44-63.333-47.628 14.693-14.186 20.773-17.733 31.92-14.691 7.876 2.147 17.015-.461 24.527-2.924 1.347-.441 2.679-.918 4.008-1.411.789-.291 1.292-.376 1.689-.254"/></g><g clip-path="url(#b)"><defs><path id="g" d="M-14.409 4h247.257v247.257H-14.409z"/></defs><clipPath id="h"><use xlink:href="#g" overflow="visible"/></clipPath><path clip-path="url(#h)" fill="none" stroke="#000" stroke-width=".507" stroke-miterlimit="10" d="M115.759 135.165s9.582-4.912 22.111-4.668c12.528.247 17.088 14.242 33.41 4.668 13.939-8.177 3.686-25.06 3.686-25.06s7.118 4.455 10.563 13.023c4.22 10.49 3.803 26.438-13.512 33.655-22.089 9.205-32.175-2.702-48.396-2.702-7.96 0-14.495 1.72-14.495 1.72l6.633-20.636z"/></g><g clip-path="url(#b)"><defs><path id="i" d="M-14.409 4h247.257v247.257H-14.409z"/></defs><clipPath id="j"><use xlink:href="#i" overflow="visible"/></clipPath><path clip-path="url(#j)" fill="#E5C6DF" d="M119.151 51.517c.7.25 1.399.503 2.098.761.779.165 1.52.434 2.18.824 4.09 1.588 8.071 3.434 11.566 6.124 1.726 1.006 3.313 2.205 4.634 3.596.489.049.92.219 1.24.602-.155-.185-1.063-1.209-.938-1.466 6.669-13.792 4.118-29.524 4.118-29.524-8.878 1.351-15.987 9.119-15.987 9.119l-.152-3.585-4.331 7.69c-.104-1.024-1.425-4.146-1.425-4.146s-.657 4.189-.877 5.766c-.114.815-.626 2.559-1.094 4.052a53.541 53.541 0 0 0-1.646-.311c.192.033.401.224.614.498"/><g opacity=".15" clip-path="url(#j)"><defs><path id="k" d="M128.982 38.13h11.178v16.403h-11.178z"/></defs><clipPath id="l"><use xlink:href="#k" overflow="visible"/></clipPath><path clip-path="url(#l)" d="M128.982 47.559s6.846-8.365 11.178-9.428c0 0-.416 10.48-2.826 16.402 0 0-4.529-2.207-8.352-6.974"/></g><path clip-path="url(#j)" fill="#E5C6DF" d="M97.806 51.517c-.699.25-1.4.503-2.097.761a7.22 7.22 0 0 0-2.181.823c-4.091 1.589-8.07 3.435-11.567 6.125-1.726 1.006-3.313 2.205-4.633 3.596-.489.049-.92.219-1.241.602.155-.185 1.063-1.209.939-1.466-6.669-13.792-4.119-29.524-4.119-29.524 8.878 1.351 15.988 9.119 15.988 9.119l.152-3.585 4.331 7.69c.104-1.024 1.425-4.146 1.425-4.146s.657 4.189.877 5.766c.115.815.626 2.559 1.094 4.052a53.541 53.541 0 0 1 1.646-.311c-.191.033-.401.224-.614.498"/><g opacity=".15" clip-path="url(#j)"><defs><path id="m" d="M76.798 38.13h11.177v16.403H76.798z"/></defs><clipPath id="n"><use xlink:href="#m" overflow="visible"/></clipPath><path clip-path="url(#n)" d="M87.975 47.559s-6.846-8.365-11.177-9.428c0 0 .415 10.48 2.827 16.402 0 0 4.528-2.207 8.35-6.974"/></g></g><path clip-path="url(#b)" fill="#E5C6DF" d="M108.788 211.482h-9.529 19.057z"/><g clip-path="url(#b)"><defs><path id="o" d="M-14.409 4h247.257v247.257H-14.409z"/></defs><clipPath id="p"><use xlink:href="#o" overflow="visible"/></clipPath><path clip-path="url(#p)" fill="#E5C6DF" d="M143.724 202.504s8.745-8.9 14.537-20.435c9.093-18.109 13.312-41.175-17.701-35.516 1.579-6.273 2.966-12.176 3.289-17.82.507-6.08.96-7.661 1.014-10.577 2.025.177 3.98-.317 5.799-1.227-2.8-.818-5.209-2.89-6.438-5.534 2.325 1.25 5.237 1.355 7.645.27-3.189-2.458-4.835-2.724-6.926-6.165 4.333 2.732 9.876 3.459 14.768 1.938-6.498-5.624-10.867-13.652-12.062-22.164-1.45-10.329-1.24-19.399-9.201-27.359-6.564-6.563-16.627-9.099-25.906-9.71-2.297-2.292-4.64-7.675-1.819-10.433-1.906.714-5.597 3.563-4.588 5.971l-1.315-1.704c-.915 1.814-.839 4.076-.123 5.975-9.273.613-19.118 3.341-25.678 9.901-7.96 7.96-7.75 17.03-9.201 27.359-1.195 8.512-5.564 16.54-12.062 22.164 4.891 1.521 10.435.795 14.769-1.938-2.091 3.441-3.737 3.707-6.927 6.165 2.409 1.086 5.32.98 7.646-.27-1.229 2.645-3.638 4.716-6.438 5.534 1.819.909 3.773 1.403 5.799 1.227.054 2.916.506 4.497 1.014 10.577.323 5.645 1.71 11.547 3.288 17.82-31.013-5.659-26.793 17.406-17.701 35.516 5.792 11.534 14.537 20.435 14.537 20.435-4.425-1.685-13.382-.542-14.696 4.537-1.217 4.702 7.401 4.441 7.401 4.441h23.133c1.081 4.354 2.372 7.128 4.09 7.246 3.041.209 4.443-1.958 5.401-7.246h19.284c.958 5.288 2.36 7.455 5.4 7.246 1.718-.118 3.01-2.893 4.091-7.246h23.172s8.62.261 7.403-4.441c-1.315-5.079-10.273-6.222-14.698-4.537"/></g><g clip-path="url(#b)"><defs><path id="q" d="M-14.409 4h247.257v247.257H-14.409z"/></defs><clipPath id="r"><use xlink:href="#q" overflow="visible"/></clipPath><path clip-path="url(#r)" fill="#F4E6DC" d="M115.807 189.442c-.004-.033-.014-.066-.019-.1-.015-3.205-.295-6.403-.465-9.604-.104-1.988-.18-3.979-.346-5.964a59.685 59.685 0 0 1-.184-3.079c-.156-5-.12-11.546-.232-13.999a7.853 7.853 0 0 0-5.595-13.362 7.853 7.853 0 0 0-7.853 7.854 7.81 7.81 0 0 0 1.911 5.124c.077.737.124 1.426.116 1.716-.28 8.897-.476 19.993-1.014 28.88-.085 1.416-2.026 23.813-2.533 24.319.001 0 18.253.128 18.24 0-.639-6.395-1.152-15.041-2.026-21.785"/></g><g clip-path="url(#b)"><defs><path id="s" d="M106.134 43.742l-1.314-1.703c-.915 1.814-.839 4.075-.122 5.974-9.274.613-19.119 3.341-25.679 9.901-7.96 7.96-7.75 17.03-9.201 27.359-1.195 8.512-5.564 16.539-12.062 22.164 4.891 1.521 10.434.795 14.768-1.938-2.091 3.441-3.737 3.707-6.927 6.165 2.408 1.086 5.32.98 7.645-.27-1.229 2.645-3.638 4.716-6.438 5.534 1.819.91 3.774 1.403 5.799 1.227.054 2.916.506 4.497 1.014 10.577.323 5.645 1.71 11.547 3.287 17.82-31.012-5.659-26.794 17.406-17.701 35.516 5.792 11.534 14.537 20.435 14.537 20.435-4.424-1.685-13.381-.542-14.695 4.537-1.217 4.702 7.401 4.441 7.401 4.441h84.571s8.619.261 7.403-4.441c-1.315-5.079-10.272-6.222-14.697-4.537 0 0 8.745-8.9 14.537-20.435 9.093-18.11 13.312-41.175-17.701-35.516 1.578-6.273 2.966-12.176 3.289-17.82.507-6.08.96-7.661 1.014-10.577 2.025.177 3.98-.316 5.799-1.227-2.8-.818-5.209-2.89-6.438-5.534 2.325 1.25 5.236 1.355 7.645.27-3.188-2.458-4.835-2.724-6.926-6.165 4.333 2.732 9.876 3.459 14.769 1.938-6.498-5.625-10.868-13.652-12.063-22.164-1.45-10.329-1.239-19.399-9.201-27.359-6.564-6.563-16.627-9.099-25.906-9.71-2.297-2.292-4.639-7.675-1.819-10.433-1.907.714-5.596 3.565-4.588 5.971"/></defs><clipPath id="t"><use xlink:href="#s" overflow="visible"/></clipPath><path clip-path="url(#t)" fill="#B75CA8" d="M243.995 115.468c-20.268-47.627-43.067-76.507-61.308-83.095-11.801-4.261-21.478 14.592-26.431 28.436-4.842-6.196-11.262-12.243-14.61-14.756-6.08-4.558-21.787-26.853-32.933-22.291-11.146 4.558-7.6-32.928-13.173-19.256-.61 1.511 1.527 6.525 1.904 8.162 1.174 5.089 1.54 9.801 1.684 15.029.025.918.082 1.878.153 2.855C83.505 16.396 27.6-2.323 3.326 61.76c-25.334 66.881-81.575 120.083-14.694 174.804 66.881 54.722 250.803 61.813 272.59 14.187 21.787-47.629 3.039-87.655-17.227-135.283M91.486 238.59c-26.854-11.653-80.054-26.347-62.827-35.975 8.345-4.663 9.008-21.971 17.226-26.852 5.551-3.3 13.68 8.611 25.059 3.99 5.491-2.232-1.015-12.042 2.479-15.454 1.057-1.031 3.63-3.762 1.342-5.764-1.857-1.625-4.655-1.558-7.119-1.343-10.35.554 14.212-15.377-9.602-11.832-23.45 3.492-8.206 5.654-3.583-4.333l.375-.104c10.703-2.97 23.424 2.825 33.359-1.712.376-.172.762-.369 1.011-.701.355-.473.364-1.114.302-1.701a9.643 9.643 0 0 0-3.831-6.68c-4.382-3.215-11-1.484-15.979-.98-3.328.335-1.077 4.591-4.4 4.591-2.613 0-6.764 1.396-9.013-.334-.687-.527-1.137-1.298-1.572-2.046a726.668 726.668 0 0 0-7.632-12.872c-.532-.877-7.961-13.8-8.291-13.66 2.159-.918-.246-5.194 1.519-6.08 6.575-3.302 21.325 7.438 24.321 0 1.689-4.193 16.855-1.879 16.563-6.169-.528-7.781 5.218-7.234 10.967-8.367 6.925-1.361 9.772-7.137 11.259-13.442 1.063-4.51.103-9.766 2.434-13.965 3.188-5.743 4.47.011 4.837 3.35.456 4.149.43 8.39 1.718 12.404 1.565 4.873 6.336 8.45 10.49 10.989 12.088 7.387 25.41 5.45 32.781-.273 2.724 10.324 6.569 27.083 8.528 35.74-.43.128-.855.268-1.278.424a15.53 15.53 0 0 1-3.001.773c-2.459.394-4.865 1.021-7.265 1.657-2.164.572-4.335 1.101-6.551 1.421-2.094.304-4.174.65-6.204 1.259-.594.179-1.201.316-1.802.467-1.125.283-2.242.59-3.309 1.052-.872.379-1.746.755-2.617 1.135-1.464.638-2.71 1.574-3.783 2.745-.224.241-.443.485-.551.812-.178.525.138 1.027.692 1.056.455.024.917-.024 1.364.044 1.115.161 2.22.193 3.344.082 1.028-.103 2.067-.115 3.103-.12a42.098 42.098 0 0 0 4.463-.279 65.137 65.137 0 0 0 4.547-.678c1.918-.345 3.868-.456 5.814-.553a36.837 36.837 0 0 0 7.357-1.134c1.89-.485 3.771-1.012 5.585-1.723l-2.592 5.529c-2.274.646-4.589 1.131-6.896 1.649a30.508 30.508 0 0 1-4.828.664c-3.37.211-6.734.48-10.103.693-2.26.142-4.244.998-6.093 2.231-1.224.817-2.137 1.914-2.792 3.227-.389.778-.123 1.517.656 1.859.171.077.354.123.767.26.126.02.5.135.86.104 1.307-.116 2.627-.197 3.911-.45 2.403-.474 4.823-.717 7.261-.824 1.375-.061 2.752-.068 4.122-.196 3.085-.286 6.006-1.114 8.717-2.677a49.943 49.943 0 0 0 1.886-1.14s-1.122 2.391-1.134 2.421c-2.782 5.934-11.344-.274-15.508 3.841-3 2.964-1.433 7.639-.887 11.188.426 2.769-2.742 5.938.668 7.931 1.447.843 3.213.832 4.882.967 7.071.57 13.38-2.142 14.606 10.565.493 5.104 4.06 9.41 6.179 14.08-.994-.87-2.46-.863-3.778-.767-9.768.711-25.392 3.099-28.186 14.518-2.056 8.401 6.881 17.309 13.974 20.192-17.501 12.387-42.433 22.165-58.321 15.27m68.391-103.131c.01-.052.019-.148.031-.148.092-.002.185.016.278.025l-.039.152-.27-.029"/></g><g clip-path="url(#b)"><defs><path id="u" d="M-14.409 4h247.257v247.257H-14.409z"/></defs><clipPath id="v"><use xlink:href="#u" overflow="visible"/></clipPath><path clip-path="url(#v)" fill="none" stroke="#000" stroke-width=".507" stroke-miterlimit="10" d="M140.717 60.224c3.463-8.597 4.477-18.222 3.332-27.791-6.056.927-11.836 4.695-15.987 9.119l-.152-3.585-4.332 7.689c-.218-1.425-.87-2.823-1.425-4.146-.42 2.686-.681 5.43-1.435 8.045M76.54 60.494c-4.009-8.596-4.813-18.492-3.631-28.062 6.057.927 11.837 4.695 15.988 9.119l.152-3.585 4.331 7.689c.219-1.425.871-2.823 1.425-4.146.407 2.602.645 5.277 1.369 7.813m3.085 162.16h19.058m22.57-64.854c-2.227 8.854-5.359 17.404-7.03 26.512-3.547 19.34-4.774 45.224-10.102 45.589-5.327.365-5.628-6.544-7.313-24.803-1.686-18.259-1.686-38.203-1.686-38.203m-12.087 0s0 19.944-1.686 38.203c-1.685 18.259-1.986 25.168-7.313 24.803-5.326-.365-6.554-26.249-10.102-45.589-1.644-8.961-4.421-18.083-6.632-26.807"/><path clip-path="url(#v)" d="M72.627 117.903c.714.109 1.467.035 2.206-.109.741-.146 1.475-.361 2.212-.553-.712.271-1.415.567-2.15.797-.732.23-1.507.4-2.314.37a.253.253 0 0 1-.245-.263.252.252 0 0 1 .291-.242m72.258.505c-.808.03-1.582-.14-2.315-.37-.735-.23-1.438-.525-2.15-.797.737.191 1.472.407 2.213.553.738.145 1.491.219 2.205.109a.254.254 0 1 1 .077.503l-.03.002"/><path clip-path="url(#v)" fill="none" stroke="#000" stroke-width=".507" stroke-linecap="round" stroke-linejoin="round" stroke-miterlimit="10" d="M127.967 211.482h23.051s8.619.261 7.403-4.441c-1.315-5.079-10.272-6.222-14.697-4.537 0 0 8.746-8.9 14.537-20.435 9.093-18.11 13.312-41.175-17.701-35.516 1.578-6.273 2.966-12.176 3.289-17.82.507-6.08.96-7.661 1.014-10.577 2.025.177 3.98-.316 5.799-1.227-2.8-.818-5.209-2.89-6.438-5.534 2.325 1.252 5.237 1.355 7.645.27-3.189-2.458-4.835-2.724-6.926-6.165 4.333 2.732 9.876 3.459 14.768 1.938-6.498-5.625-10.867-13.652-12.062-22.164-1.45-10.329-1.24-19.399-9.201-27.359-6.564-6.563-16.627-9.099-25.906-9.71-2.297-2.292-4.64-7.675-1.819-10.433-1.907.714-5.597 3.564-4.589 5.971l-1.315-1.704c-.914 1.814-.839 4.076-.122 5.975-9.274.613-19.119 3.341-25.679 9.901-7.96 7.96-7.75 17.03-9.201 27.359-1.195 8.512-5.564 16.539-12.062 22.164 4.891 1.521 10.434.795 14.768-1.938-2.091 3.441-3.737 3.707-6.927 6.165 2.408 1.086 5.32.982 7.645-.27-1.229 2.645-3.638 4.716-6.438 5.534 1.819.91 3.773 1.403 5.799 1.227.054 2.916.506 4.497 1.014 10.577.323 5.645 1.71 11.547 3.288 17.82-31.012-5.659-26.794 17.406-17.701 35.516 5.792 11.534 14.537 20.435 14.537 20.435-4.424-1.685-13.381-.542-14.695 4.537-1.217 4.702 7.401 4.441 7.401 4.441h23.052"/><g opacity=".63" clip-path="url(#v)"><defs><path id="w" d="M83.533 115.68h13.396v6.744H83.533z"/></defs><clipPath id="x"><use xlink:href="#w" overflow="visible"/></clipPath><path clip-path="url(#x)" d="M83.837 115.68c-.692 2.211.532 4.752 2.533 5.598l.001.001-.301.393a2.684 2.684 0 0 1-.455-2.649l.215-.57.252.555c.957 2.111 3.559 3.354 5.801 2.768l-.024.482a2.52 2.52 0 0 1-1.59-2.536v-.008l.057-.766.403.646c.611.976 1.806 1.53 3 1.562.6.018 1.208-.084 1.769-.322a3.373 3.373 0 0 0 1.429-1.117c-.328.524-.815.95-1.375 1.232a4.392 4.392 0 0 1-1.821.461 4.469 4.469 0 0 1-1.877-.334 3.644 3.644 0 0 1-1.54-1.194l.46-.119v.006c-.083.837.473 1.726 1.263 2.015l.759.279-.784.203c-1.248.324-2.585.143-3.729-.404-1.144-.545-2.128-1.47-2.662-2.643l.468-.016a2.189 2.189 0 0 0 .368 2.143l.899 1.053-1.2-.659-.003-.002c-1.089-.56-1.884-1.55-2.294-2.647-.412-1.1-.45-2.341-.022-3.411"/></g><g opacity=".63" clip-path="url(#v)"><defs><path id="y" d="M120.578 115.68h13.396v6.744h-13.396z"/></defs><clipPath id="z"><use xlink:href="#y" overflow="visible"/></clipPath><path clip-path="url(#z)" d="M133.67 115.68c.428 1.07.389 2.312-.023 3.408-.41 1.098-1.204 2.088-2.294 2.647l-.002.002-1.201.659.9-1.053c.49-.573.638-1.439.367-2.143l.467.016c-.533 1.173-1.517 2.098-2.662 2.643-1.143.547-2.48.729-3.728.404l-.785-.203.759-.279c.789-.289 1.345-1.178 1.262-2.015v-.006l.46.119c-.395.54-.943.945-1.54 1.194a4.467 4.467 0 0 1-1.876.334 4.388 4.388 0 0 1-1.821-.461 3.456 3.456 0 0 1-1.376-1.232c.364.502.871.883 1.43 1.117a4.21 4.21 0 0 0 1.769.322c1.193-.031 2.389-.586 2.999-1.562l.404-.646.056.766v.008a2.519 2.519 0 0 1-1.589 2.536l-.025-.482c2.243.586 4.844-.656 5.801-2.768l.252-.555.215.57a2.685 2.685 0 0 1-.455 2.649l-.3-.393.001-.001c2.003-.843 3.226-3.384 2.535-5.595"/></g></g><g clip-path="url(#b)"><defs><path id="A" d="M79.019 58.169c-7.96 7.959-7.75 17.028-9.201 27.356-1.195 8.513-5.564 16.542-12.062 22.165 4.891 1.523 10.434.794 14.768-1.937-2.091 3.441-3.737 3.706-6.927 6.165 2.408 1.085 5.32.982 7.645-.271-1.229 2.646-3.638 4.717-6.438 5.536 1.819.91 3.774 1.403 5.799 1.226.054 2.916.506 4.496 1.014 10.577.323 5.646 1.71 11.547 3.287 17.821-31.012-5.661-26.793 17.406-17.701 35.516 5.792 11.535 14.537 20.436 14.537 20.436-4.424-1.687-13.381-.543-14.695 4.537-1.217 4.7 7.401 4.44 7.401 4.44h23.133c1.081 4.352 2.372 7.128 4.09 7.246 3.04.208 4.443-1.959 5.4-7.246h19.285c.958 5.287 2.361 7.454 5.4 7.246 1.718-.118 3.009-2.895 4.091-7.246h23.172s8.619.26 7.403-4.44c-1.315-5.08-10.272-6.224-14.697-4.537 0 0 8.745-8.9 14.537-20.436 9.093-18.109 13.312-41.177-17.701-35.516 1.578-6.274 2.966-12.176 3.289-17.821.507-6.081.96-7.661 1.014-10.577 2.025.178 3.98-.315 5.799-1.226-2.8-.819-5.209-2.89-6.438-5.536 2.325 1.254 5.236 1.356 7.645.271-3.188-2.459-4.835-2.724-6.926-6.165 4.333 2.73 9.876 3.46 14.769 1.937-6.498-5.623-10.868-13.652-12.063-22.165-1.45-10.328-1.239-19.397-9.201-27.356-7.487-7.488-19.465-9.902-29.714-9.984-10.25.082-22.228 2.496-29.714 9.984"/></defs><clipPath id="B"><use xlink:href="#A" overflow="visible"/></clipPath><g opacity=".05" clip-path="url(#B)"><defs><path id="C" d="M37.525 37.156H179.9v201.559H37.525z"/></defs><clipPath id="D"><use xlink:href="#C" overflow="visible"/></clipPath><path clip-path="url(#D)" d="M98.58 42.507S61.592 62.268 80.34 149.414c0 0-49.401-10.892-2.533 54.216 0 0-24.647 2.458-12.667 11.146 33.188 24.067 91.455-1.267 91.455-1.267s7.093-9.626-16.214-9.626c0 0 46.108-61.814-3.04-53.708 0 0 20.267-86.642-15.201-104.882-8.271-4.254 33.44-3.04 33.44-3.04l24.32 146.429-6.586 36.988S51.712 245.429 49.686 236.31c-2.027-9.121-12.161-48.642-12.161-48.642s11.147-89.175 10.641-93.734c-.507-4.56 9.626-56.24 10.64-56.748 1.013-.505 39.774 5.321 39.774 5.321"/></g></g><g clip-path="url(#b)"><defs><path id="E" d="M-14.409 4h247.257v247.257H-14.409z"/></defs><clipPath id="F"><use xlink:href="#E" overflow="visible"/></clipPath><path clip-path="url(#F)" fill="#E0605C" d="M108.436 100.268c-2.995 0-3.351-4.154-3.267-6.853l.841-.585c1.268 1.181 1.949.135 2.426-1.678.482 1.713 1.197 2.646 2.466 1.722l.801.557c.081 2.7-.28 6.837-3.267 6.837"/><path clip-path="url(#F)" fill="#393C3D" d="M113.681 94.355c-.142 0-.279-.018-.411-.054a1.403 1.403 0 0 1-.702-.447c-.449.141-.8.065-1.031-.035a1.666 1.666 0 0 1-.668-.563c-.267.297-.672.504-1.226.421-1.27-.194-1.533-3.557-1.587-4.993a.379.379 0 0 1 .363-.393.382.382 0 0 1 .392.363c.08 2.137.541 4.216.946 4.275.568.087.715-.418.747-.573l.004-.019c.078-.382.618-.404.725-.028l.004.015c.051.171.259.652.606.804.195.086.424.062.699-.075l.003-.003a.374.374 0 0 1 .512.188l.001.005c.002.004.121.256.421.333.372.097.895-.094 1.514-.546a.39.39 0 0 1 .515.04.377.377 0 0 1-.054.558c-.655.484-1.249.727-1.773.727"/><path clip-path="url(#F)" fill="#393C3D" d="M103.188 94.355c-.519 0-1.109-.239-1.761-.716a.392.392 0 0 1-.115-.507.376.376 0 0 1 .549-.111c.625.46 1.153.652 1.527.555a.669.669 0 0 0 .424-.34l.001-.003a.38.38 0 0 1 .509-.183l.004.002c.276.137.505.161.701.075.35-.154.558-.645.604-.804l.004-.016c.108-.379.653-.353.726.033l.003.017c.031.154.181.66.747.571.406-.06.866-2.139.946-4.275a.381.381 0 0 1 .391-.363.38.38 0 0 1 .363.393c-.054 1.437-.316 4.799-1.587 4.993-.554.083-.959-.124-1.226-.42-.159.22-.376.433-.667.563-.23.101-.582.176-1.031.035a1.403 1.403 0 0 1-.702.447 1.502 1.502 0 0 1-.41.054"/></g><g clip-path="url(#b)"><defs><path id="G" d="M-14.409 4h247.257v247.257H-14.409z"/></defs><clipPath id="H"><use xlink:href="#G" overflow="visible"/></clipPath><g opacity=".1" clip-path="url(#H)"><defs><path id="I" d="M147.952 71.468h.549v.559h-.549z"/></defs><clipPath id="J"><use xlink:href="#I" overflow="visible"/></clipPath><path clip-path="url(#J)" fill="#A5A5A5" d="M147.952 71.468c.013.184.042.37.083.559.168-.025.329-.059.466-.107 0-.001-.213-.164-.549-.452"/></g></g><path clip-path="url(#b)" fill="#E5C6DF" d="M108.788 211.482h-9.529 19.057z"/><g clip-path="url(#b)"><defs><path id="K" d="M-14.409 4h247.257v247.257H-14.409z"/></defs><clipPath id="L"><use xlink:href="#K" overflow="visible"/></clipPath><path clip-path="url(#L)" fill="#393C3D" d="M116.492 81.333c0 2.76-3.519 8.316-8.211 8.316s-8.211-5.557-8.211-8.316c0-2.761 3.518-4.142 8.211-4.142s8.211 1.381 8.211 4.142"/></g><g clip-path="url(#b)"><defs><path id="M" d="M100.069 81.333c0 2.76 3.519 8.316 8.212 8.316s8.211-5.557 8.211-8.316c0-2.761-3.518-4.142-8.211-4.142-4.693 0-8.212 1.381-8.212 4.142"/></defs><clipPath id="N"><use xlink:href="#M" overflow="visible"/></clipPath><g opacity=".55" clip-path="url(#N)"><defs><path id="O" d="M97.755 77.589h20.492v15.492H97.755z"/></defs><clipPath id="P"><use xlink:href="#O" overflow="visible"/></clipPath><path clip-path="url(#P)" fill="#1B1D1E" d="M99.512 79.824c0 2.644 1.952 5.058 3.885 6.664 2.964 2.465 6.429 2.457 9.682.491 2.86-1.73 3.997-4.801 3.997-8.033 0-6.148 2.634 10.537 0 11.415-2.635.879-13.173 4.392-14.929 1.757s-4.392-7.025-4.392-7.025l1.757-5.269z"/></g></g><g clip-path="url(#b)"><defs><path id="Q" d="M-14.409 4h247.257v247.257H-14.409z"/></defs><clipPath id="R"><use xlink:href="#Q" overflow="visible"/></clipPath><path clip-path="url(#R)" fill="#FFF" d="M88.259 59.735c-6.445 0-11.668 5.223-11.668 11.667 0 6.445 5.224 11.67 11.668 11.67s11.669-5.225 11.669-11.67c0-6.444-5.224-11.667-11.669-11.667"/><circle clip-path="url(#R)" fill="none" stroke="#000" stroke-width=".507" stroke-linecap="round" stroke-linejoin="round" cx="88.259" cy="71.404" r="11.668"/><path clip-path="url(#R)" fill="#C74383" d="M94.427 71.095a5.974 5.974 0 0 1-11.949 0 5.974 5.974 0 1 1 11.949 0"/><path clip-path="url(#R)" fill="#31323C" d="M92.827 71.095a4.374 4.374 0 0 1-4.375 4.374 4.374 4.374 0 1 1 0-8.749 4.375 4.375 0 0 1 4.375 4.375"/><path clip-path="url(#R)" fill="#FFF" d="M92.54 67.161a1.595 1.595 0 1 1-3.19 0 1.595 1.595 0 0 1 3.19 0m-4.56 6.278a.78.78 0 1 1-1.56 0 .78.78 0 1 1 1.56 0m40.813-13.704c-6.444 0-11.669 5.223-11.669 11.667 0 6.445 5.225 11.67 11.669 11.67s11.668-5.225 11.668-11.67c0-6.444-5.224-11.667-11.668-11.667"/><circle clip-path="url(#R)" fill="none" stroke="#000" stroke-width=".507" stroke-linecap="round" stroke-linejoin="round" cx="128.793" cy="71.404" r="11.668"/><path clip-path="url(#R)" fill="#C74383" d="M134.961 71.602a5.976 5.976 0 1 1-11.951-.003 5.976 5.976 0 0 1 11.951.003"/><path clip-path="url(#R)" fill="#31323C" d="M133.361 71.602a4.375 4.375 0 1 1-8.75-.001 4.375 4.375 0 0 1 8.75.001"/><path clip-path="url(#R)" fill="#FFF" d="M133.074 67.669a1.595 1.595 0 1 1-3.19-.002 1.595 1.595 0 0 1 3.19.002m-4.56 6.277a.78.78 0 1 1-1.558.002.78.78 0 0 1 1.558-.002"/><path clip-path="url(#R)" fill-rule="evenodd" clip-rule="evenodd" fill="#E8C5AE" d="M-4.214 96.179c-.004.034.001.089-.018.099-.034.02-.089.03-.124.015-.13-.057-.123-.114.02-.146.037-.006.081.019.122.032"/><path clip-path="url(#R)" d="M144.885 118.408c-.808.03-1.582-.14-2.315-.37-.735-.23-1.438-.525-2.15-.797.737.191 1.472.407 2.213.553.738.145 1.491.219 2.205.109a.254.254 0 1 1 .077.503l-.03.002"/></g></svg>