<svg xmlns="http://www.w3.org/2000/svg" xmlns:xlink="http://www.w3.org/1999/xlink" width="200" height="200" viewBox="0 0 200 200"><path fill="#FCD7BC" d="M-43-43h286v286H-43z"/><defs><path id="a" d="M-50-5.486h300v300H-50z"/></defs><clipPath id="b"><use xlink:href="#a" overflow="visible"/></clipPath><g clip-path="url(#b)"><defs><path id="c" d="M-50-5.486h300v300H-50z"/></defs><clipPath id="d"><use xlink:href="#c" overflow="visible"/></clipPath><path clip-path="url(#d)" fill="#F9F5ED" d="M136.501 159.134s25.679 5.617 36.586-15.339c10.906-20.956 6.1-47.03 6.1-47.03s29.868 21.021 21.528 48.186c0 0 7.809 3.192-5.347 11.362 0 0 6.648 3.553-3.603 6.85 0 0 7.86 13.223-26.676 14.319-19.473.619-32.978-7.587-32.978-7.587l4.39-10.761z"/></g><g clip-path="url(#b)"><defs><path id="e" d="M173.087 143.795c-10.906 20.956-36.586 15.339-36.586 15.339l-4.39 10.761s13.504 8.206 32.978 7.587c34.536-1.098 26.676-14.319 26.676-14.319 10.251-3.298 3.603-6.849 3.603-6.849 13.156-8.171 5.347-11.363 5.347-11.363 8.34-27.163-21.528-48.186-21.528-48.186s4.806 26.074-6.1 47.03"/></defs><clipPath id="f"><use xlink:href="#e" overflow="visible"/></clipPath><path clip-path="url(#f)" fill="#E8C5AE" d="M191.598 89.801c0 1.844-7.376 14.139-2.458 27.049 4.918 12.911 14.754-4.919 17.828 14.14 3.073 19.058 9.222 42.419-1.844 27.663-11.065-14.754-10.451-45.491-22.131-25.204-11.681 20.286-10.452 18.443-3.689 31.967 6.762 13.526 36.887 23.976 13.525 28.895-23.361 4.917-40.573-23.361-38.115-27.666 2.458-4.302 10.451.616 12.911-5.532 2.458-6.147-9.836-9.835-3.075-20.901 6.762-11.064 13.523-7.992 16.599-15.367 3.074-7.379-3.688-15.984-3.688-15.984s-12.295 7.375-9.835-3.074c2.458-10.45 13.524-27.05 13.524-27.05l-53.483 82.377s-27.665 33.198 17.212 47.952c44.879 14.754 77.459-16.6 77.459-16.6l7.378-81.763L197.134 68.9l-5.536 20.901z"/></g><g clip-path="url(#b)"><defs><path id="g" d="M-50-5.486h300v300H-50z"/></defs><clipPath id="h"><use xlink:href="#g" overflow="visible"/></clipPath><path clip-path="url(#h)" fill="none" stroke="#000" stroke-width=".615" stroke-miterlimit="10" d="M136.501 159.134s25.679 5.617 36.586-15.339c10.906-20.956 6.1-47.03 6.1-47.03s29.868 21.021 21.528 48.186c0 0 7.809 3.192-5.347 11.362 0 0 6.648 3.553-3.603 6.85 0 0 7.86 13.223-26.676 14.319-19.473.619-32.978-7.587-32.978-7.587l4.39-10.761z"/></g><g clip-path="url(#b)"><defs><path id="i" d="M-50-5.486h300v300H-50z"/></defs><clipPath id="j"><use xlink:href="#i" overflow="visible"/></clipPath><path clip-path="url(#j)" fill="#F9F5ED" d="M123.741 52.422s5.211-18.367 23.449-21.103c0 0 8.255 19.227-8.858 33.609"/><g opacity=".15" clip-path="url(#j)"><defs><path id="k" d="M126.739 36.328h18.013V60.5h-18.013z"/></defs><clipPath id="l"><use xlink:href="#k" overflow="visible"/></clipPath><path clip-path="url(#l)" d="M126.739 53.725s4.614-13.229 17.381-17.396c0 0 3.798 14.141-7.248 24.172l-10.133-6.776z"/></g><path clip-path="url(#j)" fill="#F9F5ED" d="M76.025 52.422s-5.211-18.367-23.448-21.103c0 0-8.255 19.227 8.857 33.609"/><g opacity=".15" clip-path="url(#j)"><defs><path id="m" d="M55.016 36.328h18.012V60.5H55.016z"/></defs><clipPath id="n"><use xlink:href="#m" overflow="visible"/></clipPath><path clip-path="url(#n)" d="M73.028 53.725s-4.615-13.229-17.381-17.396c0 0-3.799 14.141 7.248 24.172l10.133-6.776z"/></g></g><g clip-path="url(#b)"><defs><path id="o" d="M-50-5.486h300v300H-50z"/></defs><clipPath id="p"><use xlink:href="#o" overflow="visible"/></clipPath><path clip-path="url(#p)" fill="#F9F5ED" d="M166.797 194.044c1.868-6.481 3.328-14.009-.438-20.12-5.665-9.191-18.615-7.867-27.743-6.447 2.685-10.656 5-21.491 5.847-32.466.348-4.511.272-9.049.743-13.549.337-3.222 2.46-6.149 2.46-6.149s-1.844-.615-1.778-2.104a4.087 4.087 0 0 0 2.18-1.708c-1.41-.134-2.379-1.571-2.575-2.974-.195-1.402.167-2.813.313-4.221.147-1.407.024-2.97-.94-4.006 2.916.632 6.162-.905 7.521-3.561-2.974-1.143-5.431-3.566-6.617-6.526 2.221.987 4.856.741 7.066-.27 2.208-1.012 4.033-2.72 5.569-4.602-5.102-.353-9.993-3.063-12.997-7.203.943.074 2.259.289 3.324-.776-2.91-1.395-5.629-6.426-7.422-10.246-5.938-12.666-20.012-17.749-33.148-19.147l.12 1.573-.568-.188c.761-3.658 3.527-6.385 3.659-6.583-3.688-.614-5.409 1.353-5.409 1.353-2.151-3.013-1.414-11.495-1.414-11.495-4.243 3.38-5.471 10.143-5.471 10.143-1.845-3.073-6.147-5.84-6.147-5.84 3.443 8.176 1.844 8.914 1.844 8.914-2.458-1.229-6.146-2.028-6.146-2.028 5.163 6.454 2.581 8.176 2.581 8.176h.742l-1.084.955.381-4.979c-13.136 1.398-27.211 6.481-33.15 19.147-1.79 3.82-4.513 8.852-7.422 10.246 1.065 1.065 2.381.851 3.325.776-3.004 4.14-7.895 6.851-12.998 7.203 1.537 1.882 3.361 3.59 5.57 4.602 2.208 1.011 4.845 1.257 7.065.27-1.186 2.96-3.643 5.384-6.617 6.526 1.36 2.655 4.605 4.192 7.521 3.561-.964 1.036-1.087 2.599-.94 4.006.146 1.407.508 2.818.313 4.221-.194 1.402-1.165 2.84-2.574 2.974a4.084 4.084 0 0 0 2.18 1.708c.065 1.488-1.779 2.104-1.779 2.104s2.123 2.928 2.459 6.149c.471 4.5.396 9.038.744 13.549.848 10.975 3.163 21.81 5.848 32.466-9.128-1.42-22.08-2.744-27.743 6.447-3.766 6.111-2.305 13.639-.438 20.12a91.233 91.233 0 0 0 8.865 20.72c4.324 7.406 9.64 14.199 15.413 20.527-.025-.02-.014.01.063.071-3.197-1.214-6.763-1.831-10.155-1.168-2.742.536-7.535 3.033-7.885 6.468-.47 4.603 6.865 4.918 9.879 5.062 8.973.432 18.235.531 27.281.531l.023-.3c1.326 5.453 2.914 8.946 5.038 9.092 3.747.257 5.443-2.462 6.606-9.099h23.29c1.164 6.637 2.861 9.355 6.607 9.099 2.385-.163 4.094-4.549 5.515-11.192l.184 2.4c9.047 0 18.308-.1 27.281-.531 3.014-.144 10.349-.459 9.88-5.062-.35-3.435-5.144-5.932-7.887-6.468-3.391-.663-6.957-.046-10.153 1.168.078-.062.089-.091.063-.071 5.773-6.328 11.089-13.121 15.415-20.527a91.468 91.468 0 0 0 8.86-20.721"/><path clip-path="url(#p)" fill="#F9F5ED" d="M91.248 47.97c-13.136 1.398-27.211 6.481-33.15 19.147-1.79 3.82-4.513 8.852-7.422 10.246 1.065 1.065 2.381.851 3.325.776-3.004 4.14-7.895 6.851-12.998 7.203 1.537 1.882 3.361 3.59 5.57 4.602 2.208 1.011 4.845 1.257 7.065.271-1.185 2.958-3.643 5.382-6.617 6.524 1.36 2.655 4.605 4.192 7.521 3.561-.964 1.036-1.087 2.599-.94 4.007.146 1.406.508 2.817.313 4.22-.194 1.402-1.165 2.84-2.574 2.974a4.079 4.079 0 0 0 2.18 1.708c.065 1.488-1.779 2.104-1.779 2.104s2.123 2.929 2.459 6.148c.471 4.501.396 9.039.744 13.55.848 10.975 3.163 21.81 5.848 32.466-9.128-1.42-22.08-2.744-27.743 6.447-3.765 6.111-2.305 13.639-.438 20.12a91.233 91.233 0 0 0 8.865 20.72c4.324 7.406 9.64 14.199 15.413 20.527-.025-.02-.014.01.063.071-3.197-1.212-6.763-1.831-10.155-1.168-2.742.536-7.535 3.033-7.885 6.468-.47 4.603 6.865 4.918 9.879 5.062 8.973.432 18.235.531 27.281.531l.023-.3c1.326 5.454 2.913 8.946 5.038 9.092 3.747.257 5.443-2.462 6.606-9.099h23.29c1.164 6.637 2.861 9.355 6.607 9.099 2.385-.163 4.094-4.549 5.515-11.192l.184 2.4c9.047 0 18.31-.1 27.281-.531 3.014-.144 10.349-.459 9.88-5.062-.35-3.435-5.144-5.932-7.887-6.468-3.391-.663-6.957-.044-10.153 1.168.078-.062.089-.091.063-.071 5.773-6.328 11.089-13.121 15.415-20.527a91.21 91.21 0 0 0 8.864-20.72c1.868-6.481 3.328-14.009-.438-20.12-5.665-9.191-18.615-7.867-27.743-6.447 2.685-10.656 5-21.491 5.847-32.466.348-4.511.272-9.049.743-13.55.337-3.22 2.46-6.148 2.46-6.148s-1.844-.615-1.778-2.104a4.083 4.083 0 0 0 2.18-1.708c-1.41-.134-2.379-1.571-2.575-2.974-.195-1.402.167-2.813.313-4.22.147-1.408.024-2.971-.94-4.007 2.916.632 6.162-.905 7.521-3.561-2.974-1.143-5.431-3.566-6.617-6.524 2.221.985 4.856.739 7.066-.271 2.208-1.012 4.033-2.72 5.569-4.602-5.102-.353-9.993-3.063-12.997-7.203.943.074 2.259.289 3.324-.776-2.91-1.395-5.629-6.426-7.422-10.246-5.938-12.666-20.012-17.749-33.148-19.147"/><path clip-path="url(#p)" fill="#F9F5ED" d="M107.713 49.354c.761-3.659 3.527-6.385 3.659-6.583-3.688-.614-5.409 1.353-5.409 1.353-2.151-3.013-1.414-11.495-1.414-11.495-4.243 3.38-5.471 10.143-5.471 10.143-1.845-3.073-6.147-5.84-6.147-5.84 3.443 8.176 1.844 8.914 1.844 8.914-2.458-1.229-6.146-2.028-6.146-2.028"/></g><g clip-path="url(#b)"><defs><path id="q" d="M99.078 42.771c-1.845-3.073-6.147-5.84-6.147-5.84 3.443 8.176 1.844 8.914 1.844 8.914-2.458-1.229-6.146-2.028-6.146-2.028 5.163 6.454 2.581 8.176 2.581 8.176h.742l-1.084.956.381-4.979c-13.136 1.397-27.211 6.48-33.15 19.146-1.791 3.82-4.513 8.852-7.422 10.246 1.065 1.065 2.381.851 3.325.776-3.004 4.14-7.895 6.849-12.998 7.203 1.535 1.882 3.361 3.59 5.568 4.602 2.21 1.011 4.847 1.257 7.067.271-1.185 2.959-3.643 5.383-6.617 6.525 1.36 2.655 4.605 4.192 7.521 3.561-.965 1.036-1.088 2.599-.94 4.007.146 1.406.509 2.817.313 4.22-.195 1.402-1.165 2.84-2.574 2.974a4.087 4.087 0 0 0 2.18 1.708c.065 1.488-1.779 2.104-1.779 2.104s2.123 2.929 2.459 6.148c.472 4.501.396 9.039.744 13.55.848 10.975 3.163 21.81 5.848 32.466-9.128-1.42-22.078-2.744-27.743 6.447-3.765 6.111-2.307 13.639-.438 20.12a91.23 91.23 0 0 0 8.864 20.72c4.325 7.406 9.641 14.199 15.414 20.527-.025-.02-.014.009.063.071-3.197-1.214-6.762-1.831-10.155-1.168-2.742.536-7.535 3.033-7.885 6.468-.469 4.603 6.864 4.918 9.879 5.062 8.973.432 18.234.531 27.281.531l.023-.3c1.326 5.454 2.914 8.946 5.038 9.092 3.747.257 5.443-2.462 6.607-9.099h23.289c1.164 6.637 2.861 9.355 6.607 9.099 2.385-.163 4.093-4.549 5.515-11.192l.184 2.4c9.047 0 18.31-.1 27.281-.531 3.015-.144 10.349-.459 9.88-5.062-.35-3.435-5.144-5.932-7.887-6.468-3.391-.663-6.957-.046-10.154 1.168.077-.063.09-.091.063-.071 5.773-6.328 11.089-13.121 15.415-20.527a91.255 91.255 0 0 0 8.864-20.72c1.868-6.481 3.328-14.009-.438-20.12-5.665-9.191-18.615-7.867-27.744-6.447 2.684-10.656 5.001-21.491 5.849-32.466.348-4.511.272-9.049.743-13.55.337-3.22 2.46-6.148 2.46-6.148s-1.844-.615-1.778-2.104a4.087 4.087 0 0 0 2.18-1.708c-1.408-.134-2.379-1.571-2.575-2.974-.195-1.402.167-2.813.313-4.22.147-1.408.024-2.971-.94-4.007 2.916.632 6.162-.905 7.521-3.561-2.974-1.143-5.431-3.566-6.617-6.525 2.219.986 4.856.74 7.066-.271 2.208-1.012 4.033-2.72 5.57-4.602-5.104-.354-9.994-3.063-12.999-7.203.943.074 2.259.289 3.324-.776-2.909-1.395-5.629-6.426-7.422-10.246-5.938-12.666-20.014-17.749-33.148-19.146l.12 1.573-.568-.189c.761-3.659 3.527-6.385 3.659-6.583-3.688-.614-5.409 1.354-5.409 1.354-2.151-3.014-1.414-11.496-1.414-11.496-4.245 3.38-5.474 10.142-5.474 10.142"/></defs><clipPath id="r"><use xlink:href="#q" overflow="visible"/></clipPath><path clip-path="url(#r)" fill-rule="evenodd" clip-rule="evenodd" fill="#E8C5AE" d="M206.221 154.364c.634.06 1.081.07 1.521.148.835.146 1.654.103 2.493 0 1.048-.127 2.111-.148 3.169-.183.924-.033 1.77.237 2.479.841 1.291 1.1 2.77 1.864 4.336 2.478 1.338.524 2.351 1.471 3.27 2.536.631.733.789 1.58.603 2.507a2.742 2.742 0 0 1-.188.64c-.65 1.343-.286 2.604.289 3.854.444.96.918 1.91 1.309 2.893.628 1.587.516 3.164-.217 4.702-.368.771-.89 1.432-1.583 1.914-1.776 1.236-3.726 1.999-5.924 2.015-1.309.007-2.541-.373-3.719-.873-.963-.41-1.634-1.206-1.832-2.249-.196-1.038-.284-2.098-.35-3.153-.036-.55.073-1.109.132-1.661.035-.333.12-.658.153-.99.112-1.148-.251-2.076-1.25-2.723-.419-.274-.811-.593-1.217-.887-1.327-.956-2.774-1.072-4.298-.599-.211.066-.412.179-.627.232-2.118.531-3.417 2.003-4.403 3.83a3.272 3.272 0 0 0 .65 3.973c.539.5 1.128.951 1.838 1.126 1.878.466 2.523 2.484 2.085 4.171-.394 1.507-1.208 2.751-2.691 3.44-.605.282-1.2.595-1.815.856-.822.349-1.629.273-2.408-.169a4.79 4.79 0 0 1-1.863-1.867c-.845-1.507-1.727-2.991-2.581-4.494-.281-.493-.637-.916-1.113-1.226-1.12-.726-1.774-1.843-2.415-2.948-.572-.985-.474-2.04-.012-3.056a8.389 8.389 0 0 1 1.81-2.593 11.036 11.036 0 0 0 2.476-3.537c.593-1.344 1.543-2.412 2.598-3.441 1.815-1.771 3.782-3.285 6.117-4.304.354-.154.682-.383.996-.611.715-.521 1.499-.717 2.182-.592m13.117 109.08c-.501 0-1.002-.007-1.503.003-.766.015-1.412.31-1.909.894-.655.769-1.214 1.597-1.526 2.57-.404 1.257-.142 1.982.958 2.707.462.306.944.599 1.361.956.625.535.91 1.241.921 2.073.008.851-.136 1.664-.507 2.431-.67 1.382-1.769 1.95-3.282 1.698-.272-.047-.539-.149-.811-.201-.497-.098-1-.117-1.495-.003-2.159.499-4.076-.276-5.898-1.244-1.079-.574-1.664-1.602-1.69-2.896-.028-1.51.004-3.014.417-4.477.378-1.34.697-2.694 1.214-3.997.265-.67.466-1.372.617-2.077.311-1.479 1.036-2.688 2.193-3.651.172-.142.345-.284.504-.438 1.364-1.313 2.955-2.157 4.842-2.442 1.11-.167 2.136-.609 3.142-1.101a45.473 45.473 0 0 1 2.439-1.094c.909-.378 1.851-.399 2.783-.098 1.329.435 2.695.692 4.067.933 1.613.287 3.125.81 4.368 1.947.285.261.637.449.953.677 1.63 1.164 2.57 2.733 2.845 4.723.32 2.315.645 4.63 1.17 6.913.199.866.314 1.756.403 2.64.215 2.151-1.146 4.384-3.043 5.096-.701.264-1.423.274-2.145.217-.893-.071-1.766-.112-2.63.239-.519.213-1.098.163-1.656.114-1.074-.091-2.125-.255-2.79-1.247-.777-1.157-1.166-2.406-.765-3.801.121-.426.312-.835.468-1.251.157-.418.323-.831.459-1.256.313-.975.189-1.883-.534-2.641-.518-.542-.884-1.12-.933-1.9-.034-.575-.454-.902-1.004-.944-.663-.048-1.334-.009-2.003-.009v-.063zm-41.701-69.496c.862-.228 1.723-.465 2.589-.675 1.204-.296 2.43-.379 3.651-.169 2.332.4 4.555.053 6.684-.926.584-.267 1.166-.369 1.785-.286 1.561.21 3.042.568 4.275 1.688 1.31 1.192 1.817 2.624 1.642 4.339a9.748 9.748 0 0 1-.198 1.155c-.239 1.098.007 1.98 1.052 2.554.683.377 1.03.99 1.159 1.747.125.751 0 1.451-.436 2.073a10.7 10.7 0 0 1-.847 1.032c-1.237 1.371-2.646 2.555-4.035 3.761-.765.663-1.677 1.097-2.593 1.51-.51.229-1.052.389-1.623.285-.269-.049-.618-.092-.768-.272-.573-.673-1.234-1.298-1.528-2.16a1.916 1.916 0 0 1 .082-1.47c.29-.609.436-1.259.595-1.909.104-.429.292-.84.473-1.245.136-.306.327-.584.478-.883.711-1.399.573-1.895-.77-2.736-.423-.268-.858-.523-1.279-.794-.799-.508-1.657-.624-2.568-.402-1.627.398-3.201.961-4.737 1.63-.61.265-.929.699-.97 1.414-.094 1.631.015 3.226.551 4.782.125.367.233.745.329 1.123.588 2.334-.681 4.558-2.985 5.203-.75.208-1.507.378-2.297.405-2.908.098-4.844-1.377-6.187-3.796-.351-.63-.589-1.322-.87-1.99-.571-1.355-.564-2.714.019-4.062.199-.46.408-.92.673-1.343.389-.625.683-1.274.767-2.011.132-1.123.538-2.166 1.03-3.166.897-1.834 2.253-3.165 4.271-3.722.86-.238 1.726-.454 2.588-.681l-.002-.003m24.892 35.672c-.042-.258-.045-.315-.061-.366-.684-2.098-1.485-2.003-3.189-1.697-1.433.261-2.466 1.265-3.244 2.469a2.237 2.237 0 0 0-.318 1.765c.56 2.358-.338 4.396-1.496 6.34-.521.872-1.456 1.367-2.294 1.895-.534.336-1.237.261-1.751-.124-1.063-.797-2.217-1.446-3.192-2.401-1.379-1.351-1.917-2.954-2.064-4.782-.06-.72-.132-1.44-.195-2.16-.021-.224-.084-.453-.045-.666.335-1.86.543-3.76 1.401-5.484.246-.496.515-1.009.887-1.406 1.338-1.423 2.739-2.784 4.517-3.674.548-.276 1.08-.582 1.62-.872.245-.133.478-.302.739-.391 2.265-.776 4.52-1.606 6.962-1.638.67-.01 1.339.012 2.008-.02 1.543-.066 2.975.389 4.392.907 1.105.402 1.826 1.257 2.428 2.214.651 1.038 1.304 2.08 1.888 3.155 1.204 2.223 1.457 4.547.497 6.921-.257.639-.405 1.259-.389 1.94a5.33 5.33 0 0 1-.093 1.164c-.253 1.283-1.342 2.413-2.641 2.378-.742-.02-1.42.205-2.108.455-1.365.497-2.561.095-3.329-1.118-.356-.563-.646-1.174-.906-1.788-.427-1-.659-2.024-.024-3.016m7.101 3.601c.021-.044.059-.087.054-.128-.002-.025-.076-.069-.106-.061-.116.032-.142.114-.071.211.01.017.08-.014.123-.022m-14.277 25.904a12.577 12.577 0 0 1 1.841-.795c1.365-.442 2.542.014 3.274 1.267.37.633.748 1.24 1.332 1.698 1.02.805 1.135 2.368.51 3.518a5.372 5.372 0 0 1-.672.955c-.448.514-.73 1.083-.941 1.74-.781 2.438-2.458 4.065-4.807 5.004-1.137.455-2.303.84-3.469 1.22-1.075.352-2.174.548-3.281.151-1.422-.508-2.815-1.07-3.958-2.111-.495-.447-1.024-.861-1.532-1.295-1.856-1.587-3.06-3.666-4.308-5.712-.144-.233-.215-.511-.319-.771-.23-.568-.442-1.146-.688-1.706-.797-1.819-1.003-3.761-1.124-5.711-.033-.544.088-1.111.215-1.649.444-1.877 1.498-3.47 2.43-5.115.106-.188.302-.324.459-.482.509-.513 1.025-1.02 1.532-1.536 1.281-1.313 2.72-2.2 4.644-2.358 1.359-.111 2.661.127 3.988.194.644.032 1.232.424 1.427 1.024.309.94.712 1.92.553 2.923-.352 2.233-.963 4.374-2.9 5.832a2.232 2.232 0 0 0-.885 1.56c-.169 1.423-.019 2.855.918 3.972 1.112 1.325 1.668 1.908 3.537.733.046-.027.083-.071.279-.242.147-1.172.98-1.809 1.945-2.308m5.738 3.979c-.117.028-.149.108-.081.208.019.024.104.039.121.021.029-.029.029-.087.041-.133-.027-.034-.063-.101-.081-.096m22.944-69.189c1.417-.079 2.697.319 3.98.696.489.146.9.428 1.303.731.47.356.789.79.764 1.403-.022.572.121 1.114.322 1.632.311.792.141 1.541-.143 2.275-.312.804-.971 1.209-1.842 1.142-.497-.037-.985-.18-1.481-.242-1.114-.137-1.656.243-1.961 1.328-.216.767-.275 1.535-.026 2.305.322 1.002.877 1.826 1.925 2.151 1.116.343 2.253.618 3.389.896.262.066.555.039.83.012a66.931 66.931 0 0 0 2.483-.294 4.06 4.06 0 0 0 .965-.246c.678-.282.985-.907.783-1.635-.225-.804-.511-1.583-.505-2.44.006-.808.167-1.542.623-2.213.279-.415.503-.867.792-1.274.729-1.022 1.566-1.875 2.96-1.892.38-.004.758-.154 1.143-.213 1.299-.204 2.277.577 2.402 1.916.021.22.009.443.019.667.071 1.445.059 2.896.284 4.332.069.438.051.89.077 1.333.088 1.548-.497 2.857-1.551 3.922-1.135 1.148-2.342 2.226-3.562 3.282-.905.782-2.026 1.164-3.181 1.406-1.142.238-2.294.473-3.454.593-2.305.237-4.558-.036-6.716-.933-.726-.3-1.425-.642-1.973-1.224-.435-.462-.98-.716-1.573-.905-.477-.153-.936-.371-1.416-.509-1.329-.376-2.376-1.166-3.337-2.128-1.153-1.149-1.492-2.449-.862-3.955.235-.561.55-1.091.862-1.616.225-.384.511-.729.756-1.102.65-.979.873-2.041.544-3.187a7.261 7.261 0 0 1-.279-2.313c.022-.58.218-1.084.615-1.511.615-.663 1.299-1.219 2.17-1.515 1.275-.428 2.56-.784 3.871-.675m4.054 2.964c.031.021.06.045.089.067l-.102-.054-.073-.091.086.078zm10.871 4.309c-.131-.023-.209.027-.216.152-.002.038.036.103.072.118.038.017.135-.001.137-.016.014-.083.007-.169.007-.254m-11.029-1.027l.126-.073c-.033-.032-.063-.084-.102-.094-.139-.033-.201.019-.158.127.011.027.089.028.134.04m-1.81 12.049l.127-.076c-.037-.031-.074-.085-.112-.087-.042-.003-.084.045-.125.072.036.028.072.059.11.091m17.94-28.939c-.176-.409-.391-.807-.52-1.229-.32-1.056-.087-1.839.859-2.453.767-.496 1.198-1.113 1.296-2.015.059-.553.194-1.097.304-1.643.366-1.797 1.032-2.412 2.886-2.726 1.051-.177 2.11-.19 3.165-.141.838.041 1.667.038 2.498-.089 1.405-.218 2.767-.128 4.088.472.501.229 1.065.315 1.599.477.536.163 1.048.369 1.476.752 1.077.96 1.111 2.496.092 3.546-.667.688-1.478.973-2.411.952-1-.02-2.021.048-2.999-.112-1.302-.213-2.264.375-3.23 1.052-.485.34-.712.854-.766 1.428-.038.386.004.778-.013 1.168-.071 1.69-1.026 2.827-2.682 3.147-.601.116-1.217.15-1.824.217-1.282.146-2.754-.609-3.346-1.732-.181-.344-.312-.715-.466-1.074l-.006.003m-2.793 59.827c-.042.009-.113.038-.125.021-.071-.097-.043-.179.072-.21.029-.009.104.035.106.06.004.041-.033.086-.053.129"/><path clip-path="url(#r)" fill-rule="evenodd" clip-rule="evenodd" fill="#E8C5AE" d="M242.775 202.821c0 .082.008.169-.007.253-.002.015-.099.034-.137.016-.036-.016-.074-.079-.071-.118.007-.125.083-.176.215-.151m-11.027-1.027c-.047-.013-.123-.014-.133-.041-.043-.108.02-.16.156-.126.041.009.068.061.103.093-.044.024-.084.049-.126.074m-1.813 12.048l-.109-.092c.041-.027.083-.074.124-.071.041.002.076.057.114.087l-.129.076m1.971-15.333l-.087-.075.072.09z"/><path clip-path="url(#r)" fill-rule="evenodd" clip-rule="evenodd" fill="#E8C5AE" d="M231.891 198.524c.035.019.069.036.104.053l-.088-.068-.016.015zm9.713 40.507c1.253-.816 2.155-1.959 2.906-3.222.315-.528.535-1.11.81-1.665.917-1.863.92-3.782.378-5.717-.195-.695-.498-1.358-.767-2.03a2.053 2.053 0 0 0-.337-.57c-1.156-1.321-2.488-2.402-4.232-2.864a13.86 13.86 0 0 0-4.668-.428c-.975.076-1.859.438-2.743.794-.745.299-1.11.932-1.162 1.718-.07 1.02.098 2.014.56 2.92.57 1.118 1.473 1.8 2.776 1.864.394.018.788.008 1.179.029.524.026.975.242 1.368.574.655.553.627 1.491-.062 2.029a1.31 1.31 0 0 1-.438.244c-1.79.469-2.685 1.954-3.715 3.268-.369.468-.372 1.036-.149 1.598.4 1.007 1.065 1.687 2.199 1.806.333.035.671.085 1.003.059a10.136 10.136 0 0 1 2.683.132c.869.165 1.669-.052 2.411-.539m-19.92-1.841c-.043-.071.015.1.13.211 1.213 1.149 2.158 2.522 3.227 3.793 1.121 1.334 2.745 2.069 4.187 3.014.091.061.2.119.308.13 1.522.138 3.036.178 4.349-.817.881-.666 1.007-1.784.304-2.666-.241-.302-.544-.556-.822-.828-.907-.893-1.574-2.007-2.65-2.749-.377-.261-.484-.74-.473-1.202.022-1.063.002-2.117-.381-3.13-.145-.385-.037-.772.143-1.134.495-.992.061-1.869-.396-2.687-.341-.613-1.014-.932-1.715-.861-.997.104-2 .283-2.968.546-.65.174-1.18.64-1.608 1.183-.49.616-.973 1.235-1.469 1.845-1.085 1.333-1.484 3.391-.166 5.352M-.087 222.021c2.559-.134 4.706.711 6.491 2.537.659.676 1.396 1.28 2.125 1.884 1.448 1.198 2.548 2.634 3.188 4.415.379 1.062.476 2.179.597 3.278.106.964.319 1.864.814 2.691 1.038 1.736.782 3.462-.221 5.058a13.605 13.605 0 0 1-3.526 3.758c-1.508 1.1-3.143 1.366-4.909.815-.958-.3-1.897-.649-2.846-.975-1.173-.401-1.79-1.715-1.233-2.845.344-.7.623-1.432.982-2.12.497-.952.76-1.975.986-3.008.227-1.031.008-1.959-.606-2.847-1.092-1.577-2.63-2.388-4.453-2.672-1.271-.201-2.547-.18-3.76.419-.545.269-1.146.429-1.735.596-.858.247-1.48.746-1.836 1.571-.111.255-.24.503-.363.752-.259.528-.33 1.059-.047 1.604.103.198.17.414.275.609.83 1.553 1.039 3.284 1.381 4.969.27 1.332-.125 2.058-1.344 2.755-.774.44-1.57.842-2.358 1.256-.43.227-.864.188-1.282-.027-.248-.128-.48-.281-.715-.432-1.477-.946-2.639-2.226-3.688-3.602-.882-1.153-1.177-2.5-.92-3.948.166-.932.308-1.867.503-2.792.232-1.106.28-2.21.07-3.319-.37-1.958.341-3.431 1.856-4.689 2.624-2.18 5.674-3.497 8.836-4.608.624-.22 1.304-.285 1.962-.39.935-.148 1.885-.216 2.806-.415.99-.215 1.982-.291 2.97-.278m-45.033 35.844c-.378.155-.775.35-1.192.483-1.208.384-1.672.804-1.683 1.937-.01 1.123-.254 2.214-.314 3.326a5.5 5.5 0 0 1-.222 1.313c-.249.803-.483 1.594-.421 2.453.077 1.048-.957 2.12-2.169 2.059-.722-.04-1.451.03-2.173 0-.439-.018-.896-.072-1.309-.218a28.868 28.868 0 0 1-2.316-.967c-.833-.38-1.462-1.003-1.97-1.761-.733-1.101-.933-2.25-.395-3.49.289-.666.541-1.349.869-1.993.448-.873.638-1.778.537-2.749-.074-.721-.115-1.446-.241-2.157-.138-.793-.099-1.555.189-2.304.359-.936.685-1.888 1.094-2.804.491-1.097 1.251-1.973 2.351-2.52.249-.125.511-.235.737-.395 1.404-.988 2.957-1.245 4.623-.976 1.046.168 2.093.32 3.133.518 1.317.251 2.621.533 3.974.215.666-.157 1.338-.048 1.97.219 1.902.803 3.804 1.601 5.222 3.206.328.37.768.642 1.149.964.426.361.849.724 1.264 1.095.569.508.844 1.137.888 1.913.06 1.055.193 2.107.305 3.158.108 1.01.488 1.946.838 2.886.254.682.419 1.384.603 2.082.295 1.129.138 2.208-.144 3.302-.302 1.169-1.072 1.831-2.223 1.976-.943.118-1.881.167-2.75.621-.3.155-.66.106-.984 0-1.484-.49-2.947-1.044-4.307-1.826-.918-.528-1.164-1.052-.986-2.075.066-.383.222-.75.292-1.132.238-1.267.097-2.449-.85-3.423a290.902 290.902 0 0 0-2.463-2.505c-.242-.244-.55-.376-.926-.431M6.1 199.628c.116.393.212.823.369 1.231.456 1.183.42 1.807-.458 2.523-.87.712-1.568 1.584-2.398 2.327a5.46 5.46 0 0 0-.886.993c-.47.695-.941 1.376-1.65 1.863-.866.596-1.057 2.074-.248 2.98.482.539.882 1.151 1.358 1.694.289.332.618.655.989.884.711.44 1.455.829 2.202 1.204.819.411 1.698.514 2.607.434 1.315-.113 2.34-.679 2.971-1.874.338-.641.713-1.265 1.01-1.925.401-.894.989-1.609 1.809-2.139.609-.391 1.201-.815 1.834-1.161.706-.389 1.274-.896 1.68-1.587.505-.868 1.044-1.716 1.502-2.607.549-1.069.756-2.213.495-3.411-.059-.271-.136-.546-.153-.821-.107-1.714-.878-3.087-2.13-4.217-.785-.71-1.56-1.432-2.363-2.121-1.02-.87-2.057-1.713-2.654-2.967-.294-.616-.798-1.072-1.402-1.398-1.816-.982-3.629-1.967-5.769-2.069-.495-.023-.98-.198-1.472-.293a74.446 74.446 0 0 0-1.645-.302c-.751-.127-1.414.052-2.045.503-.861.615-1.767 1.167-2.658 1.738-.854.548-1.822.837-2.773 1.151-.691.228-1.341.539-2.002.833-1.065.476-1.808 1.272-2.485 2.178-.724.966-.76 1.98-.151 2.969.497.811 1.044 1.573 1.236 2.533.066.333.331.583.616.769 1.311.852 2.657 1.646 4.117 2.217.987.389 1.549.251 2.236-.527.257-.29.446-.642.7-.935.84-.979 1.85-1.609 3.203-1.479 1.166.112 2.332.229 3.495.354.338.037.636.195.913.455m-44.8 12.361c.161.266.291.51.453.729.48.653.722 1.377.701 2.187-.005.222-.014.445.003.669.089 1.104.699 1.598 1.803 1.373.652-.131 1.297-.34 1.914-.59 1.025-.412 2.032-.538 3.088-.127.359.14.758.195 1.143.245.852.114 1.273-.188 1.437-1.003.045-.218.072-.441.084-.662.045-.791.272-1.536.581-2.254.586-1.361.853-2.747.575-4.237-.238-1.268.229-2.43.832-3.51.52-.938 1.35-1.124 2.276-.61.696.388 1.334.899 1.641 1.621.456 1.078 1.141 2.03 1.529 3.146.878 2.532.945 5.015-.202 7.47-.66 1.41-1.376 2.797-2.081 4.187a5.36 5.36 0 0 1-2.762 2.569c-1.379.577-2.68 1.365-4.207 1.581-.478.067-.937.346-1.379.575-1.664.863-3.396 1.374-5.299 1.249-.997-.066-2.004-.03-3.007-.017a7.193 7.193 0 0 1-2.929-.584 17.588 17.588 0 0 1-4.408-2.677c-.813-.675-1.305-1.512-1.286-2.603a3.073 3.073 0 0 0-.075-.83c-.417-1.586-.142-3.09.491-4.563a14.14 14.14 0 0 0 .574-1.568c.143-.48-.048-.917-.494-1.118-.453-.207-.939-.334-1.411-.503-.575-.203-1.176-.36-1.718-.633-.714-.359-.912-.926-.701-1.673.457-1.626 2.491-4.222 3.958-5.034.291-.162.594-.323.911-.414a19.925 19.925 0 0 1 4.271-.751c1.156-.072 2.01.37 2.661 1.371.779 1.198 1.19 2.512 1.476 3.88a3.614 3.614 0 0 1-.098 1.818c-.131.423-.23.857-.345 1.291m23.298-41.018c-.262.614-.552 1.226-.907 1.788-.768 1.213-1.964 1.616-3.33 1.119-.687-.25-1.366-.475-2.107-.455-1.298.034-2.387-1.095-2.643-2.379a5.388 5.388 0 0 1-.092-1.163c.016-.683-.131-1.303-.39-1.941-.958-2.374-.707-4.698.5-6.921.582-1.075 1.233-2.117 1.887-3.157.601-.954 1.322-1.81 2.427-2.212 1.418-.517 2.85-.975 4.392-.905.668.028 1.34.009 2.009.018 2.441.032 4.695.863 6.962 1.637.26.089.493.258.739.391.54.291 1.072.597 1.619.872 1.778.892 3.177 2.251 4.516 3.674.374.397.644.913.889 1.408.858 1.725 1.066 3.623 1.401 5.484.039.213-.025.442-.045.663-.063.723-.136 1.442-.194 2.163-.147 1.828-.687 3.431-2.066 4.78-.974.956-2.127 1.604-3.19 2.401-.515.387-1.218.46-1.752.125-.838-.527-1.775-1.022-2.294-1.895-1.157-1.944-2.055-3.979-1.496-6.341a2.238 2.238 0 0 0-.317-1.765c-.779-1.202-1.812-2.208-3.246-2.467-1.703-.308-2.502-.401-3.188 1.695-.017.053-.019.109-.06.368.633.991.4 2.015-.024 3.015m-6.956.608c.073-.097.044-.18-.071-.21-.031-.009-.104.035-.107.059-.003.041.035.086.055.129.043.007.112.038.123.022m-42.788 11.692c-.175-.409-.39-.807-.52-1.229-.32-1.056-.086-1.839.859-2.453.766-.496 1.198-1.113 1.296-2.015.058-.553.194-1.097.304-1.643.366-1.797 1.032-2.412 2.887-2.726 1.05-.177 2.109-.19 3.164-.141.838.041 1.667.038 2.498-.089 1.405-.218 2.767-.128 4.088.472.501.229 1.065.315 1.599.477.536.163 1.048.369 1.476.752 1.077.96 1.11 2.496.092 3.546-.667.688-1.478.973-2.412.952-1-.02-2.02.048-2.999-.112-1.302-.213-2.264.375-3.229 1.052-.485.34-.713.854-.767 1.428-.038.386.004.778-.012 1.168-.072 1.69-1.027 2.827-2.683 3.147-.599.116-1.214.15-1.823.217-1.282.146-2.754-.609-3.346-1.732-.181-.344-.313-.715-.467-1.074-.001.001-.003.003-.005.003m8.262 5.984c1.271-.42 2.471-1.005 3.787-1.319 1.343-.319 2.205-1.247 2.562-2.603.129-.485.223-.98.378-1.457.48-1.469 1.443-2.027 2.966-1.704 1.033.223 1.847.752 2.249 1.793.239.624.53 1.229.757 1.856.393 1.082.45 2.176.014 3.267-.394.981-.764 1.973-1.415 2.831-1.262 1.662-2.931 2.704-4.904 3.306a3.8 3.8 0 0 1-2.145.019c-.722-.198-1.421-.214-2.14-.011-.974.277-1.887.064-2.707-.487-.551-.374-1.065-.809-1.577-1.236-.438-.364-.707-.854-.903-1.383-.354-.951-.172-1.43.776-1.877.757-.358 1.535-.665 2.302-.995m81.137 42.115c-.446 0-.895.041-1.335-.009-1.096-.12-1.724-.642-1.914-1.756-.154-.899-.551-1.539-1.341-1.984-.483-.273-.931-.611-1.389-.93-1.505-1.045-1.809-1.899-1.366-3.726.25-1.037.656-2.015 1.121-2.964.367-.755.691-1.517.901-2.329.356-1.377.977-2.596 2.048-3.571.407-.371.71-.856 1.067-1.28.362-.43.753-.817 1.273-1.062 1.309-.61 2.731-.034 3.295 1.315.368.884.311 1.741-.075 2.59-.415.913-.754 1.875-1.287 2.711-.71 1.112-.548 2.23-.307 3.383.12.582.502.992 1.009 1.27.34.186.718.303 1.067.471 1.527.734 2.194 2.058 1.835 3.706-.13.599-.342 1.177-.52 1.762-.373 1.235-1.647 2.291-2.914 2.39-.388.032-.78.006-1.169.006v.007zm8.759-5.232c.114-1.332.051-2.665.281-3.999.235-1.359-.277-2.518-1.381-3.381-.395-.31-.813-.592-1.188-.922-1.162-1.021-1.296-2.129-.396-3.397.61-.861 1.419-1.401 2.534-1.359.668.025 1.339-.003 2.005.036 1.147.067 2.176.444 3.006 1.275.748.75 1.511 1.479 2.042 2.417 1.03 1.815 1.33 3.761 1.105 5.812a3.809 3.809 0 0 1-.831 1.977c-.466.586-.758 1.221-.854 1.963-.13 1.004-.686 1.759-1.517 2.294-.561.361-1.16.661-1.756.962-.509.259-1.065.311-1.63.284-1.012-.05-1.379-.405-1.417-1.454-.027-.835-.003-1.672-.003-2.508m0-142.314c.114-1.333.051-2.666.281-3.997.235-1.36-.277-2.521-1.381-3.383-.395-.31-.813-.593-1.188-.922-1.162-1.021-1.296-2.127-.396-3.398.61-.861 1.419-1.4 2.534-1.359.668.026 1.339-.002 2.005.036 1.147.067 2.176.445 3.006 1.275.748.749 1.511 1.481 2.042 2.418 1.03 1.815 1.33 3.761 1.105 5.81a3.815 3.815 0 0 1-.831 1.979c-.466.584-.758 1.221-.854 1.963-.13 1.004-.686 1.759-1.517 2.294-.559.36-1.158.66-1.755.96-.509.26-1.065.312-1.63.285-1.012-.051-1.379-.406-1.417-1.453-.028-.836-.004-1.674-.004-2.508"/><path clip-path="url(#r)" fill-rule="evenodd" clip-rule="evenodd" fill="#E8C5AE" d="M40.161 204.619c.633.06 1.082.07 1.521.149.834.146 1.654.103 2.493 0 1.049-.128 2.111-.149 3.169-.185.924-.031 1.77.237 2.479.842 1.291 1.1 2.77 1.864 4.336 2.479 1.338.523 2.352 1.469 3.27 2.536.631.732.789 1.579.604 2.505a2.814 2.814 0 0 1-.189.64c-.65 1.345-.287 2.605.289 3.855.445.962.918 1.91 1.309 2.893.629 1.587.517 3.165-.217 4.701-.367.771-.891 1.432-1.583 1.914-1.777 1.237-3.726 2-5.923 2.015-1.31.008-2.542-.372-3.72-.874-.963-.408-1.635-1.203-1.832-2.247-.196-1.037-.284-2.099-.351-3.154-.035-.549.072-1.108.132-1.661.036-.332.119-.657.153-.989.113-1.147-.25-2.075-1.25-2.724-.421-.272-.812-.592-1.218-.884-1.327-.958-2.772-1.074-4.297-.6-.212.067-.412.18-.626.233-2.119.53-3.417 2.001-4.403 3.829a3.273 3.273 0 0 0 .649 3.973c.539.498 1.129.95 1.839 1.125 1.878.465 2.522 2.486 2.084 4.171-.393 1.508-1.208 2.75-2.689 3.441-.606.282-1.202.594-1.816.854-.823.352-1.628.275-2.408-.167a4.8 4.8 0 0 1-1.864-1.867c-.845-1.507-1.726-2.989-2.58-4.492-.282-.495-.639-.918-1.114-1.226-1.12-.728-1.773-1.844-2.414-2.951-.572-.984-.474-2.04-.011-3.056a8.417 8.417 0 0 1 1.809-2.592 11.002 11.002 0 0 0 2.475-3.537c.592-1.343 1.543-2.411 2.598-3.441 1.816-1.772 3.782-3.285 6.118-4.304.353-.154.682-.383.996-.61.716-.524 1.5-.721 2.182-.594m10.111-103.506c.115.392.211.823.368 1.23.455 1.183.42 1.807-.458 2.523-.871.714-1.569 1.583-2.399 2.328-.33.293-.64.628-.886.994-.471.695-.942 1.373-1.65 1.861-.867.596-1.058 2.074-.248 2.979.481.539.883 1.151 1.357 1.696.29.331.619.654.99.884.71.439 1.455.828 2.202 1.202.819.413 1.699.515 2.607.435 1.317-.113 2.34-.678 2.97-1.874.338-.64.715-1.265 1.011-1.925.402-.895.988-1.61 1.809-2.139.608-.392 1.202-.813 1.834-1.161.706-.389 1.274-.896 1.678-1.587.507-.867 1.046-1.717 1.503-2.608.55-1.067.756-2.211.497-3.41-.06-.271-.137-.546-.154-.821-.107-1.713-.878-3.084-2.13-4.217-.785-.71-1.56-1.433-2.364-2.12-1.019-.871-2.057-1.713-2.654-2.968-.294-.616-.799-1.072-1.402-1.399-1.816-.981-3.629-1.965-5.769-2.068-.494-.023-.98-.196-1.472-.292a60.977 60.977 0 0 0-1.645-.303c-.751-.126-1.415.052-2.047.502-.86.615-1.765 1.169-2.656 1.74-.855.547-1.823.836-2.774 1.15-.691.229-1.341.538-2.003.834-1.064.475-1.807 1.271-2.484 2.176-.724.966-.759 1.982-.15 2.97.497.811 1.044 1.574 1.235 2.534.066.332.33.583.616.767 1.311.854 2.657 1.647 4.117 2.219.988.388 1.549.25 2.236-.529.257-.288.446-.641.701-.935.839-.977 1.85-1.608 3.203-1.479 1.167.112 2.331.229 3.496.356.341.038.638.194.915.455m104.522 129.949c-.262.614-.551 1.226-.908 1.788-.767 1.214-1.964 1.614-3.329 1.12-.687-.251-1.368-.477-2.107-.456-1.299.034-2.388-1.095-2.644-2.378a5.334 5.334 0 0 1-.09-1.164c.015-.682-.133-1.302-.392-1.941-.957-2.375-.706-4.696.5-6.92.583-1.077 1.233-2.119 1.888-3.156.602-.955 1.322-1.811 2.426-2.215 1.419-.517 2.851-.973 4.393-.904.669.028 1.339.009 2.009.019 2.44.031 4.696.861 6.961 1.636.261.089.493.258.739.39.539.292 1.072.6 1.619.872 1.777.892 3.176 2.252 4.515 3.676.374.397.644.91.889 1.406.859 1.726 1.067 3.624 1.401 5.486.038.212-.026.442-.045.664-.063.721-.136 1.439-.194 2.161-.147 1.827-.686 3.43-2.066 4.781-.974.955-2.126 1.604-3.189 2.399-.516.388-1.219.463-1.753.127-.838-.527-1.774-1.022-2.294-1.896-1.156-1.943-2.054-3.981-1.497-6.34a2.235 2.235 0 0 0-.315-1.766c-.781-1.203-1.813-2.208-3.246-2.467-1.704-.307-2.503-.401-3.188 1.697-.018.051-.019.108-.061.365.636.994.403 2.017-.022 3.016m-6.955.609c.072-.098.043-.18-.071-.212-.03-.008-.105.036-.107.06-.003.042.034.086.054.129.042.008.112.039.124.023m-58.381 22.756c-.175-.409-.39-.806-.52-1.229-.321-1.055-.088-1.839.859-2.452.765-.498 1.197-1.113 1.295-2.016.06-.553.195-1.096.305-1.643.367-1.795 1.033-2.411 2.886-2.726 1.05-.178 2.109-.19 3.165-.14.838.038 1.667.037 2.498-.091 1.406-.215 2.767-.125 4.088.475.5.227 1.065.313 1.598.476.536.161 1.048.369 1.477.752 1.076.96 1.109 2.495.091 3.547-.667.685-1.478.971-2.411.951-1.001-.021-2.021.048-3-.112-1.301-.214-2.263.376-3.229 1.052-.486.34-.713.853-.767 1.428-.038.386.004.778-.012 1.167-.072 1.691-1.026 2.829-2.682 3.148-.6.116-1.216.149-1.825.217-1.282.145-2.754-.61-3.345-1.734-.182-.343-.312-.714-.467-1.072l-.004.002m8.262 5.985c1.271-.42 2.47-1.006 3.786-1.32 1.342-.319 2.205-1.246 2.563-2.603.128-.485.223-.98.378-1.456.48-1.469 1.443-2.03 2.966-1.705 1.033.223 1.847.754 2.248 1.793.241.624.531 1.229.759 1.857.391 1.081.45 2.176.013 3.265-.393.983-.764 1.973-1.414 2.831-1.261 1.664-2.931 2.706-4.903 3.308a3.831 3.831 0 0 1-2.146.019c-.721-.198-1.42-.216-2.139-.011-.975.276-1.887.064-2.708-.49-.55-.371-1.065-.806-1.576-1.232-.438-.365-.707-.857-.903-1.386-.353-.952-.171-1.428.776-1.875.754-.359 1.533-.667 2.3-.995"/><path clip-path="url(#r)" fill-rule="evenodd" clip-rule="evenodd" fill="#E8C5AE" d="M45.694 77.061c.633.058 1.082.07 1.521.146.835.146 1.655.103 2.494.001 1.048-.126 2.111-.147 3.168-.183.925-.031 1.771.236 2.48.841 1.291 1.101 2.77 1.863 4.336 2.479 1.338.523 2.352 1.469 3.27 2.535.631.732.79 1.579.603 2.507a2.736 2.736 0 0 1-.189.639c-.649 1.344-.286 2.605.289 3.854.445.96.919 1.911 1.309 2.894.63 1.586.517 3.163-.216 4.7-.368.772-.891 1.433-1.583 1.916-1.777 1.235-3.727 1.996-5.924 2.014-1.309.007-2.542-.373-3.719-.874-.962-.41-1.636-1.204-1.832-2.248-.195-1.037-.284-2.099-.35-3.153-.035-.55.072-1.108.132-1.663.036-.33.12-.657.154-.987.113-1.148-.251-2.076-1.25-2.725-.421-.272-1.618.34-2.025.047-1.327-.957-.934-1.09-2.458-.616-.212.067-1.443-.735-1.659-.682-2.118.531-3.417 2.002-4.402 3.83a3.272 3.272 0 0 0 .648 3.973c.539.501 1.129.95 1.839 1.126 1.878.465 2.523 2.484 2.085 4.17-.394 1.508-1.208 2.752-2.691 3.442-.605.282-1.201.593-1.815.854-.823.351-1.628.273-2.408-.168a4.798 4.798 0 0 1-1.864-1.869c-.844-1.506-1.725-2.989-2.58-4.492-.282-.495-.639-.918-1.114-1.226-1.12-.728-1.773-1.843-2.415-2.95-.571-.983-.474-2.04-.011-3.053a8.35 8.35 0 0 1 1.809-2.593 11.024 11.024 0 0 0 2.476-3.539c.592-1.343 1.542-2.412 2.598-3.441 1.816-1.771 3.782-3.285 6.118-4.304.353-.154.682-.382.997-.61.712-.522 1.496-.718 2.179-.592m101.446 53.515c2.558-.133 6.773.712 8.558 2.538.659.676-.671 1.279.058 1.883 1.448 1.197 2.548 2.636 3.188 4.416.379 1.063.476 2.178.597 3.276.106.965.318 1.866.813 2.692 1.038 1.737.781 3.464-.22 5.058a13.582 13.582 0 0 1-3.527 3.759c-1.506 1.1-3.143 1.367-4.908.815-.957-.299-1.897-.65-2.847-.977-1.171-.401-1.789-1.713-1.231-2.844.343-.697.622-1.43.982-2.121.496-.952.76-1.975.986-3.008.225-1.032.006-1.959-.606-2.846-1.092-1.575-2.63-2.385-4.454-2.673-1.27-.199-2.547-.18-3.76.421-.544.271.921.427.334.596-.858.246-3.549.744-3.906 1.57-.11.256-.239.503-.362.753-.258.528-.33 1.057-.047 1.603.102.197.169.413.274.608.83 1.556 3.108 3.286 3.449 4.971.271 1.332-.124 2.058-1.343 2.753-.774.441-3.639.844-4.426 1.26-.43.224-.865.185-1.282-.031-.248-.126-.482-.28-.715-.431-1.477-.946-2.64-2.227-3.688-3.6-.88-1.155.892-2.501 1.149-3.949.166-.933.309-1.867.503-2.794.232-1.104.28-2.208.069-3.317-.37-1.958-1.727-3.43-.211-4.688 2.624-2.182 7.743-3.501 10.906-4.612.622-.22 1.303-.284 1.962-.389.934-.146 1.884-.217 2.805-.415.988-.212-.09-.291.9-.277m31.205 57.635c.556 0 1.117.027 1.67-.005.666-.041 1.159-.402 1.447-.993.27-.548.497-1.12.734-1.686.367-.875.764-1.728 1.231-2.559.754-1.346 1.149-2.779.626-4.332-.296-.878-.063-1.62.56-2.304 1.43-1.568 3.023-1.903 4.975-1.039.949.419 1.722.997 2.207 1.946.198.391.478.756.783 1.074.574.598.848 1.316.891 2.11a9.13 9.13 0 0 0 .487 2.452c.206.603.223 1.195.042 1.806-.142.48-.285.965-.371 1.458-.387 2.216-1.448 4.066-2.976 5.694-.914.975-1.74 2.028-2.613 3.043-.64.743-1.429 1.128-2.422 1.33-1.468.297-2.999.306-4.41.894-.564.234-1.161.394-1.726.627-1.469.61-2.917.653-4.36-.078a9.064 9.064 0 0 0-2.856-.904 9.621 9.621 0 0 1-1.786-.429c-1.426-.494-2.877-.882-4.368-1.113-.854-.131-1.579-.517-2.267-1.007-.44-.315-.692-.729-.702-1.264a15.73 15.73 0 0 1 .034-1.504c.064-.854-.055-1.665-.458-2.431a8.387 8.387 0 0 1-.348-.759c-.38-.935-.335-1.854.14-2.743.45-.839.982-1.621 1.675-2.282.484-.461.974-.921 1.438-1.402 1.007-1.043 1.175-2.236.567-3.538-.166-.354-.388-.678-.567-1.023-1.228-2.353-.071-5.026 2.499-5.673.977-.246 1.986-.304 2.928.242.238.137.513.271.776.282 1.214.057 1.841.955 2.546 1.731.635.7.765 1.571.811 2.486.064 1.352-.277 2.529-1.214 3.527-.341.365-.628.781-.934 1.181-.37.482-.486 1.021-.182 1.563.612 1.083.979 2.241 1.185 3.458.192 1.135.94 1.715 1.982 2.021.765.229 1.547.158 2.326.143m-8.895-15.003c-.049-.013-.102-.046-.147-.037-.173.037-.182.107-.024.176.041.019.11.007.15-.019.023-.013.017-.078.021-.12"/><path clip-path="url(#r)" fill-rule="evenodd" clip-rule="evenodd" fill="#E8C5AE" d="M146.592 144.29c-.377.156-.773.351-1.191.482-1.208.386-1.671.804-1.683 1.938-.01 1.122-.253 2.214-.314 3.326a5.516 5.516 0 0 1-.221 1.312c-.248.804-.484 1.595-.42 2.454.077 1.049-.956 2.122-2.17 2.058-.722-.037-1.45.031-2.173.001-.44-.018-.897-.072-1.309-.218a29.177 29.177 0 0 1-2.314-.965c-.834-.383-1.463-1.004-1.971-1.763-.734-1.098-3.001-2.25-2.465-3.489.29-.666 2.611-1.35 2.94-1.993.447-.874.636-1.779.536-2.749-.074-.721-.116-1.446-.242-2.158-.139-.794-.1-1.554.188-2.302.361-.938.685-1.889 1.095-2.805.491-1.097 1.252-1.974 2.351-2.52.25-.124.511-.236.736-.394 1.405-.989 2.959-1.246 4.624-.978 1.046.17 2.094.321 3.133.519 1.316.251 2.622.533 3.975.213.664-.155 1.338-.047 1.967.219 1.903.805 3.805 1.604 5.223 3.207.328.37.767.643 1.149.965.426.36.847.725 1.265 1.095.568.508.845 1.137.888 1.912.058 1.056.193 2.108.304 3.158.108 1.012.489 1.947.839 2.885.254.682.418 1.383.601 2.085.296 1.127.139 2.207-.143 3.3-.301 1.169-1.072 1.831-2.224 1.976-.942.117-1.88.169-2.748.62-.3.156-.66.107-.984 0-1.485-.489-2.947-1.041-4.308-1.826-.918-.527-1.163-1.05-.985-2.073.064-.384.221-.749.292-1.132.238-1.267.096-2.45-.851-3.424a290.787 290.787 0 0 0-2.462-2.505c-.242-.242-.55-.377-.928-.431"/><path clip-path="url(#r)" fill-rule="evenodd" clip-rule="evenodd" fill="#E8C5AE" d="M160.704 128.471c.115.393.211.824.37 1.233.455 1.181.419 1.806-.458 2.524-.871.71-1.569 1.581-2.399 2.325a5.43 5.43 0 0 0-.886.993c-.471.696-.942 1.374-1.651 1.863-.867.595-1.058 2.072-.247 2.979.482.539.882 1.151 1.358 1.694.289.334.618.655.989.884.709.44 1.455.829 2.202 1.205.818.411 1.697.513 2.607.435 1.317-.115 2.339-.68 2.97-1.873.336-.644.712-1.268 1.01-1.928.402-.894.989-1.609 1.81-2.137.607-.395 1.2-.814 1.833-1.163.707-.387 1.275-.894 1.68-1.586.506-.866 1.045-1.716 1.501-2.608.55-1.068.758-2.21.498-3.412-.061-.269-.137-.544-.154-.82-.109-1.714-.879-3.086-2.131-4.217-.785-.709-1.56-1.431-2.365-2.119-1.018-.871-2.054-1.713-2.653-2.967-.294-.617-.798-1.073-1.401-1.399-1.817-.982-3.63-1.967-5.77-2.071-.493-.021-.98-.195-1.472-.293a80.684 80.684 0 0 0-1.644-.301c-.752-.126-1.416.054-2.046.502-.862.615-1.766 1.17-2.658 1.74-.854.548-1.823.837-2.774 1.151-.69.228-1.34.539-2.002.833-1.064.475-1.808 1.272-2.484 2.178-.724.967-.758 1.981-.151 2.969.498.81 1.045 1.572 1.236 2.53.066.334.33.586.616.771 1.311.853 2.656 1.646 4.118 2.219.987.386 1.549.249 2.235-.53.256-.29.447-.64.701-.935.839-.979 1.851-1.608 3.202-1.479 1.166.111 2.331.229 3.495.355.341.039.638.195.915.455M47.927 158.463c-.042-.258-.045-.313-.062-.367-.685-2.096-1.485-2.003-3.188-1.695-1.434.26-2.466 1.265-3.246 2.468a2.242 2.242 0 0 0-.317 1.765c.558 2.36-.338 4.396-1.495 6.339-.521.874-1.458 1.367-2.295 1.896-.534.336-1.238.262-1.752-.125-1.063-.796-2.216-1.445-3.191-2.4-1.379-1.352-1.918-2.953-2.065-4.781-.059-.721-.13-1.439-.195-2.161-.019-.223-.083-.45-.045-.665.335-1.861.544-3.76 1.4-5.485.247-.496.517-1.01.891-1.406 1.337-1.423 2.738-2.782 4.514-3.675.549-.275 1.08-.581 1.62-.872.245-.132.479-.3.738-.39 2.267-.775 4.521-1.606 6.964-1.637.668-.011 1.338.011 2.006-.02 1.543-.068 2.975.39 4.392.907 1.105.403 1.826 1.258 2.428 2.213.653 1.038 1.304 2.08 1.888 3.155 1.205 2.223 1.456 4.548.498 6.921-.258.64-.406 1.259-.39 1.941a5.33 5.33 0 0 1-.092 1.163c-.254 1.284-1.342 2.412-2.643 2.378-.74-.018-1.419.208-2.107.457-1.365.495-2.561.094-3.329-1.121a12.49 12.49 0 0 1-.907-1.787c-.424-1.001-.657-2.024-.02-3.016m7.1 3.601c.021-.043.057-.089.053-.129-.001-.025-.076-.068-.106-.061-.116.032-.143.115-.072.212.012.016.083-.014.125-.022m100.382-65.938c-.262.613-.552 1.226-.908 1.787-.766 1.214-1.964 1.615-3.328 1.119-.688-.249-1.368-.475-2.109-.455-1.298.035-2.386-1.095-2.641-2.378a5.398 5.398 0 0 1-.093-1.164c.015-.682-.132-1.302-.391-1.941-.958-2.373-.705-4.696.5-6.92.583-1.077 1.234-2.119 1.887-3.157.601-.955 1.322-1.811 2.426-2.213 1.419-.518 2.85-.974 4.393-.906.668.029 1.339.01 2.008.019 2.44.03 4.696.862 6.962 1.639.26.088.493.257.739.389.539.291 1.071.598 1.62.871 1.776.893 3.175 2.253 4.514 3.676.373.397.643.911.889 1.406.858 1.726 1.066 3.624 1.4 5.486.039.212-.024.442-.044.665-.064.72-.137 1.439-.195 2.16-.147 1.828-.685 3.432-2.065 4.782-.973.955-2.126 1.603-3.191 2.4-.514.386-1.218.46-1.75.124-.838-.527-1.775-1.021-2.295-1.895-1.156-1.944-2.055-3.979-1.496-6.34a2.24 2.24 0 0 0-.318-1.766c-.779-1.2-1.812-2.207-3.244-2.466-1.704-.309-2.502-.402-3.189 1.695-.016.052-.018.109-.06.366.636.995.404 2.017-.021 3.017m-6.956.608c.074-.098.046-.179-.071-.212-.029-.006-.104.037-.106.061-.004.042.035.087.054.13.042.006.113.035.123.021m-120.645 88.62c.197.173.235.215.28.244 1.868 1.174 2.424.591 3.537-.734.936-1.113 1.088-2.548.919-3.972a2.245 2.245 0 0 0-.885-1.56c-1.939-1.457-2.551-3.598-2.903-5.831-.158-1.004.246-1.982.553-2.925.195-.599.784-.991 1.427-1.023 1.327-.066 2.628-.306 3.988-.193 1.924.157 3.363 1.045 4.645 2.357.505.518 1.022 1.024 1.53 1.538.158.156.353.294.459.48.932 1.647 1.987 3.239 2.43 5.115.127.538.249 1.106.215 1.648-.119 1.95-.326 3.891-1.124 5.713-.245.562-.458 1.137-.687 1.706-.104.259-.176.537-.319.771-1.248 2.046-2.452 4.125-4.309 5.711-.509.434-1.037.849-1.532 1.296-1.143 1.04-2.537 1.603-3.957 2.111-1.108.396-2.208.201-3.282-.15-1.166-.382-2.332-.767-3.469-1.221-2.347-.94-4.026-2.564-4.806-5.003-.21-.658-.493-1.229-.94-1.743a5.259 5.259 0 0 1-.675-.954c-.624-1.148-.509-2.713.512-3.517.583-.459.96-1.066 1.331-1.697.731-1.255 1.91-1.71 3.274-1.268.633.206 1.249.488 1.84.795.97.5 1.803 1.138 1.948 2.306m-7.763 1.771c.013.046.013.105.042.133.016.018.101.004.119-.021.069-.1.037-.181-.081-.209-.016-.004-.052.063-.08.097m44.078-21.335c1.417-.078 2.697.319 3.981.697.49.145.9.428 1.303.73.47.357.789.79.764 1.405-.023.57.121 1.114.321 1.629.312.795.142 1.542-.144 2.276-.31.804-.97 1.21-1.841 1.144-.496-.04-.984-.181-1.48-.242-1.115-.139-1.658.244-1.962 1.327-.215.768-.274 1.536-.026 2.305.323 1.001.878 1.827 1.925 2.15 1.116.345 2.254.62 3.388.898.262.063.556.038.831.01a71.54 71.54 0 0 0 2.484-.293c.327-.047.661-.122.964-.247.678-.282.985-.906.783-1.634-.225-.804-.512-1.583-.505-2.442.007-.808.167-1.539.623-2.213.28-.413.504-.867.792-1.273.729-1.022 1.567-1.876 2.959-1.891.381-.004.76-.154 1.144-.215 1.299-.203 2.277.578 2.402 1.916.021.22.008.444.019.666.07 1.446.059 2.897.284 4.335.069.438.051.888.076 1.334.089 1.546-.498 2.854-1.55 3.921-1.134 1.148-2.343 2.225-3.563 3.281-.904.783-2.025 1.164-3.179 1.405-1.143.238-2.295.475-3.455.594-2.306.237-4.559-.036-6.716-.932-.725-.302-1.425-.643-1.973-1.225-.436-.462-.981-.716-1.574-.904-.478-.153-.935-.372-1.417-.509-1.328-.376-2.375-1.169-3.337-2.129-1.15-1.148-1.491-2.449-.861-3.954.236-.563.551-1.093.861-1.619.226-.382.512-.728.758-1.1.65-.979.873-2.04.543-3.187a7.202 7.202 0 0 1-.279-2.312 2.264 2.264 0 0 1 .617-1.512c.614-.663 1.298-1.219 2.169-1.516 1.274-.425 2.56-.782 3.871-.674m4.055 2.963l.088.068c-.035-.018-.07-.034-.103-.052l-.073-.091.088.075zm10.869 4.311c-.132-.024-.209.025-.215.15-.002.041.035.104.071.118.038.019.136-.001.138-.014.014-.084.006-.17.006-.254m-11.028-1.027l.126-.073c-.034-.031-.063-.084-.103-.094-.137-.034-.2.019-.157.128.012.026.088.027.134.039m-1.811 12.049l.128-.075c-.037-.03-.074-.085-.113-.089-.04-.002-.083.046-.125.072.037.029.073.061.11.092m112.648-23.872c-.443 0-.896.04-1.334-.009-1.096-.118-1.724-.643-1.915-1.756-.153-.9-.551-1.541-1.34-1.986-.484-.271-.931-.61-1.39-.928-1.506-1.046-1.809-1.899-1.366-3.727.25-1.035.657-2.014 1.12-2.964.368-.756.692-1.517.902-2.33.356-1.376.976-2.594 2.048-3.569.407-.371.708-.855 1.067-1.282.361-.428.754-.816 1.273-1.059 1.309-.612 2.732-.035 3.295 1.313.368.883.31 1.741-.076 2.591-.414.913-.752 1.875-1.287 2.712-.708 1.112-.547 2.229-.307 3.382.122.581.504.992 1.009 1.269.341.186.718.303 1.069.471 1.527.733 2.193 2.059 1.835 3.708-.13.596-.342 1.176-.52 1.761-.372 1.234-1.646 2.29-2.913 2.392-.389.03-.78.004-1.171.004v.007zm8.76-5.234c.114-1.332.049-2.666.281-3.999.235-1.358-.276-2.519-1.381-3.38-.396-.309-.813-.593-1.189-.923-1.16-1.021-1.296-2.127-.395-3.397.609-.861 1.418-1.402 2.534-1.359.669.025 1.339-.004 2.005.037 1.148.066 2.176.443 3.006 1.274.748.75 1.51 1.479 2.043 2.418 1.03 1.814 1.329 3.761 1.104 5.81a3.802 3.802 0 0 1-.832 1.978c-.464.586-.757 1.222-.853 1.964-.13 1.004-.684 1.757-1.517 2.294-.56.36-1.159.661-1.755.962-.508.258-1.065.311-1.629.283-1.013-.05-1.379-.404-1.416-1.453-.031-.836-.006-1.673-.006-2.509m-49.742 35.441c-.006.042.001.108-.021.122-.042.022-.109.035-.15.017-.159-.068-.149-.141.024-.176.043-.009.098.024.147.037m-51.21-18.482c-.042.012-.113.039-.124.023-.071-.096-.044-.179.071-.211.03-.009.105.035.106.06.004.043-.031.085-.053.128m1.507-40.276c0 .085.008.171-.006.254-.002.015-.1.033-.137.016-.037-.016-.075-.077-.074-.119.009-.124.086-.175.217-.151m-11.027-1.027c-.047-.012-.122-.012-.134-.039-.043-.109.021-.161.158-.126.039.008.067.062.102.093l-.126.072m-1.812 12.05l-.109-.093c.041-.026.084-.074.125-.071.04.004.075.057.113.088l-.129.076m1.971-15.334l-.087-.076.072.09zm-.015.016l.102.052c-.029-.022-.058-.043-.087-.067l-.015.015z"/><path clip-path="url(#r)" fill-rule="evenodd" clip-rule="evenodd" fill="#E8C5AE" d="M76.387 183.97c2.218-1.445 3.811-3.466 5.139-5.698.555-.935.946-1.966 1.429-2.942 1.625-3.296 1.63-6.69.67-10.112-.343-1.227-.879-2.402-1.356-3.587a3.55 3.55 0 0 0-.597-1.011c-2.044-2.337-4.4-4.249-7.484-5.065a24.412 24.412 0 0 0-8.254-.756c-1.723.136-3.289.773-4.852 1.402-1.316.529-1.962 1.651-2.055 3.039-.122 1.806.174 3.561.992 5.164 1.007 1.976 2.604 3.183 4.911 3.295.693.034 1.391.014 2.083.051.928.052 1.723.429 2.418 1.019 1.156.979 1.109 2.637-.111 3.588-.229.18-.495.357-.773.433-3.165.829-4.747 3.452-6.57 5.777-.649.827-.656 1.834-.262 2.824.708 1.782 1.884 2.983 3.887 3.193.59.061 1.19.149 1.778.105 1.597-.121 3.169-.067 4.742.233 1.538.292 2.956-.091 4.265-.952"/><path clip-path="url(#r)" fill-rule="evenodd" clip-rule="evenodd" fill="#E8C5AE" d="M67.079 166.035c-.042-.072.016.098.132.21 1.213 1.149 2.158 2.523 3.227 3.793 2.225 2.646 5.135 3.632 4.187 3.014a.74.74 0 0 0 .307.129c1.523.139 3.037.179 4.35-.816.88-.665 1.005-1.785.304-2.667-.24-.301-.544-.555-.822-.827-.906-.893-1.575-2.009-2.65-2.75-.377-.26-.485-.74-.473-1.202.023-1.063.002-2.115-.379-3.13-.146-.384-.038-.771.142-1.135.494-.99.06-1.869-.396-2.687-.342-.612-1.013-.931-1.715-.859-.997.103-1.999.281-2.968.545-.65.174-1.179.642-1.608 1.183-.489.615-.972 1.235-1.469 1.845-1.087 1.334-1.486 3.391-.169 5.354m-.275-116.06c-.502 0-1.003-.009-1.506.001-.765.017-1.411.312-1.908.896-.654.767-1.213 1.597-1.526 2.569-.404 1.259-.142 1.981.959 2.707.462.307.943.6 1.362.957.623.532.908 1.24.919 2.071.009.852-.135 1.664-.507 2.431-.67 1.381-1.768 1.951-3.281 1.697-.274-.046-.54-.147-.812-.2-.497-.096-1-.117-1.495-.002-2.158.499-4.075-.277-5.898-1.246-1.078-.573-1.665-1.6-1.69-2.895-.029-1.512.003-3.013.417-4.479.377-1.337.697-2.693 1.213-3.995.264-.67.466-1.372.616-2.076.312-1.48 1.037-2.69 2.194-3.652.171-.143.344-.284.504-.439 1.363-1.312 2.954-2.155 4.839-2.441 1.113-.169 2.138-.611 3.144-1.103.8-.389 1.617-.751 2.438-1.092.91-.378 1.852-.4 2.783-.097 1.33.433 2.696.69 4.068.932 1.612.285 3.125.81 4.368 1.946.285.261.636.45.953.677 1.629 1.163 2.57 2.735 2.845 4.723.319 2.317.645 4.631 1.17 6.913.199.866.314 1.756.402 2.642.216 2.15-1.145 4.382-3.042 5.095-.7.264-1.421.275-2.144.217-.895-.071-1.766-.115-2.63.239-.519.213-1.099.16-1.656.113-1.074-.092-2.126-.254-2.791-1.246-.776-1.158-1.165-2.407-.766-3.8.123-.428.313-.835.469-1.252.156-.417.322-.831.459-1.255.313-.975.19-1.884-.533-2.642-.519-.543-.885-1.118-.933-1.899-.036-.576-.454-.903-1.004-.944-.664-.049-1.335-.011-2.003-.011v-.06zm87.712-41.424c2.559-.134 4.706.71 6.49 2.538.66.675 1.397 1.277 2.126 1.882 1.448 1.199 2.548 2.636 3.188 4.416.378 1.062.475 2.178.596 3.278.105.963.317 1.863.813 2.692 1.04 1.734.782 3.462-.221 5.058a13.624 13.624 0 0 1-3.526 3.756c-1.508 1.1-3.143 1.367-4.909.816-.957-.3-1.897-.651-2.845-.976-1.173-.4-1.788-1.714-1.233-2.844.345-.699.623-1.432.984-2.122.495-.952.758-1.973.985-3.009.225-1.03.007-1.958-.608-2.844-1.091-1.576-2.63-2.386-4.451-2.674-1.271-.198-2.547-.18-3.761.42-.544.268-1.147.428-1.735.598-.858.245-1.479.744-1.836 1.569-.111.256-.239.503-.362.753-.259.529-.331 1.058-.047 1.602.103.198.171.415.275.609.83 1.555 1.04 3.285 1.381 4.971.27 1.332-.125 2.06-1.344 2.755-.774.438-1.569.844-2.358 1.256-.429.227-.863.188-1.281-.028-.248-.125-.481-.282-.716-.432-1.477-.947-2.639-2.228-3.688-3.6-.882-1.155-1.177-2.502-.919-3.95.165-.931.308-1.867.502-2.793.232-1.104.281-2.207.069-3.319-.369-1.955.342-3.429 1.857-4.687 2.623-2.18 5.673-3.499 8.836-4.611.624-.219 1.305-.284 1.963-.389.933-.149 1.884-.215 2.804-.415a13.193 13.193 0 0 1 2.971-.276m-5.68 54.559c.557 0 1.118.028 1.671-.006.665-.041 1.158-.401 1.448-.991.27-.55.496-1.122.732-1.688.368-.872.764-1.725 1.23-2.558.756-1.346 1.151-2.779.629-4.331-.296-.88-.064-1.622.559-2.303 1.431-1.568 3.024-1.904 4.975-1.041.95.422 1.722.998 2.207 1.947.2.39.478.757.784 1.076.575.598.848 1.313.891 2.11.047.845.217 1.657.486 2.451.206.603.224 1.194.042 1.805-.14.482-.286.966-.37 1.458-.388 2.219-1.448 4.066-2.976 5.694-.915.974-1.74 2.029-2.613 3.043-.639.744-1.429 1.129-2.423 1.33-1.467.297-2.998.306-4.409.894-.565.235-1.162.395-1.727.628-1.469.61-2.916.653-4.359-.078a9.111 9.111 0 0 0-2.858-.905 9.67 9.67 0 0 1-1.785-.428c-1.427-.494-2.878-.883-4.368-1.113-.854-.133-1.58-.516-2.268-1.008-.439-.314-.691-.727-.702-1.264a15.39 15.39 0 0 1 .035-1.503c.065-.855-.056-1.666-.458-2.432-.13-.244-.244-.5-.348-.759-.382-.935-.335-1.853.14-2.742.45-.84.98-1.621 1.674-2.283.485-.462.973-.92 1.438-1.401 1.006-1.043 1.175-2.236.566-3.539-.165-.353-.387-.677-.567-1.021-1.227-2.356-.07-5.027 2.5-5.674.977-.247 1.986-.305 2.928.242.237.135.512.271.775.282 1.215.055 1.841.954 2.545 1.73.637.7.765 1.572.812 2.486.065 1.352-.277 2.528-1.215 3.527-.342.365-.628.782-.933 1.182-.37.482-.487 1.021-.181 1.563.611 1.081.978 2.24 1.184 3.458.191 1.134.94 1.716 1.981 2.021.768.227 1.55.156 2.328.141m-8.894-15.003c-.049-.014-.103-.045-.146-.037-.173.036-.183.106-.024.176.042.018.109.004.149-.018.023-.013.016-.079.021-.121m-29.005-3.712c-.377.155-.774.352-1.191.484-1.208.384-1.671.801-1.683 1.935-.01 1.123-.254 2.215-.315 3.328-.023.439-.09.892-.22 1.313-.249.803-.484 1.593-.421 2.453.078 1.049-.955 2.121-2.17 2.056-.722-.037-1.45.033-2.172.001-.439-.017-.896-.071-1.307-.217a29.086 29.086 0 0 1-2.317-.965c-.833-.383-1.463-1.003-1.97-1.764-.734-1.098-.934-2.249-.395-3.489.289-.665.541-1.35.869-1.993.448-.872.638-1.777.536-2.749-.074-.72-.114-1.444-.24-2.158-.141-.792-.101-1.553.188-2.3.359-.938.684-1.891 1.094-2.806.49-1.096 1.251-1.974 2.352-2.519.249-.125.51-.237.737-.396 1.403-.988 2.957-1.245 4.622-.977 1.045.168 2.092.32 3.132.519 1.316.251 2.622.534 3.975.215.666-.156 1.338-.05 1.969.218 1.903.803 3.803 1.602 5.223 3.205.327.372.767.643 1.148.967.426.359.849.724 1.265 1.093.569.51.845 1.139.888 1.913.059 1.057.194 2.107.306 3.158.107 1.011.487 1.947.837 2.885.255.683.419 1.384.602 2.085.296 1.127.14 2.205-.144 3.3-.301 1.17-1.071 1.832-2.223 1.976-.942.117-1.881.169-2.748.62-.301.156-.662.107-.985.001-1.485-.49-2.946-1.042-4.307-1.825-.919-.53-1.164-1.053-.986-2.074.066-.385.221-.75.292-1.135.237-1.265.097-2.447-.85-3.423a306.08 306.08 0 0 0-2.464-2.504c-.243-.243-.55-.376-.927-.431m4.966-45.875c.162.264.292.509.453.729.481.652.722 1.375.702 2.186-.005.223-.014.448.003.669.089 1.104.699 1.598 1.802 1.374a10.862 10.862 0 0 0 1.914-.59c1.026-.411 2.033-.538 3.089-.128.358.141.756.194 1.141.245.851.113 1.274-.188 1.438-1.001.045-.219.072-.44.084-.662.045-.793.272-1.537.581-2.257.585-1.36.852-2.745.575-4.236-.238-1.268.229-2.429.832-3.51.52-.935 1.351-1.124 2.276-.609.696.386 1.334.9 1.64 1.622.456 1.076 1.141 2.029 1.53 3.146.877 2.53.944 5.016-.204 7.468-.659 1.413-1.375 2.798-2.081 4.188a5.34 5.34 0 0 1-2.76 2.569c-1.378.578-2.68 1.364-4.208 1.581-.478.067-.936.345-1.379.576-1.664.864-3.395 1.374-5.298 1.248-.999-.066-2.006-.028-3.009-.015a7.231 7.231 0 0 1-2.929-.586 17.5 17.5 0 0 1-4.408-2.677c-.813-.675-1.305-1.51-1.284-2.602a3.179 3.179 0 0 0-.076-.832c-.416-1.585-.141-3.091.492-4.562.219-.511.417-1.035.574-1.567.143-.481-.046-.917-.494-1.12-.453-.206-.94-.335-1.412-.501-.574-.206-1.176-.361-1.718-.634-.715-.358-.912-.926-.702-1.673.458-1.626 2.492-4.223 3.959-5.034.292-.161.593-.323.91-.415a20.02 20.02 0 0 1 4.271-.751c1.157-.072 2.012.37 2.661 1.372.78 1.198 1.19 2.512 1.476 3.88a3.584 3.584 0 0 1-.097 1.816c-.129.424-.229.856-.344 1.293M47.927 16.151c-.042-.258-.045-.315-.062-.367-.685-2.098-1.485-2.004-3.188-1.696-1.434.258-2.466 1.264-3.246 2.467a2.24 2.24 0 0 0-.317 1.764c.558 2.361-.338 4.396-1.495 6.34-.521.874-1.458 1.368-2.295 1.896-.534.335-1.238.261-1.752-.125-1.063-.798-2.216-1.447-3.191-2.401-1.379-1.351-1.918-2.953-2.065-4.78-.059-.722-.13-1.44-.195-2.163-.019-.222-.083-.45-.045-.663.335-1.861.544-3.76 1.4-5.486.247-.494.517-1.01.891-1.406 1.337-1.422 2.738-2.782 4.514-3.675.549-.275 1.08-.581 1.62-.871.245-.134.479-.302.738-.39 2.267-.775 4.521-1.606 6.964-1.638.668-.011 1.338.011 2.006-.021 1.543-.068 2.975.39 4.392.908 1.105.402 1.826 1.257 2.428 2.213.653 1.038 1.304 2.079 1.888 3.156 1.205 2.223 1.456 4.547.498 6.92-.258.64-.406 1.26-.39 1.94.01.389-.017.786-.092 1.165-.254 1.282-1.342 2.412-2.643 2.378-.74-.02-1.419.205-2.107.455-1.365.495-2.561.095-3.329-1.12a12.49 12.49 0 0 1-.907-1.787c-.424-.999-.657-2.022-.02-3.013m7.1 3.6c.021-.043.057-.089.053-.129-.001-.024-.076-.068-.106-.059-.116.03-.143.112-.072.209.012.017.083-.012.125-.021M40.75 45.654a12.408 12.408 0 0 1 1.84-.794c1.365-.442 2.543.012 3.275 1.267.37.632.749 1.239 1.33 1.699 1.021.803 1.136 2.366.512 3.517-.183.34-.418.661-.673.953-.447.514-.729 1.087-.941 1.743-.78 2.438-2.459 4.063-4.806 5.004-1.137.453-2.303.839-3.468 1.219-1.075.352-2.175.548-3.283.151-1.42-.508-2.814-1.071-3.957-2.109-.495-.451-1.023-.864-1.532-1.299-1.857-1.586-3.061-3.665-4.307-5.709-.144-.237-.216-.514-.32-.771-.229-.569-.442-1.145-.687-1.708-.797-1.82-1.005-3.762-1.124-5.711-.033-.544.089-1.11.214-1.651.444-1.873 1.498-3.466 2.431-5.113.106-.186.302-.323.459-.482.508-.513 1.025-1.021 1.53-1.537 1.282-1.312 2.721-2.199 4.645-2.357 1.359-.111 2.661.127 3.987.193.645.034 1.233.427 1.428 1.024.308.941.713 1.92.554 2.926-.352 2.233-.964 4.373-2.902 5.829a2.24 2.24 0 0 0-.884 1.563c-.17 1.421-.018 2.854.918 3.97 1.113 1.325 1.668 1.91 3.537.733.047-.028.084-.07.281-.243.144-1.17.978-1.808 1.943-2.307m5.738 3.979c-.118.028-.15.109-.081.208.018.024.103.04.119.023.03-.031.03-.089.042-.135-.027-.034-.063-.1-.08-.096m132.368-31.735c-.443 0-.896.042-1.334-.007-1.096-.12-1.724-.644-1.915-1.756-.153-.9-.551-1.539-1.34-1.986-.484-.272-.931-.61-1.39-.928-1.506-1.045-1.809-1.899-1.366-3.726.25-1.036.657-2.015 1.12-2.965.368-.756.692-1.518.902-2.329.356-1.377.976-2.594 2.048-3.57.407-.373.708-.856 1.067-1.282.361-.428.754-.816 1.273-1.06 1.309-.611 2.732-.035 3.295 1.314.368.884.31 1.742-.076 2.592-.414.911-.752 1.875-1.287 2.711-.708 1.112-.547 2.228-.307 3.383.122.579.504.99 1.009 1.268.341.185.718.302 1.069.471 1.527.733 2.193 2.06 1.835 3.709-.13.595-.342 1.174-.52 1.761-.372 1.234-1.646 2.288-2.913 2.39-.389.03-.78.004-1.171.004v.006zm8.76-5.231c.114-1.332.049-2.665.281-3.998.235-1.359-.276-2.518-1.381-3.382-.396-.308-.813-.593-1.189-.923-1.16-1.021-1.296-2.126-.395-3.396.609-.862 1.418-1.401 2.534-1.358.669.024 1.339-.002 2.005.035 1.148.066 2.176.444 3.006 1.275.748.749 1.51 1.481 2.043 2.416 1.03 1.817 1.329 3.762 1.104 5.812a3.812 3.812 0 0 1-.832 1.979c-.464.584-.757 1.22-.853 1.962-.13 1.006-.684 1.758-1.517 2.295-.56.36-1.159.661-1.755.962-.508.257-1.065.312-1.629.283-1.013-.051-1.379-.404-1.416-1.454-.031-.835-.006-1.672-.006-2.508"/><path clip-path="url(#r)" fill-rule="evenodd" clip-rule="evenodd" fill="#E8C5AE" d="M137.874 48.107c-.006.042.001.107-.021.121-.042.021-.109.035-.15.018-.159-.069-.149-.14.024-.176.043-.007.098.024.147.037m-51.21-18.479c-.042.009-.113.037-.124.022-.071-.097-.044-.179.071-.213.03-.006.105.035.106.061.004.041-.031.086-.053.13M87 25.563c1.254-.818 2.155-1.962 2.907-3.224.313-.528.535-1.111.809-1.663.917-1.865.92-3.783.377-5.719-.195-.695-.497-1.358-.768-2.028a2.06 2.06 0 0 0-.336-.571c-1.157-1.322-2.489-2.403-4.232-2.865a13.86 13.86 0 0 0-4.668-.428c-.974.076-1.859.438-2.744.794-.744.299-1.11.935-1.162 1.719-.068 1.021.099 2.012.562 2.92.57 1.115 1.473 1.799 2.776 1.862.393.02.788.01 1.179.03.524.029.974.242 1.367.573.654.557.626 1.492-.062 2.03a1.266 1.266 0 0 1-.438.244c-1.79.471-2.685 1.954-3.716 3.27-.368.465-.371 1.034-.148 1.596.4 1.008 1.065 1.686 2.199 1.806.333.034.672.085 1.004.06a10.085 10.085 0 0 1 2.682.132c.87.164 1.671-.053 2.412-.538M67.079 23.72c-.042-.071.016.101.132.213 1.213 1.149 2.158 2.521 3.227 3.793 1.121 1.331 2.745 2.069 4.187 3.013a.74.74 0 0 0 .307.129c1.523.139 3.037.179 4.35-.816.88-.665 1.005-1.784.304-2.665-.24-.303-.544-.557-.822-.83-.906-.892-1.575-2.007-2.65-2.748-.377-.262-.485-.74-.473-1.203.023-1.063.002-2.116-.379-3.13-.146-.384-.038-.772.142-1.135.494-.991.06-1.869-.396-2.687-.342-.611-1.013-.931-1.715-.857-.997.102-1.999.28-2.968.543-.65.174-1.179.643-1.608 1.183-.489.616-.972 1.235-1.469 1.846-1.087 1.331-1.486 3.391-.169 5.351"/></g><g clip-path="url(#b)"><defs><path id="s" d="M-50-5.486h300v300H-50z"/></defs><clipPath id="t"><use xlink:href="#s" overflow="visible"/></clipPath><path clip-path="url(#t)" fill="#CEC8C4" d="M107.992 219.514c-.006-.042-.017-.08-.023-.121-.018-3.89-.358-7.77-.564-11.653-.128-2.411-.219-4.828-.419-7.235a71.486 71.486 0 0 1-.223-3.737c-.19-6.066-.146-14.008-.283-16.983a9.498 9.498 0 0 0 2.743-6.683c0-5.264-4.267-9.53-9.529-9.53-5.263 0-9.529 4.267-9.529 9.53 0 2.378.877 4.548 2.318 6.218.094.893.152 1.73.142 2.081-.342 10.796-.578 24.258-1.23 35.04-.104 1.717-2.459 28.895-3.075 29.509.001 0 22.148.155 22.131 0-.776-7.763-1.4-18.257-2.459-26.436"/><g clip-path="url(#t)"><defs><path id="u" d="M437.501 246.255h27.969s10.457.316 8.981-5.388c-1.596-6.163-12.463-7.551-17.832-5.505 0 0 10.612-10.799 17.638-24.795 11.033-21.972 16.15-49.959-21.477-43.091 1.915-7.612 3.599-14.772 3.989-21.623.613-7.378 1.165-9.294 1.229-12.833 2.458.216 4.83-.383 7.037-1.486-3.398-.993-6.32-3.508-7.813-6.717 2.823 1.521 6.354 1.646 9.276.328-3.87-2.982-5.867-3.306-8.403-7.48 5.257 3.314 11.982 4.197 17.918 2.35-7.884-6.823-13.185-16.565-14.635-26.893-1.76-12.531-1.504-23.535-11.162-33.193-7.966-7.966-20.177-11.04-31.432-11.781-2.789-2.779-5.63-9.312-2.209-12.657-2.313.865-6.789 4.32-5.567 7.243l-1.594-2.068c-1.11 2.202-1.021 4.946-.149 7.248-11.251.745-23.195 4.056-31.156 12.016-9.658 9.658-9.403 20.662-11.162 33.193-1.451 10.327-6.751 20.069-14.637 26.893 5.936 1.848 12.661.965 17.919-2.35-2.537 4.175-4.534 4.498-8.402 7.48 2.922 1.318 6.454 1.192 9.276-.328-1.494 3.209-4.415 5.724-7.813 6.717 2.206 1.104 4.58 1.702 7.037 1.486.064 3.539.614 5.455 1.23 12.833.391 6.851 2.074 14.011 3.989 21.623-37.629-6.868-32.511 21.119-21.478 43.091 7.026 13.996 17.637 24.795 17.637 24.795-5.367-2.046-16.236-.658-17.831 5.505-1.476 5.704 8.98 5.388 8.98 5.388h27.971"/></defs><clipPath id="v"><use xlink:href="#u" overflow="visible"/></clipPath><path clip-path="url(#v)" fill="#B75CA8" d="M578.28 129.761c-24.591-57.788-52.255-92.829-74.387-100.821-14.318-5.17-26.06 17.704-32.067 34.502-5.876-7.519-13.664-14.856-17.729-17.903-7.376-5.532-26.434-32.583-39.959-27.05-13.522 5.533-9.22-39.95-15.982-23.361-.739 1.832 1.853 7.918 2.311 9.904 1.423 6.173 1.869 11.89 2.042 18.233.031 1.113.101 2.278.187 3.467-19.144-17.179-86.972-39.891-116.425 37.864-30.738 81.146-98.976 145.697-17.828 212.09 81.148 66.394 304.304 74.999 330.737 17.213 26.435-57.787 3.689-106.352-20.9-164.138M393.238 279.146c-32.583-14.14-97.131-31.968-76.228-43.649 10.124-5.657 10.929-26.657 20.9-32.581 6.735-4.002 16.598 10.451 30.406 4.842 6.66-2.707-1.232-14.61 3.008-18.75 1.28-1.252 4.402-4.563 1.628-6.992-2.254-1.972-5.65-1.889-8.638-1.629-12.558.673 17.244-18.659-11.65-14.355-28.452 4.237-9.957 6.859-4.347-5.26l.454-.125c12.987-3.604 28.421 3.429 40.476-2.077.457-.21.924-.45 1.227-.852.43-.572.44-1.353.365-2.063-.331-3.188-2.063-6.206-4.648-8.104-5.315-3.901-13.344-1.8-19.387-1.19-4.039.406-1.307 5.569-5.339 5.569-3.171 0-8.206 1.696-10.935-.403-.833-.642-1.381-1.575-1.908-2.484a886.034 886.034 0 0 0-9.259-15.617c-.646-1.063-9.661-16.742-10.06-16.573 2.62-1.113-.296-6.302 1.845-7.378 7.977-4.006 25.874 9.026 29.508 0 2.049-5.086 20.451-2.278 20.097-7.483-.642-9.44 6.331-8.779 13.307-10.151 8.402-1.653 11.855-8.66 13.66-16.311 1.29-5.473.125-11.851 2.951-16.945 3.869-6.966 5.425.016 5.87 4.065.554 5.034.521 10.178 2.085 15.05 1.897 5.914 7.688 10.253 12.729 13.335 14.666 8.962 30.83 6.612 39.774-.334 3.304 12.528 7.97 32.862 10.345 43.366-.521.155-1.037.323-1.549.513a18.878 18.878 0 0 1-3.643.94c-2.984.474-5.901 1.237-8.814 2.008-2.625.696-5.259 1.337-7.948 1.726-2.54.368-5.065.789-7.527 1.527-.723.215-1.457.383-2.187.566-1.365.343-2.722.715-4.015 1.275-1.059.459-2.119.916-3.178 1.378-1.775.775-3.286 1.909-4.589 3.329-.271.294-.536.59-.668.983-.216.64.169 1.248.84 1.283.551.03 1.112-.03 1.654.052 1.353.197 2.694.236 4.059.101 1.247-.123 2.51-.138 3.765-.146a51.345 51.345 0 0 0 5.417-.338 80.133 80.133 0 0 0 5.516-.82c2.328-.421 4.694-.557 7.054-.671a44.692 44.692 0 0 0 8.928-1.377c2.292-.589 4.574-1.228 6.775-2.092l-3.145 6.71c-2.76.784-5.568 1.372-8.367 2.001a37.02 37.02 0 0 1-5.858.807c-4.087.254-8.17.583-12.257.841-2.743.172-5.149 1.213-7.393 2.709-1.485.989-2.594 2.32-3.387 3.913-.472.945-.15 1.84.795 2.256.207.094.431.149.929.314.155.022.609.166 1.045.127 1.586-.141 3.188-.239 4.744-.547 2.917-.574 5.853-.87 8.812-.999 1.668-.073 3.34-.085 5.002-.237 3.743-.348 7.287-1.354 10.576-3.248a64.12 64.12 0 0 0 2.289-1.385s-1.362 2.902-1.377 2.937c-3.376 7.2-13.762-.331-18.815 4.661-3.641 3.596-1.741 9.269-1.077 13.574.517 3.36-3.327 7.204.811 9.621 1.755 1.025 3.897 1.011 5.923 1.175 8.579.69 16.233-2.599 17.723 12.819.598 6.192 4.927 11.418 7.497 17.082-1.206-1.056-2.986-1.047-4.585-.931-11.852.865-30.807 3.762-34.198 17.616-2.495 10.193 8.351 21 16.956 24.5-21.241 15.027-51.491 26.89-70.769 18.526m82.981-125.129c.011-.065.021-.18.037-.18.112-.004.224.017.337.027-.015.063-.03.121-.048.184l-.326-.031"/></g></g><path clip-path="url(#b)" fill="none" stroke="#000" stroke-width=".615" stroke-miterlimit="10" d="M87.914 246.255h23.124"/><g clip-path="url(#b)"><defs><path id="w" d="M-50-5.486h300v300H-50z"/></defs><clipPath id="x"><use xlink:href="#w" overflow="visible"/></clipPath><path clip-path="url(#x)" fill="none" stroke="#000" stroke-width=".615" stroke-miterlimit="10" d="M138.423 167.566c-2.702 10.742-6.501 21.115-8.529 32.167-4.304 23.465-5.793 54.871-12.257 55.313-6.463.442-6.829-7.939-8.873-30.094-2.047-22.152-2.047-46.352-2.047-46.352m-14.664.002s0 24.198-2.047 46.352c-2.044 22.154-2.41 30.535-8.873 30.094-6.462-.442-7.953-31.849-12.257-55.313-1.995-10.874-5.365-21.938-8.046-32.524"/><path clip-path="url(#x)" d="M91.209 51.993c.583-.536.643-1.389.54-2.118-.112-.751-.417-1.456-.75-2.136a15.838 15.838 0 0 0-1.202-1.933c-.436-.624-.93-1.208-1.41-1.797l-.562-.689.868.196c1.069.242 2.115.527 3.157.855 1.04.334 2.068.709 3.063 1.197l-.267-.004c-.058.033-.011.003-.006-.012.015-.013.03-.05.046-.073.026-.064.061-.129.075-.214.044-.152.061-.333.071-.51a5.992 5.992 0 0 0-.074-1.11 15.436 15.436 0 0 0-.515-2.233 17.933 17.933 0 0 0-.351-1.105c-.12-.366-.25-.73-.389-1.093-.262-.729-.566-1.443-.856-2.165l-.372-.924.821.548a29.672 29.672 0 0 1 3.408 2.648c1.061.974 2.064 2.034 2.837 3.292l-.566.103a22.49 22.49 0 0 1 .796-2.87c.325-.937.708-1.853 1.15-2.741.446-.889.97-1.739 1.561-2.543a12.973 12.973 0 0 1 2.075-2.174l.552-.461-.053.727a40.8 40.8 0 0 0-.033 5.819c.064.967.188 1.928.39 2.863.205.928.477 1.865 1 2.607l-.481-.021c.391-.405.807-.669 1.265-.904a6.553 6.553 0 0 1 1.428-.508c.494-.1.996-.161 1.498-.161.501-.007.999.047 1.49.117l.011.001.535.071-.329.403c-.103.124-.169.19-.243.269l-.216.234c-.141.156-.285.31-.419.471-.275.322-.54.649-.787.992-.5.682-.945 1.401-1.325 2.158a11.636 11.636 0 0 0-.862 2.387c-.196.828-.249 1.684-.214 2.54-.086-.851-.084-1.719.063-2.57.153-.85.4-1.684.733-2.482.342-.798.756-1.563 1.226-2.294.232-.365.485-.72.747-1.066.128-.175.268-.344.403-.514l.383-.464.207.473-.011-.002a8.712 8.712 0 0 0-1.384-.108 6.896 6.896 0 0 0-1.369.147 5.722 5.722 0 0 0-1.286.456c-.398.197-.799.469-1.079.759l-.271.278-.211-.303c-.607-.875-.882-1.862-1.1-2.834a20.619 20.619 0 0 1-.4-2.949 41.465 41.465 0 0 1 .03-5.919l.499.268a12.45 12.45 0 0 0-1.969 2.062 17.348 17.348 0 0 0-1.502 2.453c-.427.86-.801 1.752-1.117 2.664a21.96 21.96 0 0 0-.772 2.78l-.156.77-.411-.667c-.722-1.173-1.689-2.204-2.724-3.151a28.891 28.891 0 0 0-3.327-2.589l.45-.377c.293.728.599 1.45.864 2.188.143.366.274.737.396 1.111.129.371.252.746.358 1.127.23.755.415 1.527.534 2.322.058.397.097.803.08 1.223a3.064 3.064 0 0 1-.091.645 1.665 1.665 0 0 1-.125.336c-.037.06-.059.114-.11.173-.057.063-.076.106-.217.188l-.122.067-.145-.072c-.948-.467-1.956-.835-2.974-1.16a39.706 39.706 0 0 0-3.101-.844l.304-.491c.451.635.91 1.26 1.313 1.927.414.656.782 1.347 1.097 2.059.295.72.56 1.465.624 2.248.059.756-.07 1.637-.692 2.133"/><path clip-path="url(#x)" fill="none" stroke="#000" stroke-width=".615" stroke-miterlimit="10" d="M91.248 47.97c-13.136 1.398-27.211 6.481-33.15 19.147-1.791 3.82-4.513 8.852-7.422 10.246 1.065 1.065 2.381.853 3.325.776-3.004 4.14-7.895 6.851-12.998 7.203 1.537 1.882 3.361 3.59 5.57 4.602 2.208 1.011 4.845 1.257 7.065.271-1.185 2.958-3.643 5.382-6.617 6.525 1.36 2.654 4.605 4.191 7.521 3.56-.964 1.036-1.087 2.6-.94 4.007.146 1.406.508 2.817.313 4.22-.195 1.401-1.165 2.84-2.574 2.974a4.079 4.079 0 0 0 2.18 1.708c.065 1.488-1.779 2.104-1.779 2.104s2.123 2.929 2.459 6.148c.471 4.501.396 9.039.744 13.55.848 10.976 3.164 21.81 5.848 32.466-9.128-1.419-22.08-2.744-27.743 6.447-3.765 6.111-2.305 13.64-.438 20.12a91.274 91.274 0 0 0 8.864 20.72c4.342 7.434 9.68 14.251 15.478 20.599-.117-.093-.092-.123 0 0-3.197-1.212-6.763-1.831-10.155-1.167-2.742.535-7.535 3.032-7.885 6.467-.47 4.603 6.865 4.918 9.879 5.063 8.973.431 18.235.53 27.281.53M108.161 47.97c13.136 1.398 27.21 6.481 33.148 19.147 1.792 3.82 4.513 8.852 7.422 10.246-1.065 1.065-2.381.853-3.324.776 3.004 4.14 7.895 6.851 12.999 7.203-1.537 1.882-3.362 3.59-5.57 4.602-2.21 1.011-4.845 1.257-7.066.271 1.185 2.958 3.643 5.382 6.617 6.525-1.36 2.654-4.605 4.191-7.521 3.56.964 1.036 1.087 2.6.94 4.007-.146 1.406-.508 2.817-.313 4.22.196 1.401 1.166 2.84 2.575 2.974a4.079 4.079 0 0 1-2.18 1.708c-.066 1.488 1.778 2.104 1.778 2.104s-2.123 2.929-2.46 6.148c-.468 4.501-.395 9.039-.743 13.55-.848 10.976-3.162 21.81-5.847 32.466 9.128-1.419 22.078-2.744 27.743 6.447 3.765 6.111 2.305 13.64.438 20.12a91.274 91.274 0 0 1-8.864 20.72c-4.341 7.434-9.679 14.251-15.477 20.599.117-.093.091-.123 0 0 3.197-1.212 6.763-1.831 10.153-1.167 2.743.535 7.537 3.032 7.887 6.467.469 4.603-6.866 4.918-9.88 5.063-8.973.431-18.234.53-27.281.53"/><path clip-path="url(#x)" fill="none" stroke="#000" stroke-width=".615" stroke-miterlimit="10" d="M123.886 51.964c.949-2.854 6.78-18.166 23.304-20.645 0 0 7.854 18.299-7.646 32.544M75.832 51.82c-1.086-3.188-6.99-18.062-23.255-20.501 0 0-7.791 18.147 7.458 32.368"/></g><g clip-path="url(#b)"><defs><path id="y" d="M38.217 34.78c-1.23.615-13.525 63.319-12.91 68.852.615 5.533-12.91 113.729-12.91 113.729s12.295 47.951 14.754 59.017c2.458 11.066 138.936-12.91 138.936-12.91l7.991-44.876-15.676-134.325-13.833-43.339s-39.545-1.475-29.507 3.688c43.032 22.131 18.442 127.254 18.442 127.254 59.632-9.837 3.689 65.164 3.689 65.164 28.278 0 19.671 11.681 19.671 11.681s-70.696 30.736-110.962 1.536c-14.535-10.541 15.369-13.524 15.369-13.524-56.865-78.996 3.074-65.778 3.074-65.778C41.598 65.21 86.475 41.234 86.475 41.234s-43.188-6.493-47.872-6.492c-.204 0-.334.012-.386.038"/></defs><clipPath id="z"><use xlink:href="#y" overflow="visible"/></clipPath><g opacity=".05" clip-path="url(#z)"><defs><path id="A" d="M30.702 32.629h138.004v222.436H30.702z"/></defs><clipPath id="B"><use xlink:href="#A" overflow="visible"/></clipPath><path clip-path="url(#B)" d="M166.797 194.044c1.868-6.481 3.328-14.009-.438-20.12-5.665-9.191-18.615-7.867-27.743-6.447 2.685-10.656 5-21.491 5.847-32.466.348-4.511.272-9.049.743-13.549.337-3.222 2.46-6.149 2.46-6.149s-1.844-.615-1.778-2.104a4.087 4.087 0 0 0 2.18-1.708c-1.41-.134-2.379-1.571-2.575-2.974-.195-1.402.167-2.813.313-4.221.147-1.407.024-2.97-.94-4.006 2.916.632 6.162-.905 7.521-3.561-2.974-1.143-5.431-3.566-6.617-6.526 2.221.987 4.856.741 7.066-.27 2.208-1.012 4.033-2.72 5.569-4.602-5.102-.353-9.993-3.063-12.997-7.203.943.074 2.259.289 3.324-.776-2.91-1.395-5.629-6.426-7.422-10.246-5.938-12.666-20.012-17.749-33.148-19.147l.12 1.573-.568-.188c.761-3.658 3.527-6.385 3.659-6.583-3.688-.614-5.409 1.353-5.409 1.353-2.151-3.013-1.414-11.495-1.414-11.495-4.243 3.38-5.471 10.143-5.471 10.143-1.845-3.073-6.147-5.84-6.147-5.84 3.443 8.176 1.844 8.914 1.844 8.914-2.458-1.229-6.146-2.028-6.146-2.028 5.163 6.454 2.581 8.176 2.581 8.176h.742l-1.084.955.381-4.979c-13.136 1.398-27.211 6.481-33.15 19.147-1.79 3.82-4.513 8.852-7.422 10.246 1.065 1.065 2.381.851 3.325.776-3.004 4.14-7.895 6.851-12.998 7.203 1.537 1.882 3.361 3.59 5.57 4.602 2.208 1.011 4.845 1.257 7.065.27-1.186 2.96-3.643 5.384-6.617 6.526 1.36 2.655 4.605 4.192 7.521 3.561-.964 1.036-1.087 2.599-.94 4.006.146 1.407.508 2.818.313 4.221-.194 1.402-1.165 2.84-2.574 2.974a4.084 4.084 0 0 0 2.18 1.708c.065 1.488-1.779 2.104-1.779 2.104s2.123 2.928 2.459 6.149c.471 4.5.396 9.038.744 13.549.848 10.975 3.163 21.81 5.848 32.466-9.128-1.42-22.08-2.744-27.743 6.447-3.766 6.111-2.305 13.639-.438 20.12a91.233 91.233 0 0 0 8.865 20.72c4.324 7.406 9.64 14.199 15.413 20.527-.025-.02-.014.01.063.071-3.197-1.214-6.763-1.831-10.155-1.168-2.742.536-7.535 3.033-7.885 6.468-.47 4.603 6.865 4.918 9.879 5.062 8.973.432 18.235.531 27.281.531l.023-.3c1.326 5.453 2.914 8.946 5.038 9.092 3.747.257 5.443-2.462 6.606-9.099h23.29c1.164 6.637 2.861 9.355 6.607 9.099 2.385-.163 4.094-4.549 5.515-11.192l.184 2.4c9.047 0 18.308-.1 27.281-.531 3.014-.144 10.349-.459 9.88-5.062-.35-3.435-5.144-5.932-7.887-6.468-3.391-.663-6.957-.046-10.153 1.168.078-.062.089-.091.063-.071 5.773-6.328 11.089-13.121 15.415-20.527a91.468 91.468 0 0 0 8.86-20.721"/></g></g><g clip-path="url(#b)"><defs><path id="C" d="M-50-5.486h300v300H-50z"/></defs><clipPath id="D"><use xlink:href="#C" overflow="visible"/></clipPath><path clip-path="url(#D)" fill="#E0605C" d="M98.911 119.924c-5.36 0-6.679-6.856-6.835-12.658 3.71-.409 5.755-3.421 6.833-7.943 1.139 4.433 3.074 7.609 6.843 7.737-.132 5.842-1.418 12.864-6.841 12.864"/><path clip-path="url(#D)" fill="#393C3D" d="M90.52 107.931c-4.265 0-7.882-2.095-10.49-6.085-2.038-3.121-2.734-6.255-2.763-6.387a.558.558 0 1 1 1.09-.237c.007.03.69 3.092 2.624 6.037 2.543 3.877 5.944 5.742 10.121 5.543 6.772-.324 7.235-8.03 7.251-8.358a.559.559 0 0 1 1.115.055c-.004.09-.525 9.046-8.314 9.418a15.01 15.01 0 0 1-.634.014"/><path clip-path="url(#D)" fill="#393C3D" d="M75.439 98.049a.558.558 0 0 1-.451-.884c1.635-2.257 4.092-3.646 4.196-3.702a.557.557 0 1 1 .545.973c-.023.014-2.351 1.331-3.838 3.383a.557.557 0 0 1-.452.23m31.861 9.882c-.211 0-.422-.005-.634-.015-7.79-.372-8.311-9.328-8.314-9.418a.557.557 0 1 1 1.115-.055c.018.336.484 8.034 7.254 8.358 4.173.198 7.577-1.666 10.12-5.543 1.933-2.945 2.616-6.007 2.622-6.037a.558.558 0 1 1 1.092.237c-.028.132-.727 3.266-2.764 6.387-2.609 3.991-6.226 6.086-10.491 6.086"/><path clip-path="url(#D)" fill="#393C3D" d="M122.38 98.049a.56.56 0 0 1-.452-.231c-1.486-2.052-3.814-3.369-3.836-3.383a.554.554 0 0 1-.214-.758.556.556 0 0 1 .758-.215c.104.056 2.563 1.445 4.196 3.702a.558.558 0 0 1-.452.885"/></g><path clip-path="url(#b)" fill="#F9F5ED" d="M99.476 246.255H87.914h23.124z"/><g clip-path="url(#b)"><defs><path id="E" d="M-50-5.486h300v300H-50z"/></defs><clipPath id="F"><use xlink:href="#E" overflow="visible"/></clipPath><path clip-path="url(#F)" fill="#393C3D" d="M108.824 88.343c0 3.349-4.269 10.091-9.962 10.091-5.694 0-9.964-6.742-9.964-10.091 0-3.351 4.27-5.025 9.964-5.025 5.693-.001 9.962 1.674 9.962 5.025"/></g><g clip-path="url(#b)"><defs><path id="G" d="M88.897 88.343c0 3.349 4.27 10.091 9.964 10.091s9.962-6.742 9.962-10.091c0-3.351-4.268-5.025-9.962-5.025s-9.964 1.674-9.964 5.025"/></defs><clipPath id="H"><use xlink:href="#G" overflow="visible"/></clipPath><g opacity=".55" clip-path="url(#H)"><defs><path id="I" d="M86.09 83.8h24.862v18.798H86.09z"/></defs><clipPath id="J"><use xlink:href="#I" overflow="visible"/></clipPath><path clip-path="url(#J)" fill="#1B1D1E" d="M88.221 86.513c0 3.207 2.369 6.137 4.713 8.085 3.597 2.991 7.801 2.982 11.749.596 3.47-2.1 4.849-5.824 4.849-9.746 0-7.459 3.196 12.784 0 13.852-3.197 1.065-15.982 5.327-18.113 2.13s-5.328-8.525-5.328-8.525l2.13-6.392z"/></g></g><g clip-path="url(#b)"><defs><path id="K" d="M-50-5.486h300v300H-50z"/></defs><clipPath id="L"><use xlink:href="#K" overflow="visible"/></clipPath><path clip-path="url(#L)" fill="#EBF0FA" d="M123.022 62.074c-3.97-.343-7.299.814-9.972 3.41-2.702 2.602-3.931 5.875-3.736 9.859.159 3.961 1.722 7.486 4.679 10.543 2.923 3.036 6.397 4.72 10.368 5.062 3.962.314 7.292-.843 9.992-3.443 2.674-2.597 3.931-5.875 3.743-9.833-.201-4.011-1.763-7.534-4.714-10.564-2.923-3.037-6.397-4.716-10.36-5.034"/><path clip-path="url(#L)" fill="none" stroke="#000" stroke-width=".615" stroke-miterlimit="10" d="M123.022 62.074c-3.97-.343-7.299.814-9.972 3.41-2.702 2.602-3.931 5.875-3.736 9.859.159 3.961 1.722 7.486 4.679 10.543 2.923 3.036 6.397 4.72 10.368 5.062 3.962.314 7.292-.843 9.992-3.443 2.674-2.597 3.931-5.875 3.743-9.833-.201-4.011-1.763-7.534-4.714-10.564-2.923-3.037-6.397-4.716-10.36-5.034z"/><path clip-path="url(#L)" fill="#EBF0FA" d="M123.103 73.204c.187-.078.349-.146.543-.196 1.954-.486 3.845-.277 5.652.665 2.004 1.012 3.376 2.596 4.061 4.738.683 2.142.515 4.201-.54 6.154-.984 1.996-2.541 3.363-4.675 4.073-2.143.686-4.229.523-6.23-.49a8.866 8.866 0 0 1-.909-.543c-1.493-.992-2.524-2.396-3.125-4.202-.684-2.142-.55-4.221.435-6.216 1.054-1.954 2.645-3.3 4.788-3.983"/><path clip-path="url(#L)" fill="#31323C" d="M128.08 88.854c-2.233.664-4.343.566-6.379-.49-1.913-.983-3.238-2.528-3.898-4.761-.761-2.209-.661-4.319.294-6.33 1.081-1.935 2.725-3.284 4.959-3.946 2.208-.762 4.219-.639 6.133.344 2.036 1.056 3.481 2.675 4.243 4.883.662 2.232.44 4.269-.641 6.207-.957 2.012-2.478 3.432-4.711 4.093"/><path clip-path="url(#L)" fill="#407495" d="M122.971 72.792c-2.226.711-3.919 2.119-5.037 4.19-1.032 2.091-1.187 4.292-.465 6.551.633 1.908 1.742 3.399 3.297 4.432.299.204.627.402.945.569 2.105 1.063 4.311 1.236 6.563.518 2.235-.745 3.894-2.189 4.933-4.295 1.094-2.025 1.285-4.212.562-6.476-.713-2.24-2.152-3.921-4.276-4.993-1.878-.979-3.882-1.215-5.951-.698a3.58 3.58 0 0 0-.571.202m.294.812l.067-.026c.154-.064.277-.114.419-.15 1.859-.464 3.659-.252 5.349.629 1.914.969 3.206 2.477 3.848 4.487.649 2.035.478 3.99-.506 5.817-.94 1.905-2.431 3.203-4.434 3.87-2.022.645-4.011.489-5.9-.466a8.593 8.593 0 0 1-.86-.517c-1.414-.94-2.379-2.24-2.956-3.979-.65-2.038-.512-4.02.411-5.89.999-1.854 2.526-3.123 4.562-3.775"/><path clip-path="url(#L)" fill="#FFF" d="M125.276 79.845c.536.37 1.128.474 1.783.364.653-.108 1.132-.455 1.472-.99.374-.509.508-1.075.4-1.729a2.391 2.391 0 0 0-1.024-1.526c-.506-.345-1.069-.452-1.719-.313a2.303 2.303 0 0 0-1.538.938c-.342.533-.443 1.126-.307 1.775.107.653.427 1.136.933 1.481m-2.521 4.797c.096-.156.13-.361.103-.591-.06-.254-.167-.416-.324-.511-.16-.127-.366-.161-.592-.104-.257.031-.418.139-.511.322-.125.16-.162.338-.103.593a.735.735 0 0 0 .294.515c.156.097.363.129.591.102a.959.959 0 0 0 .542-.326"/><path clip-path="url(#L)" fill="#EBF0FA" d="M75.822 62.074c-3.963.317-7.438 1.997-10.36 5.033-2.951 3.03-4.514 6.554-4.715 10.564-.188 3.958 1.069 7.236 3.743 9.833 2.701 2.601 6.03 3.758 9.993 3.443 3.971-.342 7.445-2.025 10.368-5.062 2.958-3.057 4.521-6.582 4.679-10.543.194-3.984-1.034-7.258-3.735-9.859-2.675-2.594-6.003-3.752-9.973-3.409"/><path clip-path="url(#L)" fill="none" stroke="#000" stroke-width=".615" stroke-miterlimit="10" d="M75.822 62.074c-3.963.317-7.438 1.997-10.36 5.033-2.951 3.03-4.514 6.554-4.715 10.564-.188 3.958 1.069 7.236 3.743 9.833 2.701 2.601 6.03 3.758 9.993 3.443 3.971-.342 7.445-2.025 10.368-5.062 2.958-3.057 4.521-6.582 4.679-10.543.194-3.984-1.034-7.258-3.735-9.859-2.675-2.594-6.003-3.752-9.973-3.409z"/><path clip-path="url(#L)" fill="#EBF0FA" d="M75.741 73.204c2.142.683 3.734 2.029 4.787 3.983.984 1.995 1.117 4.074.435 6.216-.6 1.807-1.632 3.21-3.124 4.202a9.186 9.186 0 0 1-.908.543c-2.002 1.014-4.088 1.176-6.231.49-2.135-.71-3.692-2.077-4.676-4.073-1.054-1.953-1.221-4.013-.538-6.154.685-2.143 2.057-3.727 4.06-4.738 1.807-.942 3.699-1.151 5.652-.665.195.05.354.118.543.196"/><path clip-path="url(#L)" fill="#31323C" d="M70.763 88.854c-2.233-.661-3.754-2.081-4.709-4.094-1.081-1.938-1.302-3.975-.64-6.207.759-2.208 2.207-3.827 4.242-4.883 1.914-.982 3.925-1.105 6.132-.344 2.234.662 3.877 2.012 4.958 3.946.957 2.011 1.055 4.121.295 6.33-.661 2.232-1.987 3.777-3.9 4.761-2.035 1.058-4.144 1.156-6.378.491"/><path clip-path="url(#L)" fill="#407495" d="M75.839 72.778a3.296 3.296 0 0 0-.538-.188c-2.07-.517-4.074-.281-5.951.699-2.124 1.071-3.563 2.752-4.277 4.992-.723 2.264-.531 4.449.563 6.476 1.039 2.105 2.696 3.55 4.933 4.295 2.251.719 4.458.546 6.562-.518a9.92 9.92 0 0 0 .946-.569c1.555-1.034 2.664-2.523 3.297-4.43.722-2.261.567-4.461-.465-6.553-1.116-2.071-2.811-3.479-5.037-4.19.031.012-.033-.014-.033-.014m4.303 4.601c.923 1.869 1.061 3.852.411 5.89-.577 1.739-1.543 3.039-2.958 3.98a9.043 9.043 0 0 1-.859.516c-1.89.955-3.877 1.11-5.9.466-2.003-.669-3.492-1.965-4.433-3.87-.985-1.826-1.156-3.782-.507-5.817.641-2.011 1.934-3.521 3.847-4.487 1.69-.881 3.49-1.093 5.349-.629.141.036.264.086.419.15l.067.024c2.037.653 3.564 1.923 4.564 3.777"/><path clip-path="url(#L)" fill="#FFF" d="M73.568 79.845c-.538.37-1.128.474-1.783.364-.653-.108-1.133-.455-1.473-.99-.374-.509-.508-1.075-.4-1.729a2.396 2.396 0 0 1 1.025-1.526c.505-.345 1.068-.452 1.718-.313a2.307 2.307 0 0 1 1.539.938c.341.533.443 1.126.307 1.775-.108.653-.428 1.136-.933 1.481m2.521 4.797c-.097-.156-.13-.361-.102-.591.06-.254.166-.416.322-.511.16-.127.367-.161.592-.104.257.031.418.139.511.322.125.16.162.338.102.593a.739.739 0 0 1-.294.515c-.156.097-.364.129-.591.102a.96.96 0 0 1-.54-.326"/></g></svg>