<svg xmlns="http://www.w3.org/2000/svg" xmlns:xlink="http://www.w3.org/1999/xlink" width="242" height="286" viewBox="0 0 242 286"><path fill="#FFF2C2" d="M0 0h242v286H0z"/><ellipse opacity=".1" cx="121" cy="234" rx="54.5" ry="8"/><path fill="none" d="M15.384 4.778h215.624V283H15.384z"/><defs><path id="a" d="M15.384 4.778h215.624V283H15.384z"/></defs><clipPath id="b"><use xlink:href="#a" overflow="visible"/></clipPath><path clip-path="url(#b)" fill="#FFF" d="M172.368 179.22s13.192 1.19 14.474-5.953c1.284-7.146-8.336-12.827-6.687-25.928s12.141-20.488 15.116-16.949c3.39 4.031-6.316 8.888-6.596 17.407-.367 11.177 6.504 17.406 5.954 24.278-.563 7.045-6.229 15.665-23.453 14.106l1.192-6.961z"/><defs><path id="c" d="M15.384 4.778h215.624V283H15.384z"/></defs><clipPath id="d"><use xlink:href="#c" overflow="visible"/></clipPath><path clip-path="url(#d)" fill="none" stroke="#000" stroke-width=".508" stroke-miterlimit="10" d="M172.368 179.22s13.192 1.19 14.474-5.953c1.284-7.146-8.336-12.827-6.687-25.928s12.141-20.488 15.116-16.949c3.39 4.031-6.316 8.888-6.596 17.407-.367 11.177 6.504 17.406 5.954 24.278-.563 7.045-6.229 15.665-23.453 14.106l1.192-6.961z"/><defs><path id="e" d="M15.384 4.778h215.624V283H15.384z"/></defs><clipPath id="f"><use xlink:href="#e" overflow="visible"/></clipPath><path clip-path="url(#f)" fill="#E6E6E6" d="M77.178 76.056s14.315.668 18.194 4.281c3.881 3.611 6.021-8.028 6.021-8.028s-8.027-12.307-24.215 3.747"/><path clip-path="url(#f)" fill="#FF8F9B" d="M78.951 74.814s14.314.668 18.195 4.28c3.879 3.614 6.019-8.026 6.019-8.026s-8.027-12.308-24.214 3.746"/><path clip-path="url(#f)" fill="#E6E6E6" d="M164.687 76.056s-14.314.668-18.194 4.281c-3.878 3.611-6.02-8.028-6.02-8.028s8.028-12.307 24.214 3.747"/><path clip-path="url(#f)" fill="#FF8F9B" d="M162.914 74.814s-14.313.668-18.194 4.28c-3.879 3.614-6.02-8.026-6.02-8.026s8.029-12.308 24.214 3.746"/><path clip-path="url(#f)" fill="#FFF" d="M135.072 69.33s7.108-11.64 16.337-10.035c9.23 1.605 24.082 16.188 19.399 18.731-4.683 2.54-25.552-9.441-25.552-9.441l-5.352 5.828m-33.109-5.083s-7.108-11.64-16.338-10.035C81.226 60.9 66.376 75.482 71.059 78.026c4.682 2.54 25.552-9.441 25.552-9.441l5.352 5.828"/><path clip-path="url(#f)" fill="none" stroke="#000" stroke-width=".508" stroke-miterlimit="10" d="M151.409 59.296c-9.23-1.605-16.338 10.034-16.338 10.034l4.301 4.521c.715 2.506 1.995 5.804 3.778 5.927.903 1.246 2.022 1.789 3.343.557 2.643-2.459 10.123-3.552 14.627-4 4.178 1.627 7.993 2.609 9.688 1.691 4.682-2.544-10.168-17.123-19.399-18.73zm-60.952 0c-9.231 1.607-24.081 16.187-19.398 18.73 1.694.918 5.509-.064 9.688-1.691 4.504.448 11.985 1.541 14.627 4 1.321 1.232 2.442.689 3.343-.557 1.783-.123 3.062-3.421 3.779-5.927l4.3-4.521c-.001 0-7.109-11.64-16.339-10.034z"/><defs><path id="g" d="M15.384 4.778h215.624V283H15.384z"/></defs><clipPath id="h"><use xlink:href="#g" overflow="visible"/></clipPath><path clip-path="url(#h)" fill="#C6C1BA" d="M113.736 179.408v-10.789H93.558a72.221 72.221 0 0 0-5.15-1.035c.721 2.883 1.51 5.825 2.315 8.816 1.669 6.204 3.394 12.617 4.543 18.879 1.055 5.756 1.903 12.078 2.723 18.191 1.089 8.12 2.009 14.642 3.101 19.383h12.07c.562-3.442.98-8.016 1.505-13.783l.28-3.061c1.383-14.992 1.637-31.287 1.683-36.602h-2.892zm35.844-10.789h-20.179v10.789h-2.891c.045 5.314.299 21.609 1.683 36.602l.281 3.054c.525 5.771.943 10.345 1.505 13.79h12.068c1.093-4.741 2.014-11.263 3.103-19.386.819-6.11 1.667-12.433 2.723-18.188 1.148-6.262 2.874-12.675 4.542-18.879.806-2.992 1.597-5.934 2.315-8.816a72.751 72.751 0 0 0-5.15 1.034"/><path clip-path="url(#h)" fill="#FFF" d="M157.195 223.741s8.762-8.918 14.565-20.479c9.111-18.145 13.338-41.258-17.737-35.586 1.581-6.287 5.634-28.822 5.822-33.607.034-.858.086-2.018.136-3.387 5.497-4.147 8.729-9.222 8.729-14.702 0-4.256-1.951-7.364-5.393-9.632a35.58 35.58 0 0 0 .315-4.711c0-21.373-18.935-38.699-42.293-38.699-23.357 0-42.292 17.326-42.292 38.699 0 1.672.116 3.316.341 4.932-3.241 2.247-5.066 5.292-5.066 9.411 0 5.853 3.688 11.241 9.88 15.535.04 1.008.08 1.874.105 2.554.188 4.785 4.241 27.32 5.821 33.607-31.076-5.672-26.848 17.441-17.737 35.586 5.804 11.561 14.566 20.479 14.566 20.479-4.433-1.69-13.409-.544-14.726 4.545-1.219 4.713 7.417 4.452 7.417 4.452h23.1c1.113 4.729 2.449 7.78 4.253 7.904 3.168.217 4.562-2.133 5.525-7.904h19.096c.963 5.771 2.357 8.121 5.525 7.904 1.806-.124 3.14-3.176 4.254-7.904h23.1s8.636.261 7.417-4.452c-1.314-5.089-10.29-6.235-14.723-4.545"/><path clip-path="url(#h)" fill="none" stroke="#000" stroke-width=".508" stroke-miterlimit="10" d="M154.241 168.004c-2.23 8.873-5.368 17.439-7.043 26.566-3.555 19.379-4.785 45.317-10.122 45.682-5.338.365-5.639-6.559-7.328-24.853-1.69-18.297-1.69-38.28-1.69-38.28m-12.112 0s0 19.982-1.69 38.28c-1.688 18.294-1.99 25.218-7.328 24.853-5.338-.364-6.568-26.303-10.123-45.682-1.648-8.979-4.431-18.119-6.646-26.861m22.369 65.283h19.097"/><path clip-path="url(#h)" fill="#F2F2F2" d="M168.71 115.98c0 14.012-21.13 25.37-47.195 25.37-26.064 0-47.194-11.358-47.194-25.37 0-14.013 21.13-15.608 47.194-15.608 26.066 0 47.195 1.596 47.195 15.608"/><path clip-path="url(#h)" fill="none" stroke="#1A1A1A" stroke-width=".592" stroke-linecap="round" stroke-miterlimit="10" d="M121.749 109.111v8.42s-.689 4.449-8.653 2.484m8.653-10.904v8.42s.688 4.449 8.651 2.484"/><path clip-path="url(#h)" fill="#1A1A1A" d="M127.991 107.823c0 1.901-2.795 6.019-6.243 6.019s-6.244-4.117-6.244-6.019 2.796-3.442 6.244-3.442 6.243 1.541 6.243 3.442"/><path clip-path="url(#h)" fill="none" stroke="#000" stroke-width=".508" stroke-miterlimit="10" d="M141.404 232.992h23.099s8.637.259 7.417-4.452c-1.316-5.088-10.292-6.233-14.726-4.544 0 0 8.762-8.919 14.565-20.479 9.111-18.146 13.338-41.259-17.737-35.587 1.581-6.287 5.634-28.823 5.822-33.608.034-.857.086-2.016.136-3.385 5.497-4.147 8.729-9.224 8.729-14.704 0-4.254-1.951-7.362-5.393-9.631.206-1.543.315-3.116.315-4.712 0-21.372-18.935-38.698-42.293-38.698-23.357 0-42.292 17.326-42.292 38.698 0 1.672.116 3.317.341 4.933-3.241 2.247-5.066 5.291-5.066 9.41 0 5.854 3.688 11.242 9.88 15.534.04 1.009.079 1.875.105 2.555.188 4.785 4.241 27.321 5.821 33.608-31.076-5.672-26.847 17.441-17.737 35.587 5.804 11.56 14.566 20.479 14.566 20.479-4.433-1.689-13.409-.544-14.726 4.544-1.219 4.711 7.417 4.452 7.417 4.452h23.099"/><defs><path id="i" d="M15.384 4.778h215.624V283H15.384z"/></defs><clipPath id="j"><use xlink:href="#i" overflow="visible"/></clipPath><path clip-path="url(#j)" fill="#1A1A1A" d="M107.734 92.761a2.948 2.948 0 1 1-5.896 0 2.948 2.948 0 0 1 5.896 0"/><path clip-path="url(#j)" fill="#F2F2F2" d="M106.57 91.748a.596.596 0 0 1-1.189 0c0-.328.267-.596.594-.596.329 0 .595.268.595.596"/><path clip-path="url(#j)" fill="#1A1A1A" d="M141.657 92.761a2.948 2.948 0 1 1-5.895 0 2.948 2.948 0 0 1 5.895 0"/><path clip-path="url(#j)" fill="#F2F2F2" d="M140.583 91.748a.596.596 0 1 1-1.191-.003.596.596 0 0 1 1.191.003"/><path fill="none" d="M15.384 4.778h215.624V283H15.384z"/></svg>