<svg xmlns="http://www.w3.org/2000/svg" xmlns:xlink="http://www.w3.org/1999/xlink" width="200" height="200" viewBox="0 0 200 200"><path fill="#E3F1F5" d="M-43-43h286v286H-43z"/><path fill-rule="evenodd" clip-rule="evenodd" fill="#E8C5AE" d="M-97.042 99.618c-.008.061.002.155-.03.174-.059.033-.156.051-.215.026-.227-.1-.213-.201.035-.253.063-.011.139.035.21.053"/><defs><path id="a" d="M-63.25-21.17h326.5v326.5h-326.5z"/></defs><clipPath id="b"><use xlink:href="#a" overflow="visible"/></clipPath><path clip-path="url(#b)" fill="#77A7CA" d="M125.857 159.875s2.623-6.252 10.516-8.109c7.893-1.858 25.542-2.267 38.153-13.67 12.611-11.402 18.429-33.526 19.368-48.868 0 0 23.488 44.626-7.953 72.536-20.843 18.502-43.31 14.059-43.31 14.059l-16.413-2.067-.361-13.881z"/><path clip-path="url(#b)" fill="#7D00B9" d="M193.895 89.228c-.84 13.716-5.583 32.847-15.59 44.897 1.456.909 3.655.621 6.977-2.28 0 0-2.793 7.574 3.172 1.761 0 0-1.586 8.081 4.618.354 0 0 1.037 9.646 8.38.247 4.092-22.844-7.557-44.979-7.557-44.979"/><path clip-path="url(#b)" fill="#77A7CA" d="M153.435 28.655c1.513 3.729-3.034 25.663-6.681 26.823-3.333 1.06-14.016-2.427-19.34-10.437-5.323-8.009-9.176-18.902-4.37-21.986s28.877 1.873 30.391 5.6m-107.885 0c-1.514 3.729 3.034 25.663 6.68 26.823 3.333 1.06 14.016-2.427 19.34-10.437 5.324-8.009 9.176-18.902 4.37-21.986-4.807-3.083-28.877 1.873-30.39 5.6"/><defs><path id="c" d="M-63.25-21.17h326.5v326.5h-326.5z"/></defs><clipPath id="d"><use xlink:href="#c" overflow="visible"/></clipPath><path clip-path="url(#d)" fill="none" stroke="#000" stroke-width=".76" stroke-miterlimit="10" d="M125.857 159.875s2.623-6.252 10.516-8.109c7.893-1.858 25.542-2.267 38.153-13.67 12.611-11.402 18.429-33.526 19.368-48.868 0 0 23.488 44.626-7.953 72.536-20.843 18.502-43.31 14.059-43.31 14.059l-16.413-2.067-.361-13.881z"/><defs><path id="e" d="M-63.25-21.17h326.5v326.5h-326.5z"/></defs><clipPath id="f"><use xlink:href="#e" overflow="visible"/></clipPath><g opacity=".15" clip-path="url(#f)"><defs><path id="g" d="M127.388 28.442h20.149v20.576h-20.149z"/></defs><clipPath id="h"><use xlink:href="#g" overflow="visible"/></clipPath><path clip-path="url(#h)" d="M147.354 32.467c.928 2.286-1.858 15.728-4.093 16.438-2.043.65-8.591-1.486-11.853-6.396-3.262-4.908-5.623-11.584-2.678-13.474 2.945-1.89 17.697 1.147 18.624 3.432"/></g><g opacity=".15" clip-path="url(#f)"><defs><path id="i" d="M51.784 28.442h20.149v20.576H51.784z"/></defs><clipPath id="j"><use xlink:href="#i" overflow="visible"/></clipPath><path clip-path="url(#j)" d="M51.967 32.467c-.927 2.286 1.859 15.728 4.094 16.438 2.042.65 8.59-1.486 11.852-6.396 3.262-4.908 5.624-11.584 2.678-13.474-2.944-1.89-17.696 1.147-18.624 3.432"/></g><path fill="#E5C6DF" d="M99.43 252.809H86.847h25.165z"/><defs><path id="k" d="M-63.25-21.17h326.5v326.5h-326.5z"/></defs><clipPath id="l"><use xlink:href="#k" overflow="visible"/></clipPath><path clip-path="url(#l)" fill="#77A7CA" d="M145.563 240.953s11.547-11.752 19.195-26.985c12.007-23.911 17.578-54.371-23.374-46.896 2.084-8.284 3.916-16.078 4.342-23.532.669-8.029 1.268-10.116 1.338-13.967 2.675.233 5.256-.418 7.659-1.618-4.209.411-6.216-.928-7.555-2.936 6.691 2.008 14.05 0 18.734-7.358-10.036 2.676-17.396-1.339-18.732-4.8 3.343 1.454 8.027 3.461 15.386-.554-12.813-2.441-10.235-14.917-11.813-26.157-1.916-13.639-1.638-25.614-12.149-36.126-8.542-8.543-21.839-11.655-33.94-12.525-1.841-2.738-1.576-6.673 1.062-8.725-5.23-.619-10.562 3.457-12.744 8.25-11.932.945-24.438 4.584-32.854 13-7.311 7.312-9.403 15.33-10.643 24.125-1.359 9.639-1.072 20.087-3.172 29.619-2.02 4.508-4.742 7.479-9.677 7.253 3.105 2.492 7.727 2.904 11.225 1.002-3.374 5.164-9.507 8.4-15.674 8.273 4.596 6.061 9.28 8.737 19.008 9.342h.464c.076 3.809.672 5.918 1.337 13.901.426 7.454 2.258 15.248 4.342 23.532-40.952-7.475-35.38 22.985-23.374 46.896 7.647 15.233 19.195 26.985 19.195 26.985-5.842-2.227-17.671-.717-19.407 5.992-1.606 6.208 9.774 5.863 9.774 5.863h30.547c1.427 5.748 3.132 9.413 5.401 9.569 4.015.274 5.867-2.587 7.131-9.569h25.464c1.265 6.982 3.117 9.844 7.131 9.569 2.269-.156 3.975-3.821 5.402-9.569h30.599s11.382.345 9.775-5.863c-1.732-6.708-13.56-8.217-19.403-5.991"/><defs><path id="m" d="M-63.25-21.17h326.5v326.5h-326.5z"/></defs><clipPath id="n"><use xlink:href="#m" overflow="visible"/></clipPath><g clip-path="url(#n)"><defs><path id="o" d="M-219.141 252.809h30.44s11.381.345 9.774-5.863c-1.736-6.709-13.564-8.219-19.406-5.992 0 0 11.547-11.753 19.196-26.985 12.005-23.912 17.577-54.371-23.375-46.896 2.083-8.284 3.916-16.078 4.343-23.532.669-8.029 1.267-10.116 1.338-13.967 2.675.233 5.256-.418 7.658-1.618-3.698-1.082-6.878-3.817-8.502-7.311 3.071 1.654 6.916 1.79 10.095.357-4.211-3.246-6.385-3.598-9.146-8.141 5.723 3.607 13.042 4.567 19.501 2.558-8.581-7.428-14.35-18.028-15.928-29.269-1.915-13.639-1.637-25.614-12.148-36.126-8.669-8.67-21.957-12.015-34.208-12.823-3.034-3.023-6.126-10.133-2.402-13.774-2.518.942-7.39 4.704-6.06 7.883l-1.736-2.25c-1.207 2.397-1.108 5.383-.162 7.888-12.246.811-25.245 4.413-33.908 13.077-10.512 10.512-10.234 22.487-12.15 36.126-1.577 11.24-7.347 21.841-15.927 29.269 6.459 2.01 13.779 1.05 19.501-2.558-2.761 4.543-4.934 4.895-9.146 8.141 3.181 1.433 7.024 1.297 10.096-.357-1.625 3.493-4.804 6.229-8.501 7.311 2.401 1.2 4.982 1.852 7.658 1.618.071 3.851.669 5.938 1.338 13.967.426 7.454 2.258 15.248 4.342 23.532-40.951-7.475-35.381 22.985-23.374 46.896 7.647 15.233 19.195 26.985 19.195 26.985-5.842-2.227-17.67-.717-19.405 5.992-1.608 6.208 9.773 5.863 9.773 5.863h30.44"/></defs><clipPath id="p"><use xlink:href="#o" overflow="visible"/></clipPath><path clip-path="url(#p)" fill="#B75CA8" d="M-65.926 126.022c-26.762-62.892-56.87-101.027-80.956-109.725-15.583-5.628-28.363 19.267-34.902 37.548-6.393-8.182-14.87-16.167-19.291-19.484-8.029-6.021-28.77-35.46-43.489-29.438-14.719 6.021-10.037-43.48-17.395-25.426-.806 1.994 2.017 8.616 2.515 10.778 1.549 6.719 2.033 12.939 2.222 19.846a82.43 82.43 0 0 0 .203 3.771c-20.833-18.694-94.654-43.413-126.708 41.21-33.452 88.315-107.718 158.566-19.402 230.825 88.315 72.258 331.183 81.625 359.953 18.733 28.768-62.89 4.012-115.745-22.75-178.638m-201.386 162.581c-35.46-15.388-105.711-34.79-82.962-47.502 11.019-6.159 11.895-29.013 22.747-35.46 7.33-4.355 18.064 11.373 33.09 5.269 7.25-2.945-1.34-15.898 3.275-20.406 1.395-1.361 4.792-4.967 1.771-7.61-2.453-2.145-6.148-2.055-9.399-1.772-13.668.732 18.766-20.307-12.68-15.623-30.966 4.612-10.836 7.466-4.731-5.724.165-.046.33-.09.495-.137 14.134-3.921 30.931 3.731 44.05-2.261.498-.228 1.006-.488 1.334-.927.469-.623.48-1.471.399-2.245-.362-3.471-2.246-6.755-5.059-8.819-5.787-4.247-14.525-1.96-21.101-1.297-4.395.442-1.422 6.062-5.811 6.062-3.449 0-8.931 1.846-11.9-.439-.906-.697-1.502-1.713-2.076-2.703a966.637 966.637 0 0 0-10.077-16.995c-.703-1.158-10.514-18.224-10.949-18.039 2.851-1.212-.322-6.858 2.007-8.029 8.681-4.36 28.159 9.822 32.115 0 2.229-5.536 22.257-2.479 21.871-8.145-.699-10.275 6.891-9.554 14.482-11.049 9.145-1.799 12.903-9.424 14.867-17.751 1.404-5.955.135-12.897 3.213-18.442 4.209-7.582 5.904.017 6.388 4.426.602 5.478.567 11.077 2.268 16.378 2.066 6.436 8.367 11.159 13.853 14.512 15.962 9.755 33.554 7.198 43.288-.361 3.595 13.635 8.673 35.764 11.26 47.196-.567.17-1.13.352-1.688.559a20.567 20.567 0 0 1-3.963 1.022c-3.247.516-6.424 1.346-9.592 2.186-2.858.758-5.725 1.454-8.652 1.878-2.765.401-5.512.857-8.191 1.662-.786.235-1.586.417-2.381.615-1.485.376-2.961.779-4.369 1.391-1.152.499-2.305.997-3.456 1.498-1.933.844-3.578 2.079-4.996 3.623-.293.319-.584.643-.727 1.071-.234.695.183 1.358.913 1.396.601.032 1.211-.032 1.802.056 1.472.214 2.932.257 4.416.11 1.358-.136 2.73-.151 4.099-.16a55.785 55.785 0 0 0 5.894-.367 88.11 88.11 0 0 0 6.004-.894c2.534-.457 5.107-.604 7.677-.73 3.295-.164 6.528-.681 9.715-1.498 2.496-.641 4.979-1.335 7.375-2.275l-3.423 7.301c-3.002.854-6.061 1.494-9.107 2.179-2.1.47-4.224.745-6.375.877-4.449.276-8.893.635-13.341.916-2.984.187-5.604 1.318-8.046 2.946-1.616 1.078-2.822 2.526-3.686 4.262-.514 1.028-.164 2.001.866 2.454.226.103.469.162 1.012.343.167.024.661.179 1.136.138 1.726-.154 3.469-.261 5.163-.595 3.174-.625 6.369-.946 9.589-1.088 1.815-.081 3.635-.091 5.443-.259 4.073-.379 7.932-1.473 11.511-3.535a68.861 68.861 0 0 0 2.49-1.506l-1.498 3.196c-3.674 7.835-14.979-.361-20.478 5.072-3.961 3.914-1.894 10.087-1.172 14.773.563 3.656-3.621 7.842.882 10.471 1.91 1.116 4.242 1.1 6.446 1.277 9.337.753 17.668-2.827 19.288 13.952.651 6.74 5.361 12.426 8.159 18.593-1.313-1.149-3.248-1.14-4.988-1.014-12.898.942-33.529 4.094-37.219 19.171-2.715 11.095 9.086 22.856 18.453 26.664-23.111 16.356-56.034 29.266-77.013 20.162m90.309-136.181c.013-.069.025-.196.041-.196.122-.003.245.019.368.031l-.052.2-.357-.035"/></g><path clip-path="url(#n)" fill="#B6D3D2" d="M108.698 223.705c-.006-.045-.018-.088-.025-.132-.02-4.232-.39-8.456-.614-12.683-.139-2.624-.238-5.254-.457-7.875a78.585 78.585 0 0 1-.243-4.065c-.207-6.603-.158-15.246-.307-18.485-.362.42 14.357-16.306 7.667-30.356-3.739-7.853-9.326-10.704-15.054-10.704s-12.258 5.052-14.385 10.37c-6.021 15.054 6.021 27.766 6.538 30.185.102.972.165 1.883.153 2.265-.37 11.75-.628 26.401-1.338 38.137-.113 1.868-2.676 31.445-3.345 32.114.001 0 24.103.169 24.086 0-.845-8.45-1.522-19.869-2.676-28.771"/><path clip-path="url(#n)" fill-rule="evenodd" clip-rule="evenodd" fill="#7D00B9" d="M119.402 58.937c.524 0 1.05-.008 1.575.002.788.013 1.405.35 1.803 1.029.848 1.451 1.194 3.067 1.422 4.701.116.827-.52 1.557-1.403 1.575-1.163.025-2.196.366-3.198.903a5.466 5.466 0 0 1-.916.365c-1.026.328-1.659.113-2.19-.764-.377-.623-.673-1.286-.758-2.023-.121-1.047-.27-2.094-.354-3.143-.124-1.56.881-2.659 2.441-2.716.526-.018 1.053-.003 1.58-.003v.074zM54.356 186.891c1.986.997 2.634 2.17 2.575 3.738-.075 1.972-.619 3.845-1.271 5.685-.348.981-1.136 1.62-2.114 1.873-3.185.821-6.199 2.117-9.291 3.197-1.527.533-2.607-.3-2.629-1.972-.057-4.08.172-8.146.768-12.185.075-.513.285-1.024.517-1.496.961-1.959 1.637-2.206 3.83-1.648 2.846.724 5.521 1.883 7.615 2.808m-24.607 9.779l-.001-.324c-.007-2.311-.032-2.567 2.43-3.484 2.251-.838 4.616-.022 5.823 2.019.517.875.9 1.843 1.229 2.807.352 1.032.027 1.715-.995 2.178-1.404.634-2.742 1.382-4.087 2.125-1.358.751-2.376.438-3.283-.87-.561-.807-.917-1.686-1.003-2.664-.056-.641-.082-1.279-.113-1.787m114.391-77.632c.094 1.779-.194 3.467-.52 5.15-.343 1.771-1.257 2.892-3.15 3.205-1.325.221-2.617.672-3.908 1.068-1.047.321-2.109.485-3.197.444-1.268-.05-2.131-.906-1.894-2.095 1.024-5.148 3.089-9.616 8.219-11.959.656-.298 1.279-.675 1.951-.919.813-.299 1.663.092 2.012.907.209.49.314 1.025.431 1.548.06.261.051.538.055.808.007.633.001 1.265.001 1.843m14.769 85.419c-1.491-1.764-1.683-3.605-1.271-5.567.223-1.066.45-2.136.7-3.195.235-1 .805-1.827 1.446-2.602.368-.443.884-.701 1.453-.584 2.135.444 4.331.615 6.402 1.343a8.237 8.237 0 0 1 1.712.839c.856.547 1.232 1.693.868 2.646-.392 1.022-.852 2.031-1.664 2.794-1.794 1.688-3.719 3.202-5.955 4.287-1.219.588-2.419.759-3.691.039m-6.722-31.601c3.09-3.092 9.192-4.325 13.026-3.372.625.154.995.729 1.021 1.413.025.641-.135 1.233-.389 1.815-.642 1.472-1.301 2.939-1.891 4.432-.681 1.728-1.906 2.763-3.707 3.143-.875.184-1.742.397-2.623.545-1.654.278-2.858-.525-3.004-2.218-.199-2.3-2.845-3.53-2.433-5.758m-5.474 30.233c-.115-.734-.263-1.695-.418-2.655-.074-.463.047-.865.332-1.227.327-.416.728-.637 1.272-.506.236.057.475.104.711.157.855.197 1.71.379 2.599.279.596-.066 1.036.191 1.288.745.021.044.042.088.067.13.857 1.502.827 1.545-.589 2.499-.641.434-1.206.98-1.812 1.47-.416.335-.815.702-1.269.976-.829.499-1.526.235-1.854-.66-.117-.318-.18-.656-.327-1.208m9.95-17.718c1.113-.141 2.167.176 3.19.663.515.246.939.6 1.303 1.026.503.587.546 1.258.025 1.81-1.529 1.618-3.315 2.8-5.592 3.063-.754.086-1.231-.155-1.517-.768-.814-1.743-.586-3.474.116-5.18.157-.382.515-.591.934-.609.501-.021 1.003-.005 1.541-.005m.206 10.283c.006.285-.218.682-.61.995-.062.049-.122.104-.191.139-.779.382-1.482.89-2.215 1.349-.816.512-1.224.392-1.792-.388-.531-.729-.662-1.59-.818-2.439-.063-.34.128-.608.399-.804a2.03 2.03 0 0 1 1.1-.389 4.032 4.032 0 0 0 1.48-.352c.28-.123.606-.176.916-.193 1.066-.063 1.702.545 1.731 1.62.002.079 0 .158 0 .462m-88.317-36.467c.02 1.16-.088 2.105-.539 2.973-1.268 2.442-2.577 4.866-3.817 7.322-1.303 2.581-4.843 2.189-5.774-.257-.941-2.473-1.533-5.056-1.827-7.692-.115-1.041.401-1.799 1.263-2.394 2.017-1.394 4.204-2.474 6.454-3.399 2.237-.922 3.685-.027 4.117 2.378.075.414.097.841.123 1.069m15.983-99.13c-2.363.209-4.086-1.223-5.118-3.65a12.83 12.83 0 0 1-.743-2.37c-.302-1.466.206-2.411 1.622-2.943 1.967-.745 4.037-1.087 6.114-.78 4.456.656 4.073.297 5.803 4.419.944 2.246.283 3.063-1.562 3.921-1.976.914-3.959 1.415-6.116 1.403m82.645 116.29c.327-.204.568-.4.836-.511 1.706-.704 2.021-.502 2.375 1.646a47.887 47.887 0 0 0 1.361 5.964c.559 1.854.141 3.334-.943 4.642-.628.756-1.387 1.021-2.193.68-1.238-.521-2.339-1.388-3.339-2.438-.349-.367-.48-.885-.51-1.442-.05-.925.139-1.78.467-2.601.772-1.925 1.606-3.816 1.946-5.94M108.77 49.514c.037-1.281.551-2.027 1.464-2.402 1.171-.48 2.386-.859 3.587-1.261.894-.295 1.667.007 2.363.564.617.496.729 1.281.229 1.873-.363.429-.775.82-1.203 1.188-1.078.928-2.051 1.94-2.766 3.181-.105.182-.235.353-.353.528-.333.495-.744.872-1.394.759-.551-.096-.842-.51-.985-1-.353-1.218-.673-2.443-.942-3.43"/><defs><path id="q" d="M92.973 37.023c-11.933.945-24.439 4.584-32.854 13-7.312 7.312-9.403 15.33-10.644 24.125-1.359 9.639-1.072 20.087-3.172 29.62-2.02 4.507-4.742 7.478-9.676 7.252 3.105 2.492 7.727 2.904 11.224 1.002-3.374 5.164-9.506 8.4-15.674 8.274 4.597 6.06 9.28 8.736 19.008 9.341h.464c.077 3.809.673 5.918 1.337 13.901.426 7.454 2.259 15.248 4.342 23.532-40.952-7.475-35.38 22.985-23.374 46.897 7.648 15.232 19.195 26.984 19.195 26.984-5.842-2.227-17.67-.717-19.406 5.992-1.607 6.208 9.774 5.863 9.774 5.863h30.547c1.427 5.748 3.133 9.413 5.402 9.568 4.014.275 5.866-2.586 7.13-9.568h25.465c1.265 6.982 3.117 9.844 7.132 9.568 2.269-.155 3.974-3.82 5.4-9.568h30.6s11.381.345 9.774-5.863c-1.736-6.709-13.564-8.219-19.407-5.992 0 0 11.548-11.752 19.196-26.984 12.007-23.912 17.578-54.372-23.374-46.897 2.083-8.284 3.916-16.078 4.342-23.532.669-8.029 1.269-10.116 1.338-13.967 2.675.233 5.257-.418 7.659-1.618-4.209.411-6.216-.928-7.555-2.936 6.691 2.008 14.05 0 18.734-7.358-10.036 2.676-17.396-1.339-18.732-4.8 3.343 1.454 8.027 3.461 15.386-.554-12.813-2.441-10.235-14.917-11.813-26.157-1.915-13.639-1.637-25.614-12.15-36.126-8.542-8.543-21.838-11.654-33.939-12.525-1.841-2.737-1.576-6.673 1.061-8.725a8.814 8.814 0 0 0-1.063-.063c-4.872.002-9.643 3.847-11.677 8.314"/></defs><clipPath id="r"><use xlink:href="#q" overflow="visible"/></clipPath><path clip-path="url(#r)" fill-rule="evenodd" clip-rule="evenodd" fill="#7D00B9" d="M203.035 79.188l-40.144-59.546-32.114-13.38-62.892-2.008 10.667 8.087 2.045-.727-.966 1.544 17.965 13.619c-3.45 1.098-6.891 2.241-10.59 2.302-.524.005-1.043.294-1.563.464-1.645.533-2.859 1.588-3.539 3.169-.501 1.154-1.107 2.305-.904 4.057 2.2 3.096 4.545 6.538 7.049 9.868 1.724 2.291 4.071 3.566 7.058 3.391.723-.043 1.455-.04 2.178.003 3.769.208 6.791-1.234 8.887-4.312 2.268-3.317 4.882-6.314 7.702-9.152.045-.045.083-.097.126-.143l4.297.672c-.037 5.906.965 11.683 2.495 17.374.429 1.605 2.493 2.375 4.045 1.75.5-.201 1.003-.447 1.425-.778 2.326-1.8 4.649-3.604 6.967-5.413-.803 1.414-1.534 2.886-2.241 4.378a8.325 8.325 0 0 0-.814 3.684c.015 1.923.79 3.03 2.588 3.704 2.267.846 4.628.83 6.991.771 1.271 0 2.58.205 3.801-.038 4.004-.802 8.05-.952 12.101-1.083l4.042 42.419a3.819 3.819 0 0 0-1.737.36c-3.463 1.573-6.919 3.159-10.317 4.873-2.966 1.494-3.796 4.134-2.62 7.587.605 1.779 1.651 3.216 2.944 4.464 1.957 1.879 4.134 2.485 7.458 1.249.151-.082 1.206-.575 2.162-1.221 1.932-1.302 3.815-2.688 5.713-4.051.542-.387 1.098-.762 1.581-1.227 1.414-1.355 1.696-3.07.822-4.955l7.891 2.367-7.167 14.333c-1.622-1.014-1.156 5.906-2.87 5.069-4.062-1.983-10.035-3.345-14.719-3.345-6.805 0-9.64 4.861-14.06 9.946-1.291 1.483-2.146 3.368-3.065 5.137-.591 1.136-.809 2.444-.515 3.72.158.673.456 1.482.963 1.877 1.769 1.365 3.746 2.296 6.07 1.577 1.214-.375 2.483-.721 3.565-1.348 2.801-1.629 5.793-1.999 8.945-1.823 1.816.098 3.635.016 5.457.016v.247c2.909 0 5.817.02 8.728-.006 2.083-.017 3.956-.433 5.657-1.169l8.364 13.94 4.871 53.888a458.526 458.526 0 0 0-8.875-3.376c-6.213-2.295-12.686-3.546-18.44-4.372-8.19-.05-13.479 4.109-14.479 11.59-.67 5.051 1.048 10.466-.477 15.356-4.75 15.23-10.771 18.575-14.786 21.921-.84.699 13.461-1.119 13.453-.029-.039 2.981 1.959 5.767 4.798 6.683 2.539.817 4.989.94 7.396.285l-2.898 4.435s-58.208 38.137-59.546 37.468C88.626 304.661.31 261.173.31 261.173l40.191-37.792c.939.496 1.87 1.007 2.771 1.566 1.761 1.092 3.485.97 5.183-.083 1.578-.976 2.962-2.219 4.004-3.732 1.358-1.976 1.849-4.222.672-6.427-1.064-1.988-3.029-2.637-5.199-2.696-.107-.004-.215 0-.323 0-3.732-.022-6.93 1.386-9.824 3.637-1.717 1.334-1.984 3.407-.569 5.064.196.231.399.455.606.671l-13.426 4.332-20.071-18.066 11.605-21.608c4.879 1.383 9.781 1.897 14.725 1.95 4.834.054 8.456-2.733 10.724-6.951 2.261-4.196 3.848-8.626 3.725-13.535-.087-3.463-.05-6.721.215-10.187.199-2.599-.194-5.543-2.236-7.162-1.716-1.36-4.346-1.565-5.513-3.42 3.771.311 7.316 1.841 10.931 2.959 7.158 2.214 14.898 2.888 22.25 3.823 4.089.521 10.23.966 6.743-4.942-2.963-5.021-13.141-13.52-19.521-11.695-1.358.389-2.84.496-4.269.715-2.397.363-16.429 3.79-19.397 5.885L18.375 128.03l5.353-20.74 12.476-7.018c.623.036 1.299-.082 2.014-.371 4.435-1.8 9.13-2.15 13.81-2.571 3.179-.287 6.379-.415 9.564-.674 2.254-.186 4.481-.541 6.519-1.627 4.803-2.562 6.34-7.676 3.719-12.471-.453-.824-1.034-1.575-1.488-2.396-.987-1.788-2.569-2.954-4.491-3.048-4.854-.232-9.735-1.062-14.576.134-1.086.27-2.22.533-3.206 1.052a63.18 63.18 0 0 0-4.903 2.861l-2.712-19.368 16.289-14.659a32.409 32.409 0 0 0 3.069 7.43c1.144 2.015 2.77 2.631 5.102 2.146 2.328-.486 4.438-1.554 6.477-2.746 3.642-2.135 6.258-5.471 9.438-8.152 1.232-1.042 1.008-3.219-.237-4.418-2.002-1.927-4.408-3.144-7.113-3.778-2.468-.576-4.924-1.195-7.395-1.74a11.626 11.626 0 0 0-.581-.108l14.129-22.607-1.079-.817-88.279 31.385-53.524 175.293L-3.035 348.15l169.272-56.201s40.813-22.079 42.15-28.101c1.338-6.022 16.727-76.942 16.727-76.942L203.035 79.188z"/><path fill="none" stroke="#000" stroke-width=".76" stroke-miterlimit="10" d="M86.847 252.809h25.165"/><defs><path id="s" d="M-63.25-21.17h326.5v326.5h-326.5z"/></defs><clipPath id="t"><use xlink:href="#s" overflow="visible"/></clipPath><path clip-path="url(#t)" fill="none" stroke="#000" stroke-width=".76" stroke-miterlimit="10" d="M141.816 167.169c-2.94 11.691-7.076 22.981-9.282 35.008-4.685 25.539-6.305 59.719-13.339 60.2-7.035.482-7.432-8.642-9.657-32.752-2.227-24.109-2.227-50.445-2.227-50.445m-15.961 0s0 26.335-2.226 50.445c-2.225 24.11-2.623 33.233-9.657 32.752-7.034-.481-8.655-34.661-13.34-60.2-2.17-11.834-5.839-23.877-8.757-35.397"/><path clip-path="url(#t)" d="M147.096 129.905c-1.066.041-2.088-.186-3.057-.487-.971-.307-1.899-.695-2.84-1.053.975.252 1.944.536 2.922.729.976.19 1.97.288 2.912.145a.336.336 0 0 1 .101.663c-.012.001-.026.001-.038.003m-95.519-.667c.942.144 1.937.046 2.913-.145.978-.192 1.947-.478 2.922-.729-.941.357-1.87.748-2.84 1.053-.968.302-1.99.528-3.057.487a.336.336 0 0 1 .024-.671.39.39 0 0 0 .038.005"/><path clip-path="url(#t)" fill="none" stroke="#000" stroke-width=".76" stroke-linecap="round" stroke-linejoin="round" stroke-miterlimit="10" d="M124.755 252.809h30.44s11.381.345 9.774-5.863c-1.736-6.709-13.564-8.219-19.406-5.992 0 0 11.548-11.753 19.195-26.985 12.007-23.912 17.578-54.371-23.374-46.896 2.083-8.284 3.916-16.078 4.342-23.532.669-8.029 1.268-10.116 1.338-13.967 2.675.233 5.257-.418 7.659-1.618-4.209.411-6.216-.928-7.555-2.936 6.691 2.008 14.05 0 18.734-7.358-10.036 2.676-17.396-1.339-18.732-4.8 3.343 1.454 8.027 3.461 15.386-.554-12.813-2.441-10.235-14.917-11.813-26.157-1.916-13.639-1.638-25.614-12.149-36.126-8.542-8.543-21.839-11.657-33.94-12.525-1.841-2.737-1.577-6.673 1.061-8.725-5.229-.619-10.561 3.457-12.743 8.25-11.932.945-24.439 4.584-32.854 13-7.312 7.312-9.403 15.329-10.644 24.125-1.359 9.639-1.072 20.087-3.172 29.619-2.021 4.51-4.742 7.479-9.677 7.253 3.105 2.492 7.727 2.904 11.224 1.002-3.374 5.164-9.507 8.4-15.674 8.272 4.597 6.062 9.28 8.738 19.008 9.343h.464c.077 3.809.672 5.918 1.337 13.901.426 7.454 2.259 15.248 4.342 23.532-40.952-7.475-35.381 22.985-23.374 46.896 7.648 15.233 19.195 26.985 19.195 26.985-5.842-2.227-17.67-.717-19.406 5.992-1.607 6.208 9.774 5.863 9.774 5.863h30.44"/><path clip-path="url(#t)" fill="none" stroke="#000" stroke-width=".76" stroke-miterlimit="10" d="M125.552 42.015c-4.269-7.513-6.73-16.25-2.508-18.959 4.806-3.084 28.877 1.872 30.391 5.6 1.513 3.729-3.034 25.665-6.68 26.823-.764.242-2.219.192-3.601-.042m-69.14-14.473c3.902-7.26 5.953-15.325 1.926-17.908-4.806-3.084-28.877 1.872-30.39 5.6-1.514 3.729 3.033 25.664 6.68 26.822.763.244 2.219.193 3.6-.041"/><defs><path id="u" d="M92.973 37.023c-11.933.945-24.439 4.584-32.854 13-7.312 7.312-9.403 15.33-10.644 24.125-1.359 9.639-1.072 20.087-3.172 29.62-2.02 4.507-4.742 7.478-9.676 7.252 3.105 2.492 7.727 2.904 11.224 1.002-3.374 5.164-9.506 8.4-15.674 8.274 4.597 6.06 9.28 8.736 19.008 9.341h.464c.077 3.809.673 5.918 1.337 13.901.426 7.454 2.259 15.248 4.342 23.532-40.952-7.475-35.38 22.985-23.374 46.897 7.648 15.232 19.195 26.984 19.195 26.984-5.842-2.227-17.67-.717-19.406 5.992-1.607 6.208 9.774 5.863 9.774 5.863h30.547c1.427 5.748 3.133 9.413 5.402 9.568 4.014.275 5.866-2.586 7.13-9.568h25.465c1.265 6.982 3.117 9.844 7.132 9.568 2.269-.155 3.974-3.82 5.4-9.568h30.6s11.381.345 9.774-5.863c-1.736-6.709-13.564-8.219-19.407-5.992 0 0 11.548-11.752 19.196-26.984 12.007-23.912 17.578-54.372-23.374-46.897 2.083-8.284 3.916-16.078 4.342-23.532.669-8.029 1.269-10.116 1.338-13.967 2.675.233 5.257-.418 7.659-1.618-4.209.411-6.216-.928-7.555-2.936 6.691 2.008 14.05 0 18.734-7.358-10.036 2.676-17.396-1.339-18.732-4.8 3.343 1.454 8.027 3.461 15.386-.554-12.813-2.441-10.235-14.917-11.813-26.157-1.915-13.639-1.637-25.614-12.15-36.126-8.542-8.543-21.838-11.654-33.939-12.525-1.841-2.737-1.576-6.673 1.061-8.725a8.814 8.814 0 0 0-1.063-.063c-4.872.002-9.643 3.847-11.677 8.314"/></defs><clipPath id="v"><use xlink:href="#u" overflow="visible"/></clipPath><g opacity=".05" clip-path="url(#v)"><defs><path id="w" d="M5.328 22.612h188.005v266.155H5.328z"/></defs><clipPath id="x"><use xlink:href="#w" overflow="visible"/></clipPath><path clip-path="url(#x)" d="M85.95 29.679S37.109 55.773 61.864 170.85c0 0-65.233-14.386-3.345 71.589 0 0-32.546 3.247-16.726 14.72 43.823 31.779 120.764-1.673 120.764-1.673s9.367-12.712-21.41-12.712c0 0 60.884-81.625-4.014-70.92 0 0 26.762-114.409-20.072-138.496-10.922-5.616 44.158-4.014 44.158-4.014l32.115 193.357-8.697 48.842s-160.574 26.093-163.25 14.05C18.71 273.55 5.329 221.364 5.329 221.364s14.718-117.755 14.05-123.775c-.669-6.022 12.712-74.267 14.05-74.936 1.338-.669 52.521 7.026 52.521 7.026"/></g><defs><path id="y" d="M-63.25-21.17h326.5v326.5h-326.5z"/></defs><clipPath id="z"><use xlink:href="#y" overflow="visible"/></clipPath><path clip-path="url(#z)" fill="#393C3D" d="M90.605 105.271c.274 0 .532-.17.631-.441.084-.23 2.153-5.658 7.266-5.658 5.131 0 7.245 5.602 7.266 5.658a.673.673 0 1 0 1.263-.464c-.098-.267-2.469-6.539-8.529-6.539-6.061 0-8.431 6.272-8.529 6.539a.672.672 0 0 0 .632.905"/><path clip-path="url(#z)" fill="none" stroke="#393C3D" stroke-width="1.52" stroke-miterlimit="10" d="M98.566 91.675l-.127 6.696"/><defs><path id="A" d="M-63.25-21.17h326.5v326.5h-326.5z"/></defs><clipPath id="B"><use xlink:href="#A" overflow="visible"/></clipPath><g opacity=".1" clip-path="url(#B)"><defs><path id="C" d="M151.146 67.922h.725v.737h-.725z"/></defs><clipPath id="D"><use xlink:href="#C" overflow="visible"/></clipPath><path clip-path="url(#D)" fill="#A5A5A5" d="M151.146 67.922c.017.24.056.487.11.737.223-.034.434-.079.615-.143-.001.001-.282-.215-.725-.594"/></g><path fill="#E5C6DF" d="M99.43 252.809H86.847h25.165z"/><defs><path id="E" d="M-63.25-21.17h326.5v326.5h-326.5z"/></defs><clipPath id="F"><use xlink:href="#E" overflow="visible"/></clipPath><path clip-path="url(#F)" fill="#393C3D" d="M109.604 80.946c0 3.646-4.646 10.983-10.843 10.983s-10.843-7.337-10.843-10.983c0-3.645 4.646-5.469 10.843-5.469s10.843 1.825 10.843 5.469"/><defs><path id="G" d="M87.917 80.946c0 3.646 4.646 10.983 10.844 10.983s10.843-7.337 10.843-10.983c0-3.645-4.646-5.469-10.843-5.469s-10.844 1.825-10.844 5.469"/></defs><clipPath id="H"><use xlink:href="#G" overflow="visible"/></clipPath><g opacity=".55" clip-path="url(#H)"><defs><path id="I" d="M84.861 76.004h27.058v20.458H84.861z"/></defs><clipPath id="J"><use xlink:href="#I" overflow="visible"/></clipPath><path clip-path="url(#J)" fill="#1B1D1E" d="M87.18 78.955c0 3.49 2.579 6.679 5.129 8.8 3.915 3.255 8.49 3.246 12.786.648 3.777-2.284 5.278-6.339 5.278-10.608 0-8.117 3.478 13.915 0 15.075-3.479 1.16-17.396 5.798-19.714 2.319-2.32-3.479-5.798-9.277-5.798-9.277l2.319-6.957z"/></g><path d="M147.096 129.905c-1.066.041-2.088-.186-3.057-.487-.971-.307-1.899-.695-2.84-1.053.975.252 1.944.536 2.922.729.976.19 1.97.288 2.912.145a.336.336 0 0 1 .101.663c-.012.001-.026.001-.038.003"/><path fill="#FFF" d="M67.136 53.313c-8.01 2.872-12.174 11.693-9.301 19.705 2.873 8.01 11.695 12.175 19.705 9.302 8.011-2.873 12.175-11.695 9.302-19.706-2.873-8.01-11.695-12.175-19.706-9.301"/><circle fill="none" stroke="#000" stroke-width=".76" stroke-linecap="round" stroke-linejoin="round" cx="72.338" cy="67.817" r="15.408"/><path fill="#4863AB" d="M78.242 75.969a7.278 7.278 0 0 1-10.253-.929 7.28 7.28 0 1 1 10.253.929"/><path fill="#31323C" d="M76.994 74.471a5.33 5.33 0 1 1-6.83-8.186 5.33 5.33 0 0 1 6.83 8.186"/><path fill="#FFF" d="M80.451 71.134a1.944 1.944 0 1 1-2.489-2.987 1.944 1.944 0 0 1 2.489 2.987m-9.435.634a.952.952 0 0 1-1.217-1.463.951.951 0 0 1 1.217 1.463m59.789-18.455c8.01 2.872 12.174 11.693 9.301 19.705-2.873 8.01-11.694 12.175-19.705 9.302-8.01-2.873-12.175-11.695-9.301-19.706 2.872-8.01 11.694-12.175 19.705-9.301"/><circle fill="none" stroke="#000" stroke-width=".76" stroke-linecap="round" stroke-linejoin="round" cx="125.603" cy="67.817" r="15.408"/><path fill="#4863AB" d="M119.699 75.969a7.28 7.28 0 1 0 9.323-11.183A7.28 7.28 0 0 0 119.7 75.97"/><path fill="#31323C" d="M120.948 74.471a5.331 5.331 0 1 0 6.826-8.187 5.331 5.331 0 0 0-6.826 8.187"/><path fill="#FFF" d="M117.491 71.134a1.944 1.944 0 1 0 2.489-2.986 1.944 1.944 0 0 0-2.489 2.986m9.435.634a.951.951 0 1 0 1.216-1.464.951.951 0 0 0-1.216 1.464"/><path fill="none" d="M-63.25-21.17h326.5v326.5h-326.5z"/><path fill="none" d="M-63.25-21.17h326.5v326.5h-326.5z"/></svg>