<svg xmlns="http://www.w3.org/2000/svg" xmlns:xlink="http://www.w3.org/1999/xlink" width="200" height="252" viewBox="0 0 200 252"><path fill="#E5EEC4" d="M-21-17h242v286H-21z"/><ellipse opacity=".1" cx="100" cy="217" rx="54.5" ry="8"/><defs><path id="a" d="M-24.943 8.667H223V256.61H-24.943z"/></defs><clipPath id="b"><use xlink:href="#a" overflow="visible"/></clipPath><path clip-path="url(#b)" fill="#7BDF99" d="M173.092 122.675c-3.577 1.638-1.393 6.39-2.456 13.28-.4 2.587-1.257 5.475-3.05 8.614-6.648 11.64-17.85 14.56-17.85 14.56l7.507 7.756c2.67-.835 11.155-4.357 18.436-15.848 2.43-3.837 3.873-8.075 4.521-12.093a.184.184 0 0 0-.012-.009c1.711-9.934-2.032-18.579-7.096-16.26"/><path clip-path="url(#b)" fill="#7BDF99" d="M173.092 122.675c-3.577 1.638-1.393 6.39-2.456 13.28-.4 2.587-1.257 5.475-3.05 8.614-6.648 11.64-17.85 14.56-17.85 14.56l7.507 7.756c2.67-.835 11.155-4.357 18.436-15.848 2.43-3.837 3.873-8.075 4.521-12.093a.184.184 0 0 0-.012-.009c1.711-9.934-2.032-18.579-7.096-16.26m-41.969-50.183c1.991-.406 18.712-53.854-15.633-20.874-1.341 1.555-2.149 3.042-2.546 4.459a43.34 43.34 0 0 0-2.379-1.003c.549-1.15 1.306-2.332 2.357-3.551 38.978-37.427 23.068 18.034 19.25 24.414a32.035 32.035 0 0 0-1.539-3.456c.213.022.388.033.49.011"/><path clip-path="url(#b)" fill="#7BDF99" d="M131.123 72.492c-.103.021-.277.011-.491-.011a33.861 33.861 0 0 0-3.981-6.016c4.831-9.485 9.083-28.272-9.721-8.303a41.017 41.017 0 0 0-3.987-2.086c.397-1.417 1.205-2.904 2.546-4.459 34.346-32.978 17.625 20.469 15.634 20.875"/><g opacity=".3" clip-path="url(#b)"><defs><path id="c" d="M116.931 49.324h13.847v17.142h-13.847z"/></defs><clipPath id="d"><use xlink:href="#c" overflow="visible"/></clipPath><path clip-path="url(#d)" fill="#7BDF99" d="M126.651 66.466c-2.673-3.236-5.961-6.05-9.721-8.303 18.804-19.97 14.552-1.183 9.721 8.303"/></g><path clip-path="url(#b)" fill="#7BDF99" d="M69.285 72.492c-1.991-.406-18.712-53.854 15.633-20.874 1.342 1.555 2.15 3.042 2.545 4.459a43.67 43.67 0 0 1 2.379-1.003c-.548-1.15-1.304-2.332-2.356-3.551C48.51 14.097 64.418 69.558 68.237 75.938a32.035 32.035 0 0 1 1.539-3.456c-.213.021-.388.032-.491.01"/><path clip-path="url(#b)" fill="#7BDF99" d="M69.285 72.492c.103.021.277.011.491-.011a33.752 33.752 0 0 1 3.981-6.016c-4.831-9.485-9.083-28.272 9.721-8.303a40.885 40.885 0 0 1 3.986-2.086c-.396-1.417-1.203-2.904-2.545-4.459-34.346-32.978-17.625 20.469-15.634 20.875"/><g opacity=".3" clip-path="url(#b)"><defs><path id="e" d="M69.63 49.324h13.848v17.142H69.63z"/></defs><clipPath id="f"><use xlink:href="#e" overflow="visible"/></clipPath><path clip-path="url(#f)" fill="#7BDF99" d="M73.757 66.466c2.672-3.236 5.961-6.05 9.72-8.303-18.803-19.97-14.551-1.183-9.72 8.303"/></g><g opacity=".1" clip-path="url(#b)"><defs><path id="g" d="M60.296 51.346h80.663v171.923H60.296z"/></defs><clipPath id="h"><use xlink:href="#g" overflow="visible"/></clipPath><path clip-path="url(#h)" fill="#7BDF99" d="M140.409 75.307c.013.184.042.371.083.561.169-.026.33-.061.466-.109 0-.001-.212-.163-.549-.452m-74.482 0c.971-.831 2.98-2.714 3.957-4.805 1.274-2.733 6.483-18.189 33.285-19.111a75 75 0 0 0-2.541-.045c-29.017 0-34.51 16.34-35.824 19.156-1.315 2.816-4.507 5.256-4.507 5.256 1.596.565 5.633-.468 5.633-.468l-.003.017m14.567 102.232c-2.863-15.604-9.155-31.687-9.935-45.337 0 0-.863.645-2.459 1.864 0 0 1.502-5.258 1.597-8.262 0 0-.658 1.407-3.099 2.723 0 0 1.502-7.136 1.314-11.925-.189-4.788-.979-18.636 1.597-29.107.777-3.158-2.442-5.539-2.442-5.539s3.756-3.85 3.944-6.666c0 0-3.367.857-5.166.577-.59 2.736-3.858 6.089-3.858 6.089s3.219 2.381 2.442 5.539c-2.576 10.472-1.784 24.319-1.596 29.107.188 4.789-1.315 11.925-1.315 11.925 2.442-1.315 3.099-2.723 3.099-2.723-.094 3.004-1.596 8.262-1.596 8.262 1.596-1.22 2.458-1.864 2.458-1.864.78 13.65 7.072 29.732 9.935 45.337 3.557 19.395 4.788 45.351 10.13 45.716 1.391.096 2.437-.309 3.258-1.273-3.864-5.479-5.195-27.474-8.308-44.443"/></g><g opacity=".07" clip-path="url(#b)"><defs><path id="i" d="M155.355 122.303h24.744v44.582h-24.744z"/></defs><clipPath id="j"><use xlink:href="#i" overflow="visible"/></clipPath><path clip-path="url(#j)" fill="#7BDF99" d="M174.161 122.303c2.71 2.393 4.171 8.69 2.977 15.617l.013.008c-.648 4.019-2.091 8.256-4.521 12.091-6.433 10.155-13.804 14.086-17.275 15.44l1.38 1.426c2.67-.835 11.155-4.357 18.436-15.848 2.43-3.837 3.873-8.075 4.521-12.093a.042.042 0 0 0-.014-.009c1.529-8.868-1.292-16.701-5.517-16.632"/></g><path clip-path="url(#b)" fill="#7BDF99" d="M156.441 156.011c-7.113 3.049-12.984 3.493-12.984 3.493l.802 8.557c.573-.326 7.102 1.16 13.707-1.381.489-3.919-.063-7.498-1.525-10.669"/><path clip-path="url(#b)" fill="#7BDF99" d="M135.697 206.57s8.769-8.926 14.576-20.493c9.487-18.892 13.691-43.172-21.689-34.788H72.521c-35.38-8.384-31.176 15.896-21.689 34.788 5.808 11.567 14.577 20.493 14.577 20.493-4.437-1.691-13.419-.546-14.736 4.549-1.221 4.714 7.422 4.454 7.422 4.454h84.916s8.644.26 7.424-4.454c-1.318-5.095-10.302-6.24-14.738-4.549"/><path clip-path="url(#b)" fill="#7BDF99" d="M92.715 162.087v-10.798H72.521a73.326 73.326 0 0 0-5.154-1.035c.721 2.887 1.511 5.828 2.317 8.824 1.669 6.208 3.396 12.626 4.545 18.893 1.057 5.76 1.906 12.087 2.725 18.204 1.091 8.127 2.012 14.653 3.104 19.398h12.079c.562-3.445.979-8.023 1.506-13.794l.28-3.063c1.384-15.003 1.638-31.311 1.684-36.629h-2.892zm35.869-10.798h-20.193v10.798h-2.894c.046 5.318.3 21.626 1.685 36.629l.28 3.056c.526 5.775.944 10.354 1.507 13.802h12.079c1.093-4.745 2.014-11.271 3.104-19.398.82-6.117 1.669-12.444 2.725-18.204 1.15-6.267 2.877-12.685 4.547-18.893.805-2.996 1.596-5.938 2.316-8.824a72.884 72.884 0 0 0-5.156 1.034"/><path clip-path="url(#b)" fill="#7BDF99" d="M94.492 160.304s0 19.999-1.69 38.308c-1.69 18.311-1.992 25.238-7.334 24.873-5.342-.367-6.572-26.323-10.13-45.716-2.862-15.604-9.153-31.689-9.935-45.338 0 0-.862.644-2.458 1.864 0 0 1.502-5.257 1.597-8.261 0 0-.658 1.407-3.1 2.723 0 0 1.503-7.137 1.316-11.925-.189-4.789-.98-18.637 1.595-29.107.777-3.16-2.44-5.539-2.44-5.539s3.755-3.85 3.943-6.668c0 0-4.039 1.035-5.634.472 0 0 3.192-2.442 4.506-5.26 1.315-2.816 6.808-19.154 35.825-19.154s34.511 16.338 35.825 19.154c1.314 2.817 4.508 5.26 4.508 5.26-1.597.563-5.634-.472-5.634-.472.188 2.818 3.942 6.668 3.942 6.668s-3.217 2.379-2.441 5.539c2.576 10.471 1.784 24.318 1.596 29.107-.188 4.788 1.314 11.925 1.314 11.925-2.44-1.315-3.098-2.723-3.098-2.723.094 3.004 1.596 8.261 1.596 8.261-1.596-1.221-2.459-1.864-2.459-1.864-.779 13.648-7.072 29.733-9.934 45.338-3.558 19.393-4.789 45.349-10.131 45.716-5.341.365-5.644-6.563-7.333-24.873-1.69-18.309-1.69-38.308-1.69-38.308"/><defs><path id="k" d="M64.728 70.73c-1.314 2.816-4.506 5.259-4.506 5.259 1.595.563 5.634-.472 5.634-.472-.188 2.818-3.944 6.666-3.944 6.666s3.218 2.381 2.441 5.541c-2.575 10.471-1.784 24.318-1.596 29.107.188 4.788-1.315 11.925-1.315 11.925 2.442-1.314 3.1-2.723 3.1-2.723-.094 3.004-1.597 8.261-1.597 8.261 1.597-1.22 2.458-1.864 2.458-1.864.782 13.648 7.073 29.733 9.935 45.338 3.559 19.393 4.789 45.349 10.13 45.716 5.342.365 5.644-6.563 7.334-24.873 1.69-18.309 1.69-38.308 1.69-38.308h12.121s0 19.999 1.69 38.308c1.69 18.311 1.992 25.238 7.334 24.873 5.342-.367 6.572-26.323 10.129-45.716 2.862-15.604 9.155-31.689 9.935-45.338 0 0 .863.645 2.46 1.864 0 0-1.502-5.257-1.597-8.261 0 0 .657 1.408 3.099 2.723 0 0-1.502-7.137-1.314-11.925.188-4.789.979-18.637-1.596-29.107-.776-3.16 2.441-5.541 2.441-5.541s-3.755-3.848-3.943-6.666c0 0 4.038 1.035 5.634.472 0 0-3.192-2.442-4.507-5.259-1.314-2.817-6.807-19.154-35.825-19.154-29.017 0-34.51 16.337-35.825 19.154"/></defs><clipPath id="l"><use xlink:href="#k" overflow="visible"/></clipPath><path clip-path="url(#l)" fill="#7BDF99" d="M91.407 44.233c-1.016 1.016-5.081 11.178 1.524 13.209 6.605 2.032 7.114-2.031 10.669-.508 3.557 1.524 5.082 1.524 7.114-2.032 2.032-3.557 2.032-12.701-1.016-14.226-3.048-1.525-18.291 3.557-18.291 3.557"/><g opacity=".07" clip-path="url(#l)"><defs><path id="m" d="M97.325 51.575h43.126v171.923H97.325z"/></defs><clipPath id="n"><use xlink:href="#m" overflow="visible"/></clipPath><path clip-path="url(#n)" fill="#7BDF99" d="M140.451 75.989s-3.192-2.442-4.507-5.26c-1.314-2.816-6.806-19.154-35.825-19.154-.958 0-1.888.019-2.794.055 26.579 1.009 31.759 16.377 33.03 19.1 1.314 2.817 4.507 5.26 4.507 5.26-1.597.562-5.634-.472-5.634-.472.188 2.818 3.943 6.666 3.943 6.666s-3.218 2.381-2.441 5.541c2.575 10.471 1.783 24.318 1.597 29.107-.188 4.788 1.315 11.925 1.315 11.925-2.442-1.315-3.098-2.723-3.098-2.723.093 3.004 1.595 8.261 1.595 8.261-1.595-1.221-2.459-1.864-2.459-1.864-.779 13.648-7.072 29.733-9.935 45.337-3.05 16.625-4.39 38.068-8.075 44.086.859 1.223 1.984 1.736 3.533 1.631 5.344-.367 6.573-26.323 10.131-45.717 2.862-15.604 9.155-31.688 9.934-45.337 0 0 .864.644 2.459 1.864 0 0-1.501-5.257-1.595-8.261 0 0 .657 1.407 3.098 2.723 0 0-1.502-7.137-1.313-11.925.187-4.789.978-18.637-1.596-29.107-.778-3.16 2.441-5.541 2.441-5.541s-3.756-3.848-3.944-6.666c-.001 0 4.036 1.033 5.633.471"/></g><defs><path id="o" d="M-24.943 8.667H223V256.61H-24.943z"/></defs><clipPath id="p"><use xlink:href="#o" overflow="visible"/></clipPath><g opacity=".05" clip-path="url(#p)"><defs><path id="q" d="M60.804 51.346h80.664v171.923H60.804z"/></defs><clipPath id="r"><use xlink:href="#q" overflow="visible"/></clipPath><path clip-path="url(#r)" fill="#7BDF99" d="M140.917 75.307c.013.184.042.371.083.561.168-.026.33-.061.467-.109.001-.001-.213-.163-.55-.452m-74.481 0c.97-.831 2.98-2.714 3.956-4.805 1.275-2.733 6.483-18.189 33.285-19.111a74.906 74.906 0 0 0-2.541-.045c-29.018 0-34.511 16.34-35.825 19.156s-4.507 5.256-4.507 5.256c1.596.565 5.633-.468 5.633-.468.001.005-.001.012-.001.017m14.565 102.232c-2.862-15.604-9.154-31.687-9.934-45.337 0 0-.863.645-2.459 1.864 0 0 1.501-5.258 1.596-8.262 0 0-.658 1.407-3.099 2.723 0 0 1.503-7.136 1.315-11.925-.188-4.788-.979-18.636 1.596-29.107.778-3.158-2.441-5.539-2.441-5.539s3.756-3.85 3.943-6.666c0 0-3.366.857-5.167.577-.589 2.736-3.857 6.089-3.857 6.089s3.218 2.381 2.441 5.539c-2.575 10.472-1.784 24.319-1.596 29.107.188 4.789-1.315 11.925-1.315 11.925 2.442-1.315 3.099-2.723 3.099-2.723-.094 3.004-1.596 8.262-1.596 8.262 1.596-1.22 2.46-1.864 2.46-1.864.78 13.65 7.071 29.732 9.934 45.337 3.558 19.395 4.788 45.351 10.13 45.716 1.39.096 2.437-.309 3.258-1.273-3.863-5.479-5.194-27.474-8.308-44.443"/></g><path clip-path="url(#p)" fill="#7BDF99" d="M78.313 153.88c-.319-2.62 8.836-3.315 8.501-7.193-.313-3.642-1.89-8.481-20.125-4.082 1.865 9.641 5.241 20.05 7.564 30.396.121-1.163.401-2.054.905-2.504 2.903-2.591 13.716-5.729 13.2-11.122-.517-5.396-9.726-2.876-10.045-5.495m44.675 0c.319-2.62-8.836-3.315-8.501-7.193.313-3.642 1.889-8.481 20.125-4.082-1.865 9.641-5.241 20.051-7.564 30.396-.122-1.163-.402-2.054-.906-2.504-2.902-2.591-13.715-5.729-13.2-11.122.517-5.396 9.726-2.876 10.046-5.495m-46.641-35.638s.101.119.265.333c.079.107.183.235.287.385.108.148.236.313.362.5.262.365.551.797.858 1.254l.953 1.432c.153.248.331.477.483.72.161.234.326.461.477.688.16.218.314.429.457.635.154.195.297.382.428.562l.38.465c.111.146.222.257.311.355.178.197.277.322.277.322s-.148-.041-.404-.137c-.126-.051-.292-.103-.452-.202-.165-.092-.357-.195-.554-.325-.189-.137-.393-.29-.604-.457-.196-.183-.404-.373-.609-.582-.193-.215-.4-.436-.585-.678-.183-.24-.375-.485-.541-.741-.165-.261-.334-.518-.477-.781a10.71 10.71 0 0 1-.405-.787 11.516 11.516 0 0 1-.574-1.456 9.405 9.405 0 0 1-.272-1.081 4.09 4.09 0 0 1-.061-.424m6.776 3.497s.066.121.17.329c.049.104.118.229.183.373.067.143.152.304.228.479.16.345.344.747.543 1.18l.146.324c.053.107.105.216.155.328.099.224.213.44.318.661.105.223.228.433.33.652.125.2.228.416.344.61.124.188.226.39.345.56.122.169.225.343.335.495.115.141.217.282.31.408.093.127.191.218.264.309.151.173.236.287.236.287s-.13-.027-.359-.101c-.11-.043-.262-.071-.405-.154-.147-.078-.315-.167-.494-.275-.171-.116-.341-.262-.526-.413-.181-.156-.341-.345-.518-.536-.167-.196-.317-.414-.471-.636a11.39 11.39 0 0 1-.398-.706c-.109-.249-.234-.491-.315-.743a6.43 6.43 0 0 1-.233-.74 7.673 7.673 0 0 1-.233-1.347 6.515 6.515 0 0 1-.001-.974c.015-.234.046-.37.046-.37m5.537 1.458s.068.1.171.272c.105.173.243.422.397.717.15.298.317.643.48 1.014.087.184.164.377.249.568.086.191.161.391.249.583.079.197.163.389.244.578.078.192.162.376.239.555.074.185.161.347.233.514.067.17.158.306.224.454.064.149.147.26.209.381l.093.164c.034.045.064.088.092.127.113.158.18.267.18.267s-.113-.02-.314-.086c-.051-.02-.107-.038-.168-.06-.058-.025-.113-.062-.177-.099-.123-.075-.284-.151-.412-.272-.133-.116-.296-.239-.424-.396-.133-.152-.283-.314-.401-.497a4.721 4.721 0 0 1-.354-.572 5.836 5.836 0 0 1-.299-.623 6.958 6.958 0 0 1-.235-.64c-.073-.214-.123-.429-.172-.636a7.005 7.005 0 0 1-.162-1.157 5.707 5.707 0 0 1 .013-.835c.018-.205.045-.321.045-.321m20.548 2.039s.019.082.026.222c.01.137.011.329-.018.549a3.538 3.538 0 0 1-.173.729c-.09.258-.215.52-.367.769-.084.122-.161.244-.256.357a2.648 2.648 0 0 1-.294.321 2.528 2.528 0 0 1-.325.265 1.923 1.923 0 0 1-.657.297c-.102.019-.183.035-.263.026-.151-.012-.224-.037-.224-.037l.134-.168c.04-.04.075-.121.118-.188.043-.063.084-.147.129-.235.047-.08.092-.177.143-.276l.161-.304c.061-.1.113-.219.181-.323.063-.108.131-.223.199-.33.277-.444.604-.876.909-1.183.151-.152.292-.276.4-.36.104-.084.177-.131.177-.131m4.808-2.622s.013.114.006.308a4.99 4.99 0 0 1-.089.789 6.488 6.488 0 0 1-.307 1.063c-.07.188-.153.38-.248.57-.087.193-.201.379-.309.566a8.035 8.035 0 0 1-.365.537 7.02 7.02 0 0 1-.409.483 7.36 7.36 0 0 1-.436.409 9.055 9.055 0 0 1-.435.319 7.13 7.13 0 0 1-.406.216c-.116.064-.242.095-.333.127-.188.058-.297.076-.297.076s.058-.103.165-.257c.052-.081.121-.166.185-.277.067-.11.144-.229.229-.35.078-.135.163-.274.258-.415.089-.147.178-.305.281-.458.093-.162.191-.326.296-.489.095-.173.208-.335.307-.51.105-.169.211-.338.314-.506.104-.168.211-.332.314-.492.209-.318.41-.618.599-.87a9.69 9.69 0 0 1 .68-.839m2.696 0s.035.092.068.251c.037.16.073.388.085.655a5.203 5.203 0 0 1-.293 1.92c-.12.337-.272.666-.459.955-.085.147-.194.281-.293.403-.096.126-.217.231-.32.328-.1.095-.219.169-.315.232-.05.029-.095.058-.141.082a4.009 4.009 0 0 0-.132.053c-.16.06-.251.075-.251.075s.035-.098.098-.239c.035-.065.063-.154.096-.255.033-.099.078-.197.11-.32.034-.119.082-.235.118-.374l.13-.415.143-.441.155-.456c.06-.15.108-.308.169-.456.058-.151.115-.302.18-.444.119-.29.249-.557.371-.788.123-.23.241-.42.332-.556.088-.133.149-.21.149-.21m8.306-7.505s.015.153.009.414a8.65 8.65 0 0 1-.094 1.076c-.034.219-.076.458-.131.705-.059.248-.116.51-.201.775a11.234 11.234 0 0 1-.619 1.63c-.122.271-.27.531-.412.789-.145.257-.314.497-.47.731-.167.229-.344.44-.508.64-.18.19-.358.364-.521.519-.172.152-.347.272-.494.383-.142.114-.297.184-.413.246-.235.124-.374.18-.374.18s.081-.135.225-.345c.073-.107.164-.227.251-.382l.301-.497c.1-.189.212-.386.331-.593.108-.219.228-.439.349-.67.111-.239.237-.478.357-.725.112-.254.248-.495.359-.757l.706-1.503c.229-.482.445-.935.643-1.321.094-.195.194-.372.274-.531.08-.159.161-.293.222-.407.13-.227.21-.357.21-.357m9.98-3.642a18.902 18.902 0 0 1-.472 1.68 22.648 22.648 0 0 1-.605 1.639 24.64 24.64 0 0 1-.721 1.601 24.918 24.918 0 0 1-.845 1.545c-.155.251-.305.504-.472.747-.16.249-.336.486-.509.727-.178.237-.355.475-.546.703-.184.232-.386.451-.583.675-.206.217-.407.438-.629.64-.213.212-.446.402-.672.601-.238.186-.471.377-.722.548-.243.18-.505.334-.762.497l-.427-.945c.232-.082.445-.148.67-.211.223-.064.45-.12.679-.168.463-.091.931-.169 1.466-.14.267.024.566.056.903.266a1.124 1.124 0 0 1 .468.643l.01.039.01.054.007.041c.005.033.012.112.015.166-.001.044-.002.093-.006.138-.034.351-.149.6-.262.833a5.79 5.79 0 0 1-.375.636c-.268.392-.558.747-.851 1.095-.294.348-.596.684-.901 1.014-.612.658-1.233 1.3-1.875 1.922l-.628-.829c.275-.146.542-.28.816-.412.272-.133.548-.261.828-.384.561-.241 1.124-.478 1.752-.633a4.03 4.03 0 0 1 .497-.091c.178-.018.363-.034.611.025a.836.836 0 0 1 .404.238c.13.142.182.327.188.465.008.279-.069.453-.135.618-.152.334-.309.562-.461.825-.158.264-.324.514-.487.765-.163.248-.326.495-.479.743-.15.249-.291.483-.382.731a1 1 0 0 0-.068.329c.003.089.018.129.078.178.065.053.181.09.309.109a3.53 3.53 0 0 0 2.081-.262 4.17 4.17 0 0 0 1.407-1.038 3.637 3.637 0 0 1-.572.693 3.875 3.875 0 0 1-.725.556 3.701 3.701 0 0 1-1.773.53 4.532 4.532 0 0 1-.47-.008 1.206 1.206 0 0 1-.539-.148.77.77 0 0 1-.246-.243.802.802 0 0 1-.104-.32c-.025-.21.016-.386.058-.551.091-.32.237-.61.375-.881.142-.27.289-.532.432-.792l.423-.774c.134-.257.294-.537.374-.752.042-.107.063-.228.053-.246-.004-.01-.001.027.026.058.026.032.041.031.019.027a1.011 1.011 0 0 0-.277.017c-.117.02-.247.054-.376.092-.519.164-1.057.393-1.58.644a23.63 23.63 0 0 0-1.545.812l-3.076 1.751 2.447-2.582c.608-.642 1.224-1.272 1.812-1.924.584-.648 1.163-1.315 1.632-1.998.117-.17.224-.341.309-.506.085-.164.146-.331.153-.425l.002-.029c-.002-.001.003.021.001 0l-.007-.041-.001-.01-.001-.005.006.028v-.002c0-.004-.002-.004 0-.004-.002.003.01.008-.011-.009-.039-.031-.194-.079-.367-.09-.353-.025-.771.03-1.179.107-.205.043-.411.086-.617.137-.205.052-.417.11-.607.168l-4.212 1.315 3.786-2.262c.235-.142.479-.271.706-.431.233-.146.453-.315.677-.479.216-.176.436-.344.642-.535.21-.183.414-.375.617-.569.196-.201.397-.396.584-.608.192-.207.374-.423.557-.641.177-.22.357-.438.525-.668.173-.224.34-.455.506-.686.327-.469.638-.947.934-1.438.145-.247.292-.492.435-.743a30.366 30.366 0 0 0 1.184-2.302c.237-.527.48-1.054.686-1.596m-70.059 0c.133.563.289 1.127.472 1.68s.382 1.102.605 1.639c.224.54.457 1.076.721 1.601.263.524.545 1.038.845 1.545.154.251.305.504.471.747.161.249.337.486.51.727.178.237.356.475.547.703.185.232.386.451.583.675.206.217.407.438.629.64.213.212.446.402.672.601.238.186.471.377.723.548.242.18.505.334.761.497l.426-.945a10.08 10.08 0 0 0-.67-.211 9.451 9.451 0 0 0-.678-.168c-.463-.091-.931-.169-1.467-.14-.267.024-.565.056-.901.266-.166.104-.33.284-.416.488-.021.053-.042.105-.053.155l-.01.039-.012.054-.006.041a2.366 2.366 0 0 0-.015.166c.001.044.001.093.005.138.035.351.15.6.261.833.115.231.244.438.376.636.268.392.558.747.851 1.095.294.348.596.684.902 1.014.611.658 1.232 1.3 1.873 1.922l.63-.829c-.275-.146-.542-.28-.817-.412a23.9 23.9 0 0 0-.827-.384c-.562-.241-1.124-.478-1.752-.633a4.012 4.012 0 0 0-.498-.091 1.68 1.68 0 0 0-.61.025.836.836 0 0 0-.404.238.762.762 0 0 0-.188.465c-.009.279.07.453.136.618.152.334.308.562.461.825.158.264.324.514.486.765.162.248.326.495.479.743.15.249.291.483.382.731a.97.97 0 0 1 .067.329c-.003.089-.018.129-.078.178a.668.668 0 0 1-.308.109 3.527 3.527 0 0 1-2.081-.262 4.193 4.193 0 0 1-1.408-1.038c.157.254.356.483.573.693.217.211.459.399.724.556a3.701 3.701 0 0 0 1.773.53c.156.006.328.002.469-.008.166-.014.352-.037.54-.148a.748.748 0 0 0 .245-.243.823.823 0 0 0 .106-.32 1.463 1.463 0 0 0-.059-.551c-.09-.32-.238-.61-.375-.881-.142-.27-.289-.532-.433-.792l-.423-.774c-.134-.257-.294-.537-.375-.752-.042-.107-.063-.228-.052-.246.003-.01 0 .027-.027.058-.026.032-.041.031-.018.027.043-.007.16-.005.276.017.119.02.248.054.377.092.52.164 1.056.393 1.579.644.523.249 1.047.526 1.545.812l3.076 1.751-2.447-2.582c-.607-.642-1.225-1.272-1.811-1.924-.585-.648-1.162-1.315-1.633-1.998a4.744 4.744 0 0 1-.309-.506c-.085-.164-.145-.331-.152-.425l-.001-.029c.002-.001-.004.021-.003 0l.008-.041.001-.01.001-.005c.002-.006-.011.053-.004.028v-.006c.001.003-.011.008.011-.009.039-.031.194-.079.367-.09.353-.025.771.03 1.179.107.204.043.412.086.617.137.204.052.417.11.606.168l4.212 1.315-3.785-2.262c-.236-.142-.479-.271-.707-.431-.234-.146-.453-.315-.676-.479-.216-.176-.438-.344-.642-.535-.21-.183-.414-.375-.617-.569-.197-.201-.398-.396-.585-.608a17.162 17.162 0 0 1-.557-.641c-.176-.22-.357-.438-.524-.668-.175-.224-.34-.455-.507-.686a25.238 25.238 0 0 1-.933-1.438c-.146-.247-.294-.492-.436-.743-.141-.248-.28-.501-.414-.755a37.123 37.123 0 0 1-.771-1.547c-.235-.527-.478-1.054-.684-1.596"/><g clip-path="url(#p)"><defs><path id="s" d="M92.423 146.356h17.667v73.672H92.423z"/></defs><clipPath id="t"><use xlink:href="#s" overflow="visible"/></clipPath><path clip-path="url(#t)" fill="#7BDF99" d="M95.472 159.764c-1.524-2.146-5.589-13.407 5.081-13.407 8.638 0 7.622 9.118 5.082 13.407-6.217 10.498 0 0 0 0s.507 42.898 3.556 56.306c2.026 8.909 0 0 0 0H92.423c0-.001 4.065-39.147 3.049-56.306"/></g><g opacity=".07" clip-path="url(#p)"><defs><path id="u" d="M124.52 149.986h32.409v65.83H124.52z"/></defs><clipPath id="v"><use xlink:href="#u" overflow="visible"/></clipPath><path clip-path="url(#v)" fill="#7BDF99" d="M124.521 153.215c35.378-8.385 31.175 15.896 21.688 34.788-5.807 11.568-14.578 20.493-14.578 20.493 4.437-1.69 13.419-.544 14.739 4.551.319 1.231-.041 2.123-.741 2.77 2.433-.332 5.572-1.327 4.805-4.296-1.318-5.092-10.301-6.239-14.737-4.55 0 0 8.77-8.925 14.577-20.491 9.486-18.893 13.69-43.174-21.689-34.788"/></g><g opacity=".05" clip-path="url(#p)"><defs><path id="w" d="M44.178 149.584h32.917v65.839H44.178z"/></defs><clipPath id="x"><use xlink:href="#w" overflow="visible"/></clipPath><path clip-path="url(#x)" fill="#7BDF99" d="M72.521 151.289c-35.379-8.384-31.176 15.896-21.689 34.788 5.808 11.567 14.577 20.493 14.577 20.493-4.436-1.691-13.419-.546-14.736 4.549-.777 3 2.438 3.983 4.88 4.304-.397-.587-.552-1.328-.308-2.271 1.318-5.094 10.301-6.239 14.737-4.551 0 0-8.769-8.924-14.577-20.492-9.486-18.893-13.689-43.174 21.689-34.788"/></g><path clip-path="url(#p)" fill="#7BDF99" d="M100.561 116.528c-6.517 0-7.556-9.361-7.486-15.908 3.04-.168 5.399-2.723 7.486-6.228 1.855 3.036 3.912 5.779 7.488 6.319.06 6.544-1 15.817-7.488 15.817"/><path clip-path="url(#p)" fill="#7BDF99" d="M109.203 101.076c-.567 0-1.152-.032-1.754-.098-6.595-.727-7.577-8.579-7.586-8.658a.702.702 0 1 1 1.397-.161c.035.292.874 6.818 6.343 7.42 5.731.634 9.526-2.026 10.692-7.486a.703.703 0 0 1 1.375.294c-1.195 5.594-4.968 8.689-10.467 8.689"/><path clip-path="url(#p)" fill="#7BDF99" d="M91.92 101.076c-5.5 0-9.271-3.095-10.467-8.689a.702.702 0 1 1 1.374-.294c1.167 5.46 4.961 8.117 10.692 7.486 5.475-.602 6.311-7.144 6.343-7.421a.704.704 0 0 1 1.397.162c-.008.079-.992 7.932-7.586 8.658-.601.066-1.186.098-1.753.098"/><path clip-path="url(#p)" fill="#7BDF99" d="M108.783 85.654c0 2.766-3.522 8.329-8.222 8.329-4.698 0-8.221-5.563-8.221-8.329 0-2.763 3.523-4.146 8.221-4.146 4.699.001 8.222 1.384 8.222 4.146M83.09 61.508c-6.461 0-11.7 5.239-11.7 11.7 0 6.464 5.239 11.702 11.7 11.702 6.463 0 11.702-5.238 11.702-11.702 0-6.461-5.239-11.7-11.702-11.7"/><path clip-path="url(#p)" fill="#7BDF99" d="M89.275 73.407a5.99 5.99 0 1 1-11.982.002 5.99 5.99 0 0 1 11.982-.002"/><path clip-path="url(#p)" fill="#7BDF99" d="M87.67 73.407a4.386 4.386 0 1 1-8.773 0 4.386 4.386 0 1 1 8.773 0"/><path clip-path="url(#p)" fill="#7BDF99" d="M87.383 69.463a1.6 1.6 0 1 1-3.2.002 1.6 1.6 0 0 1 3.2-.002m32.869-7.878c-6.42-.743-12.226 3.858-12.968 10.278s3.859 12.226 10.278 12.969c6.42.742 12.226-3.858 12.968-10.279.743-6.419-3.859-12.226-10.278-12.968"/><path clip-path="url(#p)" fill="#7BDF99" d="M125.028 74.117a5.99 5.99 0 0 1-6.639 5.262 5.99 5.99 0 1 1 1.377-11.9 5.987 5.987 0 0 1 5.262 6.638"/><path clip-path="url(#p)" fill="#7BDF99" d="M123.435 73.933a4.387 4.387 0 1 1-8.716-1.01 4.387 4.387 0 0 1 8.716 1.01"/><path clip-path="url(#p)" fill="#7BDF99" d="M123.603 69.982a1.599 1.599 0 1 1-3.176-.368 1.599 1.599 0 0 1 3.176.368"/><defs><path id="y" d="M-24.943 8.667H223V256.61H-24.943z"/></defs><clipPath id="z"><use xlink:href="#y" overflow="visible"/></clipPath><path clip-path="url(#z)" fill="#AA7E52" d="M173.092 122.675c-3.577 1.638-1.393 6.39-2.456 13.28-.4 2.587-1.257 5.475-3.05 8.614-6.648 11.64-17.85 14.56-17.85 14.56l7.507 7.756c2.67-.835 11.155-4.357 18.436-15.848 2.43-3.837 3.873-8.075 4.521-12.093a.184.184 0 0 0-.012-.009c1.711-9.934-2.032-18.579-7.096-16.26"/><path clip-path="url(#z)" fill="none" stroke="#000" stroke-width=".508" stroke-miterlimit="10" d="M173.092 122.675c-3.577 1.638-1.393 6.39-2.456 13.28-.4 2.587-1.257 5.475-3.05 8.614-6.648 11.64-17.85 14.56-17.85 14.56l7.507 7.756c2.67-.835 11.155-4.357 18.436-15.848 2.43-3.837 3.873-8.075 4.521-12.093a.184.184 0 0 0-.012-.009c1.711-9.934-2.032-18.579-7.096-16.26z"/><path clip-path="url(#z)" fill="#AA7E52" d="M131.123 72.492c1.991-.406 18.712-53.854-15.633-20.874-1.341 1.555-2.149 3.042-2.546 4.459a43.34 43.34 0 0 0-2.379-1.003c.549-1.15 1.306-2.332 2.357-3.551 38.978-37.427 23.068 18.034 19.25 24.414a32.035 32.035 0 0 0-1.539-3.456c.213.022.388.033.49.011"/><path clip-path="url(#z)" fill="#F9F5ED" d="M131.123 72.492c-.103.021-.277.011-.491-.011a33.861 33.861 0 0 0-3.981-6.016c4.831-9.485 9.083-28.272-9.721-8.303a41.017 41.017 0 0 0-3.987-2.086c.397-1.417 1.205-2.904 2.546-4.459 34.346-32.978 17.625 20.469 15.634 20.875"/><g opacity=".3" clip-path="url(#z)"><defs><path id="A" d="M116.931 49.324h13.847v17.142h-13.847z"/></defs><clipPath id="B"><use xlink:href="#A" overflow="visible"/></clipPath><path clip-path="url(#B)" d="M126.651 66.466c-2.673-3.236-5.961-6.05-9.721-8.303 18.804-19.97 14.552-1.183 9.721 8.303"/></g><path clip-path="url(#z)" fill="#AA7E52" d="M69.285 72.492c-1.991-.406-18.712-53.854 15.633-20.874 1.342 1.555 2.15 3.042 2.545 4.459a43.67 43.67 0 0 1 2.379-1.003c-.548-1.15-1.304-2.332-2.356-3.551C48.51 14.097 64.418 69.558 68.237 75.938a32.035 32.035 0 0 1 1.539-3.456c-.213.021-.388.032-.491.01"/><path clip-path="url(#z)" fill="#F9F5ED" d="M69.285 72.492c.103.021.277.011.491-.011a33.752 33.752 0 0 1 3.981-6.016c-4.831-9.485-9.083-28.272 9.721-8.303a40.885 40.885 0 0 1 3.986-2.086c-.396-1.417-1.203-2.904-2.545-4.459-34.346-32.978-17.625 20.469-15.634 20.875"/><g opacity=".3" clip-path="url(#z)"><defs><path id="C" d="M69.63 49.324h13.848v17.142H69.63z"/></defs><clipPath id="D"><use xlink:href="#C" overflow="visible"/></clipPath><path clip-path="url(#D)" d="M73.757 66.466c2.672-3.236 5.961-6.05 9.72-8.303-18.803-19.97-14.551-1.183-9.72 8.303"/></g><g opacity=".1" clip-path="url(#z)"><defs><path id="E" d="M60.296 51.346h80.663v171.923H60.296z"/></defs><clipPath id="F"><use xlink:href="#E" overflow="visible"/></clipPath><path clip-path="url(#F)" fill="#A5A5A5" d="M140.409 75.307c.013.184.042.371.083.561.169-.026.33-.061.466-.109 0-.001-.212-.163-.549-.452m-74.482 0c.971-.831 2.98-2.714 3.957-4.805 1.274-2.733 6.483-18.189 33.285-19.111a75 75 0 0 0-2.541-.045c-29.017 0-34.51 16.34-35.824 19.156-1.315 2.816-4.507 5.256-4.507 5.256 1.596.565 5.633-.468 5.633-.468l-.003.017"/><path clip-path="url(#F)" fill="#F9F5ED" d="M80.494 177.539c-2.863-15.604-9.155-31.687-9.935-45.337 0 0-.863.645-2.459 1.864 0 0 1.502-5.258 1.597-8.262 0 0-.658 1.407-3.099 2.723 0 0 1.502-7.136 1.314-11.925-.189-4.788-.979-18.636 1.597-29.107.777-3.158-2.442-5.539-2.442-5.539s3.756-3.85 3.944-6.666c0 0-3.367.857-5.166.577-.59 2.736-3.858 6.089-3.858 6.089s3.219 2.381 2.442 5.539c-2.576 10.472-1.784 24.319-1.596 29.107.188 4.789-1.315 11.925-1.315 11.925 2.442-1.315 3.099-2.723 3.099-2.723-.094 3.004-1.596 8.262-1.596 8.262 1.596-1.22 2.458-1.864 2.458-1.864.78 13.65 7.072 29.732 9.935 45.337 3.557 19.395 4.788 45.351 10.13 45.716 1.391.096 2.437-.309 3.258-1.273-3.864-5.479-5.195-27.474-8.308-44.443"/></g><g opacity=".07" clip-path="url(#z)"><defs><path id="G" d="M155.355 122.303h24.744v44.582h-24.744z"/></defs><clipPath id="H"><use xlink:href="#G" overflow="visible"/></clipPath><path clip-path="url(#H)" d="M174.161 122.303c2.71 2.393 4.171 8.69 2.977 15.617l.013.008c-.648 4.019-2.091 8.256-4.521 12.091-6.433 10.155-13.804 14.086-17.275 15.44l1.38 1.426c2.67-.835 11.155-4.357 18.436-15.848 2.43-3.837 3.873-8.075 4.521-12.093a.042.042 0 0 0-.014-.009c1.529-8.868-1.292-16.701-5.517-16.632"/></g><path clip-path="url(#z)" fill="#BC926F" d="M156.441 156.011c-7.113 3.049-12.984 3.493-12.984 3.493l.802 8.557c.573-.326 7.102 1.16 13.707-1.381.489-3.919-.063-7.498-1.525-10.669"/><path clip-path="url(#z)" fill="#F9F5ED" d="M135.697 206.57s8.769-8.926 14.576-20.493c9.487-18.892 13.691-43.172-21.689-34.788H72.521c-35.38-8.384-31.176 15.896-21.689 34.788 5.808 11.567 14.577 20.493 14.577 20.493-4.437-1.691-13.419-.546-14.736 4.549-1.221 4.714 7.422 4.454 7.422 4.454h84.916s8.644.26 7.424-4.454c-1.318-5.095-10.302-6.24-14.738-4.549"/><path clip-path="url(#z)" fill="none" stroke="#000" stroke-width=".508" stroke-miterlimit="10" d="M135.697 206.57s8.769-8.926 14.576-20.493c9.487-18.892 13.691-43.172-21.689-34.788H72.521c-35.38-8.384-31.176 15.896-21.689 34.788 5.808 11.567 14.577 20.493 14.577 20.493-4.437-1.691-13.419-.546-14.736 4.549-1.221 4.714 7.422 4.454 7.422 4.454h84.916s8.644.26 7.424-4.454c-1.318-5.095-10.302-6.24-14.738-4.549z"/><path clip-path="url(#z)" fill="#C6C1BA" d="M92.715 162.087v-10.798H72.521a73.326 73.326 0 0 0-5.154-1.035c.721 2.887 1.511 5.828 2.317 8.824 1.669 6.208 3.396 12.626 4.545 18.893 1.057 5.76 1.906 12.087 2.725 18.204 1.091 8.127 2.012 14.653 3.104 19.398h12.079c.562-3.445.979-8.023 1.506-13.794l.28-3.063c1.384-15.003 1.638-31.311 1.684-36.629h-2.892zm35.869-10.798h-20.193v10.798h-2.894c.046 5.318.3 21.626 1.685 36.629l.28 3.056c.526 5.775.944 10.354 1.507 13.802h12.079c1.093-4.745 2.014-11.271 3.104-19.398.82-6.117 1.669-12.444 2.725-18.204 1.15-6.267 2.877-12.685 4.547-18.893.805-2.996 1.596-5.938 2.316-8.824a72.884 72.884 0 0 0-5.156 1.034"/><path clip-path="url(#z)" fill="#F9F5ED" d="M94.492 160.304s0 19.999-1.69 38.308c-1.69 18.311-1.992 25.238-7.334 24.873-5.342-.367-6.572-26.323-10.13-45.716-2.862-15.604-9.153-31.689-9.935-45.338 0 0-.862.644-2.458 1.864 0 0 1.502-5.257 1.597-8.261 0 0-.658 1.407-3.1 2.723 0 0 1.503-7.137 1.316-11.925-.189-4.789-.98-18.637 1.595-29.107.777-3.16-2.44-5.539-2.44-5.539s3.755-3.85 3.943-6.668c0 0-4.039 1.035-5.634.472 0 0 3.192-2.442 4.506-5.26 1.315-2.816 6.808-19.154 35.825-19.154s34.511 16.338 35.825 19.154c1.314 2.817 4.508 5.26 4.508 5.26-1.597.563-5.634-.472-5.634-.472.188 2.818 3.942 6.668 3.942 6.668s-3.217 2.379-2.441 5.539c2.576 10.471 1.784 24.318 1.596 29.107-.188 4.788 1.314 11.925 1.314 11.925-2.44-1.315-3.098-2.723-3.098-2.723.094 3.004 1.596 8.261 1.596 8.261-1.596-1.221-2.459-1.864-2.459-1.864-.779 13.648-7.072 29.733-9.934 45.338-3.558 19.393-4.789 45.349-10.131 45.716-5.341.365-5.644-6.563-7.333-24.873-1.69-18.309-1.69-38.308-1.69-38.308"/><g opacity=".07"><defs><path id="I" d="M97.325 51.575h43.126v171.923H97.325z"/></defs><clipPath id="J"><use xlink:href="#I" overflow="visible"/></clipPath><path clip-path="url(#J)" d="M140.451 75.989s-3.192-2.442-4.507-5.26c-1.314-2.816-6.806-19.154-35.825-19.154-.958 0-1.888.019-2.794.055 26.579 1.009 31.759 16.377 33.03 19.1 1.314 2.817 4.507 5.26 4.507 5.26-1.597.562-5.634-.472-5.634-.472.188 2.818 3.943 6.666 3.943 6.666s-3.218 2.381-2.441 5.541c2.575 10.471 1.783 24.318 1.597 29.107-.188 4.788 1.315 11.925 1.315 11.925-2.442-1.315-3.098-2.723-3.098-2.723.093 3.004 1.595 8.261 1.595 8.261-1.595-1.221-2.459-1.864-2.459-1.864-.779 13.648-7.072 29.733-9.935 45.337-3.05 16.625-4.39 38.068-8.075 44.086.859 1.223 1.984 1.736 3.533 1.631 5.344-.367 6.573-26.323 10.131-45.717 2.862-15.604 9.155-31.688 9.934-45.337 0 0 .864.644 2.459 1.864 0 0-1.501-5.257-1.595-8.261 0 0 .657 1.407 3.098 2.723 0 0-1.502-7.137-1.313-11.925.187-4.789.978-18.637-1.596-29.107-.778-3.16 2.441-5.541 2.441-5.541s-3.756-3.848-3.944-6.666c-.001 0 4.036 1.033 5.633.471"/></g><path fill="none" d="M64.728 70.73c-1.314 2.816-4.506 5.259-4.506 5.259 1.595.563 5.634-.472 5.634-.472-.188 2.818-3.944 6.666-3.944 6.666s3.218 2.381 2.441 5.541c-2.575 10.471-1.784 24.318-1.596 29.107.188 4.788-1.315 11.925-1.315 11.925 2.442-1.314 3.1-2.723 3.1-2.723-.094 3.004-1.597 8.261-1.597 8.261 1.597-1.22 2.458-1.864 2.458-1.864.782 13.648 7.073 29.733 9.935 45.338 3.559 19.393 4.789 45.349 10.13 45.716 5.342.365 5.644-6.563 7.334-24.873 1.69-18.309 1.69-38.308 1.69-38.308h12.121s0 19.999 1.69 38.308c1.69 18.311 1.992 25.238 7.334 24.873 5.342-.367 6.572-26.323 10.129-45.716 2.862-15.604 9.155-31.689 9.935-45.338 0 0 .863.645 2.46 1.864 0 0-1.502-5.257-1.597-8.261 0 0 .657 1.408 3.099 2.723 0 0-1.502-7.137-1.314-11.925.188-4.789.979-18.637-1.596-29.107-.776-3.16 2.441-5.541 2.441-5.541s-3.755-3.848-3.943-6.666c0 0 4.038 1.035 5.634.472 0 0-3.192-2.442-4.507-5.259-1.314-2.817-6.807-19.154-35.825-19.154-29.017 0-34.51 16.337-35.825 19.154"/><path fill="none" stroke="#000" stroke-width=".508" stroke-miterlimit="10" d="M94.492 160.304s0 19.999-1.69 38.308c-1.69 18.311-1.992 25.238-7.334 24.873-5.342-.367-6.572-26.323-10.13-45.716-2.862-15.604-9.153-31.689-9.935-45.338 0 0-.862.644-2.458 1.864 0 0 1.502-5.257 1.597-8.261 0 0-.658 1.407-3.1 2.723 0 0 1.503-7.137 1.316-11.925-.189-4.789-.98-18.637 1.595-29.107.777-3.16-2.44-5.539-2.44-5.539s3.755-3.85 3.943-6.668c0 0-4.039 1.035-5.634.472 0 0 3.192-2.442 4.506-5.26 1.315-2.816 6.808-19.154 35.825-19.154s34.511 16.338 35.825 19.154c1.314 2.817 4.508 5.26 4.508 5.26-1.597.563-5.634-.472-5.634-.472.188 2.818 3.942 6.668 3.942 6.668s-3.217 2.379-2.441 5.539c2.576 10.471 1.784 24.318 1.596 29.107-.188 4.788 1.314 11.925 1.314 11.925-2.44-1.315-3.098-2.723-3.098-2.723.094 3.004 1.596 8.261 1.596 8.261-1.596-1.221-2.459-1.864-2.459-1.864-.779 13.648-7.072 29.733-9.934 45.338-3.558 19.393-4.789 45.349-10.131 45.716-5.341.365-5.644-6.563-7.333-24.873-1.69-18.309-1.69-38.308-1.69-38.308"/><g opacity=".05"><defs><path id="K" d="M60.804 51.346h80.664v171.923H60.804z"/></defs><clipPath id="L"><use xlink:href="#K" overflow="visible"/></clipPath><path clip-path="url(#L)" d="M140.917 75.307c.013.184.042.371.083.561.168-.026.33-.061.467-.109.001-.001-.213-.163-.55-.452m-74.481 0c.97-.831 2.98-2.714 3.956-4.805 1.275-2.733 6.483-18.189 33.285-19.111a74.906 74.906 0 0 0-2.541-.045c-29.018 0-34.511 16.34-35.825 19.156s-4.507 5.256-4.507 5.256c1.596.565 5.633-.468 5.633-.468.001.005-.001.012-.001.017m14.565 102.232c-2.862-15.604-9.154-31.687-9.934-45.337 0 0-.863.645-2.459 1.864 0 0 1.501-5.258 1.596-8.262 0 0-.658 1.407-3.099 2.723 0 0 1.503-7.136 1.315-11.925-.188-4.788-.979-18.636 1.596-29.107.778-3.158-2.441-5.539-2.441-5.539s3.756-3.85 3.943-6.666c0 0-3.366.857-5.167.577-.589 2.736-3.857 6.089-3.857 6.089s3.218 2.381 2.441 5.539c-2.575 10.472-1.784 24.319-1.596 29.107.188 4.789-1.315 11.925-1.315 11.925 2.442-1.315 3.099-2.723 3.099-2.723-.094 3.004-1.596 8.262-1.596 8.262 1.596-1.22 2.46-1.864 2.46-1.864.78 13.65 7.071 29.732 9.934 45.337 3.558 19.395 4.788 45.351 10.13 45.716 1.39.096 2.437-.309 3.258-1.273-3.863-5.479-5.194-27.474-8.308-44.443"/></g><path fill="#263135" d="M76.347 118.242s.101.119.265.333c.079.107.183.235.287.385.108.148.236.313.362.5.262.365.551.797.858 1.254l.953 1.432c.153.248.331.477.483.72.161.234.326.461.477.688.16.218.314.429.457.635.154.195.297.382.428.562l.38.465c.111.146.222.257.311.355.178.197.277.322.277.322s-.148-.041-.404-.137c-.126-.051-.292-.103-.452-.202-.165-.092-.357-.195-.554-.325-.189-.137-.393-.29-.604-.457-.196-.183-.404-.373-.609-.582-.193-.215-.4-.436-.585-.678-.183-.24-.375-.485-.541-.741-.165-.261-.334-.518-.477-.781a10.71 10.71 0 0 1-.405-.787 11.516 11.516 0 0 1-.574-1.456 9.405 9.405 0 0 1-.272-1.081 4.09 4.09 0 0 1-.061-.424m6.776 3.497s.066.121.17.329c.049.104.118.229.183.373.067.143.152.304.228.479.16.345.344.747.543 1.18l.146.324c.053.107.105.216.155.328.099.224.213.44.318.661.105.223.228.433.33.652.125.2.228.416.344.61.124.188.226.39.345.56.122.169.225.343.335.495.115.141.217.282.31.408.093.127.191.218.264.309.151.173.236.287.236.287s-.13-.027-.359-.101c-.11-.043-.262-.071-.405-.154-.147-.078-.315-.167-.494-.275-.171-.116-.341-.262-.526-.413-.181-.156-.341-.345-.518-.536-.167-.196-.317-.414-.471-.636a11.39 11.39 0 0 1-.398-.706c-.109-.249-.234-.491-.315-.743a6.43 6.43 0 0 1-.233-.74 7.673 7.673 0 0 1-.233-1.347 6.515 6.515 0 0 1-.001-.974c.015-.234.046-.37.046-.37m5.537 1.458s.068.1.171.272c.105.173.243.422.397.717.15.298.317.643.48 1.014.087.184.164.377.249.568.086.191.161.391.249.583.079.197.163.389.244.578.078.192.162.376.239.555.074.185.161.347.233.514.067.17.158.306.224.454.064.149.147.26.209.381l.093.164c.034.045.064.088.092.127.113.158.18.267.18.267s-.113-.02-.314-.086c-.051-.02-.107-.038-.168-.06-.058-.025-.113-.062-.177-.099-.123-.075-.284-.151-.412-.272-.133-.116-.296-.239-.424-.396-.133-.152-.283-.314-.401-.497a4.721 4.721 0 0 1-.354-.572 5.836 5.836 0 0 1-.299-.623 6.958 6.958 0 0 1-.235-.64c-.073-.214-.123-.429-.172-.636a7.005 7.005 0 0 1-.162-1.157 5.707 5.707 0 0 1 .013-.835c.018-.205.045-.321.045-.321m20.548 2.039s.019.082.026.222c.01.137.011.329-.018.549a3.538 3.538 0 0 1-.173.729c-.09.258-.215.52-.367.769-.084.122-.161.244-.256.357a2.648 2.648 0 0 1-.294.321 2.528 2.528 0 0 1-.325.265 1.923 1.923 0 0 1-.657.297c-.102.019-.183.035-.263.026-.151-.012-.224-.037-.224-.037l.134-.168c.04-.04.075-.121.118-.188.043-.063.084-.147.129-.235.047-.08.092-.177.143-.276l.161-.304c.061-.1.113-.219.181-.323.063-.108.131-.223.199-.33.277-.444.604-.876.909-1.183.151-.152.292-.276.4-.36.104-.084.177-.131.177-.131m4.808-2.622s.013.114.006.308a4.99 4.99 0 0 1-.089.789 6.488 6.488 0 0 1-.307 1.063c-.07.188-.153.38-.248.57-.087.193-.201.379-.309.566a8.035 8.035 0 0 1-.365.537 7.02 7.02 0 0 1-.409.483 7.36 7.36 0 0 1-.436.409 9.055 9.055 0 0 1-.435.319 7.13 7.13 0 0 1-.406.216c-.116.064-.242.095-.333.127-.188.058-.297.076-.297.076s.058-.103.165-.257c.052-.081.121-.166.185-.277.067-.11.144-.229.229-.35.078-.135.163-.274.258-.415.089-.147.178-.305.281-.458.093-.162.191-.326.296-.489.095-.173.208-.335.307-.51.105-.169.211-.338.314-.506.104-.168.211-.332.314-.492.209-.318.41-.618.599-.87a9.69 9.69 0 0 1 .68-.839m2.696 0s.035.092.068.251c.037.16.073.388.085.655a5.203 5.203 0 0 1-.293 1.92c-.12.337-.272.666-.459.955-.085.147-.194.281-.293.403-.096.126-.217.231-.32.328-.1.095-.219.169-.315.232-.05.029-.095.058-.141.082a4.009 4.009 0 0 0-.132.053c-.16.06-.251.075-.251.075s.035-.098.098-.239c.035-.065.063-.154.096-.255.033-.099.078-.197.11-.32.034-.119.082-.235.118-.374l.13-.415.143-.441.155-.456c.06-.15.108-.308.169-.456.058-.151.115-.302.18-.444.119-.29.249-.557.371-.788.123-.23.241-.42.332-.556.088-.133.149-.21.149-.21m8.306-7.505s.015.153.009.414a8.65 8.65 0 0 1-.094 1.076c-.034.219-.076.458-.131.705-.059.248-.116.51-.201.775a11.234 11.234 0 0 1-.619 1.63c-.122.271-.27.531-.412.789-.145.257-.314.497-.47.731-.167.229-.344.44-.508.64-.18.19-.358.364-.521.519-.172.152-.347.272-.494.383-.142.114-.297.184-.413.246-.235.124-.374.18-.374.18s.081-.135.225-.345c.073-.107.164-.227.251-.382l.301-.497c.1-.189.212-.386.331-.593.108-.219.228-.439.349-.67.111-.239.237-.478.357-.725.112-.254.248-.495.359-.757l.706-1.503c.229-.482.445-.935.643-1.321.094-.195.194-.372.274-.531.08-.159.161-.293.222-.407.13-.227.21-.357.21-.357m9.98-3.642a18.902 18.902 0 0 1-.472 1.68 22.648 22.648 0 0 1-.605 1.639 24.64 24.64 0 0 1-.721 1.601 24.918 24.918 0 0 1-.845 1.545c-.155.251-.305.504-.472.747-.16.249-.336.486-.509.727-.178.237-.355.475-.546.703-.184.232-.386.451-.583.675-.206.217-.407.438-.629.64-.213.212-.446.402-.672.601-.238.186-.471.377-.722.548-.243.18-.505.334-.762.497l-.427-.945c.232-.082.445-.148.67-.211.223-.064.45-.12.679-.168.463-.091.931-.169 1.466-.14.267.024.566.056.903.266a1.124 1.124 0 0 1 .468.643l.01.039.01.054.007.041c.005.033.012.112.015.166-.001.044-.002.093-.006.138-.034.351-.149.6-.262.833a5.79 5.79 0 0 1-.375.636c-.268.392-.558.747-.851 1.095-.294.348-.596.684-.901 1.014-.612.658-1.233 1.3-1.875 1.922l-.628-.829c.275-.146.542-.28.816-.412.272-.133.548-.261.828-.384.561-.241 1.124-.478 1.752-.633a4.03 4.03 0 0 1 .497-.091c.178-.018.363-.034.611.025a.836.836 0 0 1 .404.238c.13.142.182.327.188.465.008.279-.069.453-.135.618-.152.334-.309.562-.461.825-.158.264-.324.514-.487.765-.163.248-.326.495-.479.743-.15.249-.291.483-.382.731a1 1 0 0 0-.068.329c.003.089.018.129.078.178.065.053.181.09.309.109a3.53 3.53 0 0 0 2.081-.262 4.17 4.17 0 0 0 1.407-1.038 3.637 3.637 0 0 1-.572.693 3.875 3.875 0 0 1-.725.556 3.701 3.701 0 0 1-1.773.53 4.532 4.532 0 0 1-.47-.008 1.206 1.206 0 0 1-.539-.148.77.77 0 0 1-.246-.243.802.802 0 0 1-.104-.32c-.025-.21.016-.386.058-.551.091-.32.237-.61.375-.881.142-.27.289-.532.432-.792l.423-.774c.134-.257.294-.537.374-.752.042-.107.063-.228.053-.246-.004-.01-.001.027.026.058.026.032.041.031.019.027a1.011 1.011 0 0 0-.277.017c-.117.02-.247.054-.376.092-.519.164-1.057.393-1.58.644a23.63 23.63 0 0 0-1.545.812l-3.076 1.751 2.447-2.582c.608-.642 1.224-1.272 1.812-1.924.584-.648 1.163-1.315 1.632-1.998.117-.17.224-.341.309-.506.085-.164.146-.331.153-.425l.002-.029c-.002-.001.003.021.001 0l-.007-.041-.001-.01-.001-.005.006.028v-.002c0-.004-.002-.004 0-.004-.002.003.01.008-.011-.009-.039-.031-.194-.079-.367-.09-.353-.025-.771.03-1.179.107-.205.043-.411.086-.617.137-.205.052-.417.11-.607.168l-4.212 1.315 3.786-2.262c.235-.142.479-.271.706-.431.233-.146.453-.315.677-.479.216-.176.436-.344.642-.535.21-.183.414-.375.617-.569.196-.201.397-.396.584-.608.192-.207.374-.423.557-.641.177-.22.357-.438.525-.668.173-.224.34-.455.506-.686.327-.469.638-.947.934-1.438.145-.247.292-.492.435-.743a30.366 30.366 0 0 0 1.184-2.302c.237-.527.48-1.054.686-1.596m-70.059 0c.133.563.289 1.127.472 1.68s.382 1.102.605 1.639c.224.54.457 1.076.721 1.601.263.524.545 1.038.845 1.545.154.251.305.504.471.747.161.249.337.486.51.727.178.237.356.475.547.703.185.232.386.451.583.675.206.217.407.438.629.64.213.212.446.402.672.601.238.186.471.377.723.548.242.18.505.334.761.497l.426-.945a10.08 10.08 0 0 0-.67-.211 9.451 9.451 0 0 0-.678-.168c-.463-.091-.931-.169-1.467-.14-.267.024-.565.056-.901.266-.166.104-.33.284-.416.488-.021.053-.042.105-.053.155l-.01.039-.012.054-.006.041a2.366 2.366 0 0 0-.015.166c.001.044.001.093.005.138.035.351.15.6.261.833.115.231.244.438.376.636.268.392.558.747.851 1.095.294.348.596.684.902 1.014.611.658 1.232 1.3 1.873 1.922l.63-.829c-.275-.146-.542-.28-.817-.412a23.9 23.9 0 0 0-.827-.384c-.562-.241-1.124-.478-1.752-.633a4.012 4.012 0 0 0-.498-.091 1.68 1.68 0 0 0-.61.025.836.836 0 0 0-.404.238.762.762 0 0 0-.188.465c-.009.279.07.453.136.618.152.334.308.562.461.825.158.264.324.514.486.765.162.248.326.495.479.743.15.249.291.483.382.731a.97.97 0 0 1 .067.329c-.003.089-.018.129-.078.178a.668.668 0 0 1-.308.109 3.527 3.527 0 0 1-2.081-.262 4.193 4.193 0 0 1-1.408-1.038c.157.254.356.483.573.693.217.211.459.399.724.556a3.701 3.701 0 0 0 1.773.53c.156.006.328.002.469-.008.166-.014.352-.037.54-.148a.748.748 0 0 0 .245-.243.823.823 0 0 0 .106-.32 1.463 1.463 0 0 0-.059-.551c-.09-.32-.238-.61-.375-.881-.142-.27-.289-.532-.433-.792l-.423-.774c-.134-.257-.294-.537-.375-.752-.042-.107-.063-.228-.052-.246.003-.01 0 .027-.027.058-.026.032-.041.031-.018.027.043-.007.16-.005.276.017.119.02.248.054.377.092.52.164 1.056.393 1.579.644.523.249 1.047.526 1.545.812l3.076 1.751-2.447-2.582c-.607-.642-1.225-1.272-1.811-1.924-.585-.648-1.162-1.315-1.633-1.998a4.744 4.744 0 0 1-.309-.506c-.085-.164-.145-.331-.152-.425l-.001-.029c.002-.001-.004.021-.003 0l.008-.041.001-.01.001-.005c.002-.006-.011.053-.004.028v-.006c.001.003-.011.008.011-.009.039-.031.194-.079.367-.09.353-.025.771.03 1.179.107.204.043.412.086.617.137.204.052.417.11.606.168l4.212 1.315-3.785-2.262c-.236-.142-.479-.271-.707-.431-.234-.146-.453-.315-.676-.479-.216-.176-.438-.344-.642-.535-.21-.183-.414-.375-.617-.569-.197-.201-.398-.396-.585-.608a17.162 17.162 0 0 1-.557-.641c-.176-.22-.357-.438-.524-.668-.175-.224-.34-.455-.507-.686a25.238 25.238 0 0 1-.933-1.438c-.146-.247-.294-.492-.436-.743-.141-.248-.28-.501-.414-.755a37.123 37.123 0 0 1-.771-1.547c-.235-.527-.478-1.054-.684-1.596"/><defs><path id="M" d="M92.423 146.356h17.667v73.672H92.423z"/></defs><clipPath id="N"><use xlink:href="#M" overflow="visible"/></clipPath><path clip-path="url(#N)" fill="#E0D5BD" d="M95.472 159.764c-1.524-2.146-5.589-13.407 5.081-13.407 8.638 0 7.622 9.118 5.082 13.407-6.217 10.498 0 0 0 0s.507 42.898 3.556 56.306c2.026 8.909 0 0 0 0H92.423c0-.001 4.065-39.147 3.049-56.306"/><g opacity=".07"><defs><path id="O" d="M124.52 149.986h32.409v65.83H124.52z"/></defs><clipPath id="P"><use xlink:href="#O" overflow="visible"/></clipPath><path clip-path="url(#P)" d="M124.521 153.215c35.378-8.385 31.175 15.896 21.688 34.788-5.807 11.568-14.578 20.493-14.578 20.493 4.437-1.69 13.419-.544 14.739 4.551.319 1.231-.041 2.123-.741 2.77 2.433-.332 5.572-1.327 4.805-4.296-1.318-5.092-10.301-6.239-14.737-4.55 0 0 8.77-8.925 14.577-20.491 9.486-18.893 13.69-43.174-21.689-34.788"/></g><g opacity=".05"><defs><path id="Q" d="M44.178 149.584h32.917v65.839H44.178z"/></defs><clipPath id="R"><use xlink:href="#Q" overflow="visible"/></clipPath><path clip-path="url(#R)" d="M72.521 151.289c-35.379-8.384-31.176 15.896-21.689 34.788 5.808 11.567 14.577 20.493 14.577 20.493-4.436-1.691-13.419-.546-14.736 4.549-.777 3 2.438 3.983 4.88 4.304-.397-.587-.552-1.328-.308-2.271 1.318-5.094 10.301-6.239 14.737-4.551 0 0-8.769-8.924-14.577-20.492-9.486-18.893-13.689-43.174 21.689-34.788"/></g><path fill="#E0605C" d="M100.561 116.528c-6.517 0-7.556-9.361-7.486-15.908 3.04-.168 5.399-2.723 7.486-6.228 1.855 3.036 3.912 5.779 7.488 6.319.06 6.544-1 15.817-7.488 15.817"/><path fill="#323435" d="M109.203 101.076c-.567 0-1.152-.032-1.754-.098-6.595-.727-7.577-8.579-7.586-8.658a.702.702 0 1 1 1.397-.161c.035.292.874 6.818 6.343 7.42 5.731.634 9.526-2.026 10.692-7.486a.703.703 0 0 1 1.375.294c-1.195 5.594-4.968 8.689-10.467 8.689"/><path fill="#323435" d="M91.92 101.076c-5.5 0-9.271-3.095-10.467-8.689a.702.702 0 1 1 1.374-.294c1.167 5.46 4.961 8.117 10.692 7.486 5.475-.602 6.311-7.144 6.343-7.421a.704.704 0 0 1 1.397.162c-.008.079-.992 7.932-7.586 8.658-.601.066-1.186.098-1.753.098"/><path fill="#323435" d="M108.783 85.654c0 2.766-3.522 8.329-8.222 8.329-4.698 0-8.221-5.563-8.221-8.329 0-2.763 3.523-4.146 8.221-4.146 4.699.001 8.222 1.384 8.222 4.146"/><path fill="#FFF" d="M83.09 61.508c-6.461 0-11.7 5.239-11.7 11.7 0 6.464 5.239 11.702 11.7 11.702 6.463 0 11.702-5.238 11.702-11.702 0-6.461-5.239-11.7-11.702-11.7"/><circle fill="none" stroke="#000" stroke-width=".8" stroke-linecap="round" stroke-linejoin="round" cx="83.09" cy="73.209" r="11.701"/><path fill="#9B6730" d="M89.275 73.407a5.99 5.99 0 1 1-11.982.002 5.99 5.99 0 0 1 11.982-.002"/><path fill="#31323C" d="M87.67 73.407a4.386 4.386 0 1 1-8.773 0 4.386 4.386 0 1 1 8.773 0"/><path fill="#FFF" d="M87.383 69.463a1.6 1.6 0 1 1-3.2.002 1.6 1.6 0 0 1 3.2-.002m32.869-7.878c-6.42-.743-12.226 3.858-12.968 10.278s3.859 12.226 10.278 12.969c6.42.742 12.226-3.858 12.968-10.279.743-6.419-3.859-12.226-10.278-12.968"/><circle fill="none" stroke="#000" stroke-width=".8" stroke-linecap="round" stroke-linejoin="round" cx="118.907" cy="73.208" r="11.701"/><path fill="#9B6730" d="M125.028 74.117a5.99 5.99 0 0 1-6.639 5.262 5.99 5.99 0 1 1 1.377-11.9 5.987 5.987 0 0 1 5.262 6.638"/><path fill="#31323C" d="M123.435 73.933a4.387 4.387 0 1 1-8.716-1.01 4.387 4.387 0 0 1 8.716 1.01"/><path fill="#FFF" d="M123.603 69.982a1.599 1.599 0 1 1-3.176-.368 1.599 1.599 0 0 1 3.176.368"/></svg>