<svg xmlns="http://www.w3.org/2000/svg" xmlns:xlink="http://www.w3.org/1999/xlink" width="242" height="286" viewBox="0 0 242 286"><path fill="#FFF2C2" d="M0 0h242v286H0z"/><ellipse opacity=".1" cx="121" cy="234" rx="54.5" ry="8"/><defs><path id="a" d="M-1.498 25.666h246.995V272.66H-1.498z"/></defs><clipPath id="b"><use xlink:href="#a" overflow="visible"/></clipPath><g clip-path="url(#b)"><defs><path id="c" d="M-1.498 25.666h246.995V272.66H-1.498z"/></defs><clipPath id="d"><use xlink:href="#c" overflow="visible"/></clipPath><path clip-path="url(#d)" fill="#D7685F" d="M213.036 168.048c-8.126 32.328-49.233 16.585-49.233 16.585l.799-8.524c.571.325 6.999 1.79 13.536.909 6.26-.845 12.618-3.84 14.026-12.047 1.294-7.54-.063-11.811-2.514-14.134-5.242-4.974-15.491-1.02-15.491-1.02 2.185-11.585 13.498-15.204 23.524-12.087 10.45 3.249 19.5 13.817 15.353 30.318"/></g><g clip-path="url(#b)"><defs><path id="e" d="M174.169 149.817s10.259-3.953 15.507 1.02c2.452 2.324 3.811 6.594 2.516 14.135-1.41 8.206-7.774 11.202-14.04 12.046-6.544.883-12.979-.584-13.551-.909l-.8 8.524s41.15 15.742 49.285-16.585c4.15-16.501-4.909-27.068-15.37-30.318a23.392 23.392 0 0 0-6.901-1.064c-7.797-.001-14.954 4.193-16.646 13.151"/></defs><clipPath id="f"><use xlink:href="#e" overflow="visible"/></clipPath><path clip-path="url(#f)" fill="#EC8980" d="M192.382 126.388s1.013 16.703 8.107 19.738c7.093 3.036 8.613-11.135 8.613-11.64l7.092 16.195s-24.319 6.58-9.626 16.197c14.692 9.615 14.692 5.061 15.706 2.023 1.014-3.036 15.2 10.63 3.04 13.16-12.16 2.531-27.36 15.184-43.572 12.653-16.213-2.53-33.439-2.53-28.373-13.16 5.067-10.627 10.641-15.689 22.799-14.172 12.16 1.519 1.52 9.11 7.094 4.556 5.573-4.556 16.213-24.801 4.56-23.788-11.654 1.011-13.68 15.688-16.213 9.616-2.533-6.074-22.293-23.789-2.027-25.812 20.267-2.024 22.8-5.566 22.8-5.566"/></g><g clip-path="url(#b)"><defs><path id="g" d="M-1.498 25.666h246.995V272.66H-1.498z"/></defs><clipPath id="h"><use xlink:href="#g" overflow="visible"/></clipPath><path clip-path="url(#h)" fill="none" stroke="#020100" stroke-width=".506" stroke-miterlimit="10" d="M213.036 168.048c-8.126 32.328-49.233 16.585-49.233 16.585l.799-8.524c.571.325 6.999 1.79 13.536.909 6.26-.845 12.618-3.84 14.026-12.047 1.294-7.54-.063-11.811-2.514-14.134-5.242-4.974-15.491-1.02-15.491-1.02 2.185-11.585 13.498-15.204 23.524-12.087 10.45 3.249 19.5 13.817 15.353 30.318z"/></g><g clip-path="url(#b)"><defs><path id="i" d="M-1.498 25.666h246.995V272.66H-1.498z"/></defs><clipPath id="j"><use xlink:href="#i" overflow="visible"/></clipPath><path clip-path="url(#j)" fill="#EC8980" d="M108.081 70.966c-2.205-5.779-5.99-15.155-9.914-14.927-5.212.3-7.415 24.187-7.415 24.187l.184-.035m59.858-.68c-.417-3.971-2.669-23.203-7.344-23.472-3.893-.227-7.832 8.597-10.062 14.421"/><path clip-path="url(#j)" fill="#EC8980" d="M156.578 223.707s8.735-8.89 14.521-20.414c9.083-18.089 13.297-41.131-17.683-35.478 1.577-6.267 2.845-12.323 3.166-17.963 0 0 .861.642 2.451 1.857 0 0-1.497-5.238-1.59-8.233 0 0 .655 1.406 3.086 2.714 0 0-1.497-7.109-1.309-11.877.187-4.771.975-18.565-1.59-28.998-.775-3.146 2.432-5.518 2.432-5.518s-3.741-3.834-3.929-6.64c0 0 4.022 1.028 5.612.466 0 0-3.181-2.431-4.49-5.236-1.31-2.808-6.781-19.083-35.688-19.083S87.19 85.58 85.88 88.388c-1.309 2.806-4.489 5.236-4.489 5.236 1.59.563 5.612-.466 5.612-.466-.187 2.806-3.928 6.64-3.928 6.64s3.206 2.371 2.432 5.518c-2.565 10.433-1.777 24.227-1.59 28.998.188 4.768-1.309 11.877-1.309 11.877 2.432-1.308 3.086-2.714 3.086-2.714-.094 2.995-1.589 8.233-1.589 8.233 1.589-1.216 2.449-1.857 2.449-1.857.323 5.64 1.592 11.696 3.167 17.963-30.979-5.653-26.766 17.389-17.682 35.478 5.785 11.524 14.521 20.414 14.521 20.414-4.419-1.685-13.368-.542-14.681 4.533-1.216 4.695 7.395 4.436 7.395 4.436H102.3c1.111 4.717 2.442 7.758 4.241 7.88 3.158.219 4.547-2.126 5.508-7.88h19.038c.959 5.754 2.35 8.099 5.507 7.88 1.8-.122 3.131-3.163 4.241-7.88h23.028s8.61.26 7.394-4.436c-1.312-5.076-10.26-6.219-14.679-4.534"/><path clip-path="url(#j)" fill="#D7685F" d="M113.902 173.964c1.684 2.947 1.519 5.062 1.519 12.146 0 4.908-.101 11.455-.412 16.353-.583 9.211-2.991 29.365-3.132 30.213h19.234c-.804 0-3.543-46.542-3.543-50.613 0-7.087 2.059-4.409 3.037-9.11.301-1.448.445-2.733.455-3.873.009-1.194-1.713-1.814-1.973-2.708-.282-.964.876-2.179.341-2.831-.745-.915-2.806.721-3.885.3-.655-.253-.254-2.699-.979-2.808-.854-.13-2.184 2.274-3.07 2.304-.875.027-1.305-2.322-2.147-2.187-.301.048-.598 2.633-.89 2.69-.856.174-1.604-2.029-2.249-1.582-.851.587.228 2.195-.282 3.102-.378.671-2.417.588-2.62 1.346-.694 2.585-.42 5.48.596 7.258"/></g><g clip-path="url(#b)"><defs><path id="k" d="M116.815 67.196c-1.135-1.491-2.913-2.558-2.913-2.558.496 1.24-.013 4.974-.478 7.181l.124-1.8C91.605 72.693 87.059 86.116 85.88 88.64c-1.309 2.808-4.489 5.238-4.489 5.238 1.59.562 5.611-.467 5.611-.467-.187 2.805-3.928 6.64-3.928 6.64s3.205 2.37 2.432 5.518c-2.565 10.433-1.777 24.228-1.591 28.997.188 4.77-1.308 11.878-1.308 11.878 2.431-1.309 3.086-2.713 3.086-2.713-.094 2.993-1.59 8.232-1.59 8.232 1.59-1.216 2.449-1.858 2.449-1.858.324 5.641 1.592 11.697 3.167 17.965-30.979-5.654-26.765 17.388-17.681 35.479 5.784 11.521 14.521 20.413 14.521 20.413-4.419-1.685-13.368-.542-14.681 4.531-1.216 4.697 7.394 4.437 7.394 4.437H102.3l.018-.255c1.092 4.495 2.4 7.375 4.15 7.493 5.321.364 5.622-6.537 7.305-24.776 1.683-18.24 1.683-38.161 1.683-38.161h12.075s0 19.921 1.683 38.161c1.684 18.239 1.984 25.141 7.307 24.776 1.807-.123 3.141-3.19 4.255-7.94l.06.702h23.028s8.61.261 7.394-4.437c-1.313-5.073-10.261-6.216-14.68-4.531 0 0 8.735-8.892 14.521-20.413 9.083-18.091 13.298-41.133-17.681-35.479 1.574-6.268 2.843-12.324 3.166-17.965 0 0 .86.643 2.449 1.858 0 0-1.496-5.239-1.589-8.232 0 0 .654 1.404 3.086 2.713 0 0-1.497-7.108-1.309-11.878.187-4.77.974-18.564-1.59-28.997-.774-3.147 2.432-5.518 2.432-5.518s-3.742-3.835-3.928-6.64c0 0 4.021 1.028 5.612.467 0 0-3.181-2.431-4.491-5.238-1.22-2.612-6.056-16.911-30.075-18.856-.231-2.193-.119-4.133-.119-4.133-1.519 1.013-3.037 2.531-3.037 2.531 0-.507 1.013-6.58 1.013-6.58a59.705 59.705 0 0 1-3.037 4.556c-1.012-3.544-3.542-6.58-3.542-6.58-.508 3.543-1.644 7.618-1.644 7.618"/></defs><clipPath id="l"><use xlink:href="#k" overflow="visible"/></clipPath><path clip-path="url(#l)" fill="#D7685F" d="M144.806 72.903a43.7 43.7 0 0 0-4.189-2.07 44.821 44.821 0 0 0-2.5-.993c-5.034-1.824 3.892-10.273-1.945-10.263-.102 0 .611-15.036-6.073-3.038 8.708-10.471-10.521 0-10.629 0-5.835.012-5.096-.32-10.123 1.52-.847.311-8.293 3.692-9.11 4.049-1.444.63-2.711 3.793-4.05 4.556-3.943 2.25-9.346 4.363-12.146 7.592-1.619 1.866-6.44.915-7.592 3.037-.607 1.12-10.671 5.907-11.135 7.086-1.343 3.414-.006 15.442 0 19.233.007 3.384 16.077 6.414 18.69 11.942l.125.072.009-.04c.431-.188.849-.397 1.255-.625.135-.077.26-.165.393-.244.266-.161.534-.32.791-.498.149-.103.289-.22.434-.326.231-.172.463-.341.685-.523.146-.118.282-.247.423-.372.214-.187.43-.372.638-.57.136-.13.267-.267.4-.402.204-.206.409-.409.607-.622.127-.139.25-.283.375-.423.198-.224.396-.443.588-.674.114-.138.225-.279.338-.419.199-.246.397-.493.591-.744.095-.123.188-.251.281-.375a46.8 46.8 0 0 0 .621-.842c.071-.099.139-.198.21-.298.23-.326.46-.652.686-.984l.067-.097c1.547-2.275 2.997-4.629 4.527-6.729.027-.04.055-.076.081-.114.236-.322.476-.637.716-.945l.142-.178c.229-.289.46-.568.694-.841l.183-.211a22.622 22.622 0 0 1 .902-.966c.229-.23.46-.451.695-.663.081-.072.162-.142.243-.212a12.673 12.673 0 0 1 .975-.769c.243-.172.489-.339.74-.492.094-.057.189-.108.286-.162a9.54 9.54 0 0 1 .772-.398c.102-.047.206-.087.308-.131a9.48 9.48 0 0 1 .811-.301c.108-.032.22-.06.329-.09a8.49 8.49 0 0 1 .858-.194c.114-.019.233-.031.349-.046.298-.039.601-.071.912-.082.121-.005.245.002.366.003.319 0 .642.008.976.04.124.01.254.035.378.052.343.044.69.094 1.049.171.126.029.261.069.389.102.369.092.744.189 1.13.319.127.041.261.097.389.145.403.143.81.296 1.232.481.121.053.249.119.371.177.442.203.889.417 1.354.667.108.059.225.131.334.191.49.272.987.559 1.504.885.076.049.158.107.234.156.561.36 1.13.738 1.722 1.164-.985-10.319-1.298-20.404 1.92-20.449v.007c3.238-.005 2.961 10.103 2.011 20.445.59-.427 1.159-.808 1.718-1.169.077-.051.158-.108.234-.158a30.036 30.036 0 0 1 1.501-.888c.109-.063.224-.136.333-.194.463-.253.909-.468 1.351-.673.122-.057.249-.125.37-.179.421-.186.828-.339 1.23-.485.128-.047.262-.104.389-.146.387-.13.759-.229 1.13-.322.128-.033.262-.074.389-.102.358-.08.704-.131 1.047-.178.125-.017.255-.039.379-.053.333-.031.655-.041.976-.043.121 0 .245-.008.365-.003.312.009.614.04.912.078.117.014.235.023.349.044.294.05.578.116.859.193.11.027.221.055.329.089.277.084.546.187.812.296.104.043.208.084.31.129.263.12.521.254.774.396.095.054.191.105.286.161.252.152.499.317.742.49.088.063.177.124.264.189.242.183.481.374.715.576.081.069.162.138.242.212.236.21.469.429.697.66a22.607 22.607 0 0 1 .906.963c.062.068.122.139.183.209.234.272.467.551.697.836.047.062.094.12.142.181.242.309.482.621.719.943l.084.111c1.537 2.096 2.996 4.444 4.55 6.713.023.033.044.066.068.099.227.33.457.656.688.98l.212.297c.204.284.414.562.623.839l.283.376c.195.251.395.496.594.742.114.138.226.28.339.416.194.229.393.451.591.674.125.139.249.283.376.42.198.213.406.416.61.62.134.134.265.271.401.402.209.197.425.381.64.567.142.121.281.253.425.37.223.183.456.351.687.521.146.107.287.222.436.323.257.178.526.337.793.497.132.079.259.167.393.241.408.227.827.436 1.259.62l.008.042c.043-.024 8.192 3.823 8.236 3.799 2.594-5.537 3.566-13.972 5.568-16.702 9.154-12.492-23.86-27.461-27.811-29.696"/></g><g clip-path="url(#b)"><defs><path id="m" d="M-1.498 25.666h246.995V272.66H-1.498z"/></defs><clipPath id="n"><use xlink:href="#m" overflow="visible"/></clipPath><path clip-path="url(#n)" fill="#D7685F" d="M147.813 189.148c.019-2.2.207-3.915-.584-4.59-2.863-2.436-10.872-5.654-13.003-10.436-2.008-4.503-1.582-8.868 1.198-12.286 2.233-2.748 7.948-6.412 20.488-4.575-2.025 8.604-2.025 11.641-5.062 21.764-.976 3.252-1.942 7.16-3.037 10.123m-52.639 0c-.045-2.2-.973-3.855-.19-4.538 2.833-2.472 10.801-5.788 12.874-10.596 1.952-4.526 1.472-8.889-1.348-12.271-2.269-2.721-6.411-6.472-18.928-4.482 1.013 8.098 3.037 16.197 5.061 21.764 1.185 3.258 1.4 7.172 2.531 10.123"/><path clip-path="url(#n)" fill="none" stroke="#000" stroke-width=".506" stroke-linecap="round" stroke-miterlimit="10" d="M108.081 70.966c-2.205-5.779-5.99-15.155-9.914-14.927-5.212.3-7.415 24.187-7.415 24.187l.184-.035m59.661-1.634c-.416-3.969-2.472-22.249-7.146-22.518-3.893-.227-7.832 8.597-10.062 14.421"/><path clip-path="url(#n)" d="M127.763 73.008c-.415-1.173-.639-2.404-.781-3.639a29.194 29.194 0 0 1-.174-3.733l.393.225c-1.069.726-2.066 1.595-2.998 2.501l-.484.469.052-.648c.049-.615.142-1.126.222-1.688l.258-1.646.536-3.288.467.173a60.133 60.133 0 0 1-3.052 4.576l-.298.404-.148-.487a15.293 15.293 0 0 0-.627-1.735 18.56 18.56 0 0 0-.816-1.664 21.684 21.684 0 0 0-2.052-3.087l.445-.127c-.383 2.591-.971 5.13-1.647 7.651l-.132.491-.313-.405a9.216 9.216 0 0 0-1.311-1.362c-.48-.413-.999-.798-1.53-1.131l-.002-.001.365-.312c.231.769.185 1.479.155 2.195a24.77 24.77 0 0 1-.233 2.115c-.218 1.399-.485 2.788-.887 4.144-.004.017-.021.023-.037.02-.016-.004-.024-.021-.02-.037.328-1.365.52-2.765.664-4.16.066-.698.113-1.398.12-2.095 0-.687-.02-1.415-.23-1.992l-.25-.685.615.372.003.002c.571.355 1.094.749 1.599 1.182a9.76 9.76 0 0 1 1.383 1.438l-.445.084c.669-2.496 1.256-5.031 1.633-7.586l.086-.576.359.451c.8.999 1.491 2.054 2.105 3.165.309.554.585 1.126.837 1.71.257.581.463 1.186.649 1.797l-.446-.084a59.683 59.683 0 0 0 3.022-4.533l.678-1.123-.211 1.296-.535 3.283-.256 1.644c-.08.536-.175 1.119-.218 1.611l-.431-.179c.96-.932 1.959-1.807 3.075-2.562l.427-.291-.034.515v.002a28.693 28.693 0 0 0-.02 3.675c.078 1.225.235 2.45.583 3.629a.063.063 0 0 1-.039.077c-.029.008-.063-.01-.074-.041"/><path clip-path="url(#n)" fill="none" stroke="#000" stroke-width=".506" stroke-linecap="round" stroke-miterlimit="10" d="M113.548 70.02C91.605 72.693 87.059 86.116 85.88 88.64c-1.309 2.808-4.49 5.238-4.49 5.238 1.59.562 5.612-.467 5.612-.467-.187 2.805-3.928 6.64-3.928 6.64s3.206 2.37 2.432 5.518c-2.565 10.433-1.777 24.228-1.59 28.997.188 4.77-1.309 11.878-1.309 11.878 2.431-1.309 3.086-2.713 3.086-2.713-.094 2.993-1.59 8.232-1.59 8.232 1.59-1.216 2.449-1.858 2.449-1.858.323 5.641 1.592 11.697 3.167 17.965-30.979-5.654-26.765 17.388-17.682 35.478 5.785 11.522 14.52 20.414 14.52 20.414-4.419-1.685-13.367-.542-14.68 4.531-1.215 4.697 7.394 4.437 7.394 4.437H102.3m38.536-.001h23.028s8.61.261 7.394-4.437c-1.313-5.073-10.261-6.216-14.68-4.531 0 0 8.735-8.892 14.521-20.414 9.083-18.09 13.298-41.132-17.682-35.478 1.577-6.268 2.845-12.324 3.166-17.965 0 0 .861.643 2.451 1.858 0 0-1.497-5.239-1.589-8.232 0 0 .654 1.404 3.086 2.713 0 0-1.497-7.108-1.309-11.878.187-4.77.974-18.564-1.59-28.997-.775-3.147 2.432-5.518 2.432-5.518s-3.741-3.834-3.929-6.64c0 0 4.022 1.028 5.612.467 0 0-3.181-2.431-4.49-5.238-1.224-2.622-6.085-17.017-30.33-18.882"/><path clip-path="url(#n)" fill="none" stroke="#000" stroke-width=".506" stroke-linecap="round" stroke-miterlimit="10" d="M153.633 168.144c-2.224 8.845-5.352 17.384-7.021 26.483-3.544 19.318-4.77 45.176-10.09 45.54-5.323.365-5.623-6.536-7.307-24.775-1.684-18.24-1.684-38.162-1.684-38.162m-12.075-.001s0 19.922-1.684 38.162c-1.684 18.239-1.985 25.14-7.306 24.775s-6.547-26.222-10.091-45.54c-1.643-8.952-4.417-18.063-6.625-26.777"/><path clip-path="url(#n)" fill="none" stroke="#000" stroke-width=".506" stroke-miterlimit="10" d="M112.05 232.929h19.037"/></g><g clip-path="url(#b)"><defs><path id="o" d="M-1.498 25.666h246.995V272.66H-1.498z"/></defs><clipPath id="p"><use xlink:href="#o" overflow="visible"/></clipPath><g opacity=".05" clip-path="url(#p)"><defs><path id="q" d="M93.789 62.336h11.002v15.359H93.789z"/></defs><clipPath id="r"><use xlink:href="#q" overflow="visible"/></clipPath><path clip-path="url(#r)" d="M104.792 71.815c-1.401-3.669-3.803-9.622-6.294-9.477-3.31.19-4.708 15.356-4.708 15.356l.117-.023"/></g><g opacity=".05" clip-path="url(#p)"><defs><path id="s" d="M136.171 62.166h11.642v14.113h-11.642z"/></defs><clipPath id="t"><use xlink:href="#s" overflow="visible"/></clipPath><path clip-path="url(#t)" d="M147.813 76.279c-.262-2.505-2.343-13.939-5.292-14.11-2.456-.141-4.941 5.426-6.35 9.1"/></g></g><g clip-path="url(#b)"><defs><path id="u" d="M85.88 88.387c-1.309 2.807-4.489 5.237-4.489 5.237 1.59.563 5.611-.466 5.611-.466-.187 2.806-3.928 6.64-3.928 6.64s3.205 2.371 2.432 5.518c-2.565 10.433-1.777 24.227-1.591 28.998.188 4.768-1.308 11.877-1.308 11.877 2.431-1.309 3.086-2.714 3.086-2.714-.094 2.995-1.59 8.233-1.59 8.233 1.59-1.216 2.449-1.857 2.449-1.857.324 5.64 1.592 11.696 3.167 17.963-30.979-5.653-26.765 17.389-17.681 35.478 5.784 11.524 14.521 20.415 14.521 20.415-4.419-1.686-13.368-.543-14.681 4.532-1.216 4.695 7.394 4.436 7.394 4.436H102.3c1.111 4.717 2.442 7.758 4.241 7.881 3.159.218 4.548-2.127 5.508-7.881h19.038c.959 5.754 2.349 8.099 5.507 7.881 1.799-.123 3.131-3.164 4.241-7.881h23.028s8.61.26 7.394-4.436c-1.313-5.075-10.261-6.218-14.68-4.532 0 0 8.735-8.891 14.521-20.415 9.083-18.089 13.298-41.131-17.681-35.478 1.574-6.267 2.843-12.323 3.166-17.963 0 0 .86.642 2.449 1.857 0 0-1.496-5.238-1.589-8.233 0 0 .654 1.405 3.086 2.714 0 0-1.497-7.109-1.309-11.877.187-4.771.974-18.565-1.59-28.998-.774-3.146 2.432-5.518 2.432-5.518s-3.742-3.834-3.928-6.64c0 0 4.021 1.028 5.612.466 0 0-3.181-2.431-4.491-5.237-1.309-2.807-6.781-19.081-35.688-19.081-28.905 0-34.377 16.274-35.687 19.081"/></defs><clipPath id="v"><use xlink:href="#u" overflow="visible"/></clipPath><g opacity=".05" clip-path="url(#v)"><defs><path id="w" d="M49.875 58.786h133.114v201.347H49.875z"/></defs><clipPath id="x"><use xlink:href="#w" overflow="visible"/></clipPath><path clip-path="url(#x)" d="M110.865 64.132S73.916 83.871 92.643 170.929c0 0-49.348-10.884-2.53 54.154 0 0-24.621 2.457-12.654 11.136 33.152 24.041 91.358-1.266 91.358-1.266s7.086-9.616-16.196-9.616c0 0 46.059-61.749-3.037-53.65 0 0 20.245-86.55-15.185-104.771-8.263-4.249 24.295-3.038 24.295-3.038l24.294 146.274-6.579 36.948S64.046 266.84 62.021 257.729c-2.024-9.11-12.147-48.589-12.147-48.589s11.135-89.081 10.629-93.636c-.506-4.555 9.616-56.181 10.629-56.688 1.014-.503 39.733 5.316 39.733 5.316"/></g></g><g clip-path="url(#b)"><defs><path id="y" d="M-1.498 25.666h246.995V272.66H-1.498z"/></defs><clipPath id="z"><use xlink:href="#y" overflow="visible"/></clipPath><path clip-path="url(#z)" fill="#FFF" d="M100.555 83.365c-6.437 0-11.657 5.218-11.657 11.657 0 6.437 5.22 11.655 11.657 11.655 6.438 0 11.656-5.219 11.656-11.655 0-6.439-5.219-11.657-11.656-11.657"/><circle clip-path="url(#z)" fill="none" stroke="#000" stroke-width=".797" stroke-linecap="round" stroke-linejoin="round" cx="100.555" cy="95.021" r="11.656"/><path clip-path="url(#z)" fill="#F7DF5A" d="M111.371 94.511a8.295 8.295 0 1 1-16.59 0 8.295 8.295 0 1 1 16.59 0"/><path clip-path="url(#z)" fill="#31323C" d="M109.565 94.262a6.34 6.34 0 1 1-12.682-.002 6.34 6.34 0 0 1 12.682.002"/><path clip-path="url(#z)" fill="#FFF" d="M107.868 88.706a3.057 3.057 0 1 1-6.115 0 3.057 3.057 0 0 1 6.115 0m33.934-5.341c-6.438 0-11.657 5.218-11.657 11.657 0 6.437 5.22 11.655 11.657 11.655s11.656-5.219 11.656-11.655c0-6.439-5.219-11.657-11.656-11.657"/><circle clip-path="url(#z)" fill="none" stroke="#000" stroke-width=".797" stroke-linecap="round" stroke-linejoin="round" cx="141.802" cy="95.021" r="11.656"/><path clip-path="url(#z)" fill="#F7DF5A" d="M152.875 95.017a8.295 8.295 0 1 1-16.59 0 8.295 8.295 0 0 1 16.59 0"/><path clip-path="url(#z)" fill="#31323C" d="M151.069 94.768a6.341 6.341 0 1 1-12.682 0 6.341 6.341 0 0 1 12.682 0"/><path clip-path="url(#z)" fill="#FFF" d="M150.383 89.213a3.057 3.057 0 1 1-6.114 0 3.057 3.057 0 0 1 6.114 0"/><path clip-path="url(#z)" fill="none" stroke="#393C3D" stroke-width="1.012" stroke-miterlimit="10" d="M121.494 107.154v22.776"/><path clip-path="url(#z)" fill="#393C3D" d="M124.024 112.216h-4.555c-3.062 0-5.567-2.506-5.567-5.568 0-3.061 2.505-5.567 5.567-5.567h4.555c3.063 0 5.568 2.507 5.568 5.567 0 3.062-2.506 5.568-5.568 5.568"/><path clip-path="url(#z)" fill="none" stroke="#393C3D" stroke-width="1.012" stroke-linecap="round" stroke-miterlimit="10" d="M118.457 129.93h6.074"/></g></svg>