<svg xmlns="http://www.w3.org/2000/svg" xmlns:xlink="http://www.w3.org/1999/xlink" width="213.23" height="252" viewBox="0 0 213.23 252"><path fill="#E7E7E7" d="M-14.385-17h242v286h-242z"/><ellipse opacity=".1" cx="108.615" cy="211" rx="54.5" ry="8"/><defs><path id="a" d="M-14.906 2.232h249.622v249.622H-14.906z"/></defs><clipPath id="b"><use xlink:href="#a" overflow="visible"/></clipPath><g clip-path="url(#b)"><defs><path id="c" d="M-14.906 2.232h249.622v249.622H-14.906z"/></defs><clipPath id="d"><use xlink:href="#c" overflow="visible"/></clipPath><path clip-path="url(#d)" fill="#7BDF99" d="M179.867 122.639c-3.602 1.649-1.401 6.433-2.473 13.371-.401 2.604-1.264 5.512-3.07 8.671-6.694 11.718-17.971 14.659-17.971 14.659l7.558 7.808c2.688-.838 11.23-4.385 18.561-15.956 2.446-3.861 3.899-8.127 4.552-12.174l-.013-.007c1.722-10.002-2.046-18.704-7.144-16.372"/></g><g clip-path="url(#b)"><defs><path id="e" d="M-14.906 2.232h249.622v249.622H-14.906z"/></defs><clipPath id="f"><use xlink:href="#e" overflow="visible"/></clipPath><path clip-path="url(#f)" fill="none" stroke="#000" stroke-width=".511" stroke-miterlimit="10" d="M179.867 122.639c-3.602 1.649-1.401 6.433-2.473 13.371-.401 2.604-1.264 5.512-3.07 8.671-6.694 11.718-17.971 14.659-17.971 14.659l7.558 7.808c2.688-.838 11.23-4.385 18.561-15.956 2.446-3.861 3.899-8.127 4.552-12.174l-.013-.007c1.722-10.002-2.046-18.704-7.144-16.372z"/></g><g clip-path="url(#b)"><defs><path id="g" d="M-14.906 2.232h249.622v249.622H-14.906z"/></defs><clipPath id="h"><use xlink:href="#g" overflow="visible"/></clipPath><path clip-path="url(#h)" fill="#F1F6E4" d="M144.996 202.636s8.828-8.984 14.675-20.631c9.18-18.28 13.513-41.493-17.796-35.779 1.593-6.335 2.8-12.531 3.126-18.23 0 0 .75-.695 2.796-2.23.819-.614 3.07-1.534 3.07-1.534-1.023 0-2.559-2.046-2.559-2.046a37.402 37.402 0 0 0 3.582-2.046c-2.559 0-4.604-3.07-4.604-3.07 1.022-1.534 3.581-21.484 3.581-21.484 2.557-1.022 5.627-4.603 5.627-4.603-2.047 0-3.582-2.558-3.582-2.558 2.557 1.022 7.162-2.559 7.162-2.559-2.557.512-7.673-3.067-7.673-3.067 4.093 0 10.742-3.582 10.742-3.582-4.092 0-13.812-5.628-13.812-5.628 2.559 0 8.697-3.578 8.697-3.578a31.491 31.491 0 0 1-5.866-1.191c1.143-1.799 11.419-18.35 7.054-24.897-1.023-1.534-10.742-2.047-25.576 8.185l.011.01c-4.08-2.389-9.538-4.355-16.875-5.146v-.002c2.017-4.864-1.024-8.121-1.024-8.121.112 3.755-2.044 4.127-2.044 4.127 3.196-5.649-8.733-11.298-8.733-11.298s.93 4.125-1.561 5.944c-2.49 1.822-4.125 4.61-2.862 6.506 0 0-1.783-.113-1.97-2.564 0 0-2.772 2.284.486 5.729l-.357.163c-5.756.989-10.204 2.741-13.646 4.794-14.538-9.854-24.533-9.841-25.542-8.326-4.448 6.671 6.301 23.721 7.108 24.983a31.474 31.474 0 0 1-5.574 1.105s6.139 3.578 8.696 3.578c0 0-9.719 5.628-13.811 5.628 0 0 6.649 3.582 10.742 3.582 0 0-5.115 3.579-7.672 3.067 0 0 4.604 3.581 7.161 2.559 0 0-1.535 2.558-3.581 2.558 0 0 3.069 3.58 5.627 4.603 0 0 2.557 19.95 3.58 21.484 0 0-2.045 3.07-4.603 3.07 0 0 1.534 1.021 3.58 2.046 0 0-1.535 2.046-2.557 2.046 0 0 2.25.92 3.069 1.534 2.045 1.535 2.796 2.23 2.796 2.23.326 5.699 1.608 11.82 3.2 18.155-31.309-5.715-27.049 17.574-17.871 35.854 5.848 11.646 14.675 20.631 14.675 20.631-4.466-1.702-13.508-.548-14.835 4.58-1.228 4.747 7.472 4.483 7.472 4.483h23.273l-.049-.541c1.117 4.704 2.456 7.733 4.261 7.855 5.378.369 5.682-6.606 7.383-25.038 1.585-17.167 1.694-35.806 1.702-38.287h12.204c.007 2.481.116 21.12 1.701 38.287 1.701 18.432 2.005 25.407 7.382 25.038 2.087-.141 3.552-4.167 4.771-10.181l-.264 2.866h23.273s8.701.264 7.473-4.483c-1.329-5.128-10.372-6.282-14.839-4.58M117.021 47.128l-.279-.087.033-.072.246.159zM67.072 68.646l-.016.129c-.069.02-.135.043-.206.064l.222-.193z"/></g><g clip-path="url(#b)"><defs><path id="i" d="M67.072 68.646l-.016.129c-.069.02-.135.043-.206.064l.222-.193zm49.67-21.605c.01-.025.022-.048.033-.072l.245.159-.278-.087zm-13.329-9.422c-2.49 1.822-4.126 4.608-2.862 6.506 0 0-1.783-.113-1.97-2.564 0 0-2.772 2.284.485 5.729l-.357.163c-5.756.989-10.205 2.741-13.647 4.796-14.537-9.855-24.531-9.843-25.541-8.328-4.448 6.671 6.301 23.721 7.108 24.983a31.474 31.474 0 0 1-5.574 1.105s6.139 3.578 8.695 3.578c0 0-9.718 5.628-13.811 5.628 0 0 6.65 3.582 10.742 3.582 0 0-5.114 3.579-7.672 3.067 0 0 4.604 3.581 7.162 2.559 0 0-1.535 2.558-3.581 2.558 0 0 3.069 3.58 5.626 4.603 0 0 2.557 19.95 3.58 21.484 0 0-2.046 3.07-4.603 3.07 0 0 1.534 1.021 3.58 2.046 0 0-1.535 2.046-2.557 2.046 0 0 2.25.92 3.07 1.534 2.045 1.535 2.795 2.23 2.795 2.23.327 5.699 1.608 11.82 3.2 18.155-31.309-5.715-27.05 17.574-17.87 35.855 5.847 11.646 14.675 20.63 14.675 20.63-4.466-1.702-13.509-.548-14.836 4.58-1.229 4.747 7.473 4.483 7.473 4.483h23.273l-.051-.54c1.118 4.703 2.458 7.732 4.262 7.854 5.378.369 5.682-6.606 7.384-25.039 1.584-17.166 1.694-35.805 1.701-38.286h12.205c.007 2.481.116 21.12 1.701 38.286 1.701 18.433 2.006 25.408 7.384 25.039 2.086-.141 3.55-4.167 4.771-10.181l-.264 2.866h23.273s8.701.264 7.473-4.483c-1.327-5.128-10.371-6.282-14.837-4.58 0 0 8.828-8.984 14.675-20.63 9.18-18.281 13.513-41.494-17.796-35.78 1.593-6.335 2.8-12.531 3.126-18.23 0 0 .75-.695 2.795-2.23.818-.614 3.07-1.534 3.07-1.534-1.023 0-2.559-2.046-2.559-2.046a37.402 37.402 0 0 0 3.582-2.046c-2.559 0-4.604-3.07-4.604-3.07 1.022-1.534 3.581-21.484 3.581-21.484 2.557-1.022 5.627-4.603 5.627-4.603-2.047 0-3.582-2.558-3.582-2.558 2.557 1.022 7.162-2.559 7.162-2.559-2.557.512-7.673-3.067-7.673-3.067 4.093 0 10.742-3.582 10.742-3.582-4.092 0-13.812-5.628-13.812-5.628 2.559 0 8.697-3.578 8.697-3.578a31.491 31.491 0 0 1-5.866-1.191c1.143-1.799 11.419-18.35 7.054-24.897-1.023-1.534-10.741-2.047-25.575 8.185l.01.01c-4.079-2.389-9.538-4.355-16.875-5.146v-.002c2.017-4.864-1.025-8.12-1.025-8.12.113 3.754-2.044 4.126-2.044 4.126 3.196-5.649-8.733-11.298-8.733-11.298s.927 4.125-1.562 5.944"/></defs><clipPath id="j"><use xlink:href="#i" overflow="visible"/></clipPath><path clip-path="url(#j)" fill="#7BDF99" d="M120.646 37.016s-2.557 54.733 48.596 44.502c51.151-10.229 3.069-47.571 3.069-47.571s-31.714-17.903-42.457-10.741c-10.742 7.161-9.208 13.81-9.208 13.81"/><path clip-path="url(#j)" fill="#D6E9D4" d="M98.651 36.502S86.374 95.841 56.195 78.961c-30.18-16.88-1.535-54.734-.512-54.222 1.024.512 42.968 11.763 42.968 11.763"/><path clip-path="url(#j)" fill="#7BD999" d="M66.937 101.468s19.438 4.604 16.369 15.346-2.558 19.438 0 25.065c2.558 5.627-9.207 17.903-14.834 13.81-5.627-4.092-13.3-30.181-13.3-30.181 4.092-5.114 11.765-24.04 11.765-24.04"/><path clip-path="url(#j)" fill="#7BDF99" d="M152.873 111.699c-1.023 1.022-25.576-8.698-20.972 17.901 4.603 26.6 13.299 19.438 19.437 26.6 6.138 7.16 3.07 18.415 14.834 19.437 11.765 1.024 18.415-20.972 15.857-29.155-2.557-8.185-29.156-34.783-29.156-34.783"/></g><g clip-path="url(#b)"><defs><path id="k" d="M-14.906 2.232h249.622v249.622H-14.906z"/></defs><clipPath id="l"><use xlink:href="#k" overflow="visible"/></clipPath><path clip-path="url(#l)" fill="#D6E9D4" d="M102.232 152.109c1.703 2.979 1.534 5.113 1.534 12.276 0 4.959-.101 11.573-.416 16.524-.59 9.307-3.023 29.677-3.165 30.534h19.438c-.812 0-3.581-47.038-3.581-51.152 0-7.16 2.441-4.396 3.069-9.207 1.534-11.764-3.069-11.764-8.185-9.719-1.501.601-2.91-2.285-4.092-2.045-5.718 1.149-6.648 9.207-4.602 12.789"/><g opacity=".05" clip-path="url(#l)"><defs><path id="m" d="M63.868 49.293h16.88v17.449h-16.88z"/></defs><clipPath id="n"><use xlink:href="#m" overflow="visible"/></clipPath><path clip-path="url(#n)" d="M72.052 66.684c-2.229 1.205-8.184-16.88-8.184-17.391 0 0 8.696 2.557 16.88 6.138-.084-.035-4.603 3.068-7.242 9.786-.205.524-.506.956-1.454 1.467"/></g><g opacity=".05" clip-path="url(#l)"><defs><path id="o" d="M138.55 49.293h16.88v17.449h-16.88z"/></defs><clipPath id="p"><use xlink:href="#o" overflow="visible"/></clipPath><path clip-path="url(#p)" d="M147.246 66.684c2.23 1.205 8.185-16.88 8.185-17.391 0 0-8.695 2.557-16.88 6.138.083-.035 4.603 3.068 7.241 9.786.207.524.507.956 1.454 1.467"/></g></g><g clip-path="url(#b)"><defs><path id="q" d="M-14.906 2.232h249.622v249.622H-14.906z"/></defs><clipPath id="r"><use xlink:href="#q" overflow="visible"/></clipPath><path clip-path="url(#r)" fill="none" stroke="#000" stroke-width=".511" stroke-linecap="round" stroke-linejoin="round" stroke-miterlimit="10" d="M100.442 48.523C95.127 44.4 98.58 41.56 98.58 41.56c.188 2.451 1.97 2.564 1.97 2.564-1.263-1.897.372-4.685 2.862-6.506 2.49-1.819 1.561-5.944 1.561-5.944s11.929 5.648 8.733 11.298c0 0 2.156-.372 2.043-4.126 0 0 3.042 3.256 1.025 8.12a11.36 11.36 0 0 1-.764 1.505"/><path clip-path="url(#r)" fill="none" stroke="#000" stroke-width=".511" stroke-linecap="round" stroke-miterlimit="10" d="M85.608 52.616c-14.835-10.229-25.064-10.229-26.087-8.695-4.62 6.93 7.16 25.064 7.16 25.064m66.96-16.88c14.834-10.231 24.552-9.719 25.575-8.185 4.619 6.93-7.161 25.064-7.161 25.064"/><path clip-path="url(#r)" fill="none" stroke="#000" stroke-width=".511" stroke-linecap="round" stroke-miterlimit="10" d="M76.401 63.872s-5.628 5.113-15.346 6.138c0 0 6.139 3.578 8.695 3.578 0 0-9.718 5.628-13.811 5.628 0 0 6.65 3.582 10.742 3.582 0 0-5.114 3.579-7.672 3.067 0 0 4.604 3.581 7.162 2.559 0 0-1.535 2.558-3.581 2.558 0 0 3.069 3.58 5.626 4.603 0 0 2.557 19.95 3.58 21.484 0 0-2.046 3.07-4.603 3.07 0 0 1.534 1.021 3.58 2.046 0 0-1.535 2.046-2.557 2.046 0 0 2.25.92 3.07 1.534 2.045 1.535 2.795 2.23 2.795 2.23.327 5.699 1.608 11.82 3.2 18.155-31.309-5.715-27.051 17.574-17.87 35.854 5.847 11.646 14.675 20.631 14.675 20.631-4.466-1.702-13.509-.548-14.836 4.58-1.229 4.747 7.473 4.483 7.473 4.483h23.273m52.686-147.826s5.626 5.113 15.346 6.138c0 0-6.138 3.578-8.697 3.578 0 0 9.72 5.628 13.812 5.628 0 0-6.649 3.582-10.742 3.582 0 0 5.116 3.579 7.673 3.067 0 0-4.604 3.581-7.162 2.559 0 0 1.534 2.558 3.582 2.558 0 0-3.07 3.58-5.627 4.603 0 0-2.559 19.95-3.581 21.484 0 0 2.045 3.07 4.604 3.07 0 0-1.535 1.021-3.582 2.046 0 0 1.535 2.046 2.559 2.046 0 0-2.252.92-3.07 1.534-2.045 1.535-2.795 2.23-2.795 2.23-.327 5.699-1.534 11.896-3.126 18.23 31.309-5.714 26.976 17.499 17.796 35.78-5.847 11.646-14.675 20.63-14.675 20.63 4.467-1.702 13.51-.547 14.836 4.58 1.228 4.747-7.473 4.483-7.473 4.483h-23.273M73.402 65.877c1.149-2.464 5.474-15.202 25.741-18.503m17.632-.405c22.866 2.466 27.557 16.326 28.761 18.908"/><path clip-path="url(#r)" fill="none" stroke="#000" stroke-width=".511" stroke-linecap="round" stroke-miterlimit="10" d="M141.875 146.226c-2.248 8.938-5.41 17.568-7.098 26.764-3.581 19.524-4.819 45.656-10.197 46.024-5.378.369-5.683-6.606-7.383-25.038-1.702-18.434-1.702-38.568-1.702-38.568m-12.203-.001s0 20.135-1.702 38.568c-1.701 18.432-2.005 25.407-7.383 25.038-5.377-.368-6.617-26.5-10.198-46.024-1.661-9.048-4.465-18.253-6.695-27.063"/><path clip-path="url(#r)" fill="none" stroke="#000" stroke-width=".511" stroke-miterlimit="10" d="M100.36 211.699h19.24"/></g><g clip-path="url(#b)"><defs><path id="s" d="M-14.906 2.232h249.622v249.622H-14.906z"/></defs><clipPath id="t"><use xlink:href="#s" overflow="visible"/></clipPath><g opacity=".05" clip-path="url(#t)"><defs><path id="u" d="M22.605 32.185h179.094V274.37H22.605z"/></defs><clipPath id="v"><use xlink:href="#u" overflow="visible"/></clipPath><g clip-path="url(#v)"><defs><path id="w" d="M144.996 203.146s8.828-8.984 14.675-20.629c9.18-18.283 13.513-41.495-17.796-35.781 1.593-6.333 2.8-12.529 3.126-18.23 0 0 .75-.694 2.795-2.229.818-.614 3.07-1.535 3.07-1.535-1.023 0-2.559-2.046-2.559-2.046 2.046-1.025 3.582-2.046 3.582-2.046-2.559 0-4.604-3.07-4.604-3.07 1.022-1.535 3.581-21.483 3.581-21.483 2.557-1.022 5.627-4.604 5.627-4.604-2.047 0-3.582-2.559-3.582-2.559 2.557 1.023 7.162-2.558 7.162-2.558-2.557.512-7.673-3.069-7.673-3.069 4.093 0 10.742-3.58 10.742-3.58-4.092 0-13.812-5.625-13.812-5.625 2.559 0 8.697-3.582 8.697-3.582-5.662-.596-9.931-2.58-12.512-4.132h.02c-1.201-2.574-5.87-16.347-28.537-18.881-.073-.043-.137-.082-.191-.112 1.947-4.818-1.058-8.037-1.058-8.037.113 3.755-2.044 4.126-2.044 4.126 3.196-5.649-8.733-11.3-8.733-11.3s.929 4.126-1.561 5.946c-2.49 1.822-4.125 4.607-2.862 6.505 0 0-1.783-.113-1.97-2.563 0 0-2.779 2.29.499 5.741l-.165.114c-9.995 1.673-16.083 5.648-19.812 9.522a26.213 26.213 0 0 0-4.363 6.061c-.685 1.313-1.086 2.34-1.338 2.878h.165c-2.581 1.552-6.851 3.536-12.512 4.132 0 0 6.139 3.582 8.695 3.582 0 0-9.718 5.625-13.811 5.625 0 0 6.65 3.58 10.742 3.58 0 0-5.114 3.581-7.672 3.069 0 0 4.604 3.581 7.162 2.558 0 0-1.535 2.559-3.581 2.559 0 0 3.069 3.581 5.626 4.604 0 0 2.557 19.948 3.58 21.483 0 0-2.046 3.07-4.603 3.07 0 0 1.534 1.021 3.58 2.046 0 0-1.535 2.046-2.557 2.046 0 0 2.25.921 3.07 1.535 2.045 1.534 2.795 2.229 2.795 2.229.327 5.701 1.608 11.822 3.2 18.156-31.309-5.714-27.051 17.572-17.87 35.855 5.847 11.645 14.675 20.629 14.675 20.629-4.466-1.701-13.509-.547-14.836 4.581-1.229 4.746 7.473 4.484 7.473 4.484h23.273l-.051-.541c1.118 4.703 2.458 7.733 4.262 7.854 5.378.37 5.682-6.605 7.384-25.038 1.587-17.193 1.694-35.864 1.701-38.298l12.204.006c.008 2.458.116 21.112 1.701 38.292 1.701 18.433 2.006 25.408 7.384 25.038 2.086-.143 3.55-4.168 4.771-10.181l-.264 2.867h23.273s8.701.262 7.473-4.484c-1.326-5.126-10.369-6.281-14.836-4.58"/></defs><clipPath id="x"><use xlink:href="#w" overflow="visible"/></clipPath><path clip-path="url(#x)" d="M94.559 43.666s-39.388 16.88-12.788 103.84c0 0-53.197-7.164-3.58 56.266 0 0-25.577-.512-10.742 12.788 14.833 13.3 88.749-.256 88.749-.256s6.138-13.812-15.858-12.277c0 0 51.92-64.705-4.092-54.73 0 0 30.947-77.498-13.299-102.817l29.157-8.185s37.852 79.286 38.875 82.356c1.022 3.066 18.414 140.668 6.649 140.156s-32.738 34.271-100.77-5.626c-68.032-39.9-75.193-23.02-74.17-47.062 1.023-24.041 19.438-134.017 20.461-139.134 1.023-5.113 51.408-25.319 51.408-25.319"/></g></g></g><path clip-path="url(#b)" fill="none" stroke="#393C3D" stroke-width="1.023" stroke-linecap="round" stroke-miterlimit="10" d="M106.507 108.117h6.139"/><g clip-path="url(#b)"><defs><path id="y" d="M-14.906 2.232h249.622v249.622H-14.906z"/></defs><clipPath id="z"><use xlink:href="#y" overflow="visible"/></clipPath><path clip-path="url(#z)" fill="#3C3729" d="M116.545 83.026c.003 1.979-2.746 6.852-7.129 6.859-4.384.009-7.15-4.925-7.154-6.834-.006-3.045 3.19-3.785 7.134-3.792 3.945-.007 7.144.72 7.149 3.767"/></g><g clip-path="url(#b)"><defs><path id="A" d="M-14.906 2.232h249.622v249.622H-14.906z"/></defs><clipPath id="B"><use xlink:href="#A" overflow="visible"/></clipPath><path clip-path="url(#B)" fill="#FFF" d="M88.561 58.499c-6.507 0-11.781 5.275-11.781 11.78 0 6.506 5.274 11.783 11.781 11.783s11.78-5.277 11.78-11.783c-.001-6.505-5.274-11.78-11.78-11.78"/><circle clip-path="url(#B)" fill="none" stroke="#000" stroke-width=".805" stroke-linecap="round" stroke-linejoin="round" cx="88.561" cy="70.281" r="11.782"/><path clip-path="url(#B)" fill="#F7DF5A" d="M100.003 71.544a8.952 8.952 0 1 1-17.905-.003 8.952 8.952 0 0 1 17.905.003"/><path clip-path="url(#B)" fill="#31323C" d="M99.094 71.738a7.872 7.872 0 1 1-15.745.001 7.872 7.872 0 0 1 15.745-.001"/><path clip-path="url(#B)" fill="#FFF" d="M96.161 63.489a3.195 3.195 0 1 1-6.388-.002 3.195 3.195 0 0 1 6.388.002m34.086-4.99c-6.506 0-11.78 5.275-11.78 11.78 0 6.506 5.274 11.783 11.78 11.783 6.507 0 11.781-5.277 11.781-11.783-.001-6.505-5.275-11.78-11.781-11.78"/><circle clip-path="url(#B)" fill="none" stroke="#000" stroke-width=".805" stroke-linecap="round" stroke-linejoin="round" cx="130.247" cy="70.281" r="11.782"/><path clip-path="url(#B)" fill="#F7DF5A" d="M136.833 71.544a8.952 8.952 0 1 1-17.905-.003 8.952 8.952 0 0 1 17.905.003"/><path clip-path="url(#B)" fill="#31323C" d="M135.923 71.738a7.872 7.872 0 1 1-15.744 0 7.871 7.871 0 0 1 7.872-7.87 7.872 7.872 0 0 1 7.872 7.87"/><path clip-path="url(#B)" fill="#FFF" d="M132.991 63.489a3.194 3.194 0 1 1-6.389 0 3.194 3.194 0 0 1 6.389 0"/></g></svg>