<svg xmlns="http://www.w3.org/2000/svg" xmlns:xlink="http://www.w3.org/1999/xlink" width="350" height="350" viewBox="0 0 350 350"><circle fill="#FBEEC0" cx="174.5" cy="178" r="130"/><defs><circle id="a" cx="174.5" cy="178.096" r="130.096"/></defs><clipPath id="b"><use xlink:href="#a" overflow="visible"/></clipPath><g clip-path="url(#b)"><defs><path id="c" d="M1.303 3.233h348.436v485.512H1.303z"/></defs><clipPath id="d"><use xlink:href="#c" overflow="visible"/></clipPath><path clip-path="url(#d)" fill="#CCC" d="M349.743 3.233h348.439v485.512H349.743z"/><path fill="#616C71" d="M123.544 136.564s3.842-58.256 12.937-58.992c9.091-.735 21.331 49.686 21.331 49.686l-34.268 9.306z"/><g opacity=".3"><defs><path id="e" d="M130.6 89.565h19.869v43.388H130.6z"/></defs><clipPath id="f"><use xlink:href="#e" overflow="visible"/></clipPath><path clip-path="url(#f)" fill="#040000" d="M130.6 132.954s5.148-43.145 7.141-43.388c1.996-.245 12.728 36.226 12.728 36.226l-19.869 7.162z"/></g><path fill="#616C71" d="M229.3 136.564s-3.844-58.256-12.937-58.992c-9.091-.735-21.333 49.686-21.333 49.686l34.27 9.306z"/><g opacity=".3"><defs><path id="g" d="M202.376 89.565h19.869v43.388h-19.869z"/></defs><clipPath id="h"><use xlink:href="#g" overflow="visible"/></clipPath><path clip-path="url(#h)" fill="#040000" d="M222.245 132.954s-5.146-43.145-7.14-43.388c-1.999-.245-12.728 36.226-12.728 36.226l19.868 7.162z"/></g><path fill="#616C71" d="M243.426 307.118s33.181-.791 40.289-29.759c7.11-28.97-6.583-59.518-6.583-59.518s42.923 16.851 40.815 52.67c0 0 10.535 1.58-3.157 15.536 0 0 9.218 2.372-2.37 9.481 0 0 13.599 13.868-28.444 25.548-23.699 6.581-42.719.56-42.719.56l2.169-14.518z"/><path fill="none" stroke="#050101" stroke-width=".884" stroke-miterlimit="10" d="M243.426 308.001s33.181-.79 40.289-29.76c7.11-28.969-6.583-59.515-6.583-59.515s42.923 16.852 40.815 52.669c0 0 10.535 1.583-3.157 15.54 0 0 9.218 2.366-2.37 9.48 0 0 13.599 13.864-28.444 25.546-23.699 6.58-42.719.559-42.719.559l2.169-14.519z"/><path fill="#616C71" d="M161.374 402.963c1.768 0 7.076-63.678 6.189-92.86-.775-25.648 0 0 0 0"/><path fill="#263135" d="M272.621 297.284c-.18-.295-.384-.576-.577-.863-12.212 10.306-28.622 10.699-28.622 10.699l-2.165 14.517s14.521 4.595 33.995 1.367c1.832-9.357 1.724-18.668-2.631-25.72"/><path fill="#616C71" d="M237.499 387.084s15.239-15.514 25.336-35.617c16.481-32.837 23.786-75.03-37.696-60.46h-97.433c-61.485-14.57-54.182 27.623-37.695 60.46 10.096 20.104 25.336 35.617 25.336 35.617-7.711-2.938-23.321-.947-25.612 7.904-2.12 8.192 12.901 7.739 12.901 7.739h147.579s15.014.453 12.896-7.739c-2.293-8.851-17.903-10.848-25.612-7.904"/><path fill="#263135" d="M162.8 309.773v-18.761h-35.094a124.42 124.42 0 0 0-8.958-1.802c1.251 5.019 2.625 10.129 4.025 15.336 2.901 10.789 5.903 21.941 7.9 32.835 1.836 10.01 3.313 21.004 4.74 31.633 1.892 14.121 3.493 25.47 5.393 33.713h20.99c.976-5.987 1.702-13.94 2.618-23.975l.486-5.322c2.407-26.074 2.847-54.413 2.929-63.657H162.8zm62.341-18.76h-35.098v18.761h-5.026c.08 9.244.519 37.583 2.928 63.657.17 1.838.331 3.607.485 5.312.915 10.034 1.643 17.996 2.615 23.985h20.994c1.895-8.245 3.5-19.592 5.395-33.713 1.426-10.629 2.9-21.623 4.735-31.633 1.999-10.892 4.998-22.051 7.899-32.835 1.401-5.205 2.775-10.317 4.029-15.336a124.05 124.05 0 0 0-8.956 1.802"/><path fill="#616C71" d="M244.396 251.845s-2.611-12.401-2.286-20.727c.325-8.318 1.696-32.383-2.775-50.579-1.351-5.49 4.241-9.629 4.241-9.629s-6.523-6.691-6.856-11.583c0 0 7.021 1.795 9.797.814 0 0-5.549-4.241-7.836-9.138-2.284-4.895-11.827-33.287-62.259-33.287-50.431 0-59.976 28.392-62.259 33.287-2.284 4.897-7.832 9.138-7.832 9.138 2.773.98 9.791-.814 9.791-.814-.326 4.892-6.851 11.583-6.851 11.583s5.593 4.139 4.241 9.629c-4.475 18.198-3.1 42.266-2.772 50.579.325 8.325-2.283 20.727-2.283 20.727 4.24-2.282 5.382-4.73 5.382-4.73-.162 5.218-2.774 14.361-2.774 14.361 2.774-2.123 4.274-3.241 4.274-3.241 1.355 23.719 12.291 51.671 17.266 78.793 6.183 33.704 8.321 78.812 17.607 79.45 9.283.635 9.807-11.41 12.745-43.228 2.938-31.824 2.938-66.579 2.938-66.579h21.065s0 34.755 2.936 66.579c2.938 31.817 3.466 43.86 12.747 43.228 9.284-.641 11.419-45.749 17.607-79.45 4.973-27.122 15.907-55.074 17.267-78.793 0 0 1.5 1.118 4.274 3.241 0 0-2.614-9.141-2.774-14.361-.007-.001 1.136 2.448 5.379 4.73"/><g opacity=".07"><defs><path id="i" d="M170.789 116.829h75.062v299.245h-75.062z"/></defs><clipPath id="j"><use xlink:href="#i" overflow="visible"/></clipPath><path clip-path="url(#j)" fill="#040000" d="M245.854 159.322s-5.555-4.25-7.843-9.152c-2.289-4.905-11.847-33.341-62.359-33.341-1.664 0-3.284.031-4.861.091 46.262 1.762 55.276 28.508 57.491 33.25 2.288 4.901 7.846 9.152 7.846 9.152-2.778.98-9.808-.818-9.808-.818.328 4.9 6.864 11.601 6.864 11.601s-5.601 4.145-4.25 9.646c4.481 18.228 3.105 42.327 2.779 50.664-.324 8.332 2.291 20.754 2.291 20.754-4.25-2.287-5.396-4.742-5.396-4.742.161 5.231 2.781 14.384 2.781 14.384-2.781-2.129-4.283-3.249-4.283-3.249-1.358 23.758-12.312 51.757-17.292 78.913-5.308 28.939-7.642 66.266-14.054 76.736 1.493 2.131 3.449 3.023 6.149 2.837 9.299-.631 11.443-45.812 17.634-79.573 4.983-27.156 15.936-55.155 17.29-78.913 0 0 1.507 1.122 4.28 3.249 0 0-2.61-9.152-2.773-14.384 0 0 1.139 2.455 5.389 4.742 0 0-2.615-12.419-2.286-20.754.323-8.337 1.704-32.437-2.781-50.664-1.351-5.5 4.248-9.646 4.248-9.646s-6.531-6.701-6.862-11.601c-.001.002 7.028 1.798 9.806.818"/></g><g opacity=".05"><defs><path id="k" d="M106.336 117.316h140.402v299.247H106.336z"/></defs><defs><path id="m" d="M106.336 117.316h140.402v299.247H106.336z"/></defs><defs><path id="o" d="M106.336 117.316h140.402v299.247H106.336z"/></defs><clipPath id="l"><use xlink:href="#k" overflow="visible"/></clipPath><clipPath id="n" clip-path="url(#l)"><use xlink:href="#m" overflow="visible"/></clipPath><clipPath id="p" clip-path="url(#n)"><use xlink:href="#o" overflow="visible"/></clipPath><path clip-path="url(#p)" fill="#040000" d="M245.78 159.022c.021.316.073.644.143.973.298-.047.577-.104.815-.188 0 0-.37-.284-.958-.785m-129.641 0c1.691-1.446 5.19-4.725 6.885-8.367 2.22-4.756 11.285-31.657 57.935-33.264a132.291 132.291 0 0 0-4.422-.077c-50.506 0-60.068 28.437-62.356 33.339-2.286 4.899-7.842 9.151-7.842 9.151 2.777.982 9.804-.82 9.804-.82-.002.014-.004.026-.004.038m25.355 177.946c-4.984-27.161-15.936-55.158-17.292-78.915 0 0-1.502 1.119-4.283 3.243 0 0 2.616-9.147 2.78-14.382 0 0-1.146 2.453-5.395 4.739 0 0 2.614-12.422 2.288-20.756-.327-8.336-1.703-32.437 2.776-50.662 1.355-5.496-4.251-9.645-4.251-9.645s6.539-6.699 6.864-11.601c0 0-5.858 1.497-8.991 1.004-1.024 4.763-6.716 10.597-6.716 10.597s5.601 4.149 4.25 9.645c-4.482 18.226-3.106 42.326-2.778 50.662.327 8.334-2.29 20.756-2.29 20.756 4.25-2.286 5.395-4.739 5.395-4.739-.163 5.231-2.778 14.382-2.778 14.382 2.778-2.124 4.281-3.243 4.281-3.243 1.36 23.757 12.312 51.754 17.295 78.915 6.191 33.755 8.335 78.936 17.632 79.57 2.418.167 4.24-.54 5.669-2.217-6.72-9.536-9.038-47.821-14.456-77.353"/></g><path fill="#263135" d="M136.042 232.869s.176.212.462.579c.137.188.316.408.501.672.188.26.409.543.628.868.457.636.96 1.381 1.495 2.181.531.798 1.096 1.647 1.661 2.493.264.433.572.829.839 1.252.282.407.568.804.829 1.198.278.381.551.747.796 1.106.268.334.518.663.744.977.243.297.465.567.661.813.195.252.388.443.539.614.309.34.485.564.485.564s-.26-.074-.703-.241c-.221-.087-.511-.179-.788-.351-.287-.163-.623-.337-.964-.565a31.986 31.986 0 0 1-1.05-.796 41.532 41.532 0 0 1-1.062-1.011c-.333-.38-.695-.763-1.018-1.183-.319-.418-.651-.841-.939-1.295-.29-.45-.583-.894-.832-1.354a17.132 17.132 0 0 1-.706-1.368 20.414 20.414 0 0 1-.999-2.532 16.903 16.903 0 0 1-.474-1.883c-.083-.468-.105-.738-.105-.738m11.795 6.088s.118.208.296.567c.088.188.208.402.319.652.116.25.264.529.396.832.277.603.599 1.304.947 2.056.081.185.167.371.254.566.093.185.184.378.268.568.171.391.373.767.554 1.153.184.386.395.75.574 1.134.216.348.396.723.601 1.063.215.325.394.677.599.972.213.297.394.602.584.859.199.25.379.494.538.715.163.219.334.38.459.536.264.298.409.5.409.5s-.227-.045-.623-.173c-.19-.072-.455-.129-.704-.271a14.787 14.787 0 0 1-.861-.48c-.298-.199-.595-.454-.916-.717-.317-.27-.594-.602-.902-.931-.29-.346-.552-.725-.821-1.112-.238-.396-.479-.81-.695-1.23-.187-.43-.402-.849-.546-1.287a11.135 11.135 0 0 1-.405-1.287 13.424 13.424 0 0 1-.406-2.351 11.36 11.36 0 0 1-.003-1.689 4.97 4.97 0 0 1 .084-.645m9.64 2.538s.12.169.298.474c.182.302.422.733.689 1.247.264.522.554 1.12.836 1.767.152.313.286.657.434.989.153.33.279.678.433 1.015.137.344.284.674.427 1.006.135.336.277.65.414.968.128.315.282.603.406.895.118.292.273.534.389.788.113.26.255.454.366.66.057.103.112.197.159.288l.161.219c.195.276.313.461.313.461s-.195-.031-.545-.145l-.295-.105c-.101-.043-.196-.107-.307-.172-.217-.132-.494-.262-.718-.476-.229-.203-.517-.419-.738-.681-.23-.276-.492-.554-.698-.873a8.056 8.056 0 0 1-.619-.995 9.424 9.424 0 0 1-.52-1.082 11.936 11.936 0 0 1-.411-1.119c-.128-.369-.214-.742-.299-1.104a12.91 12.91 0 0 1-.283-2.01 9.792 9.792 0 0 1 .025-1.457c.037-.356.083-.558.083-.558m35.764 3.547s.033.143.046.388c.017.232.021.57-.029.955a6.07 6.07 0 0 1-.308 1.267 6.733 6.733 0 0 1-.64 1.342c-.145.212-.277.424-.441.622-.166.201-.328.39-.514.557a3.927 3.927 0 0 1-.569.46c-.191.135-.383.25-.585.335a2.182 2.182 0 0 1-.557.185c-.181.035-.316.062-.46.045-.263-.018-.39-.061-.39-.061l.229-.297c.071-.07.131-.212.209-.321.074-.116.147-.255.225-.41.08-.141.162-.307.251-.48.087-.169.18-.348.278-.53.107-.175.197-.38.312-.563.11-.192.226-.39.344-.578.486-.769 1.054-1.521 1.586-2.054.263-.267.509-.485.697-.63.19-.151.316-.232.316-.232m8.368-4.565s.025.198.011.536c-.004.34-.052.817-.152 1.373a11.464 11.464 0 0 1-.968 2.844c-.152.336-.349.656-.538.986-.195.322-.418.633-.639.932-.226.301-.468.578-.707.845-.255.258-.507.496-.758.713-.266.203-.523.39-.761.556-.254.145-.487.272-.7.377-.209.112-.423.162-.582.22-.326.1-.521.135-.521.135s.106-.185.289-.455c.092-.137.21-.282.323-.479.119-.193.248-.398.396-.61.139-.232.287-.476.451-.722.156-.255.31-.528.489-.795.163-.286.335-.568.516-.853.163-.301.364-.584.534-.886.184-.297.367-.594.547-.881.188-.294.369-.575.55-.86.367-.551.712-1.074 1.035-1.514.643-.883 1.185-1.462 1.185-1.462m4.694 0s.062.159.121.438c.063.28.125.673.147 1.139.052.939-.096 2.174-.514 3.348a8.161 8.161 0 0 1-.794 1.66c-.151.258-.34.489-.512.704-.17.219-.38.399-.56.568-.168.168-.382.298-.55.402-.085.052-.164.105-.241.146-.086.031-.164.063-.232.09-.273.104-.435.132-.435.132s.061-.17.169-.419c.06-.113.113-.266.166-.441.061-.172.136-.345.194-.558.057-.209.142-.405.207-.651.068-.228.147-.471.224-.722l.25-.77c.084-.263.176-.524.268-.791.105-.268.188-.539.299-.796.099-.263.197-.523.31-.774.21-.499.434-.967.646-1.369a10.296 10.296 0 0 1 .837-1.336m14.457-13.06s.026.265.015.723a15.053 15.053 0 0 1-.164 1.874c-.058.378-.131.794-.225 1.227-.104.429-.202.889-.35 1.352a16.41 16.41 0 0 1-.476 1.412c-.173.479-.392.952-.599 1.418-.215.477-.473.931-.721 1.378-.25.45-.551.866-.82 1.273-.291.395-.599.764-.882 1.112a24.62 24.62 0 0 1-.909.902c-.299.266-.603.474-.856.667-.246.2-.514.315-.721.426-.41.22-.649.314-.649.314s.132-.237.396-.605c.125-.184.284-.393.436-.66.154-.261.328-.549.523-.864.172-.328.368-.672.576-1.032.188-.383.396-.765.604-1.168.194-.413.413-.83.622-1.261.197-.441.434-.863.626-1.316.417-.891.838-1.779 1.231-2.614.396-.839.77-1.626 1.114-2.303.166-.341.336-.649.479-.92.139-.281.281-.513.388-.717.223-.395.362-.618.362-.618m17.372-6.342c-.229.98-.502 1.96-.821 2.923a40.14 40.14 0 0 1-1.054 2.854 45.418 45.418 0 0 1-1.256 2.783c-.466.912-.95 1.81-1.471 2.693-.268.432-.533.872-.822 1.296-.282.436-.581.845-.891 1.265-.306.415-.617.828-.949 1.227-.32.4-.67.783-1.014 1.176-.357.377-.706.76-1.094 1.113-.372.363-.777.7-1.172 1.042-.418.323-.821.657-1.258.951-.424.316-.879.586-1.323.863l-.746-1.646c.404-.138.772-.253 1.169-.36a14.32 14.32 0 0 1 1.18-.294c.812-.157 1.628-.294 2.55-.244.471.044.991.1 1.574.465.289.181.571.49.724.852.039.09.074.185.09.271l.025.066.016.093.013.067c.013.061.024.2.029.293-.005.074-.005.161-.013.236-.059.612-.263 1.045-.457 1.452-.199.398-.424.759-.648 1.103a26.433 26.433 0 0 1-1.484 1.906c-.514.606-1.04 1.19-1.573 1.763a86.008 86.008 0 0 1-3.264 3.349l-1.092-1.442c.479-.254.94-.484 1.419-.718.477-.229.954-.455 1.442-.664.978-.418 1.958-.834 3.051-1.103.274-.066.557-.123.864-.161.309-.03.637-.056 1.062.046.213.055.48.173.705.415.221.245.315.57.323.811.017.484-.119.787-.232 1.074-.267.582-.533.978-.804 1.438-.275.46-.563.894-.847 1.329-.285.437-.57.863-.832 1.291-.26.438-.506.845-.666 1.273-.068.211-.12.418-.114.57.009.161.027.227.134.319.109.086.31.15.538.184a6.151 6.151 0 0 0 3.619-.457 7.182 7.182 0 0 0 2.45-1.808 6.006 6.006 0 0 1-.996 1.211 6.78 6.78 0 0 1-1.263.966 6.328 6.328 0 0 1-3.085.92 7.395 7.395 0 0 1-.82-.013c-.283-.024-.606-.065-.936-.253a1.4 1.4 0 0 1-.424-.426 1.49 1.49 0 0 1-.188-.561c-.042-.367.03-.67.104-.958.156-.557.413-1.065.654-1.53.243-.474.501-.928.747-1.381l.743-1.351c.229-.441.51-.93.65-1.306.072-.186.107-.396.091-.428-.008-.021 0 .045.043.102.047.051.071.051.03.047a1.474 1.474 0 0 0-.478.029 5.108 5.108 0 0 0-.657.159c-.902.278-1.841.68-2.748 1.116-.912.435-1.821.918-2.688 1.413l-5.356 3.049 4.256-4.492c1.062-1.118 2.135-2.219 3.155-3.353 1.017-1.127 2.021-2.287 2.843-3.478.202-.292.391-.594.538-.884.146-.278.251-.573.263-.739l.005-.052c-.005 0 .009.044.004.005l-.015-.065v-.025c-.004-.017.02.09.011.045v-.004c0-.005-.007-.005 0-.007-.007.002.017.013-.023-.012-.067-.055-.338-.142-.637-.158-.615-.045-1.348.05-2.054.186-.354.073-.713.148-1.075.238a22.62 22.62 0 0 0-1.052.293l-7.331 2.291 6.59-3.938c.407-.249.831-.474 1.226-.745.407-.256.791-.553 1.182-.837.375-.305.756-.598 1.117-.928.368-.319.719-.657 1.073-.994.341-.353.693-.688 1.013-1.057.336-.363.653-.741.971-1.115.309-.386.624-.764.916-1.163.302-.393.59-.796.885-1.197a49.938 49.938 0 0 0 1.621-2.5c.254-.428.508-.859.76-1.293.244-.432.484-.869.721-1.314a68.01 68.01 0 0 0 1.337-2.691c.415-.917.835-1.835 1.197-2.777m-121.944 0c.229.98.502 1.96.82 2.923a42.082 42.082 0 0 0 2.308 5.637c.458.912.949 1.81 1.47 2.693.27.432.531.872.821 1.296.28.436.589.845.886 1.265.309.415.621.828.955 1.227.319.4.668.783 1.014 1.176.357.377.71.76 1.092 1.113.373.363.779.7 1.172 1.042.413.323.819.657 1.256.951.422.316.879.586 1.326.863l.742-1.646a18.212 18.212 0 0 0-1.166-.36 13.787 13.787 0 0 0-1.182-.294c-.805-.157-1.621-.294-2.553-.244-.462.044-.983.1-1.57.465-.285.181-.57.49-.722.852-.037.09-.072.185-.092.271l-.019.066-.018.093-.009.067c-.012.061-.023.2-.028.293.002.074.002.161.008.236.059.612.262 1.045.453 1.452.203.398.425.759.655 1.103.468.682.973 1.304 1.484 1.906.512.606 1.038 1.19 1.569 1.763a88.219 88.219 0 0 0 3.263 3.349l1.095-1.442a47.382 47.382 0 0 0-1.422-.718 36.152 36.152 0 0 0-1.44-.664c-.977-.418-1.956-.834-3.049-1.103a7.794 7.794 0 0 0-.866-.161c-.309-.03-.634-.056-1.063.046-.212.055-.48.173-.703.415-.223.245-.315.57-.326.811-.013.484.121.787.234 1.074.267.582.537.978.804 1.438.274.46.564.894.845 1.329.286.437.569.863.834 1.291.264.438.507.845.667 1.273.071.211.122.418.117.57-.005.161-.032.227-.134.319-.113.086-.313.15-.536.184a6.174 6.174 0 0 1-3.625-.457 7.21 7.21 0 0 1-2.447-1.808c.271.445.618.848.999 1.211.378.365.798.693 1.26.966.916.556 1.99.888 3.084.92.273.013.57.004.819-.013.287-.024.611-.065.937-.253.164-.104.315-.251.429-.426.103-.182.167-.378.183-.561.043-.367-.027-.67-.103-.958-.158-.557-.414-1.065-.652-1.53-.247-.474-.505-.928-.753-1.381l-.737-1.351c-.23-.441-.515-.93-.653-1.306-.072-.186-.112-.396-.09-.428.006-.021 0 .045-.044.102-.045.051-.074.051-.033.047a1.49 1.49 0 0 1 .482.029c.206.034.431.089.656.159.906.278 1.841.68 2.75 1.116.91.435 1.821.918 2.69 1.413l5.354 3.049-4.258-4.492c-1.06-1.118-2.133-2.219-3.155-3.353-1.018-1.127-2.023-2.287-2.843-3.478a7.739 7.739 0 0 1-.535-.884c-.149-.278-.255-.573-.268-.739l-.002-.052c.004 0-.008.044-.004.005l.013-.07v-.016l.001-.009c.002-.017-.018.09-.008.046v-.005c0-.003.002-.003 0-.006.002.003-.016.012.019-.013.069-.057.339-.141.639-.157.614-.046 1.343.05 2.051.185.357.073.717.149 1.078.239.351.091.723.19 1.055.293l7.331 2.291-6.586-3.938c-.413-.249-.836-.473-1.23-.746-.408-.255-.79-.553-1.182-.836-.373-.306-.76-.599-1.116-.93a27.894 27.894 0 0 1-1.073-.993c-.341-.352-.691-.688-1.017-1.059-.339-.36-.653-.737-.97-1.112-.305-.386-.621-.765-.913-1.164-.303-.394-.591-.795-.88-1.197a44.668 44.668 0 0 1-1.623-2.499 78.311 78.311 0 0 1-.759-1.294 45.645 45.645 0 0 1-.72-1.313 62.41 62.41 0 0 1-1.339-2.692c-.422-.912-.846-1.83-1.204-2.772"/><g opacity=".05"><defs><path id="q" d="M106.336 116.43h140.402v299.248H106.336z"/></defs><defs><path id="s" d="M106.336 116.43h140.402v299.248H106.336z"/></defs><defs><path id="u" d="M106.336 116.43h140.402v299.248H106.336z"/></defs><clipPath id="r"><use xlink:href="#q" overflow="visible"/></clipPath><clipPath id="t" clip-path="url(#r)"><use xlink:href="#s" overflow="visible"/></clipPath><clipPath id="v" clip-path="url(#t)"><use xlink:href="#u" overflow="visible"/></clipPath><path clip-path="url(#v)" fill="#040000" d="M245.78 158.133c.021.319.073.647.143.975.298-.045.577-.106.815-.188 0 0-.37-.278-.958-.787m-129.641 0c1.691-1.447 5.19-4.722 6.885-8.362 2.22-4.757 11.285-31.658 57.935-33.267a132.421 132.421 0 0 0-4.422-.074c-50.506 0-60.068 28.435-62.356 33.341-2.286 4.903-7.842 9.149-7.842 9.149 2.777.981 9.804-.82 9.804-.82l-.004.033m25.355 177.95c-4.984-27.161-15.936-55.162-17.292-78.915 0 0-1.502 1.12-4.283 3.246 0 0 2.616-9.153 2.78-14.383 0 0-1.146 2.455-5.395 4.74 0 0 2.614-12.421 2.288-20.755-.327-8.336-1.703-32.438 2.776-50.662 1.355-5.5-4.251-9.644-4.251-9.644s6.539-6.7 6.864-11.606c0 0-5.858 1.496-8.991 1.003-1.024 4.767-6.716 10.601-6.716 10.601s5.601 4.145 4.25 9.646c-4.482 18.223-3.106 42.326-2.778 50.66.327 8.335-2.29 20.754-2.29 20.754 4.25-2.284 5.395-4.739 5.395-4.739-.163 5.229-2.778 14.381-2.778 14.381a521.781 521.781 0 0 1 4.281-3.246c1.36 23.755 12.312 51.752 17.295 78.917 6.191 33.755 8.335 78.935 17.632 79.572 2.418.161 4.24-.539 5.669-2.22-6.72-9.534-9.038-47.816-14.456-77.35"/></g><defs><path id="w" d="M162.259 287.995h30.749v121.497h-30.749z"/></defs><clipPath id="x"><use xlink:href="#w" overflow="visible"/></clipPath><path clip-path="url(#x)" fill="#616C71" d="M167.563 310.103c-2.651-3.538-9.728-22.107 8.844-22.107 15.03 0 13.265 15.034 8.845 22.107-10.824 17.313 0 0 0 0s.886 70.751 6.186 92.86c3.531 14.695 0 0 0 0h-29.179s7.074-64.56 5.304-92.86"/><path fill="#D55F5A" d="M176.422 229.886c-11.346 0-13.154-16.295-13.032-27.684 5.292-.3 9.397-4.746 13.032-10.844 3.229 5.281 6.81 10.059 13.034 11 .104 11.38-1.741 27.528-13.034 27.528"/><path fill="#323435" d="M191.464 202.991a28.79 28.79 0 0 1-3.055-.17c-11.475-1.266-13.188-14.935-13.204-15.07a1.23 1.23 0 0 1 1.077-1.358 1.229 1.229 0 0 1 1.357 1.076c.057.509 1.521 11.868 11.04 12.915 9.975 1.102 16.581-3.525 18.611-13.029a1.219 1.219 0 0 1 1.445-.939c.665.14 1.089.788.943 1.454-2.072 9.734-8.64 15.121-18.214 15.121"/><path fill="#323435" d="M161.381 202.991c-9.574 0-16.138-5.388-18.22-15.122a1.225 1.225 0 0 1 2.393-.515c2.032 9.504 8.634 14.126 18.612 13.029 9.528-1.049 10.982-12.436 11.039-12.917a1.228 1.228 0 0 1 1.357-1.074 1.232 1.232 0 0 1 1.077 1.358c-.016.134-1.729 13.805-13.208 15.07a28.159 28.159 0 0 1-3.05.171"/><path fill="#323435" d="M190.729 176.149c0 4.81-6.132 14.492-14.308 14.492-8.178 0-14.31-9.683-14.31-14.492 0-4.812 6.131-7.218 14.31-7.218 8.177.001 14.308 2.407 14.308 7.218"/><path fill="#FFF" d="M145.564 134.117c-11.172 0-20.229 9.117-20.229 20.37 0 11.245 9.055 20.367 20.229 20.367s20.23-9.118 20.23-20.367c.002-11.253-9.056-20.37-20.23-20.37"/><ellipse fill="none" stroke="#040000" stroke-width="1.392" stroke-linecap="round" stroke-linejoin="round" cx="145.564" cy="154.483" rx="20.23" ry="20.367"/><path fill="#976630" d="M162.522 161.019c0 5.757-4.668 10.432-10.426 10.432-5.757 0-10.43-4.674-10.43-10.432 0-5.756 4.67-10.426 10.43-10.426s10.426 4.67 10.426 10.426"/><path fill="#31323C" d="M159.728 161.019a7.636 7.636 0 1 1-15.272 0 7.634 7.634 0 0 1 7.639-7.632 7.632 7.632 0 0 1 7.633 7.632"/><path fill="#FFF" d="M159.23 154.155a2.783 2.783 0 0 1-5.566 0 2.778 2.778 0 0 1 2.781-2.78 2.78 2.78 0 0 1 2.785 2.78m45.585-20.038c-11.167 0-20.23 9.117-20.23 20.37 0 11.245 9.062 20.367 20.23 20.367 11.176 0 20.231-9.118 20.231-20.367.001-11.253-9.055-20.37-20.231-20.37"/><ellipse fill="none" stroke="#040000" stroke-width="1.392" stroke-linecap="round" stroke-linejoin="round" cx="204.815" cy="154.483" rx="20.227" ry="20.367"/><path fill="#976630" d="M208.509 148.638c0 5.762-4.669 10.43-10.432 10.43-5.756 0-10.426-4.669-10.426-10.43s4.67-10.427 10.426-10.427c5.763.002 10.432 4.666 10.432 10.427"/><path fill="#31323C" d="M205.715 148.638a7.639 7.639 0 0 1-7.638 7.639c-4.213 0-7.635-3.422-7.635-7.639a7.635 7.635 0 0 1 7.635-7.633 7.634 7.634 0 0 1 7.638 7.633"/><path fill="#FFF" d="M205.217 141.777a2.785 2.785 0 0 1-2.783 2.779 2.776 2.776 0 0 1-2.778-2.779 2.777 2.777 0 0 1 2.778-2.785 2.785 2.785 0 0 1 2.783 2.785"/><path fill="none" d="M1.303 3.233h348.436v485.512H1.303z"/><path fill="none" d="M1.303 3.233h348.436v485.512H1.303z"/></g></svg>