<svg xmlns="http://www.w3.org/2000/svg" xmlns:xlink="http://www.w3.org/1999/xlink" width="350" height="350" viewBox="0 0 350 350"><circle fill="#D4E7ED" cx="174.5" cy="178" r="130"/><defs><circle id="a" cx="175" cy="177.75" r="130.25"/></defs><clipPath id="b"><use xlink:href="#a" overflow="visible"/></clipPath><g clip-path="url(#b)"><defs><path id="c" d="M17.782 7.636h333.993v465.387H17.782z"/></defs><clipPath id="d"><use xlink:href="#c" overflow="visible"/></clipPath><path clip-path="url(#d)" fill="#DCD2BB" d="M351.775 8.484h333.991v465.385H351.775z"/><defs><path id="e" d="M17.782 7.636h333.993v465.387H17.782z"/></defs><clipPath id="f"><use xlink:href="#e" overflow="visible"/></clipPath><path clip-path="url(#f)" fill="#3C3629" d="M330.468 324.374c-13.61-54.146-82.459-27.778-82.459-27.778l1.34 14.276c.956-.546 11.723-2.997 22.67-1.522 10.483 1.414 21.134 6.43 23.49 20.178 2.167 12.627-.106 19.781-4.209 23.675 3.905-.187 7.11.757.408 6.241 0 0 13.71-4.555 2.966 3.481 0 0 14.784 1.635.171 4.729 0 0 14.529 1.161 3.309 4.598 0 0 7.404-.591 6.601 2.901 17.503-5.444 32.659-23.143 25.713-50.779"/><defs><path id="g" d="M248.007 296.596l1.342 14.276c.954-.546 11.721-2.997 22.67-1.522 10.483 1.414 21.134 6.43 23.49 20.178 2.167 12.627-.106 19.781-4.209 23.675 3.905-.187 7.11.757.408 6.239 0 0 13.71-4.555 2.966 3.483 0 0 14.784 1.635.171 4.729 0 0 14.529 1.161 3.309 4.598 0 0 7.402-.591 6.601 2.901 17.504-5.443 32.66-23.143 25.716-50.776-6.896-27.43-27.967-34.2-47.081-34.2-18.619-.001-35.383 6.419-35.383 6.419"/></defs><clipPath id="h"><use xlink:href="#g" overflow="visible"/></clipPath><g opacity=".55" clip-path="url(#h)"><defs><path id="i" d="M258.65 270.536h87.927v120.862H258.65z"/></defs><clipPath id="j"><use xlink:href="#i" overflow="visible"/></clipPath><path clip-path="url(#j)" fill="#3C3629" d="M272.684 311.886s4.411-8.817.734-18.37c0 0 65.449-6.934 52.897 55.832-2.938 14.695-22.391 25.46-38.2 23.511-13.901-1.709-24.685-11.243-25.714-19.835 0 0-7.347 4.407-1.472 14.693 5.878 10.285 29.387 29.385 45.549 22.038 16.165-7.345 32.327-17.631 36.733-35.263 4.407-17.629 7.345-58.771-10.286-70.524-17.631-11.755-48.484-16.164-54.362-11.755-5.88 4.408-13.978 9.049-14.337 14.075-.356 5.024-.356 22.657 1.112 24.127 1.47 1.471 7.346 1.471 7.346 1.471"/></g><defs><path id="k" d="M17.782 7.636h333.993v465.387H17.782z"/></defs><clipPath id="l"><use xlink:href="#k" overflow="visible"/></clipPath><path clip-path="url(#l)" fill="#F8F4EB" d="M298.153 372.251c11.221-3.437-3.309-4.598-3.309-4.598 14.613-3.094-.171-4.729-.171-4.729 10.744-8.036-2.966-3.481-2.966-3.481 6.702-5.484 3.497-6.428-.408-6.241-8.781 8.329-25.944 1.703-25.944 1.703 3.655 19.403 22.608 25.466 39.398 20.247.805-3.492-6.6-2.901-6.6-2.901"/><defs><path id="m" d="M291.3 353.202c-8.781 8.329-25.944 1.703-25.944 1.703 3.66 19.403 22.608 25.466 39.398 20.247.802-3.492-6.601-2.901-6.601-2.901 11.221-3.437-3.309-4.598-3.309-4.598 14.613-3.094-.171-4.729-.171-4.729 10.744-8.038-2.966-3.483-2.966-3.483 6.208-5.082 3.916-6.262.44-6.262a18.97 18.97 0 0 0-.847.023"/></defs><clipPath id="n"><use xlink:href="#m" overflow="visible"/></clipPath><g opacity=".45" clip-path="url(#n)"><defs><path id="o" d="M258.343 352.353H311.9v37.758h-53.557z"/></defs><clipPath id="p"><use xlink:href="#o" overflow="visible"/></clipPath><path clip-path="url(#p)" fill="#F8F4EB" d="M309.419 367.717s-7.349 8.815-22.04 4.407c-14.695-4.407-18.368-12.488-24.243-18.364-5.876-5.879-6.61 8.079-.734 15.426 5.875 7.347 24.978 23.51 32.324 20.569 7.345-2.938 13.225-2.938 16.162-7.345 2.937-4.408-1.469-14.693-1.469-14.693"/></g><defs><path id="q" d="M17.782 7.636h333.993v465.387H17.782z"/></defs><clipPath id="r"><use xlink:href="#q" overflow="visible"/></clipPath><g clip-path="url(#r)"><text transform="translate(18.146 -12.305)" fill="#F8F7F3" font-family="'MStiffHeiPRC-Bold'" font-size="93.065">导图</text></g><defs><path id="s" d="M17.782 7.636h333.993v465.387H17.782z"/></defs><clipPath id="t"><use xlink:href="#s" overflow="visible"/></clipPath><path clip-path="url(#t)" fill="none" stroke="#050000" stroke-width=".848" stroke-miterlimit="10" d="M330.468 324.374c-13.61-54.146-82.459-27.778-82.459-27.778l1.34 14.278c.956-.548 11.723-2.999 22.67-1.524 10.483 1.416 21.134 6.43 23.49 20.178 2.167 12.627-.106 19.781-4.209 23.675-8.781 8.329-25.944 1.703-25.944 1.703 3.66 19.403 22.608 25.466 39.398 20.247 17.504-5.444 32.66-23.143 25.714-50.779z"/><defs><path id="u" d="M17.782 7.636h333.993v465.387H17.782z"/></defs><clipPath id="v"><use xlink:href="#u" overflow="visible"/></clipPath><path clip-path="url(#v)" fill="#F8F4EB" d="M125.662 134.618s3.69-55.926 12.42-56.631 20.477 47.701 20.477 47.701l-32.897 8.93z"/><path clip-path="url(#v)" fill="#979089" d="M132.434 131.155s4.942-41.417 6.856-41.655c1.917-.236 12.222 34.78 12.222 34.78l-19.078 6.875z"/><path clip-path="url(#v)" fill="#F8F4EB" d="M227.189 134.618s-3.69-55.926-12.418-56.631c-8.731-.706-20.479 47.701-20.479 47.701l32.897 8.93z"/><path clip-path="url(#v)" fill="#979089" d="M220.418 131.155s-4.94-41.417-6.856-41.655c-1.916-.236-12.22 34.78-12.22 34.78l19.076 6.875z"/><path clip-path="url(#v)" fill="none" stroke="#040000" stroke-width="1.695" stroke-miterlimit="10" d="M125.662 134.618s3.69-55.926 12.42-56.631 20.477 47.701 20.477 47.701l-32.897 8.93zm101.527 0s-3.69-55.926-12.418-56.631c-8.731-.706-20.479 47.701-20.479 47.701l32.897 8.93z"/><path fill="#C5BFB8" d="M163.35 300.905v-18.013h-33.693a122.04 122.04 0 0 0-8.598-1.731c1.202 4.817 2.521 9.727 3.864 14.725 2.786 10.356 5.665 21.065 7.585 31.522 1.763 9.607 3.178 20.162 4.546 30.369 1.82 13.561 3.354 24.446 5.179 32.365h20.154c.936-5.748 1.633-13.384 2.512-23.015.149-1.641.306-3.344.468-5.11 2.31-25.035 2.732-52.241 2.811-61.112h-4.828zm59.845-18.012h-33.69v18.013h-4.83c.078 8.871.501 36.077 2.812 61.112l.463 5.097c.883 9.638 1.58 17.278 2.518 23.028h20.152c1.822-7.919 3.36-18.805 5.179-32.365 1.368-10.207 2.783-20.764 4.546-30.369 1.918-10.457 4.799-21.166 7.585-31.522 1.344-4.998 2.665-9.907 3.867-14.725a121.9 121.9 0 0 0-8.602 1.731"/><g opacity=".07"><defs><path id="w" d="M172.612 117.37h71.952v286.845h-71.952z"/></defs><clipPath id="x"><use xlink:href="#w" overflow="visible"/></clipPath><path clip-path="url(#x)" fill="#040000" d="M244.564 158.102s-5.326-4.072-7.517-8.772c-2.195-4.7-11.361-31.959-59.774-31.959-1.597 0-3.147.033-4.661.092 44.343 1.685 52.987 27.325 55.109 31.867 2.192 4.7 7.519 8.772 7.519 8.772-2.665.939-9.398-.784-9.398-.784.313 4.7 6.577 11.122 6.577 11.122s-5.368 3.972-4.07 9.245c4.292 17.471 2.976 40.573 2.663 48.563-.315 7.989 2.191 19.894 2.191 19.894-4.072-2.192-5.17-4.542-5.17-4.542.156 5.017 2.663 13.785 2.663 13.785a444.806 444.806 0 0 0-4.104-3.11c-1.301 22.771-11.801 49.608-16.572 75.642-5.088 27.736-7.328 63.517-13.477 73.555 1.434 2.039 3.309 2.896 5.897 2.72 8.912-.609 10.964-43.918 16.901-76.274 4.776-26.033 15.273-52.871 16.576-75.642 0 0 1.44 1.073 4.104 3.11 0 0-2.507-8.769-2.663-13.785 0 0 1.096 2.35 5.17 4.542 0 0-2.507-11.904-2.195-19.894.314-7.989 1.634-31.092-2.663-48.563-1.296-5.273 4.075-9.245 4.075-9.245s-6.266-6.421-6.582-11.122c.001-.001 6.738 1.723 9.401.783"/></g><g opacity=".1"><defs><path id="y" d="M109.137 116.144h134.578v286.84H109.137z"/></defs><clipPath id="z"><use xlink:href="#y" overflow="visible"/></clipPath><path clip-path="url(#z)" fill="#A4A4A4" d="M242.8 156.116c.021.308.07.62.138.938a4.39 4.39 0 0 0 .777-.183s-.353-.273-.915-.755m-124.268 0c1.619-1.385 4.972-4.528 6.601-8.018 2.127-4.559 10.817-30.345 55.533-31.881a124.37 124.37 0 0 0-4.238-.072c-48.417 0-57.579 27.253-59.771 31.953-2.195 4.7-7.521 8.772-7.521 8.772 2.663.944 9.4-.782 9.4-.782.001.012-.004.022-.004.028"/><path clip-path="url(#z)" fill="#F8F4EB" d="M142.836 326.688c-4.776-26.032-15.276-52.871-16.577-75.646 0 0-1.44 1.075-4.104 3.112 0 0 2.508-8.772 2.663-13.784 0 0-1.096 2.349-5.17 4.544 0 0 2.507-11.909 2.195-19.896-.313-7.989-1.633-31.094 2.663-48.565 1.297-5.27-4.074-9.24-4.074-9.24s6.268-6.426 6.581-11.124c0 0-5.619 1.43-8.62.964-.985 4.565-6.438 10.16-6.438 10.16s5.371 3.97 4.072 9.24c-4.294 17.472-2.975 40.576-2.66 48.565.312 7.986-2.195 19.896-2.195 19.896 4.074-2.195 5.17-4.544 5.17-4.544-.156 5.012-2.663 13.784-2.663 13.784 2.663-2.037 4.104-3.112 4.104-3.112 1.303 22.774 11.8 49.613 16.576 75.646 5.934 32.355 7.986 75.662 16.9 76.273 2.318.158 4.066-.517 5.438-2.125-6.447-9.143-8.671-45.837-13.861-74.148"/></g><path fill="#F8F4EB" d="M235.911 374.929s14.628-14.893 24.319-34.194c15.212-30.293 22.27-68.887-29.616-59.417 2.638-10.496 4.764-20.643 5.305-30.089 0 0 1.438 1.077 4.104 3.112 0 0-2.507-8.771-2.665-13.784 0 0 1.098 2.352 5.172 4.542 0 0-2.507-11.905-2.195-19.894.314-7.991 1.634-31.092-2.663-48.565-1.296-5.27 4.075-9.242 4.075-9.242s-6.266-6.424-6.582-11.122c0 0 6.737 1.723 9.4.784 0 0-5.326-4.072-7.517-8.772-2.195-4.7-11.361-31.959-59.774-31.959s-57.577 27.259-59.771 31.959c-2.195 4.7-7.52 8.772-7.52 8.772 2.663.939 9.4-.784 9.4-.784-.313 4.698-6.579 11.122-6.579 11.122s5.367 3.972 4.07 9.242c-4.294 17.474-2.975 40.574-2.663 48.565.316 7.988-2.191 19.894-2.191 19.894 4.073-2.19 5.17-4.542 5.17-4.542-.155 5.014-2.662 13.784-2.662 13.784 2.662-2.035 4.101-3.112 4.101-3.112.54 9.446 2.665 19.593 5.304 30.089-51.887-9.47-44.827 29.124-29.615 59.417 9.689 19.302 24.322 34.194 24.322 34.194-7.402-2.821-22.389-.909-24.59 7.588-2.035 7.868 12.385 7.432 12.385 7.432h38.567c1.863 7.898 4.091 12.994 7.104 13.199 5.291.361 7.617-3.562 9.224-13.199h31.883c1.61 9.638 3.939 13.561 9.228 13.199 3.017-.205 5.242-5.301 7.104-13.199h38.568s14.418.437 12.383-7.432c-2.198-8.497-17.184-10.41-24.585-7.588"/><path fill="none" d="M17.782 7.636h333.993v465.387H17.782z"/><defs><path id="A" d="M176.437 112.477c-9.776.019-19.067 1.744-27.487 4.828a74.391 74.391 0 0 0-4.181 1.682 73.353 73.353 0 0 0-7.005 3.49c-6.605 3.769-12.379 8.477-17.068 13.883a56.393 56.393 0 0 0-6.983 10.047 51.796 51.796 0 0 0-2.696 5.779c-2.248 5.715-3.479 11.823-3.469 18.17.01 5.667 2.435 14.17 6.811 23.429.072.039.136.084.207.123l.013-.067a22.448 22.448 0 0 0 2.107-1.047c.224-.125.433-.276.654-.41.449-.269.898-.535 1.327-.831.248-.174.484-.367.729-.548.384-.285.775-.568 1.146-.874.24-.198.472-.418.708-.625.359-.314.722-.622 1.066-.956.23-.218.447-.449.669-.673.345-.345.689-.686 1.02-1.043.214-.231.419-.472.628-.707.33-.374.665-.743.984-1.129.191-.233.38-.47.566-.703.335-.413.667-.821.991-1.246.16-.209.313-.42.472-.63.349-.465.697-.933 1.038-1.409.119-.164.234-.332.354-.498.385-.546.769-1.092 1.148-1.647.037-.054.074-.111.11-.162 2.592-3.812 5.019-7.755 7.583-11.273.045-.064.093-.127.138-.189.396-.538.798-1.063 1.2-1.582l.237-.302c.382-.48.768-.95 1.161-1.409l.304-.351c.38-.431.764-.849 1.153-1.253.119-.123.238-.242.359-.363.384-.388.77-.755 1.163-1.112l.404-.353c.394-.338.792-.663 1.195-.968.145-.109.292-.215.441-.32a18.82 18.82 0 0 1 1.237-.823c.158-.097.32-.183.48-.275.422-.242.853-.466 1.292-.667.168-.078.345-.147.517-.219.443-.185.895-.359 1.358-.501.181-.055.365-.103.55-.151.472-.127.948-.242 1.437-.327.192-.033.39-.053.587-.078.5-.066 1.005-.119 1.526-.138.2-.006.41.004.611.004.537.002 1.074.014 1.635.065.207.021.425.06.634.086.574.076 1.155.162 1.756.289.214.049.436.115.652.168.62.154 1.244.32 1.895.533.213.07.437.166.649.246.678.238 1.358.495 2.064.802.201.088.416.205.621.297.741.345 1.488.7 2.268 1.12.181.097.373.218.558.32.821.458 1.653.934 2.52 1.481.127.08.267.181.394.263.94.603 1.894 1.237 2.885 1.949-1.649-17.287-2.175-34.175 3.217-34.249v.01c5.423-.008 4.959 16.919 3.369 34.243a64.596 64.596 0 0 1 2.876-1.959c.127-.084.265-.183.394-.263a51.28 51.28 0 0 1 2.514-1.49c.183-.103.375-.226.556-.324a37.714 37.714 0 0 1 2.265-1.125c.203-.096.417-.211.62-.299a29.162 29.162 0 0 1 2.058-.813c.218-.082.441-.177.652-.249.65-.217 1.272-.383 1.892-.537.216-.056.439-.125.652-.175.602-.131 1.18-.217 1.754-.293.212-.031.427-.07.634-.088a17.177 17.177 0 0 1 1.632-.074c.205 0 .414-.01.617-.006.519.017 1.025.07 1.526.131.192.027.392.043.585.076.49.08.968.195 1.436.32.185.051.374.094.552.15.466.144.917.312 1.36.496.173.072.349.14.518.22.44.197.874.423 1.296.661.158.09.322.176.477.271.427.256.839.531 1.245.818.149.106.297.211.441.32a24.27 24.27 0 0 1 1.603 1.319 28.642 28.642 0 0 1 1.528 1.469c.393.402.778.819 1.157 1.25l.306.349c.395.458.784.923 1.166 1.403.082.101.159.201.237.3.406.515.809 1.04 1.207 1.58l.139.187c2.575 3.513 5.019 7.445 7.622 11.245.039.056.076.109.112.164a154.718 154.718 0 0 0 1.508 2.143 98.3 98.3 0 0 0 1.044 1.405c.158.207.315.42.474.627.328.421.659.831.997 1.241.187.234.376.47.568.7.32.384.656.753.987 1.126.211.234.416.479.63.706.336.354.681.695 1.021 1.038.228.224.447.455.675.671.347.332.71.642 1.07.952.236.207.468.424.708.619.376.308.768.587 1.153.874.244.179.478.371.73.544.429.295.878.562 1.327.828.22.132.433.283.658.406.682.378 1.383.729 2.109 1.038l.011.068c.075-.039.137-.082.211-.119 4.341-9.277 6.735-17.789 6.725-23.456-.012-6.352-1.264-12.453-3.536-18.161a51.593 51.593 0 0 0-2.717-5.767 56.261 56.261 0 0 0-7.017-10.02c-4.71-5.394-10.502-10.08-17.12-13.822a72.518 72.518 0 0 0-7.019-3.467 73.154 73.154 0 0 0-4.185-1.664c-8.433-3.057-17.73-4.751-27.504-4.733-.172 0-.341.01-.513.012v-.017c-.172-.002-.345-.01-.517-.01-.005.005-.011.005-.016.005"/></defs><clipPath id="B"><use xlink:href="#A" overflow="visible"/></clipPath><path clip-path="url(#B)" fill="#3C3629" d="M166.954 297.929s0 33.369-2.819 63.917c-2.82 30.546-3.325 42.108-12.235 41.497-8.914-.611-10.968-43.92-16.903-76.275-4.775-26.032-15.273-52.869-16.574-75.644 0 0-1.44 1.075-4.104 3.114 0 0 2.505-8.772 2.663-13.786 0 0-1.1 2.349-5.17 4.542 0 0 2.507-11.905 2.193-19.896-.313-7.988-1.635-31.091 2.663-48.563 1.296-5.271-4.072-9.24-4.072-9.24s6.266-6.425 6.577-11.124c0 0-6.735 1.725-9.4.784 0 0 5.33-4.075 7.521-8.774 2.192-4.7 11.357-31.956 59.772-31.956 48.414 0 57.577 27.255 59.768 31.956 2.195 4.7 7.521 8.774 7.521 8.774-2.663.941-9.398-.784-9.398-.784.312 4.698 6.579 11.124 6.579 11.124s-5.371 3.97-4.074 9.24c4.296 17.472 2.979 40.574 2.663 48.563-.313 7.991 2.193 19.896 2.193 19.896-4.07-2.193-5.168-4.542-5.168-4.542.156 5.014 2.661 13.786 2.661 13.786-2.661-2.039-4.104-3.114-4.104-3.114-1.299 22.774-11.799 49.611-16.574 75.644-5.934 32.355-7.989 75.664-16.901 76.275s-9.414-10.951-12.235-41.497c-2.819-30.548-2.819-63.917-2.819-63.917"/><defs><path id="C" d="M17.782 7.636h333.993v465.387H17.782z"/></defs><clipPath id="D"><use xlink:href="#C" overflow="visible"/></clipPath><path clip-path="url(#D)" fill="#3C3629" d="M221.23 317.045c.032-3.687.345-6.557-.979-7.681-4.794-4.085-18.207-9.474-21.777-17.481-3.364-7.544-2.65-14.855 2.005-20.577 3.74-4.607 13.313-10.742 34.316-7.665-3.394 14.41-3.394 19.496-8.479 36.45-1.635 5.447-3.252 11.992-5.086 16.954m-88.16 0c-.078-3.687-1.631-6.456-.32-7.601 4.745-4.138 18.091-9.693 21.562-17.744 3.271-7.585 2.467-14.886-2.256-20.553-3.8-4.557-10.738-10.838-31.701-7.507 1.694 13.563 5.084 27.126 8.477 36.45 1.981 5.459 2.343 12.015 4.238 16.955"/><path clip-path="url(#D)" fill="none" stroke="#040000" stroke-width=".848" stroke-miterlimit="10" d="M209.544 390.372h38.567s14.421.436 12.386-7.431c-2.199-8.497-17.186-10.413-24.586-7.591 0 0 14.628-14.89 24.319-34.191 15.212-30.299 22.27-68.89-29.616-59.415 2.638-10.498 4.764-20.643 5.305-30.089 0 0 1.44 1.073 4.104 3.11 0 0-2.507-8.772-2.663-13.786 0 0 1.096 2.351 5.17 4.544 0 0-2.507-11.907-2.195-19.894.314-7.991 1.634-31.094-2.663-48.565-1.296-5.27 4.075-9.242 4.075-9.242s-6.266-6.421-6.582-11.122c0 0 6.737 1.724 9.4.784 0 0-5.326-4.074-7.517-8.774-2.195-4.698-11.361-31.957-59.774-31.957s-57.577 27.259-59.771 31.957c-2.195 4.7-7.52 8.774-7.52 8.774 2.663.94 9.4-.784 9.4-.784-.313 4.7-6.579 11.122-6.579 11.122s5.367 3.972 4.07 9.242c-4.296 17.472-2.975 40.574-2.663 48.565.316 7.986-2.191 19.894-2.191 19.894 4.07-2.193 5.168-4.544 5.168-4.544-.153 5.014-2.66 13.786-2.66 13.786a426.63 426.63 0 0 1 4.101-3.11c.54 9.446 2.665 19.591 5.304 30.089-51.889-9.475-44.827 29.116-29.615 59.415 9.689 19.302 24.322 34.191 24.322 34.191-7.402-2.822-22.389-.906-24.59 7.591-2.035 7.866 12.385 7.431 12.385 7.431h38.567m16.328 0h31.884"/><path clip-path="url(#D)" fill="none" stroke="#040000" stroke-width=".848" stroke-miterlimit="10" d="M230.979 281.865c-3.726 14.816-8.966 29.115-11.762 44.354-5.936 32.357-7.987 75.664-16.903 76.275-8.91.611-9.414-10.949-12.233-41.497-2.821-30.548-2.821-63.916-2.821-63.916m-20.222.001s0 33.368-2.821 63.916c-2.818 30.548-3.323 42.106-12.235 41.497-8.912-.611-10.968-43.918-16.9-76.275-2.752-14.992-7.398-30.252-11.098-44.847"/><defs><path id="E" d="M117.503 149.135c-2.193 4.7-7.52 8.771-7.52 8.771 2.663.944 9.398-.782 9.398-.782-.312 4.7-6.577 11.124-6.577 11.124s5.367 3.97 4.07 9.24c-4.296 17.472-2.975 40.572-2.663 48.564.314 7.989-2.191 19.895-2.191 19.895 4.07-2.191 5.168-4.542 5.168-4.542-.153 5.012-2.662 13.784-2.662 13.784 2.662-2.035 4.104-3.11 4.104-3.11.538 9.447 2.661 19.593 5.302 30.089-51.889-9.471-44.827 29.122-29.615 59.417 9.689 19.299 24.322 34.191 24.322 34.191-7.402-2.82-22.389-.908-24.586 7.589-2.039 7.868 12.381 7.431 12.381 7.431h38.567c1.86 7.898 4.091 12.995 7.104 13.2 5.291.361 7.617-3.563 9.224-13.2h31.883c1.61 9.637 3.937 13.562 9.228 13.2 3.017-.205 5.244-5.302 7.103-13.2h38.57s14.418.438 12.383-7.431c-2.199-8.497-17.186-10.409-24.586-7.589 0 0 14.628-14.893 24.319-34.191 15.212-30.295 22.27-68.888-29.612-59.417 2.634-10.496 4.76-20.642 5.301-30.089 0 0 1.44 1.075 4.104 3.11 0 0-2.507-8.772-2.663-13.784 0 0 1.096 2.351 5.17 4.542 0 0-2.507-11.905-2.195-19.895.314-7.992 1.634-31.093-2.663-48.564-1.296-5.271 4.075-9.24 4.075-9.24s-6.266-6.423-6.58-11.124c0 0 6.735 1.726 9.398.782 0 0-5.326-4.07-7.517-8.771-2.195-4.7-11.361-31.958-59.774-31.958s-57.575 27.258-59.77 31.958"/></defs><clipPath id="F"><use xlink:href="#E" overflow="visible"/></clipPath><g opacity=".05" clip-path="url(#F)"><defs><path id="G" d="M57.199 99.559h222.946v337.223H57.199z"/></defs><clipPath id="H"><use xlink:href="#G" overflow="visible"/></clipPath><path clip-path="url(#H)" fill="#040000" d="M159.347 108.512s-61.879 33.059-30.516 178.864c0 0-82.651-18.225-4.238 90.703 0 0-41.236 4.118-21.192 18.649 55.523 40.266 153.01-2.119 153.01-2.119s11.866-16.105-27.13-16.105c0 0 77.144-103.419-5.084-89.856 0 0 33.908-144.956-25.431-175.473-13.84-7.119 40.688-5.084 40.688-5.084l40.69 244.982-11.019 61.881s-188.19 33.063-191.582 17.802c-3.391-15.258-20.346-81.378-20.346-81.378S75.85 202.18 75.002 194.553c-.849-7.628 16.105-94.094 17.801-94.941 1.694-.847 66.544 8.9 66.544 8.9"/></g><defs><path id="I" d="M17.782 7.636h333.993v465.387H17.782z"/></defs><clipPath id="J"><use xlink:href="#I" overflow="visible"/></clipPath><g clip-path="url(#J)"><defs><path id="K" d="M130.342 163.559h92.168v70.014h-92.168z"/></defs><clipPath id="L"><use xlink:href="#K" overflow="visible"/></clipPath><path clip-path="url(#L)" fill="#C4C4C3" d="M211.193 182.307c-7.539.58-10.771 4.145-13.257-7.353-2.486-11.495-21.511-11.392-21.511-11.392s-19.024-.103-21.511 11.392c-2.486 11.498-5.716 7.933-13.257 7.353-4.038-.31-13.463 1.522-10.874 18.3 2.864 18.544 21.495 10.908 25.301 18.466 3.803 7.561 11.673 14.501 20.341 14.501s16.538-6.94 20.344-14.501c3.804-7.558 22.438.078 25.298-18.466 2.589-16.778-6.836-18.61-10.874-18.3"/></g><path clip-path="url(#J)" fill="#C4C4C3" d="M211.193 178.915c-7.539.581-10.771 4.145-13.257-7.351-2.486-11.499-21.511-11.395-21.511-11.395s-19.024-.104-21.511 11.395c-2.486 11.495-5.716 7.932-13.257 7.351-4.038-.31-13.463 1.522-10.874 18.3 2.864 18.547 21.495 10.908 25.301 18.467 3.803 7.56 11.673 14.498 20.341 14.498s16.538-6.938 20.344-14.498c3.804-7.559 22.438.08 25.298-18.467 2.589-16.777-6.836-18.61-10.874-18.3"/><path clip-path="url(#J)" fill="#AE4323" d="M176.428 224.208c-10.894 0-12.629-15.638-12.513-26.578 5.082-.285 9.023-4.553 12.513-10.408 3.098 5.074 6.534 9.655 12.511 10.558.098 10.934-1.67 26.428-12.511 26.428"/><path clip-path="url(#J)" fill="#393C3D" d="M190.867 198.393c-.948 0-1.925-.055-2.935-.166-11.017-1.215-12.657-14.332-12.674-14.466a1.177 1.177 0 0 1 1.034-1.303 1.169 1.169 0 0 1 1.3 1.032c.058.48 1.459 11.393 10.599 12.401 9.57 1.059 15.916-3.387 17.869-12.512a1.176 1.176 0 0 1 1.396-.903c.632.134 1.036.762.902 1.396-1.998 9.347-8.302 14.521-17.491 14.521"/><path clip-path="url(#J)" fill="#393C3D" d="M161.984 198.393c-9.187 0-15.493-5.174-17.489-14.521a1.176 1.176 0 0 1 2.298-.493c1.949 9.125 8.299 13.566 17.867 12.512 9.147-1.009 10.545-11.938 10.599-12.403a1.173 1.173 0 0 1 1.305-1.028 1.172 1.172 0 0 1 1.029 1.301c-.016.134-1.657 13.251-12.674 14.466-1.01.111-1.986.166-2.935.166"/><path clip-path="url(#J)" fill="#393C3D" d="M190.163 172.621c0 4.62-5.886 13.916-13.737 13.916s-13.739-9.296-13.739-13.916c0-4.618 5.888-6.926 13.739-6.926s13.737 2.308 13.737 6.926"/><defs><path id="M" d="M162.687 172.621c0 4.62 5.888 13.916 13.741 13.916 7.85 0 13.735-9.296 13.735-13.916 0-4.616-5.886-6.926-13.735-6.926-7.854 0-13.741 2.31-13.741 6.926"/></defs><clipPath id="N"><use xlink:href="#M" overflow="visible"/></clipPath><g opacity=".55" clip-path="url(#N)"><defs><path id="O" d="M158.817 166.357h34.281v25.922h-34.281z"/></defs><clipPath id="P"><use xlink:href="#O" overflow="visible"/></clipPath><path clip-path="url(#P)" fill="#1B1C1E" d="M161.755 170.098c0 4.423 3.267 8.461 6.5 11.15 4.958 4.121 10.754 4.113 16.199.82 4.784-2.893 6.688-8.03 6.688-13.439 0-10.287 4.407 17.631 0 19.1-4.411 1.469-22.04 7.349-24.979 2.938-2.938-4.407-7.345-11.756-7.345-11.756l2.937-8.813z"/></g><defs><path id="Q" d="M17.782 7.636h333.993v465.387H17.782z"/></defs><clipPath id="R"><use xlink:href="#Q" overflow="visible"/></clipPath><path clip-path="url(#R)" fill="#FFF" d="M141.231 136.487c-10.779 0-19.521 8.74-19.521 19.523 0 10.781 8.741 19.522 19.521 19.522 10.783 0 19.522-8.742 19.522-19.522.001-10.783-8.738-19.523-19.522-19.523"/><circle clip-path="url(#R)" fill="none" stroke="#040000" stroke-width="1.334" stroke-linecap="round" stroke-linejoin="round" cx="141.231" cy="156.01" r="19.523"/><path clip-path="url(#R)" fill="#96662F" d="M151.553 156.342c0 5.519-4.475 9.993-9.997 9.993-5.52 0-9.995-4.475-9.995-9.993 0-5.523 4.476-9.999 9.995-9.999 5.522 0 9.997 4.476 9.997 9.999"/><path clip-path="url(#R)" fill="#30313C" d="M148.875 156.342a7.317 7.317 0 0 1-7.317 7.318 7.319 7.319 0 1 1 7.317-7.318"/><path clip-path="url(#R)" fill="#FFF" d="M148.396 149.758a2.67 2.67 0 0 1-2.667 2.671 2.67 2.67 0 1 1 0-5.34 2.67 2.67 0 0 1 2.667 2.669m61.919-13.271c-10.78 0-19.522 8.74-19.522 19.523 0 10.781 8.742 19.522 19.522 19.522 10.783 0 19.523-8.742 19.523-19.522.001-10.783-8.739-19.523-19.523-19.523"/><circle clip-path="url(#R)" fill="none" stroke="#040000" stroke-width="1.334" stroke-linecap="round" stroke-linejoin="round" cx="210.315" cy="156.01" r="19.523"/><path clip-path="url(#R)" fill="#96662F" d="M220.635 156.342c0 5.519-4.477 9.993-9.997 9.993-5.519 0-9.993-4.475-9.993-9.993 0-5.523 4.475-9.999 9.993-9.999 5.52 0 9.997 4.476 9.997 9.999"/><path clip-path="url(#R)" fill="#30313C" d="M217.958 156.342a7.318 7.318 0 1 1-14.635 0 7.318 7.318 0 1 1 14.635 0"/><path clip-path="url(#R)" fill="#FFF" d="M217.478 149.758a2.669 2.669 0 1 1-2.669-2.669 2.668 2.668 0 0 1 2.669 2.669"/><path fill="none" d="M17.782 7.636h333.993v465.387H17.782z"/></g></svg>