<svg xmlns="http://www.w3.org/2000/svg" xmlns:xlink="http://www.w3.org/1999/xlink" width="350" height="350" viewBox="0 0 350 350"><title>kitty-love-3</title><circle fill="#E5EEC4" cx="174.5" cy="178" r="130"/><ellipse opacity=".1" cx="176.5" cy="223.77" rx="36.82" ry="8.23"/><path fill="#FFF" d="M213.29 187.689c0 24-16.47 37.261-36.79 37.261s-36.79-13.25-36.79-37.261C139.71 163.68 160 138 176.5 138s36.79 25.68 36.79 49.689z"/><path fill="none" d="M213.29 187.689c0 24-16.47 37.261-36.79 37.261s-36.79-13.25-36.79-37.261C139.71 163.68 160 138 176.5 138s36.79 25.68 36.79 49.689z"/><defs><path id="a" d="M213.29 187.689c0 24-16.47 37.261-36.79 37.261s-36.79-13.25-36.79-37.261C139.71 163.68 160 138 176.5 138s36.79 25.68 36.79 49.689z"/></defs><clipPath id="b"><use xlink:href="#a" overflow="visible"/></clipPath><g clip-path="url(#b)"><linearGradient id="c" gradientUnits="userSpaceOnUse" x1="184.18" y1="180.04" x2="201.88" y2="180.04"><stop offset="0" stop-color="#ffe9b8"/><stop offset="1" stop-color="#e0c78d"/></linearGradient><ellipse fill="url(#c)" cx="193.029" cy="180.04" rx="8.851" ry="10.03"/><linearGradient id="d" gradientUnits="userSpaceOnUse" x1="163.46" y1="197" x2="172.78" y2="197"><stop offset="0" stop-color="#ffe9b8"/><stop offset="1" stop-color="#e0c78d"/></linearGradient><ellipse fill="url(#d)" cx="168.12" cy="197" rx="4.66" ry="4.779"/><linearGradient id="e" gradientUnits="userSpaceOnUse" x1="166.26" y1="167.86" x2="174.64" y2="167.86"><stop offset="0" stop-color="#ffe9b8"/><stop offset="1" stop-color="#e0c78d"/></linearGradient><ellipse fill="url(#e)" cx="170.45" cy="167.86" rx="4.19" ry="4.3"/><linearGradient id="f" gradientUnits="userSpaceOnUse" x1="156.01" y1="146.12" x2="169.51" y2="146.12"><stop offset="0" stop-color="#ffe9b8"/><stop offset="1" stop-color="#e0c78d"/></linearGradient><ellipse fill="url(#f)" cx="162.76" cy="146.12" rx="6.75" ry="7.41"/><linearGradient id="g" gradientUnits="userSpaceOnUse" x1="178.185" y1="148.288" x2="201.231" y2="148.288"><stop offset="0" stop-color="#ffe9b8"/><stop offset="1" stop-color="#e0c78d"/></linearGradient><path fill="url(#g)" d="M184 137.76c-4.189 8.6-7.721 18.54-4.66 20.54 5.131 3.35 16.77-10.51 21.891-15.28"/><linearGradient id="h" gradientUnits="userSpaceOnUse" x1="134.59" y1="171.494" x2="159.975" y2="171.494"><stop offset="0" stop-color="#ffe9b8"/><stop offset="1" stop-color="#e0c78d"/></linearGradient><path fill="url(#h)" d="M144.37 154.48c7.92 7.17 23.57 28.049 10.71 33.44-10.24 4.301-19.09-16.24-20.49-20.06"/><linearGradient id="i" gradientUnits="userSpaceOnUse" x1="146" y1="218.289" x2="209.79" y2="218.289"><stop offset="0" stop-color="#ffe9b8"/><stop offset="1" stop-color="#e0c78d"/></linearGradient><path fill="url(#i)" d="M146 213.25c14.9-5.74 18.9-2 26.54 1.91 5.59 2.859 11.64-6.689 17.7-8.6 6.06-1.91 11.64-1 19.55 4.77l-17.69 19.59h-27L146 213.25z"/><linearGradient id="j" gradientUnits="userSpaceOnUse" x1="137.09" y1="187.18" x2="205.641" y2="187.18"><stop offset="0" stop-color="#ffe9b8"/><stop offset="1" stop-color="#e0c78d"/></linearGradient><path opacity=".12" fill="url(#j)" d="M162.88 143.73c-14.81 20.07-20.54 46.34-6.68 62.11 12.6 14.34 39.649 11.311 49.44 6.131v18.709h-68.55v-87l25.79.05z"/></g><path fill="none" stroke="#000" stroke-width="2.358" stroke-miterlimit="10" d="M213.29 187.689c0 24-16.47 37.261-36.79 37.261s-36.79-13.25-36.79-37.261C139.71 163.68 160 138 176.5 138s36.79 25.68 36.79 49.689z"/></svg>