<svg xmlns="http://www.w3.org/2000/svg" width="73" height="73" viewBox="63.5 63.5 73 73"><path fill="#D55F5A" d="M71.347 86.506l.595.079-.595-.079zm65.153 1.387c-.476-5.826-2.536-10.859-6.023-14.545-2.973-3.17-6.976-5.231-10.898-5.627a32.21 32.21 0 0 0-3.33-.159c-4.002 0-7.173.792-10.026 2.537-2.457 1.506-4.438 3.527-6.222 5.588-1.784-2.021-3.765-4.082-6.222-5.588-2.854-1.744-6.063-2.537-10.027-2.537-1.03 0-2.14.04-3.329.159-3.923.396-7.887 2.417-10.898 5.627-3.488 3.686-5.548 8.719-6.024 14.545v4.201c.476 6.261 3.17 11.77 8.679 17.834 5.39 5.865 13.792 12.682 27.227 22.113l.555.396.356-.158.357-.238c13.475-9.432 21.836-16.248 27.147-22.113 5.508-6.064 8.203-11.573 8.679-17.834v-4.201zM85.455 75.211c-2.298.079-4.319.555-6.023 1.466a12.158 12.158 0 0 0-3.844 3.131c-1.031 1.268-1.942 2.933-2.497 4.597-.238.674-.476 1.466-.594 2.259-.04.278-.198.515-.476.713a1.314 1.314 0 0 1-.634.198c-.079 0-.198 0-.277-.04-.555-.159-.872-.713-.792-1.308.238-1.664.911-3.527 1.942-5.39 1.189-2.14 2.774-3.923 4.597-5.231 2.338-1.625 5.311-2.537 8.56-2.616.634 0 1.11.436 1.11 1.07a1.065 1.065 0 0 1-1.072 1.151z"/></svg>