<svg xmlns="http://www.w3.org/2000/svg" xmlns:xlink="http://www.w3.org/1999/xlink" width="340" height="340" viewBox="-40 -40 340 340"><circle fill="#FFD334" cx="130" cy="130" r="170"/><defs><circle id="a" cx="130" cy="130" r="170"/></defs><clipPath id="b"><use xlink:href="#a" overflow="visible"/></clipPath><g clip-path="url(#b)"><path fill="#F9F5ED" d="M69.116 82.44s4.352-65.974 14.649-66.805c10.298-.832 24.158 56.272 24.158 56.272L69.116 82.44z"/><path fill="#99918A" d="M77.104 78.355s5.829-48.861 8.089-49.139c2.26-.277 14.415 41.028 14.415 41.028l-22.504 8.111z"/><path fill="#F9F5ED" d="M188.884 82.44s-4.352-65.974-14.65-66.805c-10.298-.832-24.158 56.272-24.158 56.272l38.808 10.533z"/><path fill="#99918A" d="M180.896 78.355s-5.83-48.861-8.09-49.139c-2.259-.277-14.414 41.028-14.414 41.028l22.504 8.111z"/><path fill="none" stroke="#000" stroke-width="2" stroke-miterlimit="10" d="M69.116 82.44s4.352-65.974 14.649-66.805c10.298-.832 24.158 56.272 24.158 56.272L69.116 82.44zm119.768 0s-4.352-65.974-14.65-66.805c-10.298-.832-24.158 56.272-24.158 56.272l38.808 10.533z"/><path fill="#C6C1BA" d="M113.573 278.605v-21.252H73.828a144.5 144.5 0 0 0-10.145-2.04c1.419 5.681 2.974 11.473 4.56 17.37 3.287 12.216 6.684 24.848 8.948 37.184 2.079 11.336 3.749 23.786 5.364 35.827 2.145 15.996 3.957 28.841 6.108 38.181h23.773c1.105-6.782 1.928-15.791 2.964-27.15.176-1.936.359-3.944.552-6.028 2.726-29.529 3.224-61.625 3.315-72.091h-5.694zm70.598-21.251h-39.744v21.252h-5.695c.09 10.466.589 42.562 3.314 72.091.192 2.079.375 4.083.551 6.015 1.037 11.366 1.859 20.379 2.967 27.164h23.771c2.151-9.34 3.965-22.186 6.109-38.182 1.615-12.04 3.285-24.491 5.364-35.826 2.263-12.336 5.661-24.968 8.946-37.184 1.588-5.898 3.144-11.689 4.562-17.37a145.308 145.308 0 0 0-10.145 2.04"/><g opacity=".07"><defs><path id="c" d="M124.503 62.097h84.88v338.376h-84.88z"/></defs><clipPath id="d"><use xlink:href="#c" overflow="visible"/></clipPath><path clip-path="url(#d)" d="M209.38 110.145s-6.283-4.805-8.87-10.35c-2.588-5.543-13.397-37.699-70.51-37.699-1.885 0-3.715.038-5.5.106 52.313 1.99 62.508 32.233 65.01 37.593 2.587 5.545 8.87 10.35 8.87 10.35-3.143 1.108-11.088-.924-11.088-.924.37 5.543 7.762 13.12 7.762 13.12s-6.334 4.685-4.805 10.904c5.067 20.608 3.511 47.862 3.142 57.288-.37 9.424 2.587 23.469 2.587 23.469-4.805-2.588-6.098-5.359-6.098-5.359.184 5.914 3.141 16.262 3.141 16.262-3.141-2.402-4.841-3.67-4.841-3.67-1.534 26.863-13.918 58.521-19.552 89.232-6.003 32.72-8.641 74.927-15.895 86.77 1.69 2.407 3.903 3.418 6.955 3.209 10.515-.72 12.937-51.808 19.939-89.979 5.634-30.711 18.018-62.369 19.552-89.232 0 0 1.7 1.268 4.841 3.67 0 0-2.957-10.348-3.141-16.262 0 0 1.293 2.771 6.098 5.359 0 0-2.957-14.045-2.587-23.469.369-9.426 1.926-36.68-3.142-57.288-1.529-6.22 4.805-10.904 4.805-10.904s-7.392-7.577-7.762-13.12c.001 0 7.946 2.031 11.089.924"/></g><g opacity=".1"><defs><path id="e" d="M49.622 60.646h158.761v338.376H49.622z"/></defs><clipPath id="f"><use xlink:href="#e" overflow="visible"/></clipPath><path clip-path="url(#f)" fill="#A5A5A5" d="M207.297 107.804c.024.36.083.729.164 1.103.333-.052.649-.118.919-.213 0 0-.42-.323-1.083-.89m-146.594 0c1.911-1.637 5.866-5.342 7.787-9.458C71 92.967 81.251 62.548 134 60.733a145.251 145.251 0 0 0-5-.086c-57.112 0-67.923 32.154-70.51 37.699-2.587 5.543-8.87 10.348-8.87 10.348 3.141 1.109 11.087-.924 11.087-.924 0 .012-.004.023-.004.034"/><path clip-path="url(#f)" fill="#F9F5ED" d="M89.372 309.018c-5.634-30.712-18.018-62.37-19.553-89.232 0 0-1.699 1.268-4.841 3.67 0 0 2.957-10.35 3.142-16.263 0 0-1.294 2.772-6.099 5.359 0 0 2.957-14.046 2.588-23.47-.37-9.424-1.927-36.679 3.142-57.288 1.529-6.219-4.806-10.903-4.806-10.903s7.393-7.576 7.763-13.121c0 0-6.628 1.691-10.168 1.137-1.161 5.385-7.595 11.984-7.595 11.984s6.335 4.685 4.806 10.903c-5.068 20.609-3.512 47.864-3.142 57.288.369 9.424-2.588 23.47-2.588 23.47 4.805-2.587 6.099-5.359 6.099-5.359-.185 5.913-3.142 16.263-3.142 16.263 3.142-2.402 4.841-3.67 4.841-3.67 1.535 26.862 13.919 58.521 19.553 89.232 7.002 38.17 9.425 89.258 19.938 89.978 2.737.188 4.797-.608 6.412-2.507-7.602-10.784-10.223-54.073-16.35-87.471"/></g><path fill="#F9F5ED" d="M199.17 365.925s17.259-17.565 28.69-40.333c17.945-35.74 26.271-81.266-34.937-70.094 3.114-12.383 5.62-24.352 6.256-35.494 0 0 1.699 1.27 4.841 3.671 0 0-2.957-10.349-3.142-16.263 0 0 1.294 2.773 6.099 5.359 0 0-2.957-14.045-2.587-23.469.369-9.426 1.927-36.68-3.142-57.289-1.53-6.219 4.805-10.901 4.805-10.901s-7.392-7.579-7.762-13.123c0 0 7.946 2.034 11.088.924 0 0-6.283-4.804-8.87-10.348-2.588-5.544-13.399-37.7-70.51-37.7-57.112 0-67.923 32.156-70.51 37.7s-8.87 10.348-8.87 10.348c3.141 1.11 11.088-.924 11.088-.924-.37 5.544-7.762 13.123-7.762 13.123s6.334 4.683 4.805 10.901c-5.068 20.609-3.512 47.863-3.143 57.289.37 9.424-2.587 23.469-2.587 23.469 4.806-2.586 6.099-5.359 6.099-5.359-.185 5.914-3.142 16.263-3.142 16.263 3.142-2.401 4.841-3.671 4.841-3.671.637 11.143 3.143 23.111 6.256 35.494-61.208-11.172-52.881 34.354-34.936 70.094 11.432 22.768 28.69 40.333 28.69 40.333-8.732-3.327-26.411-1.071-29.006 8.954-2.401 9.279 14.609 8.766 14.609 8.766h45.497c2.195 9.318 4.824 15.328 8.38 15.57 6.24.428 8.985-4.202 10.882-15.57h37.617c1.896 11.368 4.643 15.998 10.882 15.57 3.557-.242 6.186-6.252 8.381-15.57h45.496s17.012.514 14.609-8.766c-2.594-10.025-20.274-12.281-29.005-8.954"/><defs><path id="g" d="M129.011 56.321c-11.531.021-22.491 2.059-32.423 5.697a89.19 89.19 0 0 0-4.934 1.983 85.703 85.703 0 0 0-8.263 4.118c-7.792 4.445-14.604 9.999-20.136 16.378a66.533 66.533 0 0 0-8.238 11.851 61.741 61.741 0 0 0-3.179 6.813c-2.655 6.747-4.107 13.949-4.094 21.438.013 6.687 2.871 16.719 8.034 27.641.085.047.16.096.245.143l.018-.081a26.396 26.396 0 0 0 2.481-1.234c.267-.147.515-.323.776-.481.525-.318 1.056-.633 1.563-.983.293-.203.571-.433.858-.644.454-.34.914-.672 1.352-1.032.287-.235.558-.492.837-.737.422-.371.851-.734 1.261-1.127.269-.257.525-.529.79-.796.402-.405.809-.806 1.199-1.229.252-.271.494-.557.741-.834.392-.44.782-.877 1.162-1.334.226-.27.445-.55.669-.826.393-.485.785-.971 1.167-1.47.188-.244.372-.496.558-.744.41-.549.823-1.099 1.226-1.66.139-.194.276-.394.415-.588.456-.645.909-1.291 1.354-1.944l.133-.194c3.057-4.494 5.922-9.145 8.945-13.296.053-.075.108-.147.162-.222a75.911 75.911 0 0 1 1.693-2.222 57.054 57.054 0 0 1 1.729-2.074c.447-.51.901-1.004 1.36-1.48.14-.145.282-.289.423-.432a30.478 30.478 0 0 1 1.851-1.727c.463-.398.932-.781 1.409-1.141.172-.129.347-.254.521-.378.478-.343.965-.669 1.463-.971.185-.112.375-.216.563-.323a19.978 19.978 0 0 1 1.525-.787c.2-.091.406-.172.61-.258a18.377 18.377 0 0 1 1.603-.592c.212-.067.432-.12.649-.178a17.707 17.707 0 0 1 1.693-.385c.228-.039.46-.062.69-.09a17.85 17.85 0 0 1 1.801-.163c.237-.008.483.003.725.004.63.001 1.267.016 1.927.079.244.024.5.07.749.102.678.086 1.36.187 2.07.341.252.055.515.135.77.199.73.18 1.468.374 2.234.63.25.083.515.193.769.284.795.286 1.598.585 2.432.952.24.104.493.238.734.351.874.403 1.757.823 2.675 1.318.214.115.442.258.657.379a60.798 60.798 0 0 1 2.974 1.747c.15.096.312.212.464.311a79.56 79.56 0 0 1 3.401 2.297h.001c-1.946-20.39-2.565-40.313 3.794-40.4v.014c6.398-.012 5.85 19.957 3.975 40.394a78.306 78.306 0 0 1 3.393-2.311c.152-.099.313-.215.463-.312a62.098 62.098 0 0 1 2.967-1.758c.217-.121.443-.265.657-.381a46.908 46.908 0 0 1 2.67-1.329c.241-.112.493-.247.731-.354a37.478 37.478 0 0 1 2.429-.959c.255-.093.519-.204.768-.289a29.93 29.93 0 0 1 2.232-.638c.256-.063.518-.144.769-.2.709-.157 1.394-.26 2.07-.35.248-.033.504-.08.749-.104a21.118 21.118 0 0 1 1.926-.086c.241-.001.486-.014.724-.007a18.8 18.8 0 0 1 1.802.156c.229.029.463.05.69.088.578.097 1.142.229 1.696.379.217.057.437.11.65.176.547.168 1.079.369 1.603.586.205.085.411.165.611.256.521.236 1.029.501 1.53.781.188.106.378.209.563.322.499.3.986.624 1.467.965.175.124.349.247.521.376.479.359.951.739 1.414 1.137.16.137.32.274.479.416a34.975 34.975 0 0 1 1.803 1.734 44.124 44.124 0 0 1 1.726 1.89 58.768 58.768 0 0 1 1.657 2.009c.478.606.953 1.225 1.421 1.859l.164.221c3.038 4.142 5.919 8.783 8.99 13.266.046.063.09.129.134.193.448.652.903 1.297 1.361 1.938.141.194.278.394.417.587.405.559.818 1.107 1.232 1.657.188.246.371.496.559.741.385.497.78.981 1.175 1.466.224.275.442.554.671.824.381.455.774.89 1.166 1.328.249.277.492.562.744.832.393.422.801.821 1.205 1.226.265.264.523.538.793.793.41.39.84.753 1.264 1.122.279.242.553.499.839.734.44.359.901.689 1.356 1.025.289.213.566.439.86.643.508.349 1.039.66 1.567.978.262.157.511.331.776.479.806.447 1.633.858 2.487 1.226l.016.08c.086-.046.161-.099.246-.144 5.122-10.94 7.946-20.983 7.934-27.669-.014-7.49-1.491-14.688-4.17-21.423a61.604 61.604 0 0 0-3.204-6.803 66.533 66.533 0 0 0-8.28-11.821c-5.557-6.36-12.388-11.889-20.195-16.305a85.874 85.874 0 0 0-8.277-4.089 87.97 87.97 0 0 0-4.94-1.963c-9.944-3.603-20.912-5.602-32.444-5.581-.2 0-.4.011-.602.013v-.02c-.205-.001-.408-.012-.613-.012l-.025-.001"/></defs><clipPath id="h"><use xlink:href="#g" overflow="visible"/></clipPath><path clip-path="url(#h)" fill="#3C3729" d="M117.825 275.095s0 39.362-3.326 75.398-3.922 49.672-14.435 48.952c-10.514-.72-12.936-51.808-19.938-89.978-5.635-30.712-18.019-62.37-19.553-89.233 0 0-1.699 1.269-4.842 3.672 0 0 2.957-10.35 3.143-16.264 0 0-1.295 2.771-6.099 5.359 0 0 2.956-14.045 2.587-23.471-.369-9.424-1.927-36.678 3.143-57.288 1.529-6.217-4.805-10.902-4.805-10.902s7.392-7.576 7.761-13.12c0 0-7.946 2.032-11.088.924 0 0 6.283-4.805 8.87-10.349 2.588-5.544 13.398-37.699 70.511-37.699 57.111 0 67.922 32.155 70.509 37.699s8.871 10.349 8.871 10.349c-3.143 1.108-11.088-.924-11.088-.924.369 5.544 7.761 13.12 7.761 13.12s-6.334 4.686-4.804 10.902c5.067 20.61 3.511 47.864 3.141 57.288-.369 9.426 2.587 23.471 2.587 23.471-4.804-2.588-6.098-5.359-6.098-5.359.185 5.914 3.142 16.264 3.142 16.264-3.142-2.403-4.841-3.672-4.841-3.672-1.535 26.863-13.919 58.521-19.553 89.233-7.002 38.17-9.425 89.258-19.938 89.978s-11.107-12.916-14.435-48.952c-3.326-36.036-3.326-75.398-3.326-75.398"/><path fill="#3C3729" d="M181.853 297.645c.038-4.349.408-7.735-1.154-9.064-5.656-4.814-21.479-11.174-25.69-20.621-3.968-8.896-3.125-17.522 2.366-24.275 4.413-5.43 15.703-12.668 40.479-9.039-4 17-4 23-10 43-1.929 6.424-3.837 14.143-6.001 19.999m-104 0c-.091-4.348-1.922-7.616-.376-8.965 5.597-4.883 21.34-11.437 25.436-20.935 3.857-8.945 2.909-17.56-2.663-24.244-4.481-5.375-12.668-12.79-37.396-8.856 2 16 6 32 10 43 2.338 6.437 2.762 14.17 4.999 20"/><defs><path id="i" d="M59.489 99.565c-2.587 5.544-8.87 10.348-8.87 10.348 3.143 1.11 11.089-.923 11.089-.923-.37 5.543-7.762 13.121-7.762 13.121s6.334 4.683 4.805 10.902c-5.068 20.609-3.512 47.863-3.142 57.289.369 9.424-2.588 23.469-2.588 23.469 4.805-2.587 6.099-5.359 6.099-5.359-.185 5.914-3.142 16.262-3.142 16.262 3.142-2.401 4.841-3.67 4.841-3.67.637 11.143 3.143 23.111 6.256 35.494-61.208-11.173-52.882 34.354-34.936 70.095 11.431 22.767 28.689 40.332 28.689 40.332-8.731-3.327-26.41-1.071-29.006 8.954-2.4 9.278 14.61 8.766 14.61 8.766h45.497c2.195 9.318 4.824 15.328 8.381 15.57 6.239.428 8.984-4.202 10.882-15.57h37.614c1.896 11.368 4.643 15.998 10.882 15.57 3.556-.242 6.186-6.252 8.38-15.57h45.497s17.011.513 14.61-8.766c-2.595-10.025-20.275-12.281-29.005-8.954 0 0 17.258-17.565 28.689-40.332 17.945-35.741 26.272-81.268-34.936-70.095 3.113-12.383 5.619-24.352 6.255-35.494 0 0 1.7 1.269 4.841 3.67 0 0-2.957-10.348-3.141-16.262 0 0 1.293 2.772 6.098 5.359 0 0-2.957-14.045-2.587-23.469.369-9.426 1.926-36.68-3.142-57.289-1.53-6.22 4.805-10.902 4.805-10.902s-7.393-7.577-7.762-13.121c0 0 7.946 2.033 11.088.923 0 0-6.283-4.804-8.869-10.348-2.588-5.544-13.4-37.699-70.512-37.699s-67.92 32.155-70.508 37.699"/></defs><clipPath id="j"><use xlink:href="#i" overflow="visible"/></clipPath><g opacity=".05" clip-path="url(#j)"><defs><path id="k" d="M-11.647 41.083h263v397.808h-263z"/></defs><clipPath id="l"><use xlink:href="#k" overflow="visible"/></clipPath><path clip-path="url(#l)" d="M108.853 51.645s-73 39-36 211c0 0-97.5-21.5-5 107 0 0-48.645 4.854-25 22 65.5 47.5 180.5-2.5 180.5-2.5s14-19-32-19c0 0 91-122-6-106 0 0 40-171-30-207-16.325-8.396 48-6 48-6l48 289-13 73s-222 39-226 21-24-96-24-96 22-176 21-185 19-111 21-112 78.5 10.5 78.5 10.5"/></g><path fill="none" stroke="#000" stroke-miterlimit="10" d="M168.069 384.145h45.496s17.012.514 14.609-8.766c-2.594-10.025-20.273-12.281-29.005-8.954 0 0 17.259-17.565 28.689-40.333 17.946-35.74 26.272-81.266-34.936-70.094 3.114-12.383 5.62-24.352 6.256-35.494 0 0 1.7 1.269 4.841 3.67 0 0-2.957-10.348-3.141-16.262 0 0 1.293 2.772 6.098 5.359 0 0-2.957-14.045-2.587-23.469.369-9.426 1.926-36.68-3.142-57.289-1.53-6.22 4.805-10.902 4.805-10.902s-7.392-7.577-7.762-13.121c0 0 7.945 2.033 11.088.924 0 0-6.283-4.805-8.87-10.349S187.11 61.367 130 61.367c-57.112 0-67.923 32.155-70.511 37.699-2.586 5.544-8.869 10.349-8.869 10.349 3.141 1.109 11.088-.924 11.088-.924-.37 5.544-7.762 13.121-7.762 13.121s6.334 4.683 4.805 10.902c-5.068 20.609-3.512 47.863-3.143 57.289.37 9.424-2.587 23.469-2.587 23.469 4.806-2.587 6.099-5.359 6.099-5.359-.185 5.914-3.142 16.262-3.142 16.262 3.142-2.401 4.841-3.67 4.841-3.67.637 11.143 3.143 23.111 6.256 35.494-61.208-11.172-52.881 34.354-34.936 70.094 11.432 22.768 28.69 40.333 28.69 40.333-8.732-3.327-26.411-1.071-29.006 8.954-2.401 9.279 14.609 8.766 14.609 8.766h45.497m19.263-.001h37.615"/><path fill="none" stroke="#000" stroke-miterlimit="10" d="M193.353 256.145c-4.395 17.474-10.575 34.347-13.873 52.323-7.002 38.17-9.424 89.258-19.938 89.978-10.515.721-11.108-12.916-14.435-48.952-3.327-36.035-3.327-75.398-3.327-75.398m-23.855-.001s0 39.362-3.327 75.398c-3.326 36.036-3.921 49.672-14.435 48.952-10.513-.72-12.936-51.808-19.938-89.978-3.245-17.688-8.729-35.688-13.09-52.906"/><path fill="#FFF" d="M89.483 85.645c-12.72 0-23.03 10.311-23.03 23.029 0 12.72 10.311 23.031 23.03 23.031 12.719 0 23.029-10.311 23.029-23.031.001-12.718-10.31-23.029-23.029-23.029"/><circle fill="none" stroke="#000" stroke-width="1.574" stroke-linecap="round" stroke-linejoin="round" cx="89.483" cy="108.674" r="23.03"/><path fill="#F7DF5A" d="M111.853 111.145c0 9.665-7.835 17.5-17.5 17.5s-17.5-7.835-17.5-17.5 7.835-17.5 17.5-17.5 17.5 7.834 17.5 17.5"/><path fill="#31323C" d="M110.075 111.526c0 8.499-6.891 15.391-15.391 15.391-8.499 0-15.389-6.892-15.389-15.391s6.89-15.39 15.389-15.39c8.501 0 15.391 6.891 15.391 15.39"/><path fill="#FFF" d="M104.342 95.399a6.245 6.245 0 1 1-12.49 0 6.245 6.245 0 0 1 12.49 0m66.636-9.754c-12.719 0-23.03 10.311-23.03 23.029 0 12.72 10.312 23.031 23.03 23.031s23.03-10.311 23.03-23.031c0-12.718-10.312-23.029-23.03-23.029"/><circle fill="none" stroke="#000" stroke-width="1.574" stroke-linecap="round" stroke-linejoin="round" cx="170.978" cy="108.674" r="23.03"/><path fill="#F7DF5A" d="M183.853 111.145c0 9.665-7.835 17.5-17.5 17.5s-17.5-7.835-17.5-17.5 7.835-17.5 17.5-17.5 17.5 7.834 17.5 17.5"/><path fill="#31323C" d="M182.075 111.526c0 8.499-6.891 15.391-15.391 15.391-8.499 0-15.389-6.892-15.389-15.391s6.89-15.39 15.389-15.39c8.501 0 15.391 6.891 15.391 15.39"/><path fill="#FFF" d="M176.342 95.399a6.245 6.245 0 1 1-12.49 0 6.245 6.245 0 0 1 12.49 0"/><path fill="#3C3729" d="M144.476 128.592c.007 3.87-5.366 13.396-13.937 13.413-8.569.017-13.978-9.63-13.984-13.361-.012-5.955 6.236-7.4 13.946-7.414 7.71-.015 13.963 1.408 13.975 7.362"/><ellipse fill="#D55F5A" stroke="#020202" stroke-miterlimit="10" cx="130" cy="165" rx="6.615" ry="9"/></g></svg>