<svg width="45" height="46" viewBox="0 0 45 46" xmlns="http://www.w3.org/2000/svg"><title>Group 4</title><g fill="none" fill-rule="evenodd"><circle fill="#FCF0A5" cx="22.5" cy="23" r="22.5"/><g transform="translate(11.5 13.5)"><ellipse fill="#C6AB7A" opacity=".55" cx="11" cy="18.25" rx="10.5" ry="2.25"/><path d="M11 3.82C8.066 3.202 3.688 2.314 4.52.812c1.056-1.904 4.375 2.003 6.717 2.677 3.718 1.07 3.569 1.132-.237.33z" stroke="#2A2825" stroke-width=".75"/><path d="M10.64 3.845c2.933-.617 7.201-1.53 6.37-3.033-1.056-1.904-4.376 2.003-6.717 2.677-3.718 1.07-3.459 1.158.347.356z" stroke="#2A2825" stroke-width=".75"/><path d="M2.284 7.027l.12-3.592h17.158l.282 4.625-.208.024a1 1 0 0 0-.886.994v8.334a1 1 0 0 1-1 1H4.344a1 1 0 0 1-1-1V8.06h-.06a1 1 0 0 1-1-1.033z" fill="#F56D84"/><path d="M11 8.985v7.532" stroke="#FFD300" stroke-width="4" stroke-linecap="square"/><path d="M11 3.47v4.07" stroke="#FFD300" stroke-width="4.5"/><path stroke="#FFF" stroke-width="1.5" opacity=".254" stroke-linecap="round" stroke-linejoin="round" d="M2.5 3.87h16.75v3.876"/><path fill="#C90527" opacity=".337" d="M3.206 8h15.588v3H3.206z"/><path d="M3.265 8v10.147a.5.5 0 0 0 .5.5h14.47a.5.5 0 0 0 .5-.5V8H3.265z" stroke="#2A2825"/><rect stroke="#2A2825" x="2.244" y="3.265" width="17.529" height="4.765" rx=".5"/></g></g></svg>